<?xml version="1.0" encoding="utf-8"?>
<!-- Generator: Adobe Illustrator 24.0.2, SVG Export Plug-In . SVG Version: 6.00 Build 0)  -->
<svg version="1.1" id="Layer_1" xmlns="http://www.w3.org/2000/svg" xmlns:xlink="http://www.w3.org/1999/xlink" x="0px" y="0px"
	 viewBox="0 0 707.1 554" style="enable-background:new 0 0 707.1 554;" xml:space="preserve">
<style type="text/css">
	.st0{fill:#3A3A3A;}
	.st1{fill:#9C754E;}
	.st2{fill:#A3A3A3;}
	.st3{fill:#DED8D1;}
	.st4{fill:#9B897F;}
	.st5{fill:#CDC6BC;}
	.st6{fill:#CAAE68;}
	.st7{fill:#72522F;}
	.st8{fill:#9F7D4A;}
	.st9{fill:#AE835B;}
	.st10{fill:#C99A6B;}
	.st11{fill:#E8B687;}
	.st12{fill:#F0CBA4;}
	.st13{fill:#FFFFFF;}
	.st14{fill:#D2D2D2;}
	.st15{fill:#4E4E4E;}
	.st16{fill:#7282B5;}
	.st17{fill:#BF2A40;}
	.st18{fill:#DF314A;}
	.st19{fill:#EAAA96;}
	.st20{fill:#EFC3B1;}
	.st21{fill:#2E3665;}
	.st22{fill:#3D3D3D;}
	.st23{fill:#6F6F6F;}
	.st24{fill:#ED9600;}
	.st25{fill:#FECB4C;}
	.st26{fill:#EDA600;}
	.st27{fill:#CCA467;}
	.st28{fill:#D9B47B;}
	.st29{fill:#DBB78F;}
	.st30{fill:#B58960;}
	.st31{clip-path:url(#SVGID_2_);}
	.st32{clip-path:url(#SVGID_4_);}
	.st33{fill:#BECDD4;}
	.st34{fill-rule:evenodd;clip-rule:evenodd;fill:#D2D2D2;}
	.st35{fill:#FFAD97;}
	.st36{fill:#FFC5B3;}
</style>
<path class="st0" d="M406.5,278.8l0-211l-3.5-2v211L406.5,278.8z"/>
<path class="st1" d="M406.5,278.8l4.2-2.4V65.3l-4.2,2.4V278.8z"/>
<path class="st0" d="M480,236.4l0-211l-3.5-2v211L480,236.4z"/>
<path class="st1" d="M480,236.4l4.2-2.4V23l-4.2,2.4V236.4z"/>
<path class="st2" d="M403,65.7l3.5,2l4.2-2.4l-3.5-2L403,65.7z"/>
<path class="st2" d="M476.6,23.4l3.5,2l4.2-2.4l-3.5-2L476.6,23.4z"/>
<path class="st1" d="M482.8,228.7l-2.8,2.8l-71.7-57l1.3-4.2L482.8,228.7z"/>
<path class="st1" d="M408.9,269.3l0.7,4l72.2-140.2l-1.7-2.4L408.9,269.3z"/>
<path class="st1" d="M482.8,129.2L480,132l-71.7-57l1.3-4.2L482.8,129.2z"/>
<path class="st1" d="M408.9,169.8l0.7,4l72.2-140.2l-1.7-2.5L408.9,169.8z"/>
<path class="st3" d="M481,221.8l-73.4,42.6l158.7,92.3l73.6-42.5L481,221.8z"/>
<path class="st4" d="M566.3,361.8v-5.4l73.6-42.5v5.4L566.3,361.8z"/>
<path class="st5" d="M407.6,264.4v5.5l158.7,91.7v-5.4L407.6,264.4z"/>
<path class="st6" d="M540.4,263.6l-55,31.8l1.7,1.1l55.2-31.9L540.4,263.6z"/>
<path class="st7" d="M542.2,264.6L487,296.4v7.9l55.2-31.9V264.6z"/>
<path class="st8" d="M485.3,303.3v-7.9l1.7,1.1v7.9L485.3,303.3z"/>
<path class="st6" d="M478.9,227.9l-55,31.8l1.7,1.1l55.2-31.9L478.9,227.9z"/>
<path class="st7" d="M480.8,228.9l-55.2,31.9v7.9l55.2-31.9V228.9z"/>
<path class="st8" d="M423.9,267.7v-7.9l1.7,1.1v7.9L423.9,267.7z"/>
<path class="st6" d="M508.8,244.9l-55,31.8l1.7,1.1l55.2-31.9L508.8,244.9z"/>
<path class="st7" d="M510.6,245.9l-55.2,31.9v7.9l55.2-31.9V245.9z"/>
<path class="st8" d="M453.7,284.6v-7.9l1.7,1.1v7.9L453.7,284.6z"/>
<path class="st8" d="M487,294l-63.2-36.5v2.5l63.2,36.5V294z"/>
<path class="st6" d="M493.6,290.3L487,294l-63.2-36.5l6.6-3.7L493.6,290.3z"/>
<path class="st7" d="M493.6,290.3L487,294v4.7l6.6-3.9V290.3z"/>
<path class="st8" d="M499.4,286.8L436,250.2v2.5l63.3,36.6V286.8z"/>
<path class="st6" d="M506,283.1l-6.6,3.7L436,250.2l6.6-3.7L506,283.1z"/>
<path class="st7" d="M506,283.1l-6.6,3.7v4.7l6.6-3.9V283.1z"/>
<path class="st8" d="M512,279.6l-63.5-36.7v2.5l63.5,36.7V279.6z"/>
<path class="st6" d="M518.6,275.9l-6.6,3.7l-63.5-36.7l6.6-3.7L518.6,275.9z"/>
<path class="st7" d="M518.6,275.9l-6.6,3.7v4.7l6.6-3.9V275.9z"/>
<path class="st8" d="M524.3,272.4l-63.3-36.5v2.5l63.3,36.5V272.4z"/>
<path class="st6" d="M530.9,268.7l-6.6,3.7l-63.3-36.5l6.6-3.7L530.9,268.7z"/>
<path class="st7" d="M530.9,268.7l-6.6,3.7v4.7l6.6-3.9V268.7z"/>
<path class="st8" d="M535.6,266l-63.5-36.6v2.5l63.5,36.6V266z"/>
<path class="st6" d="M542.2,262.3l-6.6,3.7l-63.5-36.6l6.6-3.7L542.2,262.3z"/>
<path class="st7" d="M542.2,262.3l-6.6,3.7v4.7l6.6-3.9V262.3z"/>
<path class="st9" d="M458.8,273.1l0-19.7l-28.5-16.5v19.6L458.8,273.1z"/>
<path class="st10" d="M458.8,273.1l0-19.7l41.1-23.7v19.6L458.8,273.1z"/>
<path class="st11" d="M499.9,229.7l-41.1,23.7l-28.5-16.5l41.1-23.7L499.9,229.7z"/>
<path class="st1" d="M440.9,253.4l6.4,3.7v-10.4l-6.4-3.7V253.4z"/>
<path class="st12" d="M440.9,243l41.1-23.7l6.4,3.7l-41.1,23.7L440.9,243z"/>
<path class="st1" d="M456.7,269.8V268l-9.6-5.6v1.9L456.7,269.8z"/>
<path class="st1" d="M456.7,266.5v-1.8l-9.6-5.6v1.9L456.7,266.5z"/>
<path class="st1" d="M494.2,243.7v6.6l4.6-2.6V241L494.2,243.7z"/>
<path class="st1" d="M487.9,247.3v6.6l4.6-2.6v-6.6L487.9,247.3z"/>
<path class="st1" d="M481.6,251v6.6l4.6-2.6v-6.6L481.6,251z"/>
<path class="st12" d="M460.1,254.2v9.5l9.4-5.4v-9.6L460.1,254.2z"/>
<path class="st1" d="M461.2,256.2v-1.6l7.4-4.3v1.5L461.2,256.2z"/>
<path class="st9" d="M490.2,291.4l0-19.7l-28.5-16.5v19.6L490.2,291.4z"/>
<path class="st10" d="M490.2,291.4l0-19.7l41.1-23.7v19.6L490.2,291.4z"/>
<path class="st11" d="M531.3,248l-41.1,23.7l-28.5-16.5l41.1-23.7L531.3,248z"/>
<path class="st1" d="M472.3,271.8l6.4,3.7v-10.4l-6.4-3.7V271.8z"/>
<path class="st12" d="M472.3,261.4l41.1-23.7l6.4,3.7l-41.1,23.7L472.3,261.4z"/>
<path class="st1" d="M488,288.2v-1.8l-9.6-5.6v1.9L488,288.2z"/>
<path class="st1" d="M488,284.9v-1.8l-9.6-5.6v1.9L488,284.9z"/>
<path class="st1" d="M525.5,262.1v6.6l4.6-2.6v-6.6L525.5,262.1z"/>
<path class="st1" d="M519.2,265.7v6.6l4.6-2.6V263L519.2,265.7z"/>
<path class="st1" d="M512.9,269.3v6.6l4.6-2.6v-6.6L512.9,269.3z"/>
<path class="st12" d="M491.4,272.6v9.5l9.4-5.4v-9.5L491.4,272.6z"/>
<path class="st1" d="M492.6,274.5V273l7.4-4.3v1.5L492.6,274.5z"/>
<path class="st9" d="M458.8,251.4l0-19.7l-28.5-16.5v19.6L458.8,251.4z"/>
<path class="st10" d="M458.8,251.4l0-19.7l41.1-23.7v19.6L458.8,251.4z"/>
<path class="st11" d="M499.9,208l-41.1,23.7l-28.5-16.5l41.1-23.7L499.9,208z"/>
<path class="st1" d="M440.9,231.7l6.4,3.7V225l-6.4-3.7V231.7z"/>
<path class="st12" d="M440.9,221.3l41.1-23.7l6.4,3.7L447.3,225L440.9,221.3z"/>
<path class="st1" d="M456.7,248.1v-1.8l-9.6-5.6v1.9L456.7,248.1z"/>
<path class="st1" d="M456.7,244.8V243l-9.6-5.6v1.9L456.7,244.8z"/>
<path class="st1" d="M494.2,222v6.6l4.6-2.6v-6.6L494.2,222z"/>
<path class="st1" d="M487.9,225.6v6.6l4.6-2.6V223L487.9,225.6z"/>
<path class="st1" d="M481.6,229.3v6.6l4.6-2.6v-6.6L481.6,229.3z"/>
<path class="st12" d="M460.1,232.5v9.5l9.4-5.4v-9.5L460.1,232.5z"/>
<path class="st1" d="M461.2,234.5v-1.6l7.4-4.3v1.5L461.2,234.5z"/>
<path class="st9" d="M490.2,269.7l0-19.7l-28.5-16.5v19.6L490.2,269.7z"/>
<path class="st10" d="M490.2,269.7l0-19.7l41.1-23.7V246L490.2,269.7z"/>
<path class="st11" d="M531.3,226.3l-41.1,23.7l-28.5-16.5l41.1-23.7L531.3,226.3z"/>
<path class="st1" d="M472.3,250.1l6.4,3.7v-10.4l-6.4-3.7V250.1z"/>
<path class="st12" d="M472.3,239.7l41.1-23.7l6.4,3.7l-41.1,23.7L472.3,239.7z"/>
<path class="st1" d="M488,266.5v-1.8l-9.6-5.6v1.9L488,266.5z"/>
<path class="st1" d="M488,263.2v-1.8l-9.6-5.6v1.9L488,263.2z"/>
<path class="st1" d="M525.5,240.4v6.6l4.6-2.6v-6.6L525.5,240.4z"/>
<path class="st1" d="M519.2,244v6.6l4.6-2.6v-6.6L519.2,244z"/>
<path class="st1" d="M512.9,247.6v6.6l4.6-2.6V245L512.9,247.6z"/>
<path class="st12" d="M491.4,250.9v9.5l9.4-5.4v-9.6L491.4,250.9z"/>
<path class="st1" d="M492.6,252.8v-1.6l7.4-4.3v1.5L492.6,252.8z"/>
<path class="st6" d="M616,307.1l-55,31.8l1.7,1.1l55.2-31.9L616,307.1z"/>
<path class="st7" d="M617.8,308.1L562.6,340v7.9l55.2-31.9V308.1z"/>
<path class="st6" d="M554.5,271.5l-55,31.8l1.7,1.1l55.2-31.9L554.5,271.5z"/>
<path class="st7" d="M556.4,272.4l-55.2,31.9v7.9l55.2-31.9V272.4z"/>
<path class="st8" d="M499.5,311.2v-7.9l1.7,1.1v7.9L499.5,311.2z"/>
<path class="st6" d="M584.3,288.4l-55,31.8l1.7,1.1l55.2-31.9L584.3,288.4z"/>
<path class="st7" d="M586.2,289.4L531,321.3v7.9l55.2-31.9V289.4z"/>
<path class="st8" d="M529.3,328.1v-7.9l1.7,1.1v7.9L529.3,328.1z"/>
<path class="st8" d="M562.6,337.6l-63.2-36.5v2.5l63.2,36.5V337.6z"/>
<path class="st6" d="M569.3,333.9l-6.6,3.7l-63.2-36.5l6.6-3.7L569.3,333.9z"/>
<path class="st7" d="M569.3,333.9l-6.6,3.7v4.7l6.6-3.9V333.9z"/>
<path class="st8" d="M575,330.3l-63.3-36.6v2.5l63.3,36.6V330.3z"/>
<path class="st6" d="M581.6,326.6l-6.6,3.7l-63.3-36.6l6.6-3.7L581.6,326.6z"/>
<path class="st7" d="M581.6,326.6l-6.6,3.7v4.7l6.6-3.9V326.6z"/>
<path class="st8" d="M587.6,323.1l-63.5-36.7v2.5l63.5,36.7V323.1z"/>
<path class="st6" d="M594.2,319.5l-6.6,3.7l-63.5-36.7l6.6-3.7L594.2,319.5z"/>
<path class="st7" d="M594.2,319.5l-6.6,3.7v4.7l6.6-3.9V319.5z"/>
<path class="st8" d="M599.9,315.9l-63.3-36.5v2.5l63.3,36.5V315.9z"/>
<path class="st6" d="M606.5,312.2l-6.6,3.7l-63.3-36.5l6.6-3.7L606.5,312.2z"/>
<path class="st7" d="M606.5,312.2l-6.6,3.7v4.7l6.6-3.9V312.2z"/>
<path class="st8" d="M611.2,309.5l-63.5-36.6v2.5l63.5,36.6V309.5z"/>
<path class="st6" d="M617.8,305.8l-6.6,3.7l-63.5-36.6l6.6-3.7L617.8,305.8z"/>
<path class="st7" d="M617.8,305.8l-6.6,3.7v4.7l6.6-3.9V305.8z"/>
<path class="st9" d="M534.4,316.6l0-19.7l-28.5-16.5V300L534.4,316.6z"/>
<path class="st10" d="M534.4,316.6l0-19.7l41.1-23.7v19.6L534.4,316.6z"/>
<path class="st11" d="M575.5,273.2l-41.1,23.7l-28.5-16.5l41.1-23.7L575.5,273.2z"/>
<path class="st1" d="M516.5,296.9l6.4,3.7v-10.4l-6.4-3.7V296.9z"/>
<path class="st12" d="M516.5,286.5l41-23.7l6.4,3.7l-41.1,23.7L516.5,286.5z"/>
<path class="st1" d="M532.3,313.3v-1.8l-9.6-5.6v1.9L532.3,313.3z"/>
<path class="st1" d="M532.3,310v-1.8l-9.6-5.6v1.9L532.3,310z"/>
<path class="st1" d="M569.8,287.2v6.6l4.6-2.6v-6.6L569.8,287.2z"/>
<path class="st1" d="M563.5,290.8v6.6l4.6-2.6v-6.6L563.5,290.8z"/>
<path class="st1" d="M557.2,294.5v6.6l4.6-2.6v-6.6L557.2,294.5z"/>
<path class="st12" d="M535.7,297.7v9.5l9.4-5.4v-9.6L535.7,297.7z"/>
<path class="st1" d="M536.8,299.7v-1.6l7.4-4.3v1.5L536.8,299.7z"/>
<path class="st9" d="M565.8,334.9l0-19.7l-28.5-16.5v19.6L565.8,334.9z"/>
<path class="st10" d="M565.8,334.9l0-19.7l41.1-23.7v19.6L565.8,334.9z"/>
<path class="st11" d="M606.9,291.5l-41.1,23.7l-28.5-16.5l41.1-23.7L606.9,291.5z"/>
<path class="st1" d="M547.9,315.3l6.4,3.7v-10.4l-6.4-3.7V315.3z"/>
<path class="st12" d="M547.9,304.9l41-23.7l6.4,3.7l-41.1,23.7L547.9,304.9z"/>
<path class="st1" d="M563.7,331.7v-1.8l-9.6-5.6v1.9L563.7,331.7z"/>
<path class="st1" d="M563.7,328.4v-1.8l-9.6-5.6v1.9L563.7,328.4z"/>
<path class="st1" d="M601.1,305.6v6.6l4.6-2.6v-6.6L601.1,305.6z"/>
<path class="st1" d="M594.8,309.2v6.6l4.6-2.6v-6.6L594.8,309.2z"/>
<path class="st1" d="M588.5,312.8v6.6l4.6-2.6v-6.6L588.5,312.8z"/>
<path class="st12" d="M567,316.1v9.5l9.4-5.4v-9.6L567,316.1z"/>
<path class="st1" d="M568.2,318v-1.6l7.4-4.3v1.5L568.2,318z"/>
<path class="st9" d="M534.4,294.9l0-19.7l-28.5-16.5v19.6L534.4,294.9z"/>
<path class="st10" d="M534.4,294.9l0-19.7l41.1-23.7v19.6L534.4,294.9z"/>
<path class="st11" d="M575.5,251.5l-41.1,23.7l-28.5-16.5L547,235L575.5,251.5z"/>
<path class="st1" d="M516.5,275.2l6.4,3.7v-10.4l-6.4-3.7V275.2z"/>
<path class="st12" d="M516.5,264.8l41-23.7l6.4,3.7l-41.1,23.7L516.5,264.8z"/>
<path class="st1" d="M532.3,291.6v-1.8l-9.6-5.6v1.9L532.3,291.6z"/>
<path class="st1" d="M532.3,288.3v-1.8l-9.6-5.6v1.9L532.3,288.3z"/>
<path class="st1" d="M569.8,265.5v6.6l4.6-2.6v-6.6L569.8,265.5z"/>
<path class="st1" d="M563.5,269.1v6.6l4.6-2.6v-6.6L563.5,269.1z"/>
<path class="st1" d="M557.2,272.8v6.6l4.6-2.6v-6.6L557.2,272.8z"/>
<path class="st12" d="M535.7,276v9.5l9.4-5.4v-9.5L535.7,276z"/>
<path class="st1" d="M536.8,278v-1.6l7.4-4.3v1.5L536.8,278z"/>
<path class="st9" d="M565.8,313.2l0-19.7l-28.5-16.5v19.6L565.8,313.2z"/>
<path class="st10" d="M565.8,313.2l0-19.7l41.1-23.7v19.6L565.8,313.2z"/>
<path class="st11" d="M606.9,269.8l-41.1,23.7l-28.5-16.5l41.1-23.7L606.9,269.8z"/>
<path class="st1" d="M547.9,293.6l6.4,3.7v-10.4l-6.4-3.7V293.6z"/>
<path class="st12" d="M547.9,283.2l41-23.7l6.4,3.7l-41.1,23.7L547.9,283.2z"/>
<path class="st1" d="M563.7,310v-1.8l-9.6-5.6v1.9L563.7,310z"/>
<path class="st1" d="M563.7,306.7v-1.8l-9.6-5.6v1.9L563.7,306.7z"/>
<path class="st1" d="M601.1,283.9v6.6l4.6-2.6v-6.6L601.1,283.9z"/>
<path class="st1" d="M594.8,287.5v6.6l4.6-2.6v-6.6L594.8,287.5z"/>
<path class="st1" d="M588.5,291.1v6.6l4.6-2.6v-6.6L588.5,291.1z"/>
<path class="st12" d="M567,294.4v9.5l9.4-5.4v-9.6L567,294.4z"/>
<path class="st1" d="M568.2,296.3v-1.6l7.4-4.3v1.5L568.2,296.3z"/>
<path class="st3" d="M481,141.2l-73.4,42.6l158.7,92.3l73.6-42.5L481,141.2z"/>
<path class="st4" d="M566.3,281.2v-5.4l73.6-42.5v5.4L566.3,281.2z"/>
<path class="st5" d="M407.6,183.8v5.5L566.3,281v-5.4L407.6,183.8z"/>
<path class="st6" d="M540.4,183.3l-55,31.8l1.7,1.1l55.2-31.9L540.4,183.3z"/>
<path class="st7" d="M542.2,184.3L487,216.2v7.9l55.2-31.9V184.3z"/>
<path class="st8" d="M485.3,223.1v-7.9l1.7,1.1v7.9L485.3,223.1z"/>
<path class="st6" d="M478.9,147.7l-55,31.8l1.7,1.1l55.2-31.9L478.9,147.7z"/>
<path class="st7" d="M480.8,148.7l-55.2,31.9v7.9l55.2-31.9V148.7z"/>
<path class="st8" d="M423.9,187.4v-7.9l1.7,1.1v7.9L423.9,187.4z"/>
<path class="st6" d="M508.8,164.6l-55,31.8l1.7,1.1l55.2-31.9L508.8,164.6z"/>
<path class="st7" d="M510.6,165.6l-55.2,31.9v7.9l55.2-31.9V165.6z"/>
<path class="st8" d="M453.7,204.4v-7.9l1.7,1.1v7.9L453.7,204.4z"/>
<path class="st8" d="M487,213.8l-63.2-36.5v2.5l63.2,36.5V213.8z"/>
<path class="st6" d="M493.6,210.1l-6.6,3.7l-63.2-36.5l6.6-3.7L493.6,210.1z"/>
<path class="st7" d="M493.6,210.1l-6.6,3.7v4.7l6.6-3.9V210.1z"/>
<path class="st8" d="M499.4,206.5L436,169.9v2.5l63.3,36.6V206.5z"/>
<path class="st6" d="M506,202.8l-6.6,3.7L436,169.9l6.6-3.7L506,202.8z"/>
<path class="st7" d="M506,202.8l-6.6,3.7v4.7l6.6-3.9V202.8z"/>
<path class="st8" d="M512,199.4l-63.5-36.7v2.5l63.5,36.7V199.4z"/>
<path class="st6" d="M518.6,195.7l-6.6,3.7l-63.5-36.7l6.6-3.7L518.6,195.7z"/>
<path class="st7" d="M518.6,195.7l-6.6,3.7v4.7l6.6-3.9V195.7z"/>
<path class="st8" d="M524.3,192.1l-63.3-36.5v2.5l63.3,36.5V192.1z"/>
<path class="st6" d="M530.9,188.4l-6.6,3.7l-63.3-36.5l6.6-3.7L530.9,188.4z"/>
<path class="st7" d="M530.9,188.4l-6.6,3.7v4.7l6.6-3.9V188.4z"/>
<path class="st8" d="M535.6,185.8l-63.5-36.6v2.5l63.5,36.6V185.8z"/>
<path class="st6" d="M542.2,182.1l-6.6,3.7l-63.5-36.6l6.6-3.7L542.2,182.1z"/>
<path class="st7" d="M542.2,182.1l-6.6,3.7v4.7l6.6-3.9V182.1z"/>
<path class="st9" d="M482.7,177.9l0-34.4l27.5-15.9v34.4L482.7,177.9z"/>
<path class="st10" d="M482.7,177.9l0-34.4l-27.5-15.9v34.4L482.7,177.9z"/>
<path class="st11" d="M455.2,127.6l27.5,15.9l27.5-15.9l-27.5-15.9L455.2,127.6z"/>
<path class="st1" d="M499.9,143.5l-6.1,3.6v-10l6.1-3.6V143.5z"/>
<g>
	<path class="st12" d="M499.9,133.4l-27.5-15.9l-6.1,3.6l27.5,15.9L499.9,133.4z"/>
</g>
<path class="st1" d="M486.3,172.9v-1.8l9.2-5.4v1.8L486.3,172.9z"/>
<path class="st1" d="M486.3,169.8V168l9.2-5.4v1.8L486.3,169.8z"/>
<path class="st1" d="M503.8,156.9v6.1l4.4-2.6v-6.1L503.8,156.9z"/>
<path class="st1" d="M461.2,156.3v6.4l-4.4-2.6v-6.4L461.2,156.3z"/>
<path class="st1" d="M467.2,159.8v6.4l-4.4-2.6v-6.4L467.2,159.8z"/>
<path class="st13" d="M465.9,137.6v9.2l-9.1-5.2v-9.2L465.9,137.6z"/>
<path class="st1" d="M464.7,139.4v-1.5l-7.1-4.1v1.5L464.7,139.4z"/>
<path class="st9" d="M512.7,195.1l0-34.4l27.5-15.9v34.4L512.7,195.1z"/>
<path class="st10" d="M512.7,195.1l0-34.4l-27.5-15.9v34.4L512.7,195.1z"/>
<path class="st11" d="M485.2,144.7l27.5,15.9l27.5-15.9l-27.5-15.9L485.2,144.7z"/>
<path class="st1" d="M530,160.7l-6.1,3.6v-10l6.1-3.6V160.7z"/>
<g>
	<path class="st12" d="M530,150.6l-27.5-15.9l-6.1,3.6l27.5,15.9L530,150.6z"/>
</g>
<path class="st1" d="M516.4,190.1v-1.8l9.2-5.4v1.8L516.4,190.1z"/>
<path class="st1" d="M516.4,187v-1.8l9.2-5.4v1.8L516.4,187z"/>
<path class="st1" d="M533.9,174.1v6.1l4.4-2.6v-6.1L533.9,174.1z"/>
<path class="st1" d="M491.3,173.4v6.4l-4.4-2.6v-6.4L491.3,173.4z"/>
<path class="st1" d="M497.3,176.9v6.4l-4.4-2.6v-6.4L497.3,176.9z"/>
<path class="st13" d="M495.9,154.7v9.2l-9.1-5.2v-9.2L495.9,154.7z"/>
<path class="st1" d="M494.8,156.6v-1.5l-7.1-4.1v1.5L494.8,156.6z"/>
<path class="st9" d="M454.3,194.9l0-34.4l27.5-15.9V179L454.3,194.9z"/>
<path class="st10" d="M454.4,194.9l0-34.4l-27.5-15.9V179L454.4,194.9z"/>
<path class="st11" d="M426.8,144.6l27.5,15.9l27.5-15.9l-27.5-15.9L426.8,144.6z"/>
<path class="st1" d="M471.6,160.5l-6.1,3.6v-10l6.1-3.6V160.5z"/>
<path class="st12" d="M471.6,150.5l-27.5-15.9l-6.2,3.6l27.5,15.9L471.6,150.5z"/>
<path class="st1" d="M458,190v-1.8l9.2-5.4v1.8L458,190z"/>
<path class="st1" d="M458,186.8v-1.8l9.2-5.4v1.8L458,186.8z"/>
<path class="st1" d="M475.5,174v6.1l4.4-2.6v-6.1L475.5,174z"/>
<path class="st1" d="M432.9,173.3v6.4l-4.4-2.6v-6.4L432.9,173.3z"/>
<path class="st1" d="M438.9,176.8v6.4l-4.4-2.6v-6.4L438.9,176.8z"/>
<path class="st12" d="M437.5,154.6v9.2l-9.1-5.2v-9.2L437.5,154.6z"/>
<path class="st1" d="M436.4,156.5V155l-7.1-4.1v1.5L436.4,156.5z"/>
<path class="st9" d="M484.4,212.1l0-34.4l27.5-15.9v34.4L484.4,212.1z"/>
<path class="st10" d="M484.4,212.1l0-34.4l-27.5-15.9v34.4L484.4,212.1z"/>
<path class="st11" d="M456.9,161.8l27.5,15.9l27.5-15.9l-27.5-15.9L456.9,161.8z"/>
<path class="st1" d="M501.7,177.7l-6.1,3.6v-10l6.1-3.6V177.7z"/>
<path class="st12" d="M501.7,167.7l-27.5-15.9l-6.1,3.6l27.5,15.9L501.7,167.7z"/>
<path class="st1" d="M488,207.2v-1.8l9.2-5.3v1.8L488,207.2z"/>
<path class="st1" d="M488,204v-1.8l9.2-5.4v1.8L488,204z"/>
<path class="st1" d="M505.6,191.1v6.1l4.4-2.6v-6.1L505.6,191.1z"/>
<path class="st1" d="M463,190.5v6.4l-4.4-2.6V188L463,190.5z"/>
<path class="st1" d="M469,194v6.4l-4.4-2.6v-6.4L469,194z"/>
<path class="st12" d="M467.6,171.8v9.2l-9.1-5.2v-9.2L467.6,171.8z"/>
<path class="st1" d="M466.5,173.7v-1.5l-7.1-4.1v1.5L466.5,173.7z"/>
<path class="st6" d="M616,226.7l-55,31.8l1.7,1.1l55.2-31.9L616,226.7z"/>
<path class="st7" d="M617.8,227.7l-55.2,31.9v7.9l55.2-31.9V227.7z"/>
<path class="st8" d="M560.9,266.5v-7.9l1.7,1.1v7.9L560.9,266.5z"/>
<path class="st6" d="M554.5,191.1l-55,31.8l1.7,1.1l55.2-31.9L554.5,191.1z"/>
<path class="st7" d="M556.4,192.1L501.2,224v7.9l55.2-31.9V192.1z"/>
<path class="st8" d="M499.5,230.9v-7.9l1.7,1.1v7.9L499.5,230.9z"/>
<path class="st6" d="M584.3,208.1l-55,31.8l1.7,1.1l55.2-31.9L584.3,208.1z"/>
<path class="st7" d="M586.2,209.1L531,240.9v7.9l55.2-31.9V209.1z"/>
<path class="st8" d="M529.3,247.8v-7.9l1.7,1.1v7.9L529.3,247.8z"/>
<path class="st8" d="M562.6,257.2l-63.2-36.5v2.5l63.2,36.5V257.2z"/>
<path class="st6" d="M569.3,253.5l-6.6,3.7l-63.2-36.5l6.6-3.7L569.3,253.5z"/>
<path class="st7" d="M569.3,253.5l-6.6,3.7v4.7l6.6-3.9V253.5z"/>
<path class="st8" d="M575,250l-63.3-36.6v2.5l63.3,36.6V250z"/>
<path class="st6" d="M581.6,246.3L575,250l-63.3-36.6l6.6-3.7L581.6,246.3z"/>
<path class="st7" d="M581.6,246.3L575,250v4.7l6.6-3.9V246.3z"/>
<path class="st8" d="M587.6,242.8l-63.5-36.7v2.5l63.5,36.7V242.8z"/>
<path class="st6" d="M594.2,239.1l-6.6,3.7l-63.5-36.7l6.6-3.7L594.2,239.1z"/>
<path class="st7" d="M594.2,239.1l-6.6,3.7v4.7l6.6-3.9V239.1z"/>
<path class="st8" d="M599.9,235.6l-63.3-36.5v2.5l63.3,36.5V235.6z"/>
<path class="st6" d="M606.5,231.9l-6.6,3.7l-63.3-36.5l6.6-3.7L606.5,231.9z"/>
<path class="st7" d="M606.5,231.9l-6.6,3.7v4.7l6.6-3.9V231.9z"/>
<path class="st8" d="M611.2,229.2l-63.5-36.6v2.5l63.5,36.6V229.2z"/>
<path class="st6" d="M617.8,225.5l-6.6,3.7l-63.5-36.6l6.6-3.7L617.8,225.5z"/>
<path class="st7" d="M617.8,225.5l-6.6,3.7v4.7l6.6-3.9V225.5z"/>
<path class="st9" d="M558.3,221.3l0-34.4l27.5-15.9v34.4L558.3,221.3z"/>
<path class="st10" d="M558.3,221.3l0-34.4L530.8,171v34.4L558.3,221.3z"/>
<path class="st11" d="M530.8,171l27.5,15.9l27.5-15.9l-27.5-15.9L530.8,171z"/>
<path class="st1" d="M575.5,186.9l-6.1,3.6v-10l6.1-3.6V186.9z"/>
<g>
	<path class="st12" d="M575.5,176.9L548.1,161l-6.1,3.6l27.5,15.9L575.5,176.9z"/>
</g>
<path class="st1" d="M561.9,216.4v-1.8l9.2-5.4v1.8L561.9,216.4z"/>
<path class="st1" d="M561.9,213.2v-1.8l9.2-5.4v1.8L561.9,213.2z"/>
<path class="st1" d="M579.4,200.3v6.1l4.4-2.6v-6.1L579.4,200.3z"/>
<path class="st1" d="M536.8,199.7v6.4l-4.4-2.5v-6.4L536.8,199.7z"/>
<path class="st1" d="M542.8,203.2v6.4l-4.4-2.6v-6.4L542.8,203.2z"/>
<path class="st13" d="M541.5,181v9.2l-9.1-5.2v-9.2L541.5,181z"/>
<path class="st1" d="M540.3,182.9v-1.5l-7.1-4.1v1.5L540.3,182.9z"/>
<path class="st9" d="M588.3,238.5l0-34.4l27.5-15.9v34.4L588.3,238.5z"/>
<path class="st10" d="M588.3,238.5l0-34.4l-27.5-15.9v34.4L588.3,238.5z"/>
<path class="st11" d="M560.8,188.2l27.5,15.9l27.5-15.9l-27.5-15.9L560.8,188.2z"/>
<path class="st1" d="M605.6,204.1l-6.1,3.6v-10l6.1-3.6V204.1z"/>
<path class="st12" d="M605.6,194l-27.5-15.9l-6.1,3.6l27.5,15.9L605.6,194z"/>
<path class="st1" d="M592,233.6v-1.8l9.2-5.4v1.8L592,233.6z"/>
<path class="st1" d="M592,230.4v-1.8l9.2-5.4v1.8L592,230.4z"/>
<path class="st1" d="M609.5,217.5v6.1l4.4-2.6V215L609.5,217.5z"/>
<path class="st1" d="M566.9,216.9v6.4l-4.4-2.5v-6.4L566.9,216.9z"/>
<path class="st1" d="M572.9,220.4v6.4l-4.4-2.6v-6.4L572.9,220.4z"/>
<path class="st13" d="M571.5,198.2v9.2l-9.1-5.2v-9.2L571.5,198.2z"/>
<path class="st1" d="M570.4,200.1v-1.5l-7.1-4.1v1.5L570.4,200.1z"/>
<path class="st9" d="M530,238.4l0-34.4l27.5-15.9v34.4L530,238.4z"/>
<path class="st10" d="M530,238.4l0-34.4l-27.5-15.9v34.4L530,238.4z"/>
<path class="st11" d="M502.4,188.1l27.5,15.9l27.5-15.9L530,172.2L502.4,188.1z"/>
<path class="st1" d="M547.2,204l-6.1,3.6v-10l6.1-3.6V204z"/>
<path class="st12" d="M547.2,193.9l-27.5-15.9l-6.1,3.6l27.5,15.9L547.2,193.9z"/>
<path class="st1" d="M533.6,233.4v-1.8l9.2-5.4v1.8L533.6,233.4z"/>
<path class="st1" d="M533.6,230.3v-1.8l9.2-5.4v1.8L533.6,230.3z"/>
<path class="st1" d="M551.1,217.4v6.1l4.4-2.6v-6.1L551.1,217.4z"/>
<path class="st1" d="M508.5,216.7v6.4l-4.4-2.6v-6.4L508.5,216.7z"/>
<path class="st1" d="M514.5,220.2v6.4l-4.4-2.6v-6.4L514.5,220.2z"/>
<path class="st12" d="M513.2,198.1v9.2l-9.1-5.2v-9.2L513.2,198.1z"/>
<path class="st1" d="M512,199.9v-1.5l-7.1-4.1v1.5L512,199.9z"/>
<path class="st9" d="M560,255.6l0-34.4l27.5-15.9v34.4L560,255.6z"/>
<path class="st10" d="M560,255.6l0-34.4l-27.5-15.9v34.4L560,255.6z"/>
<path class="st11" d="M532.5,205.2l27.5,15.9l27.5-15.9L560,189.4L532.5,205.2z"/>
<path class="st1" d="M577.3,221.2l-6.1,3.6v-10l6.1-3.6V221.2z"/>
<path class="st12" d="M577.3,211.1l-27.5-15.9l-6.1,3.5l27.5,15.9L577.3,211.1z"/>
<path class="st1" d="M563.6,250.6v-1.8l9.2-5.4v1.8L563.6,250.6z"/>
<path class="st1" d="M563.6,247.5v-1.8l9.2-5.4v1.8L563.6,247.5z"/>
<path class="st1" d="M581.2,234.6v6.1l4.4-2.6V232L581.2,234.6z"/>
<path class="st1" d="M538.6,233.9v6.4l-4.4-2.6v-6.4L538.6,233.9z"/>
<path class="st1" d="M544.6,237.4v6.4l-4.4-2.6v-6.4L544.6,237.4z"/>
<path class="st12" d="M543.2,215.2v9.2l-9.1-5.2V210L543.2,215.2z"/>
<path class="st1" d="M542.1,217.1v-1.5l-7.1-4.1v1.5L542.1,217.1z"/>
<path class="st3" d="M481,62.7l-73.4,42.6l158.7,92.3l73.6-42.5L481,62.7z"/>
<path class="st4" d="M566.3,202.6v-5.4l73.6-42.5v5.4L566.3,202.6z"/>
<path class="st5" d="M407.6,105.3v5.4l158.7,91.7V197L407.6,105.3z"/>
<path class="st6" d="M540.4,101.8l-55,31.8l1.7,1.1l55.2-31.9L540.4,101.8z"/>
<path class="st7" d="M542.2,102.8L487,134.6v7.9l55.2-31.9V102.8z"/>
<path class="st8" d="M485.3,141.5v-7.9l1.7,1.1v7.9L485.3,141.5z"/>
<path class="st6" d="M478.9,66.1l-55,31.8l1.7,1.1l55.2-31.9L478.9,66.1z"/>
<path class="st7" d="M480.8,67.1L425.6,99v7.9L480.8,75V67.1z"/>
<path class="st8" d="M423.9,105.9v-7.9l1.7,1.1v7.9L423.9,105.9z"/>
<path class="st6" d="M508.8,83.1l-55,31.8l1.7,1.1l55.2-31.9L508.8,83.1z"/>
<path class="st7" d="M510.6,84.1l-55.2,31.9v7.9l55.2-31.9V84.1z"/>
<path class="st8" d="M453.7,122.8v-7.9l1.7,1.1v7.9L453.7,122.8z"/>
<path class="st8" d="M487,132.2l-63.2-36.5v2.5l63.2,36.5V132.2z"/>
<path class="st6" d="M493.6,128.5l-6.6,3.7l-63.2-36.5l6.6-3.7L493.6,128.5z"/>
<path class="st7" d="M493.6,128.5l-6.6,3.7v4.7l6.6-3.9V128.5z"/>
<path class="st8" d="M499.4,125L436,88.4v2.5l63.3,36.6V125z"/>
<path class="st6" d="M506,121.3l-6.6,3.7L436,88.4l6.6-3.7L506,121.3z"/>
<path class="st7" d="M506,121.3l-6.6,3.7v4.7l6.6-3.9V121.3z"/>
<path class="st8" d="M512,117.8l-63.5-36.7v2.5l63.5,36.7V117.8z"/>
<path class="st6" d="M518.6,114.1l-6.6,3.7l-63.5-36.7l6.6-3.7L518.6,114.1z"/>
<path class="st7" d="M518.6,114.1l-6.6,3.7v4.7l6.6-3.9V114.1z"/>
<path class="st8" d="M524.3,110.6l-63.3-36.5v2.5l63.3,36.5V110.6z"/>
<path class="st6" d="M530.9,106.9l-6.6,3.7l-63.3-36.5l6.6-3.7L530.9,106.9z"/>
<path class="st7" d="M530.9,106.9l-6.6,3.7v4.7l6.6-3.9V106.9z"/>
<path class="st8" d="M535.6,104.2l-63.5-36.6v2.5l63.5,36.6V104.2z"/>
<path class="st6" d="M542.2,100.5l-6.6,3.7l-63.5-36.6l6.6-3.7L542.2,100.5z"/>
<path class="st7" d="M542.2,100.5l-6.6,3.7v4.7l6.6-3.9V100.5z"/>
<path class="st9" d="M482.7,96.3l0-34.4L510.2,46v34.4L482.7,96.3z"/>
<path class="st10" d="M482.7,96.3l0-34.4L455.2,46v34.4L482.7,96.3z"/>
<path class="st11" d="M455.2,46l27.5,15.9L510.2,46l-27.5-15.9L455.2,46z"/>
<path class="st1" d="M499.9,61.9l-6.1,3.6v-10l6.1-3.6V61.9z"/>
<path class="st12" d="M499.9,51.9L472.5,36l-6.1,3.6l27.5,15.9L499.9,51.9z"/>
<path class="st1" d="M486.3,91.4v-1.8l9.2-5.4v1.8L486.3,91.4z"/>
<path class="st1" d="M486.3,88.2v-1.8l9.2-5.4v1.8L486.3,88.2z"/>
<path class="st1" d="M503.8,75.3v6.1l4.4-2.6v-6.1L503.8,75.3z"/>
<path class="st1" d="M461.2,74.7v6.4l-4.4-2.6v-6.4L461.2,74.7z"/>
<path class="st1" d="M467.2,78.2v6.4l-4.4-2.6v-6.4L467.2,78.2z"/>
<path class="st13" d="M465.9,56v9.2l-9.1-5.2v-9.2L465.9,56z"/>
<path class="st1" d="M464.7,57.9v-1.5l-7.1-4.1v1.5L464.7,57.9z"/>
<path class="st9" d="M512.7,113.5l0-34.4l27.5-15.9v34.4L512.7,113.5z"/>
<path class="st10" d="M512.7,113.5l0-34.4l-27.5-15.9v34.4L512.7,113.5z"/>
<path class="st11" d="M485.2,63.2l27.5,15.9l27.5-15.9l-27.5-15.9L485.2,63.2z"/>
<path class="st1" d="M530,79.1l-6.1,3.6v-10l6.1-3.6V79.1z"/>
<path class="st12" d="M530,69.1l-27.5-15.9l-6.1,3.6l27.5,15.9L530,69.1z"/>
<path class="st1" d="M516.4,108.6v-1.8l9.2-5.4v1.8L516.4,108.6z"/>
<path class="st1" d="M516.4,105.4v-1.8l9.2-5.4v1.8L516.4,105.4z"/>
<path class="st1" d="M533.9,92.5v6.1l4.4-2.6V90L533.9,92.5z"/>
<path class="st1" d="M491.3,91.9v6.4l-4.4-2.6v-6.4L491.3,91.9z"/>
<path class="st1" d="M497.3,95.4v6.4l-4.4-2.6v-6.4L497.3,95.4z"/>
<path class="st13" d="M495.9,73.2v9.2l-9.1-5.2v-9.2L495.9,73.2z"/>
<path class="st1" d="M494.8,75.1v-1.5l-7.1-4.1v1.5L494.8,75.1z"/>
<path class="st9" d="M454.3,113.4l0-34.4l27.5-15.9v34.4L454.3,113.4z"/>
<path class="st10" d="M454.4,113.4l0-34.4l-27.5-15.9v34.4L454.4,113.4z"/>
<path class="st11" d="M426.8,63.1L454.3,79l27.5-15.9l-27.5-15.9L426.8,63.1z"/>
<path class="st1" d="M471.6,79l-6.1,3.6v-10l6.1-3.6V79z"/>
<path class="st12" d="M471.6,69l-27.5-15.9l-6.2,3.6l27.5,15.9L471.6,69z"/>
<path class="st1" d="M458,108.5v-1.8l9.2-5.4v1.8L458,108.5z"/>
<path class="st1" d="M458,105.3v-1.8l9.2-5.4v1.8L458,105.3z"/>
<path class="st1" d="M475.5,92.4v6.1l4.4-2.6v-6.1L475.5,92.4z"/>
<path class="st1" d="M432.9,91.8v6.4l-4.4-2.6v-6.4L432.9,91.8z"/>
<path class="st1" d="M438.9,95.3v6.4l-4.4-2.5v-6.4L438.9,95.3z"/>
<path class="st12" d="M437.5,73.1v9.2l-9.1-5.2v-9.2L437.5,73.1z"/>
<path class="st1" d="M436.4,75v-1.5l-7.1-4.1v1.5L436.4,75z"/>
<path class="st9" d="M484.4,130.6l0-34.4l27.5-15.9v34.4L484.4,130.6z"/>
<path class="st10" d="M484.4,130.6l0-34.4l-27.5-15.9v34.4L484.4,130.6z"/>
<path class="st11" d="M456.9,80.3l27.5,15.9l27.5-15.9l-27.5-15.9L456.9,80.3z"/>
<path class="st1" d="M501.7,96.2l-6.1,3.6v-10l6.1-3.6V96.2z"/>
<path class="st12" d="M501.7,86.1l-27.5-15.9l-6.1,3.6l27.5,15.9L501.7,86.1z"/>
<path class="st1" d="M488,125.6v-1.8l9.2-5.4v1.8L488,125.6z"/>
<path class="st1" d="M488,122.5v-1.8l9.2-5.4v1.8L488,122.5z"/>
<path class="st1" d="M505.6,109.6v6.1l4.4-2.6V107L505.6,109.6z"/>
<path class="st1" d="M463,109v6.4l-4.4-2.6v-6.4L463,109z"/>
<path class="st1" d="M469,112.4v6.4l-4.4-2.5v-6.4L469,112.4z"/>
<path class="st12" d="M467.6,90.3v9.2l-9.1-5.2V85L467.6,90.3z"/>
<path class="st1" d="M466.5,92.1v-1.5l-7.1-4.1V88L466.5,92.1z"/>
<path class="st6" d="M616,145.2l-55,31.8l1.7,1.1l55.2-31.9L616,145.2z"/>
<path class="st7" d="M617.8,146.2l-55.2,31.9v7.9l55.2-31.9V146.2z"/>
<path class="st8" d="M560.9,184.9V177l1.7,1.1v7.9L560.9,184.9z"/>
<path class="st6" d="M554.5,109.6l-55,31.8l1.7,1.1l55.2-31.9L554.5,109.6z"/>
<path class="st7" d="M556.4,110.6l-55.2,31.9v7.9l55.2-31.9V110.6z"/>
<path class="st8" d="M499.5,149.3v-7.9l1.7,1.1v7.9L499.5,149.3z"/>
<path class="st6" d="M584.3,126.5l-55,31.8l1.7,1.1l55.2-31.9L584.3,126.5z"/>
<path class="st7" d="M586.2,127.5L531,159.4v7.8l55.2-31.9V127.5z"/>
<path class="st8" d="M529.3,166.2v-7.9l1.7,1.1v7.8L529.3,166.2z"/>
<path class="st8" d="M562.6,175.7l-63.2-36.5v2.5l63.2,36.5V175.7z"/>
<path class="st6" d="M569.3,172l-6.6,3.7l-63.2-36.5l6.6-3.7L569.3,172z"/>
<path class="st7" d="M569.3,172l-6.6,3.7v4.7l6.6-3.9V172z"/>
<path class="st8" d="M575,168.4l-63.3-36.6v2.5L575,171V168.4z"/>
<path class="st6" d="M581.6,164.7l-6.6,3.7l-63.3-36.6l6.6-3.7L581.6,164.7z"/>
<path class="st7" d="M581.6,164.7l-6.6,3.7v4.7l6.6-3.9V164.7z"/>
<path class="st8" d="M587.6,161.3l-63.5-36.7v2.5l63.5,36.7V161.3z"/>
<path class="st6" d="M594.2,157.6l-6.6,3.7l-63.5-36.7l6.6-3.7L594.2,157.6z"/>
<path class="st7" d="M594.2,157.6l-6.6,3.7v4.7l6.6-3.9V157.6z"/>
<path class="st8" d="M599.9,154l-63.3-36.5v2.5l63.3,36.5V154z"/>
<path class="st6" d="M606.5,150.3l-6.6,3.7l-63.3-36.5l6.6-3.7L606.5,150.3z"/>
<path class="st7" d="M606.5,150.3l-6.6,3.7v4.7l6.6-3.9V150.3z"/>
<path class="st8" d="M611.2,147.6L547.7,111v2.5l63.5,36.6V147.6z"/>
<path class="st6" d="M617.8,143.9l-6.6,3.7L547.7,111l6.6-3.7L617.8,143.9z"/>
<path class="st7" d="M617.8,143.9l-6.6,3.7v4.7l6.6-3.9V143.9z"/>
<path class="st9" d="M561.8,135.8l0-14.2l20.3-11.7v14.2L561.8,135.8z"/>
<path class="st10" d="M561.8,135.8l0-14.2l-23.6-13.6v14.2L561.8,135.8z"/>
<path class="st11" d="M538.2,107.9l23.6,13.6l20.3-11.7l-23.6-13.6L538.2,107.9z"/>
<path class="st1" d="M563.5,133.2v-1.5l7.7-4.4v1.5L563.5,133.2z"/>
<path class="st1" d="M563.5,130.5v-1.5l7.7-4.4v1.5L563.5,130.5z"/>
<path class="st1" d="M545,114.9v6.6l-4.6-2.6v-6.6L545,114.9z"/>
<path class="st13" d="M549.4,116.7v7.8l-9.5-5.5v-7.8L549.4,116.7z"/>
<path class="st1" d="M547.9,118.5v-1.5l-7-4v1.4L547.9,118.5z"/>
<path class="st1" d="M576.2,113.2l-5.2,3v7.5l5.2-3V113.2z"/>
<g>
	<path class="st12" d="M576.2,113.2l-23.6-13.6l-5.3,3l23.6,13.6L576.2,113.2z"/>
</g>
<path class="st9" d="M531.1,153.4l0-14.2l20.3-11.7v14.2L531.1,153.4z"/>
<path class="st10" d="M531.1,153.4l0-14.2l-23.6-13.6v14.2L531.1,153.4z"/>
<path class="st11" d="M507.5,125.5l23.6,13.6l20.3-11.7l-23.6-13.6L507.5,125.5z"/>
<path class="st1" d="M532.8,150.8v-1.5l7.7-4.4v1.5L532.8,150.8z"/>
<path class="st1" d="M532.8,148.1v-1.5l7.7-4.4v1.5L532.8,148.1z"/>
<path class="st1" d="M514.4,132.5v6.6l-4.6-2.6v-6.6L514.4,132.5z"/>
<path class="st12" d="M518.7,134.3v7.8l-9.5-5.5v-7.8L518.7,134.3z"/>
<path class="st1" d="M517.3,136.2v-1.5l-7-4v1.4L517.3,136.2z"/>
<path class="st1" d="M545.5,130.8l-5.2,3v7.5l5.2-3V130.8z"/>
<g>
	<path class="st12" d="M545.5,130.8L522,117.2l-5.3,3l23.6,13.6L545.5,130.8z"/>
</g>
<path class="st9" d="M591.7,153.2l0-14.2l20.3-11.7v14.2L591.7,153.2z"/>
<path class="st10" d="M591.7,153.2l0-14.2l-23.6-13.6v14.2L591.7,153.2z"/>
<path class="st11" d="M568.2,125.4l23.6,13.6l20.3-11.7l-23.6-13.6L568.2,125.4z"/>
<path class="st1" d="M593.4,150.6v-1.5l7.7-4.4v1.5L593.4,150.6z"/>
<path class="st1" d="M593.4,148v-1.5l7.7-4.4v1.5L593.4,148z"/>
<path class="st1" d="M575,132.4v6.6l-4.6-2.6v-6.6L575,132.4z"/>
<path class="st13" d="M579.3,134.1v7.8l-9.5-5.5v-7.8L579.3,134.1z"/>
<path class="st1" d="M577.9,136v-1.5l-7-4v1.4L577.9,136z"/>
<path class="st1" d="M606.1,130.6l-5.2,3v7.5l5.2-3V130.6z"/>
<path class="st12" d="M606.1,130.6L582.6,117l-5.3,3l23.6,13.6L606.1,130.6z"/>
<path class="st9" d="M561.1,170.8l0-14.2l20.3-11.7v14.2L561.1,170.8z"/>
<path class="st10" d="M561.1,170.8l0-14.2L537.5,143v14.2L561.1,170.8z"/>
<path class="st11" d="M537.5,143l23.6,13.6l20.3-11.7l-23.6-13.6L537.5,143z"/>
<path class="st1" d="M562.8,168.2v-1.5l7.7-4.4v1.5L562.8,168.2z"/>
<path class="st1" d="M562.8,165.6v-1.5l7.7-4.4v1.5L562.8,165.6z"/>
<path class="st1" d="M544.3,150v6.6l-4.6-2.6v-6.6L544.3,150z"/>
<path class="st12" d="M548.7,151.7v7.8l-9.5-5.5v-7.8L548.7,151.7z"/>
<path class="st1" d="M547.2,153.6v-1.5l-7-4v1.4L547.2,153.6z"/>
<path class="st1" d="M575.5,148.2l-5.2,3v7.5l5.2-3V148.2z"/>
<g>
	<path class="st12" d="M575.5,148.2l-23.5-13.6l-5.3,3l23.6,13.6L575.5,148.2z"/>
</g>
<path class="st9" d="M561.8,120.1l0-14.2l20.3-11.7v14.2L561.8,120.1z"/>
<path class="st10" d="M561.8,120.1l0-14.2l-23.6-13.6v14.2L561.8,120.1z"/>
<path class="st11" d="M538.2,92.3l23.6,13.6l20.3-11.7l-23.6-13.6L538.2,92.3z"/>
<path class="st1" d="M563.5,117.5V116l7.7-4.4v1.5L563.5,117.5z"/>
<path class="st1" d="M563.5,114.9v-1.5l7.7-4.4v1.5L563.5,114.9z"/>
<path class="st1" d="M545,99.3v6.6l-4.6-2.6v-6.6L545,99.3z"/>
<path class="st12" d="M549.4,101v7.8l-9.5-5.5v-7.8L549.4,101z"/>
<path class="st1" d="M547.9,102.9v-1.5l-7-4v1.4L547.9,102.9z"/>
<path class="st1" d="M576.2,97.5l-5.2,3v7.5l5.2-3V97.5z"/>
<path class="st12" d="M576.2,97.5l-23.6-13.6l-5.3,3l23.6,13.6L576.2,97.5z"/>
<path class="st9" d="M531.1,137.7l0-14.2l20.3-11.7V126L531.1,137.7z"/>
<path class="st10" d="M531.1,137.7l0-14.2l-23.6-13.6v14.2L531.1,137.7z"/>
<path class="st11" d="M507.5,109.9l23.6,13.6l20.3-11.7l-23.6-13.6L507.5,109.9z"/>
<path class="st1" d="M532.8,135.1v-1.5l7.7-4.4v1.5L532.8,135.1z"/>
<path class="st1" d="M532.8,132.5V131l7.7-4.4v1.5L532.8,132.5z"/>
<path class="st1" d="M514.4,116.9v6.6l-4.6-2.6v-6.6L514.4,116.9z"/>
<path class="st12" d="M518.7,118.6v7.8l-9.5-5.5v-7.8L518.7,118.6z"/>
<path class="st1" d="M517.3,120.5V119l-7-4v1.4L517.3,120.5z"/>
<path class="st1" d="M545.5,115.1l-5.2,3v7.5l5.2-3V115.1z"/>
<path class="st12" d="M545.5,115.1L522,101.5l-5.3,3l23.6,13.6L545.5,115.1z"/>
<path class="st9" d="M591.7,137.6l0-14.2l20.3-11.7v14.2L591.7,137.6z"/>
<path class="st10" d="M591.7,137.6l0-14.2l-23.6-13.6v14.2L591.7,137.6z"/>
<path class="st11" d="M568.2,109.7l23.6,13.6l20.3-11.7L588.5,98L568.2,109.7z"/>
<path class="st1" d="M593.4,135v-1.5l7.7-4.4v1.5L593.4,135z"/>
<path class="st1" d="M593.4,132.3v-1.5l7.7-4.4v1.5L593.4,132.3z"/>
<path class="st1" d="M575,116.7v6.6l-4.6-2.6v-6.6L575,116.7z"/>
<path class="st12" d="M579.3,118.5v7.8l-9.5-5.5V113L579.3,118.5z"/>
<path class="st1" d="M577.9,120.4v-1.5l-7-4v1.4L577.9,120.4z"/>
<path class="st1" d="M606.1,115l-5.2,3v7.5l5.2-3V115z"/>
<path class="st12" d="M606.1,115l-23.6-13.6l-5.3,3l23.6,13.6L606.1,115z"/>
<path class="st9" d="M561.1,155.2l0-14.2l20.3-11.7v14.2L561.1,155.2z"/>
<path class="st10" d="M561.1,155.2l0-14.2l-23.6-13.6v14.2L561.1,155.2z"/>
<path class="st11" d="M537.5,127.3l23.6,13.6l20.3-11.7l-23.6-13.6L537.5,127.3z"/>
<path class="st1" d="M562.8,152.6v-1.5l7.7-4.4v1.5L562.8,152.6z"/>
<path class="st1" d="M562.8,150v-1.5l7.7-4.4v1.5L562.8,150z"/>
<path class="st1" d="M544.3,134.3v6.6l-4.6-2.6v-6.6L544.3,134.3z"/>
<path class="st12" d="M548.7,136.1v7.8l-9.5-5.5v-7.8L548.7,136.1z"/>
<path class="st1" d="M547.2,138v-1.5l-7-4v1.4L547.2,138z"/>
<path class="st1" d="M575.5,132.6l-5.2,3v7.5l5.2-3V132.6z"/>
<path class="st12" d="M575.5,132.6L551.9,119l-5.3,3l23.6,13.6L575.5,132.6z"/>
<path class="st0" d="M567.3,372l0-211l-3.5-2v211L567.3,372z"/>
<path class="st1" d="M567.3,372l4.2-2.4V158.5l-4.2,2.4V372z"/>
<path class="st0" d="M640.8,329.6l0-211l-3.5-2v211L640.8,329.6z"/>
<path class="st1" d="M640.8,329.6l4.2-2.4V116.2l-4.2,2.4V329.6z"/>
<path class="st2" d="M563.8,159l3.5,2l4.2-2.4l-3.5-2L563.8,159z"/>
<path class="st2" d="M637.4,116.6l3.5,2l4.2-2.4l-3.5-2L637.4,116.6z"/>
<path class="st1" d="M643.6,321.9l-2.8,2.8l-71.7-57l1.3-4.2L643.6,321.9z"/>
<path class="st1" d="M569.7,362.5l0.7,4l72.2-140.2l-1.7-2.4L569.7,362.5z"/>
<path class="st1" d="M643.6,222.4l-2.8,2.8l-71.7-57l1.3-4.2L643.6,222.4z"/>
<path class="st1" d="M569.7,263.1l0.7,4l72.2-140.2l-1.7-2.5L569.7,263.1z"/>
<g>
	<path class="st14" d="M368.2,440.9c13.6-7.8,35.6-7.9,49.1-0.1c13.5,7.8,13.4,20.5-0.2,28.3c-13.6,7.9-35.6,7.9-49.1,0.1
		C354.6,461.4,354.6,448.7,368.2,440.9z"/>
</g>
<path class="st15" d="M369.8,450c0,0-2.3,2.4-5.3,5.4c-2.8,2.7-3.6,3.5-6.2,6c-1.5,1.5-0.3,2.8,2.6,2.7c3.9-0.4,7.7-1.2,11.4-2.5
	c3-1.2,5.9-2.7,8.6-4.5c1.2-0.7,2.1-1.9,2.5-3.2v-4.5L369.8,450z"/>
<path class="st15" d="M411,446c-1.3,1.8-2.8,3.5-4.5,5c-2.2,2.1-4.3,4.5-6.1,7c-0.6,0.7-0.9,2.8,2,2.7c3.3-0.3,6.5-1.1,9.6-2.3
	c3.7-1.3,6.8-5,8.9-6.3c1.4-1.1,2.5-2.6,3.1-4.3l-1.5-4.5L411,446z"/>
<path class="st16" d="M409.8,372.5c1.1-16.6-8.1-25.4-8.1-25.4c0.7-5.6-25.2,2.2-25.2,2.2s-5.6,30.1-7.9,46
	c-2.7,18-1.1,54.7-1.1,54.7s0.3,3.9,7,3.9c5.1,0,9-4.5,9-4.5l0.5-41.8l6-29.6c0,0,5.7,24.1,7.6,32.7c1.9,9.2,9.4,36.4,9.4,36.4
	s4.8,5.5,10.8,2.5c6-3,4.8-6.3,4.8-6.3s-1.2-19.3-8.8-36.5C413,393.7,409.3,380.1,409.8,372.5z"/>
<path class="st17" d="M380,305.8c0,0-3.7-0.2-7.5,7s-7.5,14.9-7.5,14.9s5.6,0.8,11.7,6.4C385,326.6,386.3,309.3,380,305.8z"/>
<path class="st18" d="M380,305.8c-1.7,3.6-3.1,7.4-4,11.4c-1.9,7.4-1.2,41.5-1.2,41.5s7.9,5.6,21.2,4.5c4.5-0.3,8.8-2.3,11.9-5.5
	c0,0,4.7-33.5,4.1-38.3c-0.6-4.8-10.7-16.1-10.7-16.1S388,302.6,380,305.8z"/>
<path class="st19" d="M389.1,301.1l-1.5,9c0,0,4.6,5.1,9,1.3c4.4-3.8,5.1-5.6,5.1-5.6l-2.2-12.2L389.1,301.1z"/>
<path class="st20" d="M395.4,280.1c-3.8-2.9-12.9-3.8-16.2,5.5c-3.5,9.8,5.4,22,10.1,20c2.6-1.2,8.2-5.3,9.8-10.5
	C401,289.3,398.4,282.3,395.4,280.1z"/>
<path class="st15" d="M378.5,288.7c1.6,1.6,3.9,3.4,8.6,2.6c2.4-0.4,4.6-1.2,6.7-2.5c0,0,3,2,4.1,2.6c1.3,0.7,1.3,3.6,1.3,3.6
	s2.5-3.2,1.2-9c-0.8-3.7-4.4-11.4-11.3-10.8c-6.9,0.6-10.9,5.1-11.7,9.1c-0.2,0.8-0.2,1.5,0,2.3C377.6,287.4,378,288.1,378.5,288.7z
	"/>
<path class="st16" d="M389.5,326.1c0,0,5.8-8.8,10.4-11.2c2.5-1.4,5.3-2.4,8.1-3c0,0-2-3.4-3.2-3.8c-2,0.3-3.9,0.8-8,3
	c-4.1,2.2-8.7,7.4-10.5,10.6C382.7,328.1,386.8,329.8,389.5,326.1z"/>
<path class="st16" d="M379.5,305.8c0,0-3.2,7.6-3.7,11.9c-0.5,4.4,0.4,5.7,2.2,5.9s1.9-3,2.4-6.4c0.5-3.3,3.3-12.5,3.3-12.5
	L379.5,305.8z"/>
<path class="st16" d="M408.6,352.1c0,0-5.8,4-10,3.6c-3.7-0.4-9-4-8.7-15.7c0.3-11.7,1.4-17.1,1.4-17.1l-14.1-6.2
	c0,0-3.8,8.9-4.6,26.3c-0.8,17.4-1.1,23.4-1.1,23.4s15.1,0.9,24,0c8.9-0.9,13.9-3.2,13.9-3.2L408.6,352.1z"/>
<path class="st13" d="M377.8,321.2c0.5,0,0.9-0.6,0.9-1.3c0-0.7-0.4-1.3-0.9-1.3c-0.5,0-0.9,0.6-0.9,1.3
	C377,320.6,377.3,321.2,377.8,321.2z"/>
<path class="st13" d="M387.2,323.8c-0.4,0.6-0.4,1.3,0,1.6c0.4,0.3,1.1,0,1.5-0.5c0.2-0.2,0.3-0.5,0.3-0.8s-0.1-0.6-0.3-0.8
	C388.3,323,387.6,323.2,387.2,323.8z"/>
<path class="st21" d="M376,325.5c-0.6,2.9-0.3,12.1,4.9,13.5c4.7,1.3,6-4.3,7-8.6C383.7,329.3,379.7,327.7,376,325.5z"/>
<path class="st20" d="M394.7,336.7c0,0-2.6,6.6-4.9,9.8c-1.5,2.1-10.1,8-13.5,10.6c2,1.3,2.9,3.1,4.2,5.1c4.5-1.5,13.1-6.7,14.4-7.6
	c3.4-2.4,9.9-11.8,9.9-11.8S401.7,335.2,394.7,336.7z"/>
<path class="st17" d="M410.3,315.2c-2.8-2.3-8.8,5.4-12,10.2c-2.3,3.8-4.2,7.8-5.8,12c0,0,3.9,2.8,7.3,5c1.9,1.2,3.9,2.3,5.9,3.2
	C405.7,345.6,419.9,323,410.3,315.2z"/>
<path class="st18" d="M396.6,280.7c5.5,2.2,6.8,6.6,2.7,9.8s-11.9,4-17.4,1.8s-6.8-6.6-2.7-9.8S391.1,278.4,396.6,280.7z"/>
<path class="st18" d="M376.9,287.3c0,0-2.4-14.3,10-16.1c14.4-2.1,14.9,14.8,14.9,14.8L376.9,287.3z"/>
<path class="st17" d="M376.7,285.2c0,0-6,5.6,1.3,8.8c12.3,5.3,22.4-4.5,22.4-4.5s-13.1,3.1-19.8,0.2
	C376.1,287.7,376.7,285.2,376.7,285.2z"/>
<path class="st17" d="M388.7,272c-1.9,1.1-2.7,2.4-3.8,5.1c-1.1,2.7-0.2,5.2,2.5,6.8c1.7,1.1,3.3,2.5,4.5,4.2c0.1-0.9,0-1.8-0.4-2.7
	c-0.3-0.8-0.8-1.6-1.5-2.2c-2.3-1.9-4.4-2.9-3.1-6c1.6-3.8,6.9-5.3,6.9-5.3S391.9,270.1,388.7,272z"/>
<path class="st17" d="M386.9,271.2c0,0-3.5,1.4-5,3.6c-0.7,1.1-0.6,4.8-1.3,5.7c-1.2,1.3-2.5,2.5-3.9,3.5c0,0-1-0.9,0.2-2.6
	c1.2-1.7,2.7-1.8,2.9-4.3C379.9,275.4,379,271.7,386.9,271.2z"/>
<path class="st15" d="M366.2,379.6h-2.5V444h2.5V379.6z"/>
<path class="st22" d="M363.7,379.6h-4.2V444h4.2V379.6z"/>
<path class="st15" d="M364.1,381.3c-0.2,0-0.4-0.1-0.6-0.2c-1.6-0.6-2.9-1.8-3.6-3.3l-6.9-14c-0.6-1-0.8-2.1-0.7-3.3
	c0.1-1.1,0.5-2.2,1.2-3.1c0.7-0.8,1.7-1.3,2.8-1.4c1.1-0.1,2.1,0.1,3.1,0.6l15,8c0.9,0.5,1.7,1.2,2.3,2.1c0.6,0.9,1,1.8,1.1,2.9
	c0.2,0.9,0.1,1.9-0.2,2.8c-0.3,0.9-0.9,1.7-1.7,2.3l-8.2,5.9c-0.5,0.4-1.1,0.6-1.8,0.8C365.4,381.4,364.8,381.4,364.1,381.3z
	 M362.6,376.5c0.3,0.6,0.8,1.1,1.5,1.4c0.3,0.1,0.6,0.2,0.9,0.1c0.3,0,0.6-0.1,0.9-0.3l8.2-5.9c0.3-0.2,0.5-0.6,0.7-0.9
	c0.1-0.4,0.2-0.8,0.1-1.2c-0.1-0.4-0.2-0.8-0.5-1.2c-0.2-0.3-0.6-0.6-0.9-0.8l-15-8c-0.4-0.2-0.8-0.3-1.2-0.3
	c-0.4,0.1-0.8,0.3-1.1,0.6c-0.3,0.4-0.5,0.8-0.5,1.3c0,0.5,0.1,0.9,0.3,1.3L362.6,376.5z"/>
<path class="st15" d="M365,382.2l2.7-1.5V380l-3.5,1.7L365,382.2z"/>
<path class="st15" d="M352.7,357.6l2.1-1.2l0.5,0.5l-1.8,1.8L352.7,357.6z"/>
<path class="st22" d="M362,382.5c-0.2,0-0.4-0.1-0.6-0.2c-1.6-0.6-2.9-1.8-3.6-3.3l-6.9-14c-0.6-1-0.8-2.1-0.7-3.3
	c0.1-1.1,0.5-2.2,1.2-3.1c0.7-0.8,1.7-1.3,2.8-1.5c1.1-0.1,2.1,0.1,3.1,0.6l15,8c0.9,0.5,1.7,1.2,2.3,2.1c0.6,0.9,1,1.8,1.2,2.9
	c0.2,0.9,0.1,1.9-0.2,2.8c-0.3,0.9-0.9,1.7-1.7,2.3l-8.2,5.9c-0.5,0.4-1.1,0.6-1.8,0.7C363.3,382.7,362.6,382.6,362,382.5z
	 M360.5,377.7c0.3,0.6,0.8,1.1,1.5,1.4c0.3,0.1,0.6,0.2,0.9,0.1c0.3,0,0.6-0.1,0.9-0.3l8.1-5.9c0.3-0.2,0.5-0.6,0.7-0.9
	c0.1-0.4,0.2-0.8,0.1-1.2c-0.1-0.4-0.2-0.8-0.5-1.2c-0.2-0.3-0.6-0.6-0.9-0.8l-15-8c-0.4-0.2-0.8-0.3-1.3-0.3
	c-0.4,0.1-0.8,0.3-1.1,0.6c-0.3,0.4-0.5,0.8-0.5,1.3c0,0.5,0.1,0.9,0.3,1.3L360.5,377.7z"/>
<path class="st15" d="M380.6,470.9l-71.5,41.4c-3.8,2.2-9.6,2.5-12.9,0.6c-3.3-1.9-2.9-5.3,0.9-7.5l71.5-41.5L380.6,470.9z"/>
<path class="st15" d="M380.6,467.8v3.1l-5.2,1l-1-5L380.6,467.8z"/>
<path class="st15" d="M294,506.5v3.2l1.2,1.4l0.6-3.8L294,506.5z"/>
<path class="st23" d="M380.6,467.8l-71.5,41.4c-3.8,2.2-9.6,2.5-12.9,0.6c-3.3-1.9-2.9-5.3,0.9-7.5l71.5-41.4L380.6,467.8z"/>
<path class="st24" d="M307.6,504.1c0.2,1.2-1.3,2.5-3.4,2.8s-4-0.4-4.2-1.6s1.3-2.5,3.5-2.8C305.6,502.1,307.4,502.8,307.6,504.1z"
	/>
<path class="st25" d="M307,503.5c0.2,1.1-1.2,2.2-3.1,2.5c-1.9,0.3-3.6-0.3-3.7-1.4c-0.2-1.1,1.2-2.2,3.1-2.5S306.9,502.4,307,503.5
	z"/>
<path class="st15" d="M350.6,453.6l-71.5,41.4c-3.8,2.2-9.6,2.5-12.9,0.6c-3.3-1.9-2.9-5.3,0.9-7.5l71.5-41.5L350.6,453.6z"/>
<path class="st15" d="M350.6,450.5v3.1l-5.2,1l-1.1-5L350.6,450.5z"/>
<path class="st15" d="M264,489.2v3.2l1.2,1.4l0.6-3.8L264,489.2z"/>
<path class="st23" d="M350.6,450.5L279.2,492c-3.8,2.2-9.6,2.5-12.9,0.6c-3.3-1.9-2.9-5.3,0.9-7.5l71.5-41.4L350.6,450.5z"/>
<path class="st24" d="M277.6,486.8c0.2,1.2-1.4,2.5-3.4,2.8c-2.1,0.3-4-0.4-4.2-1.6s1.4-2.5,3.4-2.8
	C275.6,484.8,277.5,485.5,277.6,486.8z"/>
<path class="st25" d="M277.1,486.2c0.2,1.1-1.2,2.2-3.1,2.5c-1.9,0.3-3.5-0.3-3.7-1.4s1.2-2.2,3.1-2.5S276.9,485.1,277.1,486.2z"/>
<path class="st24" d="M334,446.3l8.9-23.6l30.9,17.8l2.1,30L334,446.3z"/>
<path class="st26" d="M376,470.5l4.6-2.7l-2.2-29.9l-4.5,2.6L376,470.5z"/>
<path class="st25" d="M343,422.7l30.9,17.8l4.5-2.6l-30.8-17.8L343,422.7z"/>
<path class="st20" d="M378.1,356c-0.7,0.5-1.2,0.8-1.5,1c-1.9,1-4.6,2.3-6.8,2.1c-0.7-0.1-1.3,0-2,0.2c-0.6,0.2-1.2,0.6-1.7,1
	c0.5,0.3,1.5,0.8,1.5,0.8s-3.6,1.5-3.4,4.4c0,1.5,0.4,1.5,1.5,1.5c0.3,0.6,0.5,1.4,1.9,1.1c0.4,0.3,2,1.5,2.9,1.4
	c3.9-0.9,6.7-4.5,8.1-5.8c1.4-1.2,2.8-2.2,4.4-3.2C381.8,358.6,380.1,357,378.1,356z"/>
<path class="st20" d="M366,328c-4.3,6.3-8,12.9-11,19.9c-0.8,1.9-3.2,7.4-2.9,10c0,1.1,0.3,2.1,0.8,3c0.5,0.9,1.2,1.7,2,2.4
	c0.1,0.1,0.3,0.2,0.5,0.2c0.2,0,0.3,0,0.5,0c0.2-0.1,0.3-0.2,0.4-0.3c0.1-0.1,0.2-0.3,0.2-0.4c0.7,0.3,1.4,0.6,2.1,0.8
	c0.7,0.1,1.1-0.8,1.1-0.8s-2-3.1-1.1-4.1c0.5-0.6,1-1.1,1.7-1.4l2.6,1.4c0,0-1.9-3-2.3-3.9c-0.3-0.5-0.5-1.1-0.6-1.7
	c-0.2-1.6,8-12.9,8.9-14c1.8-2.2,3.4-4.7,4.6-7.3c-0.9-0.7-1.9-1.3-2.9-1.9C369.3,328.9,367.7,328.3,366,328z"/>
<path class="st10" d="M324.8,496.4l0-41.6l33.2-19.2v41.5L324.8,496.4z"/>
<path class="st9" d="M324.8,496.4l0-41.6l-33.2-19.2v41.5L324.8,496.4z"/>
<path class="st10" d="M295.9,474.4v-31.9l-1-0.6v33.2l26.5,15.4v-1.3L295.9,474.4z"/>
<path class="st9" d="M321.5,489.2l0-31.9l-25.6-14.8v31.9L321.5,489.2z"/>
<path class="st1" d="M311.8,481.2l7.1,4.1v-10.7l-7.1-4.1V481.2z"/>
<path class="st11" d="M353.7,474.4v-31.9l1-0.6v33.2l-26.5,15.4v-1.3L353.7,474.4z"/>
<path class="st10" d="M328.1,489.2l0-31.9l25.6-14.8v31.9L328.1,489.2z"/>
<path class="st11" d="M291.6,435.7l33.2,19.2l33.2-19.2l-33.2-19.2L291.6,435.7z"/>
<path class="st27" d="M351.1,436.1l1.1-0.6l-27.4-15.8l-27.4,15.8l1.1,0.6l26.3-15.2L351.1,436.1z"/>
<path class="st28" d="M351.1,436.1l-26.3-15.2l-26.3,15.2l26.3,15.2L351.1,436.1z"/>
<path class="st29" d="M346.8,449.8v10.7l5.5-3.2v-10.7L346.8,449.8z"/>
<path class="st29" d="M338.7,454.4v10.7l5.5-3.2v-10.7L338.7,454.4z"/>
<path class="st10" d="M324.8,452.8l0-41.6L358,392v41.5L324.8,452.8z"/>
<path class="st9" d="M324.8,452.8l0-41.6L291.6,392v41.5L324.8,452.8z"/>
<path class="st10" d="M295.9,430.7v-31.9l-1-0.6v33.2l26.5,15.4v-1.3L295.9,430.7z"/>
<path class="st9" d="M321.5,445.6l0-31.9l-25.6-14.8v31.9L321.5,445.6z"/>
<path class="st1" d="M311.8,437.5l7.1,4.1v-10.7l-7.1-4.1V437.5z"/>
<path class="st11" d="M353.7,430.7v-31.9l1-0.6v33.2l-26.5,15.4v-1.3L353.7,430.7z"/>
<path class="st10" d="M328.1,445.6l0-31.9l25.6-14.8v31.9L328.1,445.6z"/>
<path class="st11" d="M291.6,392l33.2,19.2L358,392l-33.2-19.2L291.6,392z"/>
<path class="st27" d="M351.1,392.4l1.1-0.6l-27.4-15.8l-27.4,15.8l1.1,0.6l26.3-15.2L351.1,392.4z"/>
<path class="st28" d="M351.1,392.4l-26.3-15.2l-26.3,15.2l26.3,15.2L351.1,392.4z"/>
<path class="st29" d="M346.8,406.2v10.7l5.5-3.2V403L346.8,406.2z"/>
<path class="st29" d="M338.7,410.8v10.7l5.5-3.2v-10.7L338.7,410.8z"/>
<path class="st10" d="M324.8,408.8l0-41.5l33.2-19.2v41.5L324.8,408.8z"/>
<path class="st9" d="M324.8,408.8l0-41.5l-33.2-19.2v41.5L324.8,408.8z"/>
<path class="st10" d="M295.9,386.8v-31.9l-1-0.6v33.2l26.5,15.4v-1.3L295.9,386.8z"/>
<path class="st9" d="M321.5,401.6l0-32l-25.6-14.8v31.9L321.5,401.6z"/>
<path class="st1" d="M311.8,393.6l7.1,4.1V387l-7.1-4.1V393.6z"/>
<path class="st11" d="M353.7,386.8v-31.9l1-0.6v33.2l-26.5,15.4v-1.3L353.7,386.8z"/>
<path class="st10" d="M328.1,401.6l0-32l25.6-14.8v31.9L328.1,401.6z"/>
<path class="st11" d="M291.6,348.1l33.2,19.2l33.2-19.2l-33.2-19.2L291.6,348.1z"/>
<path class="st30" d="M351.1,348.5l1.1-0.6L324.8,332l-27.4,15.8l1.1,0.6l26.3-15.2L351.1,348.5z"/>
<path class="st11" d="M351.1,348.5l-26.3-15.2l-26.3,15.2l26.3,15.2L351.1,348.5z"/>
<path class="st29" d="M346.8,362.2v10.7l5.5-3.2v-10.7L346.8,362.2z"/>
<path class="st29" d="M338.7,366.8v10.7l5.5-3.2v-10.7L338.7,366.8z"/>
<g>
	<defs>
		<rect id="SVGID_1_" x="60" y="402" width="161" height="143"/>
	</defs>
	<clipPath id="SVGID_2_">
		<use xlink:href="#SVGID_1_"  style="overflow:visible;"/>
	</clipPath>
	<g class="st31">
		<path class="st14" d="M62.8,496.9l81.3,48.1l76.9-45l-81.3-48.3L62.8,496.9z"/>
		<path class="st6" d="M203.6,490.9l-67.8,39.2l2.1,1.3l68-39.3L203.6,490.9z"/>
		<path class="st7" d="M205.9,492.1l-68,39.3v9.7l68-39.3V492.1z"/>
		<path class="st8" d="M135.7,539.9v-9.8l2.1,1.3v9.7L135.7,539.9z"/>
		<path class="st6" d="M127.8,446.9L60,486.2l2.1,1.3l68-39.3L127.8,446.9z"/>
		<path class="st7" d="M130.2,448.2l-68,39.3v9.7l68-39.3V448.2z"/>
		<path class="st8" d="M60,495.9v-9.8l2.1,1.3v9.7L60,495.9z"/>
		<path class="st6" d="M164.6,467.8L96.8,507l2.1,1.3l68-39.3L164.6,467.8z"/>
		<path class="st7" d="M166.9,469.1l-68,39.3v9.7l68-39.3V469.1z"/>
		<path class="st8" d="M96.8,516.8V507l2.1,1.3v9.7L96.8,516.8z"/>
		<path class="st8" d="M137.8,528.5l-77.8-45v3.1l77.8,45V528.5z"/>
		<path class="st6" d="M146,523.9l-8.2,4.6l-77.8-45l8.1-4.6L146,523.9z"/>
		<path class="st7" d="M146,523.9l-8.2,4.6v5.8l8.2-4.8V523.9z"/>
		<path class="st8" d="M153,519.5L75,474.4v3.1l78.1,45.1V519.5z"/>
		<path class="st6" d="M161.2,514.9l-8.2,4.6L75,474.4l8.1-4.6L161.2,514.9z"/>
		<path class="st7" d="M161.2,514.9l-8.2,4.6v5.8l8.2-4.8V514.9z"/>
		<path class="st8" d="M168.6,510.7l-78.2-45.2v3.1l78.2,45.2V510.7z"/>
		<path class="st6" d="M176.7,506.1l-8.2,4.6l-78.2-45.2l8.1-4.6L176.7,506.1z"/>
		<path class="st7" d="M176.7,506.1l-8.2,4.6v5.8l8.2-4.8V506.1z"/>
		<path class="st8" d="M183.8,501.7l-78.1-45v3.1l78.1,45V501.7z"/>
		<path class="st6" d="M191.9,497.2l-8.2,4.6l-78.1-45l8.1-4.6L191.9,497.2z"/>
		<path class="st7" d="M191.9,497.2l-8.2,4.6v5.8l8.2-4.8V497.2z"/>
		<path class="st8" d="M197.7,493.9l-78.3-45.2v3.1l78.3,45.2V493.9z"/>
		<path class="st6" d="M205.9,489.3l-8.2,4.6l-78.3-45.2l8.1-4.6L205.9,489.3z"/>
		<path class="st7" d="M205.9,489.3l-8.2,4.6v5.8l8.2-4.8V489.3z"/>
		<path class="st9" d="M103.1,502.6l0-24.2L68,458v24.2L103.1,502.6z"/>
		<path class="st10" d="M103.1,502.6l0-24.2l50.6-29.3v24.2L103.1,502.6z"/>
		<path class="st11" d="M153.7,449.1l-50.6,29.3L68,458l50.6-29.2L153.7,449.1z"/>
		<path class="st1" d="M81,478.4l7.8,4.6v-12.8l-7.8-4.6V478.4z"/>
		<path class="st12" d="M81,465.5l50.6-29.2l7.9,4.5l-50.6,29.3L81,465.5z"/>
		<path class="st1" d="M100.5,498.6v-2.3l-11.8-6.9v2.3L100.5,498.6z"/>
		<path class="st1" d="M100.5,494.5v-2.3l-11.8-6.8v2.3L100.5,494.5z"/>
		<path class="st1" d="M146.6,466.4v8.2l5.7-3.3v-8.2L146.6,466.4z"/>
		<path class="st1" d="M138.9,470.8v8.2l5.6-3.3v-8.2L138.9,470.8z"/>
		<path class="st1" d="M131.1,475.3v8.2l5.6-3.3v-8.2L131.1,475.3z"/>
		<path class="st12" d="M104.6,479.3v11.8l11.6-6.7v-11.8L104.6,479.3z"/>
		<path class="st1" d="M106.1,481.7v-1.9l9.1-5.3v1.9L106.1,481.7z"/>
		<path class="st9" d="M141.7,525.2l0-24.2l-35.2-20.3v24.2L141.7,525.2z"/>
		<path class="st10" d="M141.7,525.2l0-24.2l50.6-29.3v24.2L141.7,525.2z"/>
		<path class="st11" d="M192.4,471.7L141.7,501l-35.2-20.3l50.6-29.2L192.4,471.7z"/>
		<path class="st1" d="M119.6,501l7.8,4.6v-12.9l-7.8-4.6V501z"/>
		<path class="st12" d="M119.6,488.2l50.6-29.2l7.9,4.5l-50.6,29.3L119.6,488.2z"/>
		<path class="st1" d="M139.1,521.2v-2.3l-11.8-6.8v2.3L139.1,521.2z"/>
		<path class="st1" d="M139.1,517.2v-2.3l-11.8-6.8v2.3L139.1,517.2z"/>
		<path class="st1" d="M185.2,489v8.2l5.6-3.3v-8.2L185.2,489z"/>
		<path class="st1" d="M177.5,493.5v8.2l5.6-3.3v-8.2L177.5,493.5z"/>
		<path class="st1" d="M169.7,498v8.2l5.6-3.3v-8.2L169.7,498z"/>
		<path class="st12" d="M143.3,502v11.8l11.6-6.7v-11.8L143.3,502z"/>
		<path class="st1" d="M144.7,504.4v-1.9l9.1-5.3v1.9L144.7,504.4z"/>
		<path class="st9" d="M103.1,475.8l0-24.3L68,431.2v24.2L103.1,475.8z"/>
		<path class="st10" d="M103.1,475.8l0-24.3l50.6-29.3v24.2L103.1,475.8z"/>
		<path class="st11" d="M153.7,422.3l-50.6,29.3L68,431.2l50.6-29.2L153.7,422.3z"/>
		<path class="st1" d="M81,451.6l7.8,4.6v-12.9l-7.8-4.6V451.6z"/>
		<path class="st12" d="M81,438.7l50.6-29.2l7.9,4.5l-50.6,29.3L81,438.7z"/>
		<path class="st1" d="M100.5,471.8v-2.3l-11.8-6.8v2.3L100.5,471.8z"/>
		<path class="st1" d="M100.5,467.8v-2.3l-11.8-6.9v2.3L100.5,467.8z"/>
		<path class="st1" d="M146.6,439.6v8.2l5.7-3.3v-8.2L146.6,439.6z"/>
		<path class="st1" d="M138.9,444.1v8.2l5.6-3.3v-8.2L138.9,444.1z"/>
		<path class="st1" d="M131.1,448.6v8.2l5.6-3.3v-8.2L131.1,448.6z"/>
		<path class="st12" d="M104.6,452.6v11.8l11.6-6.7v-11.8L104.6,452.6z"/>
		<path class="st1" d="M106.1,455v-1.9l9.1-5.3v1.9L106.1,455z"/>
		<path class="st9" d="M141.7,498.5l0-24.3l-35.2-20.3v24.2L141.7,498.5z"/>
		<path class="st10" d="M141.7,498.5l0-24.3l50.6-29.3v24.2L141.7,498.5z"/>
		<path class="st11" d="M192.4,445l-50.6,29.3l-35.2-20.3l50.6-29.2L192.4,445z"/>
		<path class="st1" d="M119.6,474.3l7.8,4.6V466l-7.8-4.6V474.3z"/>
		<path class="st12" d="M119.6,461.4l50.6-29.2l7.9,4.5L127.5,466L119.6,461.4z"/>
		<path class="st1" d="M139.1,494.5v-2.3l-11.8-6.8v2.3L139.1,494.5z"/>
		<path class="st1" d="M139.1,490.4v-2.3l-11.8-6.8v2.3L139.1,490.4z"/>
		<path class="st1" d="M185.2,462.3v8.2l5.6-3.3V459L185.2,462.3z"/>
		<path class="st1" d="M177.5,466.7v8.2l5.6-3.3v-8.2L177.5,466.7z"/>
		<path class="st1" d="M169.7,471.2v8.2l5.6-3.3V468L169.7,471.2z"/>
		<path class="st12" d="M143.3,475.2V487l11.6-6.7v-11.8L143.3,475.2z"/>
		<path class="st1" d="M144.7,477.6v-1.9l9.1-5.3v1.9L144.7,477.6z"/>
	</g>
</g>
<g>
	<defs>
		<rect id="SVGID_3_" x="69" y="80" width="237" height="284"/>
	</defs>
	<clipPath id="SVGID_4_">
		<use xlink:href="#SVGID_3_"  style="overflow:visible;"/>
	</clipPath>
	<g class="st32">
		<path class="st33" d="M105.1,292.7l77.7,46l73.6-43l-77.7-46.1L105.1,292.7z"/>
		<g>
			<path class="st14" d="M79.2,329.8c13.6-7.8,35.6-7.9,49.1-0.1c13.5,7.8,13.4,20.5-0.2,28.3c-13.6,7.9-35.6,7.9-49.1,0.1
				C65.6,350.4,65.6,337.7,79.2,329.8z"/>
		</g>
		<g>
			<path class="st34" d="M295.9,246.8c-13.5-7.8-35.5-7.8-49.1,0.1c-2.5,1.4-4.6,3.1-6.1,4.8c-10.2-0.7-20.8,1.3-28.6,5.8
				c-13.6,7.8-13.6,20.5-0.2,28.3c13.5,7.8,35.5,7.8,49.1-0.1c2.5-1.4,4.5-3.1,6.1-4.8c10.2,0.7,20.8-1.3,28.6-5.8
				C309.3,267.3,309.4,254.6,295.9,246.8z"/>
		</g>
		<path class="st1" d="M241.9,261.5c0,0-2.3,2.5-5.3,5.5c-2.8,2.8-3.7,3.6-6.3,6.1c-1.5,1.5-0.3,2.9,2.7,2.8c4-0.4,7.9-1.2,11.7-2.5
			c3-1.3,6-2.8,8.7-4.6c1.2-0.7,2.2-1.9,2.6-3.3v-4.6L241.9,261.5z"/>
		<path class="st1" d="M283.8,257.4c-1.4,1.8-2.9,3.6-4.5,5.1c-2.3,2.2-4.3,4.6-6.2,7.1c-0.6,0.7-0.9,2.9,2,2.8
			c2.6-0.1,6.5-1.2,9.8-2.4c3.7-1.3,6.9-5.1,9-6.4c2.2-1.4,3.1-4.4,3.1-4.4l-1.5-4.5L283.8,257.4z"/>
		<path class="st16" d="M282.6,182.6c1.1-16.9-8.2-25.8-8.2-25.8c0.7-5.7-25.7,2.3-25.7,2.3s-5.7,30.6-8.1,46.8
			c-2.7,18.3-1.1,55.7-1.1,55.7s0.3,4,7.2,4c5.2,0,9.1-4.6,9.1-4.6l0.5-42.5l6.1-30.1c0,0,5.9,24.5,7.7,33.3c2,9.4,9.5,37,9.5,37
			s4.9,5.6,11,2.6c6.1-3,4.9-6.4,4.9-6.4s-1.2-19.6-9-37.2C285.9,204.2,282.1,190.4,282.6,182.6z"/>
		<path class="st17" d="M252.3,114.7c0,0-3.8-0.2-7.7,7.1c-3.9,7.3-7.6,15.1-7.6,15.1s5.7,0.8,11.9,6.5
			C257.3,135.9,258.7,118.3,252.3,114.7z"/>
		<path class="st18" d="M252.3,114.7c-1.8,3.7-3.1,7.6-4.1,11.6c-1.9,7.5-1.3,42.3-1.3,42.3s8.1,5.7,21.6,4.6
			c4.6-0.3,8.9-2.3,12.1-5.6c0,0,4.8-34,4.1-38.9c-0.7-4.9-10.9-16.3-10.9-16.3S260.4,111.5,252.3,114.7z"/>
		<path class="st35" d="M261.5,110l-1.6,9.1c0,0,4.7,5.2,9.2,1.3c4.6-3.9,5.2-5.7,5.2-5.7l-2.2-12.5L261.5,110z"/>
		<path class="st16" d="M263.5,135.9c0,0,5.9-8.8,10.5-11.3c2.2-1.3,4.6-2.3,7.1-2.9c0,0-1.7-3.5-2.8-3.9c-2,0.3-3.2,0.8-7.4,3
			c-4.2,2.2-8.8,7.4-10.6,10.7C256.7,137.8,260.8,139.6,263.5,135.9z"/>
		<path class="st16" d="M254.1,113.9c0,0-3.8,9.1-4.3,13.5s0.4,5.7,2.2,5.9c1.8,0.2,1.9-3,2.4-6.5c0.5-3.3,3.7-14.1,3.7-14.1
			L254.1,113.9z"/>
		<path class="st16" d="M281.3,162.7c0,0-4.3,3.4-8.5,2.9c-3.7-0.4-9.1-4-8.8-15.8c0.3-11.8,1.4-17.2,1.4-17.2l-14.2-6.2
			c0,0-3.9,8.9-4.6,26.5c-0.8,17.6-1.1,23.6-1.1,23.6s15.2,0.9,24.2,0s12.8-2,12.8-2L281.3,162.7z"/>
		<path class="st13" d="M252.7,129.6c0,0.7-0.4,1.3-0.9,1.3c-0.5,0-0.9-0.6-0.9-1.3c0-0.7,0.4-1.3,0.9-1.3S252.7,128.8,252.7,129.6z
			"/>
		<path class="st13" d="M261.2,133.5c-0.4,0.6-0.4,1.3,0,1.6c0.4,0.3,1.1,0,1.5-0.5c0.4-0.5,0.4-1.3,0-1.6
			C262.3,132.7,261.6,133,261.2,133.5z"/>
		<path class="st21" d="M249.9,135.3c-0.6,2.9-0.3,12.2,5,13.6c4.8,1.3,6-4.3,7.1-8.7C257.7,139.1,253.7,137.4,249.9,135.3z"/>
		<path class="st36" d="M268,88.6c-3.9-3-13.1-3.9-16.4,5.6c-3.6,10,5.5,22.4,10.3,20.3c2.7-1.2,8.4-5.4,10-10.7
			C273.6,97.9,271,90.9,268,88.6z"/>
		<path class="st9" d="M230.8,197.2V161l29.2-14.5v34.1L230.8,197.2z"/>
		<path class="st10" d="M230.8,197.2V161l-29.2-14.5v34.1L230.8,197.2z"/>
		<path class="st9" d="M230.8,197.5l0-36.5l29.2-16.9v36.5L230.8,197.5z"/>
		<path class="st10" d="M230.8,197.5l0-36.5l-29.2-16.9v36.5L230.8,197.5z"/>
		<path class="st11" d="M201.6,144.1l29.2,16.9l29.2-16.9l-29.2-16.9L201.6,144.1z"/>
		<path class="st1" d="M249.1,161l-6.5,3.8v-10.6l6.5-3.8V161z"/>
		<path class="st12" d="M249.1,150.4L220,133.5l-6.5,3.8l29.2,16.9L249.1,150.4z"/>
		<path class="st1" d="M234.7,192.3v-1.9l9.8-5.7v1.9L234.7,192.3z"/>
		<path class="st1" d="M234.7,188.9V187l9.8-5.7v1.9L234.7,188.9z"/>
		<path class="st1" d="M253.3,175.2v6.5l4.7-2.7v-6.5L253.3,175.2z"/>
		<path class="st1" d="M208,174.6v6.8l-4.7-2.7v-6.8L208,174.6z"/>
		<path class="st1" d="M214.4,178.3v6.8l-4.7-2.7v-6.8L214.4,178.3z"/>
		<path class="st12" d="M213,154.7v9.7l-9.6-5.6v-9.8L213,154.7z"/>
		<path class="st1" d="M211.8,156.7v-1.6l-7.6-4.4v1.6L211.8,156.7z"/>
		<path class="st36" d="M267.2,146.2c0,0-5.5,11.6-7.8,14.8c-2.3,3.3-11.6,10.7-13.5,11.7c-1.9,1-6.3,2.4-8.6,2.2
			c-2.3-0.2-3.8,0.9-1.6,1.7c1.4,0.5,2.9,0.9,4.3,1c0,0-4,3-5.6,5.5c-1.3,2-2.4,5.8,2.6,4.7c4-0.9,9.5-7,11-8.4
			c2.7-2.6,13.6-8.5,16.1-10.2c3.5-2.5,13.4-17,13.4-17S274.4,144.7,267.2,146.2z"/>
		<path class="st17" d="M283.1,124.4c-2.9-2.3-9,5.5-12.3,10.4c-3.3,4.9-5.9,12.2-5.9,12.2s3.9,2.8,7.4,5.1c1.9,1.2,4,2.3,6,3.3
			C278.4,155.2,292.9,132.3,283.1,124.4z"/>
		<path class="st1" d="M250.7,97.3c1.6,1.6,3.9,3.5,8.8,2.7c2.4-0.4,4.7-1.2,6.8-2.5l0.8,5.3c0.5-0.1,1-0.3,1.4-0.5
			c0.1-2.1,0.8-2.7,2-2.1c1.3,0.7,1.4,3.7,1.4,3.7c1.2-1.3,2.1-2.9,2.5-4.6c0.5-1.7,0.5-3.5,0.1-5.2c-0.8-3.7-5.9-11.1-12.8-10.4
			c-7,0.6-11.1,5.3-11.9,9.3c-0.2,0.8-0.2,1.6,0,2.3C249.8,96,250.2,96.8,250.7,97.3z"/>
		<path class="st17" d="M249.3,92.8c0,0-9,6.3-10.5,7.7c-1.5,1.3,7.1,7.2,13.2,5.2c6.1-2,15.4-8.8,15.4-8.8L249.3,92.8z"/>
		<path class="st18" d="M249.3,92.8c0,0,10.3,6.4,16.7,4.5c6.4-1.8,8.1-3.4,8.1-3.4s-0.6-13.3-12.3-13.3
			C250,80.5,249.3,92.8,249.3,92.8z"/>
		<path class="st16" d="M262.3,81c0,0.5-0.8,1-1.8,1c-1,0-1.8-0.4-1.8-1c0-0.5,0.8-1,1.8-1C261.5,80,262.3,80.4,262.3,81z"/>
		<path class="st6" d="M250.3,287l-69.6,40.2l2.2,1.4l69.8-40.3L250.3,287z"/>
		<path class="st7" d="M252.7,288.3l-69.8,40.3v9.9l69.8-40.3V288.3z"/>
		<path class="st8" d="M180.8,337.2v-10l2.2,1.4v9.9L180.8,337.2z"/>
		<path class="st6" d="M172.7,242l-69.6,40.2l2.2,1.4l69.8-40.3L172.7,242z"/>
		<path class="st7" d="M175,243.3l-69.8,40.3v9.9l69.8-40.2V243.3z"/>
		<path class="st8" d="M103.1,292.2v-10l2.2,1.3v9.9L103.1,292.2z"/>
		<path class="st6" d="M210.4,263.4l-69.6,40.2l2.2,1.4l69.8-40.3L210.4,263.4z"/>
		<path class="st7" d="M212.8,264.7L143,304.9v9.9l69.8-40.3V264.7z"/>
		<path class="st8" d="M140.8,313.6v-10l2.2,1.4v9.9L140.8,313.6z"/>
		<path class="st8" d="M182.9,325.5l-79.8-46.1v3.2l79.8,46.1V325.5z"/>
		<path class="st6" d="M191.3,320.8l-8.4,4.7l-79.8-46.1l8.3-4.7L191.3,320.8z"/>
		<path class="st7" d="M191.3,320.8l-8.4,4.7v6l8.4-4.9V320.8z"/>
		<path class="st8" d="M198.5,316.3l-80.1-46.2v3.2l80.1,46.3V316.3z"/>
		<path class="st6" d="M206.9,311.6l-8.4,4.7l-80.1-46.2l8.3-4.7L206.9,311.6z"/>
		<path class="st7" d="M206.9,311.6l-8.4,4.7v6l8.4-4.9V311.6z"/>
		<path class="st8" d="M214.4,307.3L134.2,261v3.2l80.2,46.3V307.3z"/>
		<path class="st6" d="M222.8,302.6l-8.4,4.7L134.2,261l8.3-4.7L222.8,302.6z"/>
		<path class="st7" d="M222.8,302.6l-8.4,4.7v6l8.4-4.9V302.6z"/>
		<path class="st8" d="M230,298.1L150,252.1v3.2l80.1,46.1V298.1z"/>
		<path class="st6" d="M238.4,293.5l-8.4,4.7L150,252.1l8.3-4.7L238.4,293.5z"/>
		<path class="st7" d="M238.4,293.5l-8.4,4.7v6l8.4-4.9V293.5z"/>
		<path class="st8" d="M244.3,290.1l-80.2-46.3v3.2l80.2,46.3V290.1z"/>
		<path class="st6" d="M252.7,285.4l-8.4,4.7l-80.2-46.3l8.3-4.7L252.7,285.4z"/>
		<path class="st7" d="M252.7,285.4l-8.4,4.7v6l8.4-4.9V285.4z"/>
		<path class="st9" d="M147.3,299l0-24.8l-36.1-20.8v24.8L147.3,299z"/>
		<path class="st10" d="M147.3,299l0-24.8l51.9-30V269L147.3,299z"/>
		<path class="st11" d="M199.2,244.2l-51.9,30l-36.1-20.8l51.9-30L199.2,244.2z"/>
		<path class="st1" d="M124.7,274.2l8,4.7v-13.2l-8-4.7V274.2z"/>
		<path class="st12" d="M124.7,261l51.9-29.9l8.1,4.7l-51.9,30L124.7,261z"/>
		<path class="st1" d="M144.6,294.9v-2.3l-12.1-7v2.3L144.6,294.9z"/>
		<path class="st1" d="M144.6,290.7v-2.3l-12.1-7v2.3L144.6,290.7z"/>
		<path class="st1" d="M191.9,261.9v8.4l5.8-3.3v-8.4L191.9,261.9z"/>
		<path class="st1" d="M184,266.5v8.4l5.8-3.3v-8.4L184,266.5z"/>
		<path class="st1" d="M176,271.1v8.4l5.8-3.3v-8.4L176,271.1z"/>
		<path class="st12" d="M148.9,275.2v12l11.9-6.9v-12.1L148.9,275.2z"/>
		<path class="st1" d="M150.4,277.6v-2l9.4-5.4v1.9L150.4,277.6z"/>
		<path class="st9" d="M186.9,322.2l0-24.8l-36.1-20.8v24.8L186.9,322.2z"/>
		<path class="st10" d="M186.9,322.2l0-24.8l51.9-30v24.8L186.9,322.2z"/>
		<path class="st11" d="M238.8,267.4l-51.9,30l-36.1-20.8l51.9-30L238.8,267.4z"/>
		<path class="st1" d="M164.3,297.4l8,4.7v-13.2l-8-4.7V297.4z"/>
		<path class="st12" d="M164.3,284.2l51.9-29.9l8.1,4.7l-51.9,30L164.3,284.2z"/>
		<path class="st1" d="M184.2,318.1v-2.3l-12.1-7v2.3L184.2,318.1z"/>
		<path class="st1" d="M184.2,313.9v-2.3l-12.1-7v2.4L184.2,313.9z"/>
		<path class="st1" d="M231.5,285.1v8.4l5.8-3.3v-8.4L231.5,285.1z"/>
		<path class="st1" d="M223.6,289.7v8.4l5.8-3.3v-8.4L223.6,289.7z"/>
		<path class="st1" d="M215.6,294.3v8.4l5.8-3.3v-8.4L215.6,294.3z"/>
		<path class="st12" d="M188.5,298.4v12l11.9-6.9v-12.1L188.5,298.4z"/>
		<path class="st1" d="M190,300.8v-2l9.4-5.4v1.9L190,300.8z"/>
		<path class="st9" d="M147.3,271.6l0-24.8l-36.1-20.8v24.8L147.3,271.6z"/>
		<path class="st10" d="M147.3,271.6l0-24.8l51.9-30v24.8L147.3,271.6z"/>
		<path class="st11" d="M199.2,216.8l-51.9,30l-36.1-20.8l51.9-30L199.2,216.8z"/>
		<path class="st1" d="M124.7,246.8l8,4.7v-13.2l-8-4.7V246.8z"/>
		<path class="st12" d="M124.7,233.6l51.9-29.9l8.1,4.7l-51.9,30L124.7,233.6z"/>
		<path class="st1" d="M144.6,267.5v-2.3l-12.1-7v2.3L144.6,267.5z"/>
		<path class="st1" d="M144.6,263.3V261l-12.1-7v2.3L144.6,263.3z"/>
		<path class="st1" d="M191.9,234.5v8.4l5.8-3.3v-8.4L191.9,234.5z"/>
		<path class="st1" d="M184,239.1v8.4l5.8-3.3v-8.4L184,239.1z"/>
		<path class="st1" d="M176,243.7v8.4l5.8-3.3v-8.4L176,243.7z"/>
		<path class="st12" d="M148.9,247.8v12l11.9-6.9v-12.1L148.9,247.8z"/>
		<path class="st1" d="M150.4,250.2v-2l9.4-5.4v1.9L150.4,250.2z"/>
		<path class="st9" d="M186.9,294.8l0-24.8l-36.1-20.8v24.8L186.9,294.8z"/>
		<path class="st10" d="M186.9,294.8l0-24.8l51.9-30v24.8L186.9,294.8z"/>
		<path class="st11" d="M238.8,240l-51.9,30l-36.1-20.8l51.9-30L238.8,240z"/>
		<path class="st1" d="M164.3,270l8,4.7v-13.2l-8-4.7V270z"/>
		<path class="st12" d="M164.3,256.8l51.9-29.9l8.1,4.7l-51.9,30L164.3,256.8z"/>
		<path class="st1" d="M184.2,290.7v-2.3l-12.1-7v2.3L184.2,290.7z"/>
		<path class="st1" d="M184.2,286.5v-2.3l-12.1-7v2.3L184.2,286.5z"/>
		<path class="st1" d="M231.5,257.7v8.4l5.8-3.3v-8.4L231.5,257.7z"/>
		<path class="st1" d="M223.6,262.3v8.4l5.8-3.3v-8.4L223.6,262.3z"/>
		<path class="st1" d="M215.6,266.9v8.4l5.8-3.3v-8.4L215.6,266.9z"/>
		<path class="st12" d="M188.5,271v12l11.9-6.9v-12.1L188.5,271z"/>
		<path class="st1" d="M190,273.4v-2l9.4-5.4v1.9L190,273.4z"/>
		<path class="st10" d="M185.6,265.1l0-31.2l45.2-26.1v31.1L185.6,265.1z"/>
		<path class="st9" d="M185.6,265.1l0-31.2l-65.1-37.6v31.1L185.6,265.1z"/>
		<path class="st11" d="M120.5,196.3l65.1,37.6l45.2-26.1l-65.1-37.6L120.5,196.3z"/>
		<path class="st1" d="M214,233.9l-10.1,5.9v-16.5l10.1-5.9V233.9z"/>
		<path class="st12" d="M214,217.4L149,179.9l-10.1,5.8l65.1,37.6L214,217.4z"/>
		<path class="st1" d="M189,259.9V257l15.2-8.8v3L189,259.9z"/>
		<path class="st1" d="M189,254.7v-2.9l15.2-8.8v2.9L189,254.7z"/>
		<path class="st1" d="M129.7,218.6v10.5l-7.3-4.2v-10.5L129.7,218.6z"/>
		<path class="st1" d="M139.6,224.3v10.5l-7.3-4.2v-10.5L139.6,224.3z"/>
		<path class="st1" d="M149.6,230.1v10.5l-7.3-4.2v-10.5L149.6,230.1z"/>
		<path class="st12" d="M183.7,235.2v15.1l-14.9-8.6v-15.1L183.7,235.2z"/>
		<path class="st1" d="M181.8,238.3v-2.5l-11.7-6.8v2.4L181.8,238.3z"/>
		<path class="st9" d="M135.1,231.3l0-18.2l29.2-16.9v18.2L135.1,231.3z"/>
		<path class="st10" d="M135.1,231.3l0-18.2l-42-24.3V207L135.1,231.3z"/>
		<path class="st11" d="M93.1,188.8l42,24.3l29.2-16.9l-42.1-24.3L93.1,188.8z"/>
		<path class="st1" d="M137.3,227.9v-1.9l9.8-5.7v1.9L137.3,227.9z"/>
		<path class="st1" d="M137.3,224.6v-1.9l9.8-5.7v1.9L137.3,224.6z"/>
		<path class="st1" d="M100.3,196.1v8.5l-5.8-3.4v-8.5L100.3,196.1z"/>
		<path class="st1" d="M108.3,200.8v8.5l-5.8-3.4v-8.5L108.3,200.8z"/>
		<path class="st12" d="M132.8,215v10.1l-14.9-8.6v-10.1L132.8,215z"/>
		<path class="st1" d="M131,218v-2.5l-11.7-6.8v2.4L131,218z"/>
		<path class="st1" d="M156.9,210l-10.1,5.8v-9.6l10.1-5.9V210z"/>
		<path class="st12" d="M156.9,200.4l-42-24.3l-10.1,5.9l42,24.3L156.9,200.4z"/>
		<path class="st36" d="M90.3,217.6c2.4-8.2,3.7-17.3-0.4-23.9l-8.9,0.2c0,0-3.6,7.8-4.5,13.6c-0.9,5.8,0.4,8.6,2.7,11.4
			c2.3,2.8,10.6-0.9,10.9-1.1L90.3,217.6z"/>
		<path class="st1" d="M114.6,345.2c0,0,9.6-4.3,14.2-4.4c4.7-0.2,5.2,5.3,0,9.6c-5.2,4.3-9.2,4.9-13.4,6.6
			c-3.8,1.6-5.2,1.7-8.2-0.3c-4.1-2.7-0.8-9.6-0.8-9.6L114.6,345.2z"/>
		<path class="st1" d="M87,328.8c0,0,7.6-3.2,12.3-3.4c4.7-0.2,6.4,3.9,1.2,8.2c-5.2,4.3-8.4,5.3-12.7,7c-3.8,1.6-5.2,1.7-8.2-0.3
			c-4.2-2.7-0.9-9.6-0.8-9.6L87,328.8z"/>
		<path class="st16" d="M115.2,234.8c0,0,8.3,45,8.3,59.1c0,24.9-0.2,51.2-0.2,51.2s-4.1,4.3-8.2,4.4c-9,0-10-4.5-10-4.5
			s-0.1-29.7-0.9-43.2c-0.6-9.4-1.1-22.6-4.9-33.5c-0.1,11.2-0.1,14.8-1,27c-0.7,9-4.5,33.2-4.6,34.7c-2.9,3.5-11.8,5.9-16.3,0.8
			c0.4-4,2.9-31.9,2.5-46.3c-0.3-13.3-3.7-44.8,3.9-50.9C90.5,228.2,115.2,234.8,115.2,234.8z"/>
		<path class="st17" d="M92.2,206.1c-0.2-3.5-0.6-7-1.4-10.5l4.5-14.1c0,0-6.2-3.1-10.4,1.9c-1.8,2.1-5,8.3-7.7,14.2
			C79.2,201.3,85,206.4,92.2,206.1z"/>
		<path class="st36" d="M104.6,153.9c-3.3-2.3-9.7-1.6-12.5,4.3c-1.5,3.2,0.6,11.9,1,18.1c0.2,2.7-0.3,5.4-1.4,7.8l4.2,1.8
			c2.8,1,5.9,1,8.6,0l-0.1-7.5c0,0,4.6-0.7,5.3-1.4c1.9-1.8,2.9-7,2-13.7C110.5,153.1,105.8,154.8,104.6,153.9z"/>
		<path class="st18" d="M116,207.9c2.5-5.3-3.2-15-4.8-18.5c-1.6-3.5-6.7-5.6-6.7-5.6s-7-2.5-9.4-2.9c-1.1-0.2-4.7-0.4-4.7-0.4
			s-8.1,12.7-9,19.7c-0.6,4.9,2,20.9,0.1,36.7c-1.1,8.4,30.5,6,33.3,2.6C113.2,231.7,110.9,218.8,116,207.9z"/>
		<path class="st16" d="M81.8,211.3c0,0.8,0.6,10.5-0.5,16.8c-1,6.3-1.6,16-1.6,16s9,7,19.3,5.8c6.4-0.8,12.4-3.3,17.5-7.2
			c0,0-3.4-17.7-3.3-19.9l0.2-2.2c0,0-4,1.9-6.5,0.8c-2.5-1-6.7-3-8-9.4c-0.9-4.6-0.3-15.1-0.1-18c-0.5-0.1-13.4-3.9-13.4-3.9
			S81.7,202.8,81.8,211.3z"/>
		<path class="st1" d="M108.7,165.8c0.5-1.7,1.7-5.6,1.9-7.2c0.3-1.3,0.2-2.6-0.1-3.8c-0.4-1.2-1-2.4-2-3.3
			c-2.5-2.6-11.2-3.4-14.3-1.6c-3.1,1.8-9.8,5.1-7.5,16c1.9,8.7,3.7,9.7,6.4,11.8c2.3,1.8,6.4,2.2,6.4,2.2c1.5-1.2,2.5-3,2.7-4.9
			c0.1-1,0-4.2,0-4.2s-2.3-4.6-0.5-6.2s3.9,1,4.3,2.1C107.5,170.5,109.1,172.3,108.7,165.8z"/>
		<path class="st36" d="M151,221c-6.2,0.2-12.4-0.4-18.4-1.9c-4-1.1-7.9-2.7-11.5-4.7c-1.2-2.1-3.3-8.6-3.3-8.6l-11.6,4.7
			c0,0,2.9,7.8,4.6,11.4c1.4,2.9,3.1,3.4,5.8,4.4c4,1.5,15.8,1.9,20.5,2.5c3.4,0.5,7,0.3,10.3-0.6C153.1,226.9,151.2,222.6,151,221z
			"/>
		<path class="st17" d="M106.1,214c5.5,1.2,11.4-0.5,14.5-4.7c-2.2-10.1-5.8-21.1-10.7-22.7c-2.6-0.9-7.3,8.2-6.5,14.7
			C103.7,203,104.8,208.1,106.1,214z"/>
		<path class="st21" d="M80.5,235.5l-0.4,4.4c0,0,6,5.2,19,5.5c13,0.3,17.2-4.1,17.2-4.1l-0.8-4.6c-5.2,2.8-10.9,4.3-16.8,4.4
			C88.6,241.2,80.5,235.5,80.5,235.5z"/>
		<path class="st16" d="M95.2,195.5c0,0,1.4-5.8,4.1-8.6c1.4-1.5,3.2-2.6,5.2-3.1c0,0,2.7,0.7,2.7,1.5c-1.5,0.9-4.1,1.8-5.7,4.5
			c-1.6,2.7-2.7,8.3-2.7,8.3L95.2,195.5z"/>
		<path class="st16" d="M90,180.6c-0.1,0.1-2.5,3.6-4.2,9.3c-0.7,2.7-1.2,5.5-1.6,8.3l2.5,0.3c0,0,2.4-9.3,3.8-12.7
			c0.7-1.7,1.5-3.4,2.4-5L90,180.6z"/>
		<path class="st36" d="M144.5,222.4c1.5-1.3,3-2.7,4.4-4.1c1.1-1.3,2-1,1.6,0.5c-0.6,1.4-1.3,2.7-2.3,3.9c0,0-2.8-0.2-3.3-0.2
			H144.5z"/>
		<path class="st18" d="M104.5,151.7c6.4,0.7,8.9,4.8,5.6,9.3c-3.3,4.4-11,7.5-17.4,6.9c-6.3-0.7-8.9-4.8-5.6-9.3
			C90.4,154.1,98.1,151,104.5,151.7z"/>
		<path class="st18" d="M85.9,163.6c0,0-3.8-12.9,7.7-16.7c8.2-2.8,14.4,0.5,17.7,8.9C113.3,160.9,85.9,163.6,85.9,163.6z"/>
		<path class="st17" d="M106.8,164.1c0.8-0.5,4.7-5.3,3.6-9.8c-0.5-1.1-1-2.1-1.6-3.1c0,0,1.1-0.6,5.9,0.4c4.7,1,5.6,5.2,1.9,8.2
			C113.8,162,110.4,163.5,106.8,164.1z"/>
	</g>
</g>
</svg>
