<svg width="741" height="502" viewBox="0 0 741 502" fill="none" xmlns="http://www.w3.org/2000/svg">
<path d="M107.698 203.724C251.934 135.792 486.52 136.137 631.661 204.497C776.803 272.856 777.537 383.343 633.302 451.276C489.066 519.208 254.48 518.863 109.339 450.503C-35.8032 382.145 -36.5375 271.658 107.698 203.724Z" fill="url(#paint0_linear)"/>
<path d="M484.525 209.549C474.093 220.195 460.65 239.488 455.871 246.971L421.396 266.936V297.482L421.538 298.049L495.691 254.219C494.533 251.23 493.893 247.581 493.893 243.363C493.893 226.453 504.174 206.809 516.857 199.487C520.22 197.545 523.398 196.716 526.277 196.786V182.165C513.468 187.68 498.319 195.473 484.525 209.549Z" fill="#444444"/>
<path d="M488.039 213.084C477.607 223.73 465.404 242.431 460.625 249.913L424.91 270.471V301.017L425.051 301.584L499.204 257.754C498.047 254.765 497.406 251.117 497.406 246.898C497.406 229.989 507.687 210.345 520.37 203.023C523.733 201.081 526.912 200.251 529.791 200.322V185.701C516.981 191.215 501.832 199.008 488.039 213.084Z" fill="#5B5B5B"/>
<path d="M519.302 190.584L514.083 187.661V18.6839L524.52 8.91766L519.302 190.584Z" fill="#333333"/>
<path d="M529.739 190.227L519.301 196.253V18.6839L529.739 8.91766V190.227Z" fill="#5B5B5B"/>
<path d="M524.201 0L466.766 32.8096C449.085 43.0178 433.881 68.4938 430.495 93.5875L419.372 267.434L424.921 271.776L430.028 261.131L439.822 97.1381C442.784 75.1824 456.087 52.8915 471.557 43.9597L524.202 13.916V0H524.201Z" fill="#444444"/>
<path d="M529.739 4.18475L524.201 0L516.875 4.18475L523.843 10.3601L529.739 4.18475Z" fill="#444444"/>
<path d="M529.739 4.18469L472.303 36.9943C454.622 47.2025 439.418 72.6792 436.032 97.7722L424.929 270.47L424.91 272.689L435.565 265.316L445.359 101.322C448.322 79.3665 461.625 57.0762 477.094 48.1437L529.739 18.1V4.18469H529.739Z" fill="#5B5B5B"/>
<path d="M433.691 299.693C433.691 313.287 425.427 329.076 415.233 334.963C405.038 340.848 396.774 334.601 396.774 321.009C396.774 307.415 405.039 291.625 415.233 285.739C425.427 279.854 433.691 286.101 433.691 299.693Z" fill="#333333"/>
<path d="M417.137 343.716L403.77 336.196L427.622 284.962L440.411 292.113L417.137 343.716Z" fill="#333333"/>
<path d="M447.563 307.422C447.563 321.015 439.298 336.806 429.104 342.691C418.909 348.577 410.646 342.329 410.646 328.737C410.646 315.144 418.91 299.354 429.104 293.467C439.298 287.582 447.563 293.829 447.563 307.422Z" fill="#4A4A4A"/>
<path d="M443.547 310.175C443.547 320.811 437.08 333.167 429.103 337.772C421.127 342.378 414.66 337.49 414.66 326.853C414.66 316.218 421.126 303.862 429.103 299.256C437.08 294.651 443.547 299.539 443.547 310.175Z" fill="#F0CBA4"/>
<path d="M440.002 312.223C440.002 320.247 435.123 329.57 429.104 333.045C423.085 336.52 418.207 332.831 418.207 324.806C418.207 316.781 423.085 307.458 429.104 303.983C435.122 300.509 440.002 304.197 440.002 312.223Z" fill="#333333"/>
<path d="M433.255 316.117C433.255 319.175 431.397 322.725 429.104 324.049C426.811 325.371 424.953 323.967 424.953 320.91C424.953 317.854 426.811 314.303 429.104 312.979C431.396 311.656 433.255 313.061 433.255 316.117Z" fill="#F0CBA4"/>
<path d="M626.491 248.367L529.756 192.584C517.983 197.975 504.714 205.503 492.501 217.967C482.069 228.613 468.626 247.905 463.846 255.389L436.409 271.279V302.391L481.102 275.974L563.635 326.614L626.491 248.367Z" fill="#ECB52B"/>
<path d="M522.95 116.031L529.739 111.686L537.264 116.031L528.584 123.645L522.95 116.031Z" fill="#6F6F6F"/>
<path d="M633.686 171.712L529.739 111.686V191.046L633.686 251.025V171.712Z" fill="#6F6F6F"/>
<path d="M602.309 78.87L500.439 20.7518V25.6298L602.309 84.6927V78.87Z" fill="#333333"/>
<path d="M603.66 262.237L621.272 252.061L522.906 195.193L506.421 205.975L603.66 262.237Z" fill="#F5DE62"/>
<path d="M626.897 176.057L522.95 116.031V195.391L626.897 255.371V176.057Z" fill="#4A4A4A"/>
<path d="M628.481 293.646C634.61 279.244 632.973 264.759 624.826 261.291C616.678 257.824 605.104 266.688 598.976 281.09C592.847 295.491 594.484 309.977 602.631 313.444C610.779 316.912 622.353 308.048 628.481 293.646Z" fill="#333333"/>
<path d="M615.592 320.753L602.223 313.234L626.077 262L638.865 269.15L615.592 320.753Z" fill="#333333"/>
<path d="M642.354 301.375C648.482 286.973 646.846 272.487 638.698 269.02C630.551 265.553 618.978 274.417 612.849 288.819C606.72 303.221 608.357 317.706 616.504 321.173C624.652 324.641 636.225 315.776 642.354 301.375Z" fill="#4A4A4A"/>
<path d="M642.001 287.213C642.001 297.848 635.535 310.204 627.558 314.809C619.581 319.415 613.114 314.526 613.114 303.891C613.114 293.255 619.58 280.899 627.558 276.294C635.535 271.688 642.001 276.577 642.001 287.213Z" fill="#999999"/>
<path d="M638.456 289.259C638.456 297.284 633.577 306.607 627.558 310.081C621.539 313.556 616.661 309.868 616.661 301.843C616.661 293.817 621.539 284.495 627.558 281.02C633.576 277.546 638.456 281.234 638.456 289.259Z" fill="#333333"/>
<path d="M631.708 293.155C631.708 296.212 629.85 299.762 627.558 301.086C625.266 302.41 623.407 301.005 623.407 297.949C623.407 294.893 625.265 291.341 627.558 290.018C629.85 288.693 631.708 290.098 631.708 293.155Z" fill="#999999"/>
<path d="M419.372 266.841V297.975L532.118 363.032V331.948L419.372 266.841Z" fill="#444444"/>
<path d="M591.714 271.026C581.282 281.672 568.437 301.466 563.658 308.949L528.585 328.413V358.959L528.727 359.526L602.879 315.696C601.722 312.707 601.081 309.058 601.081 304.84C601.081 287.93 611.362 268.286 624.045 260.964C627.409 259.023 630.587 258.193 633.466 258.263V243.643C620.657 249.156 605.507 256.949 591.714 271.026Z" fill="#444444"/>
<path d="M595.228 274.561C584.796 285.207 572.592 303.907 567.814 311.39L532.098 331.948V362.494L532.24 363.061L606.393 319.231C605.235 316.242 604.595 312.594 604.595 308.375C604.595 291.466 614.876 271.822 627.558 264.499C630.922 262.558 634.1 261.728 636.979 261.799V247.178C624.17 252.691 609.021 260.484 595.228 274.561Z" fill="#5B5B5B"/>
<path d="M535.742 256.566C531.027 255.363 522.133 252.089 517.618 249.462C511.368 245.827 504.545 240.688 501.268 236.663C499.253 234.186 496.373 227.722 502.844 223.985L524.233 211.637C530.449 207.219 540.441 206.36 546.19 210.726C550.668 214.128 559.581 221.818 564.055 224.4C568.199 226.794 576.599 228.857 580.663 230.63C585.961 232.94 585.559 239.57 579.087 243.307L557.698 255.656C551.227 259.392 541.066 257.924 535.742 256.566Z" fill="#333333"/>
<path d="M517.655 224.437C517.655 224.437 501.493 216.314 500.316 220.595C498.802 226.101 498.856 229.9 498.856 229.9L517.655 231.008V224.437Z" fill="#333333"/>
<path d="M582.617 224.871C579.982 221.207 564.279 229.28 564.279 229.28V237.103L584.321 235.524C584.321 235.524 585.375 228.705 582.617 224.871Z" fill="#333333"/>
<path d="M535.938 246.554C531.38 245.392 522.792 242.213 518.421 239.688C514.463 237.404 505.785 231.209 502.618 227.317C500.669 224.923 497.886 218.676 504.141 215.064L524.815 203.128C530.823 198.859 540.481 198.028 546.037 202.249C550.366 205.537 558.981 212.969 563.304 215.465C567.31 217.778 575.429 219.772 579.357 221.486C584.477 223.719 584.088 230.126 577.833 233.738L557.159 245.674C550.905 249.286 541.083 247.866 535.938 246.554Z" fill="#3D3D3D"/>
<path d="M592.989 212.967V176.397C592.989 163.592 585.132 148.58 575.529 143.036L566.415 137.774C556.812 132.23 548.956 138.17 548.956 150.974V187.544L592.989 212.967Z" fill="#333333"/>
<path d="M554.817 137.001L547.356 141.434L554.03 145.867L554.817 137.001Z" fill="#E8A34C"/>
<path d="M585.721 217.284L592.989 212.967L584.391 204.503L585.721 217.284Z" fill="#333333"/>
<path d="M585.721 217.284V180.714C585.721 167.91 577.863 152.898 568.26 147.352L559.147 142.091C549.544 136.547 541.687 142.487 541.687 155.291V191.861L585.721 217.284Z" fill="#3D3D3D"/>
<path d="M532.118 332.016L567.814 311.39L455.871 246.972L420.058 267.434L532.118 332.016Z" fill="#333333"/>
<path d="M533.619 119.709C533.619 119.709 528.34 119.448 522.889 129.69C517.439 139.93 512.228 150.832 512.228 150.832C512.228 150.832 520.164 151.967 528.794 159.916C540.604 149.242 542.532 124.697 533.619 119.709Z" fill="#C8D2D2"/>
<path d="M533.619 119.709C533.619 119.709 530.648 125.401 527.922 135.848C525.197 146.294 526.174 194.868 526.174 194.868C526.174 194.868 537.43 202.827 556.274 201.267C567.478 200.341 573.194 193.402 573.194 193.402C573.194 193.402 579.893 145.835 578.985 139.021C578.076 132.208 563.819 116.202 563.819 116.202C563.819 116.202 544.97 115.243 533.619 119.709Z" fill="#9DACB7"/>
<path d="M546.516 113.068L544.326 125.826C544.326 125.826 550.824 133.117 557.183 127.667C563.541 122.216 564.45 119.709 564.45 119.709L561.32 102.315L546.516 113.068Z" fill="#EAAA96"/>
<path d="M555.489 83.1656C550.058 79.0299 537.197 77.703 532.503 90.9929C527.579 104.928 540.191 122.335 546.912 119.377C550.676 117.721 558.588 111.839 560.817 104.502C563.325 96.2432 559.707 86.3789 555.489 83.1656Z" fill="#EFC3B1"/>
<path d="M531.389 95.4183C533.628 97.7018 536.893 100.237 543.632 99.1274C549.145 98.2184 553.094 95.6453 553.094 95.6453C553.094 95.6453 557.317 98.4844 558.924 99.3544C560.74 100.338 560.816 104.502 560.816 104.502C560.816 104.502 564.397 99.9597 562.545 91.6326C561.391 86.4428 556.289 75.4324 546.516 76.3407C536.743 77.2496 531.059 83.7085 529.85 89.3C529.244 92.1008 530.378 94.3864 531.389 95.4183Z" fill="#87623F"/>
<path d="M547.06 148.586C547.06 148.586 555.349 136.113 561.906 132.616C568.465 129.119 573.45 128.332 573.45 128.332C573.45 128.332 570.547 123.533 568.946 122.963C566.169 123.38 563.437 124.145 557.535 127.205C551.633 130.266 545.168 137.689 542.589 142.243C537.396 151.414 543.255 153.878 547.06 148.586Z" fill="#BF2A40"/>
<path d="M532.909 119.789C532.909 119.789 528.354 130.57 527.704 136.761C527.054 142.951 528.291 144.857 530.781 145.075C533.271 145.293 533.408 140.877 534.146 135.948C534.842 131.293 538.765 118.137 538.765 118.137L532.909 119.789Z" fill="#BF2A40"/>
<path d="M471.821 288.365C467.834 292.253 466.598 293.372 462.899 296.983C460.737 299.092 462.517 301.031 466.636 300.873C470.257 300.733 478.455 298.97 483.041 297.322C486.3 296.152 492.272 292.849 495.324 290.921C498.376 288.989 498.971 286.311 498.971 286.311V279.824L479.355 280.658C479.355 280.658 476.13 284.164 471.821 288.365Z" fill="#87623F"/>
<path d="M510.651 305.61C506.664 309.498 505.429 310.617 501.728 314.228C499.567 316.337 501.347 318.276 505.466 318.117C509.087 317.978 517.285 316.216 521.871 314.568C525.13 313.398 531.102 310.096 534.154 308.166C537.205 306.235 537.8 303.555 537.8 303.555V292.111L518.185 297.902C518.185 297.902 514.959 301.41 510.651 305.61Z" fill="#87623F"/>
<path d="M574.398 190.9C574.398 190.9 538.765 201.47 518.963 193.998C512.066 198.159 493.078 209.324 486.996 213.62C483.248 216.267 481.565 221.981 480.106 234.845C477.696 256.093 475.929 280.353 475.929 280.353C475.929 280.353 480.167 286.286 489.776 286.249C497.149 286.221 502.665 283.928 502.665 283.928L504.16 235.031L536.247 216.494C536.247 216.494 518.048 227.76 515.435 237.76C513.336 245.795 512.633 251.953 512.314 261.98C511.628 283.578 511.402 297.713 511.402 297.713C511.402 297.713 512.824 304.874 522.433 304.838C529.806 304.809 535.886 298.81 535.886 298.81L537.83 249.312C537.83 249.312 562.89 232.271 570.15 223.918C578.281 214.561 574.398 190.9 574.398 190.9Z" fill="#BF2A40"/>
<path d="M574.277 185.489C574.277 185.489 566.06 191.199 560.072 190.543C554.82 189.968 547.258 184.859 547.661 168.247C548.063 151.633 549.603 143.983 549.603 143.983L529.527 135.184C529.527 135.184 524.074 147.803 522.997 172.558C521.921 197.312 521.466 205.845 521.466 205.845C521.466 205.845 542.889 207.156 555.567 205.845C568.246 204.534 575.253 201.262 575.253 201.262L574.277 185.489Z" fill="#BF2A40"/>
<path d="M531.74 139.733C531.74 140.752 531.171 141.577 530.47 141.577C529.768 141.577 529.199 140.752 529.199 139.733C529.199 138.715 529.768 137.889 530.47 137.889C531.172 137.889 531.74 138.715 531.74 139.733Z" fill="#F0CBA4"/>
<path d="M543.768 145.344C543.174 146.172 543.154 147.174 543.724 147.584C544.294 147.993 545.238 147.655 545.833 146.828C546.427 146.001 546.447 144.998 545.877 144.588C545.307 144.179 544.363 144.517 543.768 145.344Z" fill="#F0CBA4"/>
<path d="M527.802 147.758C526.982 151.911 527.396 164.979 534.8 166.946C541.514 168.73 543.251 160.814 544.799 154.693C536.105 152.726 527.802 147.758 527.802 147.758Z" fill="#A01731"/>
<path d="M554.388 163.701C554.388 163.701 550.633 173.075 547.44 177.598C545.365 180.538 533.014 188.888 528.188 192.715C531.073 194.488 532.323 197.123 534.104 200.008C540.539 197.932 552.707 190.531 554.62 189.175C559.482 185.731 568.689 172.326 568.689 172.326C568.689 172.326 564.45 161.568 554.388 163.701Z" fill="#EFC3B1"/>
<path d="M576.552 133.151C572.553 129.929 563.996 140.838 559.454 147.652C554.912 154.465 551.273 164.661 551.273 164.661C551.273 164.661 556.744 168.636 561.642 171.725C565.746 174.314 570.086 176.276 570.086 176.276C570.086 176.276 590.271 144.203 576.552 133.151Z" fill="#C8D2D2"/>
<path d="M557.184 83.9947C565.083 87.1274 566.809 93.3692 561.039 97.9369C555.269 102.505 544.189 103.668 536.29 100.535C528.391 97.4021 526.665 91.1596 532.435 86.5919C538.206 82.0242 549.286 80.862 557.184 83.9947Z" fill="#ECB52B"/>
<path d="M529.093 93.3893C529.093 93.3893 525.744 73.0957 543.306 70.5133C563.773 67.5035 564.429 91.5338 564.429 91.5338L529.093 93.3893Z" fill="#ECB52B"/>
<path d="M528.836 90.3929C528.836 90.3929 520.301 98.3755 530.649 102.842C548.193 110.414 562.545 96.4984 562.545 96.4984C562.545 96.4984 543.908 100.946 534.445 96.792C528.038 93.9798 528.836 90.3929 528.836 90.3929Z" fill="#E8A34C"/>
<path d="M545.956 71.7131C543.298 73.2657 542.097 75.1192 540.541 78.8989C538.985 82.6792 540.271 86.2916 544.038 88.4958C547.804 90.7 550.398 94.4615 550.398 94.4615C550.398 94.4615 550.947 90.1821 547.69 87.4585C544.433 84.735 541.389 83.3289 543.265 78.8989C545.572 73.4525 553.096 71.4377 553.096 71.4377C553.096 71.4377 550.527 69.0427 545.956 71.7131Z" fill="#E8A34C"/>
<path d="M543.304 70.514C543.304 70.514 538.271 72.4804 536.261 75.6574C535.298 77.1798 535.353 82.4011 534.445 83.6977C533.537 84.995 528.836 88.7558 528.836 88.7558C528.836 88.7558 527.418 87.433 529.181 85.0467C530.943 82.6604 533.083 82.4569 533.277 78.8996C533.408 76.5113 532.192 71.2059 543.304 70.514Z" fill="#E8A34C"/>
<path d="M573.656 95.5445L471.786 37.4263V42.305L573.656 101.367V95.5445Z" fill="#333333"/>
<path d="M512.18 236.971C509.907 236.971 507.473 236.257 505.02 234.841C495.77 229.498 488.524 215.732 488.524 203.499C488.524 196.764 490.84 191.566 494.881 189.233C498.336 187.239 502.646 187.528 507.018 190.056C516.268 195.393 523.514 209.16 523.514 221.393C523.514 228.124 521.198 233.326 517.16 235.66C515.641 236.534 513.96 236.971 512.18 236.971ZM499.877 191.913C498.787 191.913 497.78 192.175 496.877 192.694C494.107 194.294 492.52 198.231 492.52 203.499C492.52 214.257 499.024 226.763 507.018 231.383C510.146 233.186 512.965 233.475 515.16 232.199C517.931 230.599 519.519 226.662 519.519 221.394C519.519 210.636 513.016 198.13 505.02 193.514C503.176 192.452 501.442 191.913 499.877 191.913Z" fill="#333333"/>
<path d="M520.054 219.19L491.122 202.486V205.704L520.054 222.408V219.19Z" fill="#333333"/>
<path d="M506.618 233.498L504.559 232.382V192.584L506.618 193.772V233.498Z" fill="#333333"/>
<path d="M508.997 214.115C508.997 211.688 507.56 208.957 505.725 207.899C504.858 207.398 504.004 207.34 503.318 207.736C503.125 207.847 503.021 208.086 502.87 208.259C502.84 208.239 502.814 208.206 502.783 208.186C502.783 208.186 492.385 219.188 485.764 227.011C479.143 234.834 468.051 246.262 468.051 246.262L473.711 258.405C473.711 258.405 486.722 241.496 495.76 230.968C504.799 220.44 508.13 216.646 508.13 216.646C508.13 216.646 508.1 216.564 508.089 216.533C508.63 215.991 508.997 215.198 508.997 214.115Z" fill="#333333"/>
<path d="M530.568 190.9C528.906 192.155 524.996 193.654 524.49 193.748C521.481 194.304 519.57 194.448 516.649 193.128C513.727 191.809 512.154 192.796 511.225 193.097C511.786 193.709 512.968 194.821 512.968 194.821C512.968 194.821 507.484 195.16 506.289 199.16C505.686 201.177 506.092 201.352 507.544 201.9C507.723 202.848 507.619 204.093 509.61 204.309C510.06 204.863 511.652 207.338 512.911 207.482C518.585 208.128 523.869 204.334 526.468 203.352C528.015 202.768 532.208 201.471 537.1 198.854C536.378 195.656 532.951 193.234 530.568 190.9Z" fill="#EFC3B1"/>
<path d="M513.274 150.818C508.435 157.73 502.47 165.078 497.628 176.231C496.471 178.896 493.14 186.687 493.564 190.496C493.988 194.306 495.958 197.14 497.7 198.097C499.443 199.055 499.962 197.282 499.962 197.282C499.962 197.282 502.13 196.931 503.141 197.085C504.153 197.241 506.287 194.323 506.287 194.323C506.287 194.323 503.225 193.372 503.66 191.514C503.804 190.899 505.346 189.342 505.346 189.342L509.077 191.341C509.077 191.341 506.384 187.074 505.766 185.802C505.149 184.53 505.002 184.425 504.889 183.405C504.63 181.071 516.292 167.872 517.598 166.287C521.662 161.359 524.18 155.912 524.18 155.912C524.18 155.912 522.191 154.419 520.019 153.232C517.521 151.866 514.71 150.779 513.274 150.818Z" fill="#EFC3B1"/>
<path d="M505.589 271.489L495.001 277.595L452.419 252.939L462.945 246.836L505.589 271.489Z" fill="#6F6F6F"/>
<path d="M452.419 252.939V287.254L495.024 311.838V277.543L452.419 252.939Z" fill="#444444"/>
<path d="M505.588 271.489L495.023 277.59V310.593L505.588 304.497V271.489Z" fill="#4A4A4A"/>
<path d="M447.118 131.667L430.067 141.506V342.096L447.118 332.26V131.667Z" fill="#5B5B5B"/>
<path d="M422.062 136.887V331.615L430.068 336.234V141.506L422.062 136.887Z" fill="#444444"/>
<path d="M447.119 131.668L439.308 127.042L422.062 136.887L430.068 141.506L447.119 131.668Z" fill="#6F6F6F"/>
<path d="M465.939 163.876L437.007 147.172V153.696L465.939 170.4V163.876Z" fill="#ECB52B"/>
<path d="M480.198 166.443L441.925 144.367L437.007 147.24L480.198 172.175V166.443Z" fill="#F5DE62"/>
<path d="M465.939 186.65L437.007 169.945V176.47L465.939 193.174V186.65Z" fill="#ECB52B"/>
<path d="M480.198 189.216L441.925 167.14L437.007 170.013L480.198 194.949V189.216Z" fill="#F5DE62"/>
<path d="M484.314 153.868L467.264 163.707V358.434L484.314 348.599V153.868Z" fill="#5B5B5B"/>
<path d="M459.257 159.088V353.816L467.263 358.434V163.707L459.257 159.088Z" fill="#444444"/>
<path d="M484.314 153.868L476.504 149.243L459.257 159.088L467.263 163.707L484.314 153.868Z" fill="#6F6F6F"/>
<path d="M513.094 344.675C513.094 358.268 504.829 374.058 494.635 379.945C484.44 385.83 476.176 379.583 476.176 365.99C476.176 352.397 484.44 336.606 494.635 330.721C504.829 324.835 513.094 331.083 513.094 344.675Z" fill="#333333"/>
<path d="M496.54 388.697L483.172 381.178L507.025 329.944L519.814 337.094L496.54 388.697Z" fill="#333333"/>
<path d="M526.966 352.404C526.966 365.996 518.701 381.787 508.507 387.672C498.312 393.558 490.048 387.311 490.048 373.718C490.048 360.125 498.313 344.335 508.507 338.449C518.701 332.563 526.966 338.811 526.966 352.404Z" fill="#4A4A4A"/>
<path d="M522.95 355.156C522.95 365.792 516.484 378.148 508.506 382.753C500.529 387.359 494.063 382.47 494.063 371.834C494.063 361.199 500.529 348.843 508.506 344.237C516.484 339.633 522.95 344.521 522.95 355.156Z" fill="#999999"/>
<path d="M519.404 357.203C519.404 365.228 514.525 374.551 508.506 378.026C502.488 381.501 497.609 377.813 497.609 369.787C497.609 361.762 502.488 352.44 508.506 348.964C514.525 345.49 519.404 349.179 519.404 357.203Z" fill="#333333"/>
<path d="M512.657 361.099C512.657 364.156 510.799 367.707 508.507 369.03C506.214 370.354 504.355 368.949 504.355 365.893C504.355 362.837 506.214 359.285 508.507 357.961C510.799 356.638 512.657 358.042 512.657 361.099Z" fill="#999999"/>
<path d="M626.49 252.061L621.272 249.137V80.1606L631.709 70.3943L626.49 252.061Z" fill="#333333"/>
<path d="M636.928 251.704L626.49 257.729V80.1606L636.928 70.3943V251.704Z" fill="#5B5B5B"/>
<path d="M631.389 61.4766L573.953 94.2862C556.272 104.494 541.069 129.97 537.683 155.064L526.56 328.911L537.216 322.607L547.01 158.615C549.972 136.659 563.275 114.368 578.745 105.436L631.389 75.3927V61.4766H631.389Z" fill="#444444"/>
<path d="M636.927 65.6614L631.389 61.4766L624.063 65.6614L631.032 71.8354L636.927 65.6614Z" fill="#444444"/>
<path d="M530.705 333.607L526.56 328.911L532.118 319.621L538.044 327.189L530.705 333.607Z" fill="#444444"/>
<path d="M636.928 65.6614L579.493 98.4709C561.811 108.679 546.608 134.155 543.222 159.249L532.119 331.948L532.099 334.167L542.755 326.793L552.549 162.799C555.511 140.844 568.814 118.553 584.284 109.621L636.928 79.5774V65.6614H636.928Z" fill="#5B5B5B"/>
<path d="M418.581 240.598L413.603 243.473V333.068L418.581 331.095V240.598Z" fill="#E8A34C"/>
<path d="M481.493 318.016L476.514 320.89L413.632 284.607L418.551 281.733L481.493 318.016Z" fill="#F5DE62"/>
<path d="M481.493 355.803L476.514 358.678L413.632 322.394L418.551 319.521L481.493 355.803Z" fill="#6F6F6F"/>
<path d="M476.513 279.336L407.835 239.686V246.21L476.513 285.861V279.336Z" fill="#ECB52B"/>
<path d="M481.493 297.184L476.514 300.059L413.632 263.775L418.551 260.902L481.493 297.184Z" fill="#F5DE62"/>
<path d="M481.493 276.462L476.514 279.336V369.834L481.493 366.96V276.462Z" fill="#E8A34C"/>
<path d="M481.493 276.462L476.514 279.336L407.835 239.686L412.754 236.813L481.493 276.462Z" fill="#F5DE62"/>
<path d="M476.513 300.059L407.835 260.407V266.932L476.513 306.583V300.059Z" fill="#ECB52B"/>
<path d="M476.513 320.89L407.835 281.24V287.764L476.513 327.415V320.89Z" fill="#ECB52B"/>
<path d="M413.602 333.068L407.835 329.944V240.753L413.602 244.083V333.068Z" fill="#ECB52B"/>
<path d="M476.515 369.834L470.747 366.504V276.772L476.515 280.102V369.834Z" fill="#ECB52B"/>
<path d="M476.513 358.419L407.835 319.071V328.911L476.513 368.26V358.419Z" fill="#444444"/>
<path d="M481.493 371.16L346.292 448.999L329.33 439.205L464.529 361.366L481.493 371.16Z" fill="#6F6F6F"/>
<path d="M346.293 448.999V445.097L481.494 367.302V371.16L346.293 448.999Z" fill="#444444"/>
<path d="M329.33 435.303V439.205L346.292 448.999V445.097L329.33 435.303Z" fill="#333333"/>
<path d="M481.493 367.256L346.292 445.097L329.33 435.303L464.529 357.463L481.493 367.256Z" fill="#6F6F6F"/>
<path d="M424.953 338.244L289.753 416.083L272.79 406.29L407.99 328.449L424.953 338.244Z" fill="#6F6F6F"/>
<path d="M289.753 416.084V412.181L424.953 334.386V338.244L289.753 416.084Z" fill="#444444"/>
<path d="M272.79 402.387V406.29L289.753 416.083V412.181L272.79 402.387Z" fill="#333333"/>
<path d="M424.953 334.341L289.753 412.181L272.79 402.387L407.99 324.547L424.953 334.341Z" fill="#6F6F6F"/>
<path d="M579.783 94.1445L473.461 32.8459L468.543 35.7186L574.924 97.0764L579.783 94.1445Z" fill="#444444"/>
<path d="M608.436 77.47L502.114 16.1707L497.195 19.044L603.576 80.4018L608.436 77.47Z" fill="#444444"/>
<path d="M627.559 64.5718L525.69 6.45416V11.3316L627.559 70.3944V64.5718Z" fill="#333333"/>
<path d="M633.686 63.1717L524.201 0L519.301 2.93248L628.827 66.1035L633.686 63.1717Z" fill="#444444"/>
<path d="M488.6 37.0097C488.6 40.8203 482.667 43.9086 475.349 43.9086C468.03 43.9086 462.098 40.8196 462.098 37.0097C462.098 33.1992 468.03 30.1108 475.349 30.1108C482.667 30.1102 488.6 33.1992 488.6 37.0097Z" fill="#333333"/>
<path d="M488.6 34.7034H462.097V37.0098H488.6V34.7034Z" fill="#333333"/>
<path d="M488.6 34.7034C488.6 38.5139 482.667 41.6023 475.349 41.6023C468.03 41.6023 462.098 38.5133 462.098 34.7034C462.098 30.8928 468.03 27.8045 475.349 27.8045C482.667 27.8038 488.6 30.8928 488.6 34.7034Z" fill="#6F6F6F"/>
<path d="M486.182 34.1351C486.182 37.2503 481.332 39.775 475.349 39.775C469.365 39.775 464.516 37.2496 464.516 34.1351C464.516 31.0205 469.365 28.4958 475.349 28.4958C481.332 28.4958 486.182 31.0205 486.182 34.1351Z" fill="#B44269"/>
<path d="M466.325 10.36L464.516 34.135H486.182L484.374 10.36H466.325Z" fill="#B44269"/>
<path d="M484.373 10.3601C484.373 12.9546 480.332 15.0581 475.348 15.0581C470.364 15.0581 466.324 12.9546 466.324 10.3601C466.324 7.76484 470.364 5.66138 475.348 5.66138C480.332 5.66138 484.373 7.76484 484.373 10.3601Z" fill="#DF6187"/>
<path d="M481.482 10.4226C481.482 12.1868 478.736 13.6164 475.348 13.6164C471.96 13.6164 469.214 12.1868 469.214 10.4226C469.214 8.65906 471.961 7.22943 475.348 7.22943C478.737 7.22943 481.482 8.65906 481.482 10.4226Z" fill="#B44269"/>
<path d="M474.165 387.735L374.388 445.391L377.498 447.345L477.568 389.555L474.165 387.735Z" fill="#CAAE68"/>
<path d="M477.568 389.546L377.498 447.33V461.569L477.568 403.785V389.546Z" fill="#72522F"/>
<path d="M374.388 459.784V445.391L377.498 447.33V461.569L374.388 459.784Z" fill="#9F7D4A"/>
<path d="M362.777 323.128L263 380.784L266.111 382.739L366.181 324.948L362.777 323.128Z" fill="#CAAE68"/>
<path d="M366.181 324.94L266.11 382.723V396.963L366.181 339.179V324.94Z" fill="#72522F"/>
<path d="M263 395.176V380.783L266.111 382.724V396.963L263 395.176Z" fill="#9F7D4A"/>
<path d="M416.857 353.839L317.08 411.495L320.19 413.449L420.261 355.659L416.857 353.839Z" fill="#CAAE68"/>
<path d="M420.261 355.651L320.19 413.435V427.673L420.261 369.889V355.651Z" fill="#72522F"/>
<path d="M317.08 425.888V411.495L320.191 413.435V427.673L317.08 425.888Z" fill="#9F7D4A"/>
<path d="M377.498 442.976L263 376.869V381.474L377.498 447.582V442.976Z" fill="#9F7D4A"/>
<path d="M389.501 436.266L377.498 442.976L263 376.869L274.942 370.159L389.501 436.266Z" fill="#CAAE68"/>
<path d="M389.5 436.266L377.498 442.976V451.557L389.5 444.571V436.266Z" fill="#72522F"/>
<path d="M399.828 429.817L285.005 363.428V368.033L399.828 434.422V429.817Z" fill="#9F7D4A"/>
<path d="M411.831 423.107L399.828 429.818L285.005 363.429L296.948 356.719L411.831 423.107Z" fill="#CAAE68"/>
<path d="M411.832 423.107L399.829 429.817V438.398L411.832 431.411V423.107Z" fill="#72522F"/>
<path d="M422.693 416.862L307.604 350.333V354.937L422.693 421.467V416.862Z" fill="#9F7D4A"/>
<path d="M434.695 410.151L422.693 416.862L307.604 350.333L319.546 343.623L434.695 410.151Z" fill="#CAAE68"/>
<path d="M434.696 410.151L422.693 416.862V425.443L434.696 418.456V410.151Z" fill="#72522F"/>
<path d="M445.023 403.703L330.2 337.595V342.2L445.023 408.308V403.703Z" fill="#9F7D4A"/>
<path d="M457.025 396.992L445.023 403.703L330.2 337.595L342.142 330.886L457.025 396.992Z" fill="#CAAE68"/>
<path d="M457.025 396.992L445.023 403.703V412.284L457.025 405.297V396.992Z" fill="#72522F"/>
<path d="M465.566 392.164L350.469 325.766V330.371L465.566 396.769V392.164Z" fill="#9F7D4A"/>
<path d="M477.568 385.453L465.566 392.164L350.469 325.766L362.411 319.057L477.568 385.453Z" fill="#CAAE68"/>
<path d="M477.569 385.453L465.566 392.164V400.744L477.569 393.758V385.453Z" fill="#72522F"/>
<path d="M369.58 377.854L369.562 315.469L419.41 286.652V348.967L369.58 377.854Z" fill="#AE835B"/>
<path d="M369.58 377.854L369.562 315.469L319.715 286.652V348.967L369.58 377.854Z" fill="#C99A6B"/>
<path d="M319.715 286.652L369.562 315.469L419.41 286.652L369.58 257.842L319.715 286.652Z" fill="#E8B687"/>
<path d="M400.878 315.51L389.761 321.963V303.756L400.878 297.298V315.51Z" fill="#87623F"/>
<path d="M400.878 297.298L351.1 268.52L339.96 274.956L389.761 303.779L400.878 297.298Z" fill="#F0CBA4"/>
<path d="M376.166 368.928V365.721L392.9 356.016V359.269L376.166 368.928Z" fill="#87623F"/>
<path d="M376.166 363.193V359.985L392.9 350.281V353.534L376.166 363.193Z" fill="#87623F"/>
<path d="M407.924 339.832V350.96L415.928 346.325V335.195L407.924 339.832Z" fill="#87623F"/>
<path d="M330.681 338.669V350.264L322.678 345.639V334.045L330.681 338.669Z" fill="#87623F"/>
<path d="M341.603 345.002V356.598L333.599 351.973V340.378L341.603 345.002Z" fill="#87623F"/>
<path d="M339.126 304.776V321.44L322.678 311.935V295.252L339.126 304.776Z" fill="#F0CBA4"/>
<path d="M337.111 308.183V305.471L324.17 298.009V300.677L337.111 308.183Z" fill="#87623F"/>
<path d="M424.078 409.012L424.061 346.626L473.907 317.809V380.124L424.078 409.012Z" fill="#AE835B"/>
<path d="M424.077 409.012L424.06 346.626L374.212 317.809V380.124L424.077 409.012Z" fill="#C99A6B"/>
<path d="M374.212 317.809L424.06 346.626L473.907 317.809L424.077 288.999L374.212 317.809Z" fill="#E8B687"/>
<path d="M455.375 346.667L444.259 353.12V334.914L455.375 328.456V346.667Z" fill="#87623F"/>
<path d="M455.375 328.456L405.598 299.677L394.458 306.114L444.259 334.936L455.375 328.456Z" fill="#F0CBA4"/>
<path d="M430.663 400.086V396.878L447.397 387.173V390.427L430.663 400.086Z" fill="#87623F"/>
<path d="M430.663 394.35V391.144L447.397 381.438V384.691L430.663 394.35Z" fill="#87623F"/>
<path d="M462.422 370.99V382.117L470.426 377.483V366.353L462.422 370.99Z" fill="#87623F"/>
<path d="M385.179 369.826V381.422L377.175 376.797V365.203L385.179 369.826Z" fill="#87623F"/>
<path d="M396.1 376.159V387.756L388.096 383.13V371.536L396.1 376.159Z" fill="#87623F"/>
<path d="M393.623 335.934V352.597L377.175 343.092V326.409L393.623 335.934Z" fill="#F0CBA4"/>
<path d="M391.609 339.341V336.628L378.667 329.167V331.835L391.609 339.341Z" fill="#87623F"/>
<path d="M318.256 408.796L318.239 346.41L368.086 317.593V379.908L318.256 408.796Z" fill="#AE835B"/>
<path d="M318.256 408.796L318.239 346.41L268.391 317.593V379.908L318.256 408.796Z" fill="#C99A6B"/>
<path d="M268.391 317.593L318.239 346.41L368.085 317.593L318.256 288.783L268.391 317.593Z" fill="#E8B687"/>
<path d="M349.554 346.451L338.438 352.904V334.698L349.554 328.239V346.451Z" fill="#87623F"/>
<path d="M349.554 328.239L299.777 299.461L288.637 305.897L338.438 334.72L349.554 328.239Z" fill="#F0CBA4"/>
<path d="M324.842 399.869V396.662L341.576 386.958V390.21L324.842 399.869Z" fill="#87623F"/>
<path d="M324.842 394.134V390.927L341.576 381.222V384.476L324.842 394.134Z" fill="#87623F"/>
<path d="M356.601 370.774V381.901L364.604 377.266V366.136L356.601 370.774Z" fill="#87623F"/>
<path d="M279.357 369.61V381.206L271.354 376.581V364.987L279.357 369.61Z" fill="#87623F"/>
<path d="M290.278 375.944V387.539L282.275 382.915V371.32L290.278 375.944Z" fill="#87623F"/>
<path d="M287.802 335.718V352.381L271.354 342.876V326.193L287.802 335.718Z" fill="#F0CBA4"/>
<path d="M285.789 339.125V336.412L272.848 328.95V331.619L285.789 339.125Z" fill="#87623F"/>
<path d="M372.753 439.953L372.736 377.567L422.583 348.75V411.066L372.753 439.953Z" fill="#AE835B"/>
<path d="M372.753 439.953L372.736 377.567L322.889 348.75V411.066L372.753 439.953Z" fill="#C99A6B"/>
<path d="M322.889 348.751L372.736 377.567L422.583 348.751L372.753 319.94L322.889 348.751Z" fill="#E8B687"/>
<path d="M404.051 377.608L392.936 384.061V365.856L404.051 359.397V377.608Z" fill="#87623F"/>
<path d="M404.052 359.397L354.275 330.618L343.135 337.056L392.936 365.878L404.052 359.397Z" fill="#F0CBA4"/>
<path d="M379.34 431.027V427.82L396.075 418.115V421.368L379.34 431.027Z" fill="#87623F"/>
<path d="M379.34 425.292V422.086L396.075 412.38V415.633L379.34 425.292Z" fill="#87623F"/>
<path d="M411.099 401.932V413.059L419.103 408.425V397.294L411.099 401.932Z" fill="#87623F"/>
<path d="M333.855 400.767V412.364L325.852 407.739V396.145L333.855 400.767Z" fill="#87623F"/>
<path d="M344.776 407.101V418.697L336.772 414.072V402.478L344.776 407.101Z" fill="#87623F"/>
<path d="M342.3 366.875V383.539L325.852 374.034V357.35L342.3 366.875Z" fill="#F0CBA4"/>
<path d="M340.286 370.282V367.57L327.345 360.108V362.776L340.286 370.282Z" fill="#87623F"/>
<path d="M369.58 312.237L369.562 249.851L419.41 221.034V283.349L369.58 312.237Z" fill="#AE835B"/>
<path d="M369.58 312.237L369.562 249.851L319.715 221.034V283.349L369.58 312.237Z" fill="#C99A6B"/>
<path d="M319.715 221.034L369.562 249.851L419.41 221.034L369.58 192.224L319.715 221.034Z" fill="#E8B687"/>
<path d="M400.878 249.892L389.761 256.345V238.139L400.878 231.68V249.892Z" fill="#87623F"/>
<path d="M400.878 231.68L351.1 202.902L339.96 209.339L389.761 238.161L400.878 231.68Z" fill="#F0CBA4"/>
<path d="M376.166 303.31V300.103L392.9 290.398V293.651L376.166 303.31Z" fill="#87623F"/>
<path d="M376.166 297.575V294.368L392.9 284.663V287.916L376.166 297.575Z" fill="#87623F"/>
<path d="M407.924 274.214V285.342L415.928 280.708V269.578L407.924 274.214Z" fill="#87623F"/>
<path d="M330.681 273.05V284.646L322.678 280.021V268.427L330.681 273.05Z" fill="#87623F"/>
<path d="M341.603 279.384V290.98L333.599 286.355V274.761L341.603 279.384Z" fill="#87623F"/>
<path d="M339.126 239.158V255.821L322.678 246.317V229.634L339.126 239.158Z" fill="#F0CBA4"/>
<path d="M337.111 242.566V239.853L324.17 232.392V235.06L337.111 242.566Z" fill="#87623F"/>
<path d="M424.078 343.394L424.061 281.009L473.907 252.192V314.507L424.078 343.394Z" fill="#AE835B"/>
<path d="M424.077 343.394L424.06 281.009L374.212 252.192V314.507L424.077 343.394Z" fill="#C99A6B"/>
<path d="M374.212 252.192L424.06 281.009L473.907 252.192L424.077 223.381L374.212 252.192Z" fill="#E8B687"/>
<path d="M455.375 281.05L444.259 287.502V269.296L455.375 262.838V281.05Z" fill="#87623F"/>
<path d="M455.375 262.838L405.598 234.059L394.458 240.496L444.259 269.318L455.375 262.838Z" fill="#F0CBA4"/>
<path d="M430.663 334.468V331.261L447.397 321.555V324.809L430.663 334.468Z" fill="#87623F"/>
<path d="M430.663 328.732V325.526L447.397 315.821V319.074L430.663 328.732Z" fill="#87623F"/>
<path d="M462.422 305.372V316.499L470.426 311.865V300.735L462.422 305.372Z" fill="#87623F"/>
<path d="M385.179 304.208V315.804L377.175 311.179V299.585L385.179 304.208Z" fill="#87623F"/>
<path d="M396.1 310.542V322.138L388.096 317.512V305.918L396.1 310.542Z" fill="#87623F"/>
<path d="M393.623 270.316V286.98L377.175 277.475V260.792L393.623 270.316Z" fill="#F0CBA4"/>
<path d="M391.609 273.723V271.011L378.667 263.549V266.217L391.609 273.723Z" fill="#87623F"/>
<path d="M318.256 343.178L318.239 280.792L368.086 251.975V314.29L318.256 343.178Z" fill="#AE835B"/>
<path d="M318.256 343.178L318.239 280.792L268.391 251.975V314.29L318.256 343.178Z" fill="#C99A6B"/>
<path d="M268.391 251.975L318.239 280.792L368.085 251.975L318.256 223.165L268.391 251.975Z" fill="#E8B687"/>
<path d="M349.554 280.833L338.438 287.286V269.08L349.554 262.622V280.833Z" fill="#87623F"/>
<path d="M349.554 262.622L299.777 233.843L288.637 240.28L338.438 269.103L349.554 262.622Z" fill="#F0CBA4"/>
<path d="M324.842 334.252V331.044L341.576 321.34V324.593L324.842 334.252Z" fill="#87623F"/>
<path d="M324.842 328.517V325.31L341.576 315.604V318.858L324.842 328.517Z" fill="#87623F"/>
<path d="M356.601 305.156V316.284L364.604 311.649V300.519L356.601 305.156Z" fill="#87623F"/>
<path d="M279.357 303.992V315.588L271.354 310.964V299.369L279.357 303.992Z" fill="#87623F"/>
<path d="M290.278 310.326V321.922L282.275 317.297V305.703L290.278 310.326Z" fill="#87623F"/>
<path d="M287.802 270.1V286.763L271.354 277.258V260.575L287.802 270.1Z" fill="#F0CBA4"/>
<path d="M285.789 273.507V270.794L272.848 263.332V266.001L285.789 273.507Z" fill="#87623F"/>
<path d="M372.753 374.335L372.736 311.95L422.583 283.134V345.449L372.753 374.335Z" fill="#AE835B"/>
<path d="M372.753 374.335L372.736 311.95L322.889 283.134V345.449L372.753 374.335Z" fill="#C99A6B"/>
<path d="M322.889 283.134L372.736 311.95L422.583 283.134L372.753 254.323L322.889 283.134Z" fill="#E8B687"/>
<path d="M404.051 311.991L392.936 318.444V300.238L404.051 293.779V311.991Z" fill="#87623F"/>
<path d="M404.052 293.779L354.275 265L343.135 271.437L392.936 300.26L404.052 293.779Z" fill="#F0CBA4"/>
<path d="M379.34 365.409V362.202L396.075 352.497V355.75L379.34 365.409Z" fill="#87623F"/>
<path d="M379.34 359.675V356.468L396.075 346.762V350.016L379.34 359.675Z" fill="#87623F"/>
<path d="M411.099 336.314V347.441L419.103 342.807V331.676L411.099 336.314Z" fill="#87623F"/>
<path d="M333.855 335.15V346.745L325.852 342.121V330.527L333.855 335.15Z" fill="#87623F"/>
<path d="M344.776 341.484V353.079L336.772 348.454V336.86L344.776 341.484Z" fill="#87623F"/>
<path d="M342.3 301.258V317.921L325.852 308.416V291.733L342.3 301.258Z" fill="#F0CBA4"/>
<path d="M340.286 304.665V301.952L327.345 294.491V297.158L340.286 304.665Z" fill="#87623F"/>
<g clip-path="url(#clip0)">
<path d="M31.6313 162.281L166.418 242L294.011 167.357L159.214 87.3808L31.6313 162.281Z" fill="#D2D2D2"/>
<path d="M265.094 152.339L152.591 217.32L156.104 219.523L268.931 154.386L265.094 152.339Z" fill="#CAAE68"/>
<path d="M268.931 154.375L156.104 219.501V235.559L268.931 170.421V154.375Z" fill="#72522F"/>
<path d="M152.591 233.546V217.32L156.104 219.501V235.559L152.591 233.546Z" fill="#9F7D4A"/>
<path d="M139.503 79.5196L27 144.501L30.5014 146.703L143.34 81.566L139.503 79.5196Z" fill="#CAAE68"/>
<path d="M143.34 81.5548L30.5015 146.681V162.739L143.34 97.6016V81.5548Z" fill="#72522F"/>
<path d="M27 160.726V144.501L30.5014 146.692V162.739L27 160.726Z" fill="#9F7D4A"/>
<path d="M200.48 114.129L87.9775 179.121L91.4789 181.324L204.317 116.187L200.48 114.129Z" fill="#CAAE68"/>
<path d="M204.317 116.176L91.479 181.302V197.349L204.317 132.222V116.176Z" fill="#72522F"/>
<path d="M87.9775 195.336V179.121L91.4789 181.302V197.349L87.9775 195.336Z" fill="#9F7D4A"/>
<path d="M156.104 214.603L27 140.083V145.272L156.104 219.792V214.603Z" fill="#9F7D4A"/>
<path d="M169.628 207.033L156.104 214.603L27 140.083L40.4686 132.524L169.628 207.033Z" fill="#CAAE68"/>
<path d="M169.628 207.033L156.104 214.603V224.265L169.628 216.392V207.033Z" fill="#72522F"/>
<path d="M181.273 199.764L51.8115 124.943V130.131L181.273 204.953V199.764Z" fill="#9F7D4A"/>
<path d="M194.809 192.205L181.273 199.764L51.8115 124.943L65.2801 117.383L194.809 192.205Z" fill="#CAAE68"/>
<path d="M194.809 192.205L181.273 199.764V209.437L194.809 201.564V192.205Z" fill="#72522F"/>
<path d="M207.058 185.171L77.2944 110.182V115.37L207.058 190.36V185.171Z" fill="#9F7D4A"/>
<path d="M220.594 177.6L207.058 185.171L77.2944 110.182L90.7518 102.622L220.594 177.6Z" fill="#CAAE68"/>
<path d="M220.594 177.6L207.058 185.171V194.833L220.594 186.96V177.6Z" fill="#72522F"/>
<path d="M232.239 170.332L102.766 95.8235V101.012L232.239 175.521V170.332Z" fill="#9F7D4A"/>
<path d="M245.763 162.773L232.239 170.332L102.766 95.8235L116.235 88.2642L245.763 162.773Z" fill="#CAAE68"/>
<path d="M245.764 162.773L232.239 170.332V180.005L245.764 172.132V162.773Z" fill="#72522F"/>
<path d="M255.395 157.327L125.621 82.4941V87.6827L255.395 162.515V157.327Z" fill="#9F7D4A"/>
<path d="M268.931 149.767L255.395 157.327L125.621 82.4941L139.089 74.9236L268.931 149.767Z" fill="#CAAE68"/>
<path d="M268.931 149.767L255.396 157.327V167L268.931 159.127V149.767Z" fill="#72522F"/>
<path d="M98.4931 171.707L98.5043 131.518L40.189 97.814V137.914L98.4931 171.707Z" fill="#C99A6B"/>
<path d="M98.4932 171.707L98.5043 131.518L182.459 83.0309V123.142L98.4932 171.707Z" fill="#AE835B"/>
<path d="M182.459 83.0309L98.5043 131.518L40.189 97.814L124.155 49.3383L182.459 83.0309Z" fill="#E8B687"/>
<path d="M61.8682 131.563L74.8781 139.111V117.819L61.8682 110.26V131.563Z" fill="#9C754E"/>
<g style="mix-blend-mode:screen">
<path d="M61.8682 110.26L145.767 61.829L158.799 69.3547L74.8781 117.842L61.8682 110.26Z" fill="#54493E"/>
</g>
<path d="M94.1414 165.054V161.308L74.5649 149.946V153.76L94.1414 165.054Z" fill="#9C754E"/>
<path d="M94.1414 158.344V154.598L74.5649 143.248V147.05L94.1414 158.344Z" fill="#9C754E"/>
<path d="M170.668 111.714V125.278L180.043 119.866V106.301L170.668 111.714Z" fill="#9C754E"/>
<path d="M157.894 119.116V132.681L167.257 127.268V113.715L157.894 119.116Z" fill="#9C754E"/>
<path d="M144.951 126.553V140.117L154.314 134.705V121.141L144.951 126.553Z" fill="#9C754E"/>
<g style="mix-blend-mode:screen">
<path d="M101.043 133.184V152.675L120.284 141.56V122.046L101.043 133.184Z" fill="#54493E"/>
</g>
<path d="M103.404 137.165V134L118.539 125.267V128.387L103.404 137.165Z" fill="#9C754E"/>
<path d="M162.525 209.258L162.547 169.068L104.221 135.353V175.465L162.525 209.258Z" fill="#C99A6B"/>
<path d="M162.525 209.258L162.547 169.068L246.491 120.581V160.682L162.525 209.258Z" fill="#AE835B"/>
<path d="M246.491 120.581L162.547 169.057L104.221 135.353L188.187 86.8888L246.491 120.581Z" fill="#E8B687"/>
<path d="M125.9 169.113L138.91 176.661V155.359L125.9 147.811V169.113Z" fill="#9C754E"/>
<g style="mix-blend-mode:screen">
<path d="M125.9 147.811L209.799 99.3683L222.831 106.905L138.91 155.392L125.9 147.811Z" fill="#54493E"/>
</g>
<path d="M158.173 202.604V198.847L138.597 187.497V191.299L158.173 202.604Z" fill="#9C754E"/>
<path d="M158.173 195.895V192.138L138.597 180.787V184.59L158.173 195.895Z" fill="#9C754E"/>
<path d="M234.711 149.253V162.817L244.075 157.416V143.852L234.711 149.253Z" fill="#9C754E"/>
<path d="M221.925 156.667V170.231L231.288 164.819V151.255L221.925 156.667Z" fill="#9C754E"/>
<path d="M208.982 164.103V177.668L218.346 172.255V158.691L208.982 164.103Z" fill="#9C754E"/>
<g style="mix-blend-mode:screen">
<path d="M165.075 170.735V190.225L184.327 179.099V159.586L165.075 170.735Z" fill="#54493E"/>
</g>
<path d="M167.436 174.715V171.54L182.571 162.817V165.937L167.436 174.715Z" fill="#9C754E"/>
<path d="M98.4931 127.369L98.5043 87.1796L40.189 53.4758V93.5759L98.4931 127.369Z" fill="#C99A6B"/>
<path d="M98.4932 127.369L98.5043 87.1796L182.459 38.6926V78.8039L98.4932 127.369Z" fill="#AE835B"/>
<path d="M182.459 38.6926L98.5043 87.1795L40.189 53.4646L124.155 5L182.459 38.6926Z" fill="#E8B687"/>
<path d="M61.8682 87.2242L74.8781 94.7724V73.4699L61.8682 65.9218V87.2242Z" fill="#9C754E"/>
<g style="mix-blend-mode:screen">
<path d="M61.8682 65.9217L145.767 17.4796L158.799 25.0165L74.8781 73.5034L61.8682 65.9217Z" fill="#54493E"/>
</g>
<path d="M94.1414 120.716V116.958L74.5649 105.608V109.421L94.1414 120.716Z" fill="#9C754E"/>
<path d="M94.1414 114.006V110.26L74.5649 98.8987V102.712L94.1414 114.006Z" fill="#9C754E"/>
<path d="M170.668 67.3755V80.9398L180.043 75.5275V61.9632L170.668 67.3755Z" fill="#9C754E"/>
<path d="M157.894 74.7782V88.3425L167.257 82.9302V69.3771L157.894 74.7782Z" fill="#9C754E"/>
<path d="M144.951 82.2145V95.7788L154.314 90.3665V76.8134L144.951 82.2145Z" fill="#9C754E"/>
<g style="mix-blend-mode:screen">
<path d="M101.043 88.8457V108.337L120.284 97.2213V77.708L101.043 88.8457Z" fill="#54493E"/>
</g>
<path d="M103.404 92.8267V89.6509L118.539 80.9286V84.0485L103.404 92.8267Z" fill="#9C754E"/>
<path d="M162.525 164.92L162.547 124.719L104.221 91.0151V131.126L162.525 164.92Z" fill="#C99A6B"/>
<path d="M162.525 164.92L162.547 124.719L246.491 76.2319V116.343L162.525 164.92Z" fill="#AE835B"/>
<path d="M246.491 76.232L162.547 124.719L104.221 91.0151L188.187 42.5505L246.491 76.232Z" fill="#E8B687"/>
<path d="M125.9 124.775L138.91 132.323V111.02L125.9 103.472V124.775Z" fill="#9C754E"/>
<g style="mix-blend-mode:screen">
<path d="M125.9 103.472L209.799 55.0301L222.831 62.567L138.91 111.043L125.9 103.472Z" fill="#54493E"/>
</g>
<path d="M158.173 158.255V154.509L138.597 143.159V146.961L158.173 158.255Z" fill="#9C754E"/>
<path d="M158.173 151.557V147.799L138.597 136.449V140.251L158.173 151.557Z" fill="#9C754E"/>
<path d="M234.711 104.915V118.479L244.075 113.078V99.5137L234.711 104.915Z" fill="#9C754E"/>
<path d="M221.925 112.329V125.893L231.288 120.481V106.917L221.925 112.329Z" fill="#9C754E"/>
<path d="M208.982 119.765V133.329L218.346 127.917V114.353L208.982 119.765Z" fill="#9C754E"/>
<g style="mix-blend-mode:screen">
<path d="M165.075 126.396V145.876L184.327 134.761V115.247L165.075 126.396Z" fill="#54493E"/>
</g>
<path d="M167.436 130.377V127.201L182.571 118.479V121.599L167.436 130.377Z" fill="#9C754E"/>
</g>
<defs>
<linearGradient id="paint0_linear" x1="741" y1="327.5" x2="0" y2="327.5" gradientUnits="userSpaceOnUse">
<stop stop-color="#F1F1F1"/>
<stop offset="0.9896" stop-color="#F1F1F1" stop-opacity="0"/>
</linearGradient>
<clipPath id="clip0">
<rect width="267" height="237" fill="white" transform="translate(27 5)"/>
</clipPath>
</defs>
</svg>
