<?xml version="1.0" encoding="utf-8"?>
<!-- Generator: Adobe Illustrator 24.0.2, SVG Export Plug-In . SVG Version: 6.00 Build 0)  -->
<svg version="1.1" id="Layer_1" xmlns="http://www.w3.org/2000/svg" xmlns:xlink="http://www.w3.org/1999/xlink" x="0px" y="0px"
	 viewBox="0 0 1017 642" style="enable-background:new 0 0 1017 642;" xml:space="preserve">
<style type="text/css">
	.st0{fill:url(#SVGID_1_);}
	.st1{fill:#594126;}
	.st2{fill:#8A6238;}
	.st3{fill:#9C754E;}
	.st4{fill:#87623F;}
	.st5{fill:#D2D2D2;}
	.st6{fill:#CAAE68;}
	.st7{fill:#72522F;}
	.st8{fill:#A98647;}
	.st9{fill:#85693F;}
	.st10{fill:#9F7D4A;}
	.st11{fill:#AE835B;}
	.st12{fill:#C2A35D;}
	.st13{fill:none;stroke:#8F5E16;stroke-width:0.2252;stroke-miterlimit:10;}
	.st14{fill:#E8B687;}
	.st15{fill:#C99A6B;}
	.st16{fill:#F4D5BE;}
</style>
<linearGradient id="SVGID_1_" gradientUnits="userSpaceOnUse" x1="1016.3566" y1="293.2305" x2="-1.188440e-04" y2="293.2305" gradientTransform="matrix(1 0 0 -1 0 644)">
	<stop  offset="0" style="stop-color:#F1F1F1"/>
	<stop  offset="0.9896" style="stop-color:#F1F1F1;stop-opacity:0"/>
</linearGradient>
<path class="st0" d="M147.8,144.8c197.8-113,519.6-112.4,718.6,1.3c199.1,113.7,200.1,297.6,2.2,410.6
	C670.8,669.8,349,669.2,150,555.5C-49.1,441.7-50.1,257.8,147.8,144.8z"/>
<path class="st1" d="M402.6,413.3l-22.4,14.3v-27.5L402.6,413.3z"/>
<path class="st2" d="M361.5,366v13.7l24.6,14v-12L361.5,366z"/>
<path class="st3" d="M427,368.3l-32.2-18.2v-27.5l32.2,18.2V368.3z"/>
<path class="st4" d="M425.2,364.7l-28.6-16.1v-1.3l28.6,16.2V364.7z"/>
<path class="st4" d="M425.2,361.3l-28.6-16.1v-1.3l28.6,16.2V361.3z"/>
<path class="st4" d="M425.2,357.9l-28.6-16.2v-1.2l28.6,16.1V357.9z"/>
<path class="st4" d="M425.2,354.4l-28.6-16.2V337l28.6,16.1V354.4z"/>
<path class="st4" d="M425.2,347.9l-28.6-16.1v-4l28.6,16.1V347.9z"/>
<path class="st3" d="M427,244.6l-32.2-18.1v-27.5l32.2,18.2V244.6z"/>
<path class="st3" d="M425.2,241.1L396.6,225v-1.3l28.6,16.2V241.1z"/>
<path class="st4" d="M425.2,237.6l-28.6-16.1v-1.3l28.6,16.2V237.6z"/>
<path class="st4" d="M425.2,234.3L396.6,218v-1.2l28.6,16.1V234.3z"/>
<path class="st4" d="M425.2,230.8l-28.6-16.2v-1.2l28.6,16.1V230.8z"/>
<path class="st4" d="M425.2,224.3l-28.6-16.1v-4l28.6,16.1V224.3z"/>
<path class="st5" d="M557.2,346l-167.1,95.7l-112.1-66l167-95.8L557.2,346z"/>
<path class="st6" d="M846.9,379l-24.7,15.6L578.8,256l24.6-15.6L846.9,379z"/>
<path class="st7" d="M822.2,394.6V442L578.8,303.6V256L822.2,394.6z"/>
<path class="st8" d="M719.2,345.6V373l86.4,49.1v-27.2L719.2,345.6z"/>
<path class="st8" d="M597.5,276.5V304l86.5,49.2v-27.4L597.5,276.5z"/>
<path class="st9" d="M846.9,379v49.1l-24.7,14v-47.4L846.9,379z"/>
<path class="st1" d="M619.9,289.8L597.5,304v-27.4L619.9,289.8z"/>
<path class="st1" d="M741.6,358.8L719.2,373v-27.4L741.6,358.8z"/>
<path class="st6" d="M738.2,440.7l-24.6,15.6L470.1,317.8l24.7-15.6L738.2,440.7z"/>
<path class="st7" d="M713.6,456.4v47.5L470.1,365.3v-47.5L713.6,456.4z"/>
<path class="st8" d="M610.6,407.4v27.4l86.3,49.2v-27.3L610.6,407.4z"/>
<path class="st8" d="M488.9,338.3v27.4l86.5,49.2v-27.4L488.9,338.3z"/>
<path class="st9" d="M738.2,440.7v49.1l-24.6,14.1v-47.5L738.2,440.7z"/>
<path class="st1" d="M511.2,351.6l-22.3,14.2v-27.4L511.2,351.6z"/>
<path class="st1" d="M633,420.6l-22.4,14.2v-27.4L633,420.6z"/>
<path class="st6" d="M629.6,502.5l-24.7,15.6L361.5,379.7l24.6-15.6L629.6,502.5z"/>
<path class="st7" d="M604.9,518.1v47.5L361.5,427.1v-47.4L604.9,518.1z"/>
<path class="st8" d="M501.9,469.1v27.4l86.4,49.2v-27.2L501.9,469.1z"/>
<path class="st8" d="M380.2,400.1v27.5l86.5,49.1v-27.4L380.2,400.1z"/>
<path class="st9" d="M629.6,502.5v49.1l-24.7,14.1v-47.5L629.6,502.5z"/>
<path class="st1" d="M524.3,482.4l-22.4,14.2v-27.4L524.3,482.4z"/>
<path class="st6" d="M580.2,490.6l24.7,15.6l242-139.3l-24.7-15.6L580.2,490.6z"/>
<path class="st10" d="M604.9,506.3v11.9l242-139.2v-12L604.9,506.3z"/>
<path class="st2" d="M580.2,490.6v13.6l24.7,14v-11.9L580.2,490.6z"/>
<path class="st6" d="M525.5,459.4l24.7,15.6l242-139.2l-24.7-15.6L525.5,459.4z"/>
<path class="st10" d="M550.2,475.1v12l242-139.3v-11.9L550.2,475.1z"/>
<path class="st2" d="M525.5,459.4V473l24.7,14.1v-12L525.5,459.4z"/>
<path class="st6" d="M470.9,428.4l24.6,15.5l242-139.2l-24.7-15.6L470.9,428.4z"/>
<path class="st10" d="M495.5,443.9v12l242-139.2v-12L495.5,443.9z"/>
<path class="st2" d="M470.9,428.4v13.6l24.6,14v-12L470.9,428.4z"/>
<path class="st6" d="M416.2,397.2l24.6,15.6l242-139.2L658.1,258L416.2,397.2z"/>
<path class="st10" d="M440.8,412.8v12l242-139.3v-11.9L440.8,412.8z"/>
<path class="st2" d="M416.2,397.2v13.6l24.6,14.1v-12L416.2,397.2z"/>
<path class="st6" d="M361.5,366l24.6,15.6l242-139.2l-24.7-15.6L361.5,366z"/>
<path class="st10" d="M386.1,381.6v12l242-139.2v-12L386.1,381.6z"/>
<path class="st11" d="M605.6,358.1l-112.1-63.9V174.8l112.1,63.9V358.1z"/>
<path class="st12" d="M694.6,187.7l-89,51.1v119.4l89-50.8V187.7z"/>
<path class="st13" d="M643.5,232.5L616.3,248v36.4l27.2-15.4V232.5z"/>
<path class="st4" d="M634.1,252.4l-0.1,18.1l-8.4,4.8v-18.1l-4.2,2.4l8.5-17.8l8.4,8.3L634.1,252.4z"/>
<path class="st14" d="M694.6,187.7l-89,51.1L553,208.6l-17.1-9.7l-42.4-24.2l89-51.1l42.5,24.2l17.1,9.8L694.6,187.7z"/>
<path class="st14" d="M553,208.6l-17.1-9.7l89.1-51.1l17.1,9.8L553,208.6z"/>
<path class="st5" d="M533.9,306.8l-32.1-18.1v-27.5l32.1,18.2V306.8z"/>
<path class="st3" d="M532.2,303.4l-28.6-16.1v-1.3l28.6,16.2V303.4z"/>
<path class="st3" d="M532.2,299.9l-28.6-16.1v-1.3l28.6,16.2V299.9z"/>
<path class="st3" d="M532.2,296.5l-28.6-16.2V279l28.6,16.2V296.5z"/>
<path class="st3" d="M532.2,293.1l-28.6-16.2v-1.2l28.6,16.1V293.1z"/>
<path class="st3" d="M532.2,286.5l-28.6-16.1v-4l28.6,16.1V286.5z"/>
<path class="st5" d="M535.9,198.9v40.3l3.5-9.4l3.7,13.3l4.9-8.6l4.5,13.8l0.5-39.6L535.9,198.9z"/>
<path class="st4" d="M663.8,222.4l-8.2,4.7v10.8l8.2-4.7V222.4z"/>
<path class="st4" d="M675.2,215.9l-8.1,4.7v10.8l8.1-4.7V215.9z"/>
<path class="st4" d="M686.6,209.3l-8.1,4.8v10.7l8.1-4.7V209.3z"/>
<path class="st11" d="M498.6,419.5l-112.1-63.9V236.2l112.1,63.9V419.5z"/>
<path class="st15" d="M587.6,249l-89,51.1v119.4l89-50.8V249z"/>
<path class="st13" d="M536.5,293.9l-27.2,15.5v36.5l27.2-15.5V293.9z"/>
<path class="st4" d="M527.1,313.8v18.1l-8.5,4.9v-18.2l-4.2,2.4l8.5-17.8l8.5,8.3L527.1,313.8z"/>
<path class="st14" d="M587.6,249l-89,51.1l-52.6-30l-17-9.8l-42.5-24.2l89-51.1l42.5,24.2l17.1,9.8L587.6,249z"/>
<path class="st14" d="M446,270.1l-17-9.8l89-51.1l17.1,9.8L446,270.1z"/>
<path class="st3" d="M429,260.3l-0.1,40.3l3.5-9.4l3.7,13.3l5-8.6l4.4,13.8l0.5-39.5L429,260.3z"/>
<path class="st4" d="M556.8,283.8l-8.1,4.7v10.8l8.1-4.7V283.8z"/>
<path class="st4" d="M568.2,277.2l-8.1,4.7v10.8l8.1-4.7V277.2z"/>
<path class="st4" d="M579.6,270.7l-8.1,4.8v10.8l8.1-4.8V270.7z"/>
<path class="st11" d="M729.9,428.4l-112.1-64V245l112.1,64V428.4z"/>
<path class="st15" d="M818.9,257.8l-89,51.2v119.4l89-50.9V257.8z"/>
<path class="st13" d="M767.8,302.7l-27.2,15.6v36.4l27.2-15.5V302.7z"/>
<path class="st4" d="M758.4,322.7l-0.1,18.1l-8.4,4.8v-18.1l-4.2,2.4l8.5-17.9l8.5,8.3L758.4,322.7z"/>
<path class="st14" d="M818.9,257.8l-89,51.2l-52.6-30.1l-17-9.7L617.8,245l89-51.1l42.5,24.2l17.1,9.8L818.9,257.8z"/>
<path class="st14" d="M677.3,278.9l-17-9.7l89-51.1l17.1,9.8L677.3,278.9z"/>
<path class="st5" d="M658.3,377.1l-32.2-18.2v-27.4l32.2,18.1V377.1z"/>
<path class="st3" d="M656.5,373.6l-28.6-16.1v-1.3l28.6,16.1V373.6z"/>
<path class="st3" d="M656.5,370.2L627.9,354v-1.3l28.6,16.1V370.2z"/>
<path class="st3" d="M656.5,366.7l-28.6-16.1v-1.3l28.6,16.2V366.7z"/>
<path class="st3" d="M656.5,363.2l-28.6-16.1v-1.3l28.6,16.2V363.2z"/>
<path class="st3" d="M656.5,356.8l-28.6-16.2v-3.9l28.6,16.1V356.8z"/>
<path class="st5" d="M660.3,269.2l-0.1,40.2l3.5-9.4l3.7,13.4l5-8.6l4.4,13.7l0.5-39.5L660.3,269.2z"/>
<path class="st4" d="M788.1,292.6l-8.1,4.8v10.8l8.1-4.8V292.6z"/>
<path class="st4" d="M799.5,286.1l-8.1,4.7v10.8l8.1-4.7V286.1z"/>
<path class="st4" d="M810.9,279.6l-8.1,4.7V295l8.1-4.7V279.6z"/>
<path class="st11" d="M622.9,489.7l-112-63.9V306.3l112,64V489.7z"/>
<path class="st15" d="M712,319.3l-89.1,51.1v119.4l89.1-50.9V319.3z"/>
<path class="st13" d="M660.8,364l-27.2,15.6v36.4l27.2-15.4V364z"/>
<path class="st4" d="M651.4,384v18.1l-8.5,4.8l0.1-18.1l-4.3,2.4l8.6-17.9l8.4,8.4L651.4,384z"/>
<path class="st14" d="M711.9,319.3L623,370.4l-52.7-30.1l-17-9.7l-42.4-24.2l88.9-51.1l42.5,24.2l17.1,9.8L711.9,319.3z"/>
<path class="st14" d="M570.3,340.3l-17-9.7l89-51.1l17.1,9.8L570.3,340.3z"/>
<path class="st3" d="M551.3,438.5l-32.2-18.1v-27.5l32.2,18.2V438.5z"/>
<path class="st4" d="M549.5,435l-28.6-16.1v-1.3l28.6,16.1V435z"/>
<path class="st4" d="M549.5,431.5l-28.6-16.1v-1.3l28.6,16.2V431.5z"/>
<path class="st4" d="M549.5,428.1l-28.6-16.1v-1.3l28.6,16.2V428.1z"/>
<path class="st4" d="M549.5,424.7l-28.6-16.2v-1.2l28.6,16.1V424.7z"/>
<path class="st4" d="M549.5,418.2L520.9,402v-4l28.6,16.1V418.2z"/>
<path class="st3" d="M553.3,330.6l-0.1,40.3l3.5-9.4l3.7,13.3l5-8.6l4.4,13.8l0.5-39.6L553.3,330.6z"/>
<path class="st4" d="M681.1,354l-8.1,4.7v10.8l8.1-4.7V354z"/>
<path class="st4" d="M692.5,347.5l-8.1,4.7v10.8l8.1-4.7V347.5z"/>
<path class="st4" d="M703.9,341l-8.1,4.7v10.8l8.1-4.7V341z"/>
<path class="st11" d="M605.6,234.5l-112.1-64V51.1l112.1,64V234.5z"/>
<path class="st15" d="M694.6,63.9l-89,51.2v119.4l89-50.9V63.9z"/>
<path class="st13" d="M643.5,108.8l-27.2,15.6v36.4l27.2-15.4V108.8z"/>
<path class="st4" d="M634.1,128.8l-0.1,18.1l-8.4,4.8v-18.1l-4.2,2.4l8.5-17.9l8.4,8.4L634.1,128.8z"/>
<path class="st14" d="M694.6,64l-89,51.1L553,85l-17.1-9.7l-42.4-24.2l89-51.1L625,24.2l17.1,9.8L694.6,64z"/>
<path class="st16" d="M553,85l-17.1-9.7L625,24.2l17.1,9.8L553,85z"/>
<path class="st5" d="M533.9,183.2l-32.1-18.1v-27.5l32.1,18.2V183.2z"/>
<path class="st3" d="M532.2,179.7l-28.6-16.1v-1.3l28.6,16.1V179.7z"/>
<path class="st3" d="M532.2,176.3l-28.6-16.1v-1.3l28.6,16.2V176.3z"/>
<path class="st3" d="M532.2,172.8l-28.6-16.1v-1.3l28.6,16.2V172.8z"/>
<path class="st3" d="M532.2,169.4l-28.6-16.2V152l28.6,16.1V169.4z"/>
<path class="st3" d="M532.2,162.9l-28.6-16.2v-3.9l28.6,16.1V162.9z"/>
<path class="st3" d="M535.9,75.3v40.3l3.5-9.4l3.7,13.3l4.9-8.6l4.5,13.7L553,85L535.9,75.3z"/>
<path class="st4" d="M663.8,98.7l-8.2,4.8v10.8l8.2-4.7V98.7z"/>
<path class="st4" d="M675.2,92.2l-8.1,4.7v10.8l8.1-4.7V92.2z"/>
<path class="st4" d="M686.6,85.7l-8.1,4.7v10.8l8.1-4.7V85.7z"/>
<path class="st11" d="M498.6,295.8l-112.1-63.9V112.5l112.1,63.9V295.8z"/>
<path class="st15" d="M587.6,125.4l-89,51.1v119.4l89-50.8V125.4z"/>
<path class="st13" d="M536.5,170.2l-27.2,15.5v36.5l27.2-15.5V170.2z"/>
<path class="st4" d="M527.1,190.1v18.1l-8.5,4.8v-18.2l-4.2,2.4l8.5-17.8l8.5,8.3L527.1,190.1z"/>
<path class="st14" d="M587.6,125.4l-89,51.1l-52.6-30l-17-9.8l-42.5-24.2l89-51.1L518,85.6l17.1,9.8L587.6,125.4z"/>
<path class="st16" d="M446,146.5l-17-9.8l89-51.1l17.1,9.8L446,146.5z"/>
<path class="st3" d="M429,136.7l-0.1,40.3l3.5-9.4l3.7,13.3l5-8.6l4.4,13.8l0.5-39.5L429,136.7z"/>
<path class="st4" d="M556.8,160.1l-8.1,4.7v10.8l8.1-4.7V160.1z"/>
<path class="st4" d="M568.2,153.6l-8.1,4.7v10.8l8.1-4.7V153.6z"/>
<path class="st4" d="M579.6,147.1l-8.1,4.8v10.7l8.1-4.7V147.1z"/>
<path class="st11" d="M729.9,304.7l-112.1-64V121.3l112.1,64V304.7z"/>
<path class="st15" d="M818.9,134.2l-89,51.2v119.4l89-50.9V134.2z"/>
<path class="st13" d="M767.8,179l-27.2,15.6v36.4l27.2-15.5V179z"/>
<path class="st4" d="M758.4,198.9l-0.1,18.2l-8.4,4.8v-18.1l-4.2,2.4l8.5-17.9l8.5,8.3L758.4,198.9z"/>
<path class="st14" d="M818.9,134.2l-89,51.2l-52.6-30.1l-17-9.7l-42.5-24.2l89-51.1l42.5,24.2l17.1,9.7L818.9,134.2z"/>
<path class="st16" d="M677.3,155.3l-17-9.7l89-51.1l17.1,9.7L677.3,155.3z"/>
<path class="st5" d="M658.3,253.5l-32.2-18.2v-27.4l32.2,18.1V253.5z"/>
<path class="st3" d="M656.5,250l-28.6-16.2v-1.2l28.6,16.1V250z"/>
<path class="st3" d="M656.5,246.5l-28.6-16.1v-1.3l28.6,16.1V246.5z"/>
<path class="st3" d="M656.5,243.1L627.9,227v-1.3l28.6,16.2V243.1z"/>
<path class="st3" d="M656.5,239.6l-28.6-16.1v-1.3l28.6,16.2V239.6z"/>
<path class="st3" d="M656.5,233.2L627.9,217v-3.9l28.6,16.1V233.2z"/>
<path class="st3" d="M660.3,145.6l-0.1,40.2l3.5-9.4l3.7,13.4l5-8.6l4.4,13.7l0.5-39.5L660.3,145.6z"/>
<path class="st4" d="M788.1,169l-8.1,4.8v10.8l8.1-4.8V169z"/>
<path class="st4" d="M799.5,162.4l-8.1,4.8V178l8.1-4.7V162.4z"/>
<path class="st4" d="M810.9,156l-8.1,4.7v10.8l8.1-4.7V156z"/>
<path class="st11" d="M622.9,366.1l-112-64V182.7l112,64V366.1z"/>
<path class="st15" d="M712,195.6l-89.1,51.2v119.4l89.1-50.9V195.6z"/>
<path class="st13" d="M660.8,240.4L633.6,256v36.4l27.2-15.5V240.4z"/>
<path class="st4" d="M651.4,260.4v18.1l-8.5,4.8l0.1-18.1l-4.3,2.4l8.6-17.9l8.4,8.4L651.4,260.4z"/>
<path class="st14" d="M711.9,195.7L623,246.7l-52.7-30.1l-17-9.7l-42.4-24.2l88.9-51.1l42.5,24.2l17.1,9.8L711.9,195.7z"/>
<path class="st16" d="M570.3,216.7l-17-9.7l89-51.1l17.1,9.8L570.3,216.7z"/>
<path class="st3" d="M551.3,314.8l-32.2-18.2v-27.4l32.2,18.1V314.8z"/>
<path class="st4" d="M549.5,311.4l-28.6-16.1V294l28.6,16.1V311.4z"/>
<path class="st4" d="M549.5,307.9l-28.6-16.1v-1.3l28.6,16.2V307.9z"/>
<path class="st4" d="M549.5,304.4l-28.6-16.1V287l28.6,16.2V304.4z"/>
<path class="st4" d="M549.5,301.1l-28.6-16.2v-1.3l28.6,16.2V301.1z"/>
<path class="st4" d="M549.5,294.6l-28.6-16.2v-3.9l28.6,16.1V294.6z"/>
<path class="st3" d="M553.3,207l-0.1,40.3l3.5-9.5l3.7,13.4l5-8.6l4.4,13.7l0.5-39.5L553.3,207z"/>
<path class="st4" d="M681.1,230.3l-8.1,4.8v10.8l8.1-4.7V230.3z"/>
<path class="st4" d="M692.5,223.9l-8.1,4.7v10.8l8.1-4.7V223.9z"/>
<path class="st4" d="M703.9,217.4l-8.1,4.7v10.8l8.1-4.7V217.4z"/>
<path class="st2" d="M361.5,366v13.6l24.6,14.1v-12L361.5,366z"/>
</svg>
