<svg width="930" height="577" viewBox="0 0 930 577" fill="none" xmlns="http://www.w3.org/2000/svg">
<path d="M794.774 498.842C613.763 602.28 319.364 601.754 137.216 497.665C-44.9316 393.578 -45.8536 225.346 135.157 121.908C316.168 18.4695 610.567 18.996 792.715 123.083C974.864 227.172 975.785 395.404 794.774 498.842Z" fill="url(#paint0_linear)"/>
<path d="M559.342 552.861L515.349 527.721L557.217 503.797L578.425 552.861H559.342Z" fill="#BECDD4"/>
<path d="M620.29 472.479V528.944L601.511 539.673L596.821 542.356L578.424 552.862V496.397L596.821 485.89L601.511 483.208L620.29 472.479Z" fill="#C99A6B"/>
<path d="M578.424 496.397V552.862L558.498 541.48L553.79 538.779L534.438 527.724V471.258L553.79 482.331L558.498 485.013L578.424 496.397Z" fill="#AE835B"/>
<path d="M575.87 508.348L567.608 503.625V494.236L575.87 498.958V508.348ZM568.151 503.315L575.327 507.415V499.269L568.151 495.168V503.315Z" fill="#87623F"/>
<path d="M572.651 505.341L570.828 504.298V499.571L572.651 500.613V505.341Z" fill="#87623F"/>
<path d="M574.443 502.537L569.036 499.447L571.739 497.764L574.443 502.537Z" fill="#87623F"/>
<path d="M578.431 496.399L534.438 471.259L576.306 447.335L620.299 472.474L578.431 496.399Z" fill="#E8B687"/>
<path d="M596.816 485.893L552.823 460.754L557.52 458.071L601.513 483.21L596.816 485.893Z" fill="#D9AF84"/>
<path d="M558.499 485.013V541.479L553.791 538.778V482.331L558.499 485.013Z" fill="#9C754E"/>
<path d="M558.494 485.006L600.362 461.082L595.665 458.398L553.798 482.323L558.494 485.006Z" fill="#D9AF84"/>
<path d="M534.438 471.259L578.432 496.399L555.279 483.829L534.438 471.259Z" fill="#87623F"/>
<path d="M620.3 472.474L578.432 496.399L601.586 483.829L620.3 472.474Z" fill="#87623F"/>
<path d="M554.861 459.589L555.194 459.4L576.755 471.72L597.867 459.656L598.19 459.84L577.078 471.904L599.186 484.539L598.854 484.729L576.746 472.095L556.322 483.765L555.999 483.581L576.422 471.91L554.861 459.589Z" fill="#D1A986"/>
<path d="M601.511 483.208V539.672L596.821 542.354V485.89L601.511 483.208Z" fill="#D9AF84"/>
<path d="M152.276 467.111C170.619 467.013 185.443 458.437 185.386 447.955C185.329 437.473 170.412 429.056 152.069 429.154C133.726 429.252 118.903 437.829 118.96 448.31C119.017 458.792 133.933 467.209 152.276 467.111Z" fill="#BECDD4"/>
<path d="M293.448 492.706L229.462 456.142L225.416 458.454L229.469 456.138L217.153 449.1L162.496 480.334L174.812 487.371L238.798 523.935L256.803 531.708L262.691 528.343L249.09 518.054L234.292 509.598L268.357 490.132L283.155 498.587L301.16 506.36L307.048 502.995L293.448 492.706ZM205.556 493.176L185.104 481.489L219.168 462.023L239.62 473.71L205.556 493.176Z" fill="#BECDD4"/>
<path d="M117.063 426.158C130.074 418.723 151.103 418.685 164.032 426.074C176.962 433.462 176.896 445.479 163.885 452.914C150.874 460.349 129.846 460.386 116.916 452.998C103.987 445.609 104.053 433.593 117.063 426.158Z" fill="#BECDD4"/>
<path d="M170.186 336.446C170.186 336.446 168.385 339.609 164.887 339.709H164.709C164.177 339.734 163.721 339.709 163.34 339.658C161.261 339.458 160.982 338.604 160.652 337.55C160.246 336.295 153.679 309.067 159.08 307.46C159.181 307.46 161.945 307.485 163.137 310.07C163.897 311.702 165.418 317.876 166.61 323.096C167.32 326.283 167.903 329.143 168.132 330.373C168.588 332.959 169.602 335.242 169.983 336.095C170.008 336.07 170.008 336.07 170.008 336.095C170.11 336.321 170.186 336.446 170.186 336.446Z" fill="#FEBFBF"/>
<path d="M175.257 355.795C175.156 356.021 175.13 356.372 175.181 356.724C175.156 356.698 175.156 356.698 175.156 356.698C175.13 356.598 174.471 354.766 170.769 351.704C167.093 348.642 163.822 343.447 163.365 341.665L163.34 339.657C161.261 339.457 160.982 338.603 160.652 337.549C160.246 336.294 153.679 309.066 159.08 307.459C159.181 307.459 161.945 307.484 163.137 310.069C163.897 311.701 165.418 317.875 166.61 323.095C166.585 323.119 166.585 323.119 166.585 323.119C166.408 323.773 163.314 324.827 163.314 324.827C163.314 324.827 163.897 334.438 163.872 335.141C163.821 335.844 165.419 337.5 165.419 337.5C165.419 337.5 165.419 337.5 165.394 337.525C165.242 337.7 164.582 338.478 164.709 339.709C164.709 340.01 164.785 340.361 164.938 340.737C165.724 342.745 170.516 349.621 172.063 351.88C173.61 354.164 175.562 355.243 175.562 355.243C175.562 355.243 175.561 355.243 175.257 355.795Z" fill="url(#paint1_linear)"/>
<path d="M166.615 322.45C166.615 322.45 164.288 324.023 162.29 323.336C160.369 322.676 155.369 305.415 155.369 305.415C155.369 305.415 155.787 304.556 158.77 305.281C161.753 306.006 163.138 308.84 163.564 310.287C163.99 311.733 166.615 322.45 166.615 322.45Z" fill="#DF314A"/>
<path d="M162.417 441.297C162.417 441.297 166.442 443.126 167.227 443.788C168.012 444.449 173.007 448.586 173.341 449.227C173.675 449.869 175.239 451.159 175.258 452.582C175.277 454.004 173.521 455.343 172.042 455.305C170.563 455.268 165.859 453.773 164.008 451.929C162.157 450.085 161.039 448.783 160.701 448.681C160.364 448.579 160.333 448.774 159.493 448.915C158.653 449.055 155.251 447.502 154.839 446.589C154.427 445.675 153.562 441.924 154.084 440.855C154.606 439.784 162.417 441.297 162.417 441.297Z" fill="#5C6467"/>
<path d="M162.966 440.124C162.966 440.124 166.715 443.899 167.055 444.762C167.394 445.624 165.71 446.444 163.36 446.552C161.01 446.66 158.097 444.223 158.097 444.223C158.097 444.223 155.582 440.661 156.687 438.829C157.791 436.998 162.966 440.124 162.966 440.124Z" fill="#FEBFBF"/>
<path d="M163.922 365.136C163.922 365.136 164.724 364.855 166.279 378.235C167.708 390.526 167.589 399.427 167.3 403.488C167.012 407.549 164.76 439.409 164.736 441.018C164.712 442.628 161.172 443.536 159.013 443.39C156.854 443.244 154.922 441.312 154.864 440.223C154.806 439.135 152.366 412.103 154.109 403.068C154.616 400.44 147.315 382.104 147.315 382.104C147.315 382.104 145.833 368.421 147.043 365.512C148.255 362.603 163.922 365.136 163.922 365.136Z" fill="#7282B5"/>
<path d="M159.105 443.371H159.029C156.848 443.245 154.921 441.312 154.871 440.209C154.82 439.13 152.361 412.102 154.11 403.067C154.617 400.431 147.323 382.09 147.323 382.09C147.323 382.09 147.272 381.513 147.171 380.585L154.262 379.1C154.262 379.1 152.842 381.609 154.364 386.528C155.911 391.423 156.038 401.511 156.241 402.966C156.444 404.421 154.542 404.973 155.075 415.84C155.505 424.724 155.302 438.202 159.105 443.371Z" fill="#E8D0C8"/>
<path d="M129.895 432.229C129.895 432.229 132.602 436.084 132.935 436.725C133.268 437.367 137.086 443.602 137.228 444.434C137.37 445.265 137.173 445.986 136.571 446.582C135.969 447.179 133.646 448.011 132.037 447.583C130.428 447.155 127.924 445.8 126.603 444.437C125.282 443.074 123.738 439.277 123.738 439.277C123.738 439.277 122.123 437.489 121.684 436.612C121.245 435.735 120.153 434.587 120.036 433.34C119.919 432.092 119.782 431.292 120.963 430.334C122.144 429.376 129.895 432.229 129.895 432.229Z" fill="#5C6467"/>
<path d="M130.012 431.303C130.012 431.303 131.645 435.543 131.684 436.329C131.722 437.115 129.805 437.884 127.985 437.653C126.165 437.422 125.442 435.754 124.895 435.248C124.349 434.742 122.006 430.901 122.568 429.697C123.132 428.494 130.012 431.303 130.012 431.303Z" fill="#FEBFBF"/>
<path d="M154.658 367.034C154.658 367.034 155.142 372.866 155.271 375.125C155.401 377.384 155.496 380.524 155.496 380.524L151.254 385.922C151.254 385.922 148.638 388.285 144.634 407.899C141.395 414.173 131.105 432.401 131.105 432.401C131.105 432.401 128.162 435.415 124.702 433.768C121.683 432.33 120.576 429.939 120.597 429.471C120.657 428.155 127.287 411.831 128.167 409.487C129.047 407.144 132.431 401.404 132.431 401.404C132.431 401.404 132.448 392.69 132.184 389.782C131.701 384.457 127.022 371.225 128.621 368.593C130.222 365.961 154.658 367.034 154.658 367.034Z" fill="#7282B5"/>
<path d="M122.215 431.303L121.606 431.127C126.64 414.058 130.458 409.119 132.741 406.17C133.499 405.188 134.048 404.479 134.38 403.63C137.26 396.214 133.57 382.77 132.8 380.15C131.005 374.031 131.807 369.972 131.844 369.803L132.463 369.928C132.455 369.968 131.661 374.019 133.409 379.976C134.189 382.63 137.925 396.252 134.969 403.855C134.607 404.788 134.035 405.528 133.243 406.551C130.988 409.466 127.214 414.345 122.215 431.303Z" fill="#A0ABCD"/>
<path d="M133.834 402.719C130.588 406.107 127.571 414.263 125.264 419.91C123.362 424.577 121.79 428.04 121.638 431.404C120.903 430.5 120.573 429.722 120.599 429.472C120.65 428.141 127.293 411.829 128.181 409.471C129.043 407.136 132.44 401.389 132.44 401.389C132.44 401.389 132.465 392.681 132.186 389.771C131.704 384.45 127.039 371.225 128.636 368.59C128.865 368.214 129.625 367.912 130.791 367.686C130.791 367.761 130.816 367.836 130.816 367.913C130.816 367.913 129.649 368.465 131.425 376.069C133.2 383.672 135.482 396.144 133.834 402.719Z" fill="#E8D0C8"/>
<path d="M127.173 368.139C127.173 368.139 131.22 372.458 137.272 373.057C149.957 374.312 163.387 368.333 164.936 366.385C164.936 366.385 163.425 353.476 163.425 347.478C163.425 341.48 163.031 332.169 163.445 326.102C163.86 320.035 164.06 312.959 159.952 306.812C157.493 303.133 149.427 306.483 146.991 306.214C144.555 305.946 141.23 303.968 137.778 306.742C134.326 309.516 127.626 312.081 126.2 316.002C124.535 320.581 124.882 326.584 128.017 340.054C131.503 355.025 127.173 368.139 127.173 368.139Z" fill="#DF314A"/>
<path d="M160.178 364.114C160.178 364.114 163.703 367.369 162.156 366.818L158.582 366.04C157.035 365.437 154.659 367.034 142.71 363.014C139.053 361.784 132.447 358.001 132.447 358.001C132.447 358.001 130.31 366.529 129.803 370.269C128.13 369.139 127.167 368.136 127.167 368.136C127.167 368.136 131.68 354.986 128.029 340.053C127.624 338.372 127.242 336.816 126.938 335.386C129.828 330.065 132.766 323.159 136.417 323.11C136.417 323.11 139.316 335.75 138.048 343.179C136.78 350.607 135.255 350.82 135.255 350.82L148.769 358.514L160.178 364.114Z" fill="#DEDEDE"/>
<path d="M152.792 307.46C152.767 309.894 153.401 310.923 152.817 311.826C152.31 312.553 147.974 313.533 146.123 312.78C145.489 312.529 144.906 312.254 144.399 312.002C144.399 312.002 144.374 311.977 144.348 311.977C140.773 310.171 140.012 308.615 139.607 307.887C139.151 307.058 139.633 306.356 139.633 306.356C139.633 306.356 142.321 302.843 142.041 299.856C141.965 299.079 141.889 297.497 141.838 295.941C141.762 293.959 141.686 292.052 141.686 292.052C141.686 292.052 143.334 288.865 144.83 289.041C146.326 289.241 153.4 296.696 153.4 296.696C153.4 296.696 153.197 299.706 153.02 302.643C152.919 304.299 152.842 305.931 152.817 306.985C152.792 307.159 152.792 307.31 152.792 307.46Z" fill="#FFADB7"/>
<path d="M153.02 302.642C152.919 304.298 152.842 305.93 152.817 306.984C152.31 307.009 151.549 306.859 150.51 306.458C145.895 304.651 144.729 304.952 143.284 305.981C141.991 306.934 142.447 310.197 144.349 311.979C140.774 310.172 140.013 308.616 139.608 307.888C139.152 307.06 139.634 306.357 139.634 306.357C139.634 306.357 142.322 302.844 142.042 299.857C141.966 299.08 141.89 297.498 141.839 295.943C147.189 294.763 150.536 295.466 150.536 295.466L153.02 302.642Z" fill="url(#paint2_linear)"/>
<path d="M143.258 291.844C143.258 291.844 143.602 299.485 144.358 301.1C145.114 302.716 150.561 306.873 155.815 306.153C157.225 305.41 159.393 301.563 159.64 298.163C159.888 294.765 159.61 293.512 159.687 293.214C159.764 292.916 160.818 290.838 160.655 289.884C160.492 288.929 160.215 283.559 158.342 281.211C156.469 278.863 151.293 277.416 146.649 279.27C142.005 281.125 143.258 291.844 143.258 291.844Z" fill="#FEBFBF"/>
<path d="M144.904 294.547C144.904 294.547 145.349 291.526 143.433 290.992C141.517 290.457 141.656 293.801 141.656 293.801L142.114 299.093L142.048 299.857C142.048 299.857 140.077 296.083 139.426 294.893C138.775 293.703 138.467 293.216 138.21 291.897C137.953 290.578 136.923 284.921 137.193 282.944C137.464 280.966 140.891 277.985 143.511 277.769C144.711 276.175 147.156 275.641 149.522 275.626C151.888 275.61 153.659 275.534 156.497 277.72C159.335 279.906 159.276 281.617 159.495 282.15C159.714 282.684 159.929 285.053 159.929 285.053L159.578 283.753C159.578 283.753 158.453 284.488 154.945 284.188C151.437 283.888 149.504 282.5 149.504 282.5C149.504 282.5 150.148 284.959 150.015 285.868C149.882 286.777 149.339 289.592 149.339 289.592C149.339 289.592 147.536 290.654 146.935 291.071C146.334 291.488 146.051 292.454 146.051 292.454L145.823 294.868L144.904 294.547Z" fill="#754554"/>
<path d="M160.473 284.699L159.966 285.326C159.966 285.326 150.685 288.036 149.748 288.262C149.317 288.363 148.607 288.688 147.567 289.015C146.274 289.441 144.499 289.894 142.141 290.069C137.932 290.42 137.932 290.42 137.932 290.42C137.932 290.42 136.588 286.43 137.222 282.766C137.729 279.855 141.127 277.319 145.082 276.14C145.082 276.14 145.107 276.14 145.107 276.115C146.121 275.814 147.187 275.589 148.251 275.488C153.399 274.961 156.872 277.119 158.52 279.579C160.143 282.038 160.473 284.699 160.473 284.699Z" fill="#DF314A"/>
<path d="M147.567 289.015C146.274 289.441 144.499 289.894 142.141 290.069C137.932 290.42 137.932 290.42 137.932 290.42C137.932 290.42 136.588 286.43 137.222 282.766C137.729 279.855 141.127 277.319 145.082 276.14C144.043 276.743 141 277.495 141.836 283.343C142.521 288.136 146.249 288.889 147.567 289.015Z" fill="#FCF5E8"/>
<path d="M147.572 289.01C147.572 289.01 154.966 295.305 157.509 292.768C159.301 290.981 163.75 289.273 165.705 289.848C167.66 290.423 167.66 290.423 167.66 290.423C167.66 290.423 168.074 290.34 168.022 289.869C167.969 289.399 160.468 284.693 160.468 284.693C160.468 284.693 157.497 281.563 147.572 289.01Z" fill="#BF2A40"/>
<path d="M143.878 292.944C143.878 292.944 142.839 290.236 140.746 291.283C138.652 292.33 141.656 297.736 143.013 297.809C144.37 297.883 144.118 296.5 144.118 296.5C144.118 296.5 142.657 294.225 143.878 292.944Z" fill="url(#paint3_linear)"/>
<path d="M129.14 353.459C129.14 353.459 127.489 350.123 126.821 343.722C126.153 337.322 124.262 317.33 127.157 314.597C130.051 311.864 133.978 314.629 135.315 317.435C136.652 320.24 137.391 334.497 137.118 339.334C136.845 344.172 137.165 347.531 135.915 349.934C134.665 352.336 132.939 353.913 129.14 353.459Z" fill="#FEBFBF"/>
<path d="M129.356 313.209C127.926 313.209 125.065 314.79 125.065 320.059C125.065 326.196 125.714 331.924 125.791 333.964C127.413 334.76 130.144 334.928 132.68 334.799C135.216 334.67 137.547 334.037 137.547 333.685C137.547 333.332 137.08 323.075 136.011 318.996C134.94 314.917 131.298 313.209 129.356 313.209Z" fill="#DF314A"/>
<path d="M209.603 443.165L214.235 445.812V453.442L209.603 450.795V443.165Z" fill="#A25900"/>
<path d="M199.271 445.859C199.271 442.665 196.991 438.773 194.178 437.165C192.835 436.398 191.623 436.307 190.713 436.751L190.7 436.738L190.609 436.789C190.588 436.8 190.567 436.812 190.547 436.824L188.28 438.117L189.134 439.513C189.118 439.689 189.085 439.848 189.085 440.037C189.085 443.232 191.365 447.125 194.178 448.731C194.461 448.894 194.735 449.006 195.005 449.11L195.715 450.27L197.76 449.102C197.772 449.095 197.784 449.088 197.796 449.081L197.893 449.025L197.894 449.002C198.742 448.455 199.271 447.382 199.271 445.859Z" fill="#3B4549"/>
<path d="M195.633 450.321C197.61 449.178 197.589 445.504 195.588 442.116C193.587 438.727 190.362 436.908 188.386 438.051C186.41 439.195 186.43 442.869 188.431 446.257C190.433 449.645 193.657 451.465 195.633 450.321Z" fill="#5C6467"/>
<path d="M196.22 447.602C196.22 444.408 193.94 440.515 191.127 438.908C189.784 438.141 188.572 438.05 187.662 438.494L187.649 438.48L187.558 438.532C187.537 438.543 187.517 438.555 187.496 438.567L185.229 439.861L186.083 441.257C186.067 441.433 186.034 441.592 186.034 441.781C186.034 444.976 188.314 448.869 191.127 450.475C191.41 450.638 191.683 450.75 191.954 450.853L192.664 452.013L194.708 450.846C194.72 450.839 194.732 450.832 194.744 450.825L194.841 450.769L194.843 450.746C195.691 450.198 196.22 449.125 196.22 447.602Z" fill="#3B4549"/>
<path d="M183.858 443.026C183.858 446.22 186.138 450.112 188.951 451.72C191.764 453.327 194.044 452.04 194.044 448.845C194.044 445.651 191.764 441.759 188.951 440.151C186.138 438.544 183.858 439.831 183.858 443.026Z" fill="#5C6467"/>
<path d="M195.426 453.77V458.765L192.751 460.293L185.382 441.907L190.509 442.99L195.426 453.77Z" fill="#CE7400"/>
<path d="M192.751 455.299V460.293L182.708 453.015V443.435L187.834 444.518L192.751 455.299Z" fill="#EDA600"/>
<path d="M182.34 447.624L195.038 440.367V438.956L176.858 443.079V444.491L182.34 447.624Z" fill="#EDA600"/>
<path d="M182.34 446.211L195.038 438.956L189.556 435.823L176.858 443.079L182.34 446.211Z" fill="#FECB4C"/>
<path d="M184.833 454.13C184.833 450.935 182.553 447.043 179.74 445.434C178.397 444.667 177.185 444.576 176.275 445.021L176.263 445.007L176.172 445.058C176.151 445.07 176.132 445.081 176.111 445.094L173.844 446.388L174.697 447.783C174.681 447.959 174.648 448.119 174.648 448.308C174.648 451.503 176.928 455.394 179.741 457.002C180.024 457.164 180.297 457.276 180.568 457.38L181.279 458.54L183.322 457.372C183.334 457.365 183.346 457.358 183.358 457.351L183.456 457.296L183.457 457.272C184.304 456.726 184.833 455.653 184.833 454.13Z" fill="#3B4549"/>
<path d="M172.471 449.553C172.471 452.748 174.751 456.641 177.564 458.247C180.377 459.854 182.657 458.568 182.657 455.373C182.657 452.178 180.377 448.286 177.564 446.679C174.751 445.071 172.471 446.358 172.471 449.553Z" fill="#5C6467"/>
<path d="M181.782 455.873C181.782 452.678 179.502 448.786 176.689 447.177C175.347 446.41 174.134 446.32 173.224 446.764L173.211 446.75L173.12 446.801C173.099 446.813 173.079 446.824 173.058 446.837L170.792 448.131L171.645 449.526C171.629 449.702 171.596 449.862 171.596 450.051C171.596 453.246 173.876 457.137 176.689 458.745C176.973 458.907 177.246 459.019 177.517 459.123L178.227 460.283L180.271 459.115C180.283 459.108 180.295 459.101 180.307 459.094L180.404 459.039L180.405 459.015C181.253 458.469 181.782 457.396 181.782 455.873Z" fill="#3B4549"/>
<path d="M169.42 451.296C169.42 454.491 171.7 458.384 174.513 459.99C177.326 461.597 179.606 460.311 179.606 457.116C179.606 453.921 177.326 450.029 174.513 448.422C171.7 446.814 169.42 448.101 169.42 451.296Z" fill="#5C6467"/>
<path d="M195.038 438.956V440.367L182.34 447.624V446.212L195.038 438.956Z" fill="#CE7400"/>
<path d="M180.019 387.942L177.423 388.393L187.23 443.686L189.826 443.235L180.019 387.942Z" fill="#FFC536"/>
<path d="M172.984 392.687C171.382 392.687 169.943 392.141 168.893 391.055L163.111 385.08C162.353 384.299 161.843 383.265 161.635 382.092L160.588 376.132C159.905 372.245 162.631 367.336 166.798 364.954L180.006 357.407C182.443 356.014 184.971 355.737 186.942 356.652C188.539 357.391 189.599 358.824 189.926 360.685L190.973 366.642C191.166 367.732 191.102 368.914 190.78 370.151L187.962 381.042C187.15 384.192 184.805 387.2 181.844 388.893L177.483 391.385C175.96 392.256 174.407 392.687 172.984 392.687ZM184.428 359.437C183.611 359.437 182.65 359.725 181.679 360.28L168.471 367.827C165.544 369.5 163.445 373.044 163.885 375.564L164.932 381.521C165.026 382.049 165.227 382.475 165.526 382.784L171.31 388.761C172.174 389.653 173.979 389.554 175.807 388.512L180.167 386.021C182.339 384.779 184.127 382.501 184.716 380.219L187.534 369.327C187.732 368.559 187.782 367.828 187.673 367.213L186.626 361.253C186.487 360.468 186.116 359.93 185.522 359.656C185.206 359.509 184.834 359.437 184.428 359.437Z" fill="#5C6467"/>
<path d="M190.334 424.748C191.533 422.758 193.13 421.117 194.791 420.168C196.452 419.218 198.049 419.034 199.248 419.655L203.88 422.302L203.489 422.525L222.824 435.612V442.636L166.76 474.674V467.649L190.334 424.748Z" fill="#FECB4C"/>
<path d="M171.395 470.298V477.927L184.458 470.463L184.59 464.989L214.236 448.037V453.441L227.457 445.89V438.261L203.877 422.3C202.683 421.683 201.085 421.865 199.426 422.812C197.767 423.76 196.169 425.402 194.966 427.391L171.395 470.298Z" fill="#ED9600"/>
<path d="M282.538 489.433L293.097 483.4L216.896 448.881V451.924L282.538 489.433Z" fill="#EDA600"/>
<path d="M282.537 489.434L293.096 483.4L307.048 493.955L301.008 497.406L282.537 489.434Z" fill="#EDA600"/>
<path d="M237.031 515.438L247.59 509.403L171.389 474.885V477.927L237.031 515.438Z" fill="#EDA600"/>
<path d="M237.031 515.438L247.59 509.404L261.543 519.958L255.502 523.411L237.031 515.438Z" fill="#EDA600"/>
<path d="M282.538 486.392L293.097 480.357L227.455 442.847L216.896 448.881L282.538 486.392Z" fill="#FECB4C"/>
<path d="M282.537 486.392L293.096 480.358L307.048 490.912L301.008 494.365L282.537 486.392Z" fill="#FECB4C"/>
<path d="M237.031 512.395L247.59 506.362L181.948 468.852L171.389 474.885L237.031 512.395Z" fill="#FECB4C"/>
<path d="M237.031 512.395L247.59 506.362L261.543 516.917L255.502 520.369L237.031 512.395Z" fill="#FECB4C"/>
<path d="M166.758 467.65L171.389 470.297V477.927L166.758 475.28V467.65Z" fill="#EDA600"/>
<path d="M307.048 490.913V493.955L301.008 497.406V494.365L307.048 490.913Z" fill="#ED9600"/>
<path d="M261.543 516.917V519.958L255.502 523.411V520.369L261.543 516.917Z" fill="#ED9600"/>
<path d="M175.623 362.44L172.33 363.037L177.133 388.998L180.426 388.401L175.623 362.44Z" fill="#5C6467"/>
<path d="M186.692 357.979C186.667 358.08 185.981 361.518 185.93 361.918C185.879 362.295 185.17 362.622 185.17 362.622C185.17 362.622 184.815 363.173 184.257 363.35C183.699 363.55 182.913 363.5 182.913 363.5C182.913 363.5 177.359 362.647 176.75 361.593C176.192 360.589 175.28 357.252 175.179 356.75V356.725C175.154 356.699 175.154 356.699 175.154 356.699C175.128 356.599 174.468 354.767 170.766 351.705C167.09 348.644 163.819 343.449 163.362 341.667L163.337 339.659L163.312 338.304C163.312 338.304 164.225 337.952 165.391 337.526C165.416 337.5 165.417 337.5 165.417 337.5C167.243 336.822 169.626 335.969 169.981 336.095C170.006 336.07 170.005 336.07 170.005 336.095C170.183 336.446 171.451 337.35 173.581 341.691C175.736 346.033 179.793 354.012 180.148 354.214C180.477 354.44 185.574 355.469 186.132 356.097C186.692 356.725 186.717 357.879 186.692 357.979Z" fill="#FEBFBF"/>
<path d="M175.256 355.796C175.155 356.021 175.129 356.373 175.18 356.724C175.155 356.699 175.155 356.699 175.155 356.699C175.129 356.599 174.47 354.766 170.768 351.704C167.092 348.643 163.821 343.448 163.364 341.666L163.339 339.658L163.314 338.303C163.314 338.303 164.227 337.951 165.393 337.525C165.241 337.7 164.461 339.023 164.588 340.253C164.588 340.554 164.784 341.294 164.937 341.67C165.723 343.678 170.141 349.923 172.062 351.879C174.009 353.864 175.561 355.243 175.561 355.243C175.561 355.243 175.56 355.244 175.256 355.796Z" fill="url(#paint4_linear)"/>
<path d="M178.668 360.734C178.668 360.734 179.188 360.096 179.563 359.112C179.937 358.127 180.203 357.49 180.203 357.49L180.662 359.47L180.696 361.249L181.311 362.374L182.155 362.981L180.363 363.014C180.364 363.014 178.368 361.808 178.668 360.734Z" fill="#FA9698"/>
<path d="M175.835 356.133C175.835 356.133 177.191 355.961 177.841 357.753C178.49 359.545 179.086 361.05 179.547 361.564C180.008 362.079 181.119 362.541 181.119 362.541C181.119 362.541 182.868 363.211 183.076 363.541C183.283 363.87 183.456 364.27 183.366 364.783C183.276 365.296 182.565 365.187 182.498 365.152C182.431 365.118 181.38 364.817 181.38 364.817C181.38 364.817 180.457 364.878 180.114 364.665C179.771 364.452 177.002 362.457 176.63 361.786C176.257 361.115 175.402 359.011 175.298 357.723C175.192 356.435 175.278 356.258 175.835 356.133Z" fill="#FEC7C6"/>
<path d="M132.257 346.851C132.257 346.851 135.182 346.072 137.087 347.484C138.992 348.897 153.756 361.138 157.86 362.535C158.08 362.69 160.437 363.746 161.669 363.905C162.9 364.064 167.104 363.869 167.626 364.152C168.148 364.436 169.505 367.509 169.665 368.084C169.825 368.659 169.782 370.1 169.67 370.357C169.558 370.615 168.13 370.695 168.13 370.695C168.13 370.695 167.974 371.267 167.64 371.702C167.307 372.139 165.868 372.032 165.868 372.032C165.868 372.032 165.61 372.318 164.98 372.354C164.35 372.389 163.98 372.181 163.98 372.181C163.98 372.181 163.534 372.852 162.265 372.403C160.995 371.954 160.891 371.229 160.891 371.229L160.741 369.715C160.741 369.715 157.726 369.697 156.29 368.902C154.853 368.108 154.15 366.875 153.101 366.225C152.052 365.575 130.831 358.64 129.141 353.459C127.45 348.277 132.257 346.851 132.257 346.851Z" fill="#FEBFBF"/>
<path d="M224.445 502.918L276.61 473.108V442.825L224.445 472.635V502.918Z" fill="#C99A6B"/>
<path d="M224.445 502.918L181.782 478.538V448.256L224.445 472.635V502.918Z" fill="#AE835B"/>
<path d="M224.445 472.635L181.782 448.256L233.948 418.447L276.61 442.825L224.445 472.635Z" fill="#87623F"/>
<path d="M206.121 481.306L199.266 477.388V458.246L206.121 462.164V481.306Z" fill="#9C754E"/>
<path d="M206.121 462.163L258.286 432.354L251.431 428.436L199.266 458.246L206.121 462.163Z" fill="#D9AF84"/>
<path d="M181.782 448.256L224.445 472.635L201.424 460.445L181.782 448.256Z" fill="#87623F"/>
<path d="M202.95 460.352L255.115 430.542L254.643 430.272L202.479 460.082L202.95 460.352Z" fill="#D1A986"/>
<path d="M221.637 484.642L212.632 479.498V469.269L221.637 474.413V484.642ZM213.226 479.16L221.043 483.628V474.751L213.226 470.283V479.16Z" fill="#87623F"/>
<path d="M218.128 481.367L216.143 480.233V475.081L218.128 476.216V481.367Z" fill="#87623F"/>
<path d="M220.08 478.312L214.189 474.946L217.135 473.112L220.08 478.312Z" fill="#87623F"/>
<path d="M224.445 471.371L276.61 441.562V411.28L224.445 441.089V471.371Z" fill="#C99A6B"/>
<path d="M224.445 471.371L181.782 446.992V416.709L224.445 441.089V471.371Z" fill="#AE835B"/>
<path d="M224.445 441.089L181.782 416.709L233.948 386.901L276.61 411.279L224.445 441.089Z" fill="#E8B687"/>
<path d="M206.121 449.76L199.266 445.842V426.7L206.121 430.618V449.76Z" fill="#9C754E"/>
<path d="M206.121 430.617L258.286 400.808L251.431 396.89L199.266 426.7L206.121 430.617Z" fill="#D9AF84"/>
<path d="M181.782 416.709L224.445 441.089L201.424 428.899L181.782 416.709Z" fill="#87623F"/>
<path d="M202.95 428.805L255.115 398.997L254.643 398.726L202.479 428.536L202.95 428.805Z" fill="#D1A986"/>
<path d="M221.637 453.098L212.632 447.952V437.72L221.637 442.867V453.098ZM213.226 447.614L221.043 452.082V443.207L213.226 438.739V447.614Z" fill="#87623F"/>
<path d="M218.128 449.82L216.143 448.686V443.535L218.128 444.67V449.82Z" fill="#87623F"/>
<path d="M220.08 446.766L214.189 443.4L217.135 441.566L220.08 446.766Z" fill="#87623F"/>
<path d="M241.613 112.594L633.275 336.655L501.796 411.787L110.135 187.727L241.613 112.594Z" fill="url(#paint5_linear)"/>
<path d="M160.286 59.7052L249.789 6.97485L272.354 20.3435L186.214 67.933L160.286 59.7052Z" fill="#FF618B"/>
<path d="M276.854 5.66635L325.172 35.0239V149.187L303.906 137.035C301.53 120.782 291.523 103.878 279.529 97.0242C267.536 90.17 257.527 95.6365 255.151 109.173L239.292 100.109V27.1305C239.291 8.0517 260.159 -3.87405 276.854 5.66635Z" fill="#FF618B"/>
<path d="M163.771 165.597L177.866 157.163L191.137 150.457C191.137 150.457 179.802 146.89 179.093 146.448C178.384 146.005 160.122 152.458 163.771 165.597Z" fill="#262626"/>
<path d="M180.856 166.386C180.856 179.777 189.082 195.333 199.229 201.131C209.376 206.93 217.602 200.774 217.602 187.384C217.602 173.994 209.376 158.438 199.229 152.64C189.081 146.842 180.856 152.996 180.856 166.386Z" fill="#303030"/>
<path d="M197.332 209.755L210.638 202.347L186.896 151.875L174.167 158.918L197.332 209.755Z" fill="#303030"/>
<path d="M167.05 174.001C167.05 187.391 175.276 202.947 185.422 208.745C195.569 214.543 203.795 208.389 203.795 194.998C203.795 181.608 195.569 166.052 185.422 160.253C175.276 154.455 167.05 160.609 167.05 174.001Z" fill="#494949"/>
<path d="M173.511 178.121C173.511 186.802 178.844 196.888 185.422 200.646C192 204.405 197.333 200.415 197.333 191.734C197.333 183.053 192 172.968 185.422 169.209C178.844 165.45 173.511 169.44 173.511 178.121Z" fill="#969696"/>
<path d="M176.876 180.044C176.876 186.273 180.702 193.509 185.422 196.206C190.142 198.903 193.969 196.04 193.969 189.811C193.969 183.583 190.142 176.347 185.422 173.649C180.702 170.952 176.876 173.816 176.876 180.044Z" fill="white"/>
<path d="M181.291 182.566C181.291 185.577 183.141 189.076 185.422 190.379C187.704 191.683 189.554 190.299 189.554 187.288C189.554 184.278 187.704 180.779 185.422 179.475C183.141 178.172 181.291 179.555 181.291 182.566Z" fill="#383838"/>
<path d="M184.629 176.036C184.629 176.613 184.984 177.284 185.421 177.533C185.859 177.784 186.213 177.518 186.213 176.94C186.213 176.363 185.859 175.692 185.421 175.443C184.984 175.193 184.629 175.458 184.629 176.036Z" fill="#383838"/>
<path d="M179.271 176.036C179.271 176.613 179.626 177.284 180.063 177.533C180.502 177.784 180.856 177.518 180.856 176.94C180.856 176.363 180.502 175.692 180.063 175.443C179.626 175.193 179.271 175.458 179.271 176.036Z" fill="#383838"/>
<path d="M189.553 181.903C189.553 182.48 189.908 183.151 190.345 183.402C190.783 183.651 191.137 183.386 191.137 182.809C191.137 182.232 190.783 181.561 190.345 181.311C189.907 181.062 189.553 181.326 189.553 181.903Z" fill="#383838"/>
<path d="M179.271 187.047C179.271 187.624 179.626 188.295 180.063 188.544C180.502 188.795 180.856 188.529 180.856 187.952C180.856 187.375 180.502 186.703 180.063 186.453C179.626 186.205 179.271 186.47 179.271 187.047Z" fill="#383838"/>
<path d="M189.553 192.914C189.553 193.492 189.908 194.162 190.345 194.412C190.783 194.662 191.137 194.397 191.137 193.819C191.137 193.242 190.783 192.571 190.345 192.322C189.907 192.072 189.553 192.337 189.553 192.914Z" fill="#383838"/>
<path d="M177.992 181.113C177.992 181.69 178.347 182.361 178.784 182.611C179.222 182.861 179.576 182.595 179.576 182.018C179.576 181.44 179.221 180.77 178.784 180.519C178.347 180.27 177.992 180.535 177.992 181.113Z" fill="#383838"/>
<path d="M191.137 188.608C191.137 189.185 191.492 189.856 191.929 190.105C192.367 190.356 192.721 190.089 192.721 189.512C192.721 188.935 192.367 188.264 191.929 188.015C191.492 187.764 191.137 188.031 191.137 188.608Z" fill="#383838"/>
<path d="M184.629 192.914C184.629 193.492 184.984 194.162 185.421 194.412C185.859 194.662 186.213 194.397 186.213 193.819C186.213 193.242 185.859 192.571 185.421 192.322C184.984 192.072 184.629 192.337 184.629 192.914Z" fill="#383838"/>
<path d="M308.491 207.407L242.986 170.331L206.228 191.336L272.032 228.647L308.491 207.407Z" fill="#6B6B6B"/>
<path d="M206.228 191.337L272.355 228.768V246.522L206.228 209.11V191.337Z" fill="#5B5B5B"/>
<path d="M210.445 206.672L246.406 227.108V229.121L210.445 208.692V206.672Z" fill="#8C8C8C"/>
<path d="M210.445 202.277L246.406 222.713V224.725L210.445 204.297V202.277Z" fill="#8C8C8C"/>
<path d="M231.306 90.5462L183.382 62.0834L279.392 7.2085L326.7 36.0227L231.306 90.5462Z" fill="#DF314A"/>
<path d="M309.153 37.698C309.153 37.698 280.708 20.5118 270.482 14.6366C264.766 11.3526 258.307 8.60307 258.307 8.60307C258.307 8.60307 259.386 0.0614755 272.331 2.87931C286.54 5.9723 309.153 15.5393 309.153 15.5393V37.698Z" fill="#DF314A"/>
<path d="M185.697 47.7557L261.528 3.86597L304.632 18.1303L230.545 67.9329L185.697 47.7557Z" fill="#DF314A"/>
<path d="M231.307 204.307L272.355 182.704V66.5127L231.307 89.9732V204.307Z" fill="#ED3554"/>
<path d="M230.545 82.7663L309.152 39.5565V15.5381L230.545 60.6067V82.7663Z" fill="#ED3554"/>
<path d="M434.515 295.988L414.295 307.542V328.042L434.515 316.488V295.988Z" fill="#303030"/>
<path d="M262.788 213.381C262.788 226.772 271.013 242.328 281.16 248.127C291.307 253.925 299.533 247.771 299.533 234.38C299.533 220.99 291.307 205.434 281.16 199.635C271.013 193.837 262.788 199.991 262.788 213.381Z" fill="#303030"/>
<path d="M279.263 256.75L292.569 249.342L268.827 198.87L256.098 205.914L279.263 256.75Z" fill="#303030"/>
<path d="M248.98 220.995C248.98 234.385 257.205 249.941 267.352 255.739C277.499 261.538 285.725 255.383 285.725 241.993C285.725 228.602 277.499 213.046 267.352 207.248C257.205 201.45 248.98 207.605 248.98 220.995Z" fill="#494949"/>
<path d="M255.442 225.116C255.442 233.798 260.775 243.882 267.353 247.641C273.932 251.4 279.264 247.411 279.264 238.729C279.264 230.048 273.932 219.964 267.353 216.205C260.774 212.446 255.442 216.435 255.442 225.116Z" fill="#969696"/>
<path d="M258.806 227.04C258.806 233.268 262.632 240.504 267.352 243.201C272.072 245.898 275.899 243.035 275.899 236.806C275.899 230.578 272.072 223.342 267.352 220.645C262.632 217.948 258.806 220.81 258.806 227.04Z" fill="white"/>
<path d="M263.221 229.562C263.221 232.572 265.071 236.071 267.352 237.375C269.634 238.678 271.484 237.294 271.484 234.284C271.484 231.272 269.634 227.774 267.352 226.471C265.071 225.167 263.221 226.551 263.221 229.562Z" fill="#383838"/>
<path d="M266.561 223.031C266.561 223.608 266.916 224.279 267.353 224.529C267.791 224.778 268.145 224.513 268.145 223.936C268.145 223.358 267.791 222.688 267.353 222.437C266.916 222.188 266.561 222.453 266.561 223.031Z" fill="#383838"/>
<path d="M261.202 223.031C261.202 223.608 261.557 224.279 261.994 224.529C262.432 224.778 262.786 224.513 262.786 223.936C262.786 223.358 262.431 222.688 261.994 222.437C261.557 222.188 261.202 222.453 261.202 223.031Z" fill="#383838"/>
<path d="M271.484 228.898C271.484 229.476 271.839 230.147 272.276 230.397C272.714 230.647 273.068 230.381 273.068 229.804C273.068 229.226 272.713 228.556 272.276 228.307C271.839 228.055 271.484 228.32 271.484 228.898Z" fill="#383838"/>
<path d="M261.202 234.042C261.202 234.619 261.557 235.29 261.994 235.54C262.432 235.79 262.786 235.525 262.786 234.948C262.786 234.37 262.431 233.7 261.994 233.449C261.557 233.2 261.202 233.465 261.202 234.042Z" fill="#383838"/>
<path d="M271.484 239.91C271.484 240.488 271.839 241.158 272.276 241.408C272.714 241.659 273.068 241.392 273.068 240.815C273.068 240.238 272.713 239.567 272.276 239.318C271.839 239.067 271.484 239.333 271.484 239.91Z" fill="#383838"/>
<path d="M259.923 228.108C259.923 228.686 260.278 229.356 260.715 229.605C261.153 229.855 261.507 229.59 261.507 229.012C261.507 228.435 261.152 227.764 260.715 227.515C260.278 227.265 259.923 227.531 259.923 228.108Z" fill="#383838"/>
<path d="M273.068 235.603C273.068 236.18 273.423 236.851 273.86 237.102C274.298 237.351 274.652 237.086 274.652 236.509C274.652 235.932 274.298 235.261 273.86 235.011C273.423 234.761 273.068 235.026 273.068 235.603Z" fill="#383838"/>
<path d="M266.561 239.91C266.561 240.488 266.916 241.158 267.353 241.408C267.791 241.659 268.145 241.392 268.145 240.815C268.145 240.238 267.791 239.567 267.353 239.318C266.916 239.067 266.561 239.333 266.561 239.91Z" fill="#383838"/>
<path d="M305.913 238.377C305.913 251.768 314.139 267.324 324.285 273.123C334.432 278.921 342.658 272.766 342.658 259.375C342.658 245.985 334.432 230.428 324.285 224.63C314.139 218.832 305.913 224.987 305.913 238.377Z" fill="#303030"/>
<path d="M322.389 281.744L335.695 274.337L311.953 223.865L299.224 230.909L322.389 281.744Z" fill="#303030"/>
<path d="M292.105 245.991C292.105 259.381 300.331 274.937 310.478 280.736C320.625 286.534 328.85 280.38 328.85 266.989C328.85 253.599 320.624 238.043 310.478 232.244C300.331 226.446 292.105 232.6 292.105 245.991Z" fill="#494949"/>
<path d="M298.567 250.112C298.567 258.793 303.9 268.878 310.478 272.637C317.056 276.396 322.389 272.406 322.389 263.725C322.389 255.044 317.056 244.959 310.478 241.2C303.9 237.441 298.567 241.431 298.567 250.112Z" fill="#969696"/>
<path d="M301.932 252.034C301.932 258.263 305.758 265.499 310.478 268.196C315.198 270.894 319.024 268.031 319.024 261.802C319.024 255.572 315.198 248.337 310.478 245.64C305.758 242.942 301.932 245.806 301.932 252.034Z" fill="white"/>
<path d="M306.347 254.557C306.347 257.568 308.197 261.066 310.479 262.37C312.761 263.674 314.611 262.29 314.611 259.278C314.611 256.268 312.761 252.77 310.479 251.465C308.196 250.162 306.347 251.546 306.347 254.557Z" fill="#383838"/>
<path d="M309.687 248.026C309.687 248.603 310.042 249.274 310.479 249.524C310.917 249.775 311.271 249.508 311.271 248.931C311.271 248.354 310.917 247.683 310.479 247.434C310.042 247.183 309.687 247.449 309.687 248.026Z" fill="#383838"/>
<path d="M304.328 248.026C304.328 248.603 304.682 249.274 305.12 249.524C305.558 249.775 305.912 249.508 305.912 248.931C305.912 248.354 305.557 247.683 305.12 247.434C304.683 247.183 304.328 247.449 304.328 248.026Z" fill="#383838"/>
<path d="M314.61 253.894C314.61 254.471 314.964 255.142 315.402 255.392C315.84 255.642 316.194 255.376 316.194 254.799C316.194 254.222 315.839 253.551 315.402 253.3C314.964 253.051 314.61 253.316 314.61 253.894Z" fill="#383838"/>
<path d="M304.328 259.038C304.328 259.616 304.682 260.286 305.12 260.537C305.558 260.786 305.912 260.521 305.912 259.944C305.912 259.366 305.557 258.696 305.12 258.445C304.683 258.195 304.328 258.46 304.328 259.038Z" fill="#383838"/>
<path d="M314.61 264.905C314.61 265.483 314.964 266.153 315.402 266.404C315.84 266.654 316.194 266.388 316.194 265.811C316.194 265.234 315.839 264.563 315.402 264.313C314.964 264.062 314.61 264.327 314.61 264.905Z" fill="#383838"/>
<path d="M303.049 253.103C303.049 253.68 303.404 254.351 303.841 254.602C304.279 254.852 304.633 254.586 304.633 254.009C304.633 253.432 304.278 252.761 303.841 252.511C303.404 252.261 303.049 252.526 303.049 253.103Z" fill="#383838"/>
<path d="M316.194 260.599C316.194 261.176 316.549 261.847 316.986 262.096C317.424 262.347 317.778 262.081 317.778 261.504C317.778 260.926 317.423 260.256 316.986 260.006C316.549 259.756 316.194 260.021 316.194 260.599Z" fill="#383838"/>
<path d="M309.687 264.905C309.687 265.483 310.042 266.153 310.479 266.404C310.917 266.654 311.271 266.388 311.271 265.811C311.271 265.234 310.917 264.563 310.479 264.313C310.042 264.062 309.687 264.327 309.687 264.905Z" fill="#383838"/>
<path d="M451.054 289.398L369.802 241.73L333.044 262.735L414.295 310.404L451.054 289.398Z" fill="#6B6B6B"/>
<path d="M414.295 310.277V328.037L333.044 280.503V262.73L414.295 310.277Z" fill="#5B5B5B"/>
<path d="M414.295 322.882V324.897L336.417 279.709V277.688L414.295 322.882Z" fill="#8C8C8C"/>
<path d="M414.295 318.485V320.5L336.417 275.314V273.292L414.295 318.485Z" fill="#8C8C8C"/>
<path d="M431.25 309.325C431.25 322.715 439.475 338.271 449.622 344.069C459.769 349.867 467.995 343.713 467.995 330.323C467.995 316.932 459.768 301.376 449.622 295.578C439.476 289.779 431.25 295.935 431.25 309.325Z" fill="#303030"/>
<path d="M447.728 352.692L461.034 345.285L437.291 294.812L424.562 301.856L447.728 352.692Z" fill="#303030"/>
<path d="M417.443 316.938C417.443 330.33 425.669 345.885 435.815 351.684C445.962 357.482 454.187 351.327 454.187 337.937C454.187 324.546 445.962 308.991 435.815 303.192C425.669 297.393 417.443 303.548 417.443 316.938Z" fill="#494949"/>
<path d="M423.906 321.059C423.906 329.74 429.238 339.825 435.817 343.584C442.395 347.343 447.728 343.353 447.728 334.672C447.728 325.991 442.395 315.906 435.817 312.147C429.238 308.388 423.906 312.379 423.906 321.059Z" fill="#969696"/>
<path d="M427.27 322.982C427.27 329.211 431.096 336.447 435.816 339.144C440.536 341.841 444.362 338.978 444.362 332.749C444.362 326.52 440.536 319.284 435.816 316.587C431.097 313.89 427.27 316.754 427.27 322.982Z" fill="white"/>
<path d="M431.685 325.505C431.685 328.516 433.535 332.014 435.816 333.318C438.098 334.622 439.948 333.238 439.948 330.226C439.948 327.215 438.098 323.718 435.816 322.413C433.535 321.11 431.685 322.494 431.685 325.505Z" fill="#383838"/>
<path d="M435.024 318.974C435.024 319.551 435.378 320.222 435.816 320.472C436.254 320.723 436.608 320.456 436.608 319.879C436.608 319.302 436.254 318.631 435.816 318.382C435.378 318.131 435.024 318.397 435.024 318.974Z" fill="#383838"/>
<path d="M429.667 318.974C429.667 319.551 430.02 320.222 430.458 320.472C430.895 320.723 431.25 320.456 431.25 319.879C431.25 319.302 430.895 318.631 430.458 318.382C430.02 318.131 429.667 318.397 429.667 318.974Z" fill="#383838"/>
<path d="M439.949 324.841C439.949 325.418 440.304 326.089 440.741 326.338C441.178 326.589 441.533 326.323 441.533 325.746C441.533 325.168 441.178 324.497 440.741 324.247C440.303 323.999 439.949 324.264 439.949 324.841Z" fill="#383838"/>
<path d="M429.667 329.985C429.667 330.563 430.02 331.233 430.458 331.483C430.895 331.733 431.25 331.467 431.25 330.89C431.25 330.312 430.895 329.642 430.458 329.392C430.02 329.142 429.667 329.408 429.667 329.985Z" fill="#383838"/>
<path d="M439.949 335.853C439.949 336.43 440.304 337.101 440.741 337.351C441.178 337.601 441.533 337.335 441.533 336.758C441.533 336.181 441.178 335.51 440.741 335.26C440.303 335.01 439.949 335.275 439.949 335.853Z" fill="#383838"/>
<path d="M428.388 324.051C428.388 324.628 428.742 325.299 429.18 325.549C429.618 325.8 429.972 325.534 429.972 324.957C429.972 324.38 429.618 323.709 429.18 323.459C428.742 323.209 428.388 323.474 428.388 324.051Z" fill="#383838"/>
<path d="M441.533 331.546C441.533 332.124 441.887 332.794 442.325 333.043C442.763 333.293 443.117 333.028 443.117 332.451C443.117 331.874 442.762 331.203 442.325 330.953C441.887 330.703 441.533 330.968 441.533 331.546Z" fill="#383838"/>
<path d="M435.024 335.853C435.024 336.43 435.378 337.101 435.816 337.351C436.254 337.601 436.608 337.335 436.608 336.758C436.608 336.181 436.254 335.51 435.816 335.26C435.378 335.01 435.024 335.275 435.024 335.853Z" fill="#383838"/>
<path d="M469.5 331.224C469.5 344.614 477.726 360.17 487.871 365.968C498.018 371.767 506.243 365.612 506.243 352.221C506.243 338.831 498.018 323.275 487.871 317.477C477.725 311.678 469.5 317.833 469.5 331.224Z" fill="#303030"/>
<path d="M485.975 374.591L499.281 367.184L475.54 316.711L462.811 323.755L485.975 374.591Z" fill="#303030"/>
<path d="M455.692 338.837C455.692 352.227 463.918 367.783 474.065 373.582C484.212 379.38 492.437 373.226 492.437 359.836C492.437 346.444 484.211 330.889 474.065 325.09C463.917 319.291 455.692 325.447 455.692 338.837Z" fill="#494949"/>
<path d="M462.155 342.959C462.155 351.64 467.487 361.724 474.066 365.484C480.644 369.243 485.977 365.253 485.977 356.572C485.977 347.891 480.644 337.806 474.066 334.047C467.487 330.288 462.155 334.277 462.155 342.959Z" fill="#969696"/>
<path d="M465.519 344.881C465.519 351.11 469.346 358.345 474.066 361.042C478.786 363.739 482.612 360.876 482.612 354.647C482.612 348.419 478.786 341.183 474.066 338.486C469.345 335.79 465.519 338.652 465.519 344.881Z" fill="white"/>
<path d="M469.933 347.404C469.933 350.415 471.783 353.912 474.065 355.217C476.346 356.52 478.196 355.137 478.196 352.125C478.196 349.114 476.346 345.616 474.065 344.312C471.784 343.008 469.933 344.393 469.933 347.404Z" fill="#383838"/>
<path d="M473.272 340.872C473.272 341.45 473.626 342.12 474.064 342.371C474.501 342.621 474.856 342.355 474.856 341.778C474.856 341.2 474.501 340.53 474.064 340.28C473.627 340.03 473.272 340.295 473.272 340.872Z" fill="#383838"/>
<path d="M467.915 340.872C467.915 341.45 468.27 342.12 468.707 342.371C469.144 342.621 469.499 342.355 469.499 341.778C469.499 341.2 469.144 340.53 468.707 340.28C468.27 340.03 467.915 340.295 467.915 340.872Z" fill="#383838"/>
<path d="M478.197 346.741C478.197 347.318 478.552 347.989 478.989 348.238C479.426 348.488 479.781 348.222 479.781 347.645C479.781 347.068 479.426 346.397 478.989 346.147C478.552 345.897 478.197 346.163 478.197 346.741Z" fill="#383838"/>
<path d="M467.915 351.883C467.915 352.461 468.27 353.131 468.707 353.382C469.144 353.632 469.499 353.366 469.499 352.789C469.499 352.211 469.144 351.541 468.707 351.291C468.27 351.041 467.915 351.306 467.915 351.883Z" fill="#383838"/>
<path d="M478.197 357.752C478.197 358.329 478.552 359 478.989 359.249C479.426 359.5 479.781 359.233 479.781 358.656C479.781 358.079 479.426 357.408 478.989 357.159C478.552 356.908 478.197 357.175 478.197 357.752Z" fill="#383838"/>
<path d="M466.636 345.95C466.636 346.527 466.99 347.198 467.428 347.448C467.866 347.699 468.22 347.432 468.22 346.855C468.22 346.278 467.866 345.607 467.428 345.358C466.99 345.107 466.636 345.373 466.636 345.95Z" fill="#383838"/>
<path d="M479.781 353.445C479.781 354.022 480.135 354.693 480.573 354.943C481.01 355.193 481.365 354.927 481.365 354.35C481.365 353.773 481.01 353.102 480.573 352.851C480.136 352.602 479.781 352.867 479.781 353.445Z" fill="#383838"/>
<path d="M473.272 357.752C473.272 358.329 473.626 359 474.064 359.249C474.501 359.5 474.856 359.233 474.856 358.656C474.856 358.079 474.501 357.408 474.064 357.159C473.627 356.908 473.272 357.175 473.272 357.752Z" fill="#383838"/>
<path d="M501.05 359.112C506.41 356.379 514.27 352.337 514.27 352.337L498.551 345.263L501.05 359.112Z" fill="#494949"/>
<path d="M475.654 316.711L477.1 317.557C491.944 326.243 501.05 342.043 501.05 359.11L496.636 356.456L496.321 354.635C494.457 343.856 488.707 334.111 480.137 327.207L478.196 325.644L475.654 316.711Z" fill="#969696"/>
<path d="M525.888 212.062L251.069 55.1085L347.487 0L622.306 156.954L525.888 212.062Z" fill="#FCFBFA"/>
<path d="M607.877 159.743L342.887 8.58115L348.345 5.79297L613.335 156.954L607.877 159.743Z" fill="#CDC6BC"/>
<path d="M525.377 206.64L260.387 55.4779L265.845 52.6897L530.835 203.851L525.377 206.64Z" fill="#CDC6BC"/>
<path d="M618.515 304.431V320.009L522.097 375.075V359.538L618.515 304.431Z" fill="#303030"/>
<path d="M517.66 356.902L522.274 359.538V375.075L517.66 372.44V356.902Z" fill="#494949"/>
<path d="M526.673 369.701L532.94 366.12V357.85L526.673 361.431V369.701Z" fill="#ED3554"/>
<path d="M524.988 360.468L526.675 361.431V369.701L524.988 368.737V360.468Z" fill="#BF2A40"/>
<path d="M524.988 360.468L531.255 356.902L532.941 357.866L526.674 361.431L524.988 360.468Z" fill="#F95377"/>
<path d="M609.662 320.68L615.929 317.099V308.828L609.662 312.409V320.68Z" fill="#ED3554"/>
<path d="M607.975 311.446L609.662 312.409V320.68L607.975 319.716V311.446Z" fill="#BF2A40"/>
<path d="M607.975 311.446L614.242 307.88L615.929 308.844L609.662 312.409L607.975 311.446Z" fill="#F95377"/>
<path d="M622.307 156.954V276.186V285.554V306.969L525.889 362.035V340.62V331.293V212.062L622.307 156.954Z" fill="#EBE7E3"/>
<path d="M529.322 214.473L618.873 162.984V268.893V277.214V304.554L618.735 304.633L529.322 253.569V214.473Z" fill="#494949"/>
<path d="M529.322 253.569L618.735 304.633L529.322 356.006V253.569Z" fill="#5B5B5B"/>
<path d="M369 146.603L443.49 189.145L454.69 203.662L369 154.738V146.603Z" fill="white"/>
<path d="M369 132.265L425.488 165.121L436.688 179.64L369 140.4V132.265Z" fill="white"/>
<path d="M525.888 211.773V331.292V348.006V362.034L251.069 205.122V191.093V174.339V54.8176L525.888 211.773Z" fill="#DED8D1"/>
<path d="M510.075 211.661L513.639 213.697V344.977L510.075 342.942V211.661Z" fill="#9B897F"/>
<path d="M494.115 202.554L497.679 204.589V335.87L494.115 333.835V202.554Z" fill="#9B897F"/>
<path d="M288.587 84.3215L292.151 86.3575V217.638L288.587 215.603V84.3215Z" fill="#9B897F"/>
<path d="M272.627 75.2146L276.191 77.2496V208.53L272.627 206.495V75.2146Z" fill="#9B897F"/>
<path d="M265.871 206.973L259.604 203.392V195.121L265.871 198.702V206.973Z" fill="white"/>
<path d="M267.556 197.74L265.87 198.703V206.973L267.556 206.01V197.74Z" fill="#BBBBBB"/>
<path d="M267.557 197.739L261.29 194.173L259.604 195.137L265.871 198.702L267.557 197.739Z" fill="#CECECE"/>
<path d="M471.234 324.815L464.967 321.234V312.964L471.234 316.545V324.815Z" fill="white"/>
<path d="M472.919 315.582L471.233 316.545V324.815L472.919 323.851V315.582Z" fill="#BBBBBB"/>
<path d="M472.92 315.582L466.653 312.015L464.967 312.979L471.234 316.545L472.92 315.582Z" fill="#CECECE"/>
<path d="M623.62 161.305L671.91 188.906V330.362L623.62 302.782V161.305Z" fill="#EBE7E3"/>
<path d="M671.91 330.362L674.817 328.22V186.765L671.91 188.906V330.362Z" fill="#CDC6BC"/>
<path d="M623.62 161.305L626.527 159.164L674.817 186.764L671.91 188.905L623.62 161.305Z" fill="#EDEDED"/>
<path d="M666.893 322.618L649.218 312.849V181.202L666.893 190.97V322.618Z" fill="#CDC6BC"/>
<path d="M645.089 310.183L627.415 300.414V168.768L645.089 178.536V310.183Z" fill="#CDC6BC"/>
<path d="M183.194 60.786L231.512 90.1436V204.307L210.246 192.155C207.87 175.902 197.862 158.999 185.869 152.145C173.876 145.292 163.867 150.757 161.491 164.294L145.631 155.231V82.2511C145.631 63.1713 166.499 51.2456 183.194 60.786Z" fill="#BF2A40"/>
<path d="M195.798 68.6624L198.867 70.4152V165.598L195.798 161.855V68.6624Z" fill="#DEDEDE"/>
<path d="M185.869 154.59C196.74 160.802 205.811 176.121 207.966 190.852L210.246 192.156C207.87 175.903 197.862 159 185.869 152.146C173.876 145.293 163.867 150.758 161.491 164.295L163.771 165.598C165.927 153.33 174.998 148.378 185.869 154.59Z" fill="white"/>
<path d="M230.545 82.7664C230.545 82.7664 202.1 65.5802 191.874 59.705C186.158 56.421 179.699 53.6714 179.699 53.6714C179.699 53.6714 180.778 45.1298 193.723 47.9477C207.932 51.0407 230.545 60.6077 230.545 60.6077V82.7664Z" fill="#BF2A40"/>
<path d="M182.719 95.6827C182.719 90.9091 179.759 85.3121 176.142 83.2455L162.661 75.5422C161.234 74.7266 159.919 74.5999 158.838 75.0117C159.919 72.7788 162.133 72.0563 164.701 73.5241L178.181 81.2273C181.799 83.2939 184.758 88.891 184.758 93.6646V124.475C184.758 127.365 183.664 129.294 182.005 129.926C182.447 129.015 182.718 127.878 182.718 126.493V95.6827H182.719Z" fill="#383838"/>
<path d="M178.182 129.396L164.702 121.693C161.085 119.626 158.125 114.029 158.125 109.255V78.4453C158.125 77.0606 158.397 75.9234 158.838 75.0118C159.919 74.6 161.234 74.7267 162.661 75.5423L176.142 83.2456C179.759 85.3132 182.719 90.9093 182.719 95.6829V126.493C182.719 127.877 182.447 129.015 182.006 129.927C180.925 130.338 179.61 130.212 178.182 129.396Z" fill="#494949"/>
<path d="M137.907 147.615L156.71 158.305V168.094L137.907 157.361V147.615Z" fill="#EBE7E3"/>
<path d="M161.784 155.412V165.188L156.71 168.094V158.305L161.784 155.412Z" fill="#CDC6BC"/>
<path d="M161.784 155.412L145.631 146.426V143.152L137.907 147.615L156.71 158.305L161.784 155.412Z" fill="#EDEDED"/>
<path d="M223.066 184.963L216.799 181.382V173.112L223.066 176.693V184.963Z" fill="white"/>
<path d="M224.753 175.73L223.066 176.693V184.963L224.753 183.999V175.73Z" fill="#BBBBBB"/>
<path d="M224.753 175.73L218.486 172.164L216.799 173.128L223.066 176.693L224.753 175.73Z" fill="#CECECE"/>
<path d="M529.322 246.905L560.943 228.813V279.678L529.322 297.822V246.905Z" fill="#AE835B"/>
<path d="M532.597 212.59L560.943 228.812L529.322 246.904V214.578L532.597 212.59Z" fill="#E8B687"/>
<path d="M548.289 248.316L540.699 252.676V240.372L548.289 236.007V248.316Z" fill="#9C754E"/>
<path d="M529.322 225.154L548.289 236.007L540.699 240.386L529.322 233.871V225.154Z" fill="#D9AF84"/>
<path d="M553.101 245.814V253.335L558.566 250.202V242.68L553.101 245.814Z" fill="#9C754E"/>
<path d="M569.204 323.638L569.192 300.416L603.23 280.941V304.115L569.204 323.638Z" fill="#AE835B"/>
<path d="M569.205 323.638L569.193 300.416L535.156 280.941V304.115L569.205 323.638Z" fill="#C99A6B"/>
<path d="M535.156 280.939L569.193 300.415L603.231 280.939L569.205 261.468L535.156 280.939Z" fill="#E8B687"/>
<path d="M590.576 300.443L582.985 304.803V292.499L590.576 288.134V300.443Z" fill="#9C754E"/>
<path d="M590.576 288.134L556.586 268.684L548.979 273.034L582.985 292.514L590.576 288.134Z" fill="#D9AF84"/>
<path d="M573.702 317.605V315.438L585.128 308.878V311.077L573.702 317.605Z" fill="#9C754E"/>
<path d="M573.702 313.729V311.562L585.128 305.002V307.201L573.702 313.729Z" fill="#9C754E"/>
<path d="M595.387 297.942V305.462L600.852 302.329V294.807L595.387 297.942Z" fill="#9C754E"/>
<path d="M542.013 298.417V306.254L536.548 303.128V295.292L542.013 298.417Z" fill="#9C754E"/>
<path d="M549.471 302.697V310.534L544.006 307.409V299.573L549.471 302.697Z" fill="#9C754E"/>
<path d="M567.714 301.379V312.64L556.482 306.217V294.942L567.714 301.379Z" fill="#D9AF84"/>
<path d="M566.339 303.681V301.848L557.502 296.805V298.608L566.339 303.681Z" fill="#9C754E"/>
<path d="M529.398 323.084L558.223 306.592V329.766L529.398 346.305V323.084Z" fill="#AE835B"/>
<path d="M529.398 290.118L558.223 306.59L529.398 323.083V290.118Z" fill="#E8B687"/>
<path d="M545.568 326.094L537.979 330.455V318.15L545.568 313.785V326.094Z" fill="#9C754E"/>
<path d="M529.398 304.542L545.568 313.785L537.978 318.165L529.398 313.259V304.542Z" fill="#D9AF84"/>
<path d="M529.398 297.989L542.047 290.752V304.315L529.398 311.574V297.989Z" fill="#AE835B"/>
<path d="M529.398 283.547L542.047 290.775L529.398 298.013V283.547Z" fill="#E8B687"/>
<path d="M529.398 298.008L536.494 293.928V301.079L529.398 305.156V298.008Z" fill="#9C754E"/>
<path d="M569.565 294.425L569.557 280.854L591.535 268.28V281.858L569.565 294.425Z" fill="#AE835B"/>
<path d="M569.565 294.425L569.557 280.854L543.895 266.173V279.744L569.565 294.425Z" fill="#C99A6B"/>
<path d="M543.895 266.173L569.557 280.854L591.535 268.279L565.888 253.601L543.895 266.173Z" fill="#E8B687"/>
<path d="M571.203 291.943V290.543L578.582 286.308V287.727L571.203 291.943Z" fill="#9C754E"/>
<path d="M571.203 289.439V288.041L578.582 283.805V285.225L571.203 289.439Z" fill="#9C754E"/>
<path d="M549.395 271.681V277.994L544.993 275.477V269.164L549.395 271.681Z" fill="#9C754E"/>
<path d="M567.835 282.27V289.804L556.604 283.379V275.832L567.835 282.27Z" fill="#D9AF84"/>
<path d="M566.459 284.572V282.739L557.624 277.696V279.499L566.459 284.572Z" fill="#9C754E"/>
<path d="M585.981 278.584L578.391 282.945V275.797L585.981 271.432V278.584Z" fill="#9C754E"/>
<path d="M585.981 271.432L560.354 256.764L552.743 261.115L578.391 275.811L585.981 271.432Z" fill="#D9AF84"/>
<path d="M533.295 214.203L485.006 241.804V383.26L533.295 355.681V214.203Z" fill="#EBE7E3"/>
<path d="M485.007 383.26L482.1 381.119V239.663L485.007 241.804V383.26Z" fill="#9B897F"/>
<path d="M533.296 214.203L530.389 212.062L482.1 239.663L485.007 241.804L533.296 214.203Z" fill="#EDEDED"/>
<path d="M490.023 375.516L507.697 365.747V234.101L490.023 243.869V375.516Z" fill="#CDC6BC"/>
<path d="M511.828 363.082L529.502 353.313V221.666L511.828 231.434V363.082Z" fill="#CDC6BC"/>
<path d="M365.521 191.363L371.994 195.062C374.616 196.56 376.738 198.53 378.362 200.973C379.986 203.415 380.8 206.115 380.8 209.065C380.8 212.069 379.982 213.861 378.346 214.441C376.71 215.022 374.499 214.517 371.716 212.926L360.128 206.304V178.163L378.502 188.662V193.761L365.522 186.344V191.363H365.521ZM375.508 205.962C375.508 203.275 374.092 201.122 371.262 199.504L365.52 196.223V204.325L371.297 207.626C374.104 209.231 375.508 208.677 375.508 205.962Z" fill="#BF2A40"/>
<path d="M403.14 202.741V207.8L389.951 200.263V206.39L402.061 213.31V218.172L389.951 211.251V218.168L403.383 225.843V231.021L384.557 220.263V192.122L403.14 202.741Z" fill="#BF2A40"/>
<path d="M425.517 215.528V220.785L418.07 216.529V239.413L412.607 236.291V213.407L405.16 209.151V203.895L425.517 215.528Z" fill="#BF2A40"/>
<path d="M440.688 224.159L450.118 257.727L444.411 254.466L442.462 247.069L433.241 241.799L431.221 246.929L425.654 243.748L435.086 220.958L440.688 224.159ZM441.139 241.806L437.869 229.464L434.562 238.048L441.139 241.806Z" fill="#BF2A40"/>
<path d="M361.964 225.078L360.127 224.028V214.148L361.56 214.966V223.027L361.594 223.047L365.505 217.221L367.342 218.271V228.151L365.909 227.333V219.272L365.875 219.252L361.964 225.078Z" fill="#6F6F6E"/>
<path d="M374.306 232.13L372.873 231.31V221.431L374.306 222.25V226.176L378.655 228.661V224.735L380.088 225.555V235.435L378.655 234.615V230.097L374.306 227.612V232.13Z" fill="#6F6F6E"/>
<path d="M397.351 240.205C397.351 241.188 397.244 242.001 397.031 242.645C396.817 243.288 396.438 243.714 395.893 243.92C395.348 244.126 394.665 243.993 393.845 243.525C393.53 243.345 393.193 243.051 392.833 242.64C392.474 242.23 392.204 241.852 392.024 241.507L391.99 241.487V246.044L390.574 245.234V240.677L390.54 240.658C390.36 240.797 390.091 240.867 389.731 240.866C389.371 240.864 389.034 240.774 388.719 240.594C387.899 240.125 387.216 239.477 386.671 238.648C386.126 237.82 385.747 236.962 385.533 236.073C385.319 235.185 385.213 234.25 385.213 233.267C385.213 231.709 385.517 230.655 386.124 230.102C386.73 229.548 387.557 229.57 388.602 230.168C388.961 230.374 389.33 230.696 389.706 231.134C390.083 231.573 390.355 231.973 390.524 232.339L390.575 232.367V227.792L391.991 228.601V233.177L392.042 233.206C392.21 233.034 392.483 232.944 392.86 232.937C393.236 232.928 393.605 233.027 393.964 233.232C395.009 233.829 395.835 234.752 396.443 235.999C397.047 237.246 397.351 238.648 397.351 240.205ZM390.573 239.014V234.035C390.449 233.48 390.216 232.996 389.874 232.582C389.53 232.168 389.174 231.857 388.803 231.645C388.095 231.24 387.567 231.274 387.219 231.745C386.87 232.215 386.696 233.02 386.696 234.156C386.696 234.654 386.729 235.136 386.797 235.602C386.864 236.068 386.976 236.546 387.134 237.039C387.291 237.531 387.519 237.977 387.817 238.377C388.115 238.777 388.472 239.096 388.888 239.334C389.315 239.578 389.689 239.668 390.009 239.602C390.329 239.534 390.517 239.338 390.573 239.014ZM395.867 239.397C395.867 238.26 395.693 237.258 395.344 236.389C394.995 235.52 394.467 234.882 393.759 234.478C393.388 234.266 393.031 234.17 392.689 234.192C392.346 234.213 392.113 234.431 391.989 234.845V239.823C392.046 240.213 392.234 240.624 392.554 241.056C392.874 241.488 393.248 241.827 393.676 242.07C394.091 242.308 394.449 242.397 394.746 242.336C395.044 242.277 395.272 242.091 395.429 241.779C395.586 241.466 395.699 241.117 395.767 240.727C395.833 240.338 395.867 239.895 395.867 239.397Z" fill="#6F6F6E"/>
<path d="M403.167 239.872C403.931 239.364 404.971 239.486 406.285 240.237C407.6 240.988 408.623 242.026 409.354 243.35C410.084 244.674 410.449 246.153 410.449 247.787C410.449 249.458 410.084 250.551 409.354 251.067C408.623 251.58 407.594 251.459 406.268 250.701C404.943 249.943 403.903 248.889 403.15 247.54C402.397 246.19 402.02 244.699 402.02 243.065C402.021 241.444 402.403 240.38 403.167 239.872ZM408.25 243.762C407.761 242.787 407.095 242.059 406.253 241.577C405.41 241.095 404.742 241.065 404.247 241.484C403.752 241.904 403.505 242.7 403.505 243.875C403.505 245.088 403.749 246.175 404.238 247.137C404.727 248.099 405.408 248.831 406.285 249.332C407.128 249.814 407.788 249.845 408.266 249.43C408.743 249.014 408.984 248.199 408.984 246.986C408.984 245.812 408.739 244.737 408.25 243.762Z" fill="#6F6F6E"/>
<path d="M423.312 260.134L421.491 259.094L418.321 252.419L416.956 253.15V256.501L415.523 255.683V245.803L416.956 246.622V251.332L420.935 248.895L422.856 249.993L419.35 251.876L423.312 260.134Z" fill="#6F6F6E"/>
<path d="M428.337 254.255C429.101 253.747 430.141 253.869 431.456 254.62C432.771 255.371 433.793 256.41 434.524 257.733C435.254 259.057 435.62 260.536 435.62 262.17C435.62 263.842 435.254 264.934 434.524 265.45C433.793 265.964 432.764 265.842 431.438 265.084C430.112 264.326 429.073 263.273 428.32 261.924C427.566 260.574 427.19 259.082 427.19 257.448C427.19 255.828 427.572 254.764 428.337 254.255ZM433.419 258.146C432.93 257.171 432.264 256.442 431.422 255.96C430.579 255.478 429.91 255.448 429.416 255.867C428.921 256.287 428.674 257.083 428.674 258.258C428.674 259.471 428.919 260.559 429.408 261.522C429.897 262.484 430.579 263.215 431.456 263.716C432.299 264.198 432.959 264.23 433.437 263.814C433.914 263.398 434.154 262.584 434.154 261.37C434.153 260.195 433.908 259.121 433.419 258.146Z" fill="#6F6F6E"/>
<path d="M450.118 275.451L448.685 274.632V266.839L448.634 266.81L446.055 273.129L444.739 272.377L442.16 263.11L442.109 263.081V270.875L440.676 270.055V260.176L442.733 261.351L445.38 270.867L445.413 270.886L448.06 264.395L450.117 265.571V275.451H450.118Z" fill="#6F6F6E"/>
<path d="M319.877 162.824L305.12 160.341V182.579L319.877 186.984V162.824Z" fill="#BF2A40"/>
<path d="M321.633 187.508L336.389 191.913V165.602L321.633 163.119V187.508Z" fill="#6F6F6E"/>
<path d="M338.146 165.898V192.438L352.902 196.842V168.381L338.146 165.898Z" fill="#BF2A40"/>
<path d="M338.146 215.901L352.902 226.096V198.851L338.146 194.531V215.901Z" fill="#BF2A40"/>
<path d="M319.877 189.105L305.12 184.715V193.12L319.877 203.299V189.105Z" fill="#BF2A40"/>
<path d="M321.632 204.509L336.389 214.688V194.017L321.632 189.627V204.509Z" fill="#BF2A40"/>
<defs>
<linearGradient id="paint0_linear" x1="0.00031902" y1="310.375" x2="929.932" y2="310.375" gradientUnits="userSpaceOnUse">
<stop offset="0.0104" stop-color="#F1F1F1" stop-opacity="0"/>
<stop offset="1" stop-color="#F1F1F1"/>
</linearGradient>
<linearGradient id="paint1_linear" x1="168.575" y1="333.193" x2="190.097" y2="360.72" gradientUnits="userSpaceOnUse">
<stop offset="0.1224" stop-color="#FCA4B5"/>
<stop offset="0.9896" stop-color="#FFADB7"/>
</linearGradient>
<linearGradient id="paint2_linear" x1="146.138" y1="303.122" x2="152.951" y2="311.835" gradientUnits="userSpaceOnUse">
<stop offset="0.1224" stop-color="#FCA4B5"/>
<stop offset="0.9896" stop-color="#FFADB7"/>
</linearGradient>
<linearGradient id="paint3_linear" x1="144.084" y1="294.144" x2="140.333" y2="294.784" gradientUnits="userSpaceOnUse">
<stop offset="0.1224" stop-color="#FEB9B8"/>
<stop offset="1" stop-color="#FFDEDE"/>
</linearGradient>
<linearGradient id="paint4_linear" x1="170.273" y1="347.742" x2="179.888" y2="360.04" gradientUnits="userSpaceOnUse">
<stop offset="0.1224" stop-color="#FCA4B5"/>
<stop offset="0.9896" stop-color="#FFADB7"/>
</linearGradient>
<linearGradient id="paint5_linear" x1="110.134" y1="262.191" x2="633.274" y2="262.191" gradientUnits="userSpaceOnUse">
<stop stop-color="#EBEBEB"/>
<stop offset="1" stop-color="#E4E4E4"/>
</linearGradient>
</defs>
</svg>
