<svg width="577" height="460" viewBox="0 0 577 460" fill="none" xmlns="http://www.w3.org/2000/svg">
<path d="M83.8621 218.132C196.175 163.046 378.842 163.326 491.861 218.758C604.879 274.19 605.451 363.782 493.138 418.868C380.825 473.954 198.158 473.674 85.1397 418.242C-27.8793 362.81 -28.4507 273.218 83.8621 218.132Z" fill="url(#paint0_linear)"/>
<path d="M192.963 246.935C208.823 237.731 234.47 237.68 250.228 246.833C265.986 255.986 265.918 270.867 250.058 280.071C234.198 289.275 208.551 289.31 192.776 280.173C177.001 271.037 177.086 256.14 192.963 246.935Z" fill="#D2D2D2"/>
<path d="M148.963 236.935C164.823 227.731 190.47 227.68 206.228 236.833C221.986 245.986 221.918 260.867 206.058 270.071C190.198 279.275 164.551 279.31 148.776 270.173C133.001 261.037 133.086 246.14 148.963 236.935Z" fill="#D2D2D2"/>
<path d="M230.203 244.607C230.203 244.607 233.291 247.972 237.414 251.998C241.229 255.725 242.413 256.799 245.953 260.259C248.023 262.283 246.319 264.14 242.377 263.991C238.91 263.855 231.076 262.179 226.678 260.585C223.558 259.466 217.845 256.301 214.924 254.448C212.004 252.596 211.435 250.028 211.435 250.028V243.81L230.203 244.607Z" fill="#9C754E"/>
<path d="M173.815 239.09C175.636 241.572 177.676 243.885 179.909 246.002C183.724 249.729 184.85 251.206 188.231 255.653C188.999 256.668 189.447 259.571 185.519 259.417C182.051 259.285 176.776 257.804 172.382 256.246C167.369 254.462 163.133 249.398 160.213 247.546C157.293 245.694 156 241.6 156 241.6L158.016 235.476L173.815 239.09Z" fill="#9C754E"/>
<path d="M233.422 101.087L235.447 94.9007L222.957 81.0102L233.327 66.5763C236.708 71.6216 237.761 73.1615 241.061 78.714C243.471 82.763 247.693 90.2132 247.914 91.7485C248.055 92.7449 247.462 99.9007 246.906 105.48C242.591 103.512 238.067 102.039 233.422 101.087Z" fill="#FFC5B3"/>
<path d="M233.381 132.423L233.39 117.111L208.894 102.922V118.243L233.381 132.423Z" fill="#C99A6B"/>
<path d="M233.381 132.423L233.39 117.111L262 100.544V115.856L233.381 132.423Z" fill="#AE835B"/>
<path d="M262 100.544L233.39 117.111L208.894 102.922L237.481 86.359L262 100.544Z" fill="#E8B687"/>
<path d="M231.555 129.62V128.039L223.332 123.261V124.865L231.555 129.62Z" fill="#9C754E"/>
<path d="M231.555 126.798V125.218L223.332 120.44V122.038L231.555 126.798Z" fill="#9C754E"/>
<path d="M255.866 106.758V113.882L260.775 111.042V103.918L255.866 106.758Z" fill="#9C754E"/>
<path d="M235.312 118.705V127.206L247.829 119.96V111.441L235.312 118.705Z" fill="#F4D5BE"/>
<path d="M236.844 121.305V119.235L246.694 113.547V115.58L236.844 121.305Z" fill="#9C754E"/>
<path d="M215.082 114.547L223.544 119.466V111.4L215.082 106.477V114.547Z" fill="#9C754E"/>
<path d="M215.082 106.477L243.651 89.9279L252.136 94.8373L223.544 111.418L215.082 106.477Z" fill="#F4D5BE"/>
<path d="M175.383 138.234C173.923 115.422 186.476 103.433 186.476 103.433C185.477 95.734 221.067 106.504 221.067 106.504C221.067 106.504 228.688 147.827 231.916 169.588C235.577 194.317 233.362 244.688 233.362 244.688C233.362 244.688 232.91 250.064 223.702 250.028C216.646 250.001 211.443 243.81 211.443 243.81L210.697 186.491L202.533 145.834C202.533 145.834 194.663 178.896 192.163 190.73C189.514 203.352 179.343 240.658 179.343 240.658C179.343 240.658 172.757 248.239 164.588 244.145C156.42 240.051 158.016 235.476 158.016 235.476C158.016 235.476 159.616 209.009 170.13 185.318C171.007 167.333 176.057 148.71 175.383 138.234Z" fill="#7282B5"/>
<path d="M216.198 46.6125C216.198 46.6125 223.987 47.6723 230.555 57.618C234.018 62.8625 241.061 76.4767 241.061 76.4767C241.061 76.4767 234.014 78.234 225.447 86.5537C214.06 76.2457 207.605 51.4313 216.198 46.6125Z" fill="#BF2A40"/>
<path d="M216.199 46.6124C216.199 46.6124 219.06 52.1107 221.691 62.2013C224.322 72.2919 223.378 119.203 223.378 119.203C223.378 119.203 212.528 126.903 194.361 125.385C183.557 124.48 178.051 117.786 178.051 117.786C178.051 117.786 170.285 66.608 171.162 60.0409C172.039 53.4739 187.087 43.2248 187.087 43.2248C187.087 43.2248 205.273 42.3008 216.199 46.6124Z" fill="#DF314A"/>
<path d="M203.767 40.1994L205.878 52.5364C205.878 52.5364 199.613 59.579 193.483 54.3118C187.354 49.0445 186.477 46.6125 186.477 46.6125L189.496 29.8144L203.767 40.1994Z" fill="#FFAD97"/>
<path d="M189.98 31.9249C192.128 39.0128 199.758 44.6922 203.384 46.2909C209.866 49.1487 222.021 32.3371 217.275 18.8769C212.755 6.0462 200.35 7.32338 195.125 11.318C191.052 14.4249 187.562 23.9493 189.98 31.9249Z" fill="#FFC5B3"/>
<path d="M218.346 23.1523C216.19 25.3624 213.039 27.8081 206.548 26.7211C203.324 26.1803 200.231 25.0406 197.425 23.3606L196.336 30.5028C195.681 30.3742 195.051 30.1418 194.469 29.8144C194.361 26.9929 193.353 26.1142 191.807 26.9566C190.053 27.9032 189.998 31.9385 189.998 31.9385C188.395 30.1981 187.238 28.0931 186.628 25.8049C186.018 23.5167 185.972 21.1142 186.495 18.8044C187.607 13.7908 194.365 3.88589 203.786 4.76452C213.206 5.64314 218.703 11.8796 219.851 17.2782C220.085 18.3066 220.071 19.3762 219.809 20.3979C219.547 21.4196 219.046 22.3639 218.346 23.1523Z" fill="#9C754E"/>
<path d="M241.03 128.316V157.913C241.028 158.447 240.886 158.972 240.618 159.435C240.351 159.897 239.967 160.282 239.506 160.55C239.044 160.818 238.52 160.96 237.987 160.962C237.453 160.964 236.928 160.826 236.464 160.562L218.342 150.073C217.878 149.804 217.494 149.417 217.226 148.952C216.959 148.487 216.818 147.96 216.818 147.424V117.827C216.818 117.289 216.958 116.762 217.226 116.296C217.494 115.831 217.879 115.445 218.344 115.176C218.808 114.907 219.335 114.766 219.871 114.766C220.407 114.766 220.934 114.908 221.398 115.177L239.52 125.666C239.981 125.937 240.363 126.324 240.628 126.789C240.893 127.254 241.032 127.78 241.03 128.316Z" fill="#3D3D3D"/>
<path d="M239.583 160.508L236.369 162.351L235.189 160.277L238.765 158.252L239.583 160.508Z" fill="#3D3D3D"/>
<path d="M219.567 117.206L216.258 119.104L215.336 116.889L218.396 115.136L219.567 117.206Z" fill="#3D3D3D"/>
<path d="M238.019 130.037V159.634C238.019 160.171 237.879 160.699 237.611 161.164C237.343 161.629 236.958 162.016 236.493 162.284C236.029 162.553 235.502 162.694 234.966 162.694C234.43 162.694 233.904 162.552 233.44 162.283L215.317 151.794C214.853 151.525 214.468 151.139 214.2 150.674C213.932 150.209 213.79 149.682 213.789 149.145V119.566C213.784 119.025 213.922 118.493 214.189 118.023C214.456 117.553 214.843 117.163 215.31 116.891C215.777 116.62 216.307 116.478 216.847 116.479C217.387 116.48 217.916 116.625 218.382 116.898L236.509 127.387C236.969 127.659 237.351 128.046 237.616 128.511C237.88 128.976 238.019 129.502 238.019 130.037Z" fill="#9C754E"/>
<path d="M233.028 131.133V160.29L214.838 149.756V120.603L233.028 131.133Z" fill="#F4D5BE"/>
<path d="M233.028 160.29L235.189 159.036V129.878L233.028 131.133V160.29Z" fill="#9C9C9C"/>
<path d="M233.028 131.133L235.189 129.878L217.008 119.344L214.838 120.603L233.028 131.133Z" fill="#BFBFBF"/>
<path d="M231.975 135.241V137.202L215.892 127.876V125.933L231.975 135.241Z" fill="#9C754E"/>
<path d="M231.975 139.86V141.821L215.892 132.5V130.557L231.975 139.86Z" fill="#9C754E"/>
<path d="M231.975 144.484V146.441L215.892 137.12V135.177L231.975 144.484Z" fill="#9C754E"/>
<path d="M231.975 149.104V151.065L215.892 141.74V139.801L231.975 149.104Z" fill="#9C754E"/>
<path d="M231.975 153.723V155.684L215.892 146.364V144.421L231.975 153.723Z" fill="#9C754E"/>
<path d="M228.951 132.129V127.528L236.686 123.057V124.031L229.769 128.03V131.654L228.951 132.129Z" fill="#ECB879"/>
<path d="M217.785 121.065L228.951 127.528V132.129L217.785 125.653V121.065Z" fill="#E8A34C"/>
<path d="M236.685 123.057L228.951 127.528L217.785 121.065L225.52 116.617L236.685 123.057Z" fill="#F1CCA1"/>
<path d="M184.144 88.859C184.144 88.859 186.106 108.374 189.184 112.74C191.408 115.911 201.304 122.487 207.931 126.142C210.48 127.546 213.057 128.039 213.771 128.442C213.771 130.748 213.771 133.651 213.771 133.651C213.771 133.651 220.796 138.461 222.939 141.876C224.656 144.625 225.791 151.214 219.024 150.431C213.387 149.779 207.244 142.07 205.286 140.231C201.593 136.762 183.276 125.195 180.329 122.392C173.322 115.721 168.069 88.8771 168.069 88.8771C168.069 88.8771 174.443 86.7983 184.144 88.859Z" fill="#FFC5B3"/>
<path d="M176.292 52.2375C172.879 54.0491 166.628 59.1714 165.443 71.7982C164.16 85.6842 168.07 94.8961 168.07 94.8961L186.802 91.9704C186.802 91.9704 189.714 64.2031 176.292 52.2375Z" fill="#BF2A40"/>
<path d="M219.834 17.2419C219.834 17.2419 231.944 25.779 234.014 27.5861C236.085 29.3932 228.083 36.6849 219.834 34.0716C211.584 31.4584 197.426 23.3741 197.426 23.3741L219.834 17.2419Z" fill="#BF2A40"/>
<path d="M219.833 17.2419C219.833 17.2419 206.037 25.8153 197.425 23.3742C188.814 20.9331 186.477 18.7682 186.477 18.7682C186.477 18.7682 187.227 0.733704 203.053 0.733704C218.879 0.733704 219.833 17.2419 219.833 17.2419Z" fill="#DF314A"/>
<path d="M202.348 1.31794C202.348 2.04258 203.41 2.63135 204.721 2.63135C206.032 2.63135 207.081 2.04258 207.081 1.31794C207.081 0.593299 206.032 0 204.721 0C203.41 0 202.348 0.58877 202.348 1.31794Z" fill="#BF2A40"/>
<path d="M251.793 124.375C252.48 122.976 251.729 118.284 247.932 119.117C244.135 119.951 239.949 122.677 241.283 128.021C242.304 132.116 250.518 126.952 251.793 124.375Z" fill="#FFC5B3"/>
<path d="M310 344.02L410.002 402.052L510 344.02L410.037 286L310 344.02Z" fill="#D2D2D2"/>
<path d="M416.55 379.42C416.55 384.121 411.732 387.93 405.785 387.93C399.838 387.93 395.023 384.121 395.023 379.42C395.023 374.719 399.842 370.91 405.785 370.91C411.728 370.91 416.55 374.719 416.55 379.42Z" fill="#3D3D3D"/>
<path d="M343.094 336.426C343.094 341.128 338.276 344.937 332.333 344.937C326.39 344.937 321.571 341.128 321.571 336.426C321.571 331.725 326.39 327.912 332.333 327.912C338.276 327.912 343.094 331.725 343.094 336.426Z" fill="#3D3D3D"/>
<path d="M473.054 171.664H469.151V300.4H473.054V171.664Z" fill="#4E4E4E"/>
<path d="M469.152 156.354H455.125V294.263H469.152V156.354Z" fill="#3D3D3D"/>
<path d="M517 318.339L417.002 376.247V388L517 330.011V318.339Z" fill="#4E4E4E"/>
<path d="M417.002 376.247L317 318.339V329.991L417.002 388V376.247Z" fill="#3D3D3D"/>
<path d="M317 318.339L417.002 376.371L517 318.339L417.037 260.319L317 318.339Z" fill="#6D6D6D"/>
<path d="M488.63 157.692V186.105L436.083 155.624V127.208L488.63 157.692Z" fill="#3D3D3D"/>
<path d="M475.245 154.891V173.553L440.005 153.154V134.45L475.245 154.891Z" fill="#B9B9B9"/>
<path d="M494.264 154.484L488.63 157.692V186.105L494.264 182.839V154.484Z" fill="#4E4E4E"/>
<path d="M479.043 171.827V175.783L486.11 179.844V175.927L479.043 171.827Z" fill="#B9B9B9"/>
<path d="M479.043 164.519V168.475L486.11 172.536V168.619L479.043 164.519Z" fill="#B9B9B9"/>
<path d="M479.043 157.149V161.105L486.11 165.166V161.249L479.043 157.149Z" fill="#B9B9B9"/>
<path d="M436.083 127.208L441.697 124L494.264 154.484L488.63 157.692L436.083 127.208Z" fill="#6F6F6F"/>
<path d="M442.621 138.48V142.762L471.652 159.612V155.314L442.621 138.48Z" fill="#3D3D3D"/>
<path d="M417.021 355.957L417.002 278.43L478.707 242.62V320.058L417.021 355.957Z" fill="#C99A6B"/>
<path d="M417.021 355.957L417.002 278.43L355.293 242.62V320.058L417.021 355.957Z" fill="#AE835B"/>
<path d="M355.293 242.62L417.002 278.43L478.707 242.62L417.021 206.818L355.293 242.62Z" fill="#E8B687"/>
<path d="M455.767 278.48L442.007 286.502V263.876L455.767 255.851V278.48Z" fill="#9C754E"/>
<path d="M455.767 255.851L394.146 220.088L380.355 228.086L442.007 263.903L455.767 255.851Z" fill="#F4D5BE"/>
<path d="M425.175 344.863V340.876L445.89 328.816V332.858L425.175 344.863Z" fill="#9C754E"/>
<path d="M425.175 337.734V333.75L445.89 321.691V325.732L425.175 337.734Z" fill="#9C754E"/>
<path d="M464.487 308.708V322.532L474.399 316.776V302.944L464.487 308.708Z" fill="#9C754E"/>
<path d="M368.867 307.261V321.671L358.96 315.923V301.513L368.867 307.261Z" fill="#9C754E"/>
<path d="M382.388 315.131V329.538L372.48 323.793V309.387L382.388 315.131Z" fill="#9C754E"/>
<path d="M379.324 265.144V285.85L358.96 274.039V253.306L379.324 265.144Z" fill="#F4D5BE"/>
<path d="M376.827 269.376V266.006L360.811 256.735V260.052L376.827 269.376Z" fill="#9C754E"/>
<g clip-path="url(#clip0)">
<path d="M123.793 397.899L205.069 446L282.007 400.962L200.725 352.707L123.793 397.899Z" fill="#D2D2D2"/>
<path d="M264.57 391.901L196.731 431.109L198.85 432.438L266.884 393.136L264.57 391.901Z" fill="#CAAE68"/>
<path d="M266.884 393.129L198.85 432.425V442.114L266.884 402.811V393.129Z" fill="#72522F"/>
<path d="M196.731 440.899V431.109L198.85 432.425V442.114L196.731 440.899Z" fill="#9F7D4A"/>
<path d="M188.839 347.963L121 387.171L123.111 388.5L191.153 349.198L188.839 347.963Z" fill="#CAAE68"/>
<path d="M191.153 349.191L123.111 388.487V398.176L191.153 358.874V349.191Z" fill="#72522F"/>
<path d="M121 396.961V387.171L123.111 388.494V398.176L121 396.961Z" fill="#9F7D4A"/>
<path d="M225.608 368.846L157.77 408.061L159.881 409.39L227.922 370.087L225.608 368.846Z" fill="#CAAE68"/>
<path d="M227.922 370.081L159.881 409.376V419.058L227.922 379.763V370.081Z" fill="#72522F"/>
<path d="M157.77 417.844V408.061L159.881 409.376V419.058L157.77 417.844Z" fill="#9F7D4A"/>
<path d="M198.849 429.469L121 384.506V387.637L198.849 432.6V429.469Z" fill="#9F7D4A"/>
<path d="M207.004 424.901L198.849 429.469L121 384.506L129.122 379.945L207.004 424.901Z" fill="#CAAE68"/>
<path d="M207.005 424.901L198.85 429.469V435.299L207.005 430.549V424.901Z" fill="#72522F"/>
<path d="M214.027 420.516L135.962 375.37V378.501L214.027 423.647V420.516Z" fill="#9F7D4A"/>
<path d="M222.189 415.955L214.027 420.516L135.962 375.37L144.083 370.809L222.189 415.955Z" fill="#CAAE68"/>
<path d="M222.188 415.955L214.026 420.516V426.352L222.188 421.602V415.955Z" fill="#72522F"/>
<path d="M229.574 411.711L151.327 366.464V369.595L229.574 414.841V411.711Z" fill="#9F7D4A"/>
<path d="M237.736 407.143L229.574 411.711L151.327 366.464L159.442 361.903L237.736 407.143Z" fill="#CAAE68"/>
<path d="M237.736 407.143L229.574 411.711V417.54L237.736 412.79V407.143Z" fill="#72522F"/>
<path d="M244.758 402.757L166.687 357.801V360.931L244.758 405.888V402.757Z" fill="#9F7D4A"/>
<path d="M252.913 398.196L244.758 402.757L166.687 357.801L174.808 353.24L252.913 398.196Z" fill="#CAAE68"/>
<path d="M252.914 398.196L244.759 402.757V408.594L252.914 403.844V398.196Z" fill="#72522F"/>
<path d="M258.722 394.91L180.468 349.758V352.889L258.722 398.041V394.91Z" fill="#9F7D4A"/>
<path d="M266.884 390.349L258.722 394.91L180.468 349.758L188.589 345.19L266.884 390.349Z" fill="#CAAE68"/>
<path d="M266.884 390.349L258.722 394.91V400.747L266.884 395.997V390.349Z" fill="#72522F"/>
<path d="M164.11 403.587L164.117 379.338L128.953 359.002V383.197L164.11 403.587Z" fill="#AE835B"/>
<path d="M164.11 403.587L164.117 379.338L214.742 350.082V374.284L164.11 403.587Z" fill="#C99A6B"/>
<path d="M214.742 350.082L164.117 379.338L128.953 359.002L179.584 329.753L214.742 350.082Z" fill="#E8B687"/>
<path d="M142.025 379.365L149.87 383.919V371.072L142.025 366.511V379.365Z" fill="#9C754E"/>
<path d="M142.025 366.511L192.616 337.289L200.475 341.83L149.87 371.086L142.025 366.511Z" fill="#F0CBA4"/>
<path d="M161.486 399.573V397.312L149.682 390.457V392.758L161.486 399.573Z" fill="#9C754E"/>
<path d="M161.486 395.524V393.264L149.682 386.416V388.71L161.486 395.524Z" fill="#9C754E"/>
<path d="M207.632 367.388V375.573L213.285 372.307V364.123L207.632 367.388Z" fill="#9C754E"/>
<path d="M199.929 371.855V380.039L205.575 376.774V368.596L199.929 371.855Z" fill="#9C754E"/>
<path d="M192.124 376.342V384.526L197.77 381.261V373.076L192.124 376.342Z" fill="#9C754E"/>
<path d="M165.647 380.343V392.103L177.25 385.397V373.623L165.647 380.343Z" fill="#F0CBA4"/>
<path d="M167.071 382.745V380.836L176.198 375.566V377.449L167.071 382.745Z" fill="#9C754E"/>
<path d="M202.721 426.244L202.734 401.995L167.563 381.652V405.854L202.721 426.244Z" fill="#AE835B"/>
<path d="M202.721 426.244L202.734 401.995L253.352 372.739V396.934L202.721 426.244Z" fill="#C99A6B"/>
<path d="M253.352 372.739L202.734 401.988L167.563 381.652L218.195 352.41L253.352 372.739Z" fill="#E8B687"/>
<path d="M180.637 402.022L188.482 406.576V393.723L180.637 389.168V402.022Z" fill="#9C754E"/>
<path d="M180.637 389.168L231.227 359.94L239.086 364.487L188.482 393.743L180.637 389.168Z" fill="#F0CBA4"/>
<path d="M200.097 422.23V419.963L188.292 413.114V415.408L200.097 422.23Z" fill="#9C754E"/>
<path d="M200.097 418.181V415.914L188.292 409.066V411.36L200.097 418.181Z" fill="#9C754E"/>
<path d="M246.249 390.039V398.223L251.895 394.964V386.78L246.249 390.039Z" fill="#9C754E"/>
<path d="M238.539 394.512V402.697L244.185 399.431V391.247L238.539 394.512Z" fill="#9C754E"/>
<path d="M230.734 398.999V407.183L236.38 403.918V395.733L230.734 398.999Z" fill="#9C754E"/>
<path d="M204.259 403V414.761L215.868 408.047V396.273L204.259 403Z" fill="#F0CBA4"/>
<path d="M205.683 405.402V403.486L214.809 398.223V400.106L205.683 405.402Z" fill="#9C754E"/>
<path d="M164.11 376.834L164.117 352.585L128.953 332.249V356.444L164.11 376.834Z" fill="#AE835B"/>
<path d="M164.11 376.835L164.117 352.585L214.742 323.329V347.532L164.11 376.835Z" fill="#C99A6B"/>
<path d="M214.742 323.329L164.117 352.585L128.953 332.242L179.584 303L214.742 323.329Z" fill="#E8B687"/>
<path d="M142.025 352.612L149.87 357.166V344.313L142.025 339.759V352.612Z" fill="#9C754E"/>
<path d="M142.025 339.759L192.616 310.53L200.475 315.078L149.87 344.333L142.025 339.759Z" fill="#F0CBA4"/>
<path d="M161.486 372.82V370.553L149.682 363.704V366.005L161.486 372.82Z" fill="#9C754E"/>
<path d="M161.486 368.772V366.511L149.682 359.656V361.957L161.486 368.772Z" fill="#9C754E"/>
<path d="M207.632 340.636V348.82L213.285 345.555V337.37L207.632 340.636Z" fill="#9C754E"/>
<path d="M199.929 345.103V353.287L205.575 350.021V341.844L199.929 345.103Z" fill="#9C754E"/>
<path d="M192.124 349.589V357.774L197.77 354.508V346.33L192.124 349.589Z" fill="#9C754E"/>
<path d="M165.647 353.59V365.351L177.25 358.644V346.87L165.647 353.59Z" fill="#F0CBA4"/>
<path d="M167.071 355.992V354.076L176.198 348.813V350.696L167.071 355.992Z" fill="#9C754E"/>
<path d="M202.721 399.492L202.734 375.235L167.563 354.899V379.102L202.721 399.492Z" fill="#AE835B"/>
<path d="M202.721 399.492L202.734 375.235L253.352 345.98V370.182L202.721 399.492Z" fill="#C99A6B"/>
<path d="M253.352 345.98L202.734 375.235L167.563 354.899L218.195 325.657L253.352 345.98Z" fill="#E8B687"/>
<path d="M180.637 375.269L188.482 379.824V366.97L180.637 362.416V375.269Z" fill="#9C754E"/>
<path d="M180.637 362.416L231.227 333.187L239.086 337.734L188.482 366.984L180.637 362.416Z" fill="#F0CBA4"/>
<path d="M200.097 395.47V393.21L188.292 386.362V388.656L200.097 395.47Z" fill="#9C754E"/>
<path d="M200.097 391.429V389.162L188.292 382.313V384.607L200.097 391.429Z" fill="#9C754E"/>
<path d="M246.249 363.286V371.47L251.895 368.212V360.027L246.249 363.286Z" fill="#9C754E"/>
<path d="M238.539 367.76V375.944L244.185 372.678V364.494L238.539 367.76Z" fill="#9C754E"/>
<path d="M230.734 372.246V380.431L236.38 377.165V368.981L230.734 372.246Z" fill="#9C754E"/>
<path d="M204.259 376.247V388.001L215.868 381.294V369.521L204.259 376.247Z" fill="#F0CBA4"/>
<path d="M205.683 378.649V376.733L214.809 371.47V373.353L205.683 378.649Z" fill="#9C754E"/>
</g>
<defs>
<linearGradient id="paint0_linear" x1="577" y1="318.5" x2="-0.00011679" y2="318.5" gradientUnits="userSpaceOnUse">
<stop offset="0.0104" stop-color="#F1F1F1" stop-opacity="0"/>
<stop offset="1" stop-color="#F1F1F1"/>
</linearGradient>
<clipPath id="clip0">
<rect width="161" height="143" fill="white" transform="translate(121 303)"/>
</clipPath>
</defs>
</svg>
