<svg width="577" height="456" viewBox="0 0 577 456" fill="none" xmlns="http://www.w3.org/2000/svg">
<path d="M83.8621 214.132C196.175 159.046 378.842 159.326 491.861 214.758C604.879 270.19 605.451 359.782 493.138 414.868C380.825 469.954 198.158 469.674 85.1397 414.242C-27.8793 358.81 -28.4507 269.218 83.8621 214.132Z" fill="url(#paint0_linear)"/>
<path d="M200.963 248.935C216.823 239.731 242.47 239.68 258.228 248.833C273.986 257.986 273.918 272.867 258.058 282.071C242.198 291.275 216.551 291.31 200.776 282.173C185.001 273.037 185.086 258.14 200.963 248.935Z" fill="#D2D2D2"/>
<path d="M158.963 239.935C174.823 230.731 200.47 230.68 216.228 239.833C231.986 248.986 231.918 263.867 216.058 273.071C200.198 282.275 174.551 282.31 158.776 273.173C143.001 264.037 143.086 249.14 158.963 239.935Z" fill="#D2D2D2"/>
<path d="M233.123 251.642C233.123 251.642 236.283 255.086 240.521 259.207C244.434 263.025 245.648 264.122 249.277 267.67C251.399 269.737 249.652 271.642 245.612 271.488C242.056 271.348 234.008 269.62 229.503 268.004C226.307 266.853 220.444 263.612 217.447 261.716C214.45 259.82 213.868 257.202 213.868 257.202V250.825L233.123 251.642Z" fill="#9C754E"/>
<path d="M175.275 245.995C177.143 248.536 179.235 250.905 181.526 253.072C185.44 256.891 186.595 258.399 190.062 262.957C190.851 263.996 191.312 266.966 187.268 266.808C183.715 266.672 178.303 265.16 173.794 263.553C168.649 261.748 164.315 256.539 161.314 254.648C158.312 252.756 156.999 248.568 156.999 248.568L159.066 242.294L175.275 245.995Z" fill="#9C754E"/>
<path d="M176.887 142.722C175.389 119.363 188.266 107.086 188.266 107.086C187.242 99.2143 223.753 110.246 223.753 110.246C223.753 110.246 231.566 152.562 234.87 174.823C238.625 200.149 236.35 251.723 236.35 251.723C236.35 251.723 235.899 257.225 226.447 257.189C219.226 257.162 213.868 250.825 213.868 250.825L213.119 192.147L204.737 150.521C204.737 150.521 196.657 184.333 194.102 196.471C191.394 209.384 180.945 247.597 180.945 247.597C180.945 247.597 174.174 255.356 165.806 251.163C157.438 246.97 159.067 242.289 159.067 242.289C159.067 242.289 160.715 215.207 171.498 190.932C172.396 172.517 177.573 153.464 176.887 142.722Z" fill="#7282B5"/>
<path d="M218.773 48.9093C218.773 48.9093 223.991 48.652 229.38 58.7762C234.769 68.9004 239.924 79.6836 239.924 79.6836C239.924 79.6836 232.079 80.8075 223.544 88.6704C211.844 78.1128 209.939 53.8382 218.773 48.9093Z" fill="#BF2A40"/>
<path d="M218.774 48.9093C218.774 48.9093 221.712 54.5379 224.407 64.8652C227.102 75.1925 226.118 123.223 226.118 123.223C226.118 123.223 214.987 131.09 196.327 129.542C185.246 128.639 179.595 121.765 179.595 121.765C179.595 121.765 172.969 74.7231 173.867 67.9841C174.765 61.2452 188.866 45.4157 188.866 45.4157C188.866 45.4157 207.53 44.4904 218.774 48.9093Z" fill="#DF314A"/>
<path d="M205.999 42.3418L208.166 54.9802C208.166 54.9802 201.739 62.2021 195.451 56.7856C189.163 51.3692 188.265 48.9183 188.265 48.9183L191.362 31.7166L205.999 42.3418Z" fill="#FFAD97"/>
<path d="M197.107 12.7681C202.479 8.67874 215.198 7.35172 219.838 20.5091C224.709 34.2894 212.237 51.5046 205.589 48.5797C201.887 46.9413 194.061 41.1231 191.858 33.8516C189.375 25.6999 192.955 15.9458 197.107 12.7681Z" fill="#FFC5B3"/>
<path d="M220.96 24.8875C218.749 27.1443 215.517 29.6539 208.855 28.5526C205.548 27.9996 202.374 26.8315 199.498 25.1086C199.498 25.1086 195.323 27.9162 193.734 28.7783C191.928 29.7532 191.861 33.8697 191.861 33.8697C191.861 33.8697 188.317 29.356 190.15 21.1411C191.292 16.009 196.338 5.12203 206.002 6.02025C215.666 6.91848 221.29 13.3053 222.481 18.8346C222.732 19.8916 222.725 20.9933 222.46 22.0468C222.195 23.1002 221.681 24.0746 220.96 24.8875Z" fill="#9C754E"/>
<path d="M205.463 77.4629C205.463 77.4629 197.266 65.1315 190.78 61.665C184.294 58.1985 179.365 57.4311 179.365 57.4311C179.365 57.4311 182.236 52.6873 183.82 52.1185C186.564 52.5338 189.268 53.2876 195.104 56.3163C200.94 59.3449 207.332 66.6977 209.882 71.1889C215.018 80.2614 209.223 82.6988 205.463 77.4629Z" fill="#7282B5"/>
<path d="M219.456 48.9859C219.456 48.9859 223.97 59.6473 224.602 65.7724C225.234 71.8974 224.024 73.7751 221.56 73.9918C219.095 74.2084 218.964 69.8392 218.233 64.9644C217.547 60.3604 213.665 47.361 213.665 47.361L219.456 48.9859Z" fill="#7282B5"/>
<path d="M178.549 113.96C178.549 113.96 186.674 119.612 192.595 118.957C197.791 118.388 205.265 113.338 204.868 96.9078C204.471 80.478 202.95 72.913 202.95 72.913L222.81 64.2106C222.81 64.2106 228.227 76.691 229.269 101.169C230.312 125.646 230.781 134.087 230.781 134.087C230.781 134.087 209.599 135.387 197.059 134.087C184.52 132.787 177.592 129.573 177.592 129.573L178.549 113.96Z" fill="#7282B5"/>
<path d="M221.872 70.5343C221.179 70.5343 220.617 69.7178 220.617 68.7107C220.617 67.7036 221.179 66.8872 221.872 66.8872C222.565 66.8872 223.127 67.7036 223.127 68.7107C223.127 69.7178 222.565 70.5343 221.872 70.5343Z" fill="#F4D5BE"/>
<path d="M208.715 74.2581C209.302 75.0796 209.325 76.0636 208.76 76.4743C208.196 76.8851 207.262 76.542 206.675 75.7251C206.088 74.9081 206.066 73.9196 206.63 73.5088C207.194 73.0981 208.129 73.4411 208.715 74.2581Z" fill="#F4D5BE"/>
<path d="M224.507 76.6458C225.319 80.7533 224.908 93.676 217.587 95.6033C210.948 97.3681 209.228 89.5369 207.698 83.4886C216.296 81.5567 224.507 76.6458 224.507 76.6458Z" fill="#2E3665"/>
<path d="M248.451 164.595V114.606L208.167 94.5201V141.679L248.451 164.595Z" fill="#C99A6B"/>
<path d="M248.452 164.595V114.606L288.736 94.5201V141.679L248.452 164.595Z" fill="#AE835B"/>
<path d="M248.438 165.024L248.451 114.606L208.167 91.3153V141.679L248.438 165.024Z" fill="#C99A6B"/>
<path d="M248.438 165.024L248.452 114.606L288.736 91.3153V141.679L248.438 165.024Z" fill="#AE835B"/>
<path d="M288.736 91.3153L248.452 114.606L208.167 91.3153L248.438 68.0337L288.736 91.3153Z" fill="#E8B687"/>
<path d="M223.145 114.638L232.127 119.855V105.141L223.145 99.9185V114.638Z" fill="#9C754E"/>
<path d="M223.144 99.9185L263.37 76.6639L272.375 81.8637L232.126 105.159L223.144 99.9185Z" fill="#F4D5BE"/>
<path d="M243.117 157.811V155.216L229.59 147.375V150.002L243.117 157.811Z" fill="#9C754E"/>
<path d="M243.117 153.175V150.585L229.59 142.74V145.367L243.117 153.175Z" fill="#9C754E"/>
<path d="M217.447 134.295V143.286L210.979 139.544V130.548L217.447 134.295Z" fill="#9C754E"/>
<path d="M279.87 133.356V142.726L286.338 138.989V129.619L279.87 133.356Z" fill="#9C754E"/>
<path d="M271.048 138.474V147.845L277.516 144.107V134.737L271.048 138.474Z" fill="#9C754E"/>
<path d="M273.045 105.962V119.431L286.338 111.749V98.2664L273.045 105.962Z" fill="#F4D5BE"/>
<path d="M274.677 108.716V106.526L285.135 100.496V102.649L274.677 108.716Z" fill="#9C754E"/>
<path d="M198.213 92.4122C198.213 92.4122 205.846 108.454 209.001 112.927C212.156 117.4 224.998 127.61 227.634 129.09C230.27 130.571 236.313 132.458 239.473 132.16C242.633 131.862 244.759 133.405 241.73 134.556C239.797 135.268 237.786 135.746 235.74 135.978C235.74 135.978 241.288 140.077 243.486 143.575C245.251 146.387 246.745 151.55 239.92 150.052C234.404 148.842 226.753 140.393 224.749 138.51C220.962 134.958 205.914 126.82 202.51 124.41C197.703 121.006 184.086 100.939 184.086 100.939C184.086 100.939 188.265 90.3043 198.213 92.4122Z" fill="#FFC5B3"/>
<path d="M176.296 62.2021C180.25 59.0154 188.713 69.8031 193.208 76.5421C197.704 83.281 201.297 93.3646 201.297 93.3646C201.297 93.3646 195.88 97.2915 191.042 100.347C188.352 102.019 185.563 103.526 182.691 104.861C182.691 104.861 162.732 73.1207 176.296 62.2021Z" fill="#BF2A40"/>
<path d="M195.453 13.5897C187.63 16.6996 185.933 22.8608 191.639 27.3745C197.344 31.8882 208.303 33.0437 216.112 29.9473C223.92 26.8509 225.631 20.6762 219.926 16.158C214.221 11.6398 203.261 10.4888 195.453 13.5897Z" fill="#DF314A"/>
<path d="M223.232 22.8788C223.232 22.8788 226.541 2.81096 209.177 0.256216C188.933 -2.70928 188.288 21.0463 188.288 21.0463L223.232 22.8788Z" fill="#DF314A"/>
<path d="M223.481 19.9178C223.481 19.9178 231.926 27.8122 221.676 32.2266C204.33 39.7193 190.148 25.9526 190.148 25.9526C190.148 25.9526 208.577 30.3534 217.939 26.246C224.271 23.4701 223.481 19.9178 223.481 19.9178Z" fill="#BF2A40"/>
<path d="M242.94 103.845L242.949 85.7635L213.962 69.0042V87.0996L242.94 103.845Z" fill="#C99A6B"/>
<path d="M242.942 103.845L242.951 85.7635L276.799 66.1967V84.283L242.942 103.845Z" fill="#AE835B"/>
<path d="M276.799 66.1967L242.951 85.7635L213.964 69.0042L247.789 49.4464L276.799 66.1967Z" fill="#E8B687"/>
<path d="M240.779 100.537V98.6727L231.048 93.0306V94.9219L240.779 100.537Z" fill="#9C754E"/>
<path d="M240.779 97.2011V95.337L231.048 89.6949V91.5861L240.779 97.2011Z" fill="#9C754E"/>
<path d="M269.543 73.5404V81.9494L275.348 78.5958V70.1868L269.543 73.5404Z" fill="#9C754E"/>
<path d="M245.219 87.6458V97.6887L260.033 89.1263V79.0698L245.219 87.6458Z" fill="#F4D5BE"/>
<path d="M247.035 90.7151V88.2732L258.689 81.5523V83.9536L247.035 90.7151Z" fill="#9C754E"/>
<path d="M221.289 82.7348L231.301 88.5484V79.0201L221.289 73.2064V82.7348Z" fill="#9C754E"/>
<path d="M221.287 73.2064L255.086 53.6622L265.129 59.4577L231.299 79.0426L221.287 73.2064Z" fill="#F4D5BE"/>
<path d="M313.619 405.896L226 355.278L439.536 232L527 282.679L313.619 405.896Z" fill="#D2D2D2"/>
<path d="M313.619 391.536L226 340.918L439.536 217.64L527 268.319L313.619 391.536Z" fill="#CAAE68"/>
<path d="M313.619 398V391.536L226 340.918V347.371L313.619 398Z" fill="#72522F"/>
<path d="M313.619 391.536V398L527 274.814V268.319L313.619 391.536Z" fill="#85693F"/>
<path d="M452.533 303.473L452.514 238.252L504.676 208.122V273.274L452.533 303.473Z" fill="#C99A6B"/>
<path d="M452.533 303.473L452.514 238.252L400.352 208.122V273.274L452.533 303.473Z" fill="#AE835B"/>
<path d="M400.352 208.122L452.514 238.252L504.677 208.122L452.533 178L400.352 208.122Z" fill="#E8B687"/>
<path d="M485.287 238.294L473.652 245.037V226.005L485.287 219.254V238.294Z" fill="#9C754E"/>
<path d="M485.286 219.254L433.193 189.163L421.539 195.894L473.651 226.028L485.286 219.254Z" fill="#F4D5BE"/>
<path d="M459.426 294.141V290.789L476.937 280.644V284.042L459.426 294.141Z" fill="#9C754E"/>
<path d="M459.426 288.145V284.793L476.937 274.648V278.046L459.426 288.145Z" fill="#9C754E"/>
<path d="M492.66 263.721V275.356L501.036 270.51V258.875L492.66 263.721Z" fill="#9C754E"/>
<path d="M411.827 262.506V274.629L403.451 269.794V257.671L411.827 262.506Z" fill="#9C754E"/>
<path d="M423.257 269.128V281.251L414.881 276.417V264.294L423.257 269.128Z" fill="#9C754E"/>
<path d="M420.664 227.069V244.491L403.451 234.555V217.114L420.664 227.069Z" fill="#F4D5BE"/>
<path d="M418.556 230.634V227.797L405.012 219.997V222.784L418.556 230.634Z" fill="#9C754E"/>
<path d="M387.724 341.062L387.705 305.138L439.868 275.008V310.859L387.724 341.062Z" fill="#C99A6B"/>
<path d="M387.725 341.062L387.706 305.138L335.543 275.008V310.859L387.725 341.062Z" fill="#AE835B"/>
<path d="M335.543 275.008L387.706 305.134L439.868 275.008L387.725 244.886L335.543 275.008Z" fill="#E8B687"/>
<path d="M420.478 305.176L408.844 311.923V292.891L420.478 286.136V305.176Z" fill="#9C754E"/>
<path d="M420.479 286.136L368.386 256.049L356.732 262.78L408.845 292.914L420.479 286.136Z" fill="#F4D5BE"/>
<path d="M394.617 331.729V328.374L412.129 318.228V321.631L394.617 331.729Z" fill="#9C754E"/>
<path d="M394.617 325.734V322.378L412.129 312.233V315.635L394.617 325.734Z" fill="#9C754E"/>
<path d="M427.852 301.309V312.941L436.228 308.099V296.459L427.852 301.309Z" fill="#9C754E"/>
<path d="M346.054 302.045V314.168L337.678 309.334V297.21L346.054 302.045Z" fill="#9C754E"/>
<path d="M357.483 308.668V320.791L349.107 315.956V303.833L357.483 308.668Z" fill="#9C754E"/>
<path d="M385.44 306.628V324.05L368.227 314.11V296.668L385.44 306.628Z" fill="#F4D5BE"/>
<path d="M383.331 310.189V307.352L369.787 299.552V302.339L383.331 310.189Z" fill="#9C754E"/>
<path d="M318.75 380.74L318.73 344.82L370.897 314.691V350.541L318.75 380.74Z" fill="#C99A6B"/>
<path d="M318.748 380.741L318.729 344.82L243.654 301.476V337.327L318.748 380.741Z" fill="#AE835B"/>
<path d="M243.654 301.476L318.729 344.816L370.895 314.687L295.794 271.366L243.654 301.476Z" fill="#E8B687"/>
<path d="M351.502 344.859L339.871 351.606V332.569L351.502 325.819V344.859Z" fill="#9C754E"/>
<path d="M351.502 325.819L276.474 282.525L264.812 289.26L339.872 332.593L351.502 325.819Z" fill="#F4D5BE"/>
<path d="M322.639 374.795V371.439L340.15 361.294V364.692L322.639 374.795Z" fill="#9C754E"/>
<path d="M322.639 368.795V365.443L340.15 355.298V358.701L322.639 368.795Z" fill="#9C754E"/>
<path d="M254.196 327.116V339.239L245.82 334.404V322.281L254.196 327.116Z" fill="#9C754E"/>
<path d="M265.626 333.738V345.861L257.25 341.027V328.904L265.626 333.738Z" fill="#9C754E"/>
<path d="M277.2 340.38V352.504L268.828 347.669V335.55L277.2 340.38Z" fill="#9C754E"/>
<path d="M316.467 346.307V363.729L299.254 353.793V336.351L316.467 346.307Z" fill="#F4D5BE"/>
<path d="M314.357 349.871V347.034L300.816 339.231V342.022L314.357 349.871Z" fill="#9C754E"/>
<path d="M312.437 330.669L312.426 309.639L346.104 290.185V311.168L312.437 330.669Z" fill="#C99A6B"/>
<path d="M312.439 330.669L312.427 309.639L263.949 281.658V302.637L312.439 330.669Z" fill="#AE835B"/>
<path d="M263.949 281.693L312.427 309.678L346.106 290.224L297.616 262.25L263.949 281.693Z" fill="#E8B687"/>
<path d="M314.949 326.829V324.665L326.258 318.112V320.307L314.949 326.829Z" fill="#9C754E"/>
<path d="M314.949 322.958V320.795L326.258 314.242V316.436L314.949 322.958Z" fill="#9C754E"/>
<path d="M272.319 290.154V299.92L265.574 296.022V286.26L272.319 290.154Z" fill="#9C754E"/>
<path d="M281.524 295.488V305.25L274.779 301.356V291.594L281.524 295.488Z" fill="#9C754E"/>
<path d="M309.787 311.865V323.52L292.574 313.583V301.906L309.787 311.865Z" fill="#F4D5BE"/>
<path d="M307.681 315.43V312.593L294.137 304.789V307.58L307.681 315.43Z" fill="#9C754E"/>
<path d="M337.597 306.163L325.963 312.91V301.851L337.597 295.101V306.163Z" fill="#9C754E"/>
<path d="M337.597 295.101L289.177 267.123L277.48 273.878L325.962 301.875L337.597 295.101Z" fill="#F4D5BE"/>
<path d="M388.275 295.871L388.264 274.876L421.942 255.422V276.429L388.275 295.871Z" fill="#C99A6B"/>
<path d="M388.276 295.871L388.265 274.876L348.938 252.163V273.158L388.276 295.871Z" fill="#AE835B"/>
<path d="M348.938 252.163L388.265 274.876L421.943 255.422L382.643 232.716L348.938 252.163Z" fill="#E8B687"/>
<path d="M390.787 292.027V289.864L402.096 283.311V285.509L390.787 292.027Z" fill="#9C754E"/>
<path d="M390.787 288.157V285.993L402.096 279.44V281.639L390.787 288.157Z" fill="#9C754E"/>
<path d="M357.362 260.686V270.452L350.617 266.554V256.792L357.362 260.686Z" fill="#9C754E"/>
<path d="M385.625 277.067V288.722L368.412 278.782V267.108L385.625 277.067Z" fill="#F4D5BE"/>
<path d="M383.517 280.628V277.791L369.977 269.991V272.778L383.517 280.628Z" fill="#9C754E"/>
<path d="M413.435 271.362L401.801 278.108V267.05L413.435 260.299V271.362Z" fill="#9C754E"/>
<path d="M413.434 260.299L374.161 237.609L362.496 244.34L401.8 267.077L413.434 260.299Z" fill="#F4D5BE"/>
<path d="M302.66 297.911L302.648 281.697L325.84 268.343V284.565L302.66 297.911Z" fill="#C99A6B"/>
<path d="M302.659 297.911L302.647 281.697L275.791 266.171V282.386L302.659 297.911Z" fill="#AE835B"/>
<path d="M275.791 266.171L302.647 281.697L325.838 268.343L298.932 252.802L275.791 266.171Z" fill="#E8B687"/>
<path d="M304.598 294.946V293.274L313.33 288.211V289.906L304.598 294.946Z" fill="#9C754E"/>
<path d="M304.598 291.954V290.282L313.33 285.223V286.918L304.598 291.954Z" fill="#9C754E"/>
<path d="M283.562 274.152V281.697L278.352 278.689V271.149L283.562 274.152Z" fill="#9C754E"/>
<path d="M288.522 276.154V285.08L277.693 278.824V269.926L288.522 276.154Z" fill="#F4D5BE"/>
<path d="M286.887 278.306V276.634L278.902 272.035V273.68L286.887 278.306Z" fill="#9C754E"/>
<path d="M319.074 272.186L313.104 275.65V284.193L319.074 280.729V272.186Z" fill="#9C754E"/>
<path d="M319.074 272.186L292.23 256.696L286.232 260.141L313.104 275.67L319.074 272.186Z" fill="#F4D5BE"/>
<defs>
<linearGradient id="paint0_linear" x1="577" y1="314.5" x2="-0.00011679" y2="314.5" gradientUnits="userSpaceOnUse">
<stop offset="0.0104" stop-color="#F1F1F1" stop-opacity="0"/>
<stop offset="1" stop-color="#F1F1F1"/>
</linearGradient>
</defs>
</svg>
