<svg width="720" height="466" viewBox="0 0 720 466" fill="none" xmlns="http://www.w3.org/2000/svg">
<path d="M615.354 414.404C475.206 483.504 247.268 483.153 106.24 413.618C-34.7883 344.083 -35.5021 231.697 104.646 162.596C244.793 93.4956 472.732 93.8473 613.76 163.382C754.789 232.917 755.502 345.303 615.354 414.404Z" fill="url(#paint0_linear)"/>
<path d="M312.452 257.777L312.459 46.7385L309 44.745V255.783L312.452 257.777Z" fill="#3A3A3A"/>
<path d="M312.453 257.777L316.631 255.396V44.3294L312.453 46.7385V257.777Z" fill="#9C754E"/>
<path d="M386.01 215.427L386.017 4.39559L382.558 2.40207V213.44L386.01 215.427Z" fill="#3A3A3A"/>
<path d="M386.01 215.427L390.188 213.053V1.98648L386.01 4.39561V215.427Z" fill="#9C754E"/>
<path d="M309 44.745L312.452 46.7385L316.631 44.3294L313.171 42.3429L309 44.745Z" fill="#A3A3A3"/>
<path d="M382.558 2.40208L386.01 4.3956L390.188 1.98647L386.729 0L382.558 2.40208Z" fill="#A3A3A3"/>
<path d="M388.835 207.692L386.01 210.517L314.292 153.529L315.602 149.345L388.835 207.692Z" fill="#9C754E"/>
<path d="M314.862 248.316L315.525 252.353L387.68 112.109L386.017 109.665L314.862 248.316Z" fill="#9C754E"/>
<path d="M388.835 108.221L386.01 111.038L314.292 54.0574L315.602 49.8732L388.835 108.221Z" fill="#9C754E"/>
<path d="M314.862 148.845L315.525 152.874L387.68 12.6373L386.017 10.1859L314.862 148.845Z" fill="#9C754E"/>
<path d="M387.018 200.796L313.601 243.385L472.32 335.665L545.878 293.146L387.018 200.796Z" fill="#DED8D1"/>
<path d="M472.32 340.772V335.341L545.878 292.822V298.239L472.32 340.772Z" fill="#9B897F"/>
<path d="M313.601 243.385V248.837L472.32 340.546V335.115L313.601 243.385Z" fill="#CDC6BC"/>
<path d="M446.364 242.589L391.315 274.387L393.035 275.465L448.238 243.59L446.364 242.589Z" fill="#CAAE68"/>
<path d="M448.238 243.582L393.035 275.458V283.312L448.238 251.437V243.582Z" fill="#72522F"/>
<path d="M391.315 282.326V274.387L393.035 275.458V283.312L391.315 282.326Z" fill="#9F7D4A"/>
<path d="M384.911 206.952L329.862 238.75L331.581 239.828L386.785 207.953L384.911 206.952Z" fill="#CAAE68"/>
<path d="M386.785 207.946L331.582 239.821V247.675L386.785 215.807V207.946Z" fill="#72522F"/>
<path d="M329.862 246.689V238.75L331.581 239.821V247.675L329.862 246.689Z" fill="#9F7D4A"/>
<path d="M414.75 223.887L359.701 255.692L361.413 256.769L416.624 224.894L414.75 223.887Z" fill="#CAAE68"/>
<path d="M416.624 224.887L361.413 256.762V264.617L416.624 232.741V224.887Z" fill="#72522F"/>
<path d="M359.701 263.63V255.692L361.413 256.762V264.617L359.701 263.63Z" fill="#9F7D4A"/>
<path d="M393.034 273.056L329.862 236.595V239.131L393.034 275.599V273.056Z" fill="#9F7D4A"/>
<path d="M399.65 269.357L393.034 273.056L329.862 236.595L336.45 232.889L399.65 269.357Z" fill="#CAAE68"/>
<path d="M399.651 269.357L393.035 273.056V277.789L399.651 273.936V269.357Z" fill="#72522F"/>
<path d="M405.351 265.8L342.002 229.177V231.72L405.351 268.336V265.8Z" fill="#9F7D4A"/>
<path d="M411.974 262.095L405.351 265.8L342.002 229.177L348.59 225.479L411.974 262.095Z" fill="#CAAE68"/>
<path d="M411.974 262.095L405.351 265.8V270.534L411.974 266.681V262.095Z" fill="#72522F"/>
<path d="M417.963 258.65L354.466 221.957V224.493L417.963 261.193V258.65Z" fill="#9F7D4A"/>
<path d="M424.586 254.952L417.963 258.65L354.466 221.957L361.061 218.251L424.586 254.952Z" fill="#CAAE68"/>
<path d="M424.585 254.952L417.962 258.65V263.384L424.585 259.531V254.952Z" fill="#72522F"/>
<path d="M430.285 251.395L366.937 214.934V217.47L430.285 253.938V251.395Z" fill="#9F7D4A"/>
<path d="M436.908 247.696L430.285 251.395L366.937 214.934L373.525 211.228L436.908 247.696Z" fill="#CAAE68"/>
<path d="M436.908 247.696L430.285 251.395V256.128L436.908 252.275V247.696Z" fill="#72522F"/>
<path d="M441.622 245.027L378.119 208.404V210.947L441.622 247.57V245.027Z" fill="#9F7D4A"/>
<path d="M448.238 241.328L441.622 245.027L378.119 208.404L384.706 204.705L448.238 241.328Z" fill="#CAAE68"/>
<path d="M448.238 241.328L441.622 245.027V249.76L448.238 245.907V241.328Z" fill="#72522F"/>
<path d="M364.844 252.064L364.851 232.396L336.309 215.906V235.531L364.844 252.064Z" fill="#AE835B"/>
<path d="M364.845 252.064L364.852 232.396L405.928 208.671V228.297L364.845 252.064Z" fill="#C99A6B"/>
<path d="M405.928 208.671L364.851 232.396L336.309 215.899L377.4 192.181L405.928 208.671Z" fill="#E8B687"/>
<path d="M346.92 232.417L353.29 236.116V225.69L346.92 221.999V232.417Z" fill="#9C754E"/>
<path d="M346.92 221.999L387.976 198.295L394.352 201.979L353.29 225.704L346.92 221.999Z" fill="#F0CBA4"/>
<path d="M362.716 248.809V246.978L353.134 241.42V243.28L362.716 248.809Z" fill="#9C754E"/>
<path d="M362.716 245.527V243.688L353.134 238.137V239.997L362.716 245.527Z" fill="#9C754E"/>
<path d="M400.165 222.703V229.346L404.745 226.697V220.062L400.165 222.703Z" fill="#9C754E"/>
<path d="M393.908 226.331V232.967L398.495 230.325V223.683L393.908 226.331Z" fill="#9C754E"/>
<path d="M387.574 229.966V236.609L392.154 233.96V227.324L387.574 229.966Z" fill="#9C754E"/>
<path d="M366.092 233.213V242.751L375.512 237.313V227.761L366.092 233.213Z" fill="#F0CBA4"/>
<path d="M367.247 235.165V233.608L374.652 229.339V230.868L367.247 235.165Z" fill="#9C754E"/>
<path d="M396.177 270.442L396.184 250.775L367.642 234.277V253.902L396.177 270.442Z" fill="#AE835B"/>
<path d="M396.177 270.442L396.184 250.775L437.26 227.043V246.675L396.177 270.442Z" fill="#C99A6B"/>
<path d="M437.261 227.043L396.184 250.775L367.642 234.277L408.732 210.559L437.261 227.043Z" fill="#E8B687"/>
<path d="M378.252 250.796L384.622 254.487V244.069L378.252 240.37V250.796Z" fill="#9C754E"/>
<path d="M378.252 240.37L419.308 216.666L425.684 220.351L384.622 244.083L378.252 240.37Z" fill="#F0CBA4"/>
<path d="M394.049 267.188V265.349L384.467 259.791V261.658L394.049 267.188Z" fill="#9C754E"/>
<path d="M394.049 263.898V262.067L384.467 256.509V258.375L394.049 263.898Z" fill="#9C754E"/>
<path d="M431.497 241.082V247.717L436.077 245.069V238.433L431.497 241.082Z" fill="#9C754E"/>
<path d="M425.241 244.703V251.345L429.82 248.697V242.061L425.241 244.703Z" fill="#9C754E"/>
<path d="M418.906 248.344V254.98L423.486 252.331V245.696L418.906 248.344Z" fill="#9C754E"/>
<path d="M397.424 251.585V261.13L406.844 255.684V246.14L397.424 251.585Z" fill="#F0CBA4"/>
<path d="M398.58 253.536V251.986L405.985 247.717V249.239L398.58 253.536Z" fill="#9C754E"/>
<path d="M364.844 230.368L364.851 210.7L336.309 194.202V213.835L364.844 230.368Z" fill="#AE835B"/>
<path d="M364.845 230.368L364.852 210.7L405.928 186.968V206.6L364.845 230.368Z" fill="#C99A6B"/>
<path d="M405.928 186.968L364.851 210.7L336.309 194.202L377.4 170.485L405.928 186.968Z" fill="#E8B687"/>
<path d="M346.92 210.721L353.29 214.412V203.994L346.92 200.296V210.721Z" fill="#9C754E"/>
<path d="M346.92 200.296L387.976 176.592L394.352 180.283L353.29 204.008L346.92 200.296Z" fill="#F0CBA4"/>
<path d="M362.716 227.113V225.275L353.134 219.724V221.583L362.716 227.113Z" fill="#9C754E"/>
<path d="M362.716 223.83V221.992L353.134 216.434V218.301L362.716 223.83Z" fill="#9C754E"/>
<path d="M400.165 201.007V207.643L404.745 204.994V198.359L400.165 201.007Z" fill="#9C754E"/>
<path d="M393.908 204.635V211.271L398.495 208.622V201.986L393.908 204.635Z" fill="#9C754E"/>
<path d="M387.574 208.27V214.905L392.154 212.264V205.621L387.574 208.27Z" fill="#9C754E"/>
<path d="M366.092 211.517V221.055L375.512 215.61V206.065L366.092 211.517Z" fill="#F0CBA4"/>
<path d="M367.247 213.468V211.912L374.652 207.643V209.171L367.247 213.468Z" fill="#9C754E"/>
<path d="M396.177 248.746L396.184 229.071L367.642 212.581V232.206L396.177 248.746Z" fill="#AE835B"/>
<path d="M396.177 248.746L396.184 229.071L437.26 205.346V224.972L396.177 248.746Z" fill="#C99A6B"/>
<path d="M437.261 205.346L396.184 229.071L367.642 212.574L408.732 188.856L437.261 205.346Z" fill="#E8B687"/>
<path d="M378.252 229.1L384.622 232.791V222.365L378.252 218.674V229.1Z" fill="#9C754E"/>
<path d="M378.252 218.674L419.308 194.963L425.684 198.654L384.622 222.379L378.252 218.674Z" fill="#F0CBA4"/>
<path d="M394.049 245.484V243.653L384.467 238.095V239.955L394.049 245.484Z" fill="#9C754E"/>
<path d="M394.049 242.202V240.37L384.467 234.812V236.672L394.049 242.202Z" fill="#9C754E"/>
<path d="M431.497 219.379V226.021L436.077 223.373V216.737L431.497 219.379Z" fill="#9C754E"/>
<path d="M425.241 223.006V229.642L429.82 227V220.358L425.241 223.006Z" fill="#9C754E"/>
<path d="M418.906 226.648V233.284L423.486 230.635V224L418.906 226.648Z" fill="#9C754E"/>
<path d="M397.424 229.889V239.426L406.844 233.988V224.436L397.424 229.889Z" fill="#F0CBA4"/>
<path d="M398.58 231.84V230.29L405.985 226.014V227.543L398.58 231.84Z" fill="#9C754E"/>
<path d="M521.964 286.094L466.916 317.899L468.635 318.977L523.846 287.102L521.964 286.094Z" fill="#CAAE68"/>
<path d="M523.846 287.095L468.635 318.97V326.824L523.846 294.949V287.095Z" fill="#72522F"/>
<path d="M460.512 250.465L405.463 282.262L407.183 283.34L462.393 251.465L460.512 250.465Z" fill="#CAAE68"/>
<path d="M462.393 251.458L407.183 283.333V291.187L462.393 259.312V251.458Z" fill="#72522F"/>
<path d="M405.463 290.201V282.262L407.183 283.333V291.187L405.463 290.201Z" fill="#9F7D4A"/>
<path d="M490.35 267.399L435.302 299.204L437.014 300.281L492.224 268.406L490.35 267.399Z" fill="#CAAE68"/>
<path d="M492.225 268.399L437.014 300.275V308.129L492.225 276.254V268.399Z" fill="#72522F"/>
<path d="M435.302 307.143V299.204L437.021 300.274V308.129L435.302 307.143Z" fill="#9F7D4A"/>
<path d="M468.635 316.568L405.463 280.107V282.643L468.635 319.111V316.568Z" fill="#9F7D4A"/>
<path d="M475.258 312.87L468.635 316.568L405.463 280.107L412.051 276.402L475.258 312.87Z" fill="#CAAE68"/>
<path d="M475.258 312.87L468.635 316.568V321.302L475.258 317.448V312.87Z" fill="#72522F"/>
<path d="M480.958 309.312L417.61 272.689V275.232L480.958 311.848V309.312Z" fill="#9F7D4A"/>
<path d="M487.574 305.607L480.958 309.312L417.61 272.689L424.198 268.991L487.574 305.607Z" fill="#CAAE68"/>
<path d="M487.574 305.607L480.958 309.312V314.046L487.574 310.193V305.607Z" fill="#72522F"/>
<path d="M493.57 302.162L430.074 265.469V268.005L493.57 304.705V302.162Z" fill="#9F7D4A"/>
<path d="M500.193 298.464L493.57 302.162L430.074 265.469L436.662 261.764L500.193 298.464Z" fill="#CAAE68"/>
<path d="M500.193 298.464L493.57 302.162V306.896L500.193 303.043V298.464Z" fill="#72522F"/>
<path d="M505.886 294.907L442.538 258.439V260.982L505.886 297.443V294.907Z" fill="#9F7D4A"/>
<path d="M512.509 291.202L505.886 294.907L442.538 258.439L449.126 254.741L512.509 291.202Z" fill="#CAAE68"/>
<path d="M512.509 291.202L505.886 294.907V299.641L512.509 295.787V291.202Z" fill="#72522F"/>
<path d="M517.223 288.539L453.727 251.916V254.459L517.223 291.082V288.539Z" fill="#9F7D4A"/>
<path d="M523.846 284.841L517.223 288.539L453.727 251.916L460.314 248.218L523.846 284.841Z" fill="#CAAE68"/>
<path d="M523.846 284.841L517.223 288.539V293.273L523.846 289.419V284.841Z" fill="#72522F"/>
<path d="M440.445 295.576L440.459 275.908L411.917 259.411V279.043L440.445 295.576Z" fill="#AE835B"/>
<path d="M440.445 295.576L440.459 275.908L481.536 252.184V271.809L440.445 295.576Z" fill="#C99A6B"/>
<path d="M481.536 252.184L440.459 275.908L411.917 259.411L453.008 235.693L481.536 252.184Z" fill="#E8B687"/>
<path d="M422.528 275.93L428.891 279.628V269.202L422.528 265.511V275.93Z" fill="#9C754E"/>
<path d="M422.528 265.511L463.577 241.8L469.96 245.491L428.891 269.216L422.528 265.511Z" fill="#F0CBA4"/>
<path d="M438.318 292.322V290.483L428.735 284.932V286.792L438.318 292.322Z" fill="#9C754E"/>
<path d="M438.318 289.039V287.2L428.735 281.65V283.509L438.318 289.039Z" fill="#9C754E"/>
<path d="M475.766 266.216V272.858L480.345 270.21V263.574L475.766 266.216Z" fill="#9C754E"/>
<path d="M469.516 269.843V276.479L474.096 273.83V267.195L469.516 269.843Z" fill="#9C754E"/>
<path d="M463.175 273.478V280.121L467.762 277.472V270.837L463.175 273.478Z" fill="#9C754E"/>
<path d="M441.699 276.726V286.264L451.112 280.825V271.273L441.699 276.726Z" fill="#F0CBA4"/>
<path d="M442.848 278.677V277.12L450.26 272.851V274.38L442.848 278.677Z" fill="#9C754E"/>
<path d="M471.778 313.954L471.785 294.287L443.25 277.789V297.415L471.778 313.954Z" fill="#AE835B"/>
<path d="M471.778 313.954L471.785 294.287L512.869 270.555V290.18L471.778 313.954Z" fill="#C99A6B"/>
<path d="M512.868 270.555L471.785 294.28L443.25 277.789L484.34 254.064L512.868 270.555Z" fill="#E8B687"/>
<path d="M453.86 294.308L460.223 297.999V287.581L453.86 283.883V294.308Z" fill="#9C754E"/>
<path d="M453.86 283.883L494.909 260.179L501.292 263.863L460.223 287.588L453.86 283.883Z" fill="#F0CBA4"/>
<path d="M469.65 310.693V308.861L460.067 303.304V305.163L469.65 310.693Z" fill="#9C754E"/>
<path d="M469.65 307.41V305.579L460.067 300.021V301.888L469.65 307.41Z" fill="#9C754E"/>
<path d="M507.098 284.594V291.23L511.678 288.581V281.945L507.098 284.594Z" fill="#9C754E"/>
<path d="M500.849 288.215V294.857L505.428 292.209V285.573L500.849 288.215Z" fill="#9C754E"/>
<path d="M494.507 291.857V298.492L499.094 295.844V289.208L494.507 291.857Z" fill="#9C754E"/>
<path d="M473.025 295.097V304.635L482.445 299.197V289.645L473.025 295.097Z" fill="#F0CBA4"/>
<path d="M474.18 297.048V295.498L481.592 291.23V292.751L474.18 297.048Z" fill="#9C754E"/>
<path d="M440.445 273.88L440.459 254.212L411.917 237.715V257.34L440.445 273.88Z" fill="#AE835B"/>
<path d="M440.445 273.88L440.459 254.212L481.536 230.48V250.113L440.445 273.88Z" fill="#C99A6B"/>
<path d="M481.536 230.48L440.459 254.212L411.917 237.715L453.008 213.997L481.536 230.48Z" fill="#E8B687"/>
<path d="M422.528 254.233L428.891 257.925V247.506L422.528 243.808V254.233Z" fill="#9C754E"/>
<path d="M422.528 243.808L463.577 220.104L469.96 223.788L428.891 247.52L422.528 243.808Z" fill="#F0CBA4"/>
<path d="M438.318 270.625V268.787L428.735 263.229V265.096L438.318 270.625Z" fill="#9C754E"/>
<path d="M438.318 267.336V265.504L428.735 259.946V261.813L438.318 267.336Z" fill="#9C754E"/>
<path d="M475.766 244.519V251.155L480.345 248.506V241.871L475.766 244.519Z" fill="#9C754E"/>
<path d="M469.516 248.14V254.783L474.096 252.134V245.499L469.516 248.14Z" fill="#9C754E"/>
<path d="M463.175 251.782V258.418L467.762 255.776V249.133L463.175 251.782Z" fill="#9C754E"/>
<path d="M441.699 255.029V264.567L451.112 259.122V249.577L441.699 255.029Z" fill="#F0CBA4"/>
<path d="M442.848 256.974V255.424L450.26 251.155V252.677L442.848 256.974Z" fill="#9C754E"/>
<path d="M471.778 292.251L471.785 272.584L443.25 256.093V275.718L471.778 292.251Z" fill="#AE835B"/>
<path d="M471.778 292.251L471.785 272.584L512.869 248.859V268.484L471.778 292.251Z" fill="#C99A6B"/>
<path d="M512.868 248.859L471.785 272.584L443.25 256.086L484.34 232.368L512.868 248.859Z" fill="#E8B687"/>
<path d="M453.86 272.605L460.223 276.303V265.877L453.86 262.179V272.605Z" fill="#9C754E"/>
<path d="M453.86 262.179L494.909 238.475L501.292 242.167L460.223 265.892L453.86 262.179Z" fill="#F0CBA4"/>
<path d="M469.65 288.997V287.158L460.067 281.607V283.467L469.65 288.997Z" fill="#9C754E"/>
<path d="M469.65 285.714V283.876L460.067 278.325V280.184L469.65 285.714Z" fill="#9C754E"/>
<path d="M507.098 262.891V269.533L511.678 266.885V260.249L507.098 262.891Z" fill="#9C754E"/>
<path d="M500.849 266.519V273.154L505.428 270.506V263.87L500.849 266.519Z" fill="#9C754E"/>
<path d="M494.507 270.153V276.796L499.094 274.147V267.512L494.507 270.153Z" fill="#9C754E"/>
<path d="M473.025 273.401V282.939L482.445 277.5V267.948L473.025 273.401Z" fill="#F0CBA4"/>
<path d="M474.18 275.352V273.795L481.592 269.526V271.055L474.18 275.352Z" fill="#9C754E"/>
<path d="M387.018 120.238L313.601 162.827L472.32 255.107L545.878 212.588L387.018 120.238Z" fill="#DED8D1"/>
<path d="M472.32 260.214V254.783L545.878 212.264V217.681L472.32 260.214Z" fill="#9B897F"/>
<path d="M313.601 162.827V168.28L472.32 259.988V254.557L313.601 162.827Z" fill="#CDC6BC"/>
<path d="M446.364 162.334L391.315 194.132L393.035 195.21L448.238 163.335L446.364 162.334Z" fill="#CAAE68"/>
<path d="M448.238 163.335L393.035 195.203V203.057L448.238 171.182V163.335Z" fill="#72522F"/>
<path d="M391.315 202.071V194.132L393.035 195.203V203.057L391.315 202.071Z" fill="#9F7D4A"/>
<path d="M384.911 126.698L329.862 158.495L331.581 159.573L386.785 127.698L384.911 126.698Z" fill="#CAAE68"/>
<path d="M386.785 127.698L331.582 159.566V167.42L386.785 135.552V127.698Z" fill="#72522F"/>
<path d="M329.862 166.434V158.495L331.581 159.566V167.42L329.862 166.434Z" fill="#9F7D4A"/>
<path d="M414.75 143.639L359.701 175.437L361.413 176.514L416.624 144.639L414.75 143.639Z" fill="#CAAE68"/>
<path d="M416.624 144.632L361.413 176.507V184.362L416.624 152.486V144.632Z" fill="#72522F"/>
<path d="M359.701 183.375V175.437L361.413 176.507V184.362L359.701 183.375Z" fill="#9F7D4A"/>
<path d="M393.034 192.801L329.862 156.34V158.876L393.034 195.344V192.801Z" fill="#9F7D4A"/>
<path d="M399.65 189.102L393.034 192.801L329.862 156.34L336.45 152.634L399.65 189.102Z" fill="#CAAE68"/>
<path d="M399.651 189.102L393.035 192.801V197.534L399.651 193.681V189.102Z" fill="#72522F"/>
<path d="M405.351 185.545L342.002 148.922V151.465L405.351 188.081V185.545Z" fill="#9F7D4A"/>
<path d="M411.974 181.84L405.351 185.545L342.002 148.922L348.59 145.224L411.974 181.84Z" fill="#CAAE68"/>
<path d="M411.974 181.84L405.351 185.545V190.279L411.974 186.426V181.84Z" fill="#72522F"/>
<path d="M417.963 178.395L354.466 141.702V144.238L417.963 180.938V178.395Z" fill="#9F7D4A"/>
<path d="M424.586 174.697L417.963 178.395L354.466 141.702L361.061 138.004L424.586 174.697Z" fill="#CAAE68"/>
<path d="M424.585 174.697L417.962 178.395V183.129L424.585 179.276V174.697Z" fill="#72522F"/>
<path d="M430.285 171.14L366.937 134.679V137.215L430.285 173.683V171.14Z" fill="#9F7D4A"/>
<path d="M436.908 167.434L430.285 171.14L366.937 134.679L373.525 130.973L436.908 167.434Z" fill="#CAAE68"/>
<path d="M436.908 167.434L430.285 171.14V175.873L436.908 172.02V167.434Z" fill="#72522F"/>
<path d="M441.622 164.772L378.119 128.149V130.692L441.622 167.315V164.772Z" fill="#9F7D4A"/>
<path d="M448.238 161.073L441.622 164.772L378.119 128.149L384.706 124.45L448.238 161.073Z" fill="#CAAE68"/>
<path d="M448.238 161.073L441.622 164.772V169.505L448.238 165.652V161.073Z" fill="#72522F"/>
<path d="M388.659 156.882L388.652 122.471L416.152 106.572V140.948L388.659 156.882Z" fill="#AE835B"/>
<path d="M388.659 156.882L388.652 122.471L361.152 106.572V140.948L388.659 156.882Z" fill="#C99A6B"/>
<path d="M361.152 106.572L388.652 122.471L416.151 106.572L388.659 90.6874L361.152 106.572Z" fill="#E8B687"/>
<path d="M405.928 122.492L399.798 126.049V116.011L405.928 112.447V122.492Z" fill="#9C754E"/>
<g style="mix-blend-mode:screen">
<path d="M405.928 112.447L378.464 96.5764L372.32 100.127L399.798 116.026L405.928 112.447Z" fill="#F0CBA4"/>
</g>
<path d="M392.295 151.958V150.19L401.532 144.836V146.633L392.295 151.958Z" fill="#9C754E"/>
<path d="M392.295 148.795V147.027L401.532 141.674V143.47L392.295 148.795Z" fill="#9C754E"/>
<path d="M409.817 135.911V142.047L414.235 139.49V133.354L409.817 135.911Z" fill="#9C754E"/>
<path d="M367.205 135.27V141.667L362.787 139.11V132.72L367.205 135.27Z" fill="#9C754E"/>
<path d="M373.229 138.764V145.153L368.811 142.603V136.214L373.229 138.764Z" fill="#9C754E"/>
<path d="M371.862 116.575V125.761L362.787 120.52V111.32L371.862 116.575Z" fill="white"/>
<path d="M370.749 118.456V116.955L363.612 112.842V114.314L370.749 118.456Z" fill="#9C754E"/>
<path d="M418.73 174.07L418.716 139.659L446.223 123.76V158.136L418.73 174.07Z" fill="#AE835B"/>
<path d="M418.73 174.07L418.716 139.659L391.217 123.76V158.136L418.73 174.07Z" fill="#C99A6B"/>
<path d="M391.217 123.76L418.716 139.659L446.223 123.76L418.73 107.868L391.217 123.76Z" fill="#E8B687"/>
<path d="M436 139.68L429.863 143.237V133.199L436 129.635V139.68Z" fill="#9C754E"/>
<g style="mix-blend-mode:screen">
<path d="M435.999 129.635L408.535 113.757L402.391 117.308L429.862 133.206L435.999 129.635Z" fill="#F0CBA4"/>
</g>
<path d="M422.366 169.146V167.378L431.596 162.024V163.814L422.366 169.146Z" fill="#9C754E"/>
<path d="M422.366 165.983V164.215L431.596 158.862V160.651L422.366 165.983Z" fill="#9C754E"/>
<path d="M439.882 153.099V159.235L444.3 156.678V150.535L439.882 153.099Z" fill="#9C754E"/>
<path d="M397.269 152.451V158.847L392.852 156.297V149.901L397.269 152.451Z" fill="#9C754E"/>
<path d="M403.293 155.945V162.341L398.875 159.791V153.395L403.293 155.945Z" fill="#9C754E"/>
<path d="M401.926 133.756V142.949L392.852 137.708V128.508L401.926 133.756Z" fill="white"/>
<path d="M400.813 135.637V134.143L393.676 130.029V131.495L400.813 135.637Z" fill="#9C754E"/>
<path d="M360.35 173.95L360.335 139.539L387.835 123.64V158.016L360.35 173.95Z" fill="#AE835B"/>
<path d="M360.35 173.95L360.335 139.539L332.836 123.64V158.016L360.35 173.95Z" fill="#C99A6B"/>
<path d="M332.836 123.64L360.335 139.539L387.835 123.64L360.35 107.749L332.836 123.64Z" fill="#E8B687"/>
<path d="M377.611 139.56L371.481 143.118V133.08L377.611 129.515V139.56Z" fill="#9C754E"/>
<path d="M377.612 129.515L350.154 113.638L344.003 117.195L371.482 133.087L377.612 129.515Z" fill="#F0CBA4"/>
<path d="M363.978 169.026V167.258L373.215 161.905V163.694L363.978 169.026Z" fill="#9C754E"/>
<path d="M363.978 165.863V164.095L373.215 158.742V160.531L363.978 165.863Z" fill="#9C754E"/>
<path d="M381.5 152.973V159.115L385.918 156.558V150.415L381.5 152.973Z" fill="#9C754E"/>
<path d="M338.888 152.332V158.728L334.47 156.178V149.782L338.888 152.332Z" fill="#9C754E"/>
<path d="M344.912 155.825V162.222L340.495 159.672V153.275L344.912 155.825Z" fill="#9C754E"/>
<path d="M343.545 133.643V142.829L334.47 137.588V128.388L343.545 133.643Z" fill="#F0CBA4"/>
<path d="M342.432 135.517V134.024L335.294 129.91V131.375L342.432 135.517Z" fill="#9C754E"/>
<path d="M390.414 191.131L390.407 156.727L417.906 140.828V175.204L390.414 191.131Z" fill="#AE835B"/>
<path d="M390.414 191.131L390.406 156.727L362.9 140.828V175.204L390.414 191.131Z" fill="#C99A6B"/>
<path d="M362.9 140.828L390.406 156.727L417.906 140.828L390.414 124.936L362.9 140.828Z" fill="#E8B687"/>
<path d="M407.683 156.748L401.546 160.306V150.261L407.683 146.703V156.748Z" fill="#9C754E"/>
<path d="M407.682 146.703L380.218 130.825L374.074 134.376L401.546 150.275L407.682 146.703Z" fill="#F0CBA4"/>
<path d="M394.049 186.214V184.439L403.279 179.093V180.882L394.049 186.214Z" fill="#9C754E"/>
<path d="M394.049 183.051V181.276L403.279 175.923V177.719L394.049 183.051Z" fill="#9C754E"/>
<path d="M411.572 170.16V176.303L415.982 173.746V167.603L411.572 170.16Z" fill="#9C754E"/>
<path d="M368.952 169.519V175.916L364.542 173.366V166.969L368.952 169.519Z" fill="#9C754E"/>
<path d="M374.976 173.013V179.41L370.565 176.86V170.463L374.976 173.013Z" fill="#9C754E"/>
<path d="M373.609 150.824V160.017L364.542 154.776V145.569L373.609 150.824Z" fill="#F0CBA4"/>
<path d="M372.503 152.705V151.211L365.359 147.091V148.563L372.503 152.705Z" fill="#9C754E"/>
<path d="M521.964 205.762L466.916 237.56L468.635 238.637L523.846 206.762L521.964 205.762Z" fill="#CAAE68"/>
<path d="M523.846 206.762L468.635 238.63V246.485L523.846 214.617V206.762Z" fill="#72522F"/>
<path d="M466.916 245.499V237.56L468.635 238.63V246.485L466.916 245.499Z" fill="#9F7D4A"/>
<path d="M460.512 170.125L405.463 201.923L407.183 203.008L462.393 171.126L460.512 170.125Z" fill="#CAAE68"/>
<path d="M462.393 171.126L407.183 202.994V210.848L462.393 178.98V171.126Z" fill="#72522F"/>
<path d="M405.463 209.869V201.923L407.183 202.994V210.848L405.463 209.869Z" fill="#9F7D4A"/>
<path d="M490.35 187.067L435.302 218.864L437.014 219.942L492.224 188.067L490.35 187.067Z" fill="#CAAE68"/>
<path d="M492.225 188.067L437.014 219.935V227.789L492.225 195.914V188.067Z" fill="#72522F"/>
<path d="M435.302 226.803V218.864L437.021 219.935V227.789L435.302 226.803Z" fill="#9F7D4A"/>
<path d="M468.635 236.228L405.463 199.767V202.303L468.635 238.771V236.228Z" fill="#9F7D4A"/>
<path d="M475.258 232.53L468.635 236.228L405.463 199.767L412.051 196.069L475.258 232.53Z" fill="#CAAE68"/>
<path d="M475.258 232.53L468.635 236.228V240.962L475.258 237.109V232.53Z" fill="#72522F"/>
<path d="M480.958 228.973L417.61 192.35V194.893L480.958 231.516V228.973Z" fill="#9F7D4A"/>
<path d="M487.574 225.275L480.958 228.973L417.61 192.35L424.198 188.652L487.574 225.275Z" fill="#CAAE68"/>
<path d="M487.574 225.275L480.958 228.973V233.706L487.574 229.853V225.275Z" fill="#72522F"/>
<path d="M493.57 221.823L430.074 185.129V187.672L493.57 224.366V221.823Z" fill="#9F7D4A"/>
<path d="M500.193 218.125L493.57 221.823L430.074 185.129L436.662 181.431L500.193 218.125Z" fill="#CAAE68"/>
<path d="M500.193 218.125L493.57 221.823V226.557L500.193 222.703V218.125Z" fill="#72522F"/>
<path d="M505.886 214.567L442.538 178.106V180.642L505.886 217.11V214.567Z" fill="#9F7D4A"/>
<path d="M512.509 210.869L505.886 214.567L442.538 178.106L449.126 174.401L512.509 210.869Z" fill="#CAAE68"/>
<path d="M512.509 210.869L505.886 214.567V219.301L512.509 215.448V210.869Z" fill="#72522F"/>
<path d="M517.223 208.206L453.727 171.576V174.119L517.223 210.742V208.206Z" fill="#9F7D4A"/>
<path d="M523.846 204.501L517.223 208.206L453.727 171.576L460.314 167.878L523.846 204.501Z" fill="#CAAE68"/>
<path d="M523.846 204.501L517.223 208.206V212.94L523.846 209.08V204.501Z" fill="#72522F"/>
<path d="M464.267 200.31L464.253 165.899L491.759 150.007V184.376L464.267 200.31Z" fill="#AE835B"/>
<path d="M464.267 200.31L464.253 165.899L436.753 150.007V184.376L464.267 200.31Z" fill="#C99A6B"/>
<path d="M436.753 150.007L464.253 165.899L491.76 150.007L464.267 134.115L436.753 150.007Z" fill="#E8B687"/>
<path d="M481.536 165.92L475.399 169.484V159.439L481.536 155.875V165.92Z" fill="#9C754E"/>
<g style="mix-blend-mode:screen">
<path d="M481.536 155.875L454.072 140.004L447.928 143.554L475.399 159.453L481.536 155.875Z" fill="#F0CBA4"/>
</g>
<path d="M467.902 195.386V193.618L477.132 188.264V190.06L467.902 195.386Z" fill="#9C754E"/>
<path d="M467.902 192.223V190.455L477.132 185.101V186.898L467.902 192.223Z" fill="#9C754E"/>
<path d="M485.418 179.339V185.475L489.836 182.918V176.782L485.418 179.339Z" fill="#9C754E"/>
<path d="M442.806 178.698V185.094L438.388 182.544V176.148L442.806 178.698Z" fill="#9C754E"/>
<path d="M448.83 182.192V188.588L444.412 186.038V179.642L448.83 182.192Z" fill="#9C754E"/>
<path d="M447.463 160.003V169.195L438.388 163.947V154.748L447.463 160.003Z" fill="white"/>
<path d="M446.35 161.883V160.383L439.212 156.269V157.741L446.35 161.883Z" fill="#9C754E"/>
<path d="M494.331 217.498L494.324 183.087L521.824 167.188V201.564L494.331 217.498Z" fill="#AE835B"/>
<path d="M494.331 217.498L494.324 183.087L466.825 167.188V201.564L494.331 217.498Z" fill="#C99A6B"/>
<path d="M466.825 167.188L494.324 183.087L521.824 167.188L494.331 151.296L466.825 167.188Z" fill="#E8B687"/>
<path d="M511.6 183.108L505.471 186.665V176.627L511.6 173.063V183.108Z" fill="#9C754E"/>
<path d="M511.6 173.063L484.136 157.192L477.992 160.742L505.471 176.634L511.6 173.063Z" fill="#F0CBA4"/>
<path d="M497.967 212.574V210.806L507.197 205.452V207.248L497.967 212.574Z" fill="#9C754E"/>
<path d="M497.967 209.411V207.643L507.197 202.289V204.078L497.967 209.411Z" fill="#9C754E"/>
<path d="M515.489 196.527V202.663L519.9 200.106V193.97L515.489 196.527Z" fill="#9C754E"/>
<path d="M472.87 195.879V202.275L468.459 199.725V193.329L472.87 195.879Z" fill="#9C754E"/>
<path d="M478.894 199.373V205.769L474.483 203.219V196.823L478.894 199.373Z" fill="#9C754E"/>
<path d="M477.534 177.191V186.376L468.459 181.135V171.936L477.534 177.191Z" fill="white"/>
<path d="M476.421 179.064V177.571L469.284 173.457V174.929L476.421 179.064Z" fill="#9C754E"/>
<path d="M435.95 217.378L435.943 182.967L463.442 167.075V201.444L435.95 217.378Z" fill="#AE835B"/>
<path d="M435.95 217.378L435.943 182.967L408.437 167.075V201.444L435.95 217.378Z" fill="#C99A6B"/>
<path d="M408.437 167.075L435.943 182.967L463.443 167.075L435.95 151.183L408.437 167.075Z" fill="#E8B687"/>
<path d="M453.219 182.988L447.083 186.545V176.507L453.219 172.943V182.988Z" fill="#9C754E"/>
<path d="M453.219 172.943L425.755 157.072L419.611 160.623L447.082 176.521L453.219 172.943Z" fill="#F0CBA4"/>
<path d="M439.586 212.454V210.686L448.816 205.332V207.129L439.586 212.454Z" fill="#9C754E"/>
<path d="M439.586 209.291V207.523L448.816 202.169V203.966L439.586 209.291Z" fill="#9C754E"/>
<path d="M457.108 196.407V202.543L461.519 199.986V193.85L457.108 196.407Z" fill="#9C754E"/>
<path d="M414.489 195.759V202.162L410.078 199.605V193.216L414.489 195.759Z" fill="#9C754E"/>
<path d="M420.513 199.26V205.649L416.103 203.099V196.703L420.513 199.26Z" fill="#9C754E"/>
<path d="M419.153 177.071V186.264L410.078 181.016V171.816L419.153 177.071Z" fill="#F0CBA4"/>
<path d="M418.04 178.945V177.451L410.896 173.337V174.81L418.04 178.945Z" fill="#9C754E"/>
<path d="M466.014 234.566L466.007 200.155L493.507 184.256V218.632L466.014 234.566Z" fill="#AE835B"/>
<path d="M466.014 234.566L466.007 200.155L438.508 184.256V218.632L466.014 234.566Z" fill="#C99A6B"/>
<path d="M438.508 184.256L466.007 200.155L493.507 184.256L466.014 168.364L438.508 184.256Z" fill="#E8B687"/>
<path d="M483.284 200.176L477.154 203.733V193.688L483.284 190.131V200.176Z" fill="#9C754E"/>
<path d="M483.283 190.131L455.819 174.253L449.675 177.803L477.154 193.702L483.283 190.131Z" fill="#F0CBA4"/>
<path d="M469.65 229.642V227.874L478.887 222.52V224.309L469.65 229.642Z" fill="#9C754E"/>
<path d="M469.65 226.479V224.711L478.887 219.357V221.147L469.65 226.479Z" fill="#9C754E"/>
<path d="M487.173 213.588V219.731L491.591 217.174V211.031L487.173 213.588Z" fill="#9C754E"/>
<path d="M444.56 212.947V219.343L440.142 216.793V210.397L444.56 212.947Z" fill="#9C754E"/>
<path d="M450.584 216.441V222.837L446.167 220.287V213.891L450.584 216.441Z" fill="#9C754E"/>
<path d="M449.217 194.252V203.444L440.142 198.204V189.004L449.217 194.252Z" fill="#F0CBA4"/>
<path d="M448.104 196.133V194.639L440.967 190.518V191.991L448.104 196.133Z" fill="#9C754E"/>
<path d="M387.018 41.6807L313.601 84.2701L472.32 176.55L545.878 134.031L387.018 41.6807Z" fill="#DED8D1"/>
<path d="M472.32 181.657V176.226L545.878 133.707V139.124L472.32 181.657Z" fill="#9B897F"/>
<path d="M313.601 84.2701V89.7153L472.32 181.431V176L313.601 84.2701Z" fill="#CDC6BC"/>
<path d="M446.364 80.7833L391.315 112.588L393.035 113.666L448.238 81.7835L446.364 80.7833Z" fill="#CAAE68"/>
<path d="M448.238 81.7835L393.035 113.652V121.506L448.238 89.6379V81.7835Z" fill="#72522F"/>
<path d="M391.315 120.527V112.588L393.035 113.652V121.506L391.315 120.527Z" fill="#9F7D4A"/>
<path d="M384.911 45.1465L329.862 76.9512L331.581 78.029L386.785 46.1538L384.911 45.1465Z" fill="#CAAE68"/>
<path d="M386.785 46.1468L331.582 78.0149V85.8762L386.785 54.0011V46.1468Z" fill="#72522F"/>
<path d="M329.862 84.89V76.9512L331.581 78.0219V85.8762L329.862 84.89Z" fill="#9F7D4A"/>
<path d="M414.75 62.0879L359.701 93.8855L361.413 94.9633L416.624 63.0881L414.75 62.0879Z" fill="#CAAE68"/>
<path d="M416.624 63.0881L361.413 94.9562V102.811L416.624 70.9425V63.0881Z" fill="#72522F"/>
<path d="M359.701 101.831V93.8855L361.413 94.9563V102.811L359.701 101.831Z" fill="#9F7D4A"/>
<path d="M393.034 111.257L329.862 74.7886V77.3316L393.034 113.793V111.257Z" fill="#9F7D4A"/>
<path d="M399.65 107.551L393.034 111.257L329.862 74.7886L336.45 71.0904L399.65 107.551Z" fill="#CAAE68"/>
<path d="M399.651 107.551L393.035 111.257V115.99L399.651 112.13V107.551Z" fill="#72522F"/>
<path d="M405.351 103.994L342.002 67.3781V69.914L405.351 106.537V103.994Z" fill="#9F7D4A"/>
<path d="M411.974 100.296L405.351 103.994L342.002 67.3781L348.59 63.6728L411.974 100.296Z" fill="#CAAE68"/>
<path d="M411.974 100.296L405.351 103.994V108.728L411.974 104.875V100.296Z" fill="#72522F"/>
<path d="M417.963 96.8511L354.466 60.1507V62.6937L417.963 99.3871V96.8511Z" fill="#9F7D4A"/>
<path d="M424.586 93.1459L417.963 96.8512L354.466 60.1507L361.061 56.4525L424.586 93.1459Z" fill="#CAAE68"/>
<path d="M424.585 93.1459L417.962 96.8511V101.585L424.585 97.7317V93.1459Z" fill="#72522F"/>
<path d="M430.285 89.5885L366.937 53.1276V55.6635L430.285 92.1315V89.5885Z" fill="#9F7D4A"/>
<path d="M436.908 85.8903L430.285 89.5886L366.937 53.1276L373.525 49.4294L436.908 85.8903Z" fill="#CAAE68"/>
<path d="M436.908 85.8903L430.285 89.5885V94.3223L436.908 90.4691V85.8903Z" fill="#72522F"/>
<path d="M441.622 83.2276L378.119 46.6046V49.1406L441.622 85.7635V83.2276Z" fill="#9F7D4A"/>
<path d="M448.238 79.5223L441.622 83.2276L378.119 46.6047L384.706 42.8994L448.238 79.5223Z" fill="#CAAE68"/>
<path d="M448.238 79.5223L441.622 83.2276V87.9613L448.238 84.1081V79.5223Z" fill="#72522F"/>
<path d="M388.659 75.331L388.652 40.92L416.152 25.0282V59.397L388.659 75.331Z" fill="#AE835B"/>
<path d="M388.659 75.331L388.652 40.92L361.152 25.0282V59.397L388.659 75.331Z" fill="#C99A6B"/>
<path d="M361.152 25.0281L388.652 40.9199L416.151 25.0281L388.659 9.13635L361.152 25.0281Z" fill="#E8B687"/>
<path d="M405.928 40.9481L399.798 44.5055V34.4604L405.928 30.896V40.9481Z" fill="#9C754E"/>
<path d="M405.928 30.896L378.464 15.0254L372.32 18.5757L399.798 34.4745L405.928 30.896Z" fill="#F0CBA4"/>
<path d="M392.295 70.4071V68.639L401.532 63.2854V65.0817L392.295 70.4071Z" fill="#9C754E"/>
<path d="M392.295 67.2443V65.4761L401.532 60.1225V61.9188L392.295 67.2443Z" fill="#9C754E"/>
<path d="M409.817 54.3603V60.4959L414.235 57.9388V51.8033L409.817 54.3603Z" fill="#9C754E"/>
<path d="M367.205 53.7193V60.1155L362.787 57.5655V51.1693L367.205 53.7193Z" fill="#9C754E"/>
<path d="M373.229 57.2133V63.6094L368.811 61.0594V54.6632L373.229 57.2133Z" fill="#9C754E"/>
<path d="M371.862 35.0239V44.2166L362.787 38.9757V29.7689L371.862 35.0239Z" fill="white"/>
<path d="M370.749 36.9047V35.4043L363.612 31.2905V32.7627L370.749 36.9047Z" fill="#9C754E"/>
<path d="M418.73 92.5189L418.716 58.1079L446.223 42.2161V76.5849L418.73 92.5189Z" fill="#AE835B"/>
<path d="M418.73 92.5189L418.716 58.1079L391.217 42.2161V76.5849L418.73 92.5189Z" fill="#C99A6B"/>
<path d="M391.217 42.2161L418.716 58.1079L446.223 42.2161L418.73 26.3243L391.217 42.2161Z" fill="#E8B687"/>
<path d="M436 58.129L429.863 61.6934V51.6483L436 48.0839V58.129Z" fill="#9C754E"/>
<path d="M435.999 48.0839L408.535 32.2133L402.391 35.7636L429.862 51.6624L435.999 48.0839Z" fill="#F0CBA4"/>
<path d="M422.366 87.595V85.8269L431.596 80.4733V82.2696L422.366 87.595Z" fill="#9C754E"/>
<path d="M422.366 84.4322V82.6641L431.596 77.3105V79.1067L422.366 84.4322Z" fill="#9C754E"/>
<path d="M439.882 71.5483V77.6838L444.3 75.1267V68.9912L439.882 71.5483Z" fill="#9C754E"/>
<path d="M397.269 70.9072V77.3034L392.852 74.7463V68.3572L397.269 70.9072Z" fill="#9C754E"/>
<path d="M403.293 74.4012V80.7973L398.875 78.2403V71.8512L403.293 74.4012Z" fill="#9C754E"/>
<path d="M401.926 52.2118V61.4046L392.852 56.1566V46.9568L401.926 52.2118Z" fill="white"/>
<path d="M400.813 54.0927V52.5922L393.676 48.4784V49.9507L400.813 54.0927Z" fill="#9C754E"/>
<path d="M360.35 92.3992L360.335 57.9881L387.835 42.0963V76.4651L360.35 92.3992Z" fill="#AE835B"/>
<path d="M360.35 92.3992L360.335 57.9881L332.836 42.0963V76.4651L360.35 92.3992Z" fill="#C99A6B"/>
<path d="M332.836 42.0963L360.335 57.9881L387.835 42.0963L360.35 26.2045L332.836 42.0963Z" fill="#E8B687"/>
<path d="M377.611 58.0092L371.481 61.5736V51.5286L377.611 47.9642V58.0092Z" fill="#9C754E"/>
<path d="M377.612 47.9642L350.154 32.0935L344.003 35.6438L371.482 51.5426L377.612 47.9642Z" fill="#F0CBA4"/>
<path d="M363.978 87.4753V85.7072L373.215 80.3536V82.1498L363.978 87.4753Z" fill="#9C754E"/>
<path d="M363.978 84.3124V82.5443L373.215 77.1907V78.987L363.978 84.3124Z" fill="#9C754E"/>
<path d="M381.5 71.4285V77.564L385.918 75.007V68.8715L381.5 71.4285Z" fill="#9C754E"/>
<path d="M338.888 70.7875V77.1837L334.47 74.6336V68.2375L338.888 70.7875Z" fill="#9C754E"/>
<path d="M344.912 74.2814V80.6776L340.495 78.1276V71.7314L344.912 74.2814Z" fill="#9C754E"/>
<path d="M343.545 52.0921V61.2848L334.47 56.0369V46.8371L343.545 52.0921Z" fill="#F0CBA4"/>
<path d="M342.432 53.9729V52.4725L335.294 48.3587V49.8309L342.432 53.9729Z" fill="#9C754E"/>
<path d="M390.414 109.587L390.407 75.176L417.906 59.2772V93.6531L390.414 109.587Z" fill="#AE835B"/>
<path d="M390.414 109.587L390.406 75.176L362.9 59.2772V93.6531L390.414 109.587Z" fill="#C99A6B"/>
<path d="M362.9 59.2772L390.406 75.176L417.906 59.2772L390.414 43.3854L362.9 59.2772Z" fill="#E8B687"/>
<path d="M407.683 75.1972L401.546 78.7545V68.7165L407.683 65.1521V75.1972Z" fill="#9C754E"/>
<path d="M407.682 65.1521L380.218 49.2744L374.074 52.8317L401.546 68.7235L407.682 65.1521Z" fill="#F0CBA4"/>
<path d="M394.049 104.663V102.895L403.279 97.5415V99.3378L394.049 104.663Z" fill="#9C754E"/>
<path d="M394.049 101.5V99.7323L403.279 94.3786V96.1749L394.049 101.5Z" fill="#9C754E"/>
<path d="M411.572 88.6164V94.752L415.982 92.1949V86.0594L411.572 88.6164Z" fill="#9C754E"/>
<path d="M368.952 87.9754V94.3716L364.542 91.8145V85.4184L368.952 87.9754Z" fill="#9C754E"/>
<path d="M374.976 91.4623V97.8585L370.565 95.3085V88.9123L374.976 91.4623Z" fill="#9C754E"/>
<path d="M373.609 69.28V78.4657L364.542 73.2248V64.025L373.609 69.28Z" fill="#F0CBA4"/>
<path d="M372.503 71.1538V69.6604L365.359 65.5466V67.0188L372.503 71.1538Z" fill="#9C754E"/>
<path d="M521.964 124.211L466.916 156.016L468.635 157.093L523.846 125.218L521.964 124.211Z" fill="#CAAE68"/>
<path d="M523.846 125.211L468.635 157.086V164.941L523.846 133.066V125.211Z" fill="#72522F"/>
<path d="M466.916 163.955V156.016L468.635 157.086V164.941L466.916 163.955Z" fill="#9F7D4A"/>
<path d="M460.512 88.5742L405.463 120.379L407.183 121.457L462.393 89.5815L460.512 88.5742Z" fill="#CAAE68"/>
<path d="M462.393 89.5745L407.183 121.45V129.304L462.393 97.4288V89.5745Z" fill="#72522F"/>
<path d="M405.463 128.318V120.379L407.183 121.45V129.304L405.463 128.318Z" fill="#9F7D4A"/>
<path d="M490.35 105.516L435.302 137.32L437.014 138.398L492.224 106.516L490.35 105.516Z" fill="#CAAE68"/>
<path d="M492.225 106.516L437.014 138.391V146.238L492.225 114.37V106.516Z" fill="#72522F"/>
<path d="M435.302 145.259V137.32L437.021 138.391V146.238L435.302 145.259Z" fill="#9F7D4A"/>
<path d="M468.635 154.684L405.463 118.216V120.759L468.635 157.22V154.684Z" fill="#9F7D4A"/>
<path d="M475.258 150.979L468.635 154.684L405.463 118.216L412.051 114.518L475.258 150.979Z" fill="#CAAE68"/>
<path d="M475.258 150.979L468.635 154.684V159.418L475.258 155.565V150.979Z" fill="#72522F"/>
<path d="M480.958 147.422L417.61 110.806V113.342L480.958 149.965V147.422Z" fill="#9F7D4A"/>
<path d="M487.574 143.723L480.958 147.422L417.61 110.806L424.198 107.1L487.574 143.723Z" fill="#CAAE68"/>
<path d="M487.574 143.723L480.958 147.422V152.155L487.574 148.302V143.723Z" fill="#72522F"/>
<path d="M493.57 140.279L430.074 103.578V106.121L493.57 142.815V140.279Z" fill="#9F7D4A"/>
<path d="M500.193 136.574L493.57 140.279L430.074 103.578L436.662 99.8802L500.193 136.574Z" fill="#CAAE68"/>
<path d="M500.193 136.574L493.57 140.279V145.013L500.193 141.159V136.574Z" fill="#72522F"/>
<path d="M505.886 133.023L442.538 96.5553V99.0983L505.886 135.559V133.023Z" fill="#9F7D4A"/>
<path d="M512.509 129.318L505.886 133.023L442.538 96.5553L449.126 92.8571L512.509 129.318Z" fill="#CAAE68"/>
<path d="M512.509 129.318L505.886 133.023V137.75L512.509 133.897V129.318Z" fill="#72522F"/>
<path d="M517.223 126.655L453.727 90.0323V92.5682L517.223 129.198V126.655Z" fill="#9F7D4A"/>
<path d="M523.846 122.95L517.223 126.655L453.727 90.0323L460.314 86.3271L523.846 122.95Z" fill="#CAAE68"/>
<path d="M523.846 122.95L517.223 126.655V131.389L523.846 127.536V122.95Z" fill="#72522F"/>
<path d="M467.769 114.779L467.755 100.542L488.103 88.8207V103.064L467.769 114.779Z" fill="#AE835B"/>
<path d="M467.769 114.779L467.755 100.542L444.194 86.9117V101.148L467.769 114.779Z" fill="#C99A6B"/>
<path d="M444.194 86.9117L467.755 100.542L488.103 88.8207L464.5 75.1761L444.194 86.9117Z" fill="#E8B687"/>
<path d="M469.467 112.172V110.707L477.133 106.262V107.756L469.467 112.172Z" fill="#9C754E"/>
<path d="M469.467 109.552V108.08L477.133 103.642V105.128L469.467 109.552Z" fill="#9C754E"/>
<path d="M451.014 93.9207V100.542L446.441 97.9007V91.2792L451.014 93.9207Z" fill="#9C754E"/>
<path d="M455.368 95.6748V103.515L445.864 98.0205V90.2084L455.368 95.6748Z" fill="white"/>
<path d="M453.924 97.5626V96.0974L446.92 92.0611V93.5051L453.924 97.5626Z" fill="#9C754E"/>
<path d="M482.17 92.1949L476.928 95.238V102.733L482.17 99.697V92.1949Z" fill="#9C754E"/>
<g style="mix-blend-mode:screen">
<path d="M482.17 92.1949L458.616 78.5925L453.353 81.6145L476.928 95.2521L482.17 92.1949Z" fill="#F0CBA4"/>
</g>
<path d="M437.113 132.389L437.105 118.16L457.447 106.431V120.675L437.113 132.389Z" fill="#AE835B"/>
<path d="M437.113 132.389L437.106 118.16L413.538 104.522V118.759L437.113 132.389Z" fill="#C99A6B"/>
<path d="M413.538 104.522L437.106 118.16L457.447 106.431L433.843 92.7866L413.538 104.522Z" fill="#E8B687"/>
<path d="M438.811 129.79V128.318L446.476 123.88V125.366L438.811 129.79Z" fill="#9C754E"/>
<path d="M438.811 127.162V125.697L446.476 121.252V122.739L438.811 127.162Z" fill="#9C754E"/>
<path d="M420.358 111.538V118.16L415.785 115.518V108.897L420.358 111.538Z" fill="#9C754E"/>
<path d="M424.712 113.292V121.126L415.208 115.638V107.826L424.712 113.292Z" fill="#F0CBA4"/>
<path d="M423.275 115.18V113.715L416.271 109.672V111.116L423.275 115.18Z" fill="#9C754E"/>
<path d="M451.514 109.805L446.279 112.849V120.351L451.514 117.308V109.805Z" fill="#9C754E"/>
<g style="mix-blend-mode:screen">
<path d="M451.514 109.806L427.96 96.2031L422.697 99.2321L446.279 112.863L451.514 109.806Z" fill="#F0CBA4"/>
</g>
<path d="M497.734 132.234L497.727 117.998L518.068 106.269V120.513L497.734 132.234Z" fill="#AE835B"/>
<path d="M497.734 132.234L497.727 117.998L474.159 104.367V118.597L497.734 132.234Z" fill="#C99A6B"/>
<path d="M474.159 104.367L497.727 117.998L518.068 106.269L494.465 92.6246L474.159 104.367Z" fill="#E8B687"/>
<path d="M499.432 129.628V128.156L507.098 123.718V125.204L499.432 129.628Z" fill="#9C754E"/>
<path d="M499.432 127V125.535L507.098 121.09V122.577L499.432 127Z" fill="#9C754E"/>
<path d="M480.979 111.376V117.998L476.407 115.356V108.735L480.979 111.376Z" fill="#9C754E"/>
<path d="M485.334 113.13V120.964L475.829 115.476V107.664L485.334 113.13Z" fill="white"/>
<path d="M483.897 115.018V113.553L476.893 109.517V110.954L483.897 115.018Z" fill="#9C754E"/>
<path d="M512.136 109.651L506.901 112.687V120.189L512.136 117.146V109.651Z" fill="#9C754E"/>
<path d="M512.135 109.651L488.582 96.0411L483.318 99.0701L506.9 112.708L512.135 109.651Z" fill="#F0CBA4"/>
<path d="M467.078 149.845L467.071 135.609L487.412 123.887V138.13L467.078 149.845Z" fill="#AE835B"/>
<path d="M467.078 149.845L467.071 135.609L443.51 121.978V136.214L467.078 149.845Z" fill="#C99A6B"/>
<path d="M443.51 121.978L467.071 135.609L487.412 123.887L463.809 110.242L443.51 121.978Z" fill="#E8B687"/>
<path d="M468.783 147.239V145.773L476.442 141.328V142.822L468.783 147.239Z" fill="#9C754E"/>
<path d="M468.783 144.611V143.146L476.442 138.701V140.194L468.783 144.611Z" fill="#9C754E"/>
<path d="M450.324 128.987V135.609L445.751 132.967V126.345L450.324 128.987Z" fill="#9C754E"/>
<path d="M454.678 130.741V138.581L445.18 133.087V125.275L454.678 130.741Z" fill="#F0CBA4"/>
<path d="M453.24 132.629V131.164L446.237 127.127V128.571L453.24 132.629Z" fill="#9C754E"/>
<path d="M481.48 127.261L476.245 130.304V137.799L481.48 134.763V127.261Z" fill="#9C754E"/>
<path d="M481.479 127.261L457.933 113.659L452.669 116.681L476.244 130.318L481.479 127.261Z" fill="#F0CBA4"/>
<path d="M467.769 99.1264L467.755 84.8971L488.103 73.1684V87.4119L467.769 99.1264Z" fill="#AE835B"/>
<path d="M467.769 99.1264L467.755 84.8971L444.194 71.2665V85.4958L467.769 99.1264Z" fill="#C99A6B"/>
<path d="M444.194 71.2665L467.755 84.8971L488.103 73.1684L464.5 59.5238L444.194 71.2665Z" fill="#E8B687"/>
<path d="M469.467 96.5271V95.0549L477.133 90.617V92.1033L469.467 96.5271Z" fill="#9C754E"/>
<path d="M469.467 93.8996V92.4344L477.133 87.9895V89.4758L469.467 93.8996Z" fill="#9C754E"/>
<path d="M451.014 78.2755V84.8971L446.441 82.2555V75.6339L451.014 78.2755Z" fill="#9C754E"/>
<path d="M455.368 80.0295V87.8627L445.864 82.3753V74.5632L455.368 80.0295Z" fill="#F0CBA4"/>
<path d="M453.924 81.9174V80.4522L446.92 76.4088V77.8528L453.924 81.9174Z" fill="#9C754E"/>
<path d="M482.17 76.5497L476.928 79.5857V87.0878L482.17 84.0447V76.5497Z" fill="#9C754E"/>
<path d="M482.17 76.5497L458.616 62.9473L453.353 65.9692L476.928 79.6069L482.17 76.5497Z" fill="#F0CBA4"/>
<path d="M437.113 116.744L437.105 102.508L457.447 90.7861V105.03L437.113 116.744Z" fill="#AE835B"/>
<path d="M437.113 116.744L437.106 102.508L413.538 88.8771V103.113L437.113 116.744Z" fill="#C99A6B"/>
<path d="M413.538 88.8771L437.106 102.508L457.447 90.7861L433.843 77.1414L413.538 88.8771Z" fill="#E8B687"/>
<path d="M438.811 114.138V112.672L446.476 108.228V109.714L438.811 114.138Z" fill="#9C754E"/>
<path d="M438.811 111.517V110.045L446.476 105.6V107.093L438.811 111.517Z" fill="#9C754E"/>
<path d="M420.358 95.8861V102.508L415.785 99.8661V93.2445L420.358 95.8861Z" fill="#9C754E"/>
<path d="M424.712 97.6401V105.48L415.208 99.9858V92.1738L424.712 97.6401Z" fill="#F0CBA4"/>
<path d="M423.275 99.528V98.0628L416.271 94.0264V95.4705L423.275 99.528Z" fill="#9C754E"/>
<path d="M451.514 94.1602L446.279 97.2034V104.698L451.514 101.662V94.1602Z" fill="#9C754E"/>
<path d="M451.514 94.1602L427.96 80.5578L422.697 83.5798L446.279 97.2174L451.514 94.1602Z" fill="#F0CBA4"/>
<path d="M497.734 116.582L497.727 102.346L518.068 90.6241V104.867L497.734 116.582Z" fill="#AE835B"/>
<path d="M497.734 116.582L497.727 102.346L474.159 88.7151V102.951L497.734 116.582Z" fill="#C99A6B"/>
<path d="M474.159 88.7151L497.727 102.346L518.068 90.624L494.465 76.9794L474.159 88.7151Z" fill="#E8B687"/>
<path d="M499.432 113.976V112.51L507.098 108.066V109.559L499.432 113.976Z" fill="#9C754E"/>
<path d="M499.432 111.355V109.883L507.098 105.445V106.931L499.432 111.355Z" fill="#9C754E"/>
<path d="M480.979 95.7241V102.346L476.407 99.7041V93.0825L480.979 95.7241Z" fill="#9C754E"/>
<path d="M485.334 97.4781V105.318L475.829 99.8308V92.0117L485.334 97.4781Z" fill="#F0CBA4"/>
<path d="M483.897 99.373V97.9007L476.893 93.8644V95.3085L483.897 99.373Z" fill="#9C754E"/>
<path d="M512.136 93.9982L506.901 97.0413V104.536L512.136 101.5V93.9982Z" fill="#9C754E"/>
<path d="M512.135 93.9982L488.582 80.3958L483.318 83.4178L506.9 97.0554L512.135 93.9982Z" fill="#F0CBA4"/>
<path d="M467.078 134.193L467.071 119.963L487.412 108.235V122.478L467.078 134.193Z" fill="#AE835B"/>
<path d="M467.078 134.193L467.071 119.963L443.51 106.326V120.562L467.078 134.193Z" fill="#C99A6B"/>
<path d="M443.51 106.326L467.071 119.963L487.412 108.235L463.809 94.5899L443.51 106.326Z" fill="#E8B687"/>
<path d="M468.783 131.593V130.121L476.442 125.683V127.17L468.783 131.593Z" fill="#9C754E"/>
<path d="M468.783 128.966V127.501L476.442 123.056V124.542L468.783 128.966Z" fill="#9C754E"/>
<path d="M450.324 113.342V119.963L445.751 117.322V110.7L450.324 113.342Z" fill="#9C754E"/>
<path d="M454.678 115.096V122.929L445.18 117.441V109.629L454.678 115.096Z" fill="#F0CBA4"/>
<path d="M453.24 116.984V115.518L446.237 111.475V112.919L453.24 116.984Z" fill="#9C754E"/>
<path d="M481.48 111.609L476.245 114.652V122.154L481.48 119.111V111.609Z" fill="#9C754E"/>
<path d="M481.479 111.609L457.933 98.0064L452.669 101.035L476.244 114.673L481.479 111.609Z" fill="#F0CBA4"/>
<path d="M473.264 351L473.271 139.962L469.812 137.968V349.007L473.264 351Z" fill="#3A3A3A"/>
<path d="M473.265 351L477.443 348.619V137.553L473.265 139.962V351Z" fill="#9C754E"/>
<path d="M546.822 308.657L546.829 97.619L543.37 95.6255V306.664L546.822 308.657Z" fill="#3A3A3A"/>
<path d="M546.822 308.657L551 306.276V95.2098L546.822 97.619V308.657Z" fill="#9C754E"/>
<path d="M469.812 137.968L473.264 139.962L477.443 137.553L473.983 135.566L469.812 137.968Z" fill="#A3A3A3"/>
<path d="M543.37 95.6254L546.822 97.619L551 95.2098L547.541 93.2234L543.37 95.6254Z" fill="#A3A3A3"/>
<path d="M549.647 300.915L546.822 303.74L475.104 246.752L476.414 242.568L549.647 300.915Z" fill="#9C754E"/>
<path d="M475.674 341.54L476.336 345.576L548.492 205.332L546.829 202.888L475.674 341.54Z" fill="#9C754E"/>
<path d="M549.647 201.444L546.822 204.269L475.104 147.281L476.414 143.097L549.647 201.444Z" fill="#9C754E"/>
<path d="M475.674 242.068L476.336 246.097L548.492 105.861L546.829 103.409L475.674 242.068Z" fill="#9C754E"/>
<g clip-path="url(#clip0)">
<path d="M86.1328 375.709L163.848 421.661L237.413 378.645L159.689 332.549L86.1328 375.709Z" fill="#BECDD4"/>
<g style="mix-blend-mode:multiply">
<path d="M60.2487 412.845C73.8541 404.997 95.865 404.962 109.355 412.756C122.844 420.549 122.8 433.219 109.203 441.084C95.6068 448.948 73.587 448.975 60.0973 441.172C46.6076 433.37 46.6432 420.692 60.2487 412.845Z" fill="#D2D2D2"/>
</g>
<g style="mix-blend-mode:multiply">
<path fill-rule="evenodd" clip-rule="evenodd" d="M276.903 329.809C263.413 322.007 241.402 322.051 227.797 329.898C225.289 331.345 223.242 332.956 221.656 334.67C211.494 334.015 200.893 335.947 193.071 340.459C179.466 348.306 179.43 360.993 192.92 368.787C206.409 376.581 228.42 376.563 242.026 368.698C244.53 367.25 246.575 365.64 248.16 363.927C258.327 364.588 268.932 362.66 276.752 358.137C290.348 350.272 290.393 337.612 276.903 329.809Z" fill="#D2D2D2"/>
</g>
<path d="M222.891 344.498C222.891 344.498 220.603 346.989 217.548 349.97C214.708 352.737 213.835 353.528 211.2 356.091C209.659 357.594 210.933 358.973 213.871 358.858C217.842 358.461 221.755 357.616 225.535 356.34C228.567 355.063 231.488 353.54 234.27 351.785C235.511 351.052 236.434 349.885 236.861 348.511V343.902L222.891 344.498Z" fill="#9C754E"/>
<path d="M264.802 340.405C263.445 342.243 261.928 343.958 260.27 345.53C257.99 347.703 255.921 350.086 254.09 352.648C253.512 353.395 253.2 355.548 256.112 355.432C258.685 355.335 262.603 354.24 265.906 353.075C269.637 351.758 272.78 348.003 274.953 346.633C277.125 345.263 278.078 342.229 278.078 342.229L276.573 337.692L264.802 340.405Z" fill="#9C754E"/>
<path d="M263.636 265.653C264.722 248.749 255.391 239.852 255.391 239.852C256.13 234.176 229.685 242.183 229.685 242.183C229.685 242.183 224.022 272.806 221.626 288.937C218.911 307.264 220.558 344.596 220.558 344.596C220.558 344.596 220.896 348.582 227.735 348.555C232.979 348.555 236.843 343.946 236.843 343.946L237.387 301.463L243.459 271.338C243.459 271.338 249.309 295.823 251.161 304.604C253.129 313.955 260.689 341.607 260.689 341.607C260.689 341.607 265.586 347.229 271.658 344.196C277.731 341.162 276.538 337.772 276.538 337.772C276.538 337.772 275.345 318.199 267.536 300.6C266.886 287.219 263.137 273.42 263.636 265.653Z" fill="#7282B5"/>
<path d="M233.3 197.752C233.3 197.752 229.524 197.565 225.615 204.869C221.706 212.174 217.976 219.994 217.976 219.994C217.976 219.994 223.63 220.83 229.863 226.533C238.304 218.891 239.657 201.319 233.3 197.752Z" fill="#BF2A40"/>
<path d="M233.299 197.752C231.549 201.458 230.182 205.333 229.221 209.318C227.271 216.8 227.966 251.569 227.966 251.569C227.966 251.569 236.033 257.263 249.532 256.151C254.137 255.869 258.466 253.857 261.65 250.519C261.65 250.519 266.449 216.471 265.799 211.595C265.149 206.72 254.936 195.26 254.936 195.26C254.936 195.26 241.438 194.549 233.299 197.752Z" fill="#DF314A"/>
<path d="M242.542 193.001L240.975 202.147C240.975 202.147 245.631 207.369 250.181 203.463C254.731 199.558 255.39 197.769 255.39 197.769L253.147 185.314L242.542 193.001Z" fill="#FFAD97"/>
<path d="M244.546 218.864C244.546 218.864 250.422 210.02 255.079 207.538C257.308 206.236 259.704 205.245 262.202 204.593C262.202 204.593 260.511 201.097 259.371 200.696C257.403 200.99 256.13 201.533 251.936 203.704C247.742 205.874 243.165 211.133 241.331 214.38C237.689 220.83 241.839 222.61 244.546 218.864Z" fill="#7282B5"/>
<path d="M235.107 196.96C235.107 196.96 231.269 206.088 230.806 210.474C230.343 214.86 231.225 216.213 232.988 216.373C234.751 216.533 234.858 213.392 235.374 209.905C235.873 206.604 239.105 195.759 239.105 195.759L235.107 196.96Z" fill="#7282B5"/>
<path d="M262.318 245.688C262.318 245.688 258.026 249.069 253.77 248.607C250.048 248.197 244.679 244.576 244.964 232.797C245.249 221.017 246.344 215.599 246.344 215.599L232.097 209.371C232.097 209.371 228.233 218.268 227.467 235.866C226.701 253.464 226.381 259.461 226.381 259.461C226.381 259.461 241.58 260.351 250.582 259.461C259.584 258.571 263.333 257.423 263.333 257.423L262.318 245.688Z" fill="#7282B5"/>
<path d="M233.673 212.583C233.673 213.303 233.273 213.891 232.783 213.891C232.293 213.891 231.893 213.303 231.893 212.583C231.893 211.862 232.302 211.275 232.783 211.275C233.264 211.275 233.673 211.862 233.673 212.583Z" fill="white"/>
<path d="M242.203 216.56C241.785 217.147 241.767 217.859 242.203 218.152C242.64 218.446 243.272 218.152 243.699 217.61C244.127 217.067 244.136 216.32 243.699 216.026C243.263 215.732 242.631 215.973 242.203 216.56Z" fill="white"/>
<path d="M230.878 218.277C230.299 221.222 230.593 230.483 235.846 231.88C240.61 233.144 241.839 227.53 242.97 223.188C238.734 222.109 234.666 220.457 230.878 218.277Z" fill="#2E3665"/>
<path d="M248.971 171.594C245.08 168.632 235.864 167.68 232.534 177.235C228.972 187.218 238.037 199.673 242.854 197.556C245.525 196.373 251.215 192.164 252.817 186.879C254.58 180.954 251.989 173.89 248.971 171.594Z" fill="#FFC5B3"/>
<path d="M211.787 280.182V243.998L240.975 229.46V263.589L211.787 280.182Z" fill="#AE835B"/>
<path d="M211.787 280.182V243.998L182.608 229.46V263.589L211.787 280.182Z" fill="#C99A6B"/>
<path d="M211.805 280.493L211.787 243.998L240.975 227.138V263.589L211.805 280.493Z" fill="#AE835B"/>
<path d="M211.805 280.493L211.787 243.998L182.608 227.138V263.589L211.805 280.493Z" fill="#C99A6B"/>
<path d="M182.608 227.138L211.787 243.998L240.975 227.138L211.805 210.287L182.608 227.138Z" fill="#E8B687"/>
<path d="M230.121 244.016L223.621 247.797V237.147L230.121 233.366V244.016Z" fill="#9C754E"/>
<path d="M230.121 233.366L200.987 216.533L194.46 220.296L223.621 237.156L230.121 233.366Z" fill="#F0CBA4"/>
<path d="M215.661 275.271V273.394L225.455 267.717V269.621L215.661 275.271Z" fill="#9C754E"/>
<path d="M215.661 271.917V270.039L225.455 264.363V266.258L215.661 271.917Z" fill="#9C754E"/>
<path d="M234.252 258.251V264.755L238.936 262.05V255.537L234.252 258.251Z" fill="#9C754E"/>
<path d="M189.028 257.566V264.354L184.345 261.65V254.861L189.028 257.566Z" fill="#9C754E"/>
<path d="M195.421 261.276V268.055L190.738 265.351V258.571L195.421 261.276Z" fill="#9C754E"/>
<g style="mix-blend-mode:screen">
<path d="M193.97 237.743V247.486L184.345 241.925V232.174L193.97 237.743Z" fill="#54493E"/>
</g>
<path d="M192.795 239.736V238.144L185.217 233.784V235.341L192.795 239.736Z" fill="#9C754E"/>
<path d="M248.178 229.238C248.178 229.238 242.658 240.804 240.369 244.087C238.081 247.37 228.794 254.763 226.871 255.795C224.948 256.827 220.584 258.233 218.296 258.011C216.008 257.788 214.467 258.9 216.667 259.746C218.065 260.262 219.521 260.609 221.003 260.778C221.003 260.778 216.987 263.74 215.402 266.276C214.12 268.313 213.034 272.05 217.976 270.965C221.974 270.075 227.521 263.972 228.972 262.61C231.715 260.039 242.613 254.149 245.08 252.406C248.561 249.941 258.436 235.412 258.436 235.412C258.436 235.412 255.391 227.717 248.178 229.238Z" fill="#FFC5B3"/>
<path d="M264.063 207.369C261.196 205.065 255.061 212.876 251.811 217.752C248.561 222.627 245.952 229.932 245.952 229.932C245.952 229.932 249.87 232.77 253.378 234.985C255.326 236.191 257.345 237.278 259.424 238.242C259.424 238.242 273.884 215.279 264.063 207.369Z" fill="#BF2A40"/>
<path d="M231.706 180.358C233.309 181.995 235.65 183.81 240.476 183.027C242.871 182.628 245.17 181.783 247.252 180.536L248.063 185.821C248.551 185.726 249.02 185.552 249.452 185.305C249.532 183.214 250.28 182.564 251.428 183.187C252.737 183.89 252.791 186.871 252.791 186.871C253.99 185.575 254.854 184.006 255.307 182.3C255.761 180.594 255.789 178.803 255.391 177.084C254.563 173.365 249.541 166.034 242.542 166.683C235.544 167.333 231.466 171.95 230.602 175.954C230.417 176.723 230.421 177.525 230.613 178.291C230.805 179.058 231.18 179.767 231.706 180.358Z" fill="#9C754E"/>
<path d="M230.29 175.785C230.29 175.785 221.297 182.111 219.748 183.445C218.198 184.78 226.871 190.625 232.988 188.668C239.105 186.71 248.347 179.904 248.347 179.904L230.29 175.785Z" fill="#BF2A40"/>
<path d="M230.29 175.785C230.29 175.785 240.548 182.146 246.941 180.322C253.334 178.499 255.079 176.906 255.079 176.906C255.079 176.906 254.518 163.561 242.765 163.561C231.011 163.561 230.29 175.785 230.29 175.785Z" fill="#DF314A"/>
<path d="M243.281 163.979C243.281 164.512 242.497 164.948 241.5 164.948C240.503 164.948 239.719 164.512 239.719 163.979C239.719 163.445 240.512 163 241.5 163C242.488 163 243.281 163.436 243.281 163.979Z" fill="#7282B5"/>
<path d="M231.341 370.023L161.773 410.184L163.937 411.546L233.709 371.287L231.341 370.023Z" fill="#CAAE68"/>
<path d="M233.709 371.287L163.937 411.537V421.457L233.709 381.198V371.287Z" fill="#72522F"/>
<path d="M161.773 420.211V410.184L163.937 411.537V421.457L161.773 420.211Z" fill="#9F7D4A"/>
<path d="M153.679 325.014L84.1118 365.184L86.2755 366.545L156.048 326.277L153.679 325.014Z" fill="#CAAE68"/>
<path d="M156.048 326.277L86.2754 366.527V376.447L156.048 336.197V326.277Z" fill="#72522F"/>
<path d="M84.1118 375.202V365.184L86.2755 366.527V376.447L84.1118 375.202Z" fill="#9F7D4A"/>
<path d="M191.379 346.411L121.812 386.572L123.984 387.933L193.757 347.674L191.379 346.411Z" fill="#CAAE68"/>
<path d="M193.756 347.665L123.984 387.924V397.844L193.756 357.586V347.665Z" fill="#72522F"/>
<path d="M121.812 396.599V386.572L123.984 387.924V397.844L121.812 396.599Z" fill="#9F7D4A"/>
<path d="M163.937 408.503L84.1118 362.452V365.655L163.937 411.715V408.503Z" fill="#9F7D4A"/>
<path d="M172.307 403.832L163.937 408.503L84.1118 362.452L92.4371 357.781L172.307 403.832Z" fill="#CAAE68"/>
<path d="M172.306 403.832L163.937 408.503V414.482L172.306 409.615V403.832Z" fill="#72522F"/>
<path d="M179.51 399.339L99.4531 353.093V356.295L179.51 402.551V399.339Z" fill="#9F7D4A"/>
<path d="M187.88 394.659L179.51 399.339L99.4531 353.093L107.778 348.413L187.88 394.659Z" fill="#CAAE68"/>
<path d="M187.88 394.659L179.51 399.339V405.318L187.88 400.451V394.659Z" fill="#72522F"/>
<path d="M195.448 390.317L115.205 343.964V347.176L195.448 393.52V390.317Z" fill="#9F7D4A"/>
<path d="M203.818 385.638L195.448 390.317L115.205 343.964L123.53 339.293L203.818 385.638Z" fill="#CAAE68"/>
<path d="M203.818 385.638L195.448 390.317V396.287L203.818 391.421V385.638Z" fill="#72522F"/>
<path d="M211.021 381.145L130.965 335.094V338.297L211.021 384.356V381.145Z" fill="#9F7D4A"/>
<path d="M219.391 376.474L211.021 381.145L130.965 335.094L139.29 330.414L219.391 376.474Z" fill="#CAAE68"/>
<path d="M219.391 376.474L211.021 381.145V387.123L219.391 382.257V376.474Z" fill="#72522F"/>
<path d="M225.339 373.111L145.096 326.847V330.058L225.339 376.314V373.111Z" fill="#9F7D4A"/>
<path d="M233.709 368.431L225.339 373.111L145.096 326.847L153.421 322.176L233.709 368.431Z" fill="#CAAE68"/>
<path d="M233.709 368.431L225.339 373.111V379.081L233.709 374.214V368.431Z" fill="#72522F"/>
<path d="M128.311 381.999L128.329 357.15L92.2588 336.322V361.109L128.311 381.999Z" fill="#AE835B"/>
<path d="M128.312 381.999L128.329 357.15L180.24 327.185V351.972L128.312 381.999Z" fill="#C99A6B"/>
<path d="M180.24 327.185L128.329 357.15L92.2588 336.322L144.187 306.357L180.24 327.185Z" fill="#E8B687"/>
<path d="M105.668 357.185L113.718 361.847V348.689L105.668 344.018V357.185Z" fill="#9C754E"/>
<g style="mix-blend-mode:screen">
<path d="M105.668 344.018L157.544 314.079L165.611 318.732L113.718 348.697L105.668 344.018Z" fill="#54493E"/>
</g>
<path d="M125.632 377.879V375.566L113.522 368.547V370.895L125.632 377.879Z" fill="#9C754E"/>
<path d="M125.632 373.734V371.42L113.522 364.401V366.749L125.632 373.734Z" fill="#9C754E"/>
<path d="M172.948 344.916V353.297L178.744 349.952V341.571L172.948 344.916Z" fill="#9C754E"/>
<path d="M165.05 349.489V357.87L170.837 354.534V346.144L165.05 349.489Z" fill="#9C754E"/>
<path d="M157.045 354.089V362.47L162.833 359.125V350.744L157.045 354.089Z" fill="#9C754E"/>
<path d="M129.896 358.182V370.228L141.792 363.36V351.295L129.896 358.182Z" fill="#F0CBA4"/>
<path d="M131.356 360.646V358.689L140.715 353.288V355.219L131.356 360.646Z" fill="#9C754E"/>
<path d="M167.908 405.202L167.926 380.362L131.855 359.525V384.321L167.908 405.202Z" fill="#AE835B"/>
<path d="M167.908 405.202L167.926 380.362L219.836 350.388V375.184L167.908 405.202Z" fill="#C99A6B"/>
<path d="M219.837 350.388L167.926 380.362L131.855 359.525L183.784 329.569L219.837 350.388Z" fill="#E8B687"/>
<path d="M145.265 380.388L153.305 385.059V371.892L145.265 367.221V380.388Z" fill="#9C754E"/>
<g style="mix-blend-mode:screen">
<path d="M145.265 367.221L197.14 337.283L205.207 341.945L153.305 371.91L145.265 367.221Z" fill="#54493E"/>
</g>
<path d="M165.219 401.092V398.77L153.118 391.759V394.108L165.219 401.092Z" fill="#9C754E"/>
<path d="M165.219 396.946V394.624L153.118 387.604V389.962L165.219 396.946Z" fill="#9C754E"/>
<path d="M212.544 368.12V376.5L218.34 373.164V364.774L212.544 368.12Z" fill="#9C754E"/>
<path d="M204.646 372.701V381.082L210.434 377.737V369.356L204.646 372.701Z" fill="#9C754E"/>
<path d="M196.642 377.292V385.673L202.429 382.337V373.947L196.642 377.292Z" fill="#9C754E"/>
<path d="M169.493 381.394V393.44L181.389 386.563V374.508L169.493 381.394Z" fill="#F0CBA4"/>
<path d="M170.953 383.858V381.892L180.311 376.5V378.431L170.953 383.858Z" fill="#9C754E"/>
<path d="M128.311 354.587L128.329 329.747L92.2588 308.91V333.706L128.311 354.587Z" fill="#AE835B"/>
<path d="M128.312 354.587L128.329 329.747L180.24 299.782V324.569L128.312 354.587Z" fill="#C99A6B"/>
<path d="M180.24 299.782L128.329 329.747L92.2588 308.91L144.187 278.954L180.24 299.782Z" fill="#E8B687"/>
<path d="M105.668 329.774L113.718 334.445V321.277L105.668 316.606V329.774Z" fill="#9C754E"/>
<path d="M105.668 316.606L157.544 286.668L165.611 291.33L113.718 321.295L105.668 316.606Z" fill="#F0CBA4"/>
<path d="M125.632 350.477V348.155L113.522 341.144V343.493L125.632 350.477Z" fill="#9C754E"/>
<path d="M125.632 346.331V344.009L113.522 336.998V339.347L125.632 346.331Z" fill="#9C754E"/>
<path d="M172.948 317.505V325.895L178.744 322.549V314.168L172.948 317.505Z" fill="#9C754E"/>
<path d="M165.05 322.087V330.468L170.837 327.122V318.741L165.05 322.087Z" fill="#9C754E"/>
<path d="M157.045 326.677V335.067L162.833 331.722V323.341L157.045 326.677Z" fill="#9C754E"/>
<path d="M129.896 330.779V342.825L141.792 335.957V323.893L129.896 330.779Z" fill="#F0CBA4"/>
<path d="M131.356 333.243V331.277L140.715 325.886V327.816L131.356 333.243Z" fill="#9C754E"/>
<path d="M167.908 377.799L167.926 352.95L131.855 332.122V356.909L167.908 377.799Z" fill="#AE835B"/>
<path d="M167.908 377.799L167.926 352.95L219.836 322.985V347.772L167.908 377.799Z" fill="#C99A6B"/>
<path d="M219.837 322.985L167.926 352.95L131.855 332.122L183.784 302.157L219.837 322.985Z" fill="#E8B687"/>
<path d="M145.265 352.986L153.305 357.648V344.489L145.265 339.818V352.986Z" fill="#9C754E"/>
<path d="M145.265 339.818L197.14 309.88L205.207 314.533L153.305 344.498L145.265 339.818Z" fill="#F0CBA4"/>
<path d="M165.219 373.68V371.367L153.118 364.347V366.696L165.219 373.68Z" fill="#9C754E"/>
<path d="M165.219 369.534V367.221L153.118 360.201V362.55L165.219 369.534Z" fill="#9C754E"/>
<path d="M212.544 340.717V349.098L218.34 345.753V337.372L212.544 340.717Z" fill="#9C754E"/>
<path d="M204.646 345.29V353.68L210.434 350.334V341.954L204.646 345.29Z" fill="#9C754E"/>
<path d="M196.642 349.89V358.271L202.429 354.925V346.544L196.642 349.89Z" fill="#9C754E"/>
<path d="M169.493 353.982V366.029L181.389 359.16V347.096L169.493 353.982Z" fill="#F0CBA4"/>
<path d="M170.953 356.447V354.489L180.311 349.089V351.02L170.953 356.447Z" fill="#9C754E"/>
<path d="M166.643 348.084L166.625 316.926L211.867 290.796V321.891L166.643 348.084Z" fill="#AE835B"/>
<path d="M166.644 348.084L166.626 316.926L101.51 279.337V310.432L166.644 348.084Z" fill="#C99A6B"/>
<path d="M101.51 279.337L166.626 316.926L211.867 290.796L146.734 253.215L101.51 279.337Z" fill="#E8B687"/>
<path d="M195.047 316.962L184.959 322.816V306.303L195.047 300.449V316.962Z" fill="#9C754E"/>
<path d="M195.047 300.449L129.976 262.895L119.861 268.74L184.959 306.321L195.047 300.449Z" fill="#F0CBA4"/>
<path d="M170.018 342.923V340.014L185.2 331.215V334.169L170.018 342.923Z" fill="#9C754E"/>
<path d="M170.018 337.727V334.818L185.2 326.019V328.964L170.018 337.727Z" fill="#9C754E"/>
<path d="M110.655 301.57V312.086L103.389 307.896V297.38L110.655 301.57Z" fill="#9C754E"/>
<path d="M120.565 307.318V317.834L113.308 313.634V303.127L120.565 307.318Z" fill="#9C754E"/>
<path d="M130.609 313.083V323.59L123.343 319.4V308.884L130.609 313.083Z" fill="#9C754E"/>
<path d="M164.658 318.216V333.332L149.735 324.711V309.577L164.658 318.216Z" fill="#F0CBA4"/>
<path d="M162.832 321.313V318.848L151.088 312.078V314.498L162.832 321.313Z" fill="#9C754E"/>
<path d="M116.113 314.284L116.104 296.045L145.318 279.168V297.371L116.113 314.284Z" fill="#AE835B"/>
<path d="M116.113 314.284L116.104 296.045L74.0679 271.765V289.969L116.113 314.284Z" fill="#C99A6B"/>
<path d="M74.0679 271.801L116.104 296.072L145.318 279.203L103.264 254.941L74.0679 271.801Z" fill="#E8B687"/>
<path d="M118.294 310.948V309.07L128.107 303.394V305.298L118.294 310.948Z" fill="#9C754E"/>
<path d="M118.294 307.593V305.716L128.107 300.031V301.935L118.294 307.593Z" fill="#9C754E"/>
<path d="M81.3246 279.141V287.611L75.4746 284.23V275.76L81.3246 279.141Z" fill="#9C754E"/>
<path d="M89.3114 283.767V292.237L83.4614 288.856V280.387L89.3114 283.767Z" fill="#9C754E"/>
<g style="mix-blend-mode:screen">
<path d="M113.816 297.976V308.083L98.8926 299.462V289.337L113.816 297.976Z" fill="#54493E"/>
</g>
<path d="M111.99 301.063V298.599L100.246 291.837V294.257L111.99 301.063Z" fill="#9C754E"/>
<path d="M137.937 293.029L127.849 298.874V289.284L137.937 283.429V293.029Z" fill="#9C754E"/>
<path d="M137.937 283.429L95.945 259.167L85.8032 265.021L127.848 289.31L137.937 283.429Z" fill="#F0CBA4"/>
<path d="M71.2629 300.618C73.6848 292.406 74.9225 283.358 70.8355 276.703L61.9314 276.908C61.9314 276.908 58.3698 284.71 57.4259 290.538C56.4821 296.365 57.8444 299.132 60.1684 301.891C62.4924 304.649 70.7464 301.001 71.0581 300.769L71.2629 300.618Z" fill="#FFC5B3"/>
<path d="M95.6155 428.201C95.6155 428.201 105.17 423.948 109.862 423.752C114.555 423.556 115.044 429.09 109.862 433.388C104.68 437.685 100.709 438.263 96.506 440.007C92.6772 441.573 91.306 441.697 88.2608 439.722C84.1916 437.053 87.4505 430.114 87.4505 430.114L95.6155 428.201Z" fill="#9C754E"/>
<path d="M67.9952 411.848C67.9952 411.848 75.5815 408.681 80.3095 408.476C85.0376 408.272 86.7294 412.355 81.5472 416.652C76.365 420.95 73.1506 421.902 68.8856 423.681C65.0568 425.247 63.7034 425.345 60.6404 423.396C56.4555 420.727 59.75 413.779 59.8301 413.788L67.9952 411.848Z" fill="#9C754E"/>
<path d="M96.2211 317.807C96.2211 317.807 104.555 362.817 104.555 376.945C104.555 401.857 104.333 428.103 104.333 428.103C104.333 428.103 100.201 432.445 96.1766 432.453C87.1301 432.453 86.213 427.925 86.213 427.925C86.213 427.925 86.0883 398.227 85.3225 384.739C84.7705 375.353 84.2273 362.132 80.452 351.224C80.3452 362.425 80.3719 366.02 79.4548 378.218C78.778 387.212 75.0027 411.368 74.8157 412.916C71.9486 416.386 63.0534 418.779 58.5391 413.708C58.8952 409.731 61.3973 381.83 61.0678 367.363C60.774 354.071 57.3815 322.603 64.9856 316.473C71.5301 311.197 96.2211 317.807 96.2211 317.807Z" fill="#7282B5"/>
<path d="M73.1508 289.15C72.9955 285.619 72.5277 282.109 71.7528 278.661L76.2049 264.577C76.2049 264.577 69.972 261.427 65.7871 266.427C64.0063 268.509 60.8364 274.764 58.0405 280.591C60.1775 284.31 66.0275 289.381 73.1508 289.15Z" fill="#BF2A40"/>
<path d="M85.6163 236.943C82.295 234.638 75.9019 235.359 73.1506 241.204C71.6191 244.443 73.7827 253.153 74.13 259.274C74.3692 261.963 73.8706 264.667 72.6875 267.094L76.9259 268.874C79.7203 269.878 82.7774 269.878 85.5718 268.874L85.4293 261.356C85.4293 261.356 89.9882 260.68 90.7717 259.941C92.695 258.162 93.7101 252.957 92.8197 246.204C91.5108 236.08 86.7916 237.788 85.6163 236.943Z" fill="#FFC5B3"/>
<path d="M96.9957 290.921C99.4978 285.582 93.8259 275.92 92.241 272.442C90.656 268.963 85.5629 266.854 85.5629 266.854C85.5629 266.854 78.6088 264.336 76.1869 263.972C75.1273 263.812 71.4677 263.58 71.4677 263.58C71.4677 263.58 63.3561 276.294 62.4657 283.296C61.8335 288.198 64.5136 304.23 62.528 320.014C61.4774 328.368 93.0245 326.019 95.8026 322.612C94.2088 314.711 91.8937 301.793 96.9957 290.921Z" fill="#DF314A"/>
<path d="M62.8397 294.355C62.8397 295.182 63.3917 304.88 62.3856 311.17C61.3794 317.46 60.7739 327.185 60.7739 327.185C60.7739 327.185 69.7403 334.151 80.1047 332.941C86.4841 332.126 92.5333 329.636 97.6368 325.725C97.6368 325.725 94.1909 308.021 94.3868 305.832L94.5827 303.661C94.5827 303.661 90.6026 305.538 88.0917 304.488C85.5807 303.439 81.3691 301.508 80.078 295.093C79.1876 290.538 79.7663 279.968 79.98 277.112C79.4636 277.041 66.6239 273.26 66.6239 273.26C66.6239 273.26 62.6883 285.778 62.8397 294.355Z" fill="#7282B5"/>
<path d="M89.6768 248.776C90.1754 247.094 91.333 243.179 91.6179 241.605C91.9035 240.341 91.8638 239.025 91.5025 237.78C91.1413 236.535 90.4703 235.402 89.5521 234.487C87.0412 231.88 78.3597 231.044 75.2166 232.859C72.0734 234.674 65.4221 237.993 67.7282 248.811C69.6159 257.557 71.4501 258.545 74.0947 260.6C76.4008 262.379 80.47 262.833 80.47 262.833C81.9677 261.592 82.9253 259.818 83.1412 257.886C83.2659 256.845 83.1412 253.678 83.1412 253.678C83.1412 253.678 80.8261 249.105 82.6159 247.45C84.4056 245.795 86.4802 248.473 86.9254 249.585C88.5015 253.491 90.0686 255.324 89.6768 248.776Z" fill="#9C754E"/>
<path d="M131.98 304.061C125.796 304.309 119.609 303.661 113.611 302.14C109.588 301.034 105.716 299.442 102.08 297.398C100.896 295.316 98.7408 288.785 98.7408 288.785L87.1655 293.501C87.1655 293.501 90.0861 301.312 91.8046 304.88C93.1758 307.745 94.9032 308.314 97.6456 309.328C101.652 310.805 113.415 311.215 118.125 311.82C121.57 312.326 125.082 312.138 128.454 311.268C134.081 309.898 132.202 305.627 131.98 304.061Z" fill="#FFC5B3"/>
<path d="M87.1299 297.033C92.6327 298.207 98.5717 296.508 101.644 292.308C99.4087 282.219 95.847 271.187 90.9587 269.568C88.332 268.678 83.6306 277.789 84.432 284.23C84.6635 286.045 85.7676 291.116 87.1299 297.033Z" fill="#BF2A40"/>
<path d="M61.495 318.492L61.0854 322.941C61.0854 322.941 67.1046 328.11 80.1046 328.403C93.1045 328.697 97.3429 324.257 97.3429 324.257L96.5682 319.684C91.415 322.528 85.6263 324.025 79.7395 324.035C69.5889 324.213 61.495 318.492 61.495 318.492Z" fill="#2E3665"/>
<path d="M76.187 278.474C76.187 278.474 77.6206 272.691 80.3274 269.906C81.735 268.397 83.5559 267.336 85.563 266.854C85.563 266.854 88.2342 267.593 88.2342 268.349C86.7829 269.239 84.1206 270.191 82.5534 272.851C80.9863 275.511 79.8199 281.116 79.8199 281.116L76.187 278.474Z" fill="#7282B5"/>
<path d="M70.9694 263.58C70.8269 263.642 68.4673 267.139 66.7399 272.851C66.0663 275.577 65.5313 278.336 65.1372 281.116L67.6482 281.427C67.6482 281.427 70.0612 272.121 71.4235 268.758C72.091 267.032 72.8795 265.355 73.7831 263.74L70.9694 263.58Z" fill="#7282B5"/>
<path d="M125.453 305.396C126.997 304.118 128.455 302.739 129.816 301.268C130.902 299.995 131.811 300.316 131.446 301.748C130.881 303.144 130.116 304.451 129.175 305.627C129.175 305.627 126.406 305.396 125.925 305.396H125.453Z" fill="#FFC5B3"/>
<path d="M85.4826 234.71C91.849 235.377 94.3333 239.514 91.0833 243.962C87.8333 248.411 80.0689 251.507 73.7292 250.84C67.3895 250.172 64.8786 246.018 68.1197 241.551C71.3608 237.085 79.134 234.042 85.4826 234.71Z" fill="#DF314A"/>
<path d="M66.9176 246.631C66.9176 246.631 63.1423 233.775 74.5751 229.896C82.7936 227.112 88.9641 230.368 92.3031 238.793C94.3154 243.962 66.9176 246.631 66.9176 246.631Z" fill="#DF314A"/>
<path d="M87.7979 247.121C88.6348 246.649 92.5081 241.783 91.4307 237.334C90.9686 236.254 90.4361 235.205 89.8369 234.194C89.8369 234.194 90.9855 233.589 95.6958 234.585C100.406 235.581 101.27 239.799 97.6191 242.761C94.7819 245.045 91.3961 246.548 87.7979 247.121Z" fill="#BF2A40"/>
</g>
<defs>
<linearGradient id="paint0_linear" x1="0.000247001" y1="288.5" x2="720" y2="288.5" gradientUnits="userSpaceOnUse">
<stop offset="0.0104" stop-color="#F1F1F1" stop-opacity="0"/>
<stop offset="1" stop-color="#F1F1F1"/>
</linearGradient>
<clipPath id="clip0">
<rect width="237" height="284" fill="white" transform="translate(50 163)"/>
</clipPath>
</defs>
</svg>
