<svg width="502" height="371" viewBox="0 0 502 371" fill="none" xmlns="http://www.w3.org/2000/svg">
<path d="M72.9615 159.899C170.676 111.821 329.599 112.066 427.927 160.446C526.255 208.827 526.753 287.022 429.039 335.101C331.325 383.179 172.401 382.934 74.0729 334.554C-24.2555 286.173 -24.7527 207.978 72.9615 159.899Z" fill="url(#paint0_linear)"/>
<g clip-path="url(#clip0)">
<g style="mix-blend-mode:multiply">
<path d="M418.769 294.209L332.931 244.699L327.501 247.924L332.931 244.792L316.417 235.173L243.1 277.451L259.615 287.07L345.452 336.58L369.599 347.093L377.511 342.545L359.335 328.527L339.406 317.081L385.105 290.798L404.96 302.243L429.107 312.757L437 308.208L418.769 294.209ZM300.854 294.843L273.498 279.017L319.197 252.658L346.553 268.429L300.854 294.843Z" fill="#CBCBCB"/>
</g>
<g style="mix-blend-mode:multiply">
<path fill-rule="evenodd" clip-rule="evenodd" d="M245.153 203.987C227.817 193.977 199.603 194.033 182.156 204.099C164.689 214.165 164.596 230.457 181.95 240.449C183.753 241.487 185.673 242.416 187.686 243.238C194.146 252.858 210.407 259.627 229.409 259.524C254.019 259.391 273.907 247.783 273.83 233.597C273.783 224.997 266.411 217.423 255.128 212.822C252.974 209.601 249.649 206.583 245.153 203.987Z" fill="#D2D2D2"/>
</g>
<path d="M253.4 82.635C252.654 83.8848 251.62 84.9381 250.383 85.7067C249.146 86.4753 247.743 86.9369 246.291 87.0529H246.067C245.446 87.1039 244.822 87.1039 244.201 87.0529C241.42 86.7733 241.047 85.6176 240.599 84.2009C240.058 82.4859 231.269 45.6329 238.491 43.4519C239.637 43.4842 240.753 43.832 241.714 44.4569C242.675 45.0818 243.446 45.9596 243.94 46.9937C245.83 52.7767 247.381 58.6648 248.586 64.6279C249.538 68.934 250.321 72.8113 250.639 74.4703C251.151 77.1455 251.984 79.7492 253.12 82.2249L253.4 82.635Z" fill="#FEBFBF"/>
<path d="M260.212 108.844C260.072 109.245 260.04 109.676 260.119 110.093C260.119 109.963 259.186 107.483 254.222 103.345C249.258 99.2067 244.892 92.1605 244.295 89.7558V87.0342C241.514 86.7546 241.141 85.5989 240.693 84.1822C240.152 82.4672 231.363 45.6142 238.584 43.4332C239.731 43.4656 240.846 43.8133 241.808 44.4382C242.769 45.0631 243.539 45.9409 244.033 46.975C245.923 52.758 247.475 58.6461 248.68 64.6093C248.437 65.504 244.276 66.9207 244.276 66.9207C244.276 66.9207 245.06 79.9694 245.041 80.9014C245.022 81.8334 247.112 84.089 247.112 84.089C246.765 84.4907 246.505 84.9596 246.348 85.4664C246.19 85.9732 246.139 86.5069 246.198 87.0342C246.206 87.5151 246.308 87.9899 246.496 88.4323C247.56 91.1539 253.961 100.456 256.051 103.513C257.231 105.354 258.789 106.923 260.622 108.117L260.212 108.844Z" fill="url(#paint1_linear)"/>
<path d="M248.624 63.6959C247.786 64.273 246.84 64.6761 245.843 64.881C244.846 65.086 243.818 65.0886 242.82 64.8889C240.245 63.9941 233.49 40.6557 233.49 40.6557C233.49 40.6557 234.05 39.5 238.062 40.488C239.619 40.9782 241.026 41.8567 242.149 43.0407C243.272 44.2246 244.075 45.6748 244.481 47.2546C245.097 49.1746 248.624 63.6959 248.624 63.6959Z" fill="#DF314A"/>
<path d="M242.989 224.604C245.21 225.592 247.366 226.719 249.445 227.978C252.305 230.318 255.04 232.806 257.637 235.434C258.085 236.292 260.194 238.044 260.212 239.964C260.064 241 259.546 241.948 258.754 242.632C257.962 243.317 256.949 243.694 255.902 243.692C251.965 243.153 248.242 241.577 245.116 239.125C243.744 237.56 242.266 236.09 240.694 234.726C240.227 234.595 240.19 234.856 239.07 235.043C237.95 235.229 233.472 233.179 232.819 231.893C232.166 230.606 231.102 225.573 231.811 224.138C232.52 222.703 242.989 224.604 242.989 224.604Z" fill="#5C6467"/>
<path d="M243.642 223.019C245.668 224.959 247.54 227.053 249.24 229.283C249.706 230.457 247.374 231.576 244.295 231.706C241.216 231.837 237.223 228.556 237.223 228.556C237.223 228.556 233.864 223.746 235.357 221.267C236.849 218.788 243.642 223.019 243.642 223.019Z" fill="#FEBFBF"/>
<path d="M245.004 121.483C245.004 121.483 246.086 121.11 248.176 139.229C249.61 150.546 250.066 161.965 249.538 173.36C249.146 178.952 246.142 221.994 246.105 224.175C246.067 226.356 241.328 227.568 238.417 227.382C235.506 227.195 232.931 224.567 232.819 223.094C232.707 221.621 229.478 185.011 231.811 172.764C232.445 169.278 222.723 144.467 222.723 144.467C222.723 144.467 220.745 125.938 222.369 121.986C223.992 118.034 245.004 121.483 245.004 121.483Z" fill="#7282B5"/>
<path d="M238.547 227.419H238.435C235.524 227.251 232.837 224.641 232.837 223.15C232.837 221.659 229.46 185.085 231.811 172.82C232.445 169.278 222.742 144.448 222.742 144.448C222.742 144.448 222.742 143.665 222.537 142.398L232.053 140.385C232.053 140.385 230.187 143.796 232.184 150.451C234.181 157.105 234.423 170.732 234.703 172.708C234.983 174.684 232.445 175.429 233.136 190.137C233.714 202.16 233.453 220.41 238.547 227.419Z" fill="#2E3665"/>
<path d="M199.361 212.32C199.361 212.32 202.999 217.539 203.447 218.415C203.895 219.291 209.045 227.736 209.195 228.854C209.304 229.373 209.281 229.912 209.127 230.42C208.974 230.928 208.696 231.389 208.318 231.762C207.443 232.377 206.455 232.812 205.411 233.042C204.366 233.273 203.287 233.294 202.234 233.104C199.509 232.263 197.013 230.809 194.938 228.854C193.352 226.691 192.059 224.328 191.094 221.826C190.076 220.709 189.158 219.506 188.351 218.229C187.348 216.897 186.595 215.393 186.13 213.792C185.981 212.096 185.794 211.015 187.381 209.729C188.967 208.442 199.361 212.32 199.361 212.32Z" fill="#5C6467"/>
<path d="M199.51 211.071C200.397 213.292 201.151 215.564 201.768 217.875C201.768 218.937 199.249 219.981 196.804 219.739C194.36 219.496 193.389 217.166 192.661 216.477C191.934 215.787 188.78 210.605 189.527 209.02C190.273 207.436 199.51 211.071 199.51 211.071Z" fill="#FEBFBF"/>
<path d="M232.576 124.055C232.576 124.055 233.229 131.959 233.397 135.016C233.565 138.073 233.714 142.323 233.714 142.323L228.023 149.63C228.023 149.63 224.515 152.837 219.141 179.456C214.793 187.956 200.984 212.637 200.984 212.637C200.984 212.637 197.047 216.719 192.4 214.501C191.115 213.988 189.957 213.203 189.007 212.198C188.056 211.194 187.336 209.995 186.896 208.685C186.896 206.821 195.871 184.806 197.047 181.637C198.75 177.882 200.656 174.223 202.757 170.676C202.757 170.676 202.757 158.895 202.44 154.943C201.786 147.729 195.517 129.815 197.663 126.255C199.808 122.694 232.576 124.055 232.576 124.055Z" fill="#7282B5"/>
<path d="M189.06 211.071L188.239 210.828C194.994 187.714 200.125 181.003 203.167 177.051C204.057 176.012 204.792 174.851 205.35 173.603C209.232 163.555 204.268 145.362 203.242 141.913C201.773 137.395 201.333 132.605 201.954 127.895L202.794 128.063C202.212 132.638 202.651 137.285 204.081 141.671C205.126 145.268 210.127 163.704 206.171 173.994C205.593 175.347 204.813 176.604 203.857 177.722C200.835 181.506 195.759 188.105 189.06 211.071Z" fill="#A0ABCD"/>
<path d="M204.642 172.372C200.294 176.958 196.244 187.993 193.147 195.636C190.59 201.974 188.482 206.653 188.276 211.201C187.59 210.471 187.114 209.569 186.896 208.591C186.896 206.727 195.871 184.712 197.065 181.506C198.768 177.758 200.674 174.105 202.775 170.564C202.775 170.564 202.775 158.783 202.44 154.831C201.786 147.636 195.535 129.722 197.681 126.161C197.98 125.658 199.006 125.248 200.574 124.931C200.574 125.043 200.574 125.136 200.574 125.248C200.574 125.36 199.006 125.994 201.395 136.283C203.783 146.573 206.862 163.462 204.642 172.372Z" fill="#2E3665"/>
<path d="M195.703 125.546C199.36 129.197 204.123 131.536 209.25 132.201C226.269 133.916 244.295 125.807 246.366 123.179C246.366 123.179 244.332 105.694 244.351 97.5851C244.369 89.4763 243.809 76.8564 244.351 68.6358C244.892 60.4152 245.172 50.8337 239.667 42.5385C236.364 37.5614 225.541 42.0912 222.275 41.737C219.01 41.3828 214.55 38.6799 209.922 42.4453C205.294 46.2108 196.3 49.678 194.378 54.972C192.158 61.1794 192.624 69.3069 196.823 87.5376C199.582 100.107 199.197 113.161 195.703 125.546Z" fill="#DF314A"/>
<g style="mix-blend-mode:multiply">
<path d="M239.909 120.103C239.909 120.103 244.63 124.502 242.559 123.831L237.763 122.787C235.692 121.967 232.501 124.13 216.472 118.686C211.75 116.732 207.173 114.446 202.775 111.845C202.775 111.845 199.92 123.384 199.23 128.454C197.963 127.607 196.782 126.64 195.703 125.565C199.321 113.219 199.719 100.155 196.86 87.6121C196.319 85.3379 195.796 83.2315 195.386 81.2929C199.267 74.0975 203.204 64.7398 208.112 64.6838C208.112 64.6838 211.993 81.7962 210.295 91.8436C208.597 101.891 206.563 102.189 206.563 102.189L224.701 112.61L239.909 120.103Z" fill="#DEDEDE"/>
</g>
<path d="M230.076 43.3959C230.076 46.6953 230.897 48.0934 230.076 49.3051C229.255 50.5167 223.582 51.6165 221.1 50.5913C220.242 50.2557 219.458 49.8829 218.786 49.5474C213.99 47.1054 212.964 44.999 212.423 43.9551C212.239 43.6412 212.143 43.2841 212.143 42.9206C212.143 42.557 212.239 42.1999 212.423 41.886C212.423 41.886 216.024 37.1512 215.651 33.1061C215.558 32.0436 215.446 29.8999 215.39 27.7935C215.278 25.1092 215.185 22.5368 215.185 22.5368C215.185 22.5368 217.387 18.2121 219.383 18.4544C221.38 18.6967 230.878 28.8187 230.878 28.8187C230.878 28.8187 230.598 32.9011 230.356 36.8716C230.225 39.1085 230.132 41.3268 230.094 42.7435C230.071 42.9601 230.064 43.1783 230.076 43.3959Z" fill="#FFADB7"/>
<path d="M230.374 36.8717C230.243 39.1086 230.15 41.3269 230.113 42.7436C229.043 42.7151 227.99 42.4743 227.015 42.0352C220.82 39.5933 219.252 40.0034 217.312 41.4014C215.371 42.7995 216.192 47.1055 218.749 49.5102C213.953 47.0682 212.927 44.9618 212.385 43.9179C212.202 43.604 212.105 43.247 212.105 42.8834C212.105 42.5198 212.202 42.1627 212.385 41.8488C212.385 41.8488 216.024 37.1513 215.651 33.1062C215.558 32.0437 215.446 29.9 215.39 27.7936C219.199 26.826 223.161 26.6107 227.052 27.1598L230.374 36.8717Z" fill="url(#paint2_linear)"/>
<path d="M217.293 22.2572C217.293 22.2572 217.741 32.6029 218.767 34.7839C219.794 36.9649 227.09 42.5944 234.125 41.6251C235.991 40.6185 238.939 35.4177 239.256 30.8134C239.37 28.5779 239.37 26.3381 239.256 24.1027C239.955 22.689 240.391 21.1606 240.544 19.5916C240.339 18.3054 239.965 11.0354 237.446 7.86647C234.927 4.69752 227.986 2.72158 221.753 5.2381C215.52 7.75462 217.293 22.2572 217.293 22.2572Z" fill="#FEBFBF"/>
<path d="M219.495 25.9109C219.495 25.9109 220.092 21.8286 217.517 21.1016C214.942 20.3746 215.147 24.8297 215.147 24.8297L215.744 31.9878V33.0317C215.744 33.0317 213.02 27.9614 212.143 26.3769C211.349 25.1575 210.798 23.7968 210.519 22.3692C210.165 20.5051 208.784 12.9182 209.157 10.2339C209.53 7.54965 214.121 3.52322 217.629 3.22497C219.234 1.04399 222.518 0.316991 225.69 0.29835C227.357 0.107911 229.045 0.261113 230.649 0.748478C232.254 1.23584 233.742 2.047 235.02 3.13176C236.062 3.81196 236.957 4.69341 237.652 5.72424C238.348 6.75507 238.83 7.91444 239.07 9.13413C239.359 10.4229 239.552 11.7314 239.648 13.0487L239.182 11.2965C239.182 11.2965 237.67 12.2844 232.968 11.893C230.382 11.7493 227.874 10.961 225.672 9.60015C226.081 11.0894 226.307 12.6231 226.343 14.1672C226.175 15.3975 225.448 19.2002 225.448 19.2002C225.448 19.2002 223.022 20.6356 222.219 21.2134C221.656 21.7118 221.242 22.3573 221.025 23.0775L220.727 26.3397L219.495 25.9109Z" fill="#754554"/>
<path d="M240.376 12.5826L239.704 13.4214C239.704 13.4214 227.257 17.1496 225.988 17.4106C225.41 17.5411 224.458 17.9885 223.059 18.4172C220.703 19.1992 218.258 19.6815 215.781 19.8525L210.183 20.3186C209.126 16.9718 208.802 13.4372 209.231 9.95423C209.903 6.02101 214.456 2.59108 219.775 0.987969C221.149 0.563652 222.562 0.270303 223.992 0.111848C230.896 -0.596506 235.543 2.31147 237.763 5.70411C239.097 7.79387 239.986 10.1352 240.376 12.5826Z" fill="#DF314A"/>
<path d="M223.115 18.4171C220.76 19.1992 218.314 19.6814 215.838 19.8525L210.24 20.3185C209.183 16.9717 208.858 13.4372 209.288 9.95418C209.96 6.02095 214.513 2.59103 219.831 0.987915C218.432 1.80811 214.345 2.852 215.483 10.7371C215.617 12.7205 216.463 14.5892 217.865 16C219.267 17.4108 221.131 18.2691 223.115 18.4171V18.4171Z" fill="#BF2A40"/>
<path d="M223.115 18.4172C223.115 18.4172 233.023 26.9361 236.438 23.5061C238.845 21.0828 244.817 18.7714 247.429 19.5543L250.06 20.3372C250.224 20.2972 250.367 20.1953 250.457 20.0527C250.548 19.9102 250.579 19.7383 250.545 19.5729C250.545 18.9391 240.413 12.5639 240.413 12.5639C240.413 12.5639 236.382 8.33247 223.115 18.4172Z" fill="#BF2A40"/>
<path d="M218.114 23.7484C218.114 23.7484 216.733 20.0202 213.916 21.4928C211.098 22.9655 215.147 30.2354 216.957 30.3286C218.767 30.4218 218.431 28.5577 218.431 28.5577C218.431 28.5577 216.472 25.482 218.114 23.7484Z" fill="#FCA4B5"/>
<path d="M198.353 105.675C196.613 101.478 195.561 97.0277 195.237 92.4961C194.341 83.8281 191.803 56.7615 195.684 53.052C199.566 49.3424 204.828 53.052 206.638 56.892C208.448 60.732 209.418 80.0067 209.045 86.5496C208.672 93.0926 209.045 97.7342 207.44 100.903C206.744 102.65 205.446 104.092 203.779 104.967C202.113 105.842 200.188 106.093 198.353 105.675Z" fill="#FEBFBF"/>
<path d="M198.633 51.1879C196.767 51.1879 192.885 53.3129 192.885 60.5083C192.885 68.8221 193.744 76.5768 193.856 79.3356C196.81 80.4033 199.967 80.792 203.092 80.4727C206.489 80.2863 209.624 79.4288 209.624 78.9628C209.624 78.4968 208.989 64.5907 207.571 59.073C207.091 56.9911 205.972 55.1114 204.369 53.6974C202.766 52.2833 200.76 51.4058 198.633 51.1879Z" fill="#DF314A"/>
<path d="M306.285 227.121L312.499 230.718V241.045L306.285 237.466V227.121Z" fill="#A25900"/>
<path d="M292.419 230.774C292.288 228.415 291.602 226.12 290.415 224.076C289.228 222.032 287.575 220.297 285.59 219.012C284.925 218.535 284.151 218.233 283.338 218.135C282.526 218.038 281.702 218.147 280.943 218.452H280.831H280.738L277.696 220.205L278.853 222.069C278.853 222.311 278.853 222.535 278.853 222.777C278.986 225.139 279.673 227.436 280.86 229.482C282.046 231.529 283.699 233.268 285.683 234.558C286.039 234.761 286.414 234.929 286.803 235.061L287.754 236.646L290.497 235.061H290.628C291.263 234.555 291.761 233.897 292.074 233.147C292.387 232.398 292.506 231.582 292.419 230.774Z" fill="#3B4549"/>
<path d="M287.541 236.818C290.192 235.27 290.166 230.297 287.482 225.711C284.798 221.125 280.473 218.662 277.822 220.211C275.17 221.759 275.197 226.732 277.88 231.318C280.564 235.904 284.889 238.367 287.541 236.818Z" fill="#5C6467"/>
<path d="M288.427 233.142C288.294 230.78 287.607 228.483 286.42 226.436C285.234 224.389 283.581 222.651 281.597 221.36C280.928 220.893 280.154 220.597 279.344 220.499C278.533 220.402 277.711 220.506 276.951 220.801H276.82L273.778 222.553L274.917 224.418C274.917 224.66 274.917 224.865 274.917 225.126C275.048 227.485 275.734 229.78 276.921 231.824C278.108 233.868 279.761 235.603 281.746 236.888C282.1 237.089 282.468 237.263 282.847 237.41L283.799 238.976L286.542 237.392H286.673C287.297 236.886 287.785 236.232 288.091 235.49C288.397 234.747 288.513 233.94 288.427 233.142Z" fill="#3B4549"/>
<path d="M271.744 226.934C271.876 229.296 272.563 231.593 273.75 233.64C274.937 235.686 276.589 237.425 278.573 238.715C282.305 240.896 285.422 239.144 285.422 234.819C285.296 232.457 284.61 230.158 283.419 228.112C282.228 226.067 280.567 224.334 278.573 223.057C274.804 220.876 271.744 222.61 271.744 226.934Z" fill="#5C6467"/>
<path d="M287.269 241.493V248.259L283.686 250.328L273.796 225.424L280.663 226.897L287.269 241.493Z" fill="#CE7400"/>
<path d="M283.687 243.562V250.328L270.214 240.467V227.493L277.081 228.966L283.687 243.562Z" fill="#EDA600"/>
<path d="M269.71 233.16L286.747 223.336V221.435L262.358 227.009V228.929L269.71 233.16Z" fill="#EDA600"/>
<path d="M269.71 231.259L286.747 221.435L279.395 217.185L262.358 227.009L269.71 231.259Z" fill="#FECB4C"/>
<path d="M273.051 241.977C272.921 239.615 272.235 237.317 271.048 235.27C269.861 233.223 268.207 231.484 266.221 230.196C265.552 229.729 264.778 229.433 263.968 229.335C263.157 229.238 262.335 229.342 261.575 229.637H261.463L258.421 231.389L259.578 233.253C259.578 233.496 259.578 233.701 259.578 233.962C259.71 236.323 260.398 238.62 261.584 240.667C262.771 242.714 264.423 244.453 266.408 245.743C266.772 245.93 267.145 246.098 267.527 246.246L268.479 247.812L271.222 246.246H271.353C271.967 245.73 272.444 245.071 272.74 244.326C273.036 243.581 273.143 242.774 273.051 241.977Z" fill="#3B4549"/>
<path d="M256.48 235.77C256.612 238.131 257.3 240.429 258.486 242.475C259.673 244.522 261.325 246.261 263.31 247.551C267.042 249.732 270.139 247.98 270.139 243.655C270.008 241.296 269.322 239.001 268.135 236.957C266.948 234.913 265.295 233.178 263.31 231.893C259.54 229.712 256.48 231.445 256.48 235.77Z" fill="#5C6467"/>
<path d="M268.964 244.326C268.83 241.967 268.142 239.673 266.955 237.63C265.769 235.586 264.117 233.851 262.134 232.564C261.467 232.091 260.693 231.793 259.882 231.695C259.07 231.597 258.247 231.704 257.488 232.004H257.376H257.282L254.241 233.757L255.379 235.621C255.379 235.844 255.379 236.068 255.379 236.329C255.513 238.688 256.201 240.982 257.388 243.025C258.574 245.069 260.226 246.804 262.209 248.091C262.567 248.296 262.941 248.471 263.328 248.613L264.28 250.179L267.023 248.595H267.154C267.79 248.092 268.289 247.438 268.605 246.692C268.921 245.946 269.045 245.132 268.964 244.326Z" fill="#3B4549"/>
<path d="M252.375 238.137C252.508 240.501 253.197 242.8 254.387 244.847C255.577 246.894 257.234 248.631 259.223 249.918C262.955 252.081 266.053 250.347 266.053 246.022C265.92 243.661 265.233 241.364 264.046 239.317C262.86 237.27 261.207 235.532 259.223 234.241C255.435 232.079 252.375 233.813 252.375 238.137Z" fill="#5C6467"/>
<path d="M286.747 221.435V223.336L269.71 233.16V231.259L286.747 221.435Z" fill="#CE7400"/>
<path d="M266.581 152.434L263.107 153.042L276.256 227.916L279.729 227.308L266.581 152.434Z" fill="#FFC536"/>
<path d="M257.17 158.783C256.153 158.816 255.14 158.637 254.196 158.258C253.251 157.88 252.396 157.309 251.684 156.583L243.921 148.493C242.872 147.373 242.183 145.964 241.943 144.448L240.544 136.377C239.611 131.101 243.268 124.465 248.866 121.24L266.575 111.025C267.931 110.114 269.489 109.544 271.114 109.366C272.739 109.187 274.383 109.405 275.905 110C276.971 110.511 277.895 111.277 278.595 112.23C279.294 113.182 279.748 114.292 279.917 115.462L281.316 123.533C281.539 125.119 281.418 126.733 280.962 128.268L277.23 143.013C275.984 147.488 273.047 151.304 269.038 153.657L263.179 157.031C261.362 158.127 259.291 158.731 257.17 158.783ZM272.509 113.709C271.188 113.762 269.902 114.154 268.777 114.846L251.105 125.136C247.187 127.392 244.369 132.182 244.966 135.612L246.366 143.665C246.451 144.306 246.731 144.904 247.168 145.38L254.837 153.47C256.013 154.682 258.42 154.552 260.883 153.135L266.724 149.761C269.686 148.018 271.869 145.211 272.826 141.913L276.558 127.168C276.818 126.234 276.882 125.257 276.745 124.297L275.326 116.226C275.284 115.77 275.127 115.333 274.869 114.955C274.611 114.576 274.261 114.27 273.852 114.064C273.434 113.853 272.976 113.733 272.509 113.709Z" fill="#5C6467"/>
<path d="M280.439 202.198C281.883 199.666 283.935 197.532 286.411 195.99C287.27 195.38 288.27 194.997 289.317 194.876C290.364 194.756 291.425 194.902 292.401 195.3L298.615 198.879L298.073 199.178L324.011 216.905V226.412L248.81 269.789V260.283L280.439 202.198Z" fill="#FECB4C"/>
<path d="M255.024 263.862V274.189L272.546 264.085L272.733 256.629L312.498 233.719V241.045L330.225 230.83V220.484L298.503 198.88C297.529 198.486 296.472 198.342 295.429 198.463C294.385 198.583 293.389 198.964 292.531 199.569C290.056 201.111 288.004 203.245 286.56 205.777L255.024 263.862Z" fill="#ED9600"/>
<path d="M404.12 289.773L418.283 281.608L316.062 234.875V238.995L404.12 289.773Z" fill="#EDA600"/>
<path d="M404.12 289.773L418.283 281.608L437 295.887L428.901 300.566L404.12 289.773Z" fill="#EDA600"/>
<path d="M343.082 324.985L357.245 316.82L255.024 270.069V274.189L343.082 324.985Z" fill="#EDA600"/>
<path d="M343.083 324.985L357.246 316.821L375.962 331.099L367.863 335.778L343.083 324.985Z" fill="#EDA600"/>
<path d="M404.12 285.653L418.283 277.488L330.225 226.692L316.062 234.875L404.12 285.653Z" fill="#FECB4C"/>
<path d="M404.12 285.653L418.283 277.488L437 291.786L428.901 296.446L404.12 285.653Z" fill="#FECB4C"/>
<path d="M343.082 320.866L357.245 312.701L269.187 261.905L255.024 270.069L343.082 320.866Z" fill="#FECB4C"/>
<path d="M343.083 320.866L357.246 312.701L375.962 326.98L367.863 331.659L343.083 320.866Z" fill="#FECB4C"/>
<path d="M248.81 260.283L255.024 263.862V274.189L248.81 270.61V260.283Z" fill="#EDA600"/>
<path d="M437 291.786V295.887L428.901 300.566V296.446L437 291.786Z" fill="#ED9600"/>
<path d="M375.962 326.98V331.099L367.864 335.778V331.659L375.962 326.98Z" fill="#ED9600"/>
<path d="M260.768 117.847L256.345 118.657L262.79 153.807L267.214 152.997L260.768 117.847Z" fill="#5C6467"/>
<path d="M275.551 111.845C275.551 111.994 274.599 116.636 274.525 117.177C274.45 117.717 273.517 118.146 273.517 118.146C273.216 118.588 272.786 118.927 272.285 119.115C271.681 119.297 271.049 119.366 270.419 119.32C270.419 119.32 262.955 118.164 262.153 116.748C261.276 114.622 260.577 112.427 260.063 110.186C260.063 110.056 259.13 107.576 254.166 103.438C249.202 99.2999 244.836 92.2537 244.239 89.849V87.1274V85.2633L247.038 84.2194C249.001 83.3699 251.054 82.7446 253.158 82.3553C253.158 82.3553 253.158 82.3553 253.158 82.3553C255.126 84.6252 256.742 87.1762 257.954 89.9235C260.846 95.8141 266.277 106.7 266.762 106.887C267.247 107.073 274.039 108.583 274.786 109.441C275.29 110.141 275.558 110.983 275.551 111.845Z" fill="#FEBFBF"/>
<path d="M260.212 108.844C260.072 109.245 260.039 109.676 260.118 110.093C260.118 109.963 259.185 107.483 254.222 103.345C249.258 99.2068 244.892 92.1606 244.294 89.7559V87.0343V85.1702L247.093 84.1263C246.345 85.2227 245.966 86.5285 246.011 87.8545C246.084 88.4936 246.241 89.1203 246.478 89.7186C249.122 94.6733 252.328 99.308 256.032 103.531C258.57 106.253 260.622 108.117 260.622 108.117L260.212 108.844Z" fill="url(#paint3_linear)"/>
<path d="M264.783 115.573C265.311 114.896 265.733 114.141 266.034 113.337C266.538 111.994 266.892 111.137 266.892 111.137L267.508 113.821V116.226L268.329 117.736L269.467 118.575H267.06C267.06 118.575 264.392 116.972 264.783 115.573Z" fill="#FA9698"/>
<path d="M260.996 109.292C260.996 109.292 262.862 109.068 263.683 111.491C264.236 113.308 265.026 115.044 266.034 116.655C266.661 117.206 267.373 117.653 268.143 117.978C269.051 118.301 269.911 118.747 270.699 119.302C271.041 119.797 271.181 120.403 271.091 120.998C270.979 121.688 270.009 121.539 269.934 121.483L268.422 121.035C267.848 121.083 267.271 121.013 266.724 120.83C265.03 119.708 263.465 118.401 262.059 116.934C261.139 115.183 260.509 113.295 260.193 111.342C260.119 109.702 260.249 109.459 260.996 109.292Z" fill="#FEC7C6"/>
<path d="M202.588 96.7275C203.671 96.4363 204.8 96.3622 205.912 96.5093C207.023 96.6565 208.094 97.0221 209.064 97.585C211.62 99.4491 231.456 116.077 236.923 117.959C238.543 118.793 240.261 119.419 242.036 119.824C243.697 120.029 249.333 119.824 250.023 120.159C251.207 121.778 252.132 123.57 252.766 125.472C252.945 126.489 252.945 127.53 252.766 128.548C252.617 128.902 250.713 129.014 250.713 129.014C250.562 129.499 250.335 129.958 250.042 130.374C249.594 130.971 247.672 130.822 247.672 130.822C247.342 131.11 246.916 131.263 246.478 131.25C246.018 131.296 245.554 131.219 245.134 131.027C245.134 131.027 244.537 131.94 242.839 131.325C241.141 130.71 240.973 129.741 240.973 129.741L240.768 127.69C238.726 127.692 236.702 127.319 234.796 126.59C232.93 125.509 231.941 123.831 230.523 122.862C229.105 121.893 200.666 112.591 198.39 105.582C198.041 104.729 197.873 103.812 197.898 102.891C197.924 101.969 198.14 101.063 198.535 100.23C198.93 99.3973 199.495 98.6556 200.193 98.0525C200.89 97.4494 201.706 96.9982 202.588 96.7275Z" fill="#FEBFBF"/>
<path d="M326.195 308.041L396.171 267.664V226.673L326.195 267.031V308.041Z" fill="#C99A6B"/>
<path d="M326.195 308.041L268.964 275.028V234.018L326.195 267.031V308.041Z" fill="#AE835B"/>
<path d="M326.195 267.031L268.964 234.018L338.94 193.66L396.171 226.673L326.195 267.031Z" fill="#87623F"/>
<path d="M301.619 278.774L292.419 273.462V247.551L301.619 252.845V278.774Z" fill="#9C754E"/>
<path d="M301.619 252.845L371.595 212.487L362.396 207.193L292.419 247.551L301.619 252.845Z" fill="#F0CBA4"/>
<path d="M268.964 234.018L326.195 267.031L295.312 250.533L268.964 234.018Z" fill="#87623F"/>
<path d="M297.364 250.403L367.341 210.046L366.706 209.673L296.73 250.03L297.364 250.403Z" fill="#D1A986"/>
<path d="M322.425 283.341L310.352 276.37V262.464L322.425 269.435V283.341ZM311.229 275.885L321.716 281.925V269.92L311.229 263.862V275.885Z" fill="#87623F"/>
<path d="M317.723 278.849L315.054 277.32V270.349L317.723 271.877V278.849Z" fill="#87623F"/>
<path d="M320.335 274.711L312.442 270.162L316.398 267.683L320.335 274.711Z" fill="#87623F"/>
<path d="M326.195 265.316L396.171 224.958V183.967L326.195 224.324V265.316Z" fill="#C99A6B"/>
<path d="M326.195 265.316L268.964 232.321V191.311L326.195 224.324V265.316Z" fill="#AE835B"/>
<path d="M326.195 224.324L268.964 191.311L338.94 150.954L396.171 183.967L326.195 224.324Z" fill="#E8B687"/>
<path d="M301.619 236.049L292.419 230.755V204.845L301.619 210.139V236.049Z" fill="#9C754E"/>
<path d="M301.619 210.139L371.595 169.781L362.396 164.469L292.419 204.845L301.619 210.139Z" fill="#F0CBA4"/>
<path d="M268.964 191.311L326.195 224.324L295.312 207.809L268.964 191.311Z" fill="#87623F"/>
<path d="M297.364 207.697L367.341 167.32L366.706 166.966L296.73 207.324L297.364 207.697Z" fill="#D1A986"/>
<path d="M322.425 240.579L310.352 233.608V219.757L322.425 226.729V240.579ZM311.229 233.123L321.716 239.162V227.139L311.229 221.099V233.123Z" fill="#87623F"/>
<path d="M317.723 236.143L315.054 234.614V227.624L317.723 229.171V236.143Z" fill="#87623F"/>
<path d="M320.335 232.004L312.442 227.456L316.398 224.958L320.335 232.004Z" fill="#87623F"/>
</g>
<defs>
<linearGradient id="paint0_linear" x1="502" y1="247.5" x2="-0.000132093" y2="247.5" gradientUnits="userSpaceOnUse">
<stop offset="0.0104" stop-color="#F1F1F1" stop-opacity="0"/>
<stop offset="1" stop-color="#F1F1F1"/>
</linearGradient>
<linearGradient id="paint1_linear" x1="251.255" y1="78.2358" x2="280.458" y2="115.249" gradientUnits="userSpaceOnUse">
<stop offset="0.12" stop-color="#FCA4B5"/>
<stop offset="0.99" stop-color="#FFADB7"/>
</linearGradient>
<linearGradient id="paint2_linear" x1="478.832" y1="482.744" x2="594.276" y2="600.655" gradientUnits="userSpaceOnUse">
<stop offset="0.12" stop-color="#FCA4B5"/>
<stop offset="0.99" stop-color="#FFADB7"/>
</linearGradient>
<linearGradient id="paint3_linear" x1="765.968" y1="1448.42" x2="948.039" y2="1593.33" gradientUnits="userSpaceOnUse">
<stop offset="0.12" stop-color="#FCA4B5"/>
<stop offset="0.99" stop-color="#FFADB7"/>
</linearGradient>
<clipPath id="clip0">
<rect width="268" height="347" fill="white" transform="translate(169)"/>
</clipPath>
</defs>
</svg>
