<?xml version="1.0" encoding="utf-8"?>
<!-- Generator: Adobe Illustrator 24.0.2, SVG Export Plug-In . SVG Version: 6.00 Build 0)  -->
<svg version="1.1" id="Layer_2" xmlns="http://www.w3.org/2000/svg" xmlns:xlink="http://www.w3.org/1999/xlink" x="0px" y="0px"
	 viewBox="0 0 136.8 94" style="enable-background:new 0 0 136.8 94;" xml:space="preserve">
<style type="text/css">
	.st0{fill:#E0E0E0;fill-opacity:0.5;}
	.st1{fill:#D02418;}
</style>
<circle class="st0" cx="104.9" cy="51" r="32"/>
<path class="st1" d="M16.5,53.5c-0.2,0-0.3,0-0.5,0l-14.7-4c-0.5-0.1-0.8-0.4-1.1-0.8s-0.3-0.9-0.2-1.3l9.2-34
	c0.1-0.5,0.4-0.8,0.8-1.1c0.4-0.2,0.9-0.3,1.3-0.2l14.7,3.9c0.5,0.1,0.9,0.4,1.1,0.8c0.1,0.2,0.2,0.4,0.2,0.7c0,0.2,0,0.5,0,0.7
	l-9.1,33.9c-0.1,0.4-0.3,0.7-0.7,1C17.3,53.4,16.9,53.5,16.5,53.5z M4,46.5l11.2,3l8.2-30.3l-11.2-3L4,46.5z"/>
<path class="st1" d="M23.1,51.5c-1.2,0-2.4-0.2-3.6-0.6L16.8,50c-0.4-0.1-0.8-0.4-1-0.8c-0.2-0.4-0.3-0.9-0.2-1.3l7.3-26.7
	c0.1-0.5,0.4-0.8,0.8-1.1c0.4-0.2,0.9-0.3,1.3-0.2l4,1.1c2.2,0.6,4.5,0.6,6.7,0l9.7-3c2-0.6,4.2-0.7,6.2-0.2c2.1,0.5,4,1.5,5.5,2.9
	l12.5,11.5c0.8,0.7,1.4,1.6,1.7,2.6c0.3,1,0.4,2.1,0.1,3.1c-0.2,1-0.8,2-1.5,2.7c-0.7,0.8-1.6,1.3-2.7,1.6c-0.8,0.2-1.7,0.3-2.5,0.2
	c-0.8-0.1-1.6-0.4-2.4-0.9l-7.2-4.7c-0.9-0.6-2.1-0.9-3.2-0.9c-1.1,0-2.2,0.3-3.2,0.9l-19,12.7C27.7,50.8,25.5,51.5,23.1,51.5z
	 M19.6,47.2l1,0.3c1.2,0.4,2.4,0.5,3.6,0.3c1.2-0.2,2.4-0.6,3.4-1.3l19-12.7c1.5-1,3.3-1.5,5.2-1.5c1.8,0,3.6,0.5,5.2,1.5l7.2,4.7
	c0.3,0.2,0.6,0.3,0.9,0.3c0.3,0,0.7,0,1-0.1c0.3-0.1,0.6-0.2,0.9-0.5c0.2-0.2,0.4-0.5,0.6-0.8c0.2-0.5,0.3-1,0.2-1.4
	c-0.1-0.5-0.4-0.9-0.7-1.2L54.6,23.3c-1.1-1-2.4-1.7-3.9-2c-1.4-0.3-2.9-0.3-4.3,0.2l-9.5,2.9c-2.8,0.8-5.8,0.8-8.7,0L26,23.7
	L19.6,47.2z"/>
<path class="st1" d="M91,53.4c-0.3,0-0.7-0.1-1-0.3c-0.3-0.2-0.5-0.5-0.7-0.8c-0.1-0.2-0.2-0.5-0.2-0.7c0-0.2,0-0.5,0.1-0.7
	c0.1-0.2,0.2-0.4,0.4-0.6s0.4-0.3,0.6-0.4l7.3-3.4l-8.8-21.8l-5.3,0.8c-2.3,0.3-4.7,0.1-6.9-0.7l-14.1-5.1c-1.1-0.4-2.2-0.4-3.3,0
	l-5.4,2.2c-0.4,0.1-0.9,0.1-1.3-0.1c-0.4-0.2-0.7-0.5-0.9-1c-0.2-0.4-0.2-0.9,0-1.3c0.2-0.4,0.5-0.8,0.9-1l5.4-2.2
	c1.9-0.7,4-0.7,5.9,0l14.1,5c1.6,0.6,3.4,0.8,5.1,0.5l6.8-1c0.4-0.1,0.8,0,1.2,0.2c0.4,0.2,0.6,0.5,0.8,0.9l10,24.8
	c0.2,0.4,0.2,0.9,0,1.3c-0.2,0.4-0.5,0.8-0.9,1l-8.9,4.2C91.6,53.3,91.3,53.4,91,53.4z"/>
<path class="st1" d="M88.6,61.3c-0.8,0-1.6-0.2-2.3-0.6c-0.7-0.4-1.3-0.9-1.8-1.6l-3.3-4.7c-0.8-1.1-1.1-2.4-0.8-3.7
	c0.2-1.3,1-2.5,2-3.3l1.2-0.8c1.1-0.8,2.4-1.1,3.7-0.9c1.3,0.2,2.5,1,3.2,2l3.3,4.7c0.8,1.1,1.1,2.4,0.8,3.7c-0.2,1.3-1,2.5-2,3.2
	l-1.2,0.8C90.7,60.9,89.7,61.2,88.6,61.3z M86.5,49.4c-0.3,0-0.6,0.1-0.8,0.3l-1.2,0.8C84.2,50.7,84,51,84,51.3
	c-0.1,0.4,0,0.7,0.2,1l3.3,4.7c0.2,0.3,0.5,0.5,0.9,0.5c0.4,0.1,0.7,0,1-0.2l1.2-0.8c0.3-0.2,0.5-0.5,0.5-0.9c0.1-0.4,0-0.7-0.2-1
	L87.7,50c-0.1-0.2-0.3-0.4-0.5-0.5C86.9,49.4,86.7,49.4,86.5,49.4z"/>
<path class="st1" d="M83.4,67.6c-0.3,0-0.6,0-0.9,0c-0.7-0.1-1.3-0.4-1.9-0.8c-0.6-0.4-1.1-0.9-1.4-1.4l-8.3-11.8
	c-0.8-1.1-1.1-2.5-0.9-3.8c0.2-1.3,1-2.5,2.1-3.3l1.2-0.9c1.1-0.8,2.5-1.1,3.8-0.9c1.3,0.2,2.5,1,3.3,2.1l8.3,11.8
	c0.4,0.5,0.7,1.2,0.8,1.8c0.1,0.7,0.2,1.3,0,2c-0.1,0.7-0.4,1.3-0.7,1.9c-0.4,0.6-0.9,1.1-1.4,1.5l-1.2,0.8
	C85.4,67.3,84.4,67.6,83.4,67.6z M76.2,48.4c-0.3,0-0.6,0.1-0.8,0.3l-1.2,0.8c-0.3,0.2-0.5,0.6-0.6,1c0,0.2,0,0.4,0,0.6
	c0,0.2,0.1,0.4,0.2,0.5l8.3,11.7c0.1,0.2,0.3,0.3,0.4,0.4c0.2,0.1,0.3,0.2,0.5,0.2c0.4,0.1,0.8,0,1.1-0.2l1.2-0.9
	c0.3-0.2,0.5-0.6,0.6-1c0-0.2,0-0.4,0-0.6c0-0.2-0.1-0.4-0.2-0.5L77.5,49c-0.1-0.2-0.3-0.4-0.5-0.5C76.7,48.5,76.5,48.4,76.2,48.4z"
	/>
<path class="st1" d="M75,69.8c-0.3,0-0.6,0-0.9,0c-0.7-0.1-1.3-0.4-1.9-0.8c-0.6-0.4-1.1-0.9-1.4-1.4L64.6,59
	c-0.8-1.1-1.1-2.5-0.9-3.8c0.2-1.3,1-2.5,2.1-3.3L67,51c0.5-0.4,1.2-0.7,1.8-0.8c0.7-0.2,1.3-0.2,2-0.1s1.3,0.4,1.9,0.7
	c0.6,0.4,1.1,0.8,1.5,1.4l6.2,8.7c0.4,0.6,0.7,1.2,0.8,1.8c0.1,0.7,0.2,1.3,0.1,2c-0.1,0.7-0.4,1.3-0.7,1.9
	c-0.4,0.6-0.8,1.1-1.4,1.5l-1.2,0.9C77.1,69.5,76,69.8,75,69.8z M70,53.6c-0.3,0-0.6,0.1-0.9,0.3l-1.2,0.9c-0.2,0.1-0.3,0.3-0.4,0.4
	c-0.1,0.2-0.2,0.3-0.2,0.5c0,0.2,0,0.4,0,0.6c0,0.2,0.1,0.4,0.2,0.5l6.2,8.7c0.2,0.3,0.6,0.5,1,0.6c0.4,0.1,0.8,0,1.1-0.3L77,65
	c0.2-0.1,0.3-0.3,0.4-0.4c0.1-0.2,0.2-0.3,0.2-0.5c0-0.4,0-0.7-0.3-1l-6.1-8.7c-0.1-0.2-0.3-0.3-0.4-0.4c-0.2-0.1-0.3-0.2-0.5-0.2
	L70,53.6z"/>
<path class="st1" d="M67.7,74c-0.8,0-1.7-0.2-2.4-0.6c-0.8-0.4-1.4-0.9-1.9-1.6l-5-7.2c-0.8-1.1-1.1-2.6-0.9-3.9s1-2.6,2.1-3.4
	l1.3-0.9c0.6-0.4,1.2-0.7,1.9-0.8c0.7-0.2,1.4-0.2,2.1,0c0.7,0.1,1.3,0.4,1.9,0.7c0.6,0.4,1.1,0.9,1.5,1.4l5.1,7.2
	c0.8,1.1,1.1,2.6,0.9,3.9c-0.2,1.4-1,2.6-2.1,3.4l-1.3,0.9C69.9,73.7,68.8,74,67.7,74z M63.8,59c-0.3,0-0.7,0.1-0.9,0.3l-1.3,0.9
	c-0.2,0.1-0.3,0.3-0.4,0.5c-0.1,0.2-0.2,0.4-0.2,0.6c0,0.2,0,0.4,0,0.6c0,0.2,0.1,0.4,0.3,0.6l5.1,7.2c0.2,0.3,0.6,0.5,1,0.6
	c0.4,0.1,0.8,0,1.2-0.2l1.3-0.9c0.2-0.1,0.3-0.3,0.4-0.5c0.1-0.2,0.2-0.4,0.2-0.6c0-0.2,0-0.4,0-0.6c0-0.2-0.1-0.4-0.3-0.6l-5.1-7.2
	c-0.3-0.3-0.6-0.6-1.1-0.7L63.8,59z"/>
<path class="st1" d="M50.6,71.5c-1,0-2-0.4-2.8-1C47,69.9,46.4,69,46.1,68c-0.2-1-0.2-2,0.3-3c0.4-0.9,1.1-1.7,2-2.2l5.1-2.8
	c0.4-0.2,0.9-0.2,1.3,0c0.4,0.2,0.8,0.5,1,0.9c0.2,0.4,0.3,0.9,0.2,1.3c-0.1,0.4-0.4,0.8-0.8,1.1L50.1,66c-0.1,0.1-0.2,0.1-0.3,0.3
	c-0.1,0.1-0.1,0.2-0.2,0.4c0,0.1,0,0.3,0,0.4c0,0.1,0.1,0.3,0.2,0.4c0.1,0.2,0.3,0.3,0.5,0.4c0.2,0.1,0.4,0,0.7-0.1l9.2-4.2
	c0.4-0.2,0.9-0.2,1.4,0c0.5,0.2,0.8,0.5,1,1c0.1,0.2,0.2,0.5,0.2,0.7c0,0.2,0,0.5-0.1,0.7c-0.1,0.2-0.2,0.4-0.4,0.6
	c-0.2,0.2-0.4,0.3-0.6,0.4l-9.2,4.2C51.9,71.4,51.2,71.5,50.6,71.5z"/>
<path class="st1" d="M43.2,68.8c-1.2,0-2.3-0.4-3.3-1.1c-0.9-0.7-1.6-1.7-1.9-2.9c-0.3-1.1-0.2-2.4,0.2-3.5c0.5-1.1,1.3-2,2.3-2.6
	L55.4,50c0.4-0.2,0.9-0.3,1.4-0.2c0.5,0.1,0.9,0.4,1.1,0.8c0.2,0.4,0.3,0.9,0.2,1.4c-0.1,0.5-0.4,0.9-0.8,1.1l-14.9,8.7
	c-0.2,0.1-0.4,0.3-0.5,0.5c-0.1,0.2-0.2,0.4-0.3,0.7c-0.1,0.2-0.1,0.5,0,0.7c0,0.2,0.1,0.5,0.3,0.7c0.2,0.3,0.6,0.6,1,0.7
	c0.4,0.1,0.8,0.1,1.2-0.1l5.1-2.5c0.2-0.1,0.5-0.2,0.7-0.3c0.3,0,0.5,0,0.8,0.1s0.5,0.2,0.7,0.4s0.4,0.4,0.5,0.6s0.2,0.5,0.2,0.7
	c0,0.3,0,0.5-0.1,0.8c-0.1,0.2-0.2,0.5-0.4,0.6c-0.2,0.2-0.4,0.3-0.6,0.4l-5.1,2.5C44.8,68.6,44,68.8,43.2,68.8z"/>
<path class="st1" d="M37.9,63.6c-0.5,0-1-0.1-1.5-0.2c-0.7-0.2-1.4-0.5-2-1c-0.6-0.5-1.1-1.1-1.4-1.7c-0.7-1.3-0.9-2.8-0.5-4.2
	s1.3-2.6,2.5-3.4l14.7-9c0.4-0.2,0.9-0.3,1.4-0.2c0.5,0.1,0.9,0.4,1.1,0.8c0.1,0.2,0.2,0.4,0.3,0.7c0,0.2,0,0.5,0,0.7
	c-0.1,0.2-0.2,0.5-0.3,0.6c-0.1,0.2-0.3,0.4-0.5,0.5l-14.6,9c-0.4,0.3-0.8,0.7-0.9,1.2c-0.1,0.5-0.1,1,0.2,1.5
	c0.3,0.5,0.7,0.8,1.2,1c0.3,0.1,0.5,0.1,0.8,0.1c0.3,0,0.5-0.1,0.7-0.3l11.7-6.8c0.2-0.1,0.4-0.2,0.7-0.2c0.2,0,0.5,0,0.7,0
	c0.2,0.1,0.4,0.2,0.6,0.3c0.2,0.1,0.4,0.3,0.5,0.5c0.2,0.4,0.3,0.9,0.2,1.4c-0.1,0.5-0.4,0.9-0.8,1.1l-11.7,6.8
	C40,63.3,39,63.6,37.9,63.6z"/>
<path class="st1" d="M32.1,58.1c-1.4,0-2.8-0.5-3.9-1.3c-1.1-0.8-2-2-2.4-3.4c-0.4-1.4-0.4-2.8,0.1-4.2s1.4-2.5,2.5-3.3l10.3-6.8
	c0.4-0.3,0.9-0.4,1.4-0.3c0.5,0.1,0.9,0.4,1.2,0.8c0.3,0.4,0.4,0.9,0.3,1.4c-0.1,0.5-0.4,0.9-0.8,1.2L30.4,49
	c-0.5,0.3-0.9,0.8-1.1,1.3c-0.2,0.5-0.3,1.1-0.2,1.7c0.1,0.6,0.4,1.1,0.8,1.5c0.4,0.4,0.9,0.7,1.5,0.8c0.4,0.1,0.8,0.1,1.2,0.1
	c0.4-0.1,0.8-0.2,1.1-0.4l5.7-3.6c0.4-0.3,0.9-0.3,1.4-0.2s0.9,0.4,1.1,0.8c0.1,0.2,0.2,0.4,0.3,0.7c0,0.2,0,0.5,0,0.7
	c-0.1,0.2-0.2,0.5-0.3,0.7c-0.1,0.2-0.3,0.4-0.5,0.5l-5.7,3.6C34.5,57.7,33.3,58.1,32.1,58.1z"/>
<path class="st1" d="M101.6,53c-0.4,0-0.7-0.1-1-0.3c-0.3-0.2-0.5-0.5-0.7-0.8l-1.6-3.8l-10-24.8l-1.5-4c-0.1-0.2-0.1-0.5-0.1-0.7
	c0-0.2,0.1-0.5,0.2-0.7c0.1-0.2,0.2-0.4,0.4-0.6c0.2-0.2,0.4-0.3,0.6-0.4l15-5.9c0.2-0.1,0.5-0.1,0.7-0.1c0.2,0,0.5,0.1,0.7,0.2
	c0.2,0.1,0.4,0.2,0.6,0.4c0.2,0.2,0.3,0.4,0.4,0.6L117.8,45c0.2,0.5,0.2,1,0,1.4c-0.2,0.4-0.6,0.8-1,1l-14.5,5.6
	C102.1,53,101.8,53,101.6,53z M91.7,22l10.8,26.9l11.2-4.3l-11.2-29.3l-11.7,4.5L91.7,22z"/>
</svg>
