<?xml version="1.0" encoding="utf-8"?>
<!-- Generator: Adobe Illustrator 24.0.2, SVG Export Plug-In . SVG Version: 6.00 Build 0)  -->
<svg version="1.1" id="Layer_2" xmlns="http://www.w3.org/2000/svg" xmlns:xlink="http://www.w3.org/1999/xlink" x="0px" y="0px"
	 viewBox="0 0 136.8 94" style="enable-background:new 0 0 136.8 94;" xml:space="preserve">
<style type="text/css">
	.st0{fill:#E0E0E0;}
	.st1{fill:#D02418;}
</style>
<path class="st0" d="M53.5,79.6c20.4,0,36.9-16.4,36.9-36.5S73.9,6.5,53.5,6.5S16.6,22.8,16.6,43S33.1,79.6,53.5,79.6z"/>
<path class="st1" d="M37.1,5l14.9,4.5l8.6,21.2c-0.2,0.2-0.3,0.4-0.4,0.7l-4.2,12.8c-0.1,0.4-0.1,0.9,0,1.3l11.7,28.4
	c-0.4,1.4-0.7,2.8-0.7,4.4c0,8,6.6,14.6,14.8,14.6s14.8-6.6,14.8-14.6c0-1.3-0.2-2.5-0.5-3.8l26.7-11.3c1-0.4,1.4-1.5,1-2.4
	c-0.4-1-1.5-1.4-2.4-1L94.7,71.2c-0.6-1-1.2-1.8-2-2.6l25.1-10.2c0.3-0.1,0.6-0.4,0.7-0.7c0.1-0.3,0.1-0.7,0-1l-13-31
	c-0.3-0.7-1.1-1-1.8-0.7l-2.6,1.1L92,4.1c-0.1-0.3-0.4-0.6-0.7-0.7c-0.3-0.1-0.7-0.1-1,0l-23.8,9.8c-0.3,0.1-0.6,0.4-0.7,0.7
	c-0.1,0.3-0.1,0.7,0,1L75,36.7L72,38c-0.7,0.3-1,1.1-0.7,1.7l10.1,24.1c-1.1,0-2.1,0.2-3,0.5L55.3,7.5c-0.2-0.5-0.7-0.9-1.2-1.1
	L38.3,1.6c-1-0.3-2.1,0.3-2.3,1.3C35.5,3.7,36.1,4.7,37.1,5z M68.8,14.9l6.6-2.7l2.5,6.1l8.2-3.4l-2.5-6.1l6.6-2.7l8.6,20.7
	l-21.4,8.8L68.8,14.9z M81.8,67.4c0.3,0,0.6,0,0.9,0c1.2,0.1,2.2,0.4,3.2,0.8c0.1,0,0.2,0.1,0.3,0.1c1,0.5,2,1.1,2.7,1.7
	c0.9,0.8,1.7,1.6,2.2,2.6c0.7,1.1,1.1,2.2,1.4,3.5c0.2,0.8,0.2,1.5,0.2,2.2c0,6-5,10.9-11,10.9s-11-4.9-11-10.9c0-4,2.1-7.4,5.3-9.4
	c1.1-0.7,2.2-1.1,3.5-1.4C80.4,67.5,81.2,67.4,81.8,67.4z M74.1,39.8l9.3-3.8l3.6,8.6L98,40.2l-3.6-8.6l9.3-3.8l11.9,28.6L90.6,66.5
	c-1.9-1.4-4-2.3-6.4-2.7L74.1,39.8z M70,69.6l-4.3-10.3l5.2-3.2l3.8,9.5C72.9,66.5,71.3,68,70,69.6z M64.4,55.8l-4.5-11l2.9-8.9
	l6.7,16.7L64.4,55.8z"/>
</svg>
