<?xml version="1.0" encoding="utf-8"?>
<!-- Generator: Adobe Illustrator 24.0.2, SVG Export Plug-In . SVG Version: 6.00 Build 0)  -->
<svg version="1.1" id="Layer_2" xmlns="http://www.w3.org/2000/svg" xmlns:xlink="http://www.w3.org/1999/xlink" x="0px" y="0px"
	 viewBox="0 0 136.8 94" style="enable-background:new 0 0 136.8 94;" xml:space="preserve">
<style type="text/css">
	.st0{fill:#E0E0E0;}
	.st1{fill:#D02418;}
</style>
<path class="st0" d="M54.2,2.4l-51.3,23v59.1c1.1,0,102.8,0,102.8,0V25.5L54.2,2.4z"/>
<path class="st1" d="M126.9,80.9V25.5L77.3,3.3L77,3.2L27.2,25.5v55.5h-8.7v3.7h116.3v-3.7H126.9z M108.4,39.7v41.2H45.7V39.7H108.4
	z M42.1,36.1v44.8H30.8V27.7L77,7.1l46.2,20.6v53.2H112V36.2H42.1V36.1z"/>
<path class="st1" d="M128,88.3H88.4v3.7H128V88.3z"/>
<path class="st1" d="M84.3,88.3H71.6v3.7h12.8V88.3z"/>
<path class="st1" d="M76.6,60.5H52.3v19.5h24.2V60.5z M56.1,76.4V64.2H73v12.2H56.1z"/>
<path class="st1" d="M77.6,79.9h24.2V60.5H77.6V79.9z M98.1,64.2v12.2H81.2V64.2H98.1z"/>
<path class="st1" d="M89.1,41.2H77.6h-0.9H65v18.4h24.2V41.2H89.1z M77,49l4.2,4.1v-8.2h4.4v11.1H68.6V44.9H73v8.2L77,49z"/>
</svg>
