<?xml version="1.0" encoding="utf-8"?>
<!-- Generator: Adobe Illustrator 24.0.2, SVG Export Plug-In . SVG Version: 6.00 Build 0)  -->
<svg version="1.1" id="Layer_3" xmlns="http://www.w3.org/2000/svg" xmlns:xlink="http://www.w3.org/1999/xlink" x="0px" y="0px"
	 viewBox="0 0 136.8 94" style="enable-background:new 0 0 136.8 94;" xml:space="preserve">
<style type="text/css">
	.st0{fill:#E0E0E0;fill-opacity:0.5;}
	.st1{clip-path:url(#SVGID_2_);}
	.st2{fill:#D02418;}
</style>
<circle class="st0" cx="85.4" cy="55.5" r="32"/>
<g>
	<defs>
		<rect id="SVGID_1_" x="19.4" y="6.5" width="68.1" height="68"/>
	</defs>
	<clipPath id="SVGID_2_">
		<use xlink:href="#SVGID_1_"  style="overflow:visible;"/>
	</clipPath>
	<g class="st1">
		<path class="st2" d="M21,74.5h49.2h0.1h0.1h0.1h0.1h0.1h0.1h0.1h0.1h0.1h0.1H71c0,0,0,0,0.1-0.1l16-15.7l0.1-0.1
			c0,0,0.1-0.1,0.1-0.1l0.1-0.1c0,0,0-0.1,0-0.1v-0.1c0,0,0,0,0-0.1v-0.1v-0.1c0,0,0-0.1,0-0.1c0,0,0-0.1,0-0.1c0,0,0-0.1,0-0.1V8.1
			c0-0.4-0.1-0.8-0.4-1c-0.2-0.3-0.6-0.5-1-0.6H36.7h-0.1h-0.1l-0.1,0.1v0h-0.1h-0.1h-0.1l-0.1,0.1h-0.1H36l-0.1,0.1l-16,15.9
			l-0.1,0.1l-0.1,0.1l-0.1,0.1v0c0,0,0,0.1,0,0.1v0.1c0,0,0,0,0,0.1v0.1c0,0,0,0,0,0.1c0,0.1-0.1,0.1-0.1,0.1s-0.1,0-0.2,0
			c0,0.1,0,0.1,0,0.2c0,0,0,0.1,0,0.1v49.1c0,0.2,0,0.4,0.1,0.6c0.1,0.2,0.2,0.4,0.3,0.5s0.3,0.3,0.5,0.4
			C20.6,74.5,20.8,74.5,21,74.5z M68.3,71.3H22.6V25.4h15.2v24.7l4.2-2.9l3.2,2.9l3.2-3l5,3V25.4h15L68.3,71.3z M71.5,24.5l12.8-13
			v45L71.5,69.1V24.5z M69.3,22.2h-14L67.5,9.7h14.1L69.3,22.2z M37.6,9.7h14.2L39.1,22.2H24.9L37.6,9.7z"/>
	</g>
</g>
</svg>
