<?xml version="1.0" encoding="utf-8"?>
<!-- Generator: Adobe Illustrator 24.0.2, SVG Export Plug-In . SVG Version: 6.00 Build 0)  -->
<svg version="1.1" id="Layer_4" xmlns="http://www.w3.org/2000/svg" xmlns:xlink="http://www.w3.org/1999/xlink" x="0px" y="0px"
	 viewBox="0 0 136.8 94" style="enable-background:new 0 0 136.8 94;" xml:space="preserve">
<style type="text/css">
	.st0{fill:#E0E0E0;fill-opacity:0.5;}
	.st1{fill:#D02418;}
</style>
<circle class="st0" cx="84.4" cy="62" r="32"/>
<path class="st1" d="M54.4,81.4c6.6,0,13-1.9,18.5-5.5c5.5-3.6,9.8-8.7,12.4-14.8c2.6-6,3.4-12.7,2.3-19.2
	c-1.1-6.5-4.1-12.5-8.6-17.3c2.7-4.5,6-10.5,6-13.8c0-2.9-1.1-5.6-3.2-7.6c-2-2-4.8-3.2-7.6-3.2c-2.9,0-5.6,1.1-7.6,3.2
	s-3.2,4.8-3.2,7.6c0.1,1.6,0.5,3.2,1.2,4.7c-4.6-1.5-9.4-1.9-14.1-1.4c-4.7,0.5-9.3,2.1-13.4,4.5c-1-1.7-2.5-3-4.4-3.7
	c-1.8-0.7-3.8-0.8-5.7-0.3c-1.9,0.5-3.6,1.6-4.8,3.2c-1.2,1.6-1.9,3.4-1.9,5.4c0,2.3,1.8,6.1,3.7,9.4c-2.6,5.1-3.8,10.9-3.5,16.6
	s2,11.3,5,16.2c3,4.9,7.2,8.9,12.3,11.7C43,79.9,48.6,81.4,54.4,81.4z M35,49.2c0.2,3.6,1.1,7.2,2.5,10.5c-3,1.2-5.9,2.8-8.5,4.8
	c-3-4.5-4.8-9.8-5.1-15.3H35z M39.9,38c4.2,1.3,8.5,2.1,12.9,2.3V46H38.2C38.4,43.3,38.9,40.6,39.9,38z M70.6,46H56v-5.6
	c4.4,0,8.8-0.6,13.1-1.8C69.9,41,70.4,43.5,70.6,46z M68.5,58.2c-4.1-1.1-8.3-1.6-12.5-1.7v-7.3h14.6C70.4,52.3,69.7,55.3,68.5,58.2
	z M38.2,49.2h14.6v7.3c-4.2,0.2-8.3,0.9-12.3,2.1C39.2,55.7,38.4,52.5,38.2,49.2z M52.8,59.8v16c-4.4-4.1-8.1-8.9-11-14.2
	C45.3,60.5,49,59.9,52.8,59.8z M56,75.8V59.7c3.8,0,7.5,0.5,11.2,1.4C64.3,66.6,60.5,71.5,56,75.8L56,75.8z M56,37.2V19.3
	c4.9,4.7,9,10.2,11.9,16.3C64,36.6,60,37.2,56,37.2L56,37.2z M52.8,19.3v17.8c-4-0.2-7.9-0.9-11.7-2.1C44,29.2,48,23.8,52.8,19.3
	L52.8,19.3z M30.9,67.1c2.4-1.8,5.1-3.3,7.9-4.4c1.5,3,3.3,5.8,5.4,8.5c1.9,2.4,4,4.7,6.2,6.8C42.7,76.9,35.7,73,30.9,67.1z
	 M58.4,77.9c2.2-2.1,4.3-4.4,6.2-6.8c2.2-2.8,4.1-5.9,5.7-9.1c3,1,5.8,2.4,8.3,4.1c-2.4,3.2-5.5,5.9-9,7.9
	C66.2,76.1,62.4,77.4,58.4,77.9z M80.4,63.5c-2.7-1.9-5.7-3.4-8.9-4.4c1.3-3.1,2-6.5,2.2-9.8h11.1C84.6,54.3,83.1,59.2,80.4,63.5z
	 M73.8,46c-0.2-2.9-0.8-5.7-1.7-8.4c3.2-1.1,6.2-2.7,9-4.7c2.2,4,3.5,8.5,3.8,13.1H73.8z M81.8,10.7c0,2.2-2.5,7.1-5.1,11.5
	c-0.6,0.9-1.1,1.9-1.7,2.8l-0.7,1.1c-0.7-1.1-1.4-2.3-2.2-3.5c-1.1-1.8-2.2-3.7-3.1-5.5c-1.3-2.7-2.3-5.1-2.3-6.4
	c0-2,0.8-3.9,2.2-5.3c1.4-1.4,3.3-2.2,5.3-2.2c2,0,3.9,0.8,5.3,2.2C81,6.8,81.8,8.7,81.8,10.7z M66.6,19.6c1.9,3.6,4,7,6.3,10.4
	c0.1,0.2,0.3,0.4,0.6,0.5s0.5,0.2,0.7,0.2s0.5-0.1,0.7-0.2c0.2-0.1,0.4-0.3,0.6-0.5c0.2-0.3,0.9-1.3,1.7-2.6
	c0.8,0.9,1.5,1.8,2.2,2.8c-2.6,1.9-5.4,3.4-8.5,4.4c-1.7-3.8-3.8-7.3-6.4-10.6c-1.8-2.4-3.8-4.6-6-6.7C61.3,17.8,64,18.5,66.6,19.6z
	 M50.1,17.4c-2.2,2.1-4.2,4.3-6,6.7c-2.4,3.1-4.4,6.4-6,9.9c-1.1-0.5-2.2-1-3.3-1.6c2.4-4.2,3.6-7.2,3.6-9.2c0-0.5,0-1-0.1-1.5
	C41.9,19.5,45.9,18,50.1,17.4z M29.4,17.5c1.5,0,3,0.6,4.1,1.7c1.1,1.1,1.7,2.5,1.7,4.1c0,0.3-0.1,0.5-0.1,0.8
	c-0.7,2.4-1.7,4.6-3,6.7c-0.5,0.9-1,1.8-1.6,2.8l-1,1.6c-0.6-0.9-1.1-1.7-1.6-2.5c-0.7-1.2-1.3-2.2-1.8-3.2
	c-1.7-3.2-2.4-5.3-2.4-6.2c0-0.8,0.2-1.5,0.4-2.2c0.3-0.7,0.7-1.3,1.3-1.9c0.5-0.5,1.2-1,1.9-1.2C27.9,17.6,28.7,17.4,29.4,17.5z
	 M26.2,36c0.9,1.5,1.7,2.6,1.9,2.9c0.1,0.2,0.3,0.4,0.6,0.5s0.5,0.2,0.7,0.2s0.5-0.1,0.7-0.2s0.4-0.3,0.6-0.5c0-0.1,1.1-1.6,2.4-3.7
	c1.2,0.7,2.5,1.3,3.7,1.8c-1.1,2.9-1.7,5.9-1.9,9H23.9C24.1,42.6,24.8,39.2,26.2,36z"/>
</svg>
