<?xml version="1.0" encoding="utf-8"?>
<!-- Generator: Adobe Illustrator 24.0.2, SVG Export Plug-In . SVG Version: 6.00 Build 0)  -->
<svg version="1.1" id="Layer_2" xmlns="http://www.w3.org/2000/svg" xmlns:xlink="http://www.w3.org/1999/xlink" x="0px" y="0px"
	 viewBox="0 0 136.8 94" style="enable-background:new 0 0 136.8 94;" xml:space="preserve">
<style type="text/css">
	.st0{fill:#E0E0E0;}
	.st1{fill:#D02418;}
</style>
<path class="st0" d="M109.7,90.8H75.3c-2.9,0-5.3-2.3-5.3-5.2V39.6c0-2.9,2.3-5.2,5.3-5.2h34.5c2.9,0,5.3,2.3,5.3,5.2v45.9
	C115,88.4,112.7,90.8,109.7,90.8z"/>
<path class="st1" d="M92.9,82H54.3c-2.9,0-5.4-2.4-5.4-5.3V23.5c0-0.7,0.6-1.3,1.3-1.3s1.3,0.6,1.3,1.3v53.2c0,1.5,1.3,2.8,2.9,2.8
	H93c1.6,0,2.9-1.3,2.9-2.8V8.9c0-1.5-1.3-2.8-2.9-2.8H54.4c-1.6,0-2.9,1.3-2.9,2.8v4.8c0,0.7-0.6,1.3-1.3,1.3S49,14.4,49,13.7V8.9
	c0-2.9,2.4-5.3,5.4-5.3h38.6c2.9,0,5.4,2.4,5.4,5.3v67.8C98.3,79.6,95.9,82,92.9,82z"/>
<path class="st1" d="M92.6,73.1H54.7c-0.7,0-1.3-0.6-1.3-1.3v-25c0-0.7,0.6-1.3,1.3-1.3c0.7,0,1.3,0.6,1.3,1.3v23.7h35.4V14.9H57.7
	c-0.7,0-1.3-0.6-1.3-1.3c0-0.7,0.6-1.3,1.3-1.3h34.9c0.7,0,1.3,0.6,1.3,1.3v58.1C93.9,72.6,93.3,73.1,92.6,73.1z"/>
<path class="st1" d="M82.5,45.1H57.7c-0.7,0-1.2-0.5-1.3-1.2L55.1,25c0-0.3,0.1-0.7,0.3-0.9c0.3-0.3,0.6-0.4,1-0.4h27.4
	c0.3,0,0.7,0.2,1,0.4c0.3,0.3,0.3,0.6,0.3,0.9l-1.3,18.9C83.7,44.6,83.2,45.1,82.5,45.1z M58.9,42.5h22.3l1.1-16.3H57.8L58.9,42.5z"
	/>
<path class="st1" d="M82.9,39.1H57.3c-0.7,0-1.3-0.6-1.3-1.3c0-0.7,0.6-1.3,1.3-1.3h25.6c0.7,0,1.3,0.6,1.3,1.3
	C84.2,38.5,83.6,39.1,82.9,39.1z"/>
<path class="st1" d="M83.3,32.2H56.8c-0.7,0-1.3-0.6-1.3-1.3c0-0.7,0.6-1.3,1.3-1.3h26.6c0.7,0,1.3,0.6,1.3,1.3
	C84.6,31.6,84.1,32.2,83.3,32.2z"/>
<path class="st1" d="M56.4,26.2c-0.7,0-1.2-0.5-1.3-1.2l-0.4-5.7h-5.9c-0.7,0-1.3-0.6-1.3-1.3c0-0.7,0.6-1.3,1.3-1.3h7.1
	c0.7,0,1.2,0.5,1.3,1.2l0.5,6.8C57.8,25.5,57.3,26.1,56.4,26.2C56.5,26.2,56.4,26.2,56.4,26.2z"/>
<path class="st1" d="M62.2,55.5c-2.3,0-4.2-1.9-4.2-4.1c0-2.2,1.9-4.1,4.2-4.1s4.2,1.9,4.2,4.1C66.4,53.6,64.5,55.5,62.2,55.5z
	 M62.2,49.7c-0.9,0-1.6,0.7-1.6,1.5c0,0.9,0.7,1.5,1.6,1.5c0.9,0,1.6-0.7,1.6-1.5C63.8,50.5,63.1,49.7,62.2,49.7z"/>
<path class="st1" d="M76.6,55.5c-2.3,0-4.2-1.9-4.2-4.1c0-2.2,1.9-4.1,4.2-4.1s4.2,1.9,4.2,4.1C80.7,53.6,78.9,55.5,76.6,55.5z
	 M76.6,49.7c-0.9,0-1.6,0.7-1.6,1.5c0,0.9,0.7,1.5,1.6,1.5s1.6-0.7,1.6-1.5C78.2,50.5,77.5,49.7,76.6,49.7z"/>
<path class="st1" d="M81.3,67.1H65.6c-2.9,0-5.2-2.3-5.2-5.1c0-2.8,2.3-5.1,5.2-5.1h15.8c2.9,0,5.2,2.3,5.2,5.1
	C86.5,64.8,84.2,67.1,81.3,67.1z M65.6,59.3c-1.5,0-2.7,1.2-2.7,2.7s1.2,2.7,2.7,2.7h15.8c1.5,0,2.7-1.2,2.7-2.7s-1.2-2.7-2.7-2.7
	H65.6z"/>
<path class="st0" d="M38.7,29.8H27.9c-1.8,0-3.3-1.5-3.3-3.3V8.8c0-1.8,1.5-3.3,3.3-3.3h10.7C40.5,5.5,42,7,42,8.8v17.7
	C42,28.2,40.5,29.8,38.7,29.8z"/>
</svg>
