<?xml version="1.0" encoding="utf-8"?>
<!-- Generator: Adobe Illustrator 24.0.2, SVG Export Plug-In . SVG Version: 6.00 Build 0)  -->
<svg version="1.1" id="Layer_3" xmlns="http://www.w3.org/2000/svg" xmlns:xlink="http://www.w3.org/1999/xlink" x="0px" y="0px"
	 viewBox="0 0 136.8 94" style="enable-background:new 0 0 136.8 94;" xml:space="preserve">
<style type="text/css">
	.st0{fill:#E0E0E0;}
	.st1{fill:#D02418;}
</style>
<path class="st0" d="M92.1,58.8v-23c0-2.9,2.4-5.3,5.3-5.3h32.2c3,0,5.3,2.3,5.3,5.3v23c0,2.9-2.4,5.3-5.3,5.3H97.5
	C94.5,64,92.1,61.6,92.1,58.8z"/>
<path class="st1" d="M54.3,88.2c-3.2,0-6-2.6-6-5.9V56.2c0-0.6,0.4-1.2,1.1-1.3c0.6-0.2,1.2,0.2,1.6,0.7l0.4,0.6l8.8,18.4
	c0.1,0.2,0.2,0.3,0.2,0.6v7.3C60.2,85.6,57.5,88.2,54.3,88.2z M51.1,62.2v20.3c0,1.7,1.4,3.2,3.2,3.2s3.2-1.4,3.2-3.2v-6.9
	L51.1,62.2z"/>
<path class="st1" d="M67.3,88.2c-0.6,0-1.1-0.1-1.8-0.3c-1.6-0.5-2.9-1.6-3.7-3.1L48.6,57.3c-0.5-1-0.8-1.6-1.1-2.3
	c-0.3-0.8-0.5-1.6-0.5-2.5V27.9c0-1.9,0.8-3.7,2.1-5c1.4-1.3,3.2-2,5.2-2c3.8,0.1,6.8,3.4,6.8,7.2v5.1c0,0.6-0.4,1.1-1,1.3
	c-0.5,0.2-1.1,0-1.5-0.4L56,30.6c-0.3-0.3-0.7-0.5-1.1-0.5c-0.4,0-1,0.2-1.3,0.4c-0.6,0.6-0.7,1.7,0,2.4l7.4,8.6
	c0.2,0.3,0.4,0.5,0.4,0.9v10.1c0,1.9,0.7,4.9,1.5,6.6l9.9,20.5c1.3,2.8,0.4,6.2-2.2,7.7C69.5,88,68.5,88.2,67.3,88.2z M54.3,23.8
	c-1.1,0-2.2,0.4-3,1.2c-0.9,0.8-1.3,1.9-1.3,3v24.6c0,0.6,0.1,1,0.4,1.6c0.2,0.5,0.4,1.1,0.9,1.8l0.1,0.2l13.3,27.6
	c0.4,0.8,1.1,1.4,1.9,1.6c0.9,0.3,1.8,0.2,2.6-0.3c1.4-0.9,1.9-2.7,1.1-4.2l-9.9-20.5c-1-2.1-1.8-5.5-1.8-7.7V43l-7-8.2
	c-1.6-1.9-1.5-4.6,0.3-6.2c0.9-0.9,2.1-1.3,3.3-1.2c1.2,0.1,2.4,0.6,3.2,1.6l0.4,0.4v-1.2c0-2.4-1.8-4.4-4.2-4.5
	C54.4,23.8,54.3,23.8,54.3,23.8z"/>
<path class="st1" d="M54.3,20.8c-4,0-7.4-3.3-7.4-7.3c0-4,3.3-7.3,7.4-7.3s7.4,3.3,7.4,7.3C61.7,17.5,58.3,20.8,54.3,20.8z
	 M54.3,8.9c-2.5,0-4.6,2.1-4.6,4.6c0,2.5,2.1,4.6,4.6,4.6c2.5,0,4.6-2.1,4.6-4.6C58.8,10.9,56.8,8.9,54.3,8.9z"/>
<path class="st1" d="M73.5,47.2h-8.8c-0.4,0-2.7-0.1-3.9-1.6l-9.2-10.7c-1.6-1.9-1.5-4.6,0.3-6.2c0.9-0.9,2.1-1.3,3.3-1.2
	c1.2,0.1,2.4,0.6,3.2,1.6l7.2,9.2c0.3,0.3,0.7,0.7,1.1,0.9h6.8c2.3,0,4.1,1.8,4.1,4.1C77.6,45.3,75.7,47.2,73.5,47.2z M54.8,30.2
	c-0.4,0-0.9,0.2-1.1,0.4c-0.6,0.6-0.7,1.7,0,2.4l9.2,10.8c0.4,0.4,1.2,0.6,1.8,0.6h8.8c0.8,0,1.4-0.6,1.4-1.4s-0.6-1.4-1.4-1.4h-7.1
	c-0.2,0-0.3,0-0.4-0.1c-1.1-0.3-1.9-1-2.6-1.8l-7.1-9.1c-0.3-0.3-0.7-0.5-1.1-0.5C54.9,30.2,54.9,30.2,54.8,30.2z"/>
<path class="st1" d="M89.5,88.2c-2.8,0-5-2.3-5-4.9c0-2.8,2.3-4.9,5-4.9c2.8,0,5,2.3,5,4.9C94.6,86.1,92.3,88.2,89.5,88.2z M89.5,81
	c-1.2,0-2.3,1-2.3,2.3c0,1.2,1.1,2.3,2.3,2.3c1.2,0,2.3-1,2.3-2.3C91.9,82.1,90.8,81,89.5,81z"/>
<path class="st1" d="M112.6,88.2c-2.8,0-5-2.3-5-4.9c0-2.8,2.3-4.9,5-4.9c2.8,0,5,2.3,5,4.9C117.7,86.1,115.4,88.2,112.6,88.2z
	 M112.6,81c-1.2,0-2.3,1-2.3,2.3c0,1.2,1.1,2.3,2.3,2.3c1.2,0,2.3-1,2.3-2.3C114.9,82.1,113.9,81,112.6,81z"/>
<path class="st1" d="M114.9,81.8c-0.8,0-1.4-0.6-1.4-1.4V70.2c0-0.8,0.6-1.4,1.4-1.4c0.8,0,1.4,0.6,1.4,1.4v10.2
	C116.3,81.2,115.7,81.8,114.9,81.8z"/>
<path class="st1" d="M109,84.7H93.3c-0.8,0-1.4-0.6-1.4-1.4c0-0.8,0.6-1.4,1.4-1.4H109c0.8,0,1.4,0.6,1.4,1.4
	C110.3,84.1,109.7,84.7,109,84.7z"/>
<path class="st1" d="M119,71.6H81.4c-0.7,0-1.3-0.5-1.4-1.2l-1.8-21.3c0-0.3,0.1-0.7,0.4-1c0.3-0.3,0.6-0.4,1-0.4l41.1-2
	c0.4,0,0.8,0.1,1.1,0.4c0.3,0.3,0.4,0.7,0.4,1l-1.6,23.3C120.3,71.1,119.7,71.6,119,71.6z M82.7,68.9h35.1l1.4-20.5l-38.1,1.9
	L82.7,68.9z"/>
<path class="st1" d="M79.6,50.3c-0.3,0-0.5-0.1-0.8-0.3l-4.9-3.4c-0.6-0.4-0.8-1.3-0.4-1.9c0.4-0.6,1.3-0.8,1.9-0.3l4.9,3.4
	c0.6,0.4,0.8,1.3,0.4,1.9C80.4,50.1,79.9,50.3,79.6,50.3z"/>
<path class="st1" d="M97.7,84.7c-0.8,0-1.4-0.6-1.4-1.4v-13c0-0.8,0.6-1.4,1.4-1.4c0.8,0,1.4,0.6,1.4,1.4v13
	C99,84.1,98.4,84.7,97.7,84.7z"/>
<path class="st1" d="M119.3,64.1H80.9c-0.8,0-1.4-0.6-1.4-1.4c0-0.8,0.6-1.4,1.4-1.4h38.4c0.8,0,1.4,0.6,1.4,1.4
	C120.7,63.5,120.1,64.1,119.3,64.1z"/>
<path class="st1" d="M80.2,56.4c-0.7,0-1.3-0.6-1.4-1.3c0-0.8,0.6-1.4,1.3-1.4l39.7-1.1c0.7,0,1.4,0.6,1.4,1.3
	c0,0.8-0.6,1.4-1.3,1.4L80.2,56.4z"/>
<path class="st1" d="M93.2,71.6c-0.8,0-1.4-0.6-1.4-1.4v-22c0-0.8,0.6-1.4,1.4-1.4s1.4,0.6,1.4,1.4v22C94.6,71,94,71.6,93.2,71.6z"
	/>
<path class="st1" d="M106.8,71.6c-0.8,0-1.4-0.7-1.4-1.4l1.1-22.8c0-0.8,0.7-1.3,1.4-1.3c0.8,0,1.3,0.7,1.3,1.4l-1.1,22.7
	C108.1,71.1,107.5,71.6,106.8,71.6z"/>
<path class="st1" d="M124.7,88.2H42.5c-0.8,0-1.4-0.6-1.4-1.4c0-0.8,0.6-1.4,1.4-1.4h82.2c0.8,0,1.4,0.6,1.4,1.4
	C126.1,87.6,125.4,88.2,124.7,88.2z"/>
<path class="st0" d="M2.2,52.6v-7.1c0-1.8,1.5-3.3,3.3-3.3h13c1.8,0,3.3,1.5,3.3,3.3v7.1c0,1.8-1.5,3.3-3.3,3.3h-13
	C3.7,56,2.2,54.4,2.2,52.6z"/>
</svg>
