<?xml version="1.0" encoding="utf-8"?>
<!-- Generator: Adobe Illustrator 24.0.2, SVG Export Plug-In . SVG Version: 6.00 Build 0)  -->
<svg version="1.1" id="Layer_3" xmlns="http://www.w3.org/2000/svg" xmlns:xlink="http://www.w3.org/1999/xlink" x="0px" y="0px"
	 viewBox="0 0 136.8 94" style="enable-background:new 0 0 136.8 94;" xml:space="preserve">
<style type="text/css">
	.st0{fill:#E0E0E0;}
	.st1{fill:#D02418;}
</style>
<path class="st0" d="M8.5,80c-0.5,0-0.9-0.2-1.4-0.6c-0.6-0.6-0.8-1.4-0.5-2l7.5-19.7C6.8,51.9,2.8,44.3,2.8,36.4
	c0-17.5,19.6-31.7,43.8-31.7s43.8,14.2,43.8,31.7S70.8,68.1,46.6,68.1c-1.6,0-3.3-0.1-4.9-0.2c-3.4-0.2-6.8,0.3-9.9,1.7L9.2,79.9
	C9.1,80,8.8,80,8.5,80z"/>
<path class="st1" d="M20.5,80c-0.5,0-0.9-0.1-1.3-0.5c-0.6-0.5-0.7-1.2-0.5-1.9l7.2-18.8c-7-5.5-10.8-12.8-10.8-20.3
	c0-16.7,18.7-30.3,41.8-30.3c23.1,0,41.8,13.6,41.8,30.3S79.9,68.8,56.9,68.8c-1.6,0-3.1-0.1-4.7-0.2c-3.3-0.2-6.5,0.3-9.5,1.6
	l-21.6,9.7C20.9,80,20.7,80,20.5,80z M56.8,11.9c-21,0-38.1,12-38.1,26.7c0,6.8,3.8,13.3,10.5,18.3c0.7,0.5,0.9,1.4,0.6,2.1l-6,15.9
	L41.1,67c3.4-1.6,7.3-2.3,11.3-1.9c1.5,0.1,2.9,0.2,4.3,0.2c21,0,38.1-12,38.1-26.7S77.9,11.9,56.8,11.9z"/>
<path class="st1" d="M129,89.4c-0.2,0-0.6,0-0.8-0.1l-18.5-8.4c-2.9-1.4-5.9-1.8-9-1.6c-4.1,0.3-8.3,0.1-12.3-0.6
	c-1-0.1-1.7-1.1-1.5-2.1c0.1-1,1.1-1.7,2.1-1.5c3.7,0.6,7.5,0.8,11.4,0.5c3.7-0.3,7.4,0.5,10.8,1.9l14.5,6.6l-5.1-13.6
	c-0.3-0.8,0-1.6,0.6-2.1c5.9-4.4,9.2-10.1,9.2-16c0-12.9-15.1-23.4-33.6-23.4c-0.1,0-0.1,0-0.2,0c1.4,3,2.1,6.2,2.1,9.5
	c0,13-11.3,24.3-28,28.6c2.7,2.4,6.2,4.4,10,5.9c0.9,0.3,1.4,1.5,1,2.4c-0.3,0.9-1.5,1.4-2.4,1c-5.6-2.1-10.3-5.3-13.7-9
	c-0.5-0.5-0.6-1.1-0.3-1.8c0.2-0.6,0.8-1.1,1.4-1.2C83.4,61,95,50.5,95,38.4c0-3.5-1-7-3-10.3c-0.3-0.6-0.3-1.2,0-1.8
	c0.3-0.6,0.9-0.9,1.5-1c1.1-0.1,2.3-0.1,3.3-0.1c20.5,0,37.2,12.1,37.2,27c0,6.8-3.4,13.1-9.6,18.1l6.3,16.5
	c0.2,0.7,0.1,1.5-0.5,1.9C129.9,89.1,129.5,89.4,129,89.4z"/>
<path class="st1" d="M61.6,39.4c0,2.6-2.1,4.6-4.7,4.6s-4.7-2-4.7-4.6s2.1-4.6,4.7-4.6S61.6,36.8,61.6,39.4z"/>
<path class="st1" d="M80.8,39.4c0,2.6-2.1,4.6-4.7,4.6c-2.6,0-4.7-2-4.7-4.6s2.1-4.6,4.7-4.6C78.7,34.8,80.8,36.8,80.8,39.4z"/>
<path class="st1" d="M99.9,52.6c0,2.6-2.1,4.6-4.7,4.6c-2.6,0-4.7-2-4.7-4.6c0-2.6,2.1-4.6,4.7-4.6C97.8,48,99.9,50.2,99.9,52.6z"/>
<path class="st1" d="M117.2,52.6c0,2.6-2.1,4.6-4.7,4.6c-2.6,0-4.7-2-4.7-4.6c0-2.6,2.1-4.6,4.7-4.6C115.2,48,117.2,50.2,117.2,52.6
	z"/>
<path class="st1" d="M42.2,39.4c0,2.6-2.1,4.6-4.7,4.6s-4.7-2-4.7-4.6s2.1-4.6,4.7-4.6S42.2,36.8,42.2,39.4z"/>
</svg>
