<?xml version="1.0" encoding="utf-8"?>
<!-- Generator: Adobe Illustrator 24.0.2, SVG Export Plug-In . SVG Version: 6.00 Build 0)  -->
<svg version="1.1" id="Layer_1" xmlns="http://www.w3.org/2000/svg" xmlns:xlink="http://www.w3.org/1999/xlink" x="0px" y="0px"
	 viewBox="0 0 136.8 94" style="enable-background:new 0 0 136.8 94;" xml:space="preserve">
<style type="text/css">
	.st0{opacity:0.5;fill:#E0E0E0;}
	.st1{fill:#D02418;}
</style>
<circle class="st0" cx="98.4" cy="52.5" r="32"/>
<path class="st1" d="M31.2,54.9c-5.7,0-10.3,4.6-10.3,10.2c0,5.6,4.6,10.2,10.3,10.2s10.3-4.6,10.3-10.2
	C41.5,59.5,36.9,54.9,31.2,54.9z M31.2,72.1c-4,0-7.2-3.2-7.2-7.1s3.2-7.1,7.2-7.1s7.2,3.2,7.2,7.1S35.2,72.1,31.2,72.1z"/>
<path class="st1" d="M31.2,60.9c-2.4,0-4.3,1.9-4.3,4.3c0,2.4,1.9,4.3,4.3,4.3c2.4,0,4.3-1.9,4.3-4.3C35.5,62.7,33.6,60.9,31.2,60.9
	z"/>
<path class="st1" d="M83.8,54.9c-5.7,0-10.3,4.6-10.3,10.2c0,5.6,4.6,10.2,10.3,10.2c5.7,0,10.3-4.6,10.3-10.2
	C94.1,59.5,89.5,54.9,83.8,54.9z M83.8,72.1c-4,0-7.2-3.2-7.2-7.1s3.2-7.1,7.2-7.1S91,61.1,91,65S87.8,72.1,83.8,72.1z"/>
<path class="st1" d="M83.8,60.9c-2.4,0-4.3,1.9-4.3,4.3c0,2.4,1.9,4.3,4.3,4.3c2.4,0,4.3-1.9,4.3-4.3C88.1,62.7,86.2,60.9,83.8,60.9
	z"/>
<path class="st1" d="M103.5,34.5L94.9,31c-1.1-2-5.3-9.1-8.6-12c-0.3-0.2-0.6-0.4-1-0.4H72.5v-8.5c0-0.9-0.7-1.6-1.6-1.6H8
	c-0.9,0-1.6,0.7-1.6,1.6v37.8c0,0.9,0.7,1.6,1.6,1.6h2.7v11.3c0,0.9,0.7,1.6,1.6,1.6h6.9c0.7,0,1.3-0.4,1.5-1
	c1.6-4.5,5.9-7.4,10.6-7.4c4.8,0,9,3,10.6,7.4c0.2,0.6,0.8,1,1.5,1h28.4c0.7,0,1.3-0.4,1.5-1c1.6-4.5,5.9-7.4,10.6-7.4s9,3,10.6,7.4
	c0.2,0.6,0.8,1,1.5,1h6.9c0.9,0,1.6-0.7,1.6-1.6V48.1V35.9C104.4,35.4,104.1,34.8,103.5,34.5z M72.5,21.8h12.1
	c3.3,3.2,7.7,11.1,7.7,11.2c0.2,0.3,0.4,0.6,0.8,0.7l8.2,3.4v9.6H72.5V21.8z M9.5,16.3h4v25.7h-4V16.3z M15.5,16.3h4.2v25.7h-4.2
	V16.3z M21.7,16.3h4.2v25.7h-4.2V16.3z M27.9,16.3h4.2v25.7h-4.2V16.3z M34.1,16.3h4.2v25.7h-4.2V16.3z M40.3,16.3h4.2v25.7h-4.2
	V16.3z M46.5,16.3h4.2v25.7h-4.2V16.3z M52.7,16.3h4.2v25.7h-4.2V16.3z M59,16.3h4.2v25.7H59V16.3z M65.2,16.3h4.2v25.7h-4.2V16.3z
	 M9.5,11.8h59.8V14H9.5V11.8z M9.5,46.4v-2.2h59.8v2.2H9.5z M101.3,59.3H97c-2.3-5.1-7.5-8.5-13.2-8.5c-5.7,0-10.9,3.4-13.2,8.5
	H44.3c-2.3-5.1-7.5-8.5-13.2-8.5s-10.9,3.4-13.2,8.5h-4.3v-9.6h57.1h30.4v9.6H101.3z"/>
<path class="st1" d="M82.6,24.4h-8.2v9.7h15.2L89.5,34C87.8,31.2,84.8,26.8,82.6,24.4z"/>
<path class="st1" d="M81.5,37.8h-4.9v1.8h4.9V37.8z"/>
</svg>
