<?xml version="1.0" encoding="utf-8"?>
<!-- Generator: Adobe Illustrator 24.0.2, SVG Export Plug-In . SVG Version: 6.00 Build 0)  -->
<svg version="1.1" id="Layer_1" xmlns="http://www.w3.org/2000/svg" xmlns:xlink="http://www.w3.org/1999/xlink" x="0px" y="0px"
	 viewBox="0 0 1440 72" style="enable-background:new 0 0 1440 72;" xml:space="preserve">
<style type="text/css">
	.st0{fill-rule:evenodd;clip-rule:evenodd;fill:#D02418;}
	.st1{fill:#D02418;}
	.st2{fill:#585E78;}
	.st3{fill:#D02817;}
	.st4{fill-rule:evenodd;clip-rule:evenodd;fill:#FFFFFF;}
</style>
<g id="Layer_1_2_">
	<g id="Layer_1_1_">
		<path class="st0" d="M34.5,62.5c0,0,19.9-18.8,19.9-33.1c0-5.3-2.1-10.3-5.8-14.1c-3.7-3.7-8.8-5.8-14.1-5.8s-10.3,2.1-14.1,5.8
			s-5.8,8.8-5.8,14.1C14.6,43.7,34.5,62.5,34.5,62.5z M34.5,39.3c2.6,0,5.2-1,7-2.9c1.9-1.9,2.9-4.4,2.9-7s-1-5.2-2.9-7
			c-1.9-1.9-4.4-2.9-7-2.9s-5.2,1-7,2.9c-1.9,1.9-2.9,4.4-2.9,7s1,5.2,2.9,7C29.3,38.3,31.9,39.3,34.5,39.3z"/>
	</g>
	<g id="Layer_2_1_">
		<path class="st1" d="M136,13.3H80c-1.2,0-2.2,1-2.2,2.2v43.1c0,1.2,1,2.2,2.2,2.2h56c1.2,0,2.2-1,2.2-2.2V15.4
			C138.2,14.2,137.2,13.3,136,13.3z M130.6,20.6l-21.3,16.5c-0.5,0.4-1.3,0.4-1.8,0L86.3,20.6c-0.1-0.1-0.1-0.1-0.2-0.2
			c0-0.1,0-0.2,0-0.3c0-0.1,0.1-0.2,0.2-0.2c0.1-0.1,0.2-0.1,0.3-0.1h43.7c0.1,0,0.2,0,0.3,0.1s0.1,0.1,0.2,0.2c0,0.1,0,0.2,0,0.3
			C130.7,20.5,130.7,20.6,130.6,20.6z"/>
	</g>
	<g id="Layer_3">
		<path class="st1" d="M188.3,47.3l4.5-4.4c0.6-0.6,1.4-1,2.2-1.2s1.7-0.1,2.5,0.2l5.4,2.2c0.8,0.3,1.5,0.9,2,1.6
			c0.5,0.7,0.7,1.5,0.8,2.4V58c0,0.6-0.1,1.1-0.4,1.7c-0.2,0.5-0.6,1-1,1.4s-0.9,0.7-1.5,0.9c-0.5,0.2-1.1,0.3-1.7,0.3
			C163,60,155.3,28,153.8,15.7c-0.1-0.6,0-1.2,0.2-1.8s0.5-1.1,0.9-1.6c0.4-0.4,0.9-0.8,1.5-1.1c0.6-0.2,1.2-0.4,1.8-0.4h9.6
			c0.9,0,1.7,0.3,2.4,0.7c0.7,0.5,1.3,1.2,1.6,1.9l2.2,5.4c0.3,0.8,0.4,1.6,0.2,2.4s-0.6,1.6-1.2,2.2l-4.5,4.4
			C168.4,27.9,171,45.2,188.3,47.3z"/>
	</g>
	<g id="Layer_4">
		<path class="st1" d="M270.2,22.8L256.8,9.4c-0.4-0.4-0.8-0.6-1.3-0.6h-19.1c-2.1,0-3.8,1.7-3.8,3.8v45.9c0,2.1,1.7,3.8,3.8,3.8
			H267c2.1,0,3.8-1.7,3.8-3.8V24.2C270.7,23.6,270.5,23.2,270.2,22.8z M255.4,13.5l10.7,10.7h-10.7L255.4,13.5L255.4,13.5z
			 M266.9,58.6h-30.6V12.7h15.3v11.5c0,2.1,1.7,3.8,3.8,3.8h11.5V58.6z"/>
		<path class="st1" d="M240.1,47.1H263v3.8h-22.9V47.1z"/>
		<path class="st1" d="M240.1,35.6H263v3.8h-22.9V35.6z"/>
	</g>
	<g id="Layer_5">
		<path class="st1" d="M323.4,24.8c0-0.4-0.2-0.8-0.5-1.1c-0.3-0.3-0.7-0.5-1.1-0.5s-0.8,0.2-1.1,0.5c-0.3,0.3-0.5,0.7-0.5,1.1v13.9
			l9.4,6.4c0.2,0.1,0.4,0.2,0.6,0.3s0.4,0.1,0.6,0c0.2,0,0.4-0.1,0.6-0.2c0.2-0.1,0.3-0.3,0.5-0.5c0.1-0.2,0.2-0.4,0.2-0.6
			c0-0.2,0-0.4,0-0.6c0-0.2-0.1-0.4-0.3-0.6c-0.1-0.2-0.3-0.3-0.5-0.4l-8-5.4L323.4,24.8z"/>
		<path class="st1" d="M346.1,28.1c-1,0.4-2,0.8-3,0.9c1.7,4.8,1.7,10,0,14.8s-4.9,8.9-9.2,11.6c-4.3,2.7-9.4,3.9-14.5,3.3
			c-5.1-0.6-9.8-2.8-13.4-6.4c-3.6-3.6-5.9-8.3-6.4-13.4c-0.6-5.1,0.6-10.1,3.3-14.5s6.8-7.6,11.6-9.2c4.8-1.7,10-1.7,14.8,0
			c0.2-1.1,0.5-2.1,0.9-3c-5.5-1.9-11.4-1.9-16.9,0.1c-5.5,1.9-10.1,5.7-13.2,10.6s-4.4,10.7-3.7,16.5c0.7,5.8,3.2,11.1,7.3,15.2
			c4.1,4.1,9.5,6.7,15.2,7.3c5.8,0.7,11.6-0.7,16.5-3.7c4.9-3.1,8.6-7.7,10.6-13.2S348,33.6,346.1,28.1z"/>
		<path class="st1" d="M322,17.8c-4.6,0-9,1.7-12.4,4.8s-5.5,7.3-6,11.8c-0.5,4.6,0.8,9.1,3.5,12.8c2.7,3.7,6.7,6.2,11.2,7.1
			l0.4-2.5c-2.3-0.4-4.6-1.4-6.5-2.7c-1.9-1.4-3.5-3.2-4.7-5.3s-1.8-4.4-2-6.8s0.3-4.8,1.2-7c0.9-2.2,2.3-4.2,4-5.8
			c1.8-1.6,3.9-2.8,6.1-3.5c2.3-0.7,4.7-0.9,7-0.5c2.4,0.4,4.6,1.3,6.6,2.6c-0.6-1.1-1-2.3-1.2-3.6C327,18.4,324.5,17.8,322,17.8z"
			/>
		<path class="st1" d="M341.1,25.2c4.4,0,8-3.6,8-8s-3.6-8-8-8s-8,3.6-8,8S336.7,25.2,341.1,25.2z"/>
	</g>
	<g id="Layer_6">
		<path class="st1" d="M395.7,51.4c0,0.1,0.1,0.1,0.2,0.1s0.1,0,0.2,0s0.1,0,0.2,0s0.1-0.1,0.2-0.1l6.9-8.8c0.3-0.3,0-0.8-0.4-0.8
			h-4.6v-9.1c0-0.3-0.2-0.5-0.5-0.5s-3.7,0-3.7,0s-0.5,0.2-0.5,0.5v9.1h-4.6c-0.4,0-0.6,0.5-0.4,0.8L395.7,51.4z M418.8,49.3h-3.7
			c-0.3,0-0.5,0.2-0.5,0.5v9.6h-37v-9.6c0-0.3-0.2-0.5-0.5-0.5h-3.7c-0.3,0-0.5,0.2-0.5,0.5v12.3c0,1.1,0.9,2,2,2h42.4
			c1.1,0,2-0.9,2-2V49.8C419.3,49.5,419.1,49.3,418.8,49.3z"/>
		<path class="st1" d="M385,26.3c-0.5-1-1.1-2.1-1.9-3.4c-0.8-1.2-1.5-2.4-2.4-3.5c-0.3,0.4-0.7,1-1.1,1.6s-0.8,1.3-1.2,1.9
			c-0.4,0.6-0.8,1.3-1.1,1.9c-0.3,0.6-0.6,1.1-0.8,1.5h-3.7c0.8-1.5,1.7-3,2.7-4.5s2.1-3.2,3.3-4.9L373,8.4h3.9l3.9,6.1l3.9-6.1h3.7
			l-5.7,8.5c1.3,1.8,2.5,3.5,3.5,5c1,1.6,1.9,3,2.6,4.3L385,26.3L385,26.3z M402.7,23.5v2.8h-11.3V8.4h3.3v15.1H402.7z M409.8,23.9
			c1.2,0,2-0.2,2.6-0.6c0.5-0.4,0.8-1,0.8-1.7c0-0.4-0.1-0.8-0.3-1.1c-0.2-0.3-0.4-0.6-0.8-0.8c-0.3-0.3-0.7-0.5-1.2-0.7
			s-1-0.4-1.7-0.6c-0.6-0.2-1.2-0.5-1.8-0.7c-0.6-0.3-1.1-0.6-1.5-1s-0.8-0.9-1.1-1.4c-0.3-0.6-0.4-1.2-0.4-2c0-1.6,0.6-2.9,1.7-3.8
			c1.1-0.9,2.6-1.4,4.6-1.4c1.1,0,2.1,0.1,3,0.4c0.9,0.2,1.6,0.5,2.1,0.8l-1,2.6c-0.6-0.3-1.2-0.6-1.9-0.7c-0.7-0.2-1.4-0.3-2.1-0.3
			c-0.9,0-1.6,0.2-2.1,0.5c-0.5,0.4-0.7,0.9-0.7,1.5c0,0.4,0.1,0.7,0.2,1c0.2,0.3,0.4,0.5,0.7,0.7c0.3,0.2,0.7,0.4,1.1,0.6
			c0.4,0.2,0.9,0.4,1.3,0.5c0.8,0.3,1.6,0.6,2.2,1c0.7,0.3,1.2,0.7,1.7,1.1s0.8,0.9,1.1,1.5c0.2,0.6,0.4,1.3,0.4,2.1
			c0,1.6-0.6,2.9-1.7,3.8s-2.8,1.3-5,1.3c-0.7,0-1.4-0.1-2-0.2s-1.1-0.2-1.6-0.3c-0.5-0.1-0.9-0.3-1.2-0.4c-0.3-0.2-0.6-0.3-0.8-0.4
			l1-2.7c0.5,0.3,1.1,0.5,1.9,0.8C407.7,23.8,408.7,23.9,409.8,23.9z"/>
	</g>
	<g id="Layer_7">
		<path class="st1" d="M468.7,50.9c0,0.1,0.1,0.1,0.2,0.1s0.1,0,0.2,0s0.1,0,0.2,0s0.1-0.1,0.2-0.1l6.9-8.8c0.3-0.3,0-0.8-0.4-0.8
			h-4.6v-9.1c0-0.3-0.2-0.5-0.5-0.5s-3.7,0-3.7,0s-0.5,0.2-0.5,0.5v9.1h-4.6c-0.4,0-0.6,0.5-0.4,0.8L468.7,50.9z M491.8,48.7h-3.7
			c-0.3,0-0.5,0.2-0.5,0.5v9.6h-37v-9.6c0-0.3-0.2-0.5-0.5-0.5h-3.7c-0.3,0-0.5,0.2-0.5,0.5v12.3c0,1.1,0.9,2,2,2h42.4
			c1.1,0,2-0.9,2-2V49.2C492.3,48.9,492.1,48.7,491.8,48.7z"/>
		<path class="st1" d="M450.5,7.7c2.6,0,4.6,0.5,6,1.4s2.1,2.4,2.1,4.4c0,1.1-0.2,2-0.6,2.7s-0.9,1.4-1.6,1.8
			c-0.7,0.5-1.6,0.8-2.6,1s-2.2,0.3-3.5,0.3h-1.6v6.3h-3.3V8.1c0.8-0.2,1.6-0.3,2.5-0.3C448.8,7.7,449.7,7.7,450.5,7.7z M450.7,10.5
			c-0.8,0-1.5,0-2,0.1v6.1h1.6c1.6,0,2.8-0.2,3.6-0.6c0.8-0.4,1.3-1.3,1.3-2.5c0-0.6-0.1-1.1-0.3-1.5c-0.2-0.4-0.5-0.7-0.9-0.9
			s-0.9-0.4-1.4-0.5C451.9,10.5,451.3,10.5,450.7,10.5z M464.7,23.1c0.2,0,0.4,0,0.7,0.1c0.3,0,0.7,0,1.3,0c2.2,0,3.8-0.5,4.9-1.7
			c1.1-1.1,1.6-2.7,1.6-4.7s-0.5-3.6-1.6-4.7s-2.7-1.6-4.9-1.6c-1,0-1.7,0-2.1,0.1v12.5C464.6,23.1,464.7,23.1,464.7,23.1z
			 M476.7,16.8c0,1.5-0.2,2.9-0.7,4.1c-0.5,1.1-1.2,2.1-2.1,2.9s-1.9,1.3-3.2,1.7c-1.2,0.4-2.6,0.5-4.1,0.5c-0.7,0-1.5,0-2.5-0.1
			c-0.9-0.1-1.8-0.2-2.6-0.4V8.1c0.8-0.2,1.7-0.3,2.6-0.4s1.8-0.1,2.5-0.1c1.5,0,2.9,0.2,4.1,0.5s2.3,0.9,3.2,1.7
			c0.9,0.7,1.6,1.7,2.1,2.8C476.4,13.9,476.7,15.2,476.7,16.8z M480.2,25.8V7.9h11.3v2.8h-8.1v4.6h7.1V18h-7.1v7.8H480.2z"/>
	</g>
	<g id="Layer_9">
		<path class="st1" d="M538.3,50.7c0,0.1,0.1,0.1,0.2,0.1c0.1,0,0.1,0,0.2,0s0.1,0,0.2,0c0.1,0,0.1-0.1,0.2-0.1l6.9-8.8
			c0.3-0.3,0-0.8-0.4-0.8H541V32c0-0.3-0.2-0.5-0.5-0.5s-3.7,0-3.7,0s-0.5,0.2-0.5,0.5v9.1h-4.6c-0.4,0-0.6,0.5-0.4,0.8L538.3,50.7z
			 M561.4,48.5h-3.7c-0.3,0-0.5,0.2-0.5,0.5v9.6h-37V49c0-0.3-0.2-0.5-0.5-0.5H516c-0.3,0-0.5,0.2-0.5,0.5v12.3c0,1.1,0.9,2,2,2
			h42.4c1.1,0,2-0.9,2-2V49C561.9,48.8,561.7,48.5,561.4,48.5z"/>
		<path class="st1" d="M516.3,22.9c0.2,0,0.4,0,0.7,0.1c0.3,0,0.7,0,1.3,0c2.2,0,3.8-0.5,4.9-1.7c1.1-1.1,1.6-2.7,1.6-4.7
			s-0.5-3.6-1.6-4.7s-2.7-1.6-4.9-1.6c-1,0-1.7,0-2.1,0.1L516.3,22.9L516.3,22.9z M528.2,16.6c0,1.5-0.2,2.9-0.7,4.1
			c-0.5,1.1-1.2,2.1-2.1,2.9c-0.9,0.8-1.9,1.3-3.2,1.7c-1.2,0.4-2.6,0.5-4.1,0.5c-0.7,0-1.5,0-2.5-0.1c-0.9-0.1-1.8-0.2-2.6-0.4V7.9
			c0.8-0.2,1.7-0.3,2.6-0.4c0.9-0.1,1.8-0.1,2.5-0.1c1.5,0,2.9,0.2,4.1,0.5c1.2,0.3,2.3,0.9,3.2,1.7c0.9,0.7,1.6,1.7,2.1,2.8
			C528,13.7,528.2,15,528.2,16.6z M534.4,16.6c0,1,0.1,1.9,0.4,2.7c0.2,0.8,0.6,1.5,1,2c0.5,0.6,1,1,1.7,1.3s1.4,0.5,2.2,0.5
			s1.5-0.2,2.2-0.5s1.2-0.7,1.7-1.3c0.5-0.6,0.8-1.2,1.1-2c0.2-0.8,0.4-1.7,0.4-2.7s-0.1-1.9-0.4-2.7c-0.2-0.8-0.6-1.5-1.1-2
			c-0.4-0.6-1-1-1.7-1.3s-1.4-0.5-2.2-0.5s-1.6,0.2-2.2,0.5c-0.7,0.3-1.2,0.7-1.7,1.3c-0.4,0.6-0.8,1.2-1,2
			C534.6,14.7,534.4,15.6,534.4,16.6z M548.4,16.6c0,1.5-0.2,2.9-0.7,4.1c-0.4,1.2-1.1,2.2-1.9,2.9c-0.8,0.8-1.7,1.4-2.7,1.8
			c-1.1,0.4-2.2,0.6-3.4,0.6s-2.3-0.2-3.4-0.6c-1.1-0.4-2-1-2.8-1.8s-1.4-1.8-1.9-2.9c-0.5-1.2-0.7-2.5-0.7-4.1s0.2-2.9,0.7-4
			c0.5-1.2,1.1-2.2,1.9-2.9c0.8-0.8,1.7-1.4,2.8-1.8c1-0.4,2.2-0.6,3.3-0.6c1.2,0,2.3,0.2,3.3,0.6c1,0.4,2,1,2.7,1.8
			c0.8,0.8,1.4,1.8,1.9,2.9C548.2,13.7,548.4,15.1,548.4,16.6z M559.9,26c-1.3,0-2.5-0.2-3.6-0.6s-2-1-2.7-1.8s-1.3-1.8-1.7-2.9
			c-0.4-1.2-0.6-2.5-0.6-4s0.2-2.8,0.7-4s1.1-2.1,1.9-2.9c0.8-0.8,1.7-1.4,2.8-1.8c1.1-0.4,2.2-0.6,3.4-0.6c0.7,0,1.4,0.1,2,0.2
			s1.1,0.2,1.6,0.4c0.4,0.1,0.8,0.3,1.1,0.4c0.3,0.2,0.5,0.3,0.6,0.3l-1,2.7c-0.4-0.3-1-0.5-1.8-0.7s-1.6-0.4-2.5-0.4
			c-0.8,0-1.5,0.1-2.2,0.4c-0.7,0.3-1.3,0.7-1.8,1.2s-0.9,1.2-1.1,2c-0.3,0.8-0.4,1.7-0.4,2.8c0,0.9,0.1,1.8,0.3,2.6
			c0.2,0.8,0.6,1.5,1,2.1s1,1,1.7,1.3s1.5,0.5,2.5,0.5c1.2,0,2.1-0.1,2.8-0.3c0.7-0.2,1.3-0.5,1.7-0.7l0.9,2.7
			c-0.2,0.1-0.5,0.3-0.9,0.4c-0.3,0.1-0.8,0.3-1.2,0.4c-0.5,0.1-1,0.2-1.6,0.3C561.3,25.9,560.6,26,559.9,26z"/>
	</g>
	<g id="Layer_8">
		<path class="st0" d="M638.7,35.5c0,7.1-2.8,13.9-7.8,18.9s-11.8,7.8-18.9,7.8c-7.1,0-13.9-2.8-18.9-7.8s-7.8-11.8-7.8-18.9
			s2.8-13.9,7.8-18.9s11.8-7.8,18.9-7.8c7.1,0,13.9,2.8,18.9,7.8S638.7,28.4,638.7,35.5z M625.5,25.4c-0.2-0.2-0.5-0.4-0.8-0.5
			s-0.6-0.2-1-0.2c-0.3,0-0.7,0.1-1,0.2s-0.6,0.3-0.8,0.6l-11.6,14.7l-7-7c-0.5-0.4-1.1-0.7-1.7-0.7c-0.6,0-1.3,0.3-1.7,0.7
			c-0.5,0.5-0.7,1.1-0.7,1.7c0,0.6,0.2,1.3,0.7,1.7l8.8,8.8c0.2,0.2,0.5,0.4,0.8,0.5s0.6,0.2,1,0.2c0.3,0,0.7-0.1,1-0.2
			c0.3-0.1,0.6-0.3,0.8-0.6l13.3-16.6c0.5-0.5,0.7-1.1,0.7-1.8C626.2,26.5,626,25.8,625.5,25.4L625.5,25.4z"/>
	</g>
	<g id="Layer_10">
		<path class="st2" d="M684.1,7.7c-15.4,0-28,12.5-28,28s12.5,28,28,28c15.4,0,28-12.5,28-28S699.5,7.7,684.1,7.7z M684.1,58.9
			c-12.8,0-23.2-10.4-23.2-23.2s10.4-23.2,23.2-23.2s23.2,10.4,23.2,23.2S696.9,58.9,684.1,58.9z"/>
		<circle class="st3" cx="684.1" cy="35.7" r="12.3"/>
	</g>
	<g id="Layer_11">
		<path class="st2" d="M767.1,29.3h-3c-0.6,0-1.3,0.3-1.6,0.8l-6.7,9.2l-6.7-9.2c-0.4-0.5-1-0.8-1.6-0.8h-3c-0.4,0-0.7,0.5-0.4,0.8
			l11.3,15.6c0.2,0.3,0.6,0.3,0.8,0l11.3-15.6C767.7,29.8,767.5,29.3,767.1,29.3z"/>
		<path class="st2" d="M755.8,7.7c-15.7,0-28.4,12.7-28.4,28.4s12.7,28.4,28.4,28.4s28.4-12.7,28.4-28.4S771.5,7.7,755.8,7.7z
			 M755.8,59.7c-13,0-23.6-10.6-23.6-23.6s10.6-23.6,23.6-23.6s23.6,10.6,23.6,23.6S768.8,59.7,755.8,59.7z"/>
	</g>
	<g id="Layer_12">
		<path class="st1" d="M832.3,36.5L854.6,10c0.4-0.4,0.1-1.1-0.5-1.1h-6.8c-0.4,0-0.8,0.2-1,0.5l-18.4,21.9l-18.4-22
			c-0.3-0.3-0.6-0.5-1-0.5h-6.8c-0.6,0-0.9,0.7-0.5,1.1l22.3,26.5L801.2,63c-0.1,0.1-0.1,0.2-0.2,0.3c0,0.1,0,0.3,0.1,0.4
			c0.1,0.1,0.1,0.2,0.3,0.3c0.1,0.1,0.2,0.1,0.4,0.1h6.8c0.4,0,0.8-0.2,1-0.5L828,41.7l18.4,21.9c0.3,0.3,0.6,0.5,1,0.5h6.8
			c0.6,0,0.9-0.7,0.5-1.1L832.3,36.5z"/>
	</g>
	<g id="Layer_13">
		<path class="st2" d="M899.5,47.3c0.1,0.1,0.1,0.1,0.2,0.2c0.1,0,0.2,0.1,0.3,0.1s0.2,0,0.3-0.1c0.1,0,0.2-0.1,0.2-0.2l9-11.4
			c0.3-0.4,0-1-0.5-1h-6V7.6c0-0.4-0.3-0.6-0.6-0.6h-4.8c-0.4,0-0.6,0.3-0.6,0.6v27.2h-6c-0.5,0-0.8,0.6-0.5,1L899.5,47.3z
			 M929.4,44.5h-4.8c-0.4,0-0.6,0.3-0.6,0.6v12.4h-48V45.1c0-0.4-0.3-0.6-0.6-0.6h-4.8c-0.4,0-0.6,0.3-0.6,0.6V61
			c0,1.4,1.2,2.6,2.6,2.6h55c1.4,0,2.6-1.2,2.6-2.6V45.1C930.1,44.8,929.8,44.5,929.4,44.5z"/>
	</g>
	<g id="Layer_14">
		<path class="st2" d="M997.7,10.7h-12V6.1c0-0.3-0.3-0.6-0.6-0.6h-4c-0.3,0-0.6,0.3-0.6,0.6v4.6h-18.3V6.1c0-0.3-0.3-0.6-0.6-0.6
			h-4c-0.3,0-0.6,0.3-0.6,0.6v4.6h-12c-1.3,0-2.3,1-2.3,2.3v47.4c0,1.3,1,2.3,2.3,2.3h52.5c1.3,0,2.3-1,2.3-2.3V13
			C1000,11.7,998.9,10.7,997.7,10.7z M994.8,57.5H948V30.4h46.8V57.5z M948,25.5v-9.7h9.1v3.4c0,0.3,0.3,0.6,0.6,0.6h4
			c0.3,0,0.6-0.3,0.6-0.6v-3.4h18.3v3.4c0,0.3,0.3,0.6,0.6,0.6h4c0.3,0,0.6-0.3,0.6-0.6v-3.4h9.1v9.7H948z"/>
	</g>
</g>
<g id="Layer_2_2_">
	<rect x="1007.7" y="0.2" class="st0" width="71.8" height="71.8"/>
	<g id="Layer_8_1_">
		<path class="st4" d="M1063,22.2c-0.3-0.3-0.6-0.6-1.2-0.6c-0.6-0.1-0.8-0.3-1.5-0.3c-0.4,0-1,0.1-1.5,0.3
			c-0.4,0.1-0.8,0.4-1.2,0.8l-16.5,21.1L1031,33.3c-0.6-0.6-1.6-1-2.4-1s-1.8,0.4-2.4,1s-1,1.6-1,2.4c0,0.8,0.3,1.8,1,2.4l12.6,12.6
			c0.3,0.3,0.6,0.6,1.2,0.6c0.4,0.1,0.8,0.3,1.5,0.3c0.4,0,1-0.1,1.5-0.3c0.4-0.1,0.8-0.4,1.2-0.8l19-23.8c0.6-0.6,1-1.6,1-2.5
			C1064,23.8,1063.8,22.7,1063,22.2L1063,22.2z"/>
	</g>
</g>
</svg>
