<?xml version="1.0" encoding="utf-8"?>
<!-- Generator: Adobe Illustrator 24.0.2, SVG Export Plug-In . SVG Version: 6.00 Build 0)  -->
<svg version="1.1" xmlns="http://www.w3.org/2000/svg" xmlns:xlink="http://www.w3.org/1999/xlink" x="0px" y="0px"
	 viewBox="0 0 576 72" style="enable-background:new 0 0 576 72;" xml:space="preserve">
<style type="text/css">
	.st0{fill:#D02418;}
	.st1{fill:#FFFFFF;}
	.st2{fill-rule:evenodd;clip-rule:evenodd;fill:#D02418;}
	.st3{fill-rule:evenodd;clip-rule:evenodd;fill:#585E78;}
</style>
<g id="Layer_1">
	<g>
		<g>
			<path class="st0" d="M179.1,68.5c-17.6,0-32-14.4-32-32s14.3-32.1,32-32.1s32,14.4,32,32S196.7,68.5,179.1,68.5z M179.1,8.4
				c-15.5,0-28,12.7-28,28s12.7,28,28,28s28-12.7,28-28S194.5,8.4,179.1,8.4z"/>
		</g>
	</g>
	<g>
		<g>
			<path class="st0" d="M183,42.6l2.8-2.8c0.4-0.4,0.8-0.6,1.4-0.8c0.6,0,1,0,1.6,0.2l3.4,1.4c0.6,0.2,1,0.6,1.2,1
				c0.4,0.4,0.4,1,0.4,1.4v6.1c0,0.4,0,0.8-0.2,1c-0.2,0.4-0.4,0.6-0.6,0.8c-0.2,0.2-0.6,0.4-1,0.6c-0.4,0.2-0.6,0.2-1,0.2
				c-23.6-1.2-28.5-21-29.2-28.5c0-0.4,0-0.8,0.2-1.2c0.2-0.4,0.4-0.6,0.6-1c0.2-0.2,0.6-0.6,0.8-0.6c0.4-0.2,0.8-0.2,1.2-0.2h6.1
				c0.6,0,1,0.2,1.4,0.4c0.4,0.2,0.8,0.8,1,1.2l1.4,3.4c0.2,0.4,0.2,1,0.2,1.6c-0.2,0.6-0.4,1-0.8,1.4l-2.8,2.8
				C170.7,30.8,172.2,41.4,183,42.6z"/>
		</g>
	</g>
	<g>
		<path class="st0" d="M17.3,4.4h37.3c3.6,0,6.3,2.7,6.3,6.2v51.9c0,3.6-2.7,6.3-6.3,6.3H17.3c-3.6,0-6.3-2.7-6.3-6.3V10.5
			C11.1,7.1,13.8,4.4,17.3,4.4z"/>
	</g>
	<g>
		<path class="st1" d="M19.4,12.7h33.2c1.1,0,2.1,0.9,2.1,2.1v4.1c0,1.3-1.1,2.1-2.1,2.1H19.4c-1.3,0-2.1-0.9-2.1-2.1v-4.1
			C17.3,13.4,18.2,12.7,19.4,12.7z"/>
	</g>
	<g>
		<path class="st1" d="M54.6,41.7v16.6c0,1.1-1.1,2.1-2.1,2.1h-4.1c-1.1,0-2.1-1.1-2.1-2.1V41.7c0-1.1,1.1-2.1,2.1-2.1h4.1
			C53.7,39.6,54.6,40.6,54.6,41.7z"/>
	</g>
	<g>
		<circle class="st1" cx="21.4" cy="31.3" r="4.1"/>
	</g>
	<g>
		<circle class="st1" cx="21.4" cy="43.7" r="4.1"/>
	</g>
	<g>
		<circle class="st1" cx="21.4" cy="56.3" r="4.1"/>
	</g>
	<g>
		<circle class="st1" cx="36" cy="31.3" r="4.1"/>
	</g>
	<g>
		<circle class="st1" cx="36" cy="43.7" r="4.1"/>
	</g>
	<g>
		<circle class="st1" cx="36" cy="56.3" r="4.1"/>
	</g>
	<g>
		<circle class="st1" cx="50.5" cy="31.3" r="4.1"/>
	</g>
	<g>
		<circle class="st1" cx="91.3" cy="15.3" r="5.8"/>
	</g>
	<g>
		<path class="st2" d="M91.3,34.6c0,0,11.7-11.1,11.7-19.5c0-3-1.3-6.1-3.4-8.3s-5.2-3.4-8.3-3.4S85.2,4.7,83,6.8
			c-2.2,2.1-3.4,5.2-3.4,8.3C79.4,23.5,91.3,34.6,91.3,34.6z M91.3,21.1c1.6,0,3-0.6,4.1-1.8c1-1.3,1.6-2.6,1.6-4.2s-0.6-3-1.6-4.2
			c-1-1-2.6-1.6-4.1-1.6s-3,0.6-4.1,1.6c-1.1,1.1-1.6,2.6-1.6,4.2s0.6,3,1.6,4.2C88.1,20.3,89.7,21.1,91.3,21.1z"/>
	</g>
	<g>
		<circle class="st1" cx="124.2" cy="44.4" r="5.8"/>
	</g>
	<g>
		<path class="st2" d="M124.2,63.7c0,0,11.7-11.1,11.7-19.5c0-3-1.3-6.1-3.4-8.3c-2.1-2.2-5.2-3.4-8.3-3.4c-3.1,0-6.1,1.3-8.3,3.4
			c-2.2,2.1-3.4,5.2-3.4,8.3C112.6,52.7,124.2,63.7,124.2,63.7z M124.2,50.3c1.6,0,3-0.6,4.1-1.8c1-1.3,1.6-2.6,1.6-4.1
			s-0.6-3-1.6-4.1c-1-1-2.6-1.8-4.1-1.8c-1.4,0-3,0.6-4.1,1.8c-1.1,1.3-1.6,2.6-1.6,4.1s0.6,3,1.6,4.1
			C121.3,49.6,122.7,50.3,124.2,50.3z"/>
	</g>
	<g>
		<rect x="107.8" y="55.1" transform="matrix(0.6946 -0.7194 0.7194 0.6946 -8.5008 95.957)" class="st0" width="2" height="5.8"/>
	</g>
	<g>
		<rect x="116.2" y="63" transform="matrix(0.6946 -0.7194 0.7194 0.6946 -11.6151 104.4257)" class="st0" width="2" height="5.8"/>
	</g>
	<g>
		<rect x="99.3" y="47.1" transform="matrix(0.6947 -0.7193 0.7193 0.6947 -5.2928 87.4403)" class="st0" width="2" height="5.8"/>
	</g>
	<g>
		<rect x="91.1" y="38.7" transform="matrix(0.6947 -0.7193 0.7193 0.6947 -1.8166 78.9267)" class="st0" width="2" height="5.8"/>
	</g>
</g>
<g id="Layer_2">
	<path class="st3" d="M252.1,68.6c0,0,24.3-22.8,24.3-40.2c0-6.4-2.6-12.5-7.1-17c-4.6-4.5-10.8-7.1-17.2-7.1
		c-6.5,0-12.6,2.5-17.2,7.1s-7.1,10.7-7.1,17C227.8,45.8,252.1,68.6,252.1,68.6z M252.1,40.5c3.2,0,6.3-1.3,8.6-3.5
		c2.3-2.3,3.6-5.3,3.6-8.5c0-3.2-1.3-6.3-3.6-8.5c-2.3-2.3-5.4-3.5-8.6-3.5c-3.2,0-6.3,1.3-8.6,3.5c-2.3,2.3-3.6,5.3-3.6,8.5
		c0,3.2,1.3,6.3,3.6,8.5S248.9,40.5,252.1,40.5z"/>
</g>
</svg>
