<?xml version="1.0" encoding="utf-8"?>
<!-- Generator: Adobe Illustrator 24.0.2, SVG Export Plug-In . SVG Version: 6.00 Build 0)  -->
<svg version="1.1" id="Layer_1" xmlns="http://www.w3.org/2000/svg" xmlns:xlink="http://www.w3.org/1999/xlink" x="0px" y="0px"
	 viewBox="0 0 110 94" style="enable-background:new 0 0 110 94;" xml:space="preserve">
<style type="text/css">
	.st0{fill:#E0E0E0;}
	.st1{fill:#D02418;}
</style>
<path class="st0" d="M37.8,80.22c20.88,0,37.8-16.75,37.8-37.41S58.68,5.4,37.8,5.4S0,22.15,0,42.81S16.92,80.22,37.8,80.22z"/>
<path class="st1" d="M21,3.91l15.3,4.65l8.8,21.68c-0.2,0.2-0.3,0.4-0.4,0.69L40.4,44c-0.1,0.4-0.1,0.89,0,1.29l12,29.1
	c-0.4,1.39-0.7,2.87-0.7,4.45c0,8.21,6.8,14.95,15.1,14.95s15.1-6.73,15.1-14.95c0-1.29-0.2-2.57-0.5-3.86l27.3-11.58
	c1-0.4,1.4-1.48,1-2.47c-0.4-0.99-1.5-1.39-2.5-0.99L80,71.61c-0.6-0.99-1.2-1.88-2-2.67l25.7-10.49c0.3-0.1,0.6-0.4,0.7-0.69
	c0.1-0.3,0.1-0.69,0-0.99L91.1,25c-0.3-0.69-1.1-0.99-1.8-0.69l-2.7,1.09L77.2,2.92c-0.1-0.3-0.4-0.59-0.7-0.69
	c-0.3-0.1-0.7-0.1-1,0l-24.4,10c-0.3,0.1-0.6,0.4-0.7,0.69c-0.1,0.3-0.1,0.69,0,0.99l9.4,22.47l-3.1,1.29c-0.7,0.3-1,1.09-0.7,1.78
	l10.3,24.64c-1.1,0-2.1,0.2-3.1,0.49L39.6,6.49c-0.2-0.49-0.7-0.89-1.2-1.09L22.2,0.45c-1-0.3-2.1,0.3-2.4,1.29
	C19.4,2.53,20,3.62,21,3.91z M53.4,14.01l6.8-2.77l2.6,6.24l8.4-3.46l-2.6-6.24L75.4,5l8.8,21.18l-21.9,9.01L53.4,14.01z
	 M66.8,67.75c0.3,0,0.6,0,0.9,0c1.2,0.1,2.3,0.4,3.3,0.79c0.1,0,0.2,0.1,0.3,0.1c1,0.49,2,1.09,2.8,1.78c0.9,0.79,1.7,1.68,2.3,2.67
	c0.7,1.09,1.1,2.28,1.4,3.56c0.2,0.79,0.2,1.48,0.2,2.28c0,6.14-5.1,11.18-11.3,11.18c-6.2,0-11.3-5.05-11.3-11.18
	c0-4.06,2.2-7.62,5.4-9.6c1.1-0.69,2.3-1.09,3.6-1.39C65.3,67.85,66.1,67.75,66.8,67.75z M58.9,39.55l9.5-3.86l3.7,8.81l11.2-4.55
	l-3.7-8.81l9.5-3.86l12.2,29.3L75.8,66.86c-1.9-1.39-4.1-2.38-6.6-2.77L58.9,39.55z M54.7,70.03l-4.4-10.59l5.3-3.27l3.9,9.7
	C57.6,66.86,56,68.35,54.7,70.03z M48.9,55.88l-4.6-11.28l3-9.11l6.9,17.12L48.9,55.88z"/>
</svg>
