<?xml version="1.0" encoding="utf-8"?>
<!-- Generator: Adobe Illustrator 24.0.2, SVG Export Plug-In . SVG Version: 6.00 Build 0)  -->
<svg version="1.1" id="Layer_1" xmlns="http://www.w3.org/2000/svg" xmlns:xlink="http://www.w3.org/1999/xlink" x="0px" y="0px"
	 viewBox="0 0 123 76" style="enable-background:new 0 0 123 76;" xml:space="preserve">
<style type="text/css">
	.st0{fill:#E0E0E0;}
	.st1{fill:#D02418;}
</style>
<path class="st0" d="M84.6,75.44c20.88,0,37.8-16.75,37.8-37.41c0-20.66-16.92-37.41-37.8-37.41c-20.88,0-37.8,16.75-37.8,37.41
	C46.8,58.69,63.72,75.44,84.6,75.44z"/>
<path class="st1" d="M24.8,49.81c-5.7,0-10.3,4.55-10.3,10.19c0,5.64,4.6,10.19,10.3,10.19S35.1,65.65,35.1,60
	C35.1,54.36,30.5,49.81,24.8,49.81z M24.8,67.03c-4,0-7.2-3.17-7.2-7.13c0-3.96,3.2-7.13,7.2-7.13S32,55.95,32,59.9
	C32,63.86,28.8,67.03,24.8,67.03z"/>
<path class="st1" d="M24.8,55.75c-2.4,0-4.3,1.88-4.3,4.26c0,2.38,1.9,4.26,4.3,4.26s4.3-1.88,4.3-4.26
	C29.1,57.63,27.2,55.75,24.8,55.75z"/>
<path class="st1" d="M77.4,49.81c-5.7,0-10.3,4.55-10.3,10.19c0,5.64,4.6,10.19,10.3,10.19S87.7,65.65,87.7,60
	C87.7,54.36,83.1,49.81,77.4,49.81z M77.4,67.03c-4,0-7.2-3.17-7.2-7.13c0-3.96,3.2-7.13,7.2-7.13s7.2,3.17,7.2,7.13
	C84.6,63.86,81.4,67.03,77.4,67.03z"/>
<path class="st1" d="M77.4,55.75c-2.4,0-4.3,1.88-4.3,4.26c0,2.38,1.9,4.26,4.3,4.26s4.3-1.88,4.3-4.26
	C81.7,57.63,79.8,55.75,77.4,55.75z"/>
<path class="st1" d="M97.1,29.42l-8.6-3.56c-1.1-1.98-5.3-9.11-8.6-11.98c-0.3-0.2-0.6-0.4-1-0.4H66.1V4.97
	c0-0.89-0.7-1.58-1.6-1.58H1.6C0.7,3.39,0,4.08,0,4.97v37.81c0,0.89,0.7,1.58,1.6,1.58h2.7v11.28c0,0.89,0.7,1.58,1.6,1.58h6.9
	c0.7,0,1.3-0.4,1.5-0.99c1.6-4.45,5.9-7.42,10.6-7.42c4.8,0,9,2.97,10.6,7.42c0.2,0.59,0.8,0.99,1.5,0.99h28.4
	c0.7,0,1.3-0.4,1.5-0.99c1.6-4.45,5.9-7.42,10.6-7.42s9,2.97,10.6,7.42c0.2,0.59,0.8,0.99,1.5,0.99h6.9c0.9,0,1.6-0.69,1.6-1.58
	V42.98V30.81C98,30.31,97.7,29.72,97.1,29.42z M66.1,16.65h12.1c3.3,3.17,7.7,11.09,7.7,11.18c0.2,0.3,0.4,0.59,0.8,0.69l8.2,3.37
	v9.6H66.1V16.65z M3.1,11.21h4v25.73h-4V11.21z M9.1,11.21h4.2v25.73H9.1V11.21z M15.3,11.21h4.2v25.73h-4.2V11.21z M21.5,11.21h4.2
	v25.73h-4.2V11.21z M27.7,11.21h4.2v25.73h-4.2V11.21z M33.9,11.21h4.2v25.73h-4.2V11.21z M40.1,11.21h4.2v25.73h-4.2V11.21z
	 M46.3,11.21h4.2v25.73h-4.2V11.21z M52.6,11.21h4.2v25.73h-4.2V11.21z M58.8,11.21H63v25.73h-4.2V11.21z M3.1,6.66h59.8v2.28H3.1
	V6.66z M3.1,41.3v-2.18h59.8v2.18H3.1z M94.9,54.16h-4.3c-2.3-5.15-7.5-8.51-13.2-8.51c-5.7,0-10.9,3.37-13.2,8.51H37.9
	c-2.3-5.15-7.5-8.51-13.2-8.51s-10.9,3.37-13.2,8.51H7.2v-9.6h57.1h30.4v9.6H94.9z"/>
<path class="st1" d="M76.2,19.32H68v9.7h15.2l-0.1-0.1C81.4,26.06,78.4,21.7,76.2,19.32z"/>
<path class="st1" d="M75.1,32.69h-4.9v1.78h4.9V32.69z"/>
</svg>
