<?xml version="1.0" encoding="utf-8"?>
<!-- Generator: Adobe Illustrator 24.0.2, SVG Export Plug-In . SVG Version: 6.00 Build 0)  -->
<svg version="1.1" id="Layer_1" xmlns="http://www.w3.org/2000/svg" xmlns:xlink="http://www.w3.org/1999/xlink" x="0px" y="0px"
	 viewBox="0 0 105 102" style="enable-background:new 0 0 105 102;" xml:space="preserve">
<style type="text/css">
	.st0{fill:#E0E0E0;}
	.st1{fill:#D02418;}
</style>
<path class="st0" d="M98.3,101.07H58.5c-3.4,0-6.1-2.67-6.1-6.04V41.98c0-3.37,2.7-6.04,6.1-6.04h39.8c3.4,0,6.1,2.67,6.1,6.04
	v53.05C104.4,98.3,101.7,101.07,98.3,101.07z"/>
<path class="st1" d="M78.9,90.98H34.3c-3.4,0-6.2-2.77-6.2-6.14V23.38c0-0.79,0.7-1.48,1.5-1.48c0.8,0,1.5,0.69,1.5,1.48v61.46
	c0,1.78,1.5,3.27,3.3,3.27H79c1.8,0,3.3-1.48,3.3-3.27V6.55c0-1.78-1.5-3.27-3.3-3.27H34.4c-1.8,0-3.3,1.48-3.3,3.27v5.54
	c0,0.79-0.7,1.48-1.5,1.48c-0.8,0-1.5-0.69-1.5-1.48V6.55c0-3.37,2.8-6.14,6.2-6.14h44.6c3.4,0,6.2,2.77,6.2,6.14v78.29
	C85.1,88.21,82.3,90.98,78.9,90.98z"/>
<path class="st1" d="M78.5,80.68H34.7c-0.8,0-1.5-0.69-1.5-1.48V50.3c0-0.79,0.7-1.48,1.5-1.48s1.5,0.69,1.5,1.48v27.42h40.9V13.48
	H38.2c-0.8,0-1.5-0.69-1.5-1.48c0-0.79,0.7-1.48,1.5-1.48h40.3c0.8,0,1.5,0.69,1.5,1.48V79.1C80,80.09,79.3,80.68,78.5,80.68z"/>
<path class="st1" d="M66.8,48.32H38.2c-0.8,0-1.4-0.59-1.5-1.39l-1.5-21.77c0-0.4,0.1-0.79,0.4-1.09c0.3-0.3,0.7-0.49,1.1-0.49h31.6
	c0.4,0,0.8,0.2,1.1,0.49c0.3,0.3,0.4,0.69,0.4,1.09l-1.5,21.77C68.2,47.73,67.6,48.32,66.8,48.32z M39.6,45.35h25.8l1.3-18.81H38.3
	L39.6,45.35z"/>
<path class="st1" d="M67.3,41.39H37.7c-0.8,0-1.5-0.69-1.5-1.48c0-0.79,0.7-1.48,1.5-1.48h29.6c0.8,0,1.5,0.69,1.5,1.48
	C68.8,40.7,68.1,41.39,67.3,41.39z"/>
<path class="st1" d="M67.8,33.47H37.1c-0.8,0-1.5-0.69-1.5-1.48s0.7-1.48,1.5-1.48h30.7c0.8,0,1.5,0.69,1.5,1.48
	S68.7,33.47,67.8,33.47z"/>
<path class="st1" d="M36.7,26.54c-0.8,0-1.4-0.59-1.5-1.39l-0.5-6.53h-6.8c-0.8,0-1.5-0.69-1.5-1.48c0-0.79,0.7-1.48,1.5-1.48h8.2
	c0.8,0,1.4,0.59,1.5,1.39l0.6,7.82c0.1,0.79-0.5,1.48-1.4,1.58C36.8,26.54,36.7,26.54,36.7,26.54z"/>
<path class="st1" d="M43.4,60.29c-2.6,0-4.8-2.18-4.8-4.75c0-2.57,2.2-4.75,4.8-4.75c2.6,0,4.8,2.18,4.8,4.75
	C48.2,58.12,46,60.29,43.4,60.29z M43.4,53.66c-1,0-1.8,0.79-1.8,1.78c0,0.99,0.8,1.78,1.8,1.78s1.8-0.79,1.8-1.78
	C45.2,54.55,44.4,53.66,43.4,53.66z"/>
<path class="st1" d="M60,60.29c-2.6,0-4.8-2.18-4.8-4.75c0-2.57,2.2-4.75,4.8-4.75c2.6,0,4.8,2.18,4.8,4.75
	C64.8,58.12,62.7,60.29,60,60.29z M60,53.66c-1,0-1.8,0.79-1.8,1.78c0,0.99,0.8,1.78,1.8,1.78s1.8-0.79,1.8-1.78
	C61.9,54.55,61.1,53.66,60,53.66z"/>
<path class="st1" d="M65.5,73.76H47.3c-3.3,0-6-2.67-6-5.94c0-3.27,2.7-5.94,6-5.94h18.2c3.3,0,6,2.67,6,5.94
	C71.5,71.08,68.8,73.76,65.5,73.76z M47.3,64.75c-1.7,0-3.1,1.39-3.1,3.07s1.4,3.07,3.1,3.07h18.2c1.7,0,3.1-1.39,3.1-3.07
	s-1.4-3.07-3.1-3.07H47.3z"/>
<path class="st0" d="M16.2,30.6H3.8c-2.1,0-3.8-1.68-3.8-3.76V6.35c0-2.08,1.7-3.76,3.8-3.76h12.4c2.1,0,3.8,1.68,3.8,3.76v20.49
	C20,28.82,18.3,30.6,16.2,30.6z"/>
</svg>
