<?xml version="1.0" encoding="utf-8"?>
<!-- Generator: Adobe Illustrator 24.0.2, SVG Export Plug-In . SVG Version: 6.00 Build 0)  -->
<svg version="1.1" id="Layer_1" xmlns="http://www.w3.org/2000/svg" xmlns:xlink="http://www.w3.org/1999/xlink" x="0px" y="0px"
	 viewBox="0 0 121 83" style="enable-background:new 0 0 121 83;" xml:space="preserve">
<style type="text/css">
	.st0{fill:#E0E0E0;}
	.st1{fill:#D02418;}
</style>
<path class="st0" d="M47,0.66L0,21.74v54.14c1,0,94.1,0,94.1,0V21.74L47,0.66z"/>
<path class="st1" d="M113.6,72.52V21.74L68.2,1.45l-0.3-0.1L22.3,21.74v50.77h-8v3.37h106.5v-3.37H113.6z M96.6,34.81v37.71H39.2
	V34.81H96.6z M35.9,31.44v40.98H25.6v-48.6l42.3-18.9l42.3,18.9v48.7H99.9V31.54h-64V31.44z"/>
<path class="st1" d="M114.6,79.25H78.3v3.37h36.3V79.25z"/>
<path class="st1" d="M74.6,79.25H62.9v3.37h11.7V79.25z"/>
<path class="st1" d="M67.5,53.81H45.3v17.82h22.2V53.81z M48.7,68.36V57.17h15.5v11.18H48.7z"/>
<path class="st1" d="M68.4,71.63h22.2V53.81H68.4V71.63z M87.2,57.17v11.18H71.7V57.17H87.2z"/>
<path class="st1" d="M79,36.19H68.4h-0.8H56.9v16.83h22.2V36.19H79z M67.9,43.32l3.8,3.76v-7.52h4v10.19H60.2V39.56h4v7.52
	L67.9,43.32z"/>
</svg>
