<?xml version="1.0" encoding="utf-8"?>
<!-- Generator: Adobe Illustrator 24.0.2, SVG Export Plug-In . SVG Version: 6.00 Build 0)  -->
<svg version="1.1" id="Layer_1" xmlns="http://www.w3.org/2000/svg" xmlns:xlink="http://www.w3.org/1999/xlink" x="0px" y="0px"
	 viewBox="0 0 152 95" style="enable-background:new 0 0 152 95;" xml:space="preserve">
<style type="text/css">
	.st0{fill:#E0E0E0;}
	.st1{fill:#D02418;}
</style>
<path class="st0" d="M102.7,60.35V34.12c0-3.37,2.7-6.04,6.1-6.04h36.8c3.4,0,6.1,2.67,6.1,6.04v26.23c0,3.37-2.7,6.04-6.1,6.04
	h-36.8C105.4,66.29,102.7,63.62,102.7,60.35z"/>
<path class="st1" d="M59.5,94c-3.7,0-6.8-2.97-6.8-6.73V57.38c0-0.69,0.5-1.39,1.2-1.48c0.7-0.2,1.4,0.2,1.8,0.79l0.4,0.69
	l10.1,20.98c0.1,0.2,0.2,0.4,0.2,0.69v8.31C66.2,91.04,63.2,94,59.5,94z M55.8,64.21v23.16c0,1.98,1.6,3.66,3.7,3.66
	s3.7-1.58,3.7-3.66v-7.92L55.8,64.21z"/>
<path class="st1" d="M74.4,94c-0.7,0-1.3-0.1-2-0.3c-1.8-0.59-3.3-1.88-4.2-3.56L53,58.67c-0.6-1.09-0.9-1.78-1.2-2.57
	c-0.3-0.89-0.6-1.78-0.6-2.87V25.12c0-2.18,0.9-4.26,2.4-5.74c1.6-1.48,3.7-2.28,5.9-2.28c4.3,0.1,7.8,3.86,7.8,8.22v5.84
	c0,0.69-0.4,1.29-1.1,1.48c-0.6,0.2-1.3,0-1.7-0.49l-3.1-3.96c-0.3-0.4-0.8-0.59-1.3-0.59s-1.1,0.2-1.5,0.49
	c-0.7,0.69-0.8,1.98,0,2.77l8.4,9.8c0.2,0.3,0.4,0.59,0.4,0.99v11.48c0,2.18,0.8,5.64,1.7,7.52l11.3,23.36
	c1.5,3.17,0.4,7.13-2.5,8.81C76.9,93.71,75.7,94,74.4,94z M59.5,20.37c-1.3,0-2.5,0.49-3.4,1.39c-1,0.89-1.5,2.18-1.5,3.46v28.11
	c0,0.69,0.1,1.19,0.4,1.78c0.2,0.59,0.5,1.29,1,2.08l0.1,0.2l15.2,31.47c0.4,0.89,1.3,1.58,2.2,1.88c1,0.3,2,0.2,3-0.4
	c1.6-0.99,2.2-3.07,1.3-4.85L66.5,62.13c-1.1-2.38-2-6.24-2-8.81V42.34l-8-9.4c-1.8-2.18-1.7-5.25,0.3-7.03
	c1-0.99,2.4-1.48,3.8-1.39c1.4,0.1,2.7,0.69,3.6,1.78l0.4,0.49v-1.39c0-2.77-2.1-5.05-4.8-5.15C59.6,20.37,59.5,20.37,59.5,20.37z"
	/>
<path class="st1" d="M59.5,17c-4.6,0-8.4-3.76-8.4-8.31c0-4.55,3.8-8.31,8.4-8.31s8.4,3.76,8.4,8.31C67.9,13.24,64.1,17,59.5,17z
	 M59.5,3.44c-2.9,0-5.3,2.38-5.3,5.25c0,2.87,2.4,5.25,5.3,5.25c2.9,0,5.3-2.38,5.3-5.25C64.7,5.72,62.4,3.44,59.5,3.44z"/>
<path class="st1" d="M81.4,47.19h-10c-0.5,0-3.1-0.1-4.5-1.78L56.4,33.13c-1.8-2.18-1.7-5.25,0.3-7.03c1-0.99,2.4-1.48,3.8-1.39
	c1.4,0.1,2.7,0.69,3.6,1.78l8.2,10.49c0.3,0.4,0.8,0.79,1.3,0.99h7.8c2.6,0,4.7,2.08,4.7,4.65C86.1,45.01,84,47.19,81.4,47.19z
	 M60.1,27.69c-0.5,0-1,0.2-1.3,0.49c-0.7,0.69-0.8,1.98,0,2.77l10.5,12.37c0.4,0.49,1.4,0.69,2,0.69h10c0.9,0,1.6-0.69,1.6-1.58
	s-0.7-1.58-1.6-1.58h-8.1c-0.2,0-0.3,0-0.5-0.1c-1.2-0.4-2.2-1.19-3-2.08l-8.1-10.39c-0.3-0.4-0.8-0.59-1.3-0.59
	C60.2,27.69,60.2,27.69,60.1,27.69z"/>
<path class="st1" d="M99.7,94c-3.2,0-5.7-2.57-5.7-5.64c0-3.17,2.6-5.64,5.7-5.64c3.2,0,5.7,2.57,5.7,5.64
	C105.5,91.53,102.9,94,99.7,94z M99.7,85.79c-1.4,0-2.6,1.19-2.6,2.57c0,1.39,1.2,2.57,2.6,2.57c1.4,0,2.6-1.19,2.6-2.57
	C102.4,86.98,101.2,85.79,99.7,85.79z"/>
<path class="st1" d="M126.1,94c-3.2,0-5.7-2.57-5.7-5.64c0-3.17,2.6-5.64,5.7-5.64c3.2,0,5.7,2.57,5.7,5.64
	C131.9,91.53,129.3,94,126.1,94z M126.1,85.79c-1.4,0-2.6,1.19-2.6,2.57c0,1.39,1.2,2.57,2.6,2.57s2.6-1.19,2.6-2.57
	C128.7,86.98,127.6,85.79,126.1,85.79z"/>
<path class="st1" d="M128.7,86.68c-0.9,0-1.6-0.69-1.6-1.58V73.42c0-0.89,0.7-1.58,1.6-1.58c0.9,0,1.6,0.69,1.6,1.58V85.1
	C130.3,85.99,129.6,86.68,128.7,86.68z"/>
<path class="st1" d="M122,89.95h-18c-0.9,0-1.6-0.69-1.6-1.58c0-0.89,0.7-1.58,1.6-1.58h18c0.9,0,1.6,0.69,1.6,1.58
	C123.5,89.25,122.8,89.95,122,89.95z"/>
<path class="st1" d="M133.4,75h-43c-0.8,0-1.5-0.59-1.6-1.39l-2.1-24.35c0-0.4,0.1-0.79,0.4-1.19c0.3-0.3,0.7-0.49,1.1-0.49
	l46.9-2.28c0.4,0,0.9,0.1,1.2,0.49c0.3,0.3,0.5,0.79,0.4,1.19l-1.8,26.62C134.9,74.41,134.2,75,133.4,75z M91.9,71.93H132l1.6-23.46
	l-43.5,2.18L91.9,71.93z"/>
<path class="st1" d="M88.4,50.65c-0.3,0-0.6-0.1-0.9-0.3l-5.6-3.86c-0.7-0.49-0.9-1.48-0.4-2.18c0.5-0.69,1.5-0.89,2.2-0.4l5.6,3.86
	c0.7,0.49,0.9,1.48,0.4,2.18C89.3,50.46,88.8,50.65,88.4,50.65z"/>
<path class="st1" d="M109.1,89.95c-0.9,0-1.6-0.69-1.6-1.58V73.52c0-0.89,0.7-1.58,1.6-1.58s1.6,0.69,1.6,1.58v14.85
	C110.6,89.25,109.9,89.95,109.1,89.95z"/>
<path class="st1" d="M133.8,66.49H89.9c-0.9,0-1.6-0.69-1.6-1.58c0-0.89,0.7-1.58,1.6-1.58h43.9c0.9,0,1.6,0.69,1.6,1.58
	C135.4,65.8,134.7,66.49,133.8,66.49z"/>
<path class="st1" d="M89.1,57.68c-0.8,0-1.5-0.69-1.6-1.48c0-0.89,0.7-1.58,1.5-1.58l45.4-1.29c0.8,0,1.6,0.69,1.6,1.48
	c0,0.89-0.7,1.58-1.5,1.58L89.1,57.68z"/>
<path class="st1" d="M103.9,75c-0.9,0-1.6-0.69-1.6-1.58V48.28c0-0.89,0.7-1.58,1.6-1.58s1.6,0.69,1.6,1.58v25.14
	C105.5,74.31,104.8,75,103.9,75z"/>
<path class="st1" d="M119.5,75c-0.9,0-1.6-0.79-1.6-1.58l1.3-26.03c0-0.89,0.8-1.48,1.6-1.48c0.9,0,1.5,0.79,1.5,1.58L121,73.42
	C121,74.41,120.3,75,119.5,75z"/>
<path class="st1" d="M139.9,94H46c-0.9,0-1.6-0.69-1.6-1.58c0-0.89,0.7-1.58,1.6-1.58h93.9c0.9,0,1.6,0.69,1.6,1.58
	C141.5,93.31,140.7,94,139.9,94z"/>
<path class="st0" d="M0,53.33v-8.12c0-2.08,1.7-3.76,3.8-3.76h14.8c2.1,0,3.8,1.68,3.8,3.76v8.12c0,2.08-1.7,3.76-3.8,3.76H3.8
	C1.7,57.19,0,55.4,0,53.33z"/>
</svg>
