<?xml version="1.0" encoding="utf-8"?>
<!-- Generator: Adobe Illustrator 24.0.2, SVG Export Plug-In . SVG Version: 6.00 Build 0)  -->
<svg version="1.1" id="Layer_1" xmlns="http://www.w3.org/2000/svg" xmlns:xlink="http://www.w3.org/1999/xlink" x="0px" y="0px"
	 viewBox="0 0 115 75" style="enable-background:new 0 0 115 75;" xml:space="preserve">
<style type="text/css">
	.st0{fill:#E0E0E0;}
	.st1{fill:#D02418;}
</style>
<path class="st0" d="M5,66.64c-0.4,0-0.8-0.2-1.2-0.49c-0.5-0.49-0.7-1.19-0.4-1.78L10,47.14C3.5,41.99,0,35.36,0,28.43
	C0,13.09,17.2,0.62,38.4,0.62s38.4,12.47,38.4,27.81S59.6,56.24,38.4,56.24c-1.4,0-2.9-0.1-4.3-0.2c-3-0.2-6,0.3-8.7,1.48L5.6,66.54
	C5.5,66.64,5.3,66.64,5,66.64z"/>
<path class="st1" d="M15.5,66.64c-0.4,0-0.8-0.1-1.1-0.4c-0.5-0.4-0.6-1.09-0.4-1.68l6.3-16.43c-6.1-4.85-9.5-11.18-9.5-17.82
	c0-14.65,16.4-26.53,36.6-26.53C67.6,3.79,84,15.66,84,30.31S67.6,56.84,47.4,56.84c-1.4,0-2.7-0.1-4.1-0.2
	c-2.9-0.2-5.7,0.3-8.3,1.39l-18.9,8.51C15.9,66.64,15.7,66.64,15.5,66.64z M47.3,6.95c-18.4,0-33.4,10.49-33.4,23.36
	c0,5.94,3.3,11.68,9.2,16.03c0.6,0.4,0.8,1.19,0.5,1.88l-5.3,13.96l15.3-6.93c3-1.39,6.4-1.98,9.9-1.68c1.3,0.1,2.5,0.2,3.8,0.2
	c18.4,0,33.4-10.49,33.4-23.36S65.8,6.95,47.3,6.95z"/>
<path class="st1" d="M110.6,74.85c-0.2,0-0.5,0-0.7-0.1l-16.2-7.32c-2.5-1.19-5.2-1.58-7.9-1.39c-3.6,0.3-7.3,0.1-10.8-0.49
	c-0.9-0.1-1.5-0.99-1.3-1.88c0.1-0.89,1-1.48,1.8-1.29c3.2,0.49,6.6,0.69,10,0.4c3.2-0.3,6.5,0.4,9.5,1.68l12.7,5.74l-4.5-11.88
	c-0.3-0.69,0-1.39,0.5-1.88c5.2-3.86,8.1-8.81,8.1-14.05c0-11.28-13.2-20.49-29.4-20.49c-0.1,0-0.1,0-0.2,0
	c1.2,2.67,1.8,5.44,1.8,8.31c0,11.38-9.9,21.28-24.5,25.04c2.4,2.08,5.4,3.86,8.8,5.15c0.8,0.3,1.2,1.29,0.9,2.08
	c-0.3,0.79-1.3,1.19-2.1,0.89c-4.9-1.88-9-4.65-12-7.92c-0.4-0.4-0.5-0.99-0.3-1.58c0.2-0.49,0.7-0.99,1.2-1.09
	c14.6-2.77,24.8-11.98,24.8-22.57c0-3.07-0.9-6.14-2.6-9.01c-0.3-0.49-0.3-1.09,0-1.58c0.3-0.49,0.8-0.79,1.3-0.89
	c1-0.1,2-0.1,2.9-0.1c18,0,32.6,10.59,32.6,23.66c0,5.94-3,11.48-8.4,15.84l5.5,14.45c0.2,0.59,0.1,1.29-0.4,1.68
	C111.4,74.65,111,74.85,110.6,74.85z"/>
<path class="st1" d="M51.5,31.1c0,2.28-1.8,4.06-4.1,4.06c-2.3,0-4.1-1.78-4.1-4.06s1.8-4.06,4.1-4.06
	C49.7,27.04,51.5,28.83,51.5,31.1z"/>
<path class="st1" d="M68.4,31.1c0,2.28-1.8,4.06-4.1,4.06c-2.3,0-4.1-1.78-4.1-4.06s1.8-4.06,4.1-4.06
	C66.5,27.04,68.4,28.83,68.4,31.1z"/>
<path class="st1" d="M85.1,42.68c0,2.28-1.8,4.06-4.1,4.06c-2.3,0-4.1-1.78-4.1-4.06c0-2.28,1.8-4.06,4.1-4.06
	C83.3,38.63,85.1,40.51,85.1,42.68z"/>
<path class="st1" d="M100.3,42.68c0,2.28-1.8,4.06-4.1,4.06c-2.3,0-4.1-1.78-4.1-4.06c0-2.28,1.8-4.06,4.1-4.06
	C98.5,38.63,100.3,40.51,100.3,42.68z"/>
<path class="st1" d="M34.5,31.1c0,2.28-1.8,4.06-4.1,4.06s-4.1-1.78-4.1-4.06s1.8-4.06,4.1-4.06S34.5,28.83,34.5,31.1z"/>
</svg>
