<?xml version="1.0" encoding="utf-8"?>
<!-- Generator: Adobe Illustrator 24.0.2, SVG Export Plug-In . SVG Version: 6.00 Build 0)  -->
<svg version="1.1" xmlns="http://www.w3.org/2000/svg" xmlns:xlink="http://www.w3.org/1999/xlink" x="0px" y="0px"
	 viewBox="0 0 520 391" style="enable-background:new 0 0 520 391;" xml:space="preserve">
<style type="text/css">
	.st0{fill:url(#SVGID_1_);}
	.st1{clip-path:url(#SVGID_3_);}
	.st2{fill:#BECDD4;}
	.st3{fill-rule:evenodd;clip-rule:evenodd;fill:#D2D2D2;}
	.st4{fill:#FEBFBF;}
	.st5{fill:url(#SVGID_4_);}
	.st6{fill:#DF314A;}
	.st7{fill:#5C6467;}
	.st8{fill:#7282B5;}
	.st9{fill:#E8D0C8;}
	.st10{fill:#A0ABCD;}
	.st11{fill:#DEDEDE;}
	.st12{fill:#FFADB7;}
	.st13{fill:url(#SVGID_5_);}
	.st14{fill:#754554;}
	.st15{fill:#FCF5E8;}
	.st16{fill:#BF2A40;}
	.st17{fill:url(#SVGID_6_);}
	.st18{fill:#A25900;}
	.st19{fill:#3B4549;}
	.st20{fill:#CE7400;}
	.st21{fill:#EDA600;}
	.st22{fill:#FECB4C;}
	.st23{fill:#FFC536;}
	.st24{fill:#ED9600;}
	.st25{fill:url(#SVGID_7_);}
	.st26{fill:#FA9698;}
	.st27{fill:#FEC7C6;}
	.st28{fill:#C99A6B;}
	.st29{fill:#AE835B;}
	.st30{fill:#87623F;}
	.st31{fill:#9C754E;}
	.st32{fill:#54493E;}
	.st33{fill:#D1A986;}
	.st34{fill:#E8B687;}
</style>
<g id="Layer_1">
	
		<linearGradient id="SVGID_1_" gradientUnits="userSpaceOnUse" x1="502" y1="268.5001" x2="-1.289345e-05" y2="268.5001" gradientTransform="matrix(1 0 0 -1 0 536)">
		<stop  offset="1.040000e-02" style="stop-color:#F1F1F1;stop-opacity:0"/>
		<stop  offset="1" style="stop-color:#F1F1F1"/>
	</linearGradient>
	<path class="st0" d="M73,179.9c97.7-48.1,256.6-47.8,355,0.5c98.3,48.4,98.8,126.6,1.1,174.7c-97.7,48.1-256.6,47.8-355-0.5
		C-24.3,306.2-24.8,228,73,179.9z"/>
</g>
<g id="Layer_2">
	<g>
		<defs>
			<rect id="SVGID_2_" x="104.5" y="11.8" width="268" height="347"/>
		</defs>
		<clipPath id="SVGID_3_">
			<use xlink:href="#SVGID_2_"  style="overflow:visible;"/>
		</clipPath>
		<g class="st1">
			<g>
				<path class="st2" d="M354.3,306.1l-85.8-49.5l-5.4,3.2l5.4-3.1l-16.5-9.6l-73.3,42.3l16.5,9.6l85.8,49.5l24.1,10.5l7.9-4.5
					l-18.2-14l-19.9-11.4l45.7-26.3l19.9,11.4l24.1,10.5l7.9-4.5L354.3,306.1z M236.4,306.7L209,290.9l45.7-26.4l27.4,15.8
					L236.4,306.7z"/>
			</g>
			<g>
				<path class="st3" d="M180.7,215.8c-17.3-10-45.5-10-63,0.1c-17.5,10.1-17.6,26.4-0.2,36.4c1.8,1,3.7,2,5.7,2.8
					c6.5,9.6,22.7,16.4,41.7,16.3c24.6-0.1,44.5-11.7,44.4-25.9c0-8.6-7.4-16.2-18.7-20.8C188.5,221.4,185.1,218.4,180.7,215.8z"/>
			</g>
			<path class="st4" d="M188.9,94.5c-0.7,1.2-1.8,2.3-3,3.1c-1.2,0.8-2.6,1.2-4.1,1.3h-0.2c-0.6,0.1-1.2,0.1-1.9,0
				c-2.8-0.3-3.2-1.4-3.6-2.9c-0.5-1.7-9.3-38.6-2.1-40.7c1.1,0,2.3,0.4,3.2,1c1,0.6,1.7,1.5,2.2,2.5c1.9,5.8,3.4,11.7,4.6,17.6
				c1,4.3,1.7,8.2,2.1,9.8c0.5,2.7,1.3,5.3,2.5,7.8L188.9,94.5z"/>
			
				<linearGradient id="SVGID_4_" gradientUnits="userSpaceOnUse" x1="186.7406" y1="445.9099" x2="215.9437" y2="408.8967" gradientTransform="matrix(1 0 0 -1 0 536)">
				<stop  offset="0.12" style="stop-color:#FCA4B5"/>
				<stop  offset="0.99" style="stop-color:#FFADB7"/>
			</linearGradient>
			<path class="st5" d="M195.7,120.7c-0.1,0.4-0.2,0.8-0.1,1.2c0-0.1-0.9-2.6-5.9-6.7c-5-4.1-9.3-11.2-9.9-13.6v-2.7
				c-2.8-0.3-3.2-1.4-3.6-2.9c-0.5-1.7-9.3-38.6-2.1-40.7c1.1,0,2.3,0.4,3.2,1c1,0.6,1.7,1.5,2.2,2.5c1.9,5.8,3.4,11.7,4.6,17.6
				c-0.2,0.9-4.4,2.3-4.4,2.3s0.8,13,0.8,14c0,0.9,2.1,3.2,2.1,3.2c-0.3,0.4-0.6,0.9-0.8,1.4c-0.2,0.5-0.2,1-0.1,1.6
				c0,0.5,0.1,1,0.3,1.4c1.1,2.7,7.5,12,9.6,15.1c1.2,1.8,2.7,3.4,4.6,4.6L195.7,120.7z"/>
			<path class="st6" d="M184.1,75.5c-0.8,0.6-1.8,1-2.8,1.2c-1,0.2-2,0.2-3,0c-2.6-0.9-9.3-24.2-9.3-24.2s0.6-1.2,4.6-0.2
				c1.6,0.5,3,1.4,4.1,2.6c1.1,1.2,1.9,2.6,2.3,4.2C180.6,61,184.1,75.5,184.1,75.5z"/>
			<path class="st7" d="M178.5,236.4c2.2,1,4.4,2.1,6.5,3.4c2.9,2.3,5.6,4.8,8.2,7.5c0.4,0.9,2.6,2.6,2.6,4.5c-0.1,1-0.7,2-1.5,2.7
				c-0.8,0.7-1.8,1.1-2.9,1.1c-3.9-0.5-7.7-2.1-10.8-4.6c-1.4-1.6-2.8-3-4.4-4.4c-0.5-0.1-0.5,0.1-1.6,0.3c-1.1,0.2-5.6-1.9-6.3-3.1
				c-0.7-1.3-1.7-6.3-1-7.8C168,234.5,178.5,236.4,178.5,236.4z"/>
			<path class="st4" d="M179.1,234.9c2,1.9,3.9,4,5.6,6.3c0.5,1.2-1.9,2.3-4.9,2.4c-3.1,0.1-7.1-3.1-7.1-3.1s-3.4-4.8-1.9-7.3
				C172.3,230.6,179.1,234.9,179.1,234.9z"/>
			<path class="st8" d="M180.5,133.3c0,0,1.1-0.4,3.2,17.7c1.4,11.3,1.9,22.7,1.4,34.1c-0.4,5.6-3.4,48.6-3.4,50.8
				c0,2.2-4.8,3.4-7.7,3.2c-2.9-0.2-5.5-2.8-5.6-4.3c-0.1-1.5-3.3-38.1-1-50.3c0.6-3.5-9.1-28.3-9.1-28.3s-2-18.5-0.4-22.5
				C159.5,129.9,180.5,133.3,180.5,133.3z"/>
			<g>
				<path class="st9" d="M174,239.3h-0.1c-2.9-0.2-5.6-2.8-5.6-4.3c0-1.5-3.4-38.1-1-50.3c0.6-3.5-9.1-28.4-9.1-28.4s0-0.8-0.2-2.1
					l9.5-2c0,0-1.9,3.4,0.1,10.1c2,6.7,2.2,20.3,2.5,22.3c0.3,2-2.3,2.7-1.6,17.4C169.2,214,169,232.3,174,239.3z"/>
			</g>
			<path class="st7" d="M134.9,224.2c0,0,3.6,5.2,4.1,6.1c0.4,0.9,5.6,9.3,5.7,10.4c0.1,0.5,0.1,1.1-0.1,1.6c-0.2,0.5-0.4,1-0.8,1.3
				c-0.9,0.6-1.9,1.1-2.9,1.3c-1,0.2-2.1,0.3-3.2,0.1c-2.7-0.8-5.2-2.3-7.3-4.3c-1.6-2.2-2.9-4.5-3.8-7c-1-1.1-1.9-2.3-2.7-3.6
				c-1-1.3-1.8-2.8-2.2-4.4c-0.1-1.7-0.3-2.8,1.3-4.1C124.5,220.3,134.9,224.2,134.9,224.2z"/>
			<path class="st4" d="M135,222.9c0.9,2.2,1.6,4.5,2.3,6.8c0,1.1-2.5,2.1-5,1.9c-2.4-0.2-3.4-2.6-4.1-3.3c-0.7-0.7-3.9-5.9-3.1-7.5
				C125.8,219.3,135,222.9,135,222.9z"/>
			<path class="st8" d="M168.1,135.9c0,0,0.7,7.9,0.8,11c0.2,3.1,0.3,7.3,0.3,7.3l-5.7,7.3c0,0-3.5,3.2-8.9,29.8
				c-4.3,8.5-18.2,33.2-18.2,33.2s-3.9,4.1-8.6,1.9c-1.3-0.5-2.4-1.3-3.4-2.3c-1-1-1.7-2.2-2.1-3.5c0-1.9,9-23.9,10.2-27
				c1.7-3.8,3.6-7.4,5.7-11c0,0,0-11.8-0.3-15.7c-0.7-7.2-6.9-25.1-4.8-28.7C135.3,134.5,168.1,135.9,168.1,135.9z"/>
			<path class="st10" d="M124.6,222.9l-0.8-0.2c6.8-23.1,11.9-29.8,14.9-33.8c0.9-1,1.6-2.2,2.2-3.4c3.9-10-1.1-28.2-2.1-31.7
				c-1.5-4.5-1.9-9.3-1.3-14l0.8,0.2c-0.6,4.6-0.1,9.2,1.3,13.6c1,3.6,6,22,2.1,32.3c-0.6,1.4-1.4,2.6-2.3,3.7
				C136.3,193.3,131.3,199.9,124.6,222.9z"/>
			<g>
				<path class="st9" d="M140.1,184.2c-4.3,4.6-8.4,15.6-11.5,23.3c-2.6,6.3-4.7,11-4.9,15.6c-0.7-0.7-1.2-1.6-1.4-2.6
					c0-1.9,9-23.9,10.2-27.1c1.7-3.7,3.6-7.4,5.7-10.9c0,0,0-11.8-0.3-15.7c-0.7-7.2-6.9-25.1-4.8-28.7c0.3-0.5,1.3-0.9,2.9-1.2
					c0,0.1,0,0.2,0,0.3s-1.6,0.7,0.8,11C139.3,158.4,142.4,175.3,140.1,184.2z"/>
			</g>
			<path class="st6" d="M131.2,137.4c3.7,3.7,8.4,6,13.5,6.7c17,1.7,35-6.4,37.1-9c0,0-2-17.5-2-25.6c0-8.1-0.5-20.7,0-28.9
				c0.5-8.2,0.8-17.8-4.7-26.1c-3.3-5-14.1-0.4-17.4-0.8c-3.3-0.4-7.7-3.1-12.4,0.7c-4.6,3.8-13.6,7.2-15.5,12.5
				c-2.2,6.2-1.8,14.3,2.4,32.6C135.1,112,134.7,125,131.2,137.4z"/>
			<g>
				<path class="st11" d="M175.4,131.9c0,0,4.7,4.4,2.6,3.7l-4.8-1c-2.1-0.8-5.3,1.3-21.3-4.1c-4.7-2-9.3-4.2-13.7-6.8
					c0,0-2.9,11.5-3.5,16.6c-1.3-0.8-2.4-1.8-3.5-2.9c3.6-12.3,4-25.4,1.2-38c-0.5-2.3-1.1-4.4-1.5-6.3c3.9-7.2,7.8-16.6,12.7-16.6
					c0,0,3.9,17.1,2.2,27.2c-1.7,10-3.7,10.3-3.7,10.3l18.1,10.4L175.4,131.9z"/>
			</g>
			<path class="st12" d="M165.6,55.2c0,3.3,0.8,4.7,0,5.9c-0.8,1.2-6.5,2.3-9,1.3c-0.9-0.3-1.6-0.7-2.3-1c-4.8-2.4-5.8-4.5-6.4-5.6
				c-0.2-0.3-0.3-0.7-0.3-1c0-0.4,0.1-0.7,0.3-1c0,0,3.6-4.7,3.2-8.8c-0.1-1.1-0.2-3.2-0.3-5.3c-0.1-2.7-0.2-5.3-0.2-5.3
				s2.2-4.3,4.2-4.1c2,0.2,11.5,10.4,11.5,10.4s-0.3,4.1-0.5,8.1c-0.1,2.2-0.2,4.5-0.3,5.9C165.6,54.8,165.6,55,165.6,55.2z"/>
			
				<linearGradient id="SVGID_5_" gradientUnits="userSpaceOnUse" x1="505.4259" y1="130.6009" x2="620.8699" y2="12.6899" gradientTransform="matrix(1 0 0 -1 0 536)">
				<stop  offset="0.12" style="stop-color:#FCA4B5"/>
				<stop  offset="0.99" style="stop-color:#FFADB7"/>
			</linearGradient>
			<path class="st13" d="M165.9,48.7c-0.1,2.2-0.2,4.5-0.3,5.9c-1.1,0-2.1-0.3-3.1-0.7c-6.2-2.4-7.8-2-9.7-0.6
				c-1.9,1.4-1.1,5.7,1.4,8.1c-4.8-2.4-5.8-4.5-6.4-5.6c-0.2-0.3-0.3-0.7-0.3-1s0.1-0.7,0.3-1c0,0,3.6-4.7,3.3-8.7
				c-0.1-1.1-0.2-3.2-0.3-5.3c3.8-1,7.8-1.2,11.7-0.6L165.9,48.7z"/>
			<path class="st4" d="M152.8,34.1c0,0,0.4,10.3,1.5,12.5c1,2.2,8.3,7.8,15.4,6.8c1.9-1,4.8-6.2,5.1-10.8c0.1-2.2,0.1-4.5,0-6.7
				c0.7-1.4,1.1-2.9,1.3-4.5c-0.2-1.3-0.6-8.6-3.1-11.7c-2.5-3.2-9.5-5.1-15.7-2.6C151,19.6,152.8,34.1,152.8,34.1z"/>
			<path class="st14" d="M155,37.8c0,0,0.6-4.1-2-4.8c-2.6-0.7-2.4,3.7-2.4,3.7l0.6,7.2v1c0,0-2.7-5.1-3.6-6.7
				c-0.8-1.2-1.3-2.6-1.6-4c-0.4-1.9-1.7-9.5-1.4-12.1c0.4-2.7,5-6.7,8.5-7c1.6-2.2,4.9-2.9,8.1-2.9c1.7-0.2,3.4,0,5,0.5
				c1.6,0.5,3.1,1.3,4.4,2.4c1,0.7,1.9,1.6,2.6,2.6c0.7,1,1.2,2.2,1.4,3.4c0.3,1.3,0.5,2.6,0.6,3.9l-0.5-1.8c0,0-1.5,1-6.2,0.6
				c-2.6-0.1-5.1-0.9-7.3-2.3c0.4,1.5,0.6,3,0.7,4.6c-0.2,1.2-0.9,5-0.9,5s-2.4,1.4-3.2,2c-0.6,0.5-1,1.1-1.2,1.9l-0.3,3.3L155,37.8
				z"/>
			<path class="st6" d="M175.9,24.4l-0.7,0.8c0,0-12.4,3.7-13.7,4c-0.6,0.1-1.5,0.6-2.9,1c-2.4,0.8-4.8,1.3-7.3,1.4l-5.6,0.5
				c-1.1-3.3-1.4-6.9-1-10.4c0.7-3.9,5.2-7.4,10.5-9c1.4-0.4,2.8-0.7,4.2-0.9c6.9-0.7,11.6,2.2,13.8,5.6
				C174.6,19.6,175.5,22,175.9,24.4z"/>
			<g>
				<path class="st15" d="M158.6,30.3c-2.4,0.8-4.8,1.3-7.3,1.4l-5.6,0.5c-1.1-3.3-1.4-6.9-1-10.4c0.7-3.9,5.2-7.4,10.5-9
					c-1.4,0.8-5.5,1.9-4.3,9.7c0.1,2,1,3.9,2.4,5.3C154.8,29.3,156.6,30.1,158.6,30.3z"/>
			</g>
			<path class="st16" d="M158.6,30.3c0,0,9.9,8.5,13.3,5.1c2.4-2.4,8.4-4.7,11-4l2.6,0.8c0.2,0,0.3-0.1,0.4-0.3
				c0.1-0.1,0.1-0.3,0.1-0.5c0-0.6-10.1-7-10.1-7S171.9,20.2,158.6,30.3z"/>
			
				<linearGradient id="SVGID_6_" gradientUnits="userSpaceOnUse" x1="175.3389" y1="502.4922" x2="170.2959" y2="501.6253" gradientTransform="matrix(1 0 0 -1 0 536)">
				<stop  offset="0.12" style="stop-color:#FEB9B8"/>
				<stop  offset="1" style="stop-color:#FFDEDE"/>
			</linearGradient>
			<path class="st17" d="M153.6,35.6c0,0-1.4-3.7-4.2-2.3c-2.8,1.5,1.2,8.7,3,8.8c1.8,0.1,1.5-1.8,1.5-1.8S152,37.3,153.6,35.6z"/>
			<path class="st4" d="M133.9,117.5c-1.7-4.2-2.8-8.6-3.1-13.2c-0.9-8.7-3.4-35.7,0.4-39.4c3.9-3.7,9.1,0,11,3.8
				c1.8,3.8,2.8,23.1,2.4,29.7c-0.4,6.5,0,11.2-1.6,14.4c-0.7,1.7-2,3.2-3.7,4.1S135.7,117.9,133.9,117.5z"/>
			<path class="st6" d="M134.1,63c-1.9,0-5.7,2.1-5.7,9.3c0,8.3,0.9,16.1,1,18.8c3,1.1,6.1,1.5,9.2,1.1c3.4-0.2,6.5-1,6.5-1.5
				c0-0.5-0.6-14.4-2.1-19.9c-0.5-2.1-1.6-4-3.2-5.4C138.3,64.1,136.3,63.2,134.1,63z"/>
			<path class="st18" d="M241.8,239l6.2,3.6v10.3l-6.2-3.6V239z"/>
			<path class="st19" d="M227.9,242.6c-0.1-2.4-0.8-4.7-2-6.7c-1.2-2-2.8-3.8-4.8-5.1c-0.7-0.5-1.4-0.8-2.3-0.9
				c-0.8-0.1-1.6,0-2.4,0.3h-0.1h-0.1l-3,1.8l1.2,1.9c0,0.2,0,0.5,0,0.7c0.1,2.4,0.8,4.7,2,6.7c1.2,2,2.8,3.8,4.8,5.1
				c0.4,0.2,0.7,0.4,1.1,0.5l1,1.6l2.7-1.6h0.1c0.6-0.5,1.1-1.2,1.4-1.9C227.9,244.2,228,243.4,227.9,242.6z"/>
			<path class="st7" d="M223,248.7c2.7-1.5,2.6-6.5-0.1-11.1c-2.7-4.6-7-7-9.7-5.5c-2.7,1.5-2.6,6.5,0.1,11.1
				C216.1,247.7,220.4,250.2,223,248.7z"/>
			<path class="st19" d="M223.9,245c-0.1-2.4-0.8-4.7-2-6.7c-1.2-2-2.8-3.8-4.8-5.1c-0.7-0.5-1.4-0.8-2.3-0.9
				c-0.8-0.1-1.6,0-2.4,0.3h-0.1l-3,1.8l1.1,1.9c0,0.2,0,0.4,0,0.7c0.1,2.4,0.8,4.7,2,6.7c1.2,2,2.8,3.8,4.8,5.1
				c0.4,0.2,0.7,0.4,1.1,0.5l1,1.6l2.7-1.6h0.1c0.6-0.5,1.1-1.2,1.4-1.9C223.9,246.6,224,245.8,223.9,245z"/>
			<path class="st7" d="M207.2,238.8c0.1,2.4,0.8,4.7,2,6.7c1.2,2,2.8,3.8,4.8,5.1c3.7,2.2,6.8,0.4,6.8-3.9c-0.1-2.4-0.8-4.7-2-6.7
				c-1.2-2-2.9-3.8-4.8-5.1C210.3,232.7,207.2,234.5,207.2,238.8z"/>
			<path class="st20" d="M222.8,253.3v6.8l-3.6,2.1l-9.9-24.9l6.9,1.5L222.8,253.3z"/>
			<path class="st21" d="M219.2,255.4v6.8l-13.5-9.9v-13l6.9,1.5L219.2,255.4z"/>
			<path class="st21" d="M205.2,245l17-9.8v-1.9l-24.4,5.6v1.9L205.2,245z"/>
			<path class="st22" d="M205.2,243.1l17-9.8l-7.4-4.3l-17,9.8L205.2,243.1z"/>
			<path class="st19" d="M208.6,253.8c-0.1-2.4-0.8-4.7-2-6.7s-2.8-3.8-4.8-5.1c-0.7-0.5-1.4-0.8-2.3-0.9c-0.8-0.1-1.6,0-2.4,0.3
				H197l-3,1.8l1.2,1.9c0,0.2,0,0.4,0,0.7c0.1,2.4,0.8,4.7,2,6.7c1.2,2,2.8,3.8,4.8,5.1c0.4,0.2,0.7,0.4,1.1,0.5l1,1.6l2.7-1.6h0.1
				c0.6-0.5,1.1-1.2,1.4-1.9C208.5,255.4,208.6,254.6,208.6,253.8z"/>
			<path class="st7" d="M192,247.6c0.1,2.4,0.8,4.7,2,6.7c1.2,2,2.8,3.8,4.8,5.1c3.7,2.2,6.8,0.4,6.8-3.9c-0.1-2.4-0.8-4.7-2-6.7
				c-1.2-2-2.8-3.8-4.8-5.1C195,241.6,192,243.3,192,247.6z"/>
			<path class="st19" d="M204.5,256.2c-0.1-2.4-0.8-4.7-2-6.7c-1.2-2-2.8-3.8-4.8-5.1c-0.7-0.5-1.4-0.8-2.3-0.9
				c-0.8-0.1-1.6,0-2.4,0.3h-0.1h-0.1l-3,1.8l1.1,1.9c0,0.2,0,0.4,0,0.7c0.1,2.4,0.8,4.7,2,6.7c1.2,2,2.8,3.8,4.8,5.1
				c0.4,0.2,0.7,0.4,1.1,0.5l1,1.6l2.7-1.6h0.1c0.6-0.5,1.1-1.2,1.5-1.9C204.4,257.8,204.5,257,204.5,256.2z"/>
			<path class="st7" d="M187.9,250c0.1,2.4,0.8,4.7,2,6.7c1.2,2,2.8,3.8,4.8,5.1c3.7,2.2,6.8,0.4,6.8-3.9c-0.1-2.4-0.8-4.7-2-6.7
				c-1.2-2-2.8-3.8-4.8-5.1C190.9,243.9,187.9,245.7,187.9,250z"/>
			<path class="st20" d="M222.2,233.3v1.9l-17,9.8v-1.9L222.2,233.3z"/>
			<path class="st23" d="M202.1,164.3l-3.5,0.6l13.1,74.9l3.5-0.6L202.1,164.3z"/>
			<path class="st7" d="M192.7,170.6c-1,0-2-0.1-3-0.5c-0.9-0.4-1.8-0.9-2.5-1.7l-7.8-8.1c-1-1.1-1.7-2.5-2-4l-1.4-8.1
				c-0.9-5.3,2.7-11.9,8.3-15.1l17.7-10.2c1.4-0.9,2.9-1.5,4.5-1.7c1.6-0.2,3.3,0,4.8,0.6c1.1,0.5,2,1.3,2.7,2.2
				c0.7,1,1.2,2.1,1.3,3.2l1.4,8.1c0.2,1.6,0.1,3.2-0.4,4.7l-3.7,14.7c-1.2,4.5-4.2,8.3-8.2,10.6l-5.9,3.4
				C196.9,170,194.8,170.6,192.7,170.6z M208,125.6c-1.3,0.1-2.6,0.4-3.7,1.1L186.6,137c-3.9,2.3-6.7,7-6.1,10.5l1.4,8.1
				c0.1,0.6,0.4,1.2,0.8,1.7l7.7,8.1c1.2,1.2,3.6,1.1,6-0.3l5.8-3.4c3-1.7,5.1-4.6,6.1-7.8l3.7-14.7c0.3-0.9,0.3-1.9,0.2-2.9
				l-1.4-8.1c0-0.5-0.2-0.9-0.5-1.3c-0.3-0.4-0.6-0.7-1-0.9C208.9,125.7,208.5,125.6,208,125.6z"/>
			<path class="st22" d="M215.9,214c1.4-2.5,3.5-4.7,6-6.2c0.9-0.6,1.9-1,2.9-1.1c1-0.1,2.1,0,3.1,0.4l6.2,3.6l-0.5,0.3l25.9,17.7
				v9.5l-75.2,43.4v-9.5L215.9,214z"/>
			<path class="st24" d="M190.5,275.7V286l17.5-10.1l0.2-7.5l39.8-22.9v7.3l17.7-10.2v-10.3L234,210.7c-1-0.4-2-0.5-3.1-0.4
				c-1,0.1-2,0.5-2.9,1.1c-2.5,1.5-4.5,3.7-6,6.2L190.5,275.7z"/>
			<path class="st21" d="M339.6,301.6l14.2-8.2l-102.2-46.7v4.1L339.6,301.6z"/>
			<path class="st21" d="M339.6,301.6l14.2-8.2l18.7,14.3l-8.1,4.7L339.6,301.6z"/>
			<path class="st21" d="M278.6,336.8l14.2-8.2l-102.2-46.8v4.1L278.6,336.8z"/>
			<path class="st21" d="M278.6,336.8l14.2-8.2l18.7,14.3l-8.1,4.7L278.6,336.8z"/>
			<path class="st22" d="M339.6,297.5l14.2-8.2l-88.1-50.8l-14.2,8.2L339.6,297.5z"/>
			<path class="st22" d="M339.6,297.5l14.2-8.2l18.7,14.3l-8.1,4.7L339.6,297.5z"/>
			<path class="st22" d="M278.6,332.7l14.2-8.2l-88.1-50.8l-14.2,8.2L278.6,332.7z"/>
			<path class="st22" d="M278.6,332.7l14.2-8.2l18.7,14.3l-8.1,4.7L278.6,332.7z"/>
			<path class="st21" d="M184.3,272.1l6.2,3.6V286l-6.2-3.6V272.1z"/>
			<path class="st24" d="M372.5,303.6v4.1l-8.1,4.7v-4.1L372.5,303.6z"/>
			<path class="st24" d="M311.5,338.8v4.1l-8.1,4.7v-4.1L311.5,338.8z"/>
			<path class="st7" d="M196.3,129.7l-4.4,0.8l6.4,35.2l4.4-0.8L196.3,129.7z"/>
			<path class="st4" d="M211.1,123.7c0,0.1-1,4.8-1,5.3c-0.1,0.5-1,1-1,1c-0.3,0.4-0.7,0.8-1.2,1c-0.6,0.2-1.2,0.3-1.9,0.2
				c0,0-7.5-1.2-8.3-2.6c-0.9-2.1-1.6-4.3-2.1-6.6c0-0.1-0.9-2.6-5.9-6.7c-5-4.1-9.3-11.2-9.9-13.6V99v-1.9l2.8-1
				c2-0.8,4-1.5,6.1-1.9l0,0c2,2.3,3.6,4.8,4.8,7.6c2.9,5.9,8.3,16.8,8.8,17c0.5,0.2,7.3,1.7,8,2.6
				C210.8,122,211.1,122.8,211.1,123.7z"/>
			
				<linearGradient id="SVGID_7_" gradientUnits="userSpaceOnUse" x1="1161.198" y1="-346.6387" x2="1343.269" y2="-491.5486" gradientTransform="matrix(1 0 0 -1 0 536)">
				<stop  offset="0.12" style="stop-color:#FCA4B5"/>
				<stop  offset="0.99" style="stop-color:#FFADB7"/>
			</linearGradient>
			<path class="st25" d="M195.7,120.7c-0.1,0.4-0.2,0.8-0.1,1.2c0-0.1-0.9-2.6-5.9-6.7c-5-4.1-9.3-11.2-9.9-13.6v-2.7V97l2.8-1
				c-0.7,1.1-1.1,2.4-1.1,3.7c0.1,0.6,0.2,1.3,0.5,1.9c2.6,5,5.9,9.6,9.6,13.8c2.5,2.7,4.6,4.6,4.6,4.6L195.7,120.7z"/>
			<path class="st26" d="M200.3,127.4c0.5-0.7,0.9-1.4,1.3-2.2c0.5-1.3,0.9-2.2,0.9-2.2l0.6,2.7v2.4l0.8,1.5l1.1,0.8h-2.4
				C202.6,130.4,199.9,128.8,200.3,127.4z"/>
			<path class="st27" d="M196.5,121.1c0,0,1.9-0.2,2.7,2.2c0.6,1.8,1.3,3.6,2.4,5.2c0.6,0.6,1.3,1,2.1,1.3c0.9,0.3,1.8,0.8,2.6,1.3
				c0.3,0.5,0.5,1.1,0.4,1.7c-0.1,0.7-1.1,0.5-1.2,0.5l-1.5-0.4c-0.6,0-1.2,0-1.7-0.2c-1.7-1.1-3.3-2.4-4.7-3.9
				c-0.9-1.8-1.6-3.6-1.9-5.6C195.6,121.5,195.7,121.3,196.5,121.1z"/>
			<path class="st4" d="M138.1,108.6c1.1-0.3,2.2-0.4,3.3-0.2c1.1,0.1,2.2,0.5,3.2,1.1c2.6,1.9,22.4,18.5,27.9,20.4
				c1.6,0.8,3.3,1.5,5.1,1.9c1.7,0.2,7.3,0,8,0.3c1.2,1.6,2.1,3.4,2.7,5.3c0.2,1,0.2,2.1,0,3.1c-0.1,0.4-2.1,0.5-2.1,0.5
				c-0.2,0.5-0.4,0.9-0.7,1.4c-0.4,0.6-2.4,0.4-2.4,0.4c-0.3,0.3-0.8,0.4-1.2,0.4c-0.5,0-0.9,0-1.3-0.2c0,0-0.6,0.9-2.3,0.3
				c-1.7-0.6-1.9-1.6-1.9-1.6l-0.2-2.1c-2,0-4.1-0.4-6-1.1c-1.9-1.1-2.9-2.8-4.3-3.7c-1.4-1-29.9-10.3-32.1-17.3
				c-0.3-0.9-0.5-1.8-0.5-2.7c0-0.9,0.2-1.8,0.6-2.7c0.4-0.8,1-1.6,1.7-2.2C136.4,109.3,137.2,108.8,138.1,108.6z"/>
			<path class="st28" d="M261.7,319.9l70-40.4v-41l-70,40.4V319.9z"/>
			<path class="st29" d="M261.7,319.9l-57.2-33v-41l57.2,33V319.9z"/>
			<path class="st30" d="M261.7,278.9l-57.2-33l70-40.4l57.2,33L261.7,278.9z"/>
			<path class="st31" d="M237.1,290.6l-9.2-5.3v-25.9l9.2,5.3V290.6z"/>
			<g>
				<path class="st32" d="M237.1,264.7l70-40.4l-9.2-5.3l-70,40.4L237.1,264.7z"/>
			</g>
			<path class="st30" d="M204.5,245.9l57.2,33l-30.9-16.5L204.5,245.9z"/>
			<path class="st33" d="M232.9,262.2l70-40.4l-0.6-0.4l-70,40.4L232.9,262.2z"/>
			<path class="st30" d="M257.9,295.2l-12.1-7v-13.9l12.1,7V295.2z M246.7,287.7l10.5,6v-12l-10.5-6.1V287.7z"/>
			<path class="st30" d="M253.2,290.7l-2.7-1.5v-7l2.7,1.5V290.7z"/>
			<path class="st30" d="M255.8,286.6l-7.9-4.5l4-2.5L255.8,286.6z"/>
			<path class="st28" d="M261.7,277.2l70-40.4v-41l-70,40.4V277.2z"/>
			<path class="st29" d="M261.7,277.2l-57.2-33v-41l57.2,33V277.2z"/>
			<path class="st34" d="M261.7,236.2l-57.2-33l70-40.4l57.2,33L261.7,236.2z"/>
			<path class="st31" d="M237.1,247.9l-9.2-5.3v-25.9l9.2,5.3V247.9z"/>
			<g>
				<path class="st32" d="M237.1,222l70-40.4l-9.2-5.3l-70,40.4L237.1,222z"/>
			</g>
			<path class="st30" d="M204.5,203.2l57.2,33l-30.9-16.5L204.5,203.2z"/>
			<path class="st33" d="M232.9,219.5l70-40.4l-0.6-0.4l-70,40.4L232.9,219.5z"/>
			<path class="st30" d="M257.9,252.4l-12.1-7v-13.9l12.1,7V252.4z M246.7,245l10.5,6v-12l-10.5-6V245z"/>
			<path class="st30" d="M253.2,248l-2.7-1.5v-7l2.7,1.5V248z"/>
			<path class="st30" d="M255.8,243.8l-7.9-4.5l4-2.5L255.8,243.8z"/>
		</g>
	</g>
</g>
</svg>
