<?xml version="1.0" encoding="utf-8"?>
<!-- Generator: Adobe Illustrator 24.0.2, SVG Export Plug-In . SVG Version: 6.00 Build 0)  -->
<svg version="1.1" id="Layer_1" xmlns="http://www.w3.org/2000/svg" xmlns:xlink="http://www.w3.org/1999/xlink" x="0px" y="0px"
	 viewBox="0 0 837.9 577" style="enable-background:new 0 0 837.9 577;" xml:space="preserve">
<style type="text/css">
	.st0{fill:url(#SVGID_1_);}
	.st1{fill:#BECDD4;}
	.st2{fill:#C99A6B;}
	.st3{fill:#AE835B;}
	.st4{fill:#87623F;}
	.st5{fill:#E8B687;}
	.st6{fill:#D9AF84;}
	.st7{fill:#9C754E;}
	.st8{fill:#D1A986;}
	.st9{fill:#FEBFBF;}
	.st10{fill:url(#SVGID_2_);}
	.st11{fill:#DF314A;}
	.st12{fill:#5C6467;}
	.st13{fill:#7282B5;}
	.st14{fill:#E8D0C8;}
	.st15{fill:#A0ABCD;}
	.st16{fill:#DEDEDE;}
	.st17{fill:#FFADB7;}
	.st18{fill:url(#SVGID_3_);}
	.st19{fill:#754554;}
	.st20{fill:#FCF5E8;}
	.st21{fill:#BF2A40;}
	.st22{fill:url(#SVGID_4_);}
	.st23{fill:#A25900;}
	.st24{fill:#3B4549;}
	.st25{fill:#CE7400;}
	.st26{fill:#EDA600;}
	.st27{fill:#FECB4C;}
	.st28{fill:#FFC536;}
	.st29{fill:#ED9600;}
	.st30{fill:url(#SVGID_5_);}
	.st31{fill:#FA9698;}
	.st32{fill:#FEC7C6;}
	.st33{fill:url(#SVGID_6_);}
	.st34{fill:#FF618B;}
	.st35{fill:#262626;}
	.st36{fill:#303030;}
	.st37{fill:#494949;}
	.st38{fill:#969696;}
	.st39{fill:#FFFFFF;}
	.st40{fill:#383838;}
	.st41{fill:#6B6B6B;}
	.st42{fill:#5B5B5B;}
	.st43{fill:#8C8C8C;}
	.st44{fill:#ED3554;}
	.st45{fill:#FCFBFA;}
	.st46{fill:#CDC6BC;}
	.st47{fill:#F95377;}
	.st48{fill:#EBE7E3;}
	.st49{fill:#DED8D1;}
	.st50{fill:#9B897F;}
	.st51{fill:#BBBBBB;}
	.st52{fill:#CECECE;}
	.st53{fill:#EDEDED;}
	.st54{fill:#6F6F6E;}
</style>
<linearGradient id="SVGID_1_" gradientUnits="userSpaceOnUse" x1="-1.497437e-02" y1="-155.1812" x2="929.9523" y2="-155.1812" gradientTransform="matrix(1 0 0 -1 0 156)">
	<stop  offset="1.040000e-02" style="stop-color:#F1F1F1;stop-opacity:0"/>
	<stop  offset="1" style="stop-color:#F1F1F1"/>
</linearGradient>
<path class="st0" d="M794.8,499.7c-181,103.4-475.4,102.9-657.6-1.2c-182.1-104.1-183.1-272.3-2.1-375.8s475.4-102.9,657.6,1.2
	S975.8,396.2,794.8,499.7z"/>
<path class="st1" d="M559.3,553.7l-44-25.1l41.9-23.9l21.2,49.1L559.3,553.7L559.3,553.7z"/>
<path class="st2" d="M620.3,473.3v56.5l-18.8,10.7l-4.7,2.7l-18.4,10.5v-56.5l18.4-10.5l4.7-2.7L620.3,473.3z"/>
<path class="st3" d="M578.4,497.2v56.5l-19.9-11.4l-4.7-2.7l-19.3-11v-56.5l19.3,11.1l4.7,2.7L578.4,497.2z"/>
<path class="st4" d="M575.9,509.2l-8.3-4.7v-9.4l8.3,4.7V509.2z M568.2,504.1l7.2,4.1v-8.1l-7.2-4.1V504.1z"/>
<path class="st4" d="M572.7,506.2l-1.8-1v-4.7l1.8,1V506.2z"/>
<path class="st4" d="M574.4,503.4l-5.4-3.1l2.7-1.7L574.4,503.4z"/>
<path class="st5" d="M578.4,497.2l-44-25.1l41.9-23.9l44,25.1L578.4,497.2z"/>
<path class="st6" d="M596.8,486.7l-44-25.1l4.7-2.7l44,25.1L596.8,486.7z"/>
<path class="st7" d="M558.5,485.8v56.5l-4.7-2.7v-56.5L558.5,485.8z"/>
<path class="st6" d="M558.5,485.8l41.9-23.9l-4.7-2.7l-41.9,23.9L558.5,485.8z"/>
<path class="st4" d="M534.4,472.1l44,25.1l-23.2-12.6L534.4,472.1z"/>
<path class="st4" d="M620.3,473.3l-41.9,23.9l23.2-12.6L620.3,473.3z"/>
<path class="st8" d="M554.9,460.4l0.3-0.2l21.6,12.3l21.1-12.1l0.3,0.2l-21.1,12.1l22.1,12.6l-0.3,0.2l-22.1-12.6l-20.4,11.7
	l-0.3-0.2l20.4-11.7L554.9,460.4z"/>
<path class="st6" d="M601.5,484v56.5l-4.7,2.7v-56.5L601.5,484z"/>
<path class="st1" d="M152.3,467.9c18.3-0.1,33.2-8.7,33.1-19.2s-15-18.9-33.3-18.8s-33.2,8.7-33.1,19.2
	C119,459.6,133.9,468,152.3,467.9z"/>
<path class="st1" d="M293.5,493.5l-64-36.6l-4.1,2.3l4.1-2.3l-12.3-7l-54.7,31.2l12.3,7l64,36.6l18,7.8l5.9-3.4l-13.6-10.3
	l-14.8-8.5l34.1-19.5l14.8,8.5l18,7.8l5.9-3.4L293.5,493.5z M205.6,494l-20.4-11.7l34.1-19.5l20.4,11.7L205.6,494z"/>
<path class="st1" d="M117.1,427c13-7.4,34-7.5,47-0.1s12.9,19.4-0.1,26.8s-34,7.5-47,0.1S104.1,434.4,117.1,427z"/>
<path class="st9" d="M170.2,337.3c0,0-1.8,3.2-5.3,3.3h-0.2c-0.5,0-1,0-1.4,0c-2.1-0.2-2.4-1-2.7-2.1c-0.4-1.3-7-28.5-1.6-30.1
	c0.1,0,2.9,0,4.1,2.6c0.8,1.6,2.3,7.8,3.5,13c0.7,3.2,1.3,6,1.5,7.3c0.5,2.6,1.5,4.9,1.9,5.7l0,0
	C170.1,337.1,170.2,337.3,170.2,337.3z"/>
<linearGradient id="SVGID_2_" gradientUnits="userSpaceOnUse" x1="168.5674" y1="-178.0199" x2="190.0894" y2="-205.5469" gradientTransform="matrix(1 0 0 -1 0 156)">
	<stop  offset="0.1224" style="stop-color:#FCA4B5"/>
	<stop  offset="0.9896" style="stop-color:#FFADB7"/>
</linearGradient>
<path class="st10" d="M175.3,356.6c-0.1,0.2-0.1,0.6-0.1,0.9l0,0c0-0.1-0.7-1.9-4.4-5s-6.9-8.3-7.4-10v-2c-2.1-0.2-2.4-1-2.7-2.1
	c-0.4-1.3-7-28.5-1.6-30.1c0.1,0,2.9,0,4.1,2.6c0.8,1.6,2.3,7.8,3.5,13l0,0c-0.2,0.6-3.3,1.7-3.3,1.7s0.6,9.6,0.6,10.3
	c-0.1,0.7,1.6,2.4,1.6,2.4l0,0c-0.1,0.2-0.8,1-0.7,2.2c0,0.3,0.1,0.6,0.2,1c0.8,2,5.6,8.9,7.1,11.1c1.6,2.3,3.5,3.4,3.5,3.4
	S175.6,356.1,175.3,356.6z"/>
<path class="st11" d="M166.6,323.3c0,0-2.3,1.6-4.3,0.9c-1.9-0.7-6.9-17.9-6.9-17.9s0.4-0.9,3.4-0.1c3,0.7,4.4,3.6,4.8,5
	C164,312.5,166.6,323.3,166.6,323.3z"/>
<path class="st12" d="M162.4,442.1c0,0,4,1.8,4.8,2.5s5.8,4.8,6.1,5.4s1.9,1.9,1.9,3.4s-1.7,2.8-3.2,2.7s-6.2-1.5-8-3.4
	s-3-3.1-3.3-3.3s-0.4,0.1-1.2,0.2s-4.2-1.4-4.6-2.3c-0.4-0.9-1.3-4.7-0.8-5.7C154.6,440.6,162.4,442.1,162.4,442.1z"/>
<path class="st9" d="M163,440.9c0,0,3.8,3.8,4.1,4.6c0.3,0.9-1.3,1.7-3.7,1.8c-2.4,0.1-5.3-2.3-5.3-2.3s-2.5-3.6-1.4-5.4
	C157.8,437.8,163,440.9,163,440.9z"/>
<path class="st13" d="M163.9,366c0,0,0.8-0.3,2.4,13.1c1.4,12.3,1.3,21.2,1,25.3s-2.5,35.9-2.6,37.5c0,1.6-3.6,2.5-5.7,2.4
	c-2.2-0.1-4.1-2.1-4.1-3.2c-0.1-1.1-2.5-28.1-0.8-37.1c0.5-2.6-6.8-21-6.8-21s-1.5-13.7-0.3-16.6C148.3,363.4,163.9,366,163.9,366z"
	/>
<path class="st14" d="M159.1,444.2L159.1,444.2c-2.3-0.1-4.2-2.1-4.2-3.2c-0.1-1.1-2.5-28.1-0.8-37.1c0.5-2.6-6.8-21-6.8-21
	s-0.1-0.6-0.1-1.5l7.1-1.5c0,0-1.4,2.5,0.1,7.4c1.6,4.9,1.7,15,1.9,16.4c0.2,1.5-1.7,2-1.2,12.9C155.5,425.5,155.3,439,159.1,444.2z
	"/>
<path class="st12" d="M129.9,433c0,0,2.7,3.9,3,4.5s4.1,6.9,4.3,7.7s-0.1,1.5-0.7,2.1c-0.6,0.6-2.9,1.4-4.5,1s-4.1-1.8-5.4-3.1
	c-1.3-1.4-2.9-5.2-2.9-5.2s-1.6-1.8-2.1-2.7s-1.5-2-1.7-3.3s-0.3-2,0.9-3C122.1,430.2,129.9,433,129.9,433z"/>
<path class="st9" d="M130,432.1c0,0,1.6,4.2,1.7,5s-1.9,1.6-3.7,1.3c-1.8-0.2-2.5-1.9-3.1-2.4s-2.9-4.4-2.3-5.5
	C123.1,429.3,130,432.1,130,432.1z"/>
<path class="st13" d="M154.7,367.9c0,0,0.5,5.8,0.6,8.1s0.2,5.4,0.2,5.4l-4.2,5.4c0,0-2.6,2.4-6.6,22c-3.2,6.3-13.5,24.5-13.5,24.5
	s-2.9,3-6.4,1.4c-3-1.4-4.1-3.8-4.1-4.3c0.1-1.3,6.7-17.6,7.6-20c0.9-2.3,4.3-8.1,4.3-8.1s0-8.7-0.3-11.6
	c-0.5-5.3-5.2-18.6-3.6-21.2C130.2,366.8,154.7,367.9,154.7,367.9z"/>
<path class="st15" d="M122.2,432.1l-0.6-0.2c5-17.1,8.8-22,11.1-25c0.8-1,1.3-1.7,1.6-2.5c2.9-7.4-0.8-20.9-1.6-23.5
	c-1.8-6.1-1-10.2-1-10.4l0.6,0.1c0,0-0.8,4.1,0.9,10c0.8,2.6,4.5,16.3,1.6,23.9c-0.4,0.9-0.9,1.7-1.7,2.7
	C131,410.3,127.2,415.2,122.2,432.1z"/>
<path class="st14" d="M133.8,403.5c-3.3,3.4-6.3,11.5-8.6,17.2c-1.9,4.7-3.5,8.1-3.6,11.5c-0.7-0.9-1.1-1.7-1-1.9
	c0.1-1.3,6.7-17.6,7.6-20c0.9-2.3,4.3-8.1,4.3-8.1s0-8.7-0.3-11.6c-0.5-5.3-5.2-18.5-3.6-21.2c0.2-0.4,1-0.7,2.1-0.9
	c0,0.1,0,0.1,0,0.2c0,0-1.2,0.5,0.6,8.2C133.2,384.5,135.5,397,133.8,403.5z"/>
<path class="st11" d="M127.2,369c0,0,4.1,4.3,10.1,4.9c12.7,1.3,26.1-4.7,27.7-6.7c0,0-1.5-12.9-1.5-18.9s-0.4-15.3,0-21.4
	s0.6-13.1-3.5-19.3c-2.5-3.7-10.5-0.3-13-0.6s-5.8-2.3-9.2,0.5s-10.2,5.3-11.6,9.3c-1.7,4.6-1.3,10.6,1.8,24
	C131.5,355.9,127.2,369,127.2,369z"/>
<path class="st16" d="M160.2,364.9c0,0,3.5,3.3,2,2.7l-3.6-0.8c-1.6-0.6-3.9,1-15.9-3c-3.7-1.2-10.3-5-10.3-5s-2.1,8.5-2.6,12.3
	c-1.7-1.1-2.6-2.1-2.6-2.1s4.5-13.1,0.9-28.1c-0.4-1.7-0.8-3.2-1.1-4.7c2.9-5.3,5.8-12.2,9.5-12.3c0,0,2.9,12.6,1.6,20.1
	c-1.3,7.4-2.8,7.6-2.8,7.6l13.5,7.7L160.2,364.9z"/>
<path class="st17" d="M152.8,308.3c0,2.4,0.6,3.5,0,4.4c-0.5,0.7-4.8,1.7-6.7,1c-0.6-0.3-1.2-0.5-1.7-0.8c0,0,0,0-0.1,0
	c-3.6-1.8-4.3-3.4-4.7-4.1c-0.5-0.8,0-1.5,0-1.5s2.7-3.5,2.4-6.5c-0.1-0.8-0.1-2.4-0.2-3.9c-0.1-2-0.1-3.9-0.1-3.9s1.6-3.2,3.1-3
	s8.6,7.6,8.6,7.6s-0.2,3-0.4,6c-0.1,1.7-0.2,3.3-0.2,4.3C152.8,308,152.8,308.1,152.8,308.3z"/>
<linearGradient id="SVGID_3_" gradientUnits="userSpaceOnUse" x1="146.1718" y1="-147.9156" x2="152.9848" y2="-156.6297" gradientTransform="matrix(1 0 0 -1 0 156)">
	<stop  offset="0.1224" style="stop-color:#FCA4B5"/>
	<stop  offset="0.9896" style="stop-color:#FFADB7"/>
</linearGradient>
<path class="st18" d="M153,303.5c-0.1,1.7-0.2,3.3-0.2,4.3c-0.5,0-1.3-0.1-2.3-0.5c-4.6-1.8-5.8-1.5-7.2-0.5c-1.3,1-0.8,4.2,1.1,6
	c-3.6-1.8-4.3-3.4-4.7-4.1c-0.5-0.8,0-1.5,0-1.5s2.7-3.5,2.4-6.5c-0.1-0.8-0.1-2.4-0.2-3.9c5.4-1.2,8.7-0.5,8.7-0.5L153,303.5z"/>
<path class="st9" d="M143.3,292.7c0,0,0.3,7.6,1.1,9.3s6.2,5.8,11.5,5c1.4-0.7,3.6-4.6,3.8-8c0.3-3.4,0-4.6,0.1-5
	c0.1-0.3,1.1-2.4,1-3.3c-0.2-1-0.4-6.3-2.3-8.7c-1.9-2.4-7.1-3.8-11.7-1.9S143.3,292.7,143.3,292.7z"/>
<path class="st19" d="M144.9,295.4c0,0,0.4-3-1.5-3.5s-1.8,2.8-1.8,2.8l0.5,5.3l-0.1,0.8c0,0-2-3.8-2.6-5s-1-1.7-1.2-3s-1.3-7-1-9
	s3.7-5,6.3-5.2c1.2-1.6,3.6-2.1,6-2.1s4.1-0.1,7,2.1c2.8,2.2,2.8,3.9,3,4.4s0.4,2.9,0.4,2.9l-0.4-1.3c0,0-1.1,0.7-4.6,0.4
	c-3.5-0.3-5.4-1.7-5.4-1.7s0.6,2.5,0.5,3.4s-0.7,3.7-0.7,3.7s-1.8,1.1-2.4,1.5c-0.6,0.4-0.9,1.4-0.9,1.4l-0.2,2.4L144.9,295.4z"/>
<path class="st11" d="M160.5,285.5l-0.5,0.6c0,0-9.3,2.7-10.2,2.9c-0.4,0.1-1.1,0.4-2.2,0.8c-1.3,0.4-3.1,0.9-5.4,1
	c-4.2,0.4-4.2,0.4-4.2,0.4s-1.3-4-0.7-7.6c0.5-2.9,3.9-5.5,7.9-6.6l0,0c1-0.3,2.1-0.5,3.1-0.6c5.1-0.5,8.6,1.6,10.3,4.1
	C160.1,282.9,160.5,285.5,160.5,285.5z"/>
<path class="st20" d="M147.6,289.8c-1.3,0.4-3.1,0.9-5.4,1c-4.2,0.4-4.2,0.4-4.2,0.4s-1.3-4-0.7-7.6c0.5-2.9,3.9-5.5,7.9-6.6
	c-1,0.6-4.1,1.4-3.3,7.2C142.5,289,146.3,289.7,147.6,289.8z"/>
<path class="st21" d="M147.6,289.8c0,0,7.4,6.3,9.9,3.8c1.8-1.8,6.2-3.5,8.2-2.9s2,0.6,2,0.6s0.4-0.1,0.4-0.5s-7.6-5.2-7.6-5.2
	S157.5,282.4,147.6,289.8z"/>
<linearGradient id="SVGID_4_" gradientUnits="userSpaceOnUse" x1="144.0841" y1="-138.9643" x2="140.3374" y2="-139.6046" gradientTransform="matrix(1 0 0 -1 0 156)">
	<stop  offset="0.1224" style="stop-color:#FEB9B8"/>
	<stop  offset="1" style="stop-color:#FFDEDE"/>
</linearGradient>
<path class="st22" d="M143.9,293.8c0,0-1-2.7-3.1-1.7s0.9,6.5,2.3,6.5c1.4,0.1,1.1-1.3,1.1-1.3S142.7,295,143.9,293.8z"/>
<path class="st9" d="M129.1,354.3c0,0-1.7-3.3-2.3-9.7s-2.6-26.4,0.3-29.1c2.9-2.7,6.8,0,8.2,2.8c1.3,2.8,2.1,17.1,1.8,21.9
	s0.1,8.2-1.2,10.6C134.7,353.2,132.9,354.7,129.1,354.3z"/>
<path class="st11" d="M129.4,314c-1.4,0-4.3,1.6-4.3,6.9c0,6.1,0.7,11.9,0.7,13.9c1.6,0.8,4.4,1,6.9,0.8s4.9-0.8,4.9-1.1
	c0-0.4-0.5-10.6-1.5-14.7C134.9,315.7,131.3,314,129.4,314z"/>
<path class="st23" d="M209.6,444l4.6,2.6v7.6l-4.6-2.6V444z"/>
<path class="st24" d="M199.3,446.7c0-3.2-2.3-7.1-5.1-8.7c-1.3-0.8-2.6-0.9-3.5-0.4l0,0h-0.1c0,0,0,0-0.1,0l-2.3,1.3l0.9,1.4
	c0,0.2-0.1,0.3-0.1,0.5c0,3.2,2.3,7.1,5.1,8.7c0.3,0.2,0.6,0.3,0.8,0.4l0.7,1.2l2.1-1.2l0,0l0.1-0.1l0,0
	C198.7,449.3,199.3,448.2,199.3,446.7z"/>
<path class="st12" d="M195.6,451.1c2-1.1,2-4.8,0-8.2c-2-3.4-5.2-5.2-7.2-4.1s-2,4.8,0,8.2C190.4,450.5,193.7,452.3,195.6,451.1z"/>
<path class="st24" d="M196.2,448.4c0-3.2-2.3-7.1-5.1-8.7c-1.3-0.8-2.6-0.9-3.5-0.4l0,0h-0.1c0,0,0,0-0.1,0l-2.3,1.3l0.9,1.4
	c0,0.2-0.1,0.3-0.1,0.5c0,3.2,2.3,7.1,5.1,8.7c0.3,0.2,0.6,0.3,0.8,0.4l0.7,1.2l2-1.2l0,0h0.1l0,0C195.7,451,196.2,450,196.2,448.4z
	"/>
<path class="st12" d="M183.9,443.9c0,3.2,2.3,7.1,5.1,8.7s5.1,0.3,5.1-2.9s-2.3-7.1-5.1-8.7C186.1,439.4,183.9,440.6,183.9,443.9z"
	/>
<path class="st25" d="M195.4,454.6v5l-2.7,1.5l-7.4-18.4l5.1,1.1L195.4,454.6z"/>
<path class="st26" d="M192.8,456.1v5l-10-7.3v-9.6l5.1,1.1L192.8,456.1z"/>
<path class="st26" d="M182.3,448.5l12.7-7.3v-1.4l-18.2,4.1v1.4L182.3,448.5z"/>
<path class="st27" d="M182.3,447l12.7-7.3l-5.5-3.1l-12.7,7.3L182.3,447z"/>
<path class="st24" d="M184.8,455c0-3.2-2.3-7.1-5.1-8.7c-1.3-0.8-2.6-0.9-3.5-0.4l0,0h-0.1c0,0,0,0-0.1,0l-2.3,1.3l0.9,1.4
	c0,0.2-0.1,0.3-0.1,0.5c0,3.2,2.3,7.1,5.1,8.7c0.3,0.2,0.6,0.3,0.8,0.4l0.7,1.2l2-1.2l0,0h0.1l0,0
	C184.3,457.5,184.8,456.5,184.8,455z"/>
<path class="st12" d="M172.5,450.4c0,3.2,2.3,7.1,5.1,8.7s5.1,0.3,5.1-2.9c0-3.2-2.3-7.1-5.1-8.7S172.5,447.2,172.5,450.4z"/>
<path class="st24" d="M181.8,456.7c0-3.2-2.3-7.1-5.1-8.7c-1.3-0.8-2.6-0.9-3.5-0.4l0,0h-0.1c0,0,0,0-0.1,0l-2.3,1.3l0.9,1.4
	c0,0.2-0.1,0.3-0.1,0.5c0,3.2,2.3,7.1,5.1,8.7c0.3,0.2,0.6,0.3,0.8,0.4l0.7,1.2l2-1.2l0,0l0.1-0.1l0,0
	C181.3,459.3,181.8,458.2,181.8,456.7z"/>
<path class="st12" d="M169.4,452.1c0,3.2,2.3,7.1,5.1,8.7s5.1,0.3,5.1-2.9c0-3.2-2.3-7.1-5.1-8.7S169.4,448.9,169.4,452.1z"/>
<path class="st25" d="M195,439.8v1.4l-12.7,7.3V447L195,439.8z"/>
<path class="st28" d="M180,388.8l-2.6,0.5l9.8,55.3l2.6-0.5L180,388.8z"/>
<path class="st12" d="M173,393.5c-1.6,0-3-0.5-4.1-1.6l-5.8-6c-0.8-0.8-1.3-1.8-1.5-3l-1.1-6c-0.7-3.9,2-8.8,6.2-11.2l13.2-7.5
	c2.4-1.4,5-1.7,6.9-0.8c1.6,0.7,2.7,2.2,3,4l1.1,6c0.2,1.1,0.1,2.3-0.2,3.5l-2.8,10.9c-0.8,3.1-3.2,6.2-6.1,7.9l-4.4,2.5
	C176,393.1,174.4,393.5,173,393.5z M184.4,360.3c-0.8,0-1.8,0.3-2.8,0.8l-13.2,7.5c-2.9,1.7-5,5.2-4.6,7.7l1.1,6
	c0.1,0.5,0.3,1,0.6,1.3l5.8,6c0.9,0.9,2.7,0.8,4.5-0.3l4.4-2.5c2.2-1.2,4-3.5,4.6-5.8l2.8-10.9c0.2-0.8,0.3-1.5,0.1-2.1l-1.1-6
	c-0.1-0.8-0.5-1.3-1.1-1.6C185.2,360.3,184.8,360.3,184.4,360.3z"/>
<path class="st27" d="M190.3,425.6c1.2-2,2.8-3.6,4.5-4.6s3.3-1.1,4.5-0.5l4.6,2.6l-0.4,0.2l19.3,13.1v7l-56.1,32v-7L190.3,425.6z"
	/>
<path class="st29" d="M171.4,471.1v7.6l13.1-7.5l0.1-5.5l29.6-17v5.4l13.2-7.5V439l-23.6-16c-1.2-0.6-2.8-0.4-4.4,0.5
	c-1.7,1-3.3,2.6-4.5,4.6L171.4,471.1z"/>
<path class="st26" d="M282.5,490.3l10.6-6l-76.2-34.5v3L282.5,490.3z"/>
<path class="st26" d="M282.5,490.3l10.6-6l14,10.5l-6,3.5L282.5,490.3z"/>
<path class="st26" d="M237,516.3l10.6-6l-76.2-34.5v3L237,516.3z"/>
<path class="st26" d="M237,516.3l10.6-6l14,10.6l-6,3.5L237,516.3z"/>
<path class="st27" d="M282.5,487.2l10.6-6l-65.6-37.5l-10.6,6L282.5,487.2z"/>
<path class="st27" d="M282.5,487.2l10.6-6l14,10.5l-6,3.5L282.5,487.2z"/>
<path class="st27" d="M237,513.2l10.6-6L182,469.7l-10.6,6L237,513.2z"/>
<path class="st27" d="M237,513.2l10.6-6l14,10.6l-6,3.5L237,513.2z"/>
<path class="st26" d="M166.8,468.5l4.6,2.6v7.6l-4.6-2.6V468.5z"/>
<path class="st29" d="M307,491.7v3l-6,3.5v-3L307,491.7z"/>
<path class="st29" d="M261.5,517.7v3l-6,3.5v-3L261.5,517.7z"/>
<path class="st12" d="M175.6,363.3l-3.3,0.6l4.8,26l3.3-0.6L175.6,363.3z"/>
<path class="st9" d="M186.7,358.8c0,0.1-0.7,3.5-0.8,3.9s-0.8,0.7-0.8,0.7s-0.4,0.5-0.9,0.7c-0.6,0.2-1.3,0.1-1.3,0.1
	s-5.6-0.9-6.2-1.9c-0.6-1-1.5-4.3-1.6-4.8l0,0l0,0c0-0.1-0.7-1.9-4.4-5s-6.9-8.3-7.4-10v-2v-1.4c0,0,0.9-0.4,2.1-0.8l0,0
	c1.8-0.7,4.2-1.5,4.6-1.4l0,0c0.2,0.4,1.4,1.3,3.6,5.6c2.1,4.3,6.2,12.3,6.6,12.5c0.3,0.2,5.4,1.3,6,1.9
	C186.7,357.5,186.7,358.7,186.7,358.8z"/>
<linearGradient id="SVGID_5_" gradientUnits="userSpaceOnUse" x1="170.2893" y1="-192.5502" x2="179.9044" y2="-204.8482" gradientTransform="matrix(1 0 0 -1 0 156)">
	<stop  offset="0.1224" style="stop-color:#FCA4B5"/>
	<stop  offset="0.9896" style="stop-color:#FFADB7"/>
</linearGradient>
<path class="st30" d="M175.3,356.6c-0.1,0.2-0.1,0.6-0.1,0.9l0,0c0-0.1-0.7-1.9-4.4-5s-6.9-8.3-7.4-10v-2v-1.4c0,0,0.9-0.4,2.1-0.8
	c-0.1,0.2-0.9,1.5-0.8,2.7c0,0.3,0.2,1,0.4,1.4c0.8,2,5.2,8.3,7.1,10.2c1.9,2,3.5,3.4,3.5,3.4S175.6,356.1,175.3,356.6z"/>
<path class="st31" d="M178.7,361.5c0,0,0.5-0.6,0.9-1.6s0.6-1.6,0.6-1.6l0.5,2v1.8l0.6,1.1l0.8,0.6h-1.8
	C180.4,363.8,178.4,362.6,178.7,361.5z"/>
<path class="st32" d="M175.8,357c0,0,1.4-0.2,2,1.6s1.2,3.3,1.7,3.8s1.6,1,1.6,1s1.8,0.7,2,1s0.4,0.7,0.3,1.2
	c-0.1,0.5-0.8,0.4-0.9,0.4c-0.1,0-1.1-0.3-1.1-0.3s-0.9,0.1-1.3-0.1c-0.3-0.2-3.1-2.2-3.5-2.9s-1.2-2.8-1.3-4.1
	S175.3,357.1,175.8,357z"/>
<path class="st9" d="M132.3,347.7c0,0,2.9-0.8,4.8,0.6s16.7,13.6,20.8,15c0.2,0.1,2.6,1.2,3.8,1.4s5.4,0,6,0.3
	c0.5,0.3,1.9,3.4,2,3.9c0.2,0.6,0.1,2,0,2.3s-1.5,0.3-1.5,0.3s-0.2,0.6-0.5,1s-1.8,0.3-1.8,0.3s-0.3,0.3-0.9,0.3c-0.6,0-1-0.2-1-0.2
	s-0.4,0.7-1.7,0.2s-1.4-1.2-1.4-1.2l-0.1-1.5c0,0-3,0-4.4-0.8s-2.1-2-3.2-2.7s-22.3-7.6-24-12.8
	C127.4,349.1,132.3,347.7,132.3,347.7z"/>
<path class="st2" d="M224.4,503.7l52.2-29.8v-30.3l-52.2,29.8L224.4,503.7L224.4,503.7z"/>
<path class="st3" d="M224.4,503.7l-42.7-24.4V449l42.7,24.4V503.7z"/>
<path class="st4" d="M224.4,473.5l-42.7-24.4l52.2-29.8l42.7,24.4L224.4,473.5z"/>
<path class="st7" d="M206.1,482.1l-6.9-3.9v-19.1l6.9,3.9V482.1z"/>
<path class="st6" d="M206.1,463l52.2-29.8l-6.9-3.9l-52.2,29.8L206.1,463z"/>
<path class="st4" d="M181.8,449.1l42.7,24.4l-23-12.2L181.8,449.1z"/>
<path class="st8" d="M202.9,461.2l52.2-29.8l-0.5-0.3l-52.2,29.8L202.9,461.2z"/>
<path class="st4" d="M221.6,485.5l-9-5.1v-10.2l9,5.1V485.5z M213.2,480l7.8,4.5v-8.9l-7.8-4.5V480z"/>
<path class="st4" d="M218.1,482.2l-2-1.1V476l2,1.1V482.2z"/>
<path class="st4" d="M220.1,479.1l-5.9-3.4l2.9-1.8L220.1,479.1z"/>
<path class="st2" d="M224.4,472.2l52.2-29.8v-30.3l-52.2,29.8L224.4,472.2L224.4,472.2z"/>
<path class="st3" d="M224.4,472.2l-42.7-24.4v-30.3l42.7,24.4V472.2z"/>
<path class="st5" d="M224.4,441.9l-42.7-24.4l52.2-29.8l42.7,24.4L224.4,441.9z"/>
<path class="st7" d="M206.1,450.6l-6.9-3.9v-19.1l6.9,3.9V450.6z"/>
<path class="st6" d="M206.1,431.4l52.2-29.8l-6.9-3.9l-52.2,29.8L206.1,431.4z"/>
<path class="st4" d="M181.8,417.5l42.7,24.4l-23-12.2L181.8,417.5z"/>
<path class="st8" d="M202.9,429.6l52.2-29.8l-0.5-0.3l-52.2,29.8L202.9,429.6z"/>
<path class="st4" d="M221.6,453.9l-9-5.1v-10.2l9,5.1V453.9z M213.2,448.4l7.8,4.5V444l-7.8-4.5V448.4z"/>
<path class="st4" d="M218.1,450.6l-2-1.1v-5.1l2,1.1V450.6z"/>
<path class="st4" d="M220.1,447.6l-5.9-3.4l2.9-1.8L220.1,447.6z"/>
<linearGradient id="SVGID_6_" gradientUnits="userSpaceOnUse" x1="110.1" y1="-107" x2="633.3" y2="-107" gradientTransform="matrix(1 0 0 -1 0 156)">
	<stop  offset="0" style="stop-color:#EBEBEB"/>
	<stop  offset="1" style="stop-color:#E4E4E4"/>
</linearGradient>
<path class="st33" d="M241.6,113.4l391.7,224.1l-131.5,75.1l-391.7-224L241.6,113.4z"/>
<path class="st34" d="M160.3,60.5l89.5-52.7l22.6,13.4l-86.1,47.6L160.3,60.5z"/>
<path class="st34" d="M276.9,6.5l48.3,29.4V150l-21.3-12.1c-2.4-16.3-12.4-33.2-24.4-40s-22-1.4-24.4,12.2l-15.9-9.1V28
	C239.3,8.9,260.2-3,276.9,6.5z"/>
<path class="st35" d="M163.8,166.4l14.1-8.4l13.3-6.7c0,0-11.3-3.6-12-4C178.4,146.8,160.1,153.3,163.8,166.4z"/>
<path class="st36" d="M180.9,167.2c0,13.4,8.2,28.9,18.4,34.7c10.1,5.8,18.4-0.4,18.4-13.8s-8.2-28.9-18.4-34.7
	C189.1,147.7,180.9,153.8,180.9,167.2z"/>
<path class="st36" d="M197.3,210.6l13.3-7.4l-23.7-50.5l-12.7,7L197.3,210.6z"/>
<path class="st37" d="M167.1,174.8c0,13.4,8.2,28.9,18.4,34.7c10.1,5.8,18.4-0.4,18.4-13.8s-8.2-28.9-18.4-34.7
	S167.1,161.4,167.1,174.8z"/>
<path class="st38" d="M173.5,178.9c0,8.7,5.3,18.8,11.9,22.5c6.6,3.8,11.9-0.2,11.9-8.9s-5.3-18.8-11.9-22.5
	S173.5,170.3,173.5,178.9z"/>
<path class="st39" d="M176.9,180.9c0,6.2,3.8,13.5,8.6,16.2s8.6-0.2,8.6-6.4s-3.8-13.5-8.6-16.2S176.9,174.6,176.9,180.9z"/>
<path class="st40" d="M181.3,183.4c0,3,1.9,6.5,4.1,7.8s4.1-0.1,4.1-3.1s-1.9-6.5-4.1-7.8C183.1,179,181.3,180.4,181.3,183.4z"/>
<path class="st40" d="M184.6,176.9c0,0.6,0.4,1.3,0.8,1.5c0.4,0.3,0.8,0,0.8-0.6s-0.4-1.3-0.8-1.5C185,176,184.6,176.3,184.6,176.9z
	"/>
<path class="st40" d="M179.3,176.9c0,0.6,0.4,1.3,0.8,1.5c0.4,0.3,0.8,0,0.8-0.6s-0.4-1.3-0.8-1.5
	C179.6,176,179.3,176.3,179.3,176.9z"/>
<path class="st40" d="M189.6,182.7c0,0.6,0.4,1.3,0.8,1.5c0.4,0.3,0.8,0,0.8-0.6s-0.4-1.3-0.8-1.5
	C189.9,181.9,189.6,182.1,189.6,182.7z"/>
<path class="st40" d="M179.3,187.9c0,0.6,0.4,1.3,0.8,1.5c0.4,0.3,0.8,0,0.8-0.6s-0.4-1.3-0.8-1.5
	C179.6,187,179.3,187.3,179.3,187.9z"/>
<path class="st40" d="M189.6,193.7c0,0.6,0.4,1.3,0.8,1.5c0.4,0.3,0.8,0,0.8-0.6s-0.4-1.3-0.8-1.5
	C189.9,192.9,189.6,193.2,189.6,193.7z"/>
<path class="st40" d="M178,181.9c0,0.6,0.4,1.3,0.8,1.5c0.4,0.3,0.8,0,0.8-0.6s-0.4-1.3-0.8-1.5S178,181.4,178,181.9z"/>
<path class="st40" d="M191.1,189.4c0,0.6,0.4,1.3,0.8,1.5c0.4,0.3,0.8,0,0.8-0.6s-0.4-1.3-0.8-1.5S191.1,188.9,191.1,189.4z"/>
<path class="st40" d="M184.6,193.7c0,0.6,0.4,1.3,0.8,1.5c0.4,0.3,0.8,0,0.8-0.6s-0.4-1.3-0.8-1.5S184.6,193.2,184.6,193.7z"/>
<path class="st41" d="M308.5,208.2L243,171.1l-36.8,21l65.8,37.3L308.5,208.2z"/>
<path class="st42" d="M206.2,192.2l66.1,37.4v17.8L206.2,210L206.2,192.2L206.2,192.2z"/>
<path class="st43" d="M210.4,207.5l36,20.4v2l-36-20.4V207.5L210.4,207.5z"/>
<path class="st43" d="M210.4,203.1l36,20.4v2l-36-20.4V203.1L210.4,203.1z"/>
<path class="st11" d="M231.3,91.4l-47.9-28.5l96-54.9l47.3,28.8L231.3,91.4z"/>
<path class="st11" d="M309.1,38.5c0,0-28.5-17.2-38.7-23.1c-5.7-3.3-12.2-6-12.2-6s1.1-8.5,14-5.7C286.4,6.8,309,16.4,309,16.4
	L309.1,38.5L309.1,38.5z"/>
<path class="st11" d="M185.7,48.6l75.8-43.9L304.6,19l-74.1,49.8L185.7,48.6z"/>
<path class="st44" d="M231.3,205.1l41-21.6V67.3l-41.1,23.5L231.3,205.1L231.3,205.1z"/>
<path class="st44" d="M230.5,83.6l78.6-43.2v-24l-78.6,45.1V83.6z"/>
<path class="st36" d="M434.5,296.8l-20.2,11.5v20.5l20.2-11.5V296.8z"/>
<path class="st36" d="M262.8,214.2c0,13.4,8.2,28.9,18.4,34.8c10.1,5.8,18.4-0.4,18.4-13.8s-8.2-28.9-18.4-34.8
	C271,194.7,262.8,200.8,262.8,214.2z"/>
<path class="st36" d="M279.3,257.6l13.3-7.4l-23.7-50.5l-12.7,7L279.3,257.6z"/>
<path class="st37" d="M249,221.8c0,13.4,8.2,28.9,18.4,34.7c10.1,5.8,18.4-0.4,18.4-13.8c0-13.4-8.2-28.9-18.4-34.7
	S249,208.4,249,221.8z"/>
<path class="st38" d="M255.4,225.9c0,8.7,5.3,18.8,11.9,22.5c6.6,3.8,11.9-0.2,11.9-8.9s-5.3-18.8-11.9-22.5
	S255.4,217.3,255.4,225.9z"/>
<path class="st39" d="M258.8,227.9c0,6.2,3.8,13.5,8.5,16.2s8.5-0.2,8.5-6.4s-3.8-13.5-8.5-16.2
	C262.6,218.8,258.8,221.6,258.8,227.9z"/>
<path class="st40" d="M263.2,230.4c0,3,1.9,6.5,4.1,7.8s4.1-0.1,4.1-3.1s-1.9-6.5-4.1-7.8S263.2,227.4,263.2,230.4z"/>
<path class="st40" d="M266.6,223.9c0,0.6,0.4,1.3,0.8,1.5s0.8,0,0.8-0.6s-0.4-1.3-0.8-1.5C266.9,223,266.6,223.3,266.6,223.9z"/>
<path class="st40" d="M261.2,223.9c0,0.6,0.4,1.3,0.8,1.5c0.4,0.3,0.8,0,0.8-0.6s-0.4-1.3-0.8-1.5
	C261.6,223,261.2,223.3,261.2,223.9z"/>
<path class="st40" d="M271.5,229.7c0,0.6,0.4,1.3,0.8,1.5s0.8,0,0.8-0.6s-0.4-1.3-0.8-1.5C271.8,228.9,271.5,229.1,271.5,229.7z"/>
<path class="st40" d="M261.2,234.9c0,0.6,0.4,1.3,0.8,1.5c0.4,0.3,0.8,0,0.8-0.6s-0.4-1.3-0.8-1.5S261.2,234.3,261.2,234.9z"/>
<path class="st40" d="M271.5,240.7c0,0.6,0.4,1.3,0.8,1.5s0.8,0,0.8-0.6s-0.4-1.3-0.8-1.5S271.5,240.1,271.5,240.7z"/>
<path class="st40" d="M259.9,228.9c0,0.6,0.4,1.3,0.8,1.5c0.4,0.3,0.8,0,0.8-0.6s-0.4-1.3-0.8-1.5
	C260.3,228.1,259.9,228.4,259.9,228.9z"/>
<path class="st40" d="M273.1,236.4c0,0.6,0.4,1.3,0.8,1.5c0.4,0.3,0.8,0,0.8-0.6s-0.4-1.3-0.8-1.5S273.1,235.9,273.1,236.4z"/>
<path class="st40" d="M266.6,240.7c0,0.6,0.4,1.3,0.8,1.5s0.8,0,0.8-0.6s-0.4-1.3-0.8-1.5C266.9,239.9,266.6,240.1,266.6,240.7z"/>
<path class="st36" d="M305.9,239.2c0,13.4,8.2,28.9,18.4,34.7c10.1,5.8,18.4-0.4,18.4-13.8s-8.2-28.9-18.4-34.8
	C314.1,219.6,305.9,225.8,305.9,239.2z"/>
<path class="st36" d="M322.4,282.6l13.3-7.4L312,224.7l-12.7,7L322.4,282.6z"/>
<path class="st37" d="M292.1,246.8c0,13.4,8.2,29,18.4,34.8c10.1,5.8,18.4-0.4,18.4-13.8s-8.2-28.9-18.4-34.7
	C300.3,227.3,292.1,233.4,292.1,246.8z"/>
<path class="st38" d="M298.6,250.9c0,8.7,5.3,18.8,11.9,22.5s11.9-0.2,11.9-8.9s-5.3-18.8-11.9-22.5S298.6,242.3,298.6,250.9z"/>
<path class="st39" d="M301.9,252.9c0,6.2,3.8,13.5,8.5,16.2s8.5-0.2,8.5-6.4c0-6.2-3.8-13.5-8.5-16.2
	C305.8,243.8,301.9,246.6,301.9,252.9z"/>
<path class="st40" d="M306.4,255.4c0,3,1.9,6.5,4.1,7.8s4.1-0.1,4.1-3.1s-1.9-6.5-4.1-7.8C308.2,251,306.4,252.4,306.4,255.4z"/>
<path class="st40" d="M309.7,248.9c0,0.6,0.4,1.3,0.8,1.5s0.8,0,0.8-0.6s-0.4-1.3-0.8-1.5C310,248,309.7,248.3,309.7,248.9z"/>
<path class="st40" d="M304.3,248.9c0,0.6,0.4,1.3,0.8,1.5s0.8,0,0.8-0.6s-0.4-1.3-0.8-1.5C304.7,248,304.3,248.3,304.3,248.9z"/>
<path class="st40" d="M314.6,254.7c0,0.6,0.4,1.3,0.8,1.5c0.4,0.3,0.8,0,0.8-0.6s-0.4-1.3-0.8-1.5
	C315,253.9,314.6,254.1,314.6,254.7z"/>
<path class="st40" d="M304.3,259.9c0,0.6,0.4,1.3,0.8,1.5s0.8,0,0.8-0.6s-0.4-1.3-0.8-1.5S304.3,259.3,304.3,259.9z"/>
<path class="st40" d="M314.6,265.7c0,0.6,0.4,1.3,0.8,1.5s0.8,0,0.8-0.6s-0.4-1.3-0.8-1.5S314.6,265.1,314.6,265.7z"/>
<path class="st40" d="M303,253.9c0,0.6,0.4,1.3,0.8,1.5c0.4,0.3,0.8,0,0.8-0.6s-0.4-1.3-0.8-1.5C303.4,253.1,303,253.4,303,253.9z"
	/>
<path class="st40" d="M316.2,261.4c0,0.6,0.4,1.3,0.8,1.5c0.4,0.3,0.8,0,0.8-0.6s-0.4-1.3-0.8-1.5
	C316.5,260.6,316.2,260.8,316.2,261.4z"/>
<path class="st40" d="M309.7,265.7c0,0.6,0.4,1.3,0.8,1.5s0.8,0,0.8-0.6s-0.4-1.3-0.8-1.5C310,264.9,309.7,265.1,309.7,265.7z"/>
<path class="st41" d="M451,290.2l-81.3-47.7l-36.8,21l81.3,47.7L451,290.2z"/>
<path class="st42" d="M414.3,311.1v17.8L333,281.3v-17.8L414.3,311.1z"/>
<path class="st43" d="M414.3,323.7v2l-77.9-45.2v-2L414.3,323.7z"/>
<path class="st43" d="M414.3,319.3v2l-77.9-45.2v-2L414.3,319.3z"/>
<path class="st36" d="M431.3,310.1c0,13.4,8.2,29,18.4,34.7c10.1,5.8,18.4-0.4,18.4-13.8s-8.2-29-18.4-34.7S431.3,296.8,431.3,310.1
	z"/>
<path class="st36" d="M447.7,353.5l13.3-7.4l-23.7-50.5l-12.7,7L447.7,353.5z"/>
<path class="st37" d="M417.4,317.8c0,13.4,8.2,29,18.4,34.8c10.1,5.8,18.4-0.4,18.4-13.8s-8.2-29-18.4-34.8
	C425.7,298.2,417.4,304.4,417.4,317.8z"/>
<path class="st38" d="M423.9,321.9c0,8.7,5.3,18.8,11.9,22.5c6.6,3.8,11.9-0.2,11.9-8.9s-5.3-18.8-11.9-22.5
	C429.2,309.2,423.9,313.2,423.9,321.9z"/>
<path class="st39" d="M427.3,323.8c0,6.2,3.8,13.5,8.5,16.2s8.5-0.2,8.5-6.4c0-6.2-3.8-13.5-8.5-16.2
	C431.1,314.7,427.3,317.6,427.3,323.8z"/>
<path class="st40" d="M431.7,326.3c0,3,1.9,6.5,4.1,7.8s4.1-0.1,4.1-3.1s-1.9-6.5-4.1-7.8C433.5,321.9,431.7,323.3,431.7,326.3z"/>
<path class="st40" d="M435,319.8c0,0.6,0.4,1.3,0.8,1.5s0.8,0,0.8-0.6s-0.4-1.3-0.8-1.5C435.4,319,435,319.2,435,319.8z"/>
<path class="st40" d="M429.7,319.8c0,0.6,0.4,1.3,0.8,1.5s0.8,0,0.8-0.6s-0.4-1.3-0.8-1.5C430,319,429.7,319.2,429.7,319.8z"/>
<path class="st40" d="M440,325.7c0,0.6,0.4,1.3,0.8,1.5c0.4,0.3,0.8,0,0.8-0.6s-0.4-1.3-0.8-1.5C440.3,324.8,440,325.1,440,325.7z"
	/>
<path class="st40" d="M429.7,330.8c0,0.6,0.4,1.3,0.8,1.5s0.8,0,0.8-0.6s-0.4-1.3-0.8-1.5C430,330,429.7,330.2,429.7,330.8z"/>
<path class="st40" d="M440,336.7c0,0.6,0.4,1.3,0.8,1.5c0.4,0.3,0.8,0,0.8-0.6s-0.4-1.3-0.8-1.5C440.3,335.8,440,336.1,440,336.7z"
	/>
<path class="st40" d="M428.4,324.9c0,0.6,0.4,1.3,0.8,1.5s0.8,0,0.8-0.6s-0.4-1.3-0.8-1.5C428.7,324,428.4,324.3,428.4,324.9z"/>
<path class="st40" d="M441.5,332.4c0,0.6,0.4,1.3,0.8,1.5s0.8,0,0.8-0.6s-0.4-1.3-0.8-1.5C441.9,331.5,441.5,331.8,441.5,332.4z"/>
<path class="st40" d="M435,336.7c0,0.6,0.4,1.3,0.8,1.5s0.8,0,0.8-0.6s-0.4-1.3-0.8-1.5C435.4,335.8,435,336.1,435,336.7z"/>
<path class="st36" d="M469.5,332c0,13.4,8.2,29,18.4,34.7c10.1,5.8,18.4-0.4,18.4-13.8s-8.2-29-18.4-34.7S469.5,318.6,469.5,332z"/>
<path class="st36" d="M486,375.4l13.3-7.4l-23.7-50.5l-12.7,7L486,375.4z"/>
<path class="st37" d="M455.7,339.7c0,13.4,8.2,29,18.4,34.8c10.1,5.8,18.4-0.4,18.4-13.8s-8.2-29-18.4-34.8
	C463.9,320.1,455.7,326.3,455.7,339.7z"/>
<path class="st38" d="M462.1,343.8c0,8.7,5.3,18.8,11.9,22.5c6.6,3.8,11.9-0.2,11.9-8.9s-5.3-18.8-11.9-22.5
	C467.5,331.1,462.1,335.1,462.1,343.8z"/>
<path class="st39" d="M465.5,345.7c0,6.2,3.8,13.5,8.5,16.2s8.5-0.2,8.5-6.4c0-6.2-3.8-13.5-8.5-16.2
	C469.4,336.6,465.5,339.5,465.5,345.7z"/>
<path class="st40" d="M469.9,348.2c0,3,1.9,6.5,4.1,7.8s4.1-0.1,4.1-3.1s-1.9-6.5-4.1-7.8C471.8,343.8,469.9,345.2,469.9,348.2z"/>
<path class="st40" d="M473.3,341.7c0,0.6,0.4,1.3,0.8,1.5s0.8,0,0.8-0.6s-0.4-1.3-0.8-1.5C473.6,340.9,473.3,341.1,473.3,341.7z"/>
<path class="st40" d="M467.9,341.7c0,0.6,0.4,1.3,0.8,1.5s0.8,0,0.8-0.6s-0.4-1.3-0.8-1.5S467.9,341.1,467.9,341.7z"/>
<path class="st40" d="M478.2,347.6c0,0.6,0.4,1.3,0.8,1.5c0.4,0.3,0.8,0,0.8-0.6s-0.4-1.3-0.8-1.5
	C478.5,346.7,478.2,347,478.2,347.6z"/>
<path class="st40" d="M467.9,352.7c0,0.6,0.4,1.3,0.8,1.5s0.8,0,0.8-0.6s-0.4-1.3-0.8-1.5S467.9,352.1,467.9,352.7z"/>
<path class="st40" d="M478.2,358.6c0,0.6,0.4,1.3,0.8,1.5c0.4,0.3,0.8,0,0.8-0.6s-0.4-1.3-0.8-1.5
	C478.5,357.7,478.2,358,478.2,358.6z"/>
<path class="st40" d="M466.6,346.8c0,0.6,0.4,1.3,0.8,1.5s0.8,0,0.8-0.6s-0.4-1.3-0.8-1.5C467,345.9,466.6,346.2,466.6,346.8z"/>
<path class="st40" d="M479.8,354.3c0,0.6,0.4,1.3,0.8,1.5s0.8,0,0.8-0.6s-0.4-1.3-0.8-1.5C480.1,353.4,479.8,353.7,479.8,354.3z"/>
<path class="st40" d="M473.3,358.6c0,0.6,0.4,1.3,0.8,1.5s0.8,0,0.8-0.6s-0.4-1.3-0.8-1.5C473.6,357.7,473.3,358,473.3,358.6z"/>
<path class="st37" d="M501,359.9c5.4-2.7,13.2-6.8,13.2-6.8l-15.7-7.1L501,359.9z"/>
<path class="st38" d="M475.6,317.5l1.5,0.9c14.8,8.7,24,24.5,24,41.5l-4.4-2.6l-0.3-1.8c-1.9-10.8-7.6-20.5-16.2-27.4l-1.9-1.6
	L475.6,317.5z"/>
<path class="st45" d="M525.9,212.9l-274.8-157l96.4-55.1l274.8,156.9L525.9,212.9z"/>
<path class="st46" d="M607.9,160.6L342.9,9.4l5.5-2.8l265,151.2L607.9,160.6z"/>
<path class="st46" d="M525.4,207.5l-265-151.2l5.5-2.8l265,151.2L525.4,207.5z"/>
<path class="st36" d="M618.5,305.3v15.6L522.1,376v-15.5L618.5,305.3z"/>
<path class="st37" d="M517.7,357.7l4.6,2.6v15.5l-4.6-2.6V357.7z"/>
<path class="st44" d="M526.7,370.5l6.3-3.6v-8.3l-6.3,3.6V370.5z"/>
<path class="st21" d="M525,361.3l1.7,1v8.3l-1.7-1V361.3z"/>
<path class="st47" d="M525,361.3l6.3-3.6l1.7,1l-6.3,3.6L525,361.3z"/>
<path class="st44" d="M609.7,321.5l6.3-3.6v-8.3l-6.3,3.6V321.5z"/>
<path class="st21" d="M608,312.3l1.7,1v8.3l-1.7-1V312.3z"/>
<path class="st47" d="M608,312.3l6.3-3.6l1.7,1l-6.3,3.6L608,312.3z"/>
<path class="st48" d="M622.3,157.8V277v9.4v21.4l-96.4,55.1v-21.4v-9.3V212.9L622.3,157.8z"/>
<path class="st37" d="M529.3,215.3l89.5-51.5v105.9v8.3v27.3l-0.1,0.1l-89.4-51.1V215.3L529.3,215.3z"/>
<path class="st42" d="M529.3,254.4l89.4,51.1l-89.4,51.4V254.4L529.3,254.4z"/>
<path class="st39" d="M369,147.4l74.5,42.5l11.2,14.5L369,155.6V147.4z"/>
<path class="st39" d="M369,133.1l56.5,32.9l11.2,14.5L369,141.2V133.1z"/>
<path class="st49" d="M525.9,212.6v119.5v16.7v14L251.1,205.9v-14v-16.8V55.6L525.9,212.6z"/>
<path class="st50" d="M510.1,212.5l3.6,2v131.3l-3.6-2V212.5z"/>
<path class="st50" d="M494.1,203.4l3.6,2v131.3l-3.6-2V203.4z"/>
<path class="st50" d="M288.6,85.1l3.6,2v131.3l-3.6-2V85.1z"/>
<path class="st50" d="M272.6,76l3.6,2v131.3l-3.6-2V76z"/>
<path class="st39" d="M265.9,207.8l-6.3-3.6v-8.3l6.3,3.6V207.8z"/>
<path class="st51" d="M267.6,198.6l-1.7,1v8.3l1.7-1V198.6z"/>
<path class="st52" d="M267.6,198.6l-6.3-3.6l-1.7,1l6.3,3.6L267.6,198.6z"/>
<path class="st39" d="M471.2,325.6l-6.3-3.6v-8.3l6.3,3.6V325.6z"/>
<path class="st51" d="M472.9,316.4l-1.7,1v8.3l1.7-1V316.4z"/>
<path class="st52" d="M472.9,316.4l-6.3-3.6l-1.7,1l6.3,3.6L472.9,316.4z"/>
<path class="st48" d="M623.6,162.1l48.3,27.6v141.5l-48.3-27.6V162.1z"/>
<path class="st46" d="M671.9,331.2l2.9-2.1V187.6l-2.9,2.1V331.2z"/>
<path class="st53" d="M623.6,162.1l2.9-2.1l48.3,27.6l-2.9,2.1L623.6,162.1z"/>
<path class="st46" d="M666.9,323.4l-17.7-9.8V182l17.7,9.8V323.4z"/>
<path class="st46" d="M645.1,311l-17.7-9.8V169.6l17.7,9.8V311z"/>
<path class="st21" d="M183.2,61.6L231.5,91v114.2L210.2,193c-2.4-16.3-12.4-33.2-24.4-40s-22-1.4-24.4,12.1l-15.9-9.1V83
	C145.6,64,166.5,52.1,183.2,61.6z"/>
<path class="st16" d="M195.8,69.5l3.1,1.8v95.2l-3.1-3.7V69.5z"/>
<path class="st39" d="M185.9,155.4c10.9,6.2,19.9,21.5,22.1,36.3l2.3,1.3c-2.4-16.3-12.4-33.2-24.4-40c-12-6.9-22-1.4-24.4,12.1
	l2.3,1.3C165.9,154.1,175,149.2,185.9,155.4z"/>
<path class="st21" d="M230.5,83.6c0,0-28.4-17.2-38.7-23.1c-5.7-3.3-12.2-6-12.2-6s1.1-8.5,14-5.7c14.2,3.1,36.8,12.7,36.8,12.7
	L230.5,83.6L230.5,83.6z"/>
<path class="st40" d="M182.7,96.5c0-4.8-3-10.4-6.6-12.4l-13.5-7.7c-1.4-0.8-2.7-0.9-3.8-0.5c1.1-2.2,3.3-3,5.9-1.5l13.5,7.7
	c3.6,2.1,6.6,7.7,6.6,12.4v30.8c0,2.9-1.1,4.8-2.8,5.5c0.4-0.9,0.7-2.1,0.7-3.4L182.7,96.5L182.7,96.5z"/>
<path class="st37" d="M178.2,130.2l-13.5-7.7c-3.6-2.1-6.6-7.7-6.6-12.4V79.3c0-1.4,0.3-2.5,0.7-3.4c1.1-0.4,2.4-0.3,3.8,0.5
	l13.5,7.7c3.6,2.1,6.6,7.7,6.6,12.4v30.8c0,1.4-0.3,2.5-0.7,3.4C180.9,131.2,179.6,131,178.2,130.2z"/>
<path class="st48" d="M137.9,148.4l18.8,10.7v9.8l-18.8-10.7V148.4z"/>
<path class="st46" d="M161.8,156.2v9.8l-5.1,2.9v-9.8L161.8,156.2z"/>
<path class="st53" d="M161.8,156.2l-16.1-9V144l-7.7,4.5l18.8,10.7L161.8,156.2z"/>
<path class="st39" d="M223.1,185.8l-6.3-3.6v-8.3l6.3,3.6V185.8z"/>
<path class="st51" d="M224.8,176.6l-1.7,1v8.3l1.7-1V176.6z"/>
<path class="st52" d="M224.8,176.6l-6.3-3.6l-1.7,1l6.3,3.6L224.8,176.6z"/>
<path class="st3" d="M529.3,247.7l31.6-18.1v50.9l-31.6,18.1V247.7z"/>
<path class="st5" d="M532.6,213.4l28.3,16.2l-31.6,18.1v-32.3L532.6,213.4z"/>
<path class="st7" d="M548.3,249.1l-7.6,4.4v-12.3l7.6-4.4V249.1z"/>
<path class="st6" d="M529.3,226l19,10.9l-7.6,4.4l-11.4-6.5V226L529.3,226z"/>
<path class="st7" d="M553.1,246.6v7.5l5.5-3.1v-7.5L553.1,246.6z"/>
<path class="st3" d="M569.2,324.5v-23.2l34-19.5V305L569.2,324.5z"/>
<path class="st2" d="M569.2,324.5v-23.2l-34-19.5V305L569.2,324.5z"/>
<path class="st5" d="M535.2,281.8l34,19.5l34-19.5l-34-19.5L535.2,281.8z"/>
<path class="st7" d="M590.6,301.3l-7.6,4.4v-12.3l7.6-4.4V301.3z"/>
<path class="st6" d="M590.6,289l-34-19.5l-7.6,4.4l34,19.5L590.6,289z"/>
<path class="st7" d="M573.7,318.4v-2.2l11.4-6.6v2.2L573.7,318.4z"/>
<path class="st7" d="M573.7,314.5v-2.2l11.4-6.6v2.2L573.7,314.5z"/>
<path class="st7" d="M595.4,298.8v7.5l5.5-3.1v-7.5L595.4,298.8z"/>
<path class="st7" d="M542,299.2v7.8l-5.5-3.1v-7.8L542,299.2z"/>
<path class="st7" d="M549.5,303.5v7.8l-5.5-3.1v-7.8L549.5,303.5z"/>
<path class="st6" d="M567.7,302.2v11.3l-11.2-6.4v-11.3L567.7,302.2z"/>
<path class="st7" d="M566.3,304.5v-1.8l-8.8-5v1.8L566.3,304.5z"/>
<path class="st3" d="M529.4,323.9l28.8-16.5v23.2l-28.8,16.5V323.9z"/>
<path class="st5" d="M529.4,290.9l28.8,16.5l-28.8,16.5V290.9z"/>
<path class="st7" d="M545.6,326.9l-7.6,4.4V319l7.6-4.4V326.9z"/>
<path class="st6" d="M529.4,305.4l16.2,9.2L538,319l-8.6-4.9V305.4L529.4,305.4z"/>
<path class="st3" d="M529.4,298.8l12.7-7.2v13.6l-12.7,7.3V298.8z"/>
<path class="st5" d="M529.4,284.4l12.7,7.2l-12.7,7.2V284.4z"/>
<path class="st7" d="M529.4,298.8l7.1-4.1v7.1l-7.1,4.1V298.8z"/>
<path class="st3" d="M569.6,295.3v-13.6l22-12.6v13.6L569.6,295.3z"/>
<path class="st2" d="M569.6,295.3v-13.6L543.9,267v13.6L569.6,295.3z"/>
<path class="st5" d="M543.9,267l25.7,14.7l22-12.6l-25.7-14.7L543.9,267z"/>
<path class="st7" d="M571.2,292.8v-1.4l7.4-4.2v1.4L571.2,292.8z"/>
<path class="st7" d="M571.2,290.3v-1.4l7.4-4.2v1.4L571.2,290.3z"/>
<path class="st7" d="M549.4,272.5v6.3l-4.4-2.5V270L549.4,272.5z"/>
<path class="st6" d="M567.8,283.1v7.5l-11.2-6.4v-7.5L567.8,283.1z"/>
<path class="st7" d="M566.5,285.4v-1.8l-8.8-5v1.8L566.5,285.4z"/>
<path class="st7" d="M586,279.4l-7.6,4.4v-7.1l7.6-4.4V279.4z"/>
<path class="st6" d="M586,272.3l-25.6-14.7l-7.6,4.4l25.7,14.7L586,272.3z"/>
<path class="st48" d="M533.3,215L485,242.6v141.5l48.3-27.6V215z"/>
<path class="st50" d="M485,384.1l-2.9-2.1V240.5l2.9,2.1V384.1z"/>
<path class="st53" d="M533.3,215l-2.9-2.1l-48.3,27.6l2.9,2.1L533.3,215z"/>
<path class="st46" d="M490,376.3l17.7-9.8V234.9l-17.7,9.8V376.3z"/>
<path class="st46" d="M511.8,363.9l17.7-9.8V222.5l-17.7,9.8V363.9z"/>
<path class="st21" d="M365.5,192.2l6.5,3.7c2.6,1.5,4.7,3.5,6.4,5.9c1.6,2.4,2.4,5.1,2.4,8.1s-0.8,4.8-2.5,5.4
	c-1.6,0.6-3.9,0.1-6.6-1.5l-11.6-6.6V179l18.4,10.5v5.1l-13-7.4L365.5,192.2L365.5,192.2z M375.5,206.8c0-2.7-1.4-4.8-4.3-6.5
	l-5.7-3.3v8.1l5.8,3.3C374.1,210.1,375.5,209.5,375.5,206.8z"/>
<path class="st21" d="M403.1,203.6v5.1l-13.2-7.5v6.1l12.1,6.9v4.9l-12.1-6.9v6.9l13.4,7.7v5.2l-18.8-10.8v-28.1L403.1,203.6z"/>
<path class="st21" d="M425.5,216.4v5.3l-7.5-4.3v22.9l-5.5-3.1v-22.9L405,210v-5.3L425.5,216.4z"/>
<path class="st21" d="M440.7,225l9.4,33.6l-5.7-3.3l-2-7.4l-9.2-5.3l-2,5.1l-5.6-3.2l9.4-22.8L440.7,225z M441.1,242.6l-3.3-12.3
	l-3.3,8.6L441.1,242.6z"/>
<path class="st54" d="M362,225.9l-1.8-1.1V215l1.4,0.8v8.1l0,0l3.9-5.8l1.8,1.1v9.9l-1.4-0.8v-8.1l0,0L362,225.9z"/>
<path class="st54" d="M374.3,232.9l-1.4-0.8v-9.9l1.4,0.8v3.9l4.4,2.5v-3.9l1.4,0.8v9.9l-1.4-0.8v-4.5l-4.4-2.5V232.9z"/>
<path class="st54" d="M397.4,241c0,1-0.1,1.8-0.3,2.4c-0.2,0.6-0.6,1.1-1.1,1.3s-1.2,0.1-2-0.4c-0.3-0.2-0.6-0.5-1-0.9
	s-0.6-0.8-0.8-1.1l0,0v4.6l-1.4-0.8v-4.6l0,0c-0.2,0.1-0.5,0.2-0.8,0.2s-0.7-0.1-1-0.3c-0.8-0.5-1.5-1.1-2-1.9
	c-0.5-0.8-0.9-1.7-1.1-2.6c-0.2-0.9-0.3-1.8-0.3-2.8c0-1.6,0.3-2.6,0.9-3.2c0.6-0.6,1.4-0.5,2.5,0.1c0.4,0.2,0.7,0.5,1.1,1
	c0.4,0.4,0.6,0.8,0.8,1.2l0,0v-4.6l1.4,0.8v4.6l0,0c0.2-0.2,0.4-0.3,0.8-0.3s0.8,0.1,1.1,0.3c1,0.6,1.9,1.5,2.5,2.8
	C397,238.1,397.4,239.5,397.4,241z M390.6,239.8v-5c-0.1-0.6-0.4-1-0.7-1.4c-0.3-0.4-0.7-0.7-1.1-0.9c-0.7-0.4-1.2-0.4-1.6,0.1
	s-0.5,1.3-0.5,2.4c0,0.5,0,1,0.1,1.4s0.2,0.9,0.3,1.4c0.2,0.5,0.4,0.9,0.7,1.3c0.3,0.4,0.6,0.7,1.1,1c0.4,0.2,0.8,0.3,1.1,0.3
	S390.5,240.2,390.6,239.8z M395.9,240.2c0-1.1-0.2-2.1-0.5-3s-0.9-1.5-1.6-1.9c-0.4-0.2-0.7-0.3-1.1-0.3s-0.6,0.2-0.7,0.6v5
	c0.1,0.4,0.2,0.8,0.6,1.2s0.7,0.8,1.1,1s0.8,0.3,1.1,0.3c0.3-0.1,0.5-0.3,0.7-0.6s0.3-0.7,0.3-1.1
	C395.8,241.2,395.9,240.7,395.9,240.2z"/>
<path class="st54" d="M403.2,240.7c0.8-0.5,1.8-0.4,3.1,0.4c1.3,0.8,2.3,1.8,3.1,3.1s1.1,2.8,1.1,4.4c0,1.7-0.4,2.8-1.1,3.3
	s-1.8,0.4-3.1-0.4s-2.4-1.8-3.1-3.2c-0.8-1.4-1.1-2.8-1.1-4.5C402,242.3,402.4,241.2,403.2,240.7z M408.3,244.6
	c-0.5-1-1.1-1.7-2-2.2c-0.8-0.5-1.5-0.5-2-0.1s-0.7,1.2-0.7,2.4s0.2,2.3,0.7,3.3s1.2,1.7,2,2.2s1.5,0.5,2,0.1s0.7-1.2,0.7-2.4
	C409,246.6,408.7,245.6,408.3,244.6z"/>
<path class="st54" d="M423.3,261l-1.8-1l-3.2-6.7l-1.4,0.7v3.4l-1.4-0.8v-9.9l1.4,0.8v4.7l4-2.4l1.9,1.1l-3.5,1.9L423.3,261z"/>
<path class="st54" d="M428.3,255.1c0.8-0.5,1.8-0.4,3.1,0.4s2.3,1.8,3.1,3.1c0.7,1.3,1.1,2.8,1.1,4.4c0,1.7-0.4,2.8-1.1,3.3
	s-1.8,0.4-3.1-0.4s-2.4-1.8-3.1-3.2c-0.8-1.4-1.1-2.8-1.1-4.5C427.2,256.6,427.6,255.6,428.3,255.1z M433.4,259
	c-0.5-1-1.1-1.7-2-2.2c-0.8-0.5-1.5-0.5-2-0.1s-0.7,1.2-0.7,2.4c0,1.2,0.2,2.3,0.7,3.3s1.2,1.7,2,2.2s1.5,0.5,2,0.1s0.7-1.2,0.7-2.4
	C434.1,261,433.9,259.9,433.4,259z"/>
<path class="st54" d="M450.1,276.3l-1.4-0.8v-7.8l0,0l-2.6,6.3l-1.3-0.8l-2.6-9.3l0,0v7.8l-1.4-0.8V261l2.1,1.2l2.6,9.5l0,0l2.6-6.5
	l2.1,1.2L450.1,276.3L450.1,276.3z"/>
<path class="st21" d="M319.9,163.6l-14.8-2.5v22.2l14.8,4.4V163.6z"/>
<path class="st54" d="M321.6,188.3l14.8,4.4v-26.3l-14.8-2.5V188.3z"/>
<path class="st21" d="M338.1,166.7v26.5l14.8,4.4v-28.5L338.1,166.7z"/>
<path class="st21" d="M338.1,216.7l14.8,10.2v-27.3l-14.8-4.3V216.7z"/>
<path class="st21" d="M319.9,189.9l-14.8-4.4v8.4l14.8,10.2V189.9z"/>
<path class="st21" d="M321.6,205.3l14.8,10.2v-20.7l-14.8-4.4V205.3z"/>
</svg>
