<?xml version="1.0" encoding="utf-8"?>
<!-- Generator: Adobe Illustrator 24.0.2, SVG Export Plug-In . SVG Version: 6.00 Build 0)  -->
<svg version="1.1" id="Layer_1" xmlns="http://www.w3.org/2000/svg" xmlns:xlink="http://www.w3.org/1999/xlink" x="0px" y="0px"
	 viewBox="0 0 1016.36 642" style="enable-background:new 0 0 1016.36 642;" xml:space="preserve">
<style type="text/css">
	.st0{fill:url(#SVGID_1_);}
	.st1{fill:#594126;}
	.st2{fill:#8A6238;}
	.st3{fill:#9C754E;}
	.st4{fill:#87623F;}
	.st5{fill:#D2D2D2;}
	.st6{fill:#CAAE68;}
	.st7{fill:#72522F;}
	.st8{fill:#A98647;}
	.st9{fill:#85693F;}
	.st10{fill:#9F7D4A;}
	.st11{fill:#AE835B;}
	.st12{fill:#C2A35D;}
	.st13{fill:none;stroke:#8F5E16;stroke-width:0.2252;stroke-miterlimit:10;}
	.st14{fill:#E8B687;}
	.st15{fill:#C99A6B;}
	.st16{fill:#F4D5BE;}
</style>
<linearGradient id="SVGID_1_" gradientUnits="userSpaceOnUse" x1="1016.3574" y1="707.32" x2="2.587643e-03" y2="707.32" gradientTransform="matrix(1 0 0 1 0 -356)">
	<stop  offset="0" style="stop-color:#F1F1F1"/>
	<stop  offset="0.9896" style="stop-color:#F1F1F1;stop-opacity:0"/>
</linearGradient>
<path class="st0" d="M147.78,145.35c197.8-113.03,519.6-112.44,718.6,1.29c199.1,113.72,200.1,297.62,2.2,410.65
	c-197.8,113.03-519.6,112.44-718.6-1.29C-49.12,442.27-50.12,258.38,147.78,145.35z"/>
<path class="st1" d="M402.58,413.87l-22.4,14.25v-27.51L402.58,413.87z"/>
<path class="st2" d="M361.48,366.56v13.66l24.6,13.95V382.2L361.48,366.56z"/>
<path class="st3" d="M426.98,368.83l-32.2-18.21V323.1l32.2,18.21V368.83z"/>
<path class="st4" d="M425.18,365.27l-28.6-16.13v-1.29l28.6,16.23V365.27z"/>
<path class="st4" d="M425.18,361.81l-28.6-16.13v-1.29l28.6,16.23V361.81z"/>
<path class="st4" d="M425.18,358.44l-28.6-16.23v-1.19l28.6,16.13V358.44z"/>
<path class="st4" d="M425.18,354.98l-28.6-16.23v-1.19l28.6,16.13V354.98z"/>
<path class="st4" d="M425.18,348.45l-28.6-16.13v-3.96l28.6,16.13V348.45z"/>
<path class="st3" d="M426.98,245.11L394.78,227v-27.51l32.2,18.21V245.11z"/>
<path class="st3" d="M425.18,241.65l-28.6-16.13v-1.29l28.6,16.23V241.65z"/>
<path class="st4" d="M425.18,238.19l-28.6-16.13v-1.29l28.6,16.23V238.19z"/>
<path class="st4" d="M425.18,234.82l-28.6-16.23v-1.19l28.6,16.13V234.82z"/>
<path class="st4" d="M425.18,231.36l-28.6-16.23v-1.19l28.6,16.13V231.36z"/>
<path class="st4" d="M425.18,224.82l-28.6-16.13v-3.96l28.6,16.13V224.82z"/>
<path class="st5" d="M557.18,346.56l-167.1,95.71l-112.1-66.02l167-95.81L557.18,346.56z"/>
<path class="st6" d="M846.88,379.52l-24.7,15.64L578.78,256.6l24.6-15.64L846.88,379.52z"/>
<path class="st7" d="M822.18,395.16v47.41L578.78,304.1v-47.5L822.18,395.16z"/>
<path class="st8" d="M719.18,346.17v27.42l86.4,49.09v-27.22L719.18,346.17z"/>
<path class="st8" d="M597.48,277.08v27.42l86.5,49.19v-27.42L597.48,277.08z"/>
<path class="st9" d="M846.88,379.52v49.09l-24.7,13.96v-47.41L846.88,379.52z"/>
<path class="st1" d="M619.88,290.35l-22.4,14.15v-27.42L619.88,290.35z"/>
<path class="st1" d="M741.58,359.33l-22.4,14.25v-27.42L741.58,359.33z"/>
<path class="st6" d="M738.18,441.28l-24.6,15.64l-243.5-138.57l24.7-15.64L738.18,441.28z"/>
<path class="st7" d="M713.58,456.92v47.51l-243.5-138.57v-47.51L713.58,456.92z"/>
<path class="st8" d="M610.58,407.93v27.42l86.3,49.19v-27.32L610.58,407.93z"/>
<path class="st8" d="M488.88,338.84v27.42l86.5,49.19v-27.42L488.88,338.84z"/>
<path class="st9" d="M738.18,441.28v49.09l-24.6,14.05v-47.51L738.18,441.28z"/>
<path class="st1" d="M511.18,352.11l-22.3,14.15v-27.42L511.18,352.11z"/>
<path class="st1" d="M632.98,421.19l-22.4,14.15v-27.42L632.98,421.19z"/>
<path class="st6" d="M629.58,503.05l-24.7,15.64l-243.4-138.47l24.6-15.64L629.58,503.05z"/>
<path class="st7" d="M604.88,518.68v47.51l-243.4-138.56v-47.41L604.88,518.68z"/>
<path class="st8" d="M501.88,469.69v27.42l86.4,49.19v-27.22L501.88,469.69z"/>
<path class="st8" d="M380.18,400.61v27.51l86.5,49.09V449.8L380.18,400.61z"/>
<path class="st9" d="M629.58,503.05v49.09l-24.7,14.05v-47.51L629.58,503.05z"/>
<path class="st1" d="M524.28,482.95l-22.4,14.15v-27.42L524.28,482.95z"/>
<path class="st6" d="M580.18,491.17l24.7,15.64l242-139.26l-24.7-15.64L580.18,491.17z"/>
<path class="st10" d="M604.88,506.81v11.88l242-139.16v-11.98L604.88,506.81z"/>
<path class="st2" d="M580.18,491.17v13.56l24.7,13.96v-11.88L580.18,491.17z"/>
<path class="st6" d="M525.48,459.99l24.7,15.64l242-139.16l-24.7-15.64L525.48,459.99z"/>
<path class="st10" d="M550.18,475.63v11.98l242-139.26v-11.88L550.18,475.63z"/>
<path class="st2" d="M525.48,459.99v13.56l24.7,14.06v-11.98L525.48,459.99z"/>
<path class="st6" d="M470.88,428.91l24.6,15.54l242-139.16l-24.7-15.64L470.88,428.91z"/>
<path class="st10" d="M495.48,444.45v11.98l242-139.16v-11.98L495.48,444.45z"/>
<path class="st2" d="M470.88,428.91v13.56l24.6,13.96v-11.98L470.88,428.91z"/>
<path class="st6" d="M416.18,397.73l24.6,15.64l242-139.16l-24.7-15.64L416.18,397.73z"/>
<path class="st10" d="M440.78,413.37v11.98l242-139.26v-11.88L440.78,413.37z"/>
<path class="st2" d="M416.18,397.73v13.56l24.6,14.05v-11.98L416.18,397.73z"/>
<path class="st6" d="M361.48,366.56l24.6,15.64l242-139.16l-24.7-15.64L361.48,366.56z"/>
<path class="st10" d="M386.08,382.2v11.98l242-139.16v-11.98L386.08,382.2z"/>
<path class="st11" d="M605.58,358.64l-112.1-63.94V175.34l112.1,63.94V358.64z"/>
<path class="st12" d="M694.58,188.2l-89,51.07v119.36l89-50.77V188.2z"/>
<path class="st13" d="M643.48,233.04l-27.2,15.54V285l27.2-15.44V233.04z"/>
<path class="st4" d="M634.08,252.93l-0.1,18.11l-8.4,4.75v-18.11l-4.2,2.38l8.5-17.82l8.4,8.31L634.08,252.93z"/>
<path class="st14" d="M694.58,188.2l-89,51.07l-52.6-30.09l-17.1-9.7l-42.4-24.25l89-51.07l42.5,24.25l17.1,9.8L694.58,188.2z"/>
<path class="st14" d="M552.98,209.19l-17.1-9.7l89.1-51.07l17.1,9.8L552.98,209.19z"/>
<path class="st5" d="M533.88,307.37l-32.1-18.11v-27.51l32.1,18.21V307.37z"/>
<path class="st3" d="M532.18,303.91l-28.6-16.13v-1.29l28.6,16.23V303.91z"/>
<path class="st3" d="M532.18,300.44l-28.6-16.13v-1.29l28.6,16.23V300.44z"/>
<path class="st3" d="M532.18,297.08l-28.6-16.23v-1.29l28.6,16.23V297.08z"/>
<path class="st3" d="M532.18,293.61l-28.6-16.23v-1.19l28.6,16.13V293.61z"/>
<path class="st3" d="M532.18,287.08l-28.6-16.13v-3.96l28.6,16.13V287.08z"/>
<path class="st5" d="M535.88,199.49v40.28l3.5-9.4l3.7,13.26l4.9-8.61l4.5,13.76l0.5-39.59L535.88,199.49z"/>
<path class="st4" d="M663.78,222.94l-8.2,4.65v10.79l8.2-4.65V222.94z"/>
<path class="st4" d="M675.18,216.41l-8.1,4.65v10.79l8.1-4.65V216.41z"/>
<path class="st4" d="M686.58,209.88l-8.1,4.75v10.69l8.1-4.65V209.88z"/>
<path class="st11" d="M498.58,420l-112.1-63.94V236.7l112.1,63.94V420z"/>
<path class="st15" d="M587.58,249.57l-89,51.07V420l89-50.77V249.57z"/>
<path class="st13" d="M536.48,294.4l-27.2,15.54v36.52l27.2-15.54V294.4z"/>
<path class="st4" d="M527.08,314.3v18.11l-8.5,4.85v-18.21l-4.2,2.38l8.5-17.82l8.5,8.31L527.08,314.3z"/>
<path class="st14" d="M587.58,249.57l-89,51.07l-52.6-29.99l-17-9.8l-42.5-24.25l89-51.07l42.5,24.25l17.1,9.8L587.58,249.57z"/>
<path class="st14" d="M445.98,270.65l-17-9.8l89-51.07l17.1,9.8L445.98,270.65z"/>
<path class="st3" d="M428.98,260.85l-0.1,40.28l3.5-9.4l3.7,13.26l5-8.61l4.4,13.76l0.5-39.49L428.98,260.85z"/>
<path class="st4" d="M556.78,284.31l-8.1,4.65v10.79l8.1-4.65V284.31z"/>
<path class="st4" d="M568.18,277.78l-8.1,4.65v10.79l8.1-4.65V277.78z"/>
<path class="st4" d="M579.58,271.24l-8.1,4.75v10.79l8.1-4.75V271.24z"/>
<path class="st11" d="M729.88,428.91l-112.1-64.04V245.51l112.1,64.04V428.91z"/>
<path class="st15" d="M818.88,258.38l-89,51.17v119.36l89-50.87V258.38z"/>
<path class="st13" d="M767.78,303.21l-27.2,15.64v36.42l27.2-15.54V303.21z"/>
<path class="st4" d="M758.38,323.21l-0.1,18.11l-8.4,4.75v-18.11l-4.2,2.38l8.5-17.91l8.5,8.31L758.38,323.21z"/>
<path class="st14" d="M818.88,258.38l-89,51.17l-52.6-30.09l-17-9.7l-42.5-24.25l89-51.07l42.5,24.25l17.1,9.8L818.88,258.38z"/>
<path class="st14" d="M677.28,279.46l-17-9.7l89-51.07l17.1,9.8L677.28,279.46z"/>
<path class="st5" d="M658.28,377.64l-32.2-18.21v-27.42l32.2,18.11V377.64z"/>
<path class="st3" d="M656.48,374.18l-28.6-16.13v-1.29l28.6,16.13V374.18z"/>
<path class="st3" d="M656.48,370.71l-28.6-16.13v-1.29l28.6,16.13V370.71z"/>
<path class="st3" d="M656.48,367.25l-28.6-16.13v-1.29l28.6,16.23V367.25z"/>
<path class="st3" d="M656.48,363.79l-28.6-16.13v-1.29l28.6,16.23V363.79z"/>
<path class="st3" d="M656.48,357.35l-28.6-16.23v-3.86l28.6,16.13V357.35z"/>
<path class="st5" d="M660.28,269.76l-0.1,40.18l3.5-9.4l3.7,13.36l5-8.61l4.4,13.66l0.5-39.49L660.28,269.76z"/>
<path class="st4" d="M788.08,293.12l-8.1,4.75v10.79l8.1-4.75V293.12z"/>
<path class="st4" d="M799.48,286.68l-8.1,4.65v10.79l8.1-4.65V286.68z"/>
<path class="st4" d="M810.88,280.15l-8.1,4.65v10.79l8.1-4.65V280.15z"/>
<path class="st11" d="M622.88,490.28l-112-63.94V306.88l112,64.04V490.28z"/>
<path class="st15" d="M711.98,319.84l-89.1,51.07v119.37l89.1-50.87V319.84z"/>
<path class="st13" d="M660.78,364.58l-27.2,15.64v36.42l27.2-15.44V364.58z"/>
<path class="st4" d="M651.38,384.57v18.11l-8.5,4.75l0.1-18.11l-4.3,2.38l8.6-17.91l8.4,8.41L651.38,384.57z"/>
<path class="st14" d="M711.88,319.84l-88.9,51.07l-52.7-30.09l-17-9.7l-42.4-24.25l88.9-51.07l42.5,24.25l17.1,9.8L711.88,319.84z"
	/>
<path class="st14" d="M570.28,340.82l-17-9.7l89-51.07l17.1,9.8L570.28,340.82z"/>
<path class="st3" d="M551.28,439.01l-32.2-18.11v-27.51l32.2,18.21V439.01z"/>
<path class="st4" d="M549.48,435.54l-28.6-16.13v-1.29l28.6,16.13V435.54z"/>
<path class="st4" d="M549.48,432.08l-28.6-16.13v-1.29l28.6,16.23V432.08z"/>
<path class="st4" d="M549.48,428.61l-28.6-16.13v-1.29l28.6,16.23V428.61z"/>
<path class="st4" d="M549.48,425.25l-28.6-16.23v-1.19l28.6,16.13V425.25z"/>
<path class="st4" d="M549.48,418.72l-28.6-16.13v-3.96l28.6,16.13V418.72z"/>
<path class="st3" d="M553.28,331.12l-0.1,40.28l3.5-9.4l3.7,13.26l5-8.61l4.4,13.76l0.5-39.59L553.28,331.12z"/>
<path class="st4" d="M681.08,354.58l-8.1,4.65v10.79l8.1-4.65V354.58z"/>
<path class="st4" d="M692.48,348.05l-8.1,4.65v10.79l8.1-4.65V348.05z"/>
<path class="st4" d="M703.88,341.52l-8.1,4.65v10.79l8.1-4.65V341.52z"/>
<path class="st11" d="M605.58,235.02l-112.1-64.04V51.62l112.1,64.04V235.02z"/>
<path class="st15" d="M694.58,64.48l-89,51.17v119.36l89-50.87V64.48z"/>
<path class="st13" d="M643.48,109.32l-27.2,15.64v36.42l27.2-15.44V109.32z"/>
<path class="st4" d="M634.08,129.31l-0.1,18.11l-8.4,4.75v-18.11l-4.2,2.38l8.5-17.91l8.4,8.41L634.08,129.31z"/>
<path class="st14" d="M694.58,64.58l-89,51.07l-52.6-30.09l-17.1-9.7l-42.4-24.25l89-51.07l42.5,24.25l17.1,9.8L694.58,64.58z"/>
<path class="st16" d="M552.98,85.57l-17.1-9.7l89.1-51.07l17.1,9.8L552.98,85.57z"/>
<path class="st5" d="M533.88,183.75l-32.1-18.11v-27.51l32.1,18.21V183.75z"/>
<path class="st3" d="M532.18,180.29l-28.6-16.13v-1.29l28.6,16.13V180.29z"/>
<path class="st3" d="M532.18,176.82l-28.6-16.13v-1.29l28.6,16.23V176.82z"/>
<path class="st3" d="M532.18,173.36l-28.6-16.13v-1.29l28.6,16.23V173.36z"/>
<path class="st3" d="M532.18,169.99l-28.6-16.23v-1.19l28.6,16.13V169.99z"/>
<path class="st3" d="M532.18,163.46l-28.6-16.23v-3.86l28.6,16.13V163.46z"/>
<path class="st3" d="M535.88,75.87v40.28l3.5-9.4l3.7,13.26l4.9-8.61l4.5,13.66l0.5-39.49L535.88,75.87z"/>
<path class="st4" d="M663.78,99.22l-8.2,4.75v10.79l8.2-4.65V99.22z"/>
<path class="st4" d="M675.18,92.79l-8.1,4.65v10.79l8.1-4.65V92.79z"/>
<path class="st4" d="M686.58,86.26l-8.1,4.65v10.79l8.1-4.65V86.26z"/>
<path class="st11" d="M498.58,296.38l-112.1-63.94V113.08l112.1,63.94V296.38z"/>
<path class="st15" d="M587.58,125.95l-89,51.07v119.37l89-50.78V125.95z"/>
<path class="st13" d="M536.48,170.78l-27.2,15.54v36.52l27.2-15.54V170.78z"/>
<path class="st4" d="M527.08,190.68v18.11l-8.5,4.85v-18.21l-4.2,2.38l8.5-17.82l8.5,8.31L527.08,190.68z"/>
<path class="st14" d="M587.58,125.95l-89,51.07l-52.6-29.99l-17-9.8l-42.5-24.25l89-51.07l42.5,24.25l17.1,9.8L587.58,125.95z"/>
<path class="st16" d="M445.98,147.03l-17-9.8l89-51.07l17.1,9.8L445.98,147.03z"/>
<path class="st3" d="M428.98,137.23l-0.1,40.28l3.5-9.4l3.7,13.26l5-8.61l4.4,13.76l0.5-39.49L428.98,137.23z"/>
<path class="st4" d="M556.78,160.69l-8.1,4.65v10.79l8.1-4.65V160.69z"/>
<path class="st4" d="M568.18,154.16l-8.1,4.65v10.79l8.1-4.65V154.16z"/>
<path class="st4" d="M579.58,147.62l-8.1,4.75v10.69l8.1-4.65V147.62z"/>
<path class="st11" d="M729.88,305.29l-112.1-64.04V121.89l112.1,64.04V305.29z"/>
<path class="st15" d="M818.88,134.76l-89,51.17v119.36l89-50.87V134.76z"/>
<path class="st13" d="M767.78,179.59l-27.2,15.64v36.42l27.2-15.54V179.59z"/>
<path class="st4" d="M758.38,199.49l-0.1,18.21l-8.4,4.75v-18.11l-4.2,2.38l8.5-17.92l8.5,8.31L758.38,199.49z"/>
<path class="st14" d="M818.88,134.76l-89,51.17l-52.6-30.09l-17-9.7l-42.5-24.25l89-51.07l42.5,24.25l17.1,9.7L818.88,134.76z"/>
<path class="st16" d="M677.28,155.84l-17-9.7l89-51.07l17.1,9.7L677.28,155.84z"/>
<path class="st5" d="M658.28,254.02l-32.2-18.21v-27.42l32.2,18.11V254.02z"/>
<path class="st3" d="M656.48,250.56l-28.6-16.23v-1.19l28.6,16.13V250.56z"/>
<path class="st3" d="M656.48,247.09l-28.6-16.13v-1.29l28.6,16.13V247.09z"/>
<path class="st3" d="M656.48,243.63l-28.6-16.13v-1.29l28.6,16.23V243.63z"/>
<path class="st3" d="M656.48,240.16l-28.6-16.13v-1.29l28.6,16.23V240.16z"/>
<path class="st3" d="M656.48,233.73l-28.6-16.23v-3.86l28.6,16.13V233.73z"/>
<path class="st3" d="M660.28,146.14l-0.1,40.18l3.5-9.4l3.7,13.36l5-8.61l4.4,13.66l0.5-39.49L660.28,146.14z"/>
<path class="st4" d="M788.08,169.5l-8.1,4.75v10.79l8.1-4.75V169.5z"/>
<path class="st4" d="M799.48,162.96l-8.1,4.75v10.79l8.1-4.65V162.96z"/>
<path class="st4" d="M810.88,156.53l-8.1,4.65v10.79l8.1-4.65V156.53z"/>
<path class="st11" d="M622.88,366.66l-112-64.04V183.26l112,64.04V366.66z"/>
<path class="st15" d="M711.98,196.12l-89.1,51.17v119.36l89.1-50.87V196.12z"/>
<path class="st13" d="M660.78,240.96l-27.2,15.64v36.42l27.2-15.54V240.96z"/>
<path class="st4" d="M651.38,260.95v18.11l-8.5,4.75l0.1-18.11l-4.3,2.38l8.6-17.91l8.4,8.41L651.38,260.95z"/>
<path class="st14" d="M711.88,196.22l-88.9,51.07l-52.7-30.09l-17-9.7l-42.4-24.25l88.9-51.07l42.5,24.25l17.1,9.8L711.88,196.22z"
	/>
<path class="st16" d="M570.28,217.2l-17-9.7l89-51.07l17.1,9.8L570.28,217.2z"/>
<path class="st3" d="M551.28,315.39l-32.2-18.21v-27.42l32.2,18.11V315.39z"/>
<path class="st4" d="M549.48,311.92l-28.6-16.13v-1.29l28.6,16.13V311.92z"/>
<path class="st4" d="M549.48,308.46l-28.6-16.13v-1.29l28.6,16.23V308.46z"/>
<path class="st4" d="M549.48,304.99l-28.6-16.13v-1.29l28.6,16.23V304.99z"/>
<path class="st4" d="M549.48,301.63l-28.6-16.23v-1.29l28.6,16.23V301.63z"/>
<path class="st4" d="M549.48,295.1l-28.6-16.23v-3.86l28.6,16.13V295.1z"/>
<path class="st3" d="M553.28,207.5l-0.1,40.28l3.5-9.5l3.7,13.36l5-8.61l4.4,13.66l0.5-39.49L553.28,207.5z"/>
<path class="st4" d="M681.08,230.86l-8.1,4.75v10.79l8.1-4.65V230.86z"/>
<path class="st4" d="M692.48,224.43l-8.1,4.65v10.79l8.1-4.65V224.43z"/>
<path class="st4" d="M703.88,217.9l-8.1,4.65v10.79l8.1-4.65V217.9z"/>
<path class="st2" d="M361.48,366.56v13.56l24.6,14.05v-11.98L361.48,366.56z"/>
</svg>
