<?xml version="1.0" encoding="utf-8"?>
<!-- Generator: Adobe Illustrator 24.0.2, SVG Export Plug-In . SVG Version: 6.00 Build 0)  -->
<svg version="1.1" id="Layer_1" xmlns="http://www.w3.org/2000/svg" xmlns:xlink="http://www.w3.org/1999/xlink" x="0px" y="0px"
	 viewBox="0 0 585 524" style="enable-background:new 0 0 585 524;" xml:space="preserve">
<style type="text/css">
	.st0{fill:#3A3A3A;}
	.st1{fill:#9C754E;}
	.st2{fill:#A3A3A3;}
	.st3{fill:#DED8D1;}
	.st4{fill:#9B897F;}
	.st5{fill:#CDC6BC;}
	.st6{fill:#CAAE68;}
	.st7{fill:#72522F;}
	.st8{fill:#9F7D4A;}
	.st9{fill:#AE835B;}
	.st10{fill:#C99A6B;}
	.st11{fill:#E8B687;}
	.st12{fill:#54493E;}
	.st13{fill:#FFFFFF;}
	.st14{fill:#D2D2D2;}
	.st15{fill:#4E4E4E;}
	.st16{fill:#7282B5;}
	.st17{fill:#BF2A40;}
	.st18{fill:#DF314A;}
	.st19{fill:#EAAA96;}
	.st20{fill:#EFC3B1;}
	.st21{fill:#6C759F;}
	.st22{fill:#3D3D3D;}
	.st23{fill:#6F6F6F;}
	.st24{fill:#ED9600;}
	.st25{fill:#FECB4C;}
	.st26{fill:#EDA600;}
	.st27{fill:#CCA467;}
	.st28{fill:#D9B47B;}
	.st29{fill:#DBB78F;}
	.st30{fill:#B58960;}
	.st31{clip-path:url(#SVGID_2_);}
	.st32{clip-path:url(#SVGID_4_);}
	.st33{fill:#BECDD4;}
	.st34{fill-rule:evenodd;clip-rule:evenodd;fill:#D2D2D2;}
	.st35{fill:#FFAD97;}
	.st36{fill:#E8D0C8;}
	.st37{fill:#FFC5B3;}
</style>
<path class="st0" d="M346.5,257.8l0-211l-3.5-2v211L346.5,257.8z"/>
<path class="st1" d="M346.5,257.8l4.2-2.4V44.3l-4.2,2.4V257.8z"/>
<path class="st0" d="M420,215.4l0-211l-3.5-2v211L420,215.4z"/>
<path class="st1" d="M420,215.4l4.2-2.4V2L420,4.4V215.4z"/>
<path class="st2" d="M343,44.7l3.5,2l4.2-2.4l-3.5-2L343,44.7z"/>
<path class="st2" d="M416.6,2.4l3.5,2l4.2-2.4l-3.5-2L416.6,2.4z"/>
<path class="st1" d="M422.8,207.7l-2.8,2.8l-71.7-57l1.3-4.2L422.8,207.7z"/>
<path class="st1" d="M348.9,248.3l0.7,4l72.2-140.2l-1.7-2.4L348.9,248.3z"/>
<path class="st1" d="M422.8,108.2L420,111l-71.7-57l1.3-4.2L422.8,108.2z"/>
<path class="st1" d="M348.9,148.8l0.7,4l72.2-140.2l-1.7-2.5L348.9,148.8z"/>
<path class="st3" d="M421,200.8l-73.4,42.6l158.7,92.3l73.6-42.5L421,200.8z"/>
<path class="st4" d="M506.3,340.8v-5.4l73.6-42.5v5.4L506.3,340.8z"/>
<path class="st5" d="M347.6,243.4v5.5l158.7,91.7v-5.4L347.6,243.4z"/>
<path class="st6" d="M480.4,242.6l-55,31.8l1.7,1.1l55.2-31.9L480.4,242.6z"/>
<path class="st7" d="M482.2,243.6L427,275.5v7.9l55.2-31.9V243.6z"/>
<path class="st8" d="M425.3,282.3v-7.9l1.7,1.1v7.9L425.3,282.3z"/>
<path class="st6" d="M418.9,207l-55,31.8l1.7,1.1l55.2-31.9L418.9,207z"/>
<path class="st7" d="M420.8,207.9l-55.2,31.9v7.9l55.2-31.9V207.9z"/>
<path class="st8" d="M363.9,246.7v-7.9l1.7,1.1v7.9L363.9,246.7z"/>
<path class="st6" d="M448.8,223.9l-55,31.8l1.7,1.1l55.2-31.9L448.8,223.9z"/>
<path class="st7" d="M450.6,224.9l-55.2,31.9v7.9l55.2-31.9V224.9z"/>
<path class="st8" d="M393.7,263.6v-7.9l1.7,1.1v7.9L393.7,263.6z"/>
<path class="st8" d="M427,273.1l-63.2-36.5v2.5l63.2,36.5V273.1z"/>
<path class="st6" d="M433.6,269.4l-6.6,3.7l-63.2-36.5l6.6-3.7L433.6,269.4z"/>
<path class="st7" d="M433.6,269.4l-6.6,3.7v4.7l6.6-3.9V269.4z"/>
<path class="st8" d="M439.4,265.8L376,229.2v2.5l63.3,36.6V265.8z"/>
<path class="st6" d="M446,262.1l-6.6,3.7L376,229.2l6.6-3.7L446,262.1z"/>
<path class="st7" d="M446,262.1l-6.6,3.7v4.7l6.6-3.9V262.1z"/>
<path class="st8" d="M452,258.6L388.5,222v2.5l63.5,36.7V258.6z"/>
<path class="st6" d="M458.6,255l-6.6,3.7L388.5,222l6.6-3.7L458.6,255z"/>
<path class="st7" d="M458.6,255l-6.6,3.7v4.7l6.6-3.9V255z"/>
<path class="st8" d="M464.3,251.4l-63.3-36.5v2.5l63.3,36.5V251.4z"/>
<path class="st6" d="M470.9,247.7l-6.6,3.7l-63.3-36.5l6.6-3.7L470.9,247.7z"/>
<path class="st7" d="M470.9,247.7l-6.6,3.7v4.7l6.6-3.9V247.7z"/>
<path class="st8" d="M475.6,245l-63.5-36.6v2.5l63.5,36.6V245z"/>
<path class="st6" d="M482.2,241.3l-6.6,3.7l-63.5-36.6l6.6-3.7L482.2,241.3z"/>
<path class="st7" d="M482.2,241.3l-6.6,3.7v4.7l6.6-3.9V241.3z"/>
<path class="st9" d="M398.8,252.1l0-19.7l-28.5-16.5v19.6L398.8,252.1z"/>
<path class="st10" d="M398.8,252.1l0-19.7l41.1-23.7v19.6L398.8,252.1z"/>
<path class="st11" d="M439.9,208.7l-41.1,23.7l-28.5-16.5l41.1-23.7L439.9,208.7z"/>
<path class="st1" d="M380.9,232.4l6.4,3.7v-10.4l-6.4-3.7V232.4z"/>
<g>
	<path class="st12" d="M380.9,222l41.1-23.7l6.4,3.7l-41.1,23.7L380.9,222z"/>
</g>
<path class="st1" d="M396.7,248.8V247l-9.6-5.6v1.9L396.7,248.8z"/>
<path class="st1" d="M396.7,245.5v-1.8l-9.6-5.6v1.9L396.7,245.5z"/>
<path class="st1" d="M434.2,222.7v6.6l4.6-2.6v-6.6L434.2,222.7z"/>
<path class="st1" d="M427.9,226.3v6.6l4.6-2.6v-6.6L427.9,226.3z"/>
<path class="st1" d="M421.6,230v6.6l4.6-2.6v-6.6L421.6,230z"/>
<g>
	<path class="st12" d="M400.1,233.2v9.5l9.4-5.4v-9.6L400.1,233.2z"/>
</g>
<path class="st1" d="M401.2,235.2v-1.6l7.4-4.3v1.5L401.2,235.2z"/>
<path class="st9" d="M430.2,270.4l0-19.7l-28.5-16.5v19.6L430.2,270.4z"/>
<path class="st10" d="M430.2,270.4l0-19.7l41.1-23.7v19.6L430.2,270.4z"/>
<path class="st11" d="M471.3,227l-41.1,23.7l-28.5-16.5l41.1-23.7L471.3,227z"/>
<path class="st1" d="M412.3,250.8l6.4,3.7v-10.4l-6.4-3.7V250.8z"/>
<g>
	<path class="st12" d="M412.3,240.4l41.1-23.7l6.4,3.7l-41.1,23.7L412.3,240.4z"/>
</g>
<path class="st1" d="M428,267.2v-1.8l-9.6-5.6v1.9L428,267.2z"/>
<path class="st1" d="M428,263.9v-1.8l-9.6-5.6v1.9L428,263.9z"/>
<path class="st1" d="M465.5,241.1v6.6l4.6-2.6v-6.6L465.5,241.1z"/>
<path class="st1" d="M459.2,244.7v6.6l4.6-2.6v-6.6L459.2,244.7z"/>
<path class="st1" d="M452.9,248.3v6.6l4.6-2.6v-6.6L452.9,248.3z"/>
<g>
	<path class="st12" d="M431.4,251.6v9.5l9.4-5.4v-9.5L431.4,251.6z"/>
</g>
<path class="st1" d="M432.6,253.5V252l7.4-4.3v1.5L432.6,253.5z"/>
<path class="st9" d="M398.8,230.4l0-19.7l-28.5-16.5v19.6L398.8,230.4z"/>
<path class="st10" d="M398.8,230.4l0-19.7l41.1-23.7v19.6L398.8,230.4z"/>
<path class="st11" d="M439.9,187l-41.1,23.7l-28.5-16.5l41.1-23.7L439.9,187z"/>
<path class="st1" d="M380.9,210.7l6.4,3.7V204l-6.4-3.7V210.7z"/>
<g>
	<path class="st12" d="M380.9,200.3l41.1-23.7l6.4,3.7L387.3,204L380.9,200.3z"/>
</g>
<path class="st1" d="M396.7,227.1v-1.8l-9.6-5.6v1.9L396.7,227.1z"/>
<path class="st1" d="M396.7,223.8V222l-9.6-5.6v1.9L396.7,223.8z"/>
<path class="st1" d="M434.2,201v6.6l4.6-2.6v-6.6L434.2,201z"/>
<path class="st1" d="M427.9,204.6v6.6l4.6-2.6V202L427.9,204.6z"/>
<path class="st1" d="M421.6,208.3v6.6l4.6-2.6v-6.6L421.6,208.3z"/>
<g>
	<path class="st12" d="M400.1,211.5v9.5l9.4-5.4v-9.5L400.1,211.5z"/>
</g>
<path class="st1" d="M401.2,213.5v-1.6l7.4-4.3v1.5L401.2,213.5z"/>
<path class="st9" d="M430.2,248.7l0-19.7l-28.5-16.5v19.6L430.2,248.7z"/>
<path class="st10" d="M430.2,248.7l0-19.7l41.1-23.7V225L430.2,248.7z"/>
<path class="st11" d="M471.3,205.3l-41.1,23.7l-28.5-16.5l41.1-23.7L471.3,205.3z"/>
<path class="st1" d="M412.3,229.1l6.4,3.7v-10.4l-6.4-3.7V229.1z"/>
<g>
	<path class="st12" d="M412.3,218.7l41.1-23.7l6.4,3.7l-41.1,23.7L412.3,218.7z"/>
</g>
<path class="st1" d="M428,245.5v-1.8l-9.6-5.6v1.9L428,245.5z"/>
<path class="st1" d="M428,242.2v-1.8l-9.6-5.6v1.9L428,242.2z"/>
<path class="st1" d="M465.5,219.4v6.6l4.6-2.6v-6.6L465.5,219.4z"/>
<path class="st1" d="M459.2,223v6.6l4.6-2.6v-6.6L459.2,223z"/>
<path class="st1" d="M452.9,226.6v6.6l4.6-2.6V224L452.9,226.6z"/>
<g>
	<path class="st12" d="M431.4,229.9v9.5l9.4-5.4v-9.6L431.4,229.9z"/>
</g>
<path class="st1" d="M432.6,231.8v-1.6l7.4-4.3v1.5L432.6,231.8z"/>
<path class="st6" d="M556,286.1l-55,31.8l1.7,1.1l55.2-31.9L556,286.1z"/>
<path class="st7" d="M557.8,287.1L502.6,319v7.9l55.2-31.9V287.1z"/>
<path class="st6" d="M494.5,250.5l-55,31.8l1.7,1.1l55.2-31.9L494.5,250.5z"/>
<path class="st7" d="M496.4,251.5l-55.2,31.9v7.9l55.2-31.9V251.5z"/>
<path class="st8" d="M439.5,290.2v-7.9l1.7,1.1v7.9L439.5,290.2z"/>
<path class="st6" d="M524.3,267.4l-55,31.8l1.7,1.1l55.2-31.9L524.3,267.4z"/>
<path class="st7" d="M526.2,268.4L471,300.3v7.9l55.2-31.9V268.4z"/>
<path class="st8" d="M469.3,307.1v-7.9l1.7,1.1v7.9L469.3,307.1z"/>
<path class="st8" d="M502.6,316.6l-63.2-36.5v2.5l63.2,36.5V316.6z"/>
<path class="st6" d="M509.3,312.9l-6.6,3.7l-63.2-36.5l6.6-3.7L509.3,312.9z"/>
<path class="st7" d="M509.3,312.9l-6.6,3.7v4.7l6.6-3.9V312.9z"/>
<path class="st8" d="M515,309.3l-63.3-36.6v2.5l63.3,36.6V309.3z"/>
<path class="st6" d="M521.6,305.6l-6.6,3.7l-63.3-36.6l6.6-3.7L521.6,305.6z"/>
<path class="st7" d="M521.6,305.6l-6.6,3.7v4.7l6.6-3.9V305.6z"/>
<path class="st8" d="M527.6,302.2l-63.5-36.7v2.5l63.5,36.7V302.2z"/>
<path class="st6" d="M534.2,298.5l-6.6,3.7l-63.5-36.7l6.6-3.7L534.2,298.5z"/>
<path class="st7" d="M534.2,298.5l-6.6,3.7v4.7l6.6-3.9V298.5z"/>
<path class="st8" d="M539.9,294.9l-63.3-36.5v2.5l63.3,36.5V294.9z"/>
<path class="st6" d="M546.5,291.2l-6.6,3.7l-63.3-36.5l6.6-3.7L546.5,291.2z"/>
<path class="st7" d="M546.5,291.2l-6.6,3.7v4.7l6.6-3.9V291.2z"/>
<path class="st8" d="M551.2,288.5l-63.5-36.6v2.5l63.5,36.6V288.5z"/>
<path class="st6" d="M557.8,284.8l-6.6,3.7l-63.5-36.6l6.6-3.7L557.8,284.8z"/>
<path class="st7" d="M557.8,284.8l-6.6,3.7v4.7l6.6-3.9V284.8z"/>
<path class="st9" d="M474.4,295.6l0-19.7l-28.5-16.5V279L474.4,295.6z"/>
<path class="st10" d="M474.4,295.6l0-19.7l41.1-23.7v19.6L474.4,295.6z"/>
<path class="st11" d="M515.5,252.2l-41.1,23.7l-28.5-16.5l41.1-23.7L515.5,252.2z"/>
<path class="st1" d="M456.5,275.9l6.4,3.7v-10.4l-6.4-3.7V275.9z"/>
<g>
	<path class="st12" d="M456.5,265.5l41-23.7l6.4,3.7l-41.1,23.7L456.5,265.5z"/>
</g>
<path class="st1" d="M472.3,292.3v-1.8l-9.6-5.6v1.9L472.3,292.3z"/>
<path class="st1" d="M472.3,289v-1.8l-9.6-5.6v1.9L472.3,289z"/>
<path class="st1" d="M509.8,266.2v6.6l4.6-2.6v-6.6L509.8,266.2z"/>
<path class="st1" d="M503.5,269.8v6.6l4.6-2.6v-6.6L503.5,269.8z"/>
<path class="st1" d="M497.2,273.5v6.6l4.6-2.6v-6.6L497.2,273.5z"/>
<g>
	<path class="st12" d="M475.7,276.7v9.5l9.4-5.4v-9.6L475.7,276.7z"/>
</g>
<path class="st1" d="M476.8,278.7v-1.6l7.4-4.3v1.5L476.8,278.7z"/>
<path class="st9" d="M505.8,314l0-19.7l-28.5-16.5v19.6L505.8,314z"/>
<path class="st10" d="M505.8,314l0-19.7l41.1-23.7v19.6L505.8,314z"/>
<path class="st11" d="M546.9,270.6l-41.1,23.7l-28.5-16.5l41.1-23.7L546.9,270.6z"/>
<path class="st1" d="M487.9,294.3l6.4,3.7v-10.4l-6.4-3.7V294.3z"/>
<g>
	<path class="st12" d="M487.9,283.9l41-23.7l6.4,3.7l-41.1,23.7L487.9,283.9z"/>
</g>
<path class="st1" d="M503.6,310.7v-1.8l-9.6-5.6v1.9L503.6,310.7z"/>
<path class="st1" d="M503.6,307.4v-1.8l-9.6-5.6v1.9L503.6,307.4z"/>
<path class="st1" d="M541.1,284.6v6.6l4.6-2.6v-6.6L541.1,284.6z"/>
<path class="st1" d="M534.8,288.2v6.6l4.6-2.6v-6.6L534.8,288.2z"/>
<path class="st1" d="M528.5,291.9v6.6l4.6-2.6v-6.6L528.5,291.9z"/>
<g>
	<path class="st12" d="M507,295.1v9.5l9.4-5.4v-9.6L507,295.1z"/>
</g>
<path class="st1" d="M508.2,297v-1.6l7.4-4.3v1.5L508.2,297z"/>
<path class="st9" d="M474.4,273.9l0-19.7l-28.5-16.5v19.6L474.4,273.9z"/>
<path class="st10" d="M474.4,273.9l0-19.7l41.1-23.7v19.6L474.4,273.9z"/>
<path class="st11" d="M515.5,230.5l-41.1,23.7l-28.5-16.5L487,214L515.5,230.5z"/>
<path class="st1" d="M456.5,254.2l6.4,3.7v-10.4l-6.4-3.7V254.2z"/>
<g>
	<path class="st12" d="M456.5,243.8l41-23.7l6.4,3.7l-41.1,23.7L456.5,243.8z"/>
</g>
<path class="st1" d="M472.3,270.6v-1.8l-9.6-5.6v1.9L472.3,270.6z"/>
<path class="st1" d="M472.3,267.3v-1.8l-9.6-5.6v1.9L472.3,267.3z"/>
<path class="st1" d="M509.8,244.5v6.6l4.6-2.6v-6.6L509.8,244.5z"/>
<path class="st1" d="M503.5,248.1v6.6l4.6-2.6v-6.6L503.5,248.1z"/>
<path class="st1" d="M497.2,251.8v6.6l4.6-2.6v-6.6L497.2,251.8z"/>
<g>
	<path class="st12" d="M475.7,255v9.5l9.4-5.4v-9.5L475.7,255z"/>
</g>
<path class="st1" d="M476.8,257v-1.6l7.4-4.3v1.5L476.8,257z"/>
<path class="st9" d="M505.8,292.3l0-19.7l-28.5-16.5v19.6L505.8,292.3z"/>
<path class="st10" d="M505.8,292.3l0-19.7l41.1-23.7v19.6L505.8,292.3z"/>
<path class="st11" d="M546.9,248.9l-41.1,23.7l-28.5-16.5l41.1-23.7L546.9,248.9z"/>
<path class="st1" d="M487.9,272.6l6.4,3.7v-10.4l-6.4-3.7V272.6z"/>
<g>
	<path class="st12" d="M487.9,262.2l41-23.7l6.4,3.7l-41.1,23.7L487.9,262.2z"/>
</g>
<path class="st1" d="M503.6,289v-1.8l-9.6-5.6v1.9L503.6,289z"/>
<path class="st1" d="M503.6,285.7v-1.8l-9.6-5.6v1.9L503.6,285.7z"/>
<path class="st1" d="M541.1,262.9v6.6l4.6-2.6v-6.6L541.1,262.9z"/>
<path class="st1" d="M534.8,266.5v6.6l4.6-2.6v-6.6L534.8,266.5z"/>
<path class="st1" d="M528.5,270.2v6.6l4.6-2.6v-6.6L528.5,270.2z"/>
<g>
	<path class="st12" d="M507,273.4v9.5l9.4-5.4v-9.6L507,273.4z"/>
</g>
<path class="st1" d="M508.2,275.4v-1.6l7.4-4.3v1.5L508.2,275.4z"/>
<path class="st3" d="M421,120.2l-73.4,42.6l158.7,92.3l73.6-42.5L421,120.2z"/>
<path class="st4" d="M506.3,260.2v-5.4l73.6-42.5v5.4L506.3,260.2z"/>
<path class="st5" d="M347.6,162.8v5.5L506.3,260v-5.4L347.6,162.8z"/>
<path class="st6" d="M480.4,162.3l-55,31.8l1.7,1.1l55.2-31.9L480.4,162.3z"/>
<path class="st7" d="M482.2,163.3L427,195.2v7.9l55.2-31.9V163.3z"/>
<path class="st8" d="M425.3,202.1v-7.9l1.7,1.1v7.9L425.3,202.1z"/>
<path class="st6" d="M418.9,126.7l-55,31.8l1.7,1.1l55.2-31.9L418.9,126.7z"/>
<path class="st7" d="M420.8,127.7l-55.2,31.9v7.9l55.2-31.9V127.7z"/>
<path class="st8" d="M363.9,166.4v-7.9l1.7,1.1v7.9L363.9,166.4z"/>
<path class="st6" d="M448.8,143.6l-55,31.8l1.7,1.1l55.2-31.9L448.8,143.6z"/>
<path class="st7" d="M450.6,144.6l-55.2,31.9v7.9l55.2-31.9V144.6z"/>
<path class="st8" d="M393.7,183.4v-7.9l1.7,1.1v7.9L393.7,183.4z"/>
<path class="st8" d="M427,192.8l-63.2-36.5v2.5l63.2,36.5V192.8z"/>
<path class="st6" d="M433.6,189.1l-6.6,3.7l-63.2-36.5l6.6-3.7L433.6,189.1z"/>
<path class="st7" d="M433.6,189.1l-6.6,3.7v4.7l6.6-3.9V189.1z"/>
<path class="st8" d="M439.4,185.5L376,148.9v2.5l63.3,36.6V185.5z"/>
<path class="st6" d="M446,181.8l-6.6,3.7L376,148.9l6.6-3.7L446,181.8z"/>
<path class="st7" d="M446,181.8l-6.6,3.7v4.7l6.6-3.9V181.8z"/>
<path class="st8" d="M452,178.4l-63.5-36.7v2.5l63.5,36.7V178.4z"/>
<path class="st6" d="M458.6,174.7l-6.6,3.7l-63.5-36.7l6.6-3.7L458.6,174.7z"/>
<path class="st7" d="M458.6,174.7l-6.6,3.7v4.7l6.6-3.9V174.7z"/>
<path class="st8" d="M464.3,171.1l-63.3-36.5v2.5l63.3,36.5V171.1z"/>
<path class="st6" d="M470.9,167.4l-6.6,3.7l-63.3-36.5l6.6-3.7L470.9,167.4z"/>
<path class="st7" d="M470.9,167.4l-6.6,3.7v4.7l6.6-3.9V167.4z"/>
<path class="st8" d="M475.6,164.8l-63.5-36.6v2.5l63.5,36.6V164.8z"/>
<path class="st6" d="M482.2,161.1l-6.6,3.7l-63.5-36.6l6.6-3.7L482.2,161.1z"/>
<path class="st7" d="M482.2,161.1l-6.6,3.7v4.7l6.6-3.9V161.1z"/>
<path class="st9" d="M422.7,156.9l0-34.4l27.5-15.9v34.4L422.7,156.9z"/>
<path class="st10" d="M422.7,156.9l0-34.4l-27.5-15.9v34.4L422.7,156.9z"/>
<path class="st11" d="M395.2,106.6l27.5,15.9l27.5-15.9l-27.5-15.9L395.2,106.6z"/>
<path class="st1" d="M439.9,122.5l-6.1,3.6v-10l6.1-3.6V122.5z"/>
<g>
	<path class="st12" d="M439.9,112.4l-27.5-15.9l-6.1,3.6l27.5,15.9L439.9,112.4z"/>
</g>
<path class="st1" d="M426.3,152v-1.8l9.2-5.4v1.8L426.3,152z"/>
<path class="st1" d="M426.3,148.8V147l9.2-5.4v1.8L426.3,148.8z"/>
<path class="st1" d="M443.8,135.9v6.1l4.4-2.6v-6.1L443.8,135.9z"/>
<path class="st1" d="M401.2,135.3v6.4l-4.4-2.6v-6.4L401.2,135.3z"/>
<path class="st1" d="M407.2,138.8v6.4l-4.4-2.6v-6.4L407.2,138.8z"/>
<path class="st13" d="M405.9,116.6v9.2l-9.1-5.2v-9.2L405.9,116.6z"/>
<path class="st1" d="M404.7,118.5V117l-7.1-4.1v1.5L404.7,118.5z"/>
<path class="st9" d="M452.7,174.1l0-34.4l27.5-15.9v34.4L452.7,174.1z"/>
<path class="st10" d="M452.7,174.1l0-34.4l-27.5-15.9v34.4L452.7,174.1z"/>
<path class="st11" d="M425.2,123.8l27.5,15.9l27.5-15.9l-27.5-15.9L425.2,123.8z"/>
<path class="st1" d="M470,139.7l-6.1,3.6v-10l6.1-3.6V139.7z"/>
<g>
	<path class="st12" d="M470,129.6l-27.5-15.9l-6.1,3.6l27.5,15.9L470,129.6z"/>
</g>
<path class="st1" d="M456.4,169.1v-1.8l9.2-5.4v1.8L456.4,169.1z"/>
<path class="st1" d="M456.4,166v-1.8l9.2-5.4v1.8L456.4,166z"/>
<path class="st1" d="M473.9,153.1v6.1l4.4-2.6v-6.1L473.9,153.1z"/>
<path class="st1" d="M431.3,152.5v6.4l-4.4-2.6v-6.4L431.3,152.5z"/>
<path class="st1" d="M437.3,155.9v6.4l-4.4-2.6v-6.4L437.3,155.9z"/>
<path class="st13" d="M435.9,133.8v9.2l-9.1-5.2v-9.2L435.9,133.8z"/>
<path class="st1" d="M434.8,135.6v-1.5l-7.1-4.1v1.5L434.8,135.6z"/>
<path class="st9" d="M394.3,173.9l0-34.4l27.5-15.9V158L394.3,173.9z"/>
<path class="st10" d="M394.4,173.9l0-34.4l-27.5-15.9V158L394.4,173.9z"/>
<path class="st11" d="M366.8,123.6l27.5,15.9l27.5-15.9l-27.5-15.9L366.8,123.6z"/>
<path class="st1" d="M411.6,139.6l-6.1,3.6v-10l6.1-3.6V139.6z"/>
<g>
	<path class="st12" d="M411.6,129.5l-27.5-15.9l-6.2,3.6l27.5,15.9L411.6,129.5z"/>
</g>
<path class="st1" d="M398,169v-1.8l9.2-5.4v1.8L398,169z"/>
<path class="st1" d="M398,165.9v-1.8l9.2-5.4v1.8L398,165.9z"/>
<path class="st1" d="M415.5,153v6.1l4.4-2.6v-6.1L415.5,153z"/>
<path class="st1" d="M372.9,152.3v6.4l-4.4-2.6v-6.4L372.9,152.3z"/>
<path class="st1" d="M378.9,155.8v6.4l-4.4-2.6v-6.4L378.9,155.8z"/>
<g>
	<path class="st12" d="M377.5,133.6v9.2l-9.1-5.2v-9.2L377.5,133.6z"/>
</g>
<path class="st1" d="M376.4,135.5V134l-7.1-4.1v1.5L376.4,135.5z"/>
<path class="st9" d="M424.4,191.1l0-34.4l27.5-15.9v34.4L424.4,191.1z"/>
<path class="st10" d="M424.4,191.1l0-34.4l-27.5-15.9v34.4L424.4,191.1z"/>
<path class="st11" d="M396.9,140.8l27.5,15.9l27.5-15.9l-27.5-15.9L396.9,140.8z"/>
<path class="st1" d="M441.7,156.7l-6.1,3.6v-10l6.1-3.6V156.7z"/>
<g>
	<path class="st12" d="M441.7,146.7l-27.5-15.9l-6.1,3.6l27.5,15.9L441.7,146.7z"/>
</g>
<path class="st1" d="M428,186.2v-1.8l9.2-5.3v1.8L428,186.2z"/>
<path class="st1" d="M428,183.1v-1.8l9.2-5.4v1.8L428,183.1z"/>
<path class="st1" d="M445.6,170.2v6.1l4.4-2.6v-6.1L445.6,170.2z"/>
<path class="st1" d="M403,169.5v6.4l-4.4-2.6V167L403,169.5z"/>
<path class="st1" d="M409,173v6.4l-4.4-2.6v-6.4L409,173z"/>
<g>
	<path class="st12" d="M407.6,150.8v9.2l-9.1-5.2v-9.2L407.6,150.8z"/>
</g>
<path class="st1" d="M406.5,152.7v-1.5l-7.1-4.1v1.5L406.5,152.7z"/>
<path class="st6" d="M556,205.8l-55,31.8l1.7,1.1l55.2-31.9L556,205.8z"/>
<path class="st7" d="M557.8,206.8l-55.2,31.9v7.9l55.2-31.9V206.8z"/>
<path class="st8" d="M500.9,245.5v-7.9l1.7,1.1v7.9L500.9,245.5z"/>
<path class="st6" d="M494.5,170.1l-55,31.8l1.7,1.1l55.2-31.9L494.5,170.1z"/>
<path class="st7" d="M496.4,171.1L441.2,203v7.9l55.2-31.9V171.1z"/>
<path class="st8" d="M439.5,209.9v-7.9l1.7,1.1v7.9L439.5,209.9z"/>
<path class="st6" d="M524.3,187.1l-55,31.8l1.7,1.1l55.2-31.9L524.3,187.1z"/>
<path class="st7" d="M526.2,188.1L471,219.9v7.9l55.2-31.9V188.1z"/>
<path class="st8" d="M469.3,226.8v-7.9l1.7,1.1v7.9L469.3,226.8z"/>
<path class="st8" d="M502.6,236.2l-63.2-36.5v2.5l63.2,36.5V236.2z"/>
<path class="st6" d="M509.3,232.5l-6.6,3.7l-63.2-36.5l6.6-3.7L509.3,232.5z"/>
<path class="st7" d="M509.3,232.5l-6.6,3.7v4.7l6.6-3.9V232.5z"/>
<path class="st8" d="M515,229l-63.3-36.6v2.5l63.3,36.6V229z"/>
<path class="st6" d="M521.6,225.3L515,229l-63.3-36.6l6.6-3.7L521.6,225.3z"/>
<path class="st7" d="M521.6,225.3L515,229v4.7l6.6-3.9V225.3z"/>
<path class="st8" d="M527.6,221.8l-63.5-36.7v2.5l63.5,36.7V221.8z"/>
<path class="st6" d="M534.2,218.1l-6.6,3.7l-63.5-36.7l6.6-3.7L534.2,218.1z"/>
<path class="st7" d="M534.2,218.1l-6.6,3.7v4.7l6.6-3.9V218.1z"/>
<path class="st8" d="M539.9,214.6l-63.3-36.5v2.5l63.3,36.5V214.6z"/>
<path class="st6" d="M546.5,210.9l-6.6,3.7l-63.3-36.5l6.6-3.7L546.5,210.9z"/>
<path class="st7" d="M546.5,210.9l-6.6,3.7v4.7l6.6-3.9V210.9z"/>
<path class="st8" d="M551.2,208.2l-63.5-36.6v2.5l63.5,36.6V208.2z"/>
<path class="st6" d="M557.8,204.5l-6.6,3.7l-63.5-36.6l6.6-3.7L557.8,204.5z"/>
<path class="st7" d="M557.8,204.5l-6.6,3.7v4.7l6.6-3.9V204.5z"/>
<path class="st9" d="M498.3,200.3l0-34.4l27.5-15.9v34.4L498.3,200.3z"/>
<path class="st10" d="M498.3,200.3l0-34.4L470.8,150v34.4L498.3,200.3z"/>
<path class="st11" d="M470.8,150l27.5,15.9l27.5-15.9l-27.5-15.9L470.8,150z"/>
<path class="st1" d="M515.5,165.9l-6.1,3.6v-10l6.1-3.6V165.9z"/>
<g>
	<path class="st12" d="M515.5,155.9L488.1,140l-6.1,3.6l27.5,15.9L515.5,155.9z"/>
</g>
<path class="st1" d="M501.9,195.4v-1.8l9.2-5.4v1.8L501.9,195.4z"/>
<path class="st1" d="M501.9,192.2v-1.8l9.2-5.4v1.8L501.9,192.2z"/>
<path class="st1" d="M519.4,179.3v6.1l4.4-2.6v-6.1L519.4,179.3z"/>
<path class="st1" d="M476.8,178.7v6.4l-4.4-2.5v-6.4L476.8,178.7z"/>
<path class="st1" d="M482.8,182.2v6.4l-4.4-2.6v-6.4L482.8,182.2z"/>
<path class="st13" d="M481.5,160v9.2l-9.1-5.2v-9.2L481.5,160z"/>
<path class="st1" d="M480.3,161.9v-1.5l-7.1-4.1v1.5L480.3,161.9z"/>
<path class="st9" d="M528.3,217.5l0-34.4l27.5-15.9v34.4L528.3,217.5z"/>
<path class="st10" d="M528.3,217.5l0-34.4l-27.5-15.9v34.4L528.3,217.5z"/>
<path class="st11" d="M500.8,167.2l27.5,15.9l27.5-15.9l-27.5-15.9L500.8,167.2z"/>
<path class="st1" d="M545.6,183.1l-6.1,3.6v-10l6.1-3.6V183.1z"/>
<g>
	<path class="st12" d="M545.6,173.1l-27.5-15.9l-6.1,3.6l27.5,15.9L545.6,173.1z"/>
</g>
<path class="st1" d="M532,212.6v-1.8l9.2-5.4v1.8L532,212.6z"/>
<path class="st1" d="M532,209.4v-1.8l9.2-5.4v1.8L532,209.4z"/>
<path class="st1" d="M549.5,196.5v6.1l4.4-2.6V194L549.5,196.5z"/>
<path class="st1" d="M506.9,195.9v6.4l-4.4-2.5v-6.4L506.9,195.9z"/>
<path class="st1" d="M512.9,199.4v6.4l-4.4-2.6v-6.4L512.9,199.4z"/>
<path class="st13" d="M511.5,177.2v9.2l-9.1-5.2v-9.2L511.5,177.2z"/>
<path class="st1" d="M510.4,179.1v-1.5l-7.1-4.1v1.5L510.4,179.1z"/>
<path class="st9" d="M470,217.4l0-34.4l27.5-15.9v34.4L470,217.4z"/>
<path class="st10" d="M470,217.4l0-34.4l-27.5-15.9v34.4L470,217.4z"/>
<path class="st11" d="M442.4,167.1l27.5,15.9l27.5-15.9L470,151.2L442.4,167.1z"/>
<path class="st1" d="M487.2,183l-6.1,3.6v-10l6.1-3.6V183z"/>
<g>
	<path class="st12" d="M487.2,172.9l-27.5-15.9l-6.1,3.6l27.5,15.9L487.2,172.9z"/>
</g>
<path class="st1" d="M473.6,212.5v-1.8l9.2-5.4v1.8L473.6,212.5z"/>
<path class="st1" d="M473.6,209.3v-1.8l9.2-5.4v1.8L473.6,209.3z"/>
<path class="st1" d="M491.1,196.4v6.1l4.4-2.6v-6.1L491.1,196.4z"/>
<path class="st1" d="M448.5,195.8v6.4l-4.4-2.6v-6.4L448.5,195.8z"/>
<path class="st1" d="M454.5,199.3v6.4l-4.4-2.6v-6.4L454.5,199.3z"/>
<g>
	<path class="st12" d="M453.2,177.1v9.2l-9.1-5.2v-9.2L453.2,177.1z"/>
</g>
<path class="st1" d="M452,178.9v-1.5l-7.1-4.1v1.5L452,178.9z"/>
<path class="st9" d="M500,234.6l0-34.4l27.5-15.9v34.4L500,234.6z"/>
<path class="st10" d="M500,234.6l0-34.4l-27.5-15.9v34.4L500,234.6z"/>
<path class="st11" d="M472.5,184.3l27.5,15.9l27.5-15.9L500,168.4L472.5,184.3z"/>
<path class="st1" d="M517.3,200.2l-6.1,3.6v-10l6.1-3.6V200.2z"/>
<g>
	<path class="st12" d="M517.3,190.1l-27.5-15.9l-6.1,3.5l27.5,15.9L517.3,190.1z"/>
</g>
<path class="st1" d="M503.6,229.6v-1.8l9.2-5.4v1.8L503.6,229.6z"/>
<path class="st1" d="M503.6,226.5v-1.8l9.2-5.4v1.8L503.6,226.5z"/>
<path class="st1" d="M521.2,213.6v6.1l4.4-2.6V211L521.2,213.6z"/>
<path class="st1" d="M478.6,212.9v6.4l-4.4-2.6v-6.4L478.6,212.9z"/>
<path class="st1" d="M484.6,216.4v6.4l-4.4-2.6v-6.4L484.6,216.4z"/>
<g>
	<path class="st12" d="M483.2,194.3v9.2l-9.1-5.2V189L483.2,194.3z"/>
</g>
<path class="st1" d="M482.1,196.1v-1.5l-7.1-4.1v1.5L482.1,196.1z"/>
<path class="st3" d="M421,41.7l-73.4,42.6l158.7,92.3l73.6-42.5L421,41.7z"/>
<path class="st4" d="M506.3,181.7v-5.4l73.6-42.5v5.4L506.3,181.7z"/>
<path class="st5" d="M347.6,84.3v5.4l158.7,91.7V176L347.6,84.3z"/>
<path class="st6" d="M480.4,80.8l-55,31.8l1.7,1.1l55.2-31.9L480.4,80.8z"/>
<path class="st7" d="M482.2,81.8L427,113.7v7.9l55.2-31.9V81.8z"/>
<path class="st8" d="M425.3,120.5v-7.9l1.7,1.1v7.9L425.3,120.5z"/>
<path class="st6" d="M418.9,45.1l-55,31.8l1.7,1.1l55.2-31.9L418.9,45.1z"/>
<path class="st7" d="M420.8,46.1L365.6,78v7.9L420.8,54V46.1z"/>
<path class="st8" d="M363.9,84.9V77l1.7,1.1v7.9L363.9,84.9z"/>
<path class="st6" d="M448.8,62.1l-55,31.8l1.7,1.1l55.2-31.9L448.8,62.1z"/>
<path class="st7" d="M450.6,63.1L395.4,95v7.9l55.2-31.9V63.1z"/>
<path class="st8" d="M393.7,101.8v-7.9l1.7,1.1v7.9L393.7,101.8z"/>
<path class="st8" d="M427,111.3l-63.2-36.5v2.5l63.2,36.5V111.3z"/>
<path class="st6" d="M433.6,107.6l-6.6,3.7l-63.2-36.5l6.6-3.7L433.6,107.6z"/>
<path class="st7" d="M433.6,107.6l-6.6,3.7v4.7l6.6-3.9V107.6z"/>
<path class="st8" d="M439.4,104L376,67.4v2.5l63.3,36.6V104z"/>
<path class="st6" d="M446,100.3l-6.6,3.7L376,67.4l6.6-3.7L446,100.3z"/>
<path class="st7" d="M446,100.3l-6.6,3.7v4.7l6.6-3.9V100.3z"/>
<path class="st8" d="M452,96.9l-63.5-36.7v2.5L452,99.4V96.9z"/>
<path class="st6" d="M458.6,93.1l-6.6,3.7l-63.5-36.7l6.6-3.7L458.6,93.1z"/>
<path class="st7" d="M458.6,93.1l-6.6,3.7v4.7l6.6-3.9V93.1z"/>
<path class="st8" d="M464.3,89.6l-63.3-36.5v2.5l63.3,36.5V89.6z"/>
<path class="st6" d="M470.9,85.9l-6.6,3.7l-63.3-36.5l6.6-3.7L470.9,85.9z"/>
<path class="st7" d="M470.9,85.9l-6.6,3.7v4.7l6.6-3.9V85.9z"/>
<path class="st8" d="M475.6,83.2l-63.5-36.6v2.5l63.5,36.6V83.2z"/>
<path class="st6" d="M482.2,79.5l-6.6,3.7l-63.5-36.6l6.6-3.7L482.2,79.5z"/>
<path class="st7" d="M482.2,79.5l-6.6,3.7V88l6.6-3.9V79.5z"/>
<path class="st9" d="M422.7,75.3l0-34.4L450.2,25v34.4L422.7,75.3z"/>
<path class="st10" d="M422.7,75.3l0-34.4L395.2,25v34.4L422.7,75.3z"/>
<path class="st11" d="M395.2,25l27.5,15.9L450.2,25L422.7,9.1L395.2,25z"/>
<path class="st1" d="M439.9,40.9l-6.1,3.6v-10l6.1-3.6V40.9z"/>
<g>
	<path class="st12" d="M439.9,30.9L412.5,15l-6.1,3.6l27.5,15.9L439.9,30.9z"/>
</g>
<path class="st1" d="M426.3,70.4v-1.8l9.2-5.4v1.8L426.3,70.4z"/>
<path class="st1" d="M426.3,67.2v-1.8l9.2-5.4v1.8L426.3,67.2z"/>
<path class="st1" d="M443.8,54.4v6.1l4.4-2.6v-6.1L443.8,54.4z"/>
<path class="st1" d="M401.2,53.7v6.4l-4.4-2.6v-6.4L401.2,53.7z"/>
<path class="st1" d="M407.2,57.2v6.4l-4.4-2.6v-6.4L407.2,57.2z"/>
<path class="st13" d="M405.9,35v9.2l-9.1-5.2v-9.2L405.9,35z"/>
<path class="st1" d="M404.7,36.9v-1.5l-7.1-4.1v1.5L404.7,36.9z"/>
<path class="st9" d="M452.7,92.5l0-34.4l27.5-15.9v34.4L452.7,92.5z"/>
<path class="st10" d="M452.7,92.5l0-34.4l-27.5-15.9v34.4L452.7,92.5z"/>
<path class="st11" d="M425.2,42.2l27.5,15.9l27.5-15.9l-27.5-15.9L425.2,42.2z"/>
<path class="st1" d="M470,58.1l-6.1,3.6v-10l6.1-3.6V58.1z"/>
<g>
	<path class="st12" d="M470,48.1l-27.5-15.9l-6.1,3.6l27.5,15.9L470,48.1z"/>
</g>
<path class="st1" d="M456.4,87.6v-1.8l9.2-5.4v1.8L456.4,87.6z"/>
<path class="st1" d="M456.4,84.4v-1.8l9.2-5.4v1.8L456.4,84.4z"/>
<path class="st1" d="M473.9,71.5v6.1l4.4-2.6V69L473.9,71.5z"/>
<path class="st1" d="M431.3,70.9v6.4l-4.4-2.6v-6.4L431.3,70.9z"/>
<path class="st1" d="M437.3,74.4v6.4l-4.4-2.6v-6.4L437.3,74.4z"/>
<path class="st13" d="M435.9,52.2v9.2l-9.1-5.2V47L435.9,52.2z"/>
<path class="st1" d="M434.8,54.1v-1.5l-7.1-4.1V50L434.8,54.1z"/>
<path class="st9" d="M394.3,92.4l0-34.4l27.5-15.9v34.4L394.3,92.4z"/>
<path class="st10" d="M394.4,92.4l0-34.4l-27.5-15.9v34.4L394.4,92.4z"/>
<path class="st11" d="M366.8,42.1L394.3,58l27.5-15.9l-27.5-15.9L366.8,42.1z"/>
<path class="st1" d="M411.6,58l-6.1,3.6v-10l6.1-3.6V58z"/>
<g>
	<path class="st12" d="M411.6,48l-27.5-15.9l-6.2,3.6l27.5,15.9L411.6,48z"/>
</g>
<path class="st1" d="M398,87.5v-1.8l9.2-5.4v1.8L398,87.5z"/>
<path class="st1" d="M398,84.3v-1.8l9.2-5.4V79L398,84.3z"/>
<path class="st1" d="M415.5,71.4v6.1l4.4-2.6v-6.1L415.5,71.4z"/>
<path class="st1" d="M372.9,70.8v6.4l-4.4-2.6v-6.4L372.9,70.8z"/>
<path class="st1" d="M378.9,74.3v6.4l-4.4-2.5v-6.4L378.9,74.3z"/>
<g>
	<path class="st12" d="M377.5,52.1v9.2l-9.1-5.2v-9.2L377.5,52.1z"/>
</g>
<path class="st1" d="M376.4,54v-1.5l-7.1-4.1v1.5L376.4,54z"/>
<path class="st9" d="M424.4,109.6l0-34.4l27.5-15.9v34.4L424.4,109.6z"/>
<path class="st10" d="M424.4,109.6l0-34.4l-27.5-15.9v34.4L424.4,109.6z"/>
<path class="st11" d="M396.9,59.3l27.5,15.9l27.5-15.9l-27.5-15.9L396.9,59.3z"/>
<path class="st1" d="M441.7,75.2l-6.1,3.6v-10l6.1-3.6V75.2z"/>
<g>
	<path class="st12" d="M441.7,65.2l-27.5-15.9l-6.1,3.6l27.5,15.9L441.7,65.2z"/>
</g>
<path class="st1" d="M428,104.7v-1.8l9.2-5.4v1.8L428,104.7z"/>
<path class="st1" d="M428,101.5v-1.8l9.2-5.4v1.8L428,101.5z"/>
<path class="st1" d="M445.6,88.6v6.1l4.4-2.6v-6.1L445.6,88.6z"/>
<path class="st1" d="M403,88v6.4l-4.4-2.6v-6.4L403,88z"/>
<path class="st1" d="M409,91.5v6.4l-4.4-2.5v-6.4L409,91.5z"/>
<g>
	<path class="st12" d="M407.6,69.3v9.2l-9.1-5.2V64L407.6,69.3z"/>
</g>
<path class="st1" d="M406.5,71.2v-1.5l-7.1-4.1V67L406.5,71.2z"/>
<path class="st6" d="M556,124.2l-55,31.8l1.7,1.1l55.2-31.9L556,124.2z"/>
<path class="st7" d="M557.8,125.2l-55.2,31.9v7.9l55.2-31.9V125.2z"/>
<path class="st8" d="M500.9,164V156l1.7,1.1v7.9L500.9,164z"/>
<path class="st6" d="M494.5,88.6l-55,31.8l1.7,1.1l55.2-31.9L494.5,88.6z"/>
<path class="st7" d="M496.4,89.6l-55.2,31.9v7.9l55.2-31.9V89.6z"/>
<path class="st8" d="M439.5,128.3v-7.9l1.7,1.1v7.9L439.5,128.3z"/>
<path class="st6" d="M524.3,105.5l-55,31.8l1.7,1.1l55.2-31.9L524.3,105.5z"/>
<path class="st7" d="M526.2,106.5L471,138.4v7.8l55.2-31.9V106.5z"/>
<path class="st8" d="M469.3,145.3v-7.9l1.7,1.1v7.8L469.3,145.3z"/>
<path class="st8" d="M502.6,154.7l-63.2-36.5v2.5l63.2,36.5V154.7z"/>
<path class="st6" d="M509.3,151l-6.6,3.7l-63.2-36.5l6.6-3.7L509.3,151z"/>
<path class="st7" d="M509.3,151l-6.6,3.7v4.7l6.6-3.9V151z"/>
<path class="st8" d="M515,147.4l-63.3-36.6v2.5L515,150V147.4z"/>
<path class="st6" d="M521.6,143.7l-6.6,3.7l-63.3-36.6l6.6-3.7L521.6,143.7z"/>
<path class="st7" d="M521.6,143.7l-6.6,3.7v4.7l6.6-3.9V143.7z"/>
<path class="st8" d="M527.6,140.3l-63.5-36.7v2.5l63.5,36.7V140.3z"/>
<path class="st6" d="M534.2,136.6l-6.6,3.7l-63.5-36.7l6.6-3.7L534.2,136.6z"/>
<path class="st7" d="M534.2,136.6l-6.6,3.7v4.7l6.6-3.9V136.6z"/>
<path class="st8" d="M539.9,133l-63.3-36.5v2.5l63.3,36.5V133z"/>
<path class="st6" d="M546.5,129.3l-6.6,3.7l-63.3-36.5l6.6-3.7L546.5,129.3z"/>
<path class="st7" d="M546.5,129.3l-6.6,3.7v4.7l6.6-3.9V129.3z"/>
<path class="st8" d="M551.2,126.7L487.7,90v2.5l63.5,36.6V126.7z"/>
<path class="st6" d="M557.8,122.9l-6.6,3.7L487.7,90l6.6-3.7L557.8,122.9z"/>
<path class="st7" d="M557.8,122.9l-6.6,3.7v4.7l6.6-3.9V122.9z"/>
<path class="st9" d="M501.8,114.8l0-14.2l20.3-11.7v14.2L501.8,114.8z"/>
<path class="st10" d="M501.8,114.8l0-14.2l-23.6-13.6v14.2L501.8,114.8z"/>
<path class="st11" d="M478.2,86.9l23.6,13.6l20.3-11.7l-23.6-13.6L478.2,86.9z"/>
<path class="st1" d="M503.5,112.2v-1.5l7.7-4.4v1.5L503.5,112.2z"/>
<path class="st1" d="M503.5,109.6v-1.5l7.7-4.4v1.5L503.5,109.6z"/>
<path class="st1" d="M485,93.9v6.6l-4.6-2.6v-6.6L485,93.9z"/>
<path class="st13" d="M489.4,95.7v7.8l-9.5-5.5v-7.8L489.4,95.7z"/>
<path class="st1" d="M487.9,97.6v-1.5l-7-4v1.4L487.9,97.6z"/>
<path class="st1" d="M516.2,92.2l-5.2,3v7.5l5.2-3V92.2z"/>
<g>
	<path class="st12" d="M516.2,92.2l-23.6-13.6l-5.3,3l23.6,13.6L516.2,92.2z"/>
</g>
<path class="st9" d="M471.1,132.4l0-14.2l20.3-11.7v14.2L471.1,132.4z"/>
<path class="st10" d="M471.1,132.4l0-14.2l-23.6-13.6v14.2L471.1,132.4z"/>
<path class="st11" d="M447.5,104.5l23.6,13.6l20.3-11.7l-23.6-13.6L447.5,104.5z"/>
<path class="st1" d="M472.8,129.8v-1.5l7.7-4.4v1.5L472.8,129.8z"/>
<path class="st1" d="M472.8,127.2v-1.5l7.7-4.4v1.5L472.8,127.2z"/>
<path class="st1" d="M454.4,111.5v6.6l-4.6-2.6v-6.6L454.4,111.5z"/>
<g>
	<path class="st12" d="M458.7,113.3v7.8l-9.5-5.5v-7.8L458.7,113.3z"/>
</g>
<path class="st1" d="M457.3,115.2v-1.5l-7-4v1.4L457.3,115.2z"/>
<path class="st1" d="M485.5,109.8l-5.2,3v7.5l5.2-3V109.8z"/>
<g>
	<path class="st12" d="M485.5,109.8L462,96.2l-5.3,3l23.6,13.6L485.5,109.8z"/>
</g>
<path class="st9" d="M531.7,132.2l0-14.2l20.3-11.7v14.2L531.7,132.2z"/>
<path class="st10" d="M531.7,132.2l0-14.2l-23.6-13.6v14.2L531.7,132.2z"/>
<path class="st11" d="M508.2,104.4l23.6,13.6l20.3-11.7l-23.6-13.6L508.2,104.4z"/>
<path class="st1" d="M533.4,129.6v-1.5l7.7-4.4v1.5L533.4,129.6z"/>
<path class="st1" d="M533.4,127v-1.5l7.7-4.4v1.5L533.4,127z"/>
<path class="st1" d="M515,111.4v6.6l-4.6-2.6v-6.6L515,111.4z"/>
<path class="st13" d="M519.3,113.1v7.8l-9.5-5.5v-7.8L519.3,113.1z"/>
<path class="st1" d="M517.9,115v-1.5l-7-4v1.4L517.9,115z"/>
<path class="st1" d="M546.1,109.7l-5.2,3v7.5l5.2-3V109.7z"/>
<g>
	<path class="st12" d="M546.1,109.7L522.6,96l-5.3,3l23.6,13.6L546.1,109.7z"/>
</g>
<path class="st9" d="M501.1,149.8l0-14.2l20.3-11.7v14.2L501.1,149.8z"/>
<path class="st10" d="M501.1,149.8l0-14.2L477.5,122v14.2L501.1,149.8z"/>
<path class="st11" d="M477.5,122l23.6,13.6l20.3-11.7l-23.6-13.6L477.5,122z"/>
<path class="st1" d="M502.8,147.2v-1.5l7.7-4.4v1.5L502.8,147.2z"/>
<path class="st1" d="M502.8,144.6v-1.5l7.7-4.4v1.5L502.8,144.6z"/>
<path class="st1" d="M484.3,129v6.6l-4.6-2.6v-6.6L484.3,129z"/>
<g>
	<path class="st12" d="M488.7,130.7v7.8l-9.5-5.5v-7.8L488.7,130.7z"/>
</g>
<path class="st1" d="M487.2,132.6v-1.5l-7-4v1.4L487.2,132.6z"/>
<path class="st1" d="M515.5,127.3l-5.2,3v7.5l5.2-3V127.3z"/>
<g>
	<path class="st12" d="M515.5,127.3l-23.5-13.6l-5.3,3l23.6,13.6L515.5,127.3z"/>
</g>
<path class="st9" d="M501.8,99.1l0-14.2l20.3-11.7v14.2L501.8,99.1z"/>
<path class="st10" d="M501.8,99.1l0-14.2l-23.6-13.6v14.2L501.8,99.1z"/>
<path class="st11" d="M478.2,71.3l23.6,13.6l20.3-11.7l-23.6-13.6L478.2,71.3z"/>
<path class="st1" d="M503.5,96.5v-1.5l7.7-4.4v1.5L503.5,96.5z"/>
<path class="st1" d="M503.5,93.9v-1.5l7.7-4.4v1.5L503.5,93.9z"/>
<path class="st1" d="M485,78.3v6.6l-4.6-2.6v-6.6L485,78.3z"/>
<g>
	<path class="st12" d="M489.4,80v7.8l-9.5-5.5v-7.8L489.4,80z"/>
</g>
<path class="st1" d="M487.9,81.9v-1.5l-7-4v1.4L487.9,81.9z"/>
<path class="st1" d="M516.2,76.5l-5.2,3v7.5l5.2-3V76.5z"/>
<g>
	<path class="st12" d="M516.2,76.5l-23.6-13.6l-5.3,3l23.6,13.6L516.2,76.5z"/>
</g>
<path class="st9" d="M471.1,116.7l0-14.2l20.3-11.7V105L471.1,116.7z"/>
<path class="st10" d="M471.1,116.7l0-14.2l-23.6-13.6v14.2L471.1,116.7z"/>
<path class="st11" d="M447.5,88.9l23.6,13.6l20.3-11.7l-23.6-13.6L447.5,88.9z"/>
<path class="st1" d="M472.8,114.1v-1.5l7.7-4.4v1.5L472.8,114.1z"/>
<path class="st1" d="M472.8,111.5V110l7.7-4.4v1.5L472.8,111.5z"/>
<path class="st1" d="M454.4,95.9v6.6l-4.6-2.6v-6.6L454.4,95.9z"/>
<g>
	<path class="st12" d="M458.7,97.6v7.8l-9.5-5.5v-7.8L458.7,97.6z"/>
</g>
<path class="st1" d="M457.3,99.5v-1.5l-7-4v1.4L457.3,99.5z"/>
<path class="st1" d="M485.5,94.2l-5.2,3v7.5l5.2-3V94.2z"/>
<g>
	<path class="st12" d="M485.5,94.2L462,80.6l-5.3,3l23.6,13.6L485.5,94.2z"/>
</g>
<path class="st9" d="M531.7,116.6l0-14.2l20.3-11.7v14.2L531.7,116.6z"/>
<path class="st10" d="M531.7,116.6l0-14.2l-23.6-13.6V103L531.7,116.6z"/>
<path class="st11" d="M508.2,88.7l23.6,13.6l20.3-11.7L528.5,77L508.2,88.7z"/>
<path class="st1" d="M533.4,114v-1.5l7.7-4.4v1.5L533.4,114z"/>
<path class="st1" d="M533.4,111.4v-1.5l7.7-4.4v1.5L533.4,111.4z"/>
<path class="st1" d="M515,95.7v6.6l-4.6-2.6v-6.6L515,95.7z"/>
<g>
	<path class="st12" d="M519.3,97.5v7.8l-9.5-5.5V92L519.3,97.5z"/>
</g>
<path class="st1" d="M517.9,99.4v-1.5l-7-4v1.4L517.9,99.4z"/>
<path class="st1" d="M546.1,94l-5.2,3v7.5l5.2-3V94z"/>
<g>
	<path class="st12" d="M546.1,94l-23.6-13.6l-5.3,3l23.6,13.6L546.1,94z"/>
</g>
<path class="st9" d="M501.1,134.2l0-14.2l20.3-11.7v14.2L501.1,134.2z"/>
<path class="st10" d="M501.1,134.2l0-14.2l-23.6-13.6v14.2L501.1,134.2z"/>
<path class="st11" d="M477.5,106.3l23.6,13.6l20.3-11.7l-23.6-13.6L477.5,106.3z"/>
<path class="st1" d="M502.8,131.6v-1.5l7.7-4.4v1.5L502.8,131.6z"/>
<path class="st1" d="M502.8,129v-1.5l7.7-4.4v1.5L502.8,129z"/>
<path class="st1" d="M484.3,113.3v6.6l-4.6-2.6v-6.6L484.3,113.3z"/>
<g>
	<path class="st12" d="M488.7,115.1v7.8l-9.5-5.5v-7.8L488.7,115.1z"/>
</g>
<path class="st1" d="M487.2,117v-1.5l-7-4v1.4L487.2,117z"/>
<path class="st1" d="M515.5,111.6l-5.2,3v7.5l5.2-3V111.6z"/>
<g>
	<path class="st12" d="M515.5,111.6L491.9,98l-5.3,3l23.6,13.6L515.5,111.6z"/>
</g>
<path class="st0" d="M507.3,351l0-211l-3.5-2v211L507.3,351z"/>
<path class="st1" d="M507.3,351l4.2-2.4V137.6l-4.2,2.4V351z"/>
<path class="st0" d="M580.8,308.7l0-211l-3.5-2v211L580.8,308.7z"/>
<path class="st1" d="M580.8,308.7l4.2-2.4V95.2l-4.2,2.4V308.7z"/>
<path class="st2" d="M503.8,138l3.5,2l4.2-2.4l-3.5-2L503.8,138z"/>
<path class="st2" d="M577.4,95.6l3.5,2l4.2-2.4l-3.5-2L577.4,95.6z"/>
<path class="st1" d="M583.6,300.9l-2.8,2.8l-71.7-57l1.3-4.2L583.6,300.9z"/>
<path class="st1" d="M509.7,341.5l0.7,4l72.2-140.2l-1.7-2.4L509.7,341.5z"/>
<path class="st1" d="M583.6,201.4l-2.8,2.8l-71.7-57l1.3-4.2L583.6,201.4z"/>
<path class="st1" d="M509.7,242.1l0.7,4l72.2-140.2l-1.7-2.5L509.7,242.1z"/>
<g>
	<path class="st14" d="M308.2,419.9c13.6-7.8,35.6-7.9,49.1-0.1c13.5,7.8,13.4,20.5-0.2,28.3c-13.6,7.9-35.6,7.9-49.1,0.1
		C294.6,440.4,294.6,427.8,308.2,419.9z"/>
</g>
<path class="st15" d="M309.8,429c0,0-2.3,2.4-5.3,5.4c-2.8,2.7-3.6,3.5-6.2,6c-1.5,1.5-0.3,2.8,2.6,2.7c3.9-0.4,7.7-1.2,11.4-2.5
	c3-1.2,5.9-2.7,8.6-4.5c1.2-0.7,2.1-1.9,2.5-3.2v-4.5L309.8,429z"/>
<path class="st15" d="M351,425c-1.3,1.8-2.8,3.5-4.5,5c-2.2,2.1-4.3,4.5-6.1,7c-0.6,0.7-0.9,2.8,2,2.7c3.3-0.3,6.5-1.1,9.6-2.3
	c3.7-1.3,6.8-5,8.9-6.3c1.4-1.1,2.5-2.6,3.1-4.3l-1.5-4.5L351,425z"/>
<path class="st16" d="M349.8,351.5c1.1-16.6-8.1-25.4-8.1-25.4c0.7-5.6-25.2,2.2-25.2,2.2s-5.6,30.1-7.9,46
	c-2.7,18-1.1,54.7-1.1,54.7s0.3,3.9,7,3.9c5.1,0,9-4.5,9-4.5l0.5-41.8l6-29.6c0,0,5.7,24.1,7.6,32.7c1.9,9.2,9.4,36.4,9.4,36.4
	s4.8,5.5,10.8,2.5c6-3,4.8-6.3,4.8-6.3s-1.2-19.3-8.8-36.5C353,372.7,349.3,359.2,349.8,351.5z"/>
<path class="st17" d="M320,284.8c0,0-3.7-0.2-7.5,7s-7.5,14.9-7.5,14.9s5.6,0.8,11.7,6.4C325,305.6,326.3,288.3,320,284.8z"/>
<path class="st18" d="M320,284.8c-1.7,3.6-3.1,7.4-4,11.4c-1.9,7.4-1.2,41.5-1.2,41.5s7.9,5.6,21.2,4.5c4.5-0.3,8.8-2.3,11.9-5.5
	c0,0,4.7-33.5,4.1-38.3c-0.6-4.8-10.7-16.1-10.7-16.1S328,281.7,320,284.8z"/>
<path class="st19" d="M329.1,280.1l-1.5,9c0,0,4.6,5.1,9,1.3c4.4-3.8,5.1-5.6,5.1-5.6l-2.2-12.2L329.1,280.1z"/>
<path class="st20" d="M335.4,259.1c-3.8-2.9-12.9-3.8-16.2,5.5c-3.5,9.8,5.4,22,10.1,20c2.6-1.2,8.2-5.3,9.8-10.5
	C341,268.3,338.4,261.3,335.4,259.1z"/>
<path class="st15" d="M318.5,267.7c1.6,1.6,3.9,3.4,8.6,2.6c2.4-0.4,4.6-1.2,6.7-2.5c0,0,3,2,4.1,2.6c1.3,0.7,1.3,3.6,1.3,3.6
	s2.5-3.2,1.2-9c-0.8-3.7-4.4-11.4-11.3-10.8s-10.9,5.1-11.7,9.1c-0.2,0.8-0.2,1.5,0,2.3C317.6,266.4,318,267.1,318.5,267.7z"/>
<path class="st16" d="M329.5,305.1c0,0,5.8-8.8,10.4-11.2c2.5-1.4,5.3-2.4,8.1-3c0,0-2-3.4-3.2-3.8c-2,0.3-3.9,0.8-8,3
	c-4.1,2.2-8.7,7.4-10.5,10.6C322.7,307.1,326.8,308.8,329.5,305.1z"/>
<path class="st16" d="M319.5,284.9c0,0-3.2,7.6-3.7,11.9c-0.5,4.4,0.4,5.7,2.2,5.9s1.9-3,2.4-6.4c0.5-3.3,3.3-12.5,3.3-12.5
	L319.5,284.9z"/>
<path class="st16" d="M348.6,331.1c0,0-5.8,4-10,3.6c-3.7-0.4-9-4-8.7-15.7c0.3-11.7,1.4-17.1,1.4-17.1l-14.1-6.2
	c0,0-3.8,8.9-4.6,26.3c-0.8,17.4-1.1,23.4-1.1,23.4s15.1,0.9,24,0c8.9-0.9,13.9-3.2,13.9-3.2L348.6,331.1z"/>
<path class="st13" d="M317.8,300.2c0.5,0,0.9-0.6,0.9-1.3c0-0.7-0.4-1.3-0.9-1.3c-0.5,0-0.9,0.6-0.9,1.3
	C317,299.6,317.3,300.2,317.8,300.2z"/>
<path class="st13" d="M327.2,302.8c-0.4,0.6-0.4,1.3,0,1.6c0.4,0.3,1.1,0,1.5-0.5c0.2-0.2,0.3-0.5,0.3-0.8s-0.1-0.6-0.3-0.8
	C328.3,302,327.6,302.2,327.2,302.8z"/>
<path class="st21" d="M316,304.5c-0.6,2.9-0.3,12.1,4.9,13.5c4.7,1.3,6-4.3,7-8.6C323.7,308.3,319.7,306.7,316,304.5z"/>
<path class="st20" d="M334.7,315.7c0,0-2.6,6.6-4.9,9.8c-1.5,2.1-10.1,8-13.5,10.6c2,1.3,2.9,3.1,4.2,5.1c4.5-1.5,13.1-6.7,14.4-7.6
	c3.4-2.4,9.9-11.8,9.9-11.8S341.7,314.2,334.7,315.7z"/>
<path class="st17" d="M350.3,294.3c-2.8-2.3-8.8,5.4-12,10.2c-2.3,3.8-4.2,7.8-5.8,12c0,0,3.9,2.8,7.3,5c1.9,1.2,3.9,2.3,5.9,3.2
	C345.7,324.7,359.9,302,350.3,294.3z"/>
<path class="st18" d="M336.6,259.7c5.5,2.2,6.8,6.6,2.7,9.8s-11.9,4-17.4,1.8s-6.8-6.6-2.7-9.8S331.1,257.5,336.6,259.7z"/>
<path class="st18" d="M316.9,266.3c0,0-2.4-14.3,10-16.1c14.4-2.1,14.9,14.8,14.9,14.8L316.9,266.3z"/>
<path class="st17" d="M316.7,264.2c0,0-6,5.6,1.3,8.8c12.3,5.3,22.4-4.5,22.4-4.5s-13.1,3.1-19.8,0.2
	C316.1,266.7,316.7,264.2,316.7,264.2z"/>
<path class="st17" d="M328.7,251c-1.9,1.1-2.7,2.4-3.8,5.1c-1.1,2.7-0.2,5.2,2.5,6.8c1.7,1.1,3.3,2.5,4.5,4.2c0.1-0.9,0-1.8-0.4-2.7
	c-0.3-0.8-0.8-1.6-1.5-2.2c-2.3-1.9-4.4-2.9-3.1-6c1.6-3.8,6.9-5.2,6.9-5.2S331.9,249.2,328.7,251z"/>
<path class="st17" d="M326.9,250.2c0,0-3.5,1.4-5,3.6c-0.7,1.1-0.6,4.8-1.3,5.7c-1.2,1.3-2.5,2.5-3.9,3.5c0,0-1-0.9,0.2-2.6
	c1.2-1.7,2.7-1.8,2.9-4.3C319.9,254.4,319,250.7,326.9,250.2z"/>
<path class="st15" d="M306.2,358.7h-2.5V423h2.5V358.7z"/>
<path class="st22" d="M303.7,358.7h-4.2V423h4.2V358.7z"/>
<path class="st15" d="M304.1,360.3c-0.2,0-0.4-0.1-0.6-0.2c-1.6-0.6-2.9-1.8-3.6-3.3l-6.9-14c-0.6-1-0.8-2.1-0.7-3.3
	c0.1-1.1,0.5-2.2,1.2-3.1c0.7-0.8,1.7-1.3,2.8-1.4c1.1-0.1,2.1,0.1,3.1,0.6l15,8c0.9,0.5,1.7,1.2,2.3,2.1c0.6,0.9,1,1.8,1.1,2.9
	c0.2,0.9,0.1,1.9-0.2,2.8c-0.3,0.9-0.9,1.7-1.7,2.3l-8.2,5.9c-0.5,0.4-1.1,0.6-1.8,0.8C305.4,360.5,304.8,360.4,304.1,360.3z
	 M302.6,355.6c0.3,0.6,0.8,1.1,1.5,1.4c0.3,0.1,0.6,0.2,0.9,0.1c0.3,0,0.6-0.1,0.9-0.3l8.2-5.9c0.3-0.2,0.5-0.6,0.7-0.9
	c0.1-0.4,0.2-0.8,0.1-1.2c-0.1-0.4-0.2-0.8-0.5-1.2c-0.2-0.3-0.6-0.6-0.9-0.8l-15-8c-0.4-0.2-0.8-0.3-1.2-0.3
	c-0.4,0.1-0.8,0.3-1.1,0.6c-0.3,0.4-0.5,0.8-0.5,1.3c0,0.5,0.1,0.9,0.3,1.3L302.6,355.6z"/>
<path class="st15" d="M305,361.2l2.7-1.5v-0.7l-3.5,1.7L305,361.2z"/>
<path class="st15" d="M292.7,336.6l2.1-1.2l0.5,0.5l-1.8,1.8L292.7,336.6z"/>
<path class="st22" d="M302,361.5c-0.2,0-0.4-0.1-0.6-0.2c-1.6-0.6-2.9-1.8-3.6-3.3l-6.9-14c-0.6-1-0.8-2.1-0.7-3.3
	c0.1-1.1,0.5-2.2,1.2-3.1c0.7-0.8,1.7-1.3,2.8-1.5c1.1-0.1,2.1,0.1,3.1,0.6l15,8c0.9,0.5,1.7,1.2,2.3,2.1c0.6,0.9,1,1.8,1.2,2.9
	c0.2,0.9,0.1,1.9-0.2,2.8c-0.3,0.9-0.9,1.7-1.7,2.3l-8.2,5.9c-0.5,0.4-1.1,0.6-1.8,0.7C303.3,361.7,302.6,361.7,302,361.5z
	 M300.5,356.8c0.3,0.6,0.8,1.1,1.5,1.4c0.3,0.1,0.6,0.2,0.9,0.1c0.3,0,0.6-0.1,0.9-0.3l8.1-5.9c0.3-0.2,0.5-0.6,0.7-0.9
	c0.1-0.4,0.2-0.8,0.1-1.2c-0.1-0.4-0.2-0.8-0.5-1.2c-0.2-0.3-0.6-0.6-0.9-0.8l-15-8c-0.4-0.2-0.8-0.3-1.3-0.3
	c-0.4,0.1-0.8,0.3-1.1,0.6c-0.3,0.4-0.5,0.8-0.5,1.3c0,0.5,0.1,0.9,0.3,1.3L300.5,356.8z"/>
<path class="st15" d="M320.6,449.9l-71.5,41.4c-3.8,2.2-9.6,2.5-12.9,0.6c-3.3-1.9-2.9-5.3,0.9-7.5l71.5-41.5L320.6,449.9z"/>
<path class="st15" d="M320.6,446.8v3.1l-5.2,1l-1-5L320.6,446.8z"/>
<path class="st15" d="M234,485.6v3.2l1.2,1.4l0.6-3.8L234,485.6z"/>
<path class="st23" d="M320.6,446.8l-71.5,41.4c-3.8,2.2-9.6,2.5-12.9,0.6c-3.3-1.9-2.9-5.3,0.9-7.5l71.5-41.4L320.6,446.8z"/>
<path class="st24" d="M247.6,483.1c0.2,1.2-1.4,2.5-3.4,2.8c-2.1,0.3-4-0.4-4.2-1.6s1.3-2.5,3.4-2.8
	C245.6,481.1,247.4,481.9,247.6,483.1z"/>
<path class="st25" d="M247.1,482.5c0.2,1.1-1.2,2.2-3.1,2.5c-1.9,0.3-3.6-0.3-3.7-1.4s1.2-2.2,3.1-2.5
	C245.2,480.8,246.9,481.4,247.1,482.5z"/>
<path class="st15" d="M290.6,432.7l-71.5,41.4c-3.8,2.2-9.6,2.5-12.9,0.6s-2.9-5.3,0.9-7.5l71.5-41.5L290.6,432.7z"/>
<path class="st15" d="M290.6,429.5v3.1l-5.2,1l-1.1-5L290.6,429.5z"/>
<path class="st15" d="M204,468.3v3.2l1.2,1.4l0.6-3.8L204,468.3z"/>
<path class="st23" d="M290.6,429.5L219.2,471c-3.8,2.2-9.6,2.5-12.9,0.6c-3.3-1.9-2.9-5.3,0.9-7.5l71.5-41.4L290.6,429.5z"/>
<path class="st24" d="M217.6,465.8c0.2,1.2-1.3,2.5-3.4,2.8c-2.1,0.3-4-0.4-4.2-1.6s1.4-2.5,3.4-2.8
	C215.6,463.8,217.4,464.6,217.6,465.8z"/>
<path class="st25" d="M217.1,465.2c0.2,1.1-1.2,2.2-3.1,2.5c-1.9,0.3-3.6-0.3-3.7-1.4s1.2-2.2,3.1-2.5S216.9,464.1,217.1,465.2z"/>
<path class="st24" d="M274,425.3l8.9-23.6l30.9,17.8l2.1,30L274,425.3z"/>
<path class="st26" d="M316,449.5l4.6-2.7l-2.2-29.9l-4.5,2.6L316,449.5z"/>
<path class="st25" d="M283,401.7l30.9,17.8l4.5-2.6l-30.8-17.8L283,401.7z"/>
<path class="st20" d="M318.1,335c-0.7,0.5-1.2,0.8-1.5,1c-1.9,1-4.6,2.3-6.8,2.1c-0.7-0.1-1.3,0-2,0.2c-0.6,0.2-1.2,0.6-1.7,1
	c0.5,0.3,1.5,0.8,1.5,0.8s-3.6,1.5-3.4,4.4c0,1.5,0.4,1.5,1.5,1.5c0.3,0.6,0.5,1.4,1.9,1.1c0.4,0.3,2,1.5,2.9,1.4
	c3.9-0.9,6.7-4.5,8.1-5.8c1.4-1.2,2.8-2.2,4.4-3.2C321.8,337.6,320.1,336,318.1,335z"/>
<path class="st20" d="M306,307c-4.3,6.3-8,12.9-11,19.9c-0.8,1.9-3.2,7.4-2.9,10c0,1.1,0.3,2.1,0.8,3c0.5,0.9,1.2,1.7,2,2.4
	c0.1,0.1,0.3,0.2,0.5,0.2c0.2,0,0.3,0,0.5,0c0.2-0.1,0.3-0.2,0.4-0.3c0.1-0.1,0.2-0.3,0.2-0.4c0.7,0.3,1.4,0.6,2.1,0.8
	c0.7,0.1,1.1-0.8,1.1-0.8s-2-3.1-1.1-4.1c0.5-0.6,1-1.1,1.7-1.4l2.6,1.4c0,0-1.9-3-2.3-3.9c-0.3-0.5-0.5-1.1-0.6-1.7
	c-0.2-1.6,8-12.9,8.9-14c1.8-2.2,3.4-4.7,4.6-7.3c-0.9-0.7-1.9-1.3-2.9-1.9C309.3,307.9,307.7,307.3,306,307z"/>
<path class="st10" d="M264.8,475.5l0-41.6l33.2-19.2v41.5L264.8,475.5z"/>
<path class="st9" d="M264.8,475.5l0-41.6l-33.2-19.2v41.5L264.8,475.5z"/>
<path class="st10" d="M235.9,453.5v-31.9l-1-0.6v33.2l26.5,15.4v-1.3L235.9,453.5z"/>
<path class="st9" d="M261.5,468.3l0-31.9l-25.6-14.8v31.9L261.5,468.3z"/>
<path class="st1" d="M251.8,460.2l7.1,4.1v-10.7l-7.1-4.1V460.2z"/>
<path class="st11" d="M293.7,453.5v-31.9l1-0.6v33.2l-26.5,15.4v-1.3L293.7,453.5z"/>
<path class="st10" d="M268.1,468.3l0-31.9l25.6-14.8v31.9L268.1,468.3z"/>
<path class="st11" d="M231.6,414.7l33.2,19.2l33.2-19.2l-33.2-19.2L231.6,414.7z"/>
<path class="st27" d="M291.1,415.1l1.1-0.6l-27.4-15.8l-27.4,15.8l1.1,0.6l26.3-15.2L291.1,415.1z"/>
<path class="st28" d="M291.1,415.1l-26.3-15.2l-26.3,15.2l26.3,15.2L291.1,415.1z"/>
<path class="st29" d="M286.8,428.9v10.7l5.5-3.2v-10.7L286.8,428.9z"/>
<path class="st29" d="M278.7,433.5v10.7l5.5-3.2v-10.7L278.7,433.5z"/>
<path class="st10" d="M264.8,431.8l0-41.6L298,371v41.5L264.8,431.8z"/>
<path class="st9" d="M264.8,431.8l0-41.6L231.6,371v41.5L264.8,431.8z"/>
<path class="st10" d="M235.9,409.8v-31.9l-1-0.6v33.2l26.5,15.4v-1.3L235.9,409.8z"/>
<path class="st9" d="M261.5,424.6l0-31.9l-25.6-14.8v31.9L261.5,424.6z"/>
<path class="st1" d="M251.8,416.5l7.1,4.1v-10.7l-7.1-4.1V416.5z"/>
<path class="st11" d="M293.7,409.8v-31.9l1-0.6v33.2l-26.5,15.4v-1.3L293.7,409.8z"/>
<path class="st10" d="M268.1,424.6l0-31.9l25.6-14.8v31.9L268.1,424.6z"/>
<path class="st11" d="M231.6,371l33.2,19.2L298,371l-33.2-19.2L231.6,371z"/>
<path class="st27" d="M291.1,371.4l1.1-0.6l-27.4-15.8l-27.4,15.8l1.1,0.6l26.3-15.2L291.1,371.4z"/>
<path class="st28" d="M291.1,371.4l-26.3-15.2l-26.3,15.2l26.3,15.2L291.1,371.4z"/>
<path class="st29" d="M286.8,385.2v10.7l5.5-3.2V382L286.8,385.2z"/>
<path class="st29" d="M278.7,389.8v10.7l5.5-3.2v-10.7L278.7,389.8z"/>
<path class="st10" d="M264.8,387.8l0-41.5l33.2-19.2v41.5L264.8,387.8z"/>
<path class="st9" d="M264.8,387.8l0-41.5l-33.2-19.2v41.5L264.8,387.8z"/>
<path class="st10" d="M235.9,365.8v-31.9l-1-0.6v33.2l26.5,15.4v-1.3L235.9,365.8z"/>
<path class="st9" d="M261.5,380.6l0-32l-25.6-14.8v31.9L261.5,380.6z"/>
<path class="st1" d="M251.8,372.6l7.1,4.1V366l-7.1-4.1V372.6z"/>
<path class="st11" d="M293.7,365.8v-31.9l1-0.6v33.2l-26.5,15.4v-1.3L293.7,365.8z"/>
<path class="st10" d="M268.1,380.6l0-32l25.6-14.8v31.9L268.1,380.6z"/>
<path class="st11" d="M231.6,327.1l33.2,19.2l33.2-19.2l-33.2-19.2L231.6,327.1z"/>
<path class="st30" d="M291.1,327.5l1.1-0.6L264.8,311l-27.4,15.8l1.1,0.6l26.3-15.2L291.1,327.5z"/>
<path class="st11" d="M291.1,327.5l-26.3-15.2l-26.3,15.2l26.3,15.2L291.1,327.5z"/>
<path class="st29" d="M286.8,341.2V352l5.5-3.2v-10.7L286.8,341.2z"/>
<path class="st29" d="M278.7,345.8v10.7l5.5-3.2v-10.7L278.7,345.8z"/>
<g>
	<defs>
		<rect id="SVGID_1_" y="381" width="161" height="143"/>
	</defs>
	<clipPath id="SVGID_2_">
		<use xlink:href="#SVGID_1_"  style="overflow:visible;"/>
	</clipPath>
	<g class="st31">
		<path class="st14" d="M2.8,475.9L84.1,524l76.9-45l-81.3-48.3L2.8,475.9z"/>
		<path class="st6" d="M143.6,469.9l-67.8,39.2l2.1,1.3l68-39.3L143.6,469.9z"/>
		<path class="st7" d="M145.9,471.1l-68,39.3v9.7l68-39.3V471.1z"/>
		<path class="st8" d="M75.7,518.9v-9.8l2.1,1.3v9.7L75.7,518.9z"/>
		<path class="st6" d="M67.8,426L0,465.2l2.1,1.3l68-39.3L67.8,426z"/>
		<path class="st7" d="M70.2,427.2l-68,39.3v9.7l68-39.3V427.2z"/>
		<path class="st8" d="M0,475v-9.8l2.1,1.3v9.7L0,475z"/>
		<path class="st6" d="M104.6,446.8l-67.8,39.2l2.1,1.3l68-39.3L104.6,446.8z"/>
		<path class="st7" d="M106.9,448.1l-68,39.3v9.7l68-39.3V448.1z"/>
		<path class="st8" d="M36.8,495.8v-9.8l2.1,1.3v9.7L36.8,495.8z"/>
		<path class="st8" d="M77.8,507.5L0,462.5v3.1l77.8,45V507.5z"/>
		<path class="st6" d="M86,502.9l-8.2,4.6L0,462.5l8.1-4.6L86,502.9z"/>
		<path class="st7" d="M86,502.9l-8.2,4.6v5.8l8.2-4.8V502.9z"/>
		<path class="st8" d="M93,498.5L15,453.4v3.1L93,501.6V498.5z"/>
		<path class="st6" d="M101.2,494l-8.2,4.6L15,453.4l8.1-4.6L101.2,494z"/>
		<path class="st7" d="M101.2,494l-8.2,4.6v5.8l8.2-4.8V494z"/>
		<path class="st8" d="M108.6,489.7l-78.2-45.2v3.1l78.2,45.2V489.7z"/>
		<path class="st6" d="M116.7,485.1l-8.2,4.6l-78.2-45.2l8.1-4.6L116.7,485.1z"/>
		<path class="st7" d="M116.7,485.1l-8.2,4.6v5.8l8.2-4.8V485.1z"/>
		<path class="st8" d="M123.8,480.8l-78.1-45v3.1l78.1,45V480.8z"/>
		<path class="st6" d="M131.9,476.2l-8.2,4.6l-78.1-45l8.1-4.6L131.9,476.2z"/>
		<path class="st7" d="M131.9,476.2l-8.2,4.6v5.8l8.2-4.8V476.2z"/>
		<path class="st8" d="M137.7,472.9l-78.3-45.2v3.1l78.3,45.2V472.9z"/>
		<path class="st6" d="M145.9,468.3l-8.2,4.6l-78.3-45.2l8.1-4.6L145.9,468.3z"/>
		<path class="st7" d="M145.9,468.3l-8.2,4.6v5.8l8.2-4.8V468.3z"/>
		<path class="st9" d="M43.1,481.6l0-24.2L8,437v24.2L43.1,481.6z"/>
		<path class="st10" d="M43.1,481.6l0-24.2l50.6-29.3v24.2L43.1,481.6z"/>
		<path class="st11" d="M93.7,428.1l-50.6,29.3L8,437l50.6-29.2L93.7,428.1z"/>
		<path class="st1" d="M21,457.4l7.8,4.6v-12.8l-7.8-4.6V457.4z"/>
		<g>
			<path class="st12" d="M21,444.5l50.6-29.2l7.9,4.5l-50.6,29.3L21,444.5z"/>
		</g>
		<path class="st1" d="M40.5,477.6v-2.3l-11.8-6.9v2.3L40.5,477.6z"/>
		<path class="st1" d="M40.5,473.5v-2.3l-11.8-6.8v2.3L40.5,473.5z"/>
		<path class="st1" d="M86.6,445.4v8.2l5.7-3.3v-8.2L86.6,445.4z"/>
		<path class="st1" d="M78.9,449.9v8.2l5.6-3.3v-8.2L78.9,449.9z"/>
		<path class="st1" d="M71.1,454.3v8.2l5.6-3.3v-8.2L71.1,454.3z"/>
		<g>
			<path class="st12" d="M44.6,458.3v11.8l11.6-6.7v-11.8L44.6,458.3z"/>
		</g>
		<path class="st1" d="M46.1,460.7v-1.9l9.1-5.3v1.9L46.1,460.7z"/>
		<path class="st9" d="M81.7,504.2l0-24.2l-35.2-20.3v24.2L81.7,504.2z"/>
		<path class="st10" d="M81.7,504.2l0-24.2l50.6-29.3v24.2L81.7,504.2z"/>
		<path class="st11" d="M132.4,450.7L81.7,480l-35.2-20.3l50.6-29.2L132.4,450.7z"/>
		<path class="st1" d="M59.6,480l7.8,4.6v-12.9l-7.8-4.6V480z"/>
		<g>
			<path class="st12" d="M59.6,467.2l50.6-29.2l7.9,4.5l-50.6,29.3L59.6,467.2z"/>
		</g>
		<path class="st1" d="M79.1,500.2V498l-11.8-6.8v2.3L79.1,500.2z"/>
		<path class="st1" d="M79.1,496.2v-2.3l-11.8-6.8v2.3L79.1,496.2z"/>
		<path class="st1" d="M125.2,468v8.2l5.6-3.3v-8.2L125.2,468z"/>
		<path class="st1" d="M117.5,472.5v8.2l5.6-3.3v-8.2L117.5,472.5z"/>
		<path class="st1" d="M109.7,477v8.2l5.6-3.3v-8.2L109.7,477z"/>
		<g>
			<path class="st12" d="M83.3,481v11.8l11.6-6.7v-11.8L83.3,481z"/>
		</g>
		<path class="st1" d="M84.7,483.4v-1.9l9.1-5.3v1.9L84.7,483.4z"/>
		<path class="st9" d="M43.1,454.8l0-24.3L8,410.2v24.2L43.1,454.8z"/>
		<path class="st10" d="M43.1,454.8l0-24.3l50.6-29.3v24.2L43.1,454.8z"/>
		<path class="st11" d="M93.7,401.3l-50.6,29.3L8,410.2L58.6,381L93.7,401.3z"/>
		<path class="st1" d="M21,430.6l7.8,4.6v-12.9l-7.8-4.6V430.6z"/>
		<g>
			<path class="st12" d="M21,417.8l50.6-29.2l7.9,4.5l-50.6,29.3L21,417.8z"/>
		</g>
		<path class="st1" d="M40.5,450.8v-2.3l-11.8-6.8v2.3L40.5,450.8z"/>
		<path class="st1" d="M40.5,446.8v-2.3l-11.8-6.9v2.3L40.5,446.8z"/>
		<path class="st1" d="M86.6,418.6v8.2l5.7-3.3v-8.2L86.6,418.6z"/>
		<path class="st1" d="M78.9,423.1v8.2l5.6-3.3v-8.2L78.9,423.1z"/>
		<path class="st1" d="M71.1,427.6v8.2l5.6-3.3v-8.2L71.1,427.6z"/>
		<g>
			<path class="st12" d="M44.6,431.6v11.8l11.6-6.7v-11.8L44.6,431.6z"/>
		</g>
		<path class="st1" d="M46.1,434v-1.9l9.1-5.3v1.9L46.1,434z"/>
		<path class="st9" d="M81.7,477.5l0-24.3l-35.2-20.3v24.2L81.7,477.5z"/>
		<path class="st10" d="M81.7,477.5l0-24.3l50.6-29.3v24.2L81.7,477.5z"/>
		<path class="st11" d="M132.4,424l-50.6,29.3l-35.2-20.3l50.6-29.2L132.4,424z"/>
		<path class="st1" d="M59.6,453.3l7.8,4.6V445l-7.8-4.6V453.3z"/>
		<g>
			<path class="st12" d="M59.6,440.4l50.6-29.2l7.9,4.5L67.5,445L59.6,440.4z"/>
		</g>
		<path class="st1" d="M79.1,473.5v-2.3l-11.8-6.8v2.3L79.1,473.5z"/>
		<path class="st1" d="M79.1,469.4v-2.3l-11.8-6.8v2.3L79.1,469.4z"/>
		<path class="st1" d="M125.2,441.3v8.2l5.6-3.3V438L125.2,441.3z"/>
		<path class="st1" d="M117.5,445.8v8.2l5.6-3.3v-8.2L117.5,445.8z"/>
		<path class="st1" d="M109.7,450.2v8.2l5.6-3.3V447L109.7,450.2z"/>
		<g>
			<path class="st12" d="M83.3,454.2V466l11.6-6.7v-11.8L83.3,454.2z"/>
		</g>
		<path class="st1" d="M84.7,456.6v-1.9l9.1-5.3v1.9L84.7,456.6z"/>
	</g>
</g>
<g>
	<defs>
		<rect id="SVGID_3_" x="9" y="59" width="237" height="284"/>
	</defs>
	<clipPath id="SVGID_4_">
		<use xlink:href="#SVGID_3_"  style="overflow:visible;"/>
	</clipPath>
	<g class="st32">
		<path class="st33" d="M45.1,271.7l77.7,46l73.6-43l-77.7-46.1L45.1,271.7z"/>
		<g>
			<path class="st14" d="M19.2,308.8c13.6-7.8,35.6-7.9,49.1-0.1c13.5,7.8,13.4,20.5-0.2,28.3c-13.6,7.9-35.6,7.9-49.1,0.1
				C5.6,329.4,5.6,316.7,19.2,308.8z"/>
		</g>
		<g>
			<path class="st34" d="M235.9,225.8c-13.5-7.8-35.5-7.8-49.1,0.1c-2.5,1.4-4.6,3.1-6.1,4.8c-10.2-0.7-20.8,1.3-28.6,5.8
				c-13.6,7.8-13.6,20.5-0.2,28.3c13.5,7.8,35.5,7.8,49.1-0.1c2.5-1.4,4.5-3.1,6.1-4.8c10.2,0.7,20.8-1.3,28.6-5.8
				C249.3,246.3,249.4,233.6,235.9,225.8z"/>
		</g>
		<path class="st1" d="M181.9,240.5c0,0-2.3,2.5-5.3,5.5c-2.8,2.8-3.7,3.6-6.3,6.1c-1.5,1.5-0.3,2.9,2.7,2.8c4-0.4,7.9-1.2,11.7-2.5
			c3-1.3,6-2.8,8.7-4.6c1.2-0.7,2.2-1.9,2.6-3.3v-4.6L181.9,240.5z"/>
		<path class="st1" d="M223.8,236.4c-1.4,1.8-2.9,3.6-4.5,5.1c-2.3,2.2-4.3,4.6-6.2,7.1c-0.6,0.7-0.9,2.9,2,2.8
			c2.6-0.1,6.5-1.2,9.8-2.4c3.7-1.3,6.9-5.1,9-6.4c2.2-1.4,3.1-4.4,3.1-4.4l-1.5-4.5L223.8,236.4z"/>
		<path class="st16" d="M222.6,161.7c1.1-16.9-8.2-25.8-8.2-25.8c0.7-5.7-25.7,2.3-25.7,2.3s-5.7,30.6-8.1,46.8
			c-2.7,18.3-1.1,55.7-1.1,55.7s0.3,4,7.2,4c5.2,0,9.1-4.6,9.1-4.6l0.5-42.5l6.1-30.1c0,0,5.9,24.5,7.7,33.3c2,9.4,9.5,37,9.5,37
			s4.9,5.6,11,2.6c6.1-3,4.9-6.4,4.9-6.4s-1.2-19.6-9-37.2C225.9,183.2,222.1,169.4,222.6,161.7z"/>
		<path class="st17" d="M192.3,93.8c0,0-3.8-0.2-7.7,7.1c-3.9,7.3-7.6,15.1-7.6,15.1s5.7,0.8,11.9,6.5
			C197.3,114.9,198.7,97.3,192.3,93.8z"/>
		<path class="st18" d="M192.3,93.8c-1.8,3.7-3.1,7.6-4.1,11.6c-1.9,7.5-1.3,42.3-1.3,42.3s8.1,5.7,21.6,4.6
			c4.6-0.3,8.9-2.3,12.1-5.6c0,0,4.8-34,4.1-38.9c-0.6-4.9-10.9-16.3-10.9-16.3S200.4,90.5,192.3,93.8z"/>
		<path class="st35" d="M201.5,89l-1.6,9.1c0,0,4.7,5.2,9.2,1.3c4.6-3.9,5.2-5.7,5.2-5.7l-2.2-12.5L201.5,89z"/>
		<path class="st16" d="M203.5,114.9c0,0,5.9-8.8,10.5-11.3c2.2-1.3,4.6-2.3,7.1-2.9c0,0-1.7-3.5-2.8-3.9c-2,0.3-3.2,0.8-7.4,3
			c-4.2,2.2-8.8,7.4-10.6,10.7C196.7,116.8,200.8,118.6,203.5,114.9z"/>
		<path class="st16" d="M194.1,93c0,0-3.8,9.1-4.3,13.5s0.4,5.7,2.2,5.9c1.8,0.2,1.9-3,2.4-6.5c0.5-3.3,3.7-14.1,3.7-14.1L194.1,93z
			"/>
		<path class="st16" d="M221.3,141.7c0,0-4.3,3.4-8.5,2.9c-3.7-0.4-9.1-4-8.8-15.8c0.3-11.8,1.4-17.2,1.4-17.2l-14.2-6.2
			c0,0-3.9,8.9-4.6,26.5c-0.8,17.6-1.1,23.6-1.1,23.6s15.2,0.9,24.2,0s12.8-2,12.8-2L221.3,141.7z"/>
		<path class="st13" d="M192.7,108.6c0,0.7-0.4,1.3-0.9,1.3c-0.5,0-0.9-0.6-0.9-1.3c0-0.7,0.4-1.3,0.9-1.3S192.7,107.9,192.7,108.6z
			"/>
		<path class="st13" d="M201.2,112.6c-0.4,0.6-0.4,1.3,0,1.6c0.4,0.3,1.1,0,1.5-0.5c0.4-0.5,0.4-1.3,0-1.6
			C202.3,111.7,201.6,112,201.2,112.6z"/>
		<g>
			<path class="st36" d="M189.9,114.3c-0.6,2.9-0.3,12.2,5,13.6c4.8,1.3,6-4.3,7.1-8.7C197.7,118.1,193.7,116.5,189.9,114.3z"/>
		</g>
		<path class="st37" d="M208,67.6c-3.9-3-13.1-3.9-16.4,5.6c-3.6,10,5.5,22.4,10.3,20.3c2.7-1.2,8.4-5.4,10-10.7
			C213.6,77,211,69.9,208,67.6z"/>
		<path class="st9" d="M170.8,176.2V140l29.2-14.5v34.1L170.8,176.2z"/>
		<path class="st10" d="M170.8,176.2V140l-29.2-14.5v34.1L170.8,176.2z"/>
		<path class="st9" d="M170.8,176.5l0-36.5l29.2-16.9v36.5L170.8,176.5z"/>
		<path class="st10" d="M170.8,176.5l0-36.5l-29.2-16.9v36.5L170.8,176.5z"/>
		<path class="st11" d="M141.6,123.1l29.2,16.9l29.2-16.9l-29.2-16.9L141.6,123.1z"/>
		<path class="st1" d="M189.1,140l-6.5,3.8v-10.6l6.5-3.8V140z"/>
		<g>
			<path class="st12" d="M189.1,129.4L160,112.5l-6.5,3.8l29.2,16.9L189.1,129.4z"/>
		</g>
		<path class="st1" d="M174.7,171.3v-1.9l9.8-5.7v1.9L174.7,171.3z"/>
		<path class="st1" d="M174.7,167.9V166l9.8-5.7v1.9L174.7,167.9z"/>
		<path class="st1" d="M193.3,154.3v6.5l4.7-2.7v-6.5L193.3,154.3z"/>
		<path class="st1" d="M148,153.6v6.8l-4.7-2.7v-6.8L148,153.6z"/>
		<path class="st1" d="M154.4,157.3v6.8l-4.7-2.7v-6.8L154.4,157.3z"/>
		<g>
			<path class="st12" d="M153,133.7v9.7l-9.6-5.6v-9.8L153,133.7z"/>
		</g>
		<path class="st1" d="M151.8,135.7v-1.6l-7.6-4.4v1.6L151.8,135.7z"/>
		<path class="st37" d="M207.2,125.2c0,0-5.5,11.6-7.8,14.8c-2.3,3.3-11.6,10.7-13.5,11.7c-1.9,1-6.3,2.4-8.6,2.2
			c-2.3-0.2-3.8,0.9-1.6,1.7c1.4,0.5,2.9,0.9,4.3,1c0,0-4,3-5.6,5.5c-1.3,2-2.4,5.8,2.6,4.7c4-0.9,9.5-7,11-8.4
			c2.7-2.6,13.6-8.5,16.1-10.2c3.5-2.5,13.4-17,13.4-17S214.4,123.7,207.2,125.2z"/>
		<path class="st17" d="M223.1,103.4c-2.9-2.3-9,5.5-12.3,10.4c-3.3,4.9-5.9,12.2-5.9,12.2s3.9,2.8,7.4,5.1c1.9,1.2,4,2.3,6,3.3
			C218.4,134.2,232.9,111.3,223.1,103.4z"/>
		<path class="st1" d="M190.7,76.4c1.6,1.6,3.9,3.5,8.8,2.7c2.4-0.4,4.7-1.2,6.8-2.5l0.8,5.3c0.5-0.1,1-0.3,1.4-0.5
			c0.1-2.1,0.8-2.7,2-2.1c1.3,0.7,1.4,3.7,1.4,3.7c1.2-1.3,2.1-2.9,2.5-4.6c0.5-1.7,0.5-3.5,0.1-5.2c-0.8-3.7-5.9-11-12.8-10.4
			c-7,0.6-11.1,5.3-11.9,9.3c-0.2,0.8-0.2,1.6,0,2.3C189.8,75.1,190.2,75.8,190.7,76.4z"/>
		<path class="st17" d="M189.3,71.8c0,0-9,6.3-10.5,7.7c-1.5,1.3,7.1,7.2,13.2,5.2c6.1-2,15.4-8.8,15.4-8.8L189.3,71.8z"/>
		<path class="st18" d="M189.3,71.8c0,0,10.3,6.4,16.7,4.5c6.4-1.8,8.1-3.4,8.1-3.4s-0.6-13.3-12.3-13.3
			C190,59.6,189.3,71.8,189.3,71.8z"/>
		<path class="st16" d="M202.3,60c0,0.5-0.8,1-1.8,1c-1,0-1.8-0.4-1.8-1c0-0.5,0.8-1,1.8-1C201.5,59,202.3,59.4,202.3,60z"/>
		<path class="st6" d="M190.3,266l-69.6,40.2l2.2,1.4l69.8-40.3L190.3,266z"/>
		<path class="st7" d="M192.7,267.3l-69.8,40.3v9.9l69.8-40.3V267.3z"/>
		<path class="st8" d="M120.8,316.2v-10l2.2,1.4v9.9L120.8,316.2z"/>
		<path class="st6" d="M112.7,221l-69.6,40.2l2.2,1.4l69.8-40.3L112.7,221z"/>
		<path class="st7" d="M115,222.3l-69.8,40.3v9.9l69.8-40.2V222.3z"/>
		<path class="st8" d="M43.1,271.2v-10l2.2,1.3v9.9L43.1,271.2z"/>
		<path class="st6" d="M150.4,242.4l-69.6,40.2l2.2,1.4l69.8-40.3L150.4,242.4z"/>
		<path class="st7" d="M152.8,243.7L83,283.9v9.9l69.8-40.3V243.7z"/>
		<path class="st8" d="M80.8,292.6v-10l2.2,1.4v9.9L80.8,292.6z"/>
		<path class="st8" d="M122.9,304.5l-79.8-46.1v3.2l79.8,46.1V304.5z"/>
		<path class="st6" d="M131.3,299.8l-8.4,4.7l-79.8-46.1l8.3-4.7L131.3,299.8z"/>
		<path class="st7" d="M131.3,299.8l-8.4,4.7v6l8.4-4.9V299.8z"/>
		<path class="st8" d="M138.5,295.3l-80.1-46.2v3.2l80.1,46.3V295.3z"/>
		<path class="st6" d="M146.9,290.7l-8.4,4.7l-80.1-46.2l8.3-4.7L146.9,290.7z"/>
		<path class="st7" d="M146.9,290.7l-8.4,4.7v6l8.4-4.9V290.7z"/>
		<path class="st8" d="M154.4,286.3L74.2,240v3.2l80.2,46.3V286.3z"/>
		<path class="st6" d="M162.8,281.6l-8.4,4.7L74.2,240l8.3-4.7L162.8,281.6z"/>
		<path class="st7" d="M162.8,281.6l-8.4,4.7v6l8.4-4.9V281.6z"/>
		<path class="st8" d="M170,277.1L90,231.1v3.2l80.1,46.1V277.1z"/>
		<path class="st6" d="M178.4,272.5l-8.4,4.7L90,231.1l8.3-4.7L178.4,272.5z"/>
		<path class="st7" d="M178.4,272.5l-8.4,4.7v6l8.4-4.9V272.5z"/>
		<path class="st8" d="M184.3,269.1l-80.2-46.3v3.2l80.2,46.3V269.1z"/>
		<path class="st6" d="M192.7,264.4l-8.4,4.7l-80.2-46.3l8.3-4.7L192.7,264.4z"/>
		<path class="st7" d="M192.7,264.4l-8.4,4.7v6l8.4-4.9V264.4z"/>
		<path class="st9" d="M87.3,278l0-24.8l-36.1-20.8v24.8L87.3,278z"/>
		<path class="st10" d="M87.3,278l0-24.8l51.9-30V248L87.3,278z"/>
		<path class="st11" d="M139.2,223.2l-51.9,30l-36.1-20.8l51.9-30L139.2,223.2z"/>
		<path class="st1" d="M64.7,253.2l8,4.7v-13.2l-8-4.7V253.2z"/>
		<g>
			<path class="st12" d="M64.7,240l51.9-29.9l8.1,4.7l-51.9,30L64.7,240z"/>
		</g>
		<path class="st1" d="M84.6,273.9v-2.3l-12.1-7v2.3L84.6,273.9z"/>
		<path class="st1" d="M84.6,269.7v-2.3l-12.1-7v2.3L84.6,269.7z"/>
		<path class="st1" d="M131.9,240.9v8.4l5.8-3.3v-8.4L131.9,240.9z"/>
		<path class="st1" d="M124,245.5v8.4l5.8-3.3v-8.4L124,245.5z"/>
		<path class="st1" d="M116,250.1v8.4l5.8-3.3v-8.4L116,250.1z"/>
		<g>
			<path class="st12" d="M88.9,254.2v12l11.9-6.9v-12.1L88.9,254.2z"/>
		</g>
		<path class="st1" d="M90.4,256.6v-2l9.4-5.4v1.9L90.4,256.6z"/>
		<path class="st9" d="M126.9,301.2l0-24.8l-36.1-20.8v24.8L126.9,301.2z"/>
		<path class="st10" d="M126.9,301.2l0-24.8l51.9-30v24.8L126.9,301.2z"/>
		<path class="st11" d="M178.8,246.4l-51.9,30l-36.1-20.8l51.9-30L178.8,246.4z"/>
		<path class="st1" d="M104.3,276.4l8,4.7v-13.2l-8-4.7V276.4z"/>
		<g>
			<path class="st12" d="M104.3,263.2l51.9-29.9l8.1,4.7l-51.9,30L104.3,263.2z"/>
		</g>
		<path class="st1" d="M124.2,297.1v-2.3l-12.1-7v2.3L124.2,297.1z"/>
		<path class="st1" d="M124.2,292.9v-2.3l-12.1-7v2.4L124.2,292.9z"/>
		<path class="st1" d="M171.5,264.1v8.4l5.8-3.3v-8.4L171.5,264.1z"/>
		<path class="st1" d="M163.6,268.7v8.4l5.8-3.3v-8.4L163.6,268.7z"/>
		<path class="st1" d="M155.6,273.3v8.4l5.8-3.3v-8.4L155.6,273.3z"/>
		<g>
			<path class="st12" d="M128.5,277.4v12l11.9-6.9v-12.1L128.5,277.4z"/>
		</g>
		<path class="st1" d="M130,279.9v-2l9.4-5.4v1.9L130,279.9z"/>
		<path class="st9" d="M87.3,250.6l0-24.8l-36.1-20.8v24.8L87.3,250.6z"/>
		<path class="st10" d="M87.3,250.6l0-24.8l51.9-30v24.8L87.3,250.6z"/>
		<path class="st11" d="M139.2,195.8l-51.9,30l-36.1-20.8l51.9-30L139.2,195.8z"/>
		<path class="st1" d="M64.7,225.8l8,4.7v-13.2l-8-4.7V225.8z"/>
		<g>
			<path class="st12" d="M64.7,212.6l51.9-29.9l8.1,4.7l-51.9,30L64.7,212.6z"/>
		</g>
		<path class="st1" d="M84.6,246.5v-2.3l-12.1-7v2.3L84.6,246.5z"/>
		<path class="st1" d="M84.6,242.3V240l-12.1-7v2.3L84.6,242.3z"/>
		<path class="st1" d="M131.9,213.5v8.4l5.8-3.3v-8.4L131.9,213.5z"/>
		<path class="st1" d="M124,218.1v8.4l5.8-3.3v-8.4L124,218.1z"/>
		<path class="st1" d="M116,222.7v8.4l5.8-3.3v-8.4L116,222.7z"/>
		<g>
			<path class="st12" d="M88.9,226.8v12l11.9-6.9v-12.1L88.9,226.8z"/>
		</g>
		<path class="st1" d="M90.4,229.2v-2l9.4-5.4v1.9L90.4,229.2z"/>
		<path class="st9" d="M126.9,273.8l0-24.8l-36.1-20.8v24.8L126.9,273.8z"/>
		<path class="st10" d="M126.9,273.8l0-24.8l51.9-30v24.8L126.9,273.8z"/>
		<path class="st11" d="M178.8,219l-51.9,30l-36.1-20.8l51.9-30L178.8,219z"/>
		<path class="st1" d="M104.3,249l8,4.7v-13.2l-8-4.7V249z"/>
		<g>
			<path class="st12" d="M104.3,235.8l51.9-29.9l8.1,4.7l-51.9,30L104.3,235.8z"/>
		</g>
		<path class="st1" d="M124.2,269.7v-2.3l-12.1-7v2.3L124.2,269.7z"/>
		<path class="st1" d="M124.2,265.5v-2.3l-12.1-7v2.3L124.2,265.5z"/>
		<path class="st1" d="M171.5,236.7v8.4l5.8-3.3v-8.4L171.5,236.7z"/>
		<path class="st1" d="M163.6,241.3v8.4l5.8-3.3V238L163.6,241.3z"/>
		<path class="st1" d="M155.6,245.9v8.4l5.8-3.3v-8.4L155.6,245.9z"/>
		<g>
			<path class="st12" d="M128.5,250v12l11.9-6.9v-12.1L128.5,250z"/>
		</g>
		<path class="st1" d="M130,252.4v-2l9.4-5.4v1.9L130,252.4z"/>
		<path class="st9" d="M125.6,244.1l0-31.2l45.2-26.1v31.1L125.6,244.1z"/>
		<path class="st10" d="M125.6,244.1l0-31.2l-65.1-37.6v31.1L125.6,244.1z"/>
		<path class="st11" d="M60.5,175.3l65.1,37.6l45.2-26.1l-65.1-37.6L60.5,175.3z"/>
		<path class="st1" d="M154,213l-10.1,5.9v-16.5l10.1-5.9V213z"/>
		<g>
			<path class="st12" d="M154,196.4L89,158.9l-10.1,5.8l65.1,37.6L154,196.4z"/>
		</g>
		<path class="st1" d="M129,238.9V236l15.2-8.8v3L129,238.9z"/>
		<path class="st1" d="M129,233.7v-2.9l15.2-8.8v2.9L129,233.7z"/>
		<path class="st1" d="M69.7,197.6v10.5l-7.3-4.2v-10.5L69.7,197.6z"/>
		<path class="st1" d="M79.6,203.3v10.5l-7.3-4.2v-10.5L79.6,203.3z"/>
		<path class="st1" d="M89.6,209.1v10.5l-7.3-4.2v-10.5L89.6,209.1z"/>
		<g>
			<path class="st12" d="M123.7,214.2v15.1l-14.9-8.6v-15.1L123.7,214.2z"/>
		</g>
		<path class="st1" d="M121.8,217.3v-2.5l-11.7-6.8v2.4L121.8,217.3z"/>
		<path class="st9" d="M75.1,210.3l0-18.2l29.2-16.9v18.2L75.1,210.3z"/>
		<path class="st10" d="M75.1,210.3l0-18.2l-42-24.3V186L75.1,210.3z"/>
		<path class="st11" d="M33.1,167.8l42,24.3l29.2-16.9l-42.1-24.3L33.1,167.8z"/>
		<path class="st1" d="M77.3,206.9v-1.9l9.8-5.7v1.9L77.3,206.9z"/>
		<path class="st1" d="M77.3,203.6v-1.9l9.8-5.7v1.9L77.3,203.6z"/>
		<path class="st1" d="M40.3,175.1v8.5l-5.8-3.4v-8.5L40.3,175.1z"/>
		<path class="st1" d="M48.3,179.8v8.5l-5.9-3.4v-8.5L48.3,179.8z"/>
		<g>
			<path class="st12" d="M72.8,194v10.1l-14.9-8.6v-10.1L72.8,194z"/>
		</g>
		<path class="st1" d="M71,197.1v-2.5l-11.7-6.8v2.4L71,197.1z"/>
		<path class="st1" d="M96.9,189l-10.1,5.8v-9.6l10.1-5.9V189z"/>
		<g>
			<path class="st12" d="M96.9,179.4l-42-24.3L44.8,161l42,24.3L96.9,179.4z"/>
		</g>
		<path class="st37" d="M30.3,196.6c2.4-8.2,3.7-17.3-0.4-23.9l-8.9,0.2c0,0-3.6,7.8-4.5,13.6c-0.9,5.8,0.4,8.6,2.7,11.4
			c2.3,2.8,10.6-0.9,10.9-1.1L30.3,196.6z"/>
		<path class="st1" d="M54.6,324.2c0,0,9.6-4.3,14.2-4.4c4.7-0.2,5.2,5.3,0,9.6c-5.2,4.3-9.2,4.9-13.4,6.6c-3.8,1.6-5.2,1.7-8.2-0.3
			c-4.1-2.7-0.8-9.6-0.8-9.6L54.6,324.2z"/>
		<path class="st1" d="M27,307.8c0,0,7.6-3.2,12.3-3.4c4.7-0.2,6.4,3.9,1.2,8.2c-5.2,4.3-8.4,5.3-12.7,7c-3.8,1.6-5.2,1.7-8.2-0.3
			c-4.2-2.7-0.9-9.6-0.8-9.6L27,307.8z"/>
		<path class="st16" d="M55.2,213.8c0,0,8.3,45,8.3,59.1c0,24.9-0.2,51.2-0.2,51.2s-4.1,4.3-8.2,4.4c-9,0-10-4.5-10-4.5
			s-0.1-29.7-0.9-43.2c-0.6-9.4-1.1-22.6-4.9-33.5c-0.1,11.2-0.1,14.8-1,27c-0.7,9-4.5,33.2-4.6,34.7c-2.9,3.5-11.8,5.9-16.3,0.8
			c0.4-4,2.9-31.9,2.5-46.3c-0.3-13.3-3.7-44.8,3.9-50.9C30.5,207.2,55.2,213.8,55.2,213.8z"/>
		<path class="st17" d="M32.2,185.1c-0.2-3.5-0.6-7-1.4-10.5l4.5-14.1c0,0-6.2-3.1-10.4,1.9c-1.8,2.1-5,8.3-7.7,14.2
			C19.2,180.3,25,185.4,32.2,185.1z"/>
		<path class="st37" d="M44.6,132.9c-3.3-2.3-9.7-1.6-12.5,4.3c-1.5,3.2,0.6,11.9,1,18.1c0.2,2.7-0.3,5.4-1.4,7.8l4.2,1.8
			c2.8,1,5.9,1,8.6,0l-0.1-7.5c0,0,4.6-0.7,5.3-1.4c1.9-1.8,2.9-7,2-13.7C50.5,132.1,45.8,133.8,44.6,132.9z"/>
		<path class="st18" d="M56,186.9c2.5-5.3-3.2-15-4.8-18.5c-1.6-3.5-6.7-5.6-6.7-5.6s-7-2.5-9.4-2.9c-1.1-0.2-4.7-0.4-4.7-0.4
			s-8.1,12.7-9,19.7c-0.6,4.9,2,20.9,0.1,36.7c-1.1,8.4,30.5,6,33.3,2.6C53.2,210.7,50.9,197.8,56,186.9z"/>
		<path class="st16" d="M21.8,190.4c0,0.8,0.6,10.5-0.5,16.8c-1,6.3-1.6,16-1.6,16s9,7,19.3,5.8c6.4-0.8,12.4-3.3,17.5-7.2
			c0,0-3.4-17.7-3.3-19.9l0.2-2.2c0,0-4,1.9-6.5,0.8c-2.5-1-6.7-3-8-9.4c-0.9-4.6-0.3-15.1-0.1-18c-0.5-0.1-13.4-3.9-13.4-3.9
			S21.7,181.8,21.8,190.4z"/>
		<path class="st1" d="M48.7,144.8c0.5-1.7,1.7-5.6,1.9-7.2c0.3-1.3,0.2-2.6-0.1-3.8c-0.4-1.2-1-2.4-2-3.3
			c-2.5-2.6-11.2-3.4-14.3-1.6c-3.1,1.8-9.8,5.1-7.5,16c1.9,8.7,3.7,9.7,6.4,11.8c2.3,1.8,6.4,2.2,6.4,2.2c1.5-1.2,2.5-3,2.7-4.9
			c0.1-1,0-4.2,0-4.2s-2.3-4.6-0.5-6.2s3.9,1,4.3,2.1C47.5,149.5,49.1,151.3,48.7,144.8z"/>
		<path class="st37" d="M91,200.1c-6.2,0.2-12.4-0.4-18.4-1.9c-4-1.1-7.9-2.7-11.5-4.7c-1.2-2.1-3.3-8.6-3.3-8.6l-11.6,4.7
			c0,0,2.9,7.8,4.6,11.4c1.4,2.9,3.1,3.4,5.8,4.4c4,1.5,15.8,1.9,20.5,2.5c3.4,0.5,7,0.3,10.3-0.6C93.1,205.9,91.2,201.6,91,200.1z"
			/>
		<path class="st17" d="M46.1,193c5.5,1.2,11.4-0.5,14.5-4.7c-2.2-10.1-5.8-21.1-10.7-22.7c-2.6-0.9-7.3,8.2-6.5,14.7
			C43.7,182,44.8,187.1,46.1,193z"/>
		<g>
			<path class="st36" d="M20.5,214.5l-0.4,4.4c0,0,6,5.2,19,5.5c13,0.3,17.2-4.1,17.2-4.1l-0.8-4.6c-5.2,2.8-10.9,4.3-16.8,4.4
				C28.6,220.2,20.5,214.5,20.5,214.5z"/>
		</g>
		<path class="st16" d="M35.2,174.5c0,0,1.4-5.8,4.1-8.6c1.4-1.5,3.2-2.6,5.2-3.1c0,0,2.7,0.7,2.7,1.5c-1.5,0.9-4.1,1.8-5.7,4.5
			c-1.6,2.7-2.7,8.3-2.7,8.3L35.2,174.5z"/>
		<path class="st16" d="M30,159.6c-0.1,0.1-2.5,3.6-4.2,9.3c-0.7,2.7-1.2,5.5-1.6,8.3l2.5,0.3c0,0,2.4-9.3,3.8-12.7
			c0.7-1.7,1.5-3.4,2.4-5L30,159.6z"/>
		<path class="st37" d="M84.5,201.4c1.5-1.3,3-2.7,4.4-4.1c1.1-1.3,2-1,1.6,0.5c-0.6,1.4-1.3,2.7-2.3,3.9c0,0-2.8-0.2-3.3-0.2H84.5z
			"/>
		<path class="st18" d="M44.5,130.7c6.4,0.7,8.9,4.8,5.6,9.3c-3.3,4.4-11,7.5-17.4,6.9c-6.3-0.7-8.9-4.8-5.6-9.3
			C30.4,133.1,38.1,130,44.5,130.7z"/>
		<path class="st18" d="M25.9,142.6c0,0-3.8-12.9,7.7-16.7c8.2-2.8,14.4,0.5,17.7,8.9C53.3,140,25.9,142.6,25.9,142.6z"/>
		<path class="st17" d="M46.8,143.1c0.8-0.5,4.7-5.3,3.6-9.8c-0.5-1.1-1-2.1-1.6-3.1c0,0,1.1-0.6,5.9,0.4c4.7,1,5.6,5.2,1.9,8.2
			C53.8,141,50.4,142.5,46.8,143.1z"/>
	</g>
</g>
</svg>
