<?xml version="1.0" encoding="utf-8"?>
<!-- Generator: Adobe Illustrator 24.0.2, SVG Export Plug-In . SVG Version: 6.00 Build 0)  -->
<svg version="1.1" id="Layer_1" xmlns="http://www.w3.org/2000/svg" xmlns:xlink="http://www.w3.org/1999/xlink" x="0px" y="0px"
	 viewBox="0 0 741 502" style="enable-background:new 0 0 741 502;" xml:space="preserve">
<style type="text/css">
	.st0{fill:url(#SVGID_1_);}
	.st1{fill:#444444;}
	.st2{fill:#5B5B5B;}
	.st3{fill:#333333;}
	.st4{fill:#4A4A4A;}
	.st5{fill:#F4D5BE;}
	.st6{fill:#ECB52B;}
	.st7{fill:#6F6F6F;}
	.st8{fill:#F5DE62;}
	.st9{fill:#3D3D3D;}
	.st10{fill:#E8A34C;}
	.st11{fill:#C8D2D2;}
	.st12{fill:#9DACB7;}
	.st13{fill:#EAAA96;}
	.st14{fill:#EFC3B1;}
	.st15{fill:#87623F;}
	.st16{fill:#BF2A40;}
	.st17{fill:#A01731;}
	.st18{fill:#B44269;}
	.st19{fill:#DF6187;}
	.st20{fill:#CAAE68;}
	.st21{fill:#72522F;}
	.st22{fill:#9F7D4A;}
	.st23{fill:#AE835B;}
	.st24{fill:#C99A6B;}
	.st25{fill:#E8B687;}
	.st26{clip-path:url(#SVGID_3_);}
	.st27{fill:#D2D2D2;}
	.st28{fill:#9C754E;}
	.st29{fill:#54493E;}
</style>
<linearGradient id="SVGID_1_" gradientUnits="userSpaceOnUse" x1="740.9997" y1="176.5" x2="3.467359e-05" y2="176.5" gradientTransform="matrix(1 0 0 -1 0 504)">
	<stop  offset="0" style="stop-color:#F1F1F1"/>
	<stop  offset="0.9896" style="stop-color:#F1F1F1;stop-opacity:0"/>
</linearGradient>
<path class="st0" d="M107.7,203.72c144.24-67.93,378.82-67.59,523.96,0.77c145.14,68.36,145.88,178.85,1.64,246.78
	c-144.24,67.93-378.82,67.59-523.96-0.77C-35.8,382.14-36.54,271.66,107.7,203.72z"/>
<path class="st1" d="M484.52,209.55c-10.43,10.65-23.88,29.94-28.65,37.42l-34.48,19.97v30.55l0.14,0.57l74.15-43.83
	c-1.16-2.99-1.8-6.64-1.8-10.86c0-16.91,10.28-36.55,22.96-43.88c3.36-1.94,6.54-2.77,9.42-2.7v-14.62
	C513.47,187.68,498.32,195.47,484.52,209.55z"/>
<path class="st2" d="M488.04,213.08c-10.43,10.65-22.64,29.35-27.41,36.83l-35.71,20.56v30.55l0.14,0.57l74.15-43.83
	c-1.16-2.99-1.8-6.64-1.8-10.86c0-16.91,10.28-36.55,22.96-43.88c3.36-1.94,6.54-2.77,9.42-2.7V185.7
	C516.98,191.21,501.83,199.01,488.04,213.08z"/>
<path class="st3" d="M519.3,190.58l-5.22-2.92V18.68l10.44-9.77L519.3,190.58z"/>
<path class="st2" d="M529.74,190.23l-10.44,6.03V18.68l10.44-9.77V190.23z"/>
<path class="st1" d="M524.2,0l-57.43,32.81c-17.68,10.21-32.88,35.68-36.27,60.78l-11.12,173.85l5.55,4.34l5.11-10.64l9.79-163.99
	c2.96-21.96,16.27-44.25,31.74-53.18l52.65-30.04L524.2,0L524.2,0z"/>
<path class="st1" d="M529.74,4.18L524.2,0l-7.33,4.18l6.97,6.18L529.74,4.18z"/>
<path class="st2" d="M529.74,4.18L472.3,36.99c-17.68,10.21-32.89,35.68-36.27,60.78l-11.1,172.7l-0.02,2.22l10.65-7.37l9.79-163.99
	c2.96-21.96,16.27-44.25,31.73-53.18l52.65-30.04V4.18L529.74,4.18z"/>
<path class="st3" d="M433.69,299.69c0,13.59-8.26,29.38-18.46,35.27c-10.2,5.88-18.46-0.36-18.46-13.95
	c0-13.59,8.27-29.38,18.46-35.27C425.43,279.85,433.69,286.1,433.69,299.69z"/>
<path class="st3" d="M417.14,343.72l-13.37-7.52l23.85-51.23l12.79,7.15L417.14,343.72z"/>
<path class="st4" d="M447.56,307.42c0,13.59-8.26,29.38-18.46,35.27c-10.2,5.89-18.46-0.36-18.46-13.95
	c0-13.59,8.26-29.38,18.46-35.27C439.3,287.58,447.56,293.83,447.56,307.42z"/>
<path class="st5" d="M443.55,310.17c0,10.64-6.47,22.99-14.44,27.6c-7.98,4.61-14.44-0.28-14.44-10.92
	c0-10.64,6.47-22.99,14.44-27.6C437.08,294.65,443.55,299.54,443.55,310.17z"/>
<path class="st3" d="M440,312.22c0,8.02-4.88,17.35-10.9,20.82c-6.02,3.47-10.9-0.21-10.9-8.24s4.88-17.35,10.9-20.82
	C435.12,300.51,440,304.2,440,312.22z"/>
<path class="st5" d="M433.26,316.12c0,3.06-1.86,6.61-4.15,7.93c-2.29,1.32-4.15-0.08-4.15-3.14c0-3.06,1.86-6.61,4.15-7.93
	C431.4,311.66,433.26,313.06,433.26,316.12z"/>
<path class="st6" d="M626.49,248.37l-96.74-55.78c-11.77,5.39-25.04,12.92-37.25,25.38c-10.43,10.65-23.88,29.94-28.65,37.42
	l-27.44,15.89v31.11l44.69-26.42l82.53,50.64L626.49,248.37z"/>
<path class="st7" d="M522.95,116.03l6.79-4.35l7.52,4.35l-8.68,7.61L522.95,116.03z"/>
<path class="st7" d="M633.69,171.71l-103.95-60.03v79.36l103.95,59.98V171.71z"/>
<path class="st3" d="M602.31,78.87L500.44,20.75v4.88l101.87,59.06V78.87z"/>
<path class="st8" d="M603.66,262.24l17.61-10.18l-98.37-56.87l-16.49,10.78L603.66,262.24z"/>
<path class="st4" d="M626.9,176.06l-103.95-60.03v79.36l103.95,59.98V176.06z"/>
<path class="st3" d="M628.48,293.65c6.13-14.4,4.49-28.89-3.66-32.36c-8.15-3.47-19.72,5.4-25.85,19.8
	c-6.13,14.4-4.49,28.89,3.65,32.35C610.78,316.91,622.35,308.05,628.48,293.65z"/>
<path class="st3" d="M615.59,320.75l-13.37-7.52L626.08,262l12.79,7.15L615.59,320.75z"/>
<path class="st4" d="M642.35,301.38c6.13-14.4,4.49-28.89-3.66-32.36c-8.15-3.47-19.72,5.4-25.85,19.8s-4.49,28.89,3.66,32.35
	C624.65,324.64,636.22,315.78,642.35,301.38z"/>
<path class="st5" d="M642,287.21c0,10.63-6.47,22.99-14.44,27.6c-7.98,4.61-14.44-0.28-14.44-10.92c0-10.64,6.47-22.99,14.44-27.6
	C635.53,271.69,642,276.58,642,287.21z"/>
<path class="st3" d="M638.46,289.26c0,8.02-4.88,17.35-10.9,20.82c-6.02,3.48-10.9-0.21-10.9-8.24c0-8.03,4.88-17.35,10.9-20.82
	C633.58,277.55,638.46,281.23,638.46,289.26z"/>
<path class="st5" d="M631.71,293.15c0,3.06-1.86,6.61-4.15,7.93s-4.15-0.08-4.15-3.14s1.86-6.61,4.15-7.93
	C629.85,288.69,631.71,290.1,631.71,293.15z"/>
<path class="st1" d="M419.37,266.84v31.13l112.75,65.06v-31.08L419.37,266.84z"/>
<path class="st1" d="M591.71,271.03c-10.43,10.65-23.28,30.44-28.06,37.92l-35.07,19.46v30.55l0.14,0.57l74.15-43.83
	c-1.16-2.99-1.8-6.64-1.8-10.86c0-16.91,10.28-36.55,22.96-43.88c3.36-1.94,6.54-2.77,9.42-2.7v-14.62
	C620.66,249.16,605.51,256.95,591.71,271.03z"/>
<path class="st2" d="M595.23,274.56c-10.43,10.65-22.64,29.35-27.41,36.83l-35.72,20.56v30.55l0.14,0.57l74.15-43.83
	c-1.16-2.99-1.8-6.64-1.8-10.86c0-16.91,10.28-36.55,22.96-43.88c3.36-1.94,6.54-2.77,9.42-2.7v-14.62
	C624.17,252.69,609.02,260.48,595.23,274.56z"/>
<path class="st3" d="M535.74,256.57c-4.72-1.2-13.61-4.48-18.12-7.1c-6.25-3.64-13.07-8.77-16.35-12.8
	c-2.02-2.48-4.9-8.94,1.58-12.68l21.39-12.35c6.22-4.42,16.21-5.28,21.96-0.91c4.48,3.4,13.39,11.09,17.86,13.67
	c4.14,2.39,12.54,4.46,16.61,6.23c5.3,2.31,4.9,8.94-1.58,12.68l-21.39,12.35C551.23,259.39,541.07,257.92,535.74,256.57z"/>
<path class="st3" d="M517.66,224.44c0,0-16.16-8.12-17.34-3.84c-1.51,5.51-1.46,9.3-1.46,9.3l18.8,1.11V224.44z"/>
<path class="st3" d="M582.62,224.87c-2.64-3.66-18.34,4.41-18.34,4.41v7.82l20.04-1.58C584.32,235.52,585.38,228.71,582.62,224.87z"
	/>
<path class="st9" d="M535.94,246.55c-4.56-1.16-13.15-4.34-17.52-6.87c-3.96-2.28-12.64-8.48-15.8-12.37
	c-1.95-2.39-4.73-8.64,1.52-12.25l20.67-11.94c6.01-4.27,15.67-5.1,21.22-0.88c4.33,3.29,12.94,10.72,17.27,13.22
	c4.01,2.31,12.13,4.31,16.05,6.02c5.12,2.23,4.73,8.64-1.52,12.25l-20.67,11.94C550.91,249.29,541.08,247.87,535.94,246.55z"/>
<path class="st3" d="M592.99,212.97V176.4c0-12.81-7.86-27.82-17.46-33.36l-9.11-5.26c-9.6-5.54-17.46,0.4-17.46,13.2v36.57
	L592.99,212.97z"/>
<path class="st10" d="M554.82,137l-7.46,4.43l6.67,4.43L554.82,137z"/>
<path class="st3" d="M585.72,217.28l7.27-4.32l-8.6-8.46L585.72,217.28z"/>
<path class="st9" d="M585.72,217.28v-36.57c0-12.8-7.86-27.82-17.46-33.36l-9.11-5.26c-9.6-5.54-17.46,0.4-17.46,13.2v36.57
	L585.72,217.28z"/>
<path class="st3" d="M532.12,332.02l35.7-20.63l-111.94-64.42l-35.81,20.46L532.12,332.02z"/>
<path class="st11" d="M533.62,119.71c0,0-5.28-0.26-10.73,9.98c-5.45,10.24-10.66,21.14-10.66,21.14s7.94,1.13,16.57,9.08
	C540.6,149.24,542.53,124.7,533.62,119.71z"/>
<path class="st12" d="M533.62,119.71c0,0-2.97,5.69-5.7,16.14c-2.72,10.45-1.75,59.02-1.75,59.02s11.26,7.96,30.1,6.4
	c11.2-0.93,16.92-7.87,16.92-7.87s6.7-47.57,5.79-54.38c-0.91-6.81-15.17-22.82-15.17-22.82S544.97,115.24,533.62,119.71z"/>
<path class="st13" d="M546.52,113.07l-2.19,12.76c0,0,6.5,7.29,12.86,1.84c6.36-5.45,7.27-7.96,7.27-7.96l-3.13-17.39L546.52,113.07
	z"/>
<path class="st14" d="M555.49,83.17c-5.43-4.14-18.29-5.46-22.99,7.83c-4.92,13.94,7.69,31.34,14.41,28.38
	c3.76-1.66,11.68-7.54,13.91-14.88C563.33,96.24,559.71,86.38,555.49,83.17z"/>
<path class="st15" d="M531.39,95.42c2.24,2.28,5.5,4.82,12.24,3.71c5.51-0.91,9.46-3.48,9.46-3.48s4.22,2.84,5.83,3.71
	c1.82,0.98,1.89,5.15,1.89,5.15s3.58-4.54,1.73-12.87c-1.15-5.19-6.26-16.2-16.03-15.29c-9.77,0.91-15.46,7.37-16.67,12.96
	C529.24,92.1,530.38,94.39,531.39,95.42z"/>
<path class="st16" d="M547.06,148.59c0,0,8.29-12.47,14.85-15.97c6.56-3.5,11.54-4.28,11.54-4.28s-2.9-4.8-4.5-5.37
	c-2.78,0.42-5.51,1.18-11.41,4.24c-5.9,3.06-12.37,10.48-14.95,15.04C537.4,151.41,543.26,153.88,547.06,148.59z"/>
<path class="st16" d="M532.91,119.79c0,0-4.55,10.78-5.21,16.97c-0.65,6.19,0.59,8.1,3.08,8.31s2.63-4.2,3.36-9.13
	c0.7-4.65,4.62-17.81,4.62-17.81L532.91,119.79z"/>
<path class="st15" d="M471.82,288.36c-3.99,3.89-5.22,5.01-8.92,8.62c-2.16,2.11-0.38,4.05,3.74,3.89c3.62-0.14,11.82-1.9,16.4-3.55
	c3.26-1.17,9.23-4.47,12.28-6.4c3.05-1.93,3.65-4.61,3.65-4.61v-6.49l-19.62,0.83C479.36,280.66,476.13,284.16,471.82,288.36z"/>
<path class="st15" d="M510.65,305.61c-3.99,3.89-5.22,5.01-8.92,8.62c-2.16,2.11-0.38,4.05,3.74,3.89c3.62-0.14,11.82-1.9,16.4-3.55
	c3.26-1.17,9.23-4.47,12.28-6.4c3.05-1.93,3.65-4.61,3.65-4.61v-11.44l-19.61,5.79C518.18,297.9,514.96,301.41,510.65,305.61z"/>
<path class="st16" d="M574.4,190.9c0,0-35.63,10.57-55.43,3.1c-6.9,4.16-25.89,15.33-31.97,19.62c-3.75,2.65-5.43,8.36-6.89,21.23
	c-2.41,21.25-4.18,45.51-4.18,45.51s4.24,5.93,13.85,5.9c7.37-0.03,12.89-2.32,12.89-2.32l1.49-48.9l32.09-18.54
	c0,0-18.2,11.27-20.81,21.27c-2.1,8.04-2.8,14.19-3.12,24.22c-0.69,21.6-0.91,35.73-0.91,35.73s1.42,7.16,11.03,7.13
	c7.37-0.03,13.45-6.03,13.45-6.03l1.94-49.5c0,0,25.06-17.04,32.32-25.39C578.28,214.56,574.4,190.9,574.4,190.9z"/>
<path class="st16" d="M574.28,185.49c0,0-8.22,5.71-14.2,5.05c-5.25-0.57-12.81-5.68-12.41-22.3c0.4-16.61,1.94-24.26,1.94-24.26
	l-20.08-8.8c0,0-5.45,12.62-6.53,37.37c-1.08,24.75-1.53,33.29-1.53,33.29s21.42,1.31,34.1,0c12.68-1.31,19.69-4.58,19.69-4.58
	L574.28,185.49z"/>
<path class="st5" d="M531.74,139.73c0,1.02-0.57,1.84-1.27,1.84c-0.7,0-1.27-0.82-1.27-1.84c0-1.02,0.57-1.84,1.27-1.84
	C531.17,137.89,531.74,138.71,531.74,139.73z"/>
<path class="st5" d="M543.77,145.34c-0.59,0.83-0.61,1.83-0.04,2.24c0.57,0.41,1.51,0.07,2.11-0.76c0.59-0.83,0.61-1.83,0.04-2.24
	C545.31,144.18,544.36,144.52,543.77,145.34z"/>
<path class="st17" d="M527.8,147.76c-0.82,4.15-0.41,17.22,7,19.19c6.71,1.78,8.45-6.13,10-12.25
	C536.1,152.73,527.8,147.76,527.8,147.76z"/>
<path class="st14" d="M554.39,163.7c0,0-3.76,9.37-6.95,13.9c-2.08,2.94-14.43,11.29-19.25,15.12c2.89,1.77,4.14,4.41,5.92,7.29
	c6.43-2.08,18.6-9.48,20.52-10.83c4.86-3.44,14.07-16.85,14.07-16.85S564.45,161.57,554.39,163.7z"/>
<path class="st11" d="M576.55,133.15c-4-3.22-12.56,7.69-17.1,14.5c-4.54,6.81-8.18,17.01-8.18,17.01s5.47,3.98,10.37,7.06
	c4.1,2.59,8.44,4.55,8.44,4.55S590.27,144.2,576.55,133.15z"/>
<path class="st6" d="M557.18,83.99c7.9,3.13,9.63,9.37,3.85,13.94c-5.77,4.57-16.85,5.73-24.75,2.6c-7.9-3.13-9.63-9.38-3.85-13.94
	C538.21,82.02,549.29,80.86,557.18,83.99z"/>
<path class="st6" d="M529.09,93.39c0,0-3.35-20.29,14.21-22.88c20.47-3.01,21.12,21.02,21.12,21.02L529.09,93.39z"/>
<path class="st10" d="M528.84,90.39c0,0-8.53,7.98,1.81,12.45c17.54,7.57,31.9-6.34,31.9-6.34s-18.64,4.45-28.1,0.29
	C528.04,93.98,528.84,90.39,528.84,90.39z"/>
<path class="st10" d="M545.96,71.71c-2.66,1.55-3.86,3.41-5.41,7.19c-1.56,3.78-0.27,7.39,3.5,9.6c3.77,2.2,6.36,5.97,6.36,5.97
	s0.55-4.28-2.71-7c-3.26-2.72-6.3-4.13-4.42-8.56c2.31-5.45,9.83-7.46,9.83-7.46S550.53,69.04,545.96,71.71z"/>
<path class="st10" d="M543.3,70.51c0,0-5.03,1.97-7.04,5.14c-0.96,1.52-0.91,6.74-1.82,8.04c-0.91,1.3-5.61,5.06-5.61,5.06
	s-1.42-1.32,0.35-3.71c1.76-2.39,3.9-2.59,4.1-6.15C533.41,76.51,532.19,71.21,543.3,70.51z"/>
<path class="st3" d="M573.66,95.54L471.79,37.43v4.88l101.87,59.06V95.54z"/>
<path class="st3" d="M512.18,236.97c-2.27,0-4.71-0.71-7.16-2.13c-9.25-5.34-16.5-19.11-16.5-31.34c0-6.73,2.32-11.93,6.36-14.27
	c3.45-1.99,7.76-1.71,12.14,0.82c9.25,5.34,16.5,19.1,16.5,31.34c0,6.73-2.32,11.93-6.35,14.27
	C515.64,236.53,513.96,236.97,512.18,236.97z M499.88,191.91c-1.09,0-2.1,0.26-3,0.78c-2.77,1.6-4.36,5.54-4.36,10.8
	c0,10.76,6.5,23.26,14.5,27.88c3.13,1.8,5.95,2.09,8.14,0.82c2.77-1.6,4.36-5.54,4.36-10.81c0-10.76-6.5-23.26-14.5-27.88
	C503.18,192.45,501.44,191.91,499.88,191.91z"/>
<path class="st3" d="M520.05,219.19l-28.93-16.7v3.22l28.93,16.7V219.19z"/>
<path class="st3" d="M506.62,233.5l-2.06-1.12v-39.8l2.06,1.19V233.5z"/>
<path class="st3" d="M509,214.12c0-2.43-1.44-5.16-3.27-6.22c-0.87-0.5-1.72-0.56-2.41-0.16c-0.19,0.11-0.3,0.35-0.45,0.52
	c-0.03-0.02-0.06-0.05-0.09-0.07c0,0-10.4,11-17.02,18.82s-17.71,19.25-17.71,19.25l5.66,12.14c0,0,13.01-16.91,22.05-27.44
	c9.04-10.53,12.37-14.32,12.37-14.32s-0.03-0.08-0.04-0.11C508.63,215.99,509,215.2,509,214.12z"/>
<path class="st14" d="M530.57,190.9c-1.66,1.26-5.57,2.75-6.08,2.85c-3.01,0.56-4.92,0.7-7.84-0.62c-2.92-1.32-4.49-0.33-5.42-0.03
	c0.56,0.61,1.74,1.72,1.74,1.72s-5.48,0.34-6.68,4.34c-0.6,2.02-0.2,2.19,1.26,2.74c0.18,0.95,0.07,2.19,2.07,2.41
	c0.45,0.55,2.04,3.03,3.3,3.17c5.67,0.65,10.96-3.15,13.56-4.13c1.55-0.58,5.74-1.88,10.63-4.5
	C536.38,195.66,532.95,193.23,530.57,190.9z"/>
<path class="st14" d="M513.27,150.82c-4.84,6.91-10.8,14.26-15.65,25.41c-1.16,2.66-4.49,10.46-4.06,14.26
	c0.42,3.81,2.39,6.64,4.14,7.6c1.74,0.96,2.26-0.82,2.26-0.82s2.17-0.35,3.18-0.2c1.01,0.16,3.15-2.76,3.15-2.76
	s-3.06-0.95-2.63-2.81c0.14-0.62,1.69-2.17,1.69-2.17l3.73,2c0,0-2.69-4.27-3.31-5.54c-0.62-1.27-0.76-1.38-0.88-2.4
	c-0.26-2.33,11.4-15.53,12.71-17.12c4.06-4.93,6.58-10.38,6.58-10.38s-1.99-1.49-4.16-2.68
	C517.52,151.87,514.71,150.78,513.27,150.82z"/>
<path class="st7" d="M505.59,271.49L495,277.6l-42.58-24.66l10.53-6.1L505.59,271.49z"/>
<path class="st1" d="M452.42,252.94v34.32l42.6,24.58v-34.3L452.42,252.94z"/>
<path class="st4" d="M505.59,271.49l-10.57,6.1v33l10.57-6.1V271.49z"/>
<path class="st2" d="M447.12,131.67l-17.05,9.84V342.1l17.05-9.84V131.67z"/>
<path class="st1" d="M422.06,136.89v194.73l8.01,4.62V141.51L422.06,136.89z"/>
<path class="st7" d="M447.12,131.67l-7.81-4.63l-17.25,9.84l8.01,4.62L447.12,131.67z"/>
<path class="st6" d="M465.94,163.88l-28.93-16.7v6.52l28.93,16.7V163.88z"/>
<path class="st8" d="M480.2,166.44l-38.27-22.08l-4.92,2.87l43.19,24.93V166.44z"/>
<path class="st6" d="M465.94,186.65l-28.93-16.7v6.52l28.93,16.7V186.65z"/>
<path class="st8" d="M480.2,189.22l-38.27-22.08l-4.92,2.87l43.19,24.94V189.22z"/>
<path class="st2" d="M484.31,153.87l-17.05,9.84v194.73l17.05-9.83V153.87z"/>
<path class="st1" d="M459.26,159.09v194.73l8.01,4.62V163.71L459.26,159.09z"/>
<path class="st7" d="M484.31,153.87l-7.81-4.63l-17.25,9.85l8.01,4.62L484.31,153.87z"/>
<path class="st3" d="M513.09,344.67c0,13.59-8.26,29.38-18.46,35.27c-10.2,5.88-18.46-0.36-18.46-13.96
	c0-13.59,8.26-29.38,18.46-35.27C504.83,324.83,513.09,331.08,513.09,344.67z"/>
<path class="st3" d="M496.54,388.7l-13.37-7.52l23.85-51.23l12.79,7.15L496.54,388.7z"/>
<path class="st4" d="M526.97,352.4c0,13.59-8.27,29.38-18.46,35.27c-10.19,5.89-18.46-0.36-18.46-13.95
	c0-13.59,8.26-29.38,18.46-35.27C518.7,332.56,526.97,338.81,526.97,352.4z"/>
<path class="st5" d="M522.95,355.16c0,10.64-6.47,22.99-14.44,27.6c-7.98,4.61-14.44-0.28-14.44-10.92
	c0-10.64,6.47-22.99,14.44-27.6C516.48,339.63,522.95,344.52,522.95,355.16z"/>
<path class="st3" d="M519.4,357.2c0,8.02-4.88,17.35-10.9,20.82c-6.02,3.48-10.9-0.21-10.9-8.24c0-8.02,4.88-17.35,10.9-20.82
	C514.53,345.49,519.4,349.18,519.4,357.2z"/>
<path class="st5" d="M512.66,361.1c0,3.06-1.86,6.61-4.15,7.93c-2.29,1.32-4.15-0.08-4.15-3.14s1.86-6.61,4.15-7.93
	C510.8,356.64,512.66,358.04,512.66,361.1z"/>
<path class="st3" d="M626.49,252.06l-5.22-2.92V80.16l10.44-9.77L626.49,252.06z"/>
<path class="st2" d="M636.93,251.7l-10.44,6.03V80.16l10.44-9.77V251.7z"/>
<path class="st1" d="M631.39,61.48l-57.44,32.81c-17.68,10.21-32.88,35.68-36.27,60.78l-11.12,173.85l10.66-6.3l9.79-163.99
	c2.96-21.96,16.27-44.25,31.73-53.18l52.64-30.04V61.48L631.39,61.48z"/>
<path class="st1" d="M636.93,65.66l-5.54-4.18l-7.33,4.18l6.97,6.17L636.93,65.66z"/>
<path class="st1" d="M530.71,333.61l-4.15-4.7l5.56-9.29l5.93,7.57L530.71,333.61z"/>
<path class="st2" d="M636.93,65.66l-57.43,32.81c-17.68,10.21-32.89,35.68-36.27,60.78l-11.1,172.7l-0.02,2.22l10.66-7.37
	l9.79-163.99c2.96-21.96,16.27-44.25,31.73-53.18l52.64-30.04V65.66L636.93,65.66z"/>
<path class="st10" d="M418.58,240.6l-4.98,2.88v89.59l4.98-1.97V240.6z"/>
<path class="st8" d="M481.49,318.02l-4.98,2.87l-62.88-36.28l4.92-2.87L481.49,318.02z"/>
<path class="st7" d="M481.49,355.8l-4.98,2.88l-62.88-36.28l4.92-2.87L481.49,355.8z"/>
<path class="st6" d="M476.51,279.34l-68.68-39.65v6.52l68.68,39.65V279.34z"/>
<path class="st8" d="M481.49,297.18l-4.98,2.88l-62.88-36.28l4.92-2.87L481.49,297.18z"/>
<path class="st10" d="M481.49,276.46l-4.98,2.87v90.5l4.98-2.87V276.46z"/>
<path class="st8" d="M481.49,276.46l-4.98,2.87l-68.68-39.65l4.92-2.87L481.49,276.46z"/>
<path class="st6" d="M476.51,300.06l-68.68-39.65v6.52l68.68,39.65V300.06z"/>
<path class="st6" d="M476.51,320.89l-68.68-39.65v6.52l68.68,39.65V320.89z"/>
<path class="st6" d="M413.6,333.07l-5.77-3.12v-89.19l5.77,3.33V333.07z"/>
<path class="st6" d="M476.52,369.83l-5.77-3.33v-89.73l5.77,3.33V369.83z"/>
<path class="st1" d="M476.51,358.42l-68.68-39.35v9.84l68.68,39.35V358.42z"/>
<path class="st7" d="M481.49,371.16L346.29,449l-16.96-9.79l135.2-77.84L481.49,371.16z"/>
<path class="st1" d="M346.29,449v-3.9l135.2-77.79v3.86L346.29,449z"/>
<path class="st3" d="M329.33,435.3v3.9l16.96,9.79v-3.9L329.33,435.3z"/>
<path class="st7" d="M481.49,367.26l-135.2,77.84l-16.96-9.79l135.2-77.84L481.49,367.26z"/>
<path class="st7" d="M424.95,338.24l-135.2,77.84l-16.96-9.79l135.2-77.84L424.95,338.24z"/>
<path class="st1" d="M289.75,416.08v-3.9l135.2-77.8v3.86L289.75,416.08z"/>
<path class="st3" d="M272.79,402.39v3.9l16.96,9.79v-3.9L272.79,402.39z"/>
<path class="st7" d="M424.95,334.34l-135.2,77.84l-16.96-9.79l135.2-77.84L424.95,334.34z"/>
<path class="st1" d="M579.78,94.14l-106.32-61.3l-4.92,2.87l106.38,61.36L579.78,94.14z"/>
<path class="st1" d="M608.44,77.47l-106.32-61.3l-4.92,2.87L603.58,80.4L608.44,77.47z"/>
<path class="st3" d="M627.56,64.57L525.69,6.45v4.88l101.87,59.06V64.57z"/>
<path class="st1" d="M633.69,63.17L524.2,0l-4.9,2.93L628.83,66.1L633.69,63.17z"/>
<path class="st3" d="M488.6,37.01c0,3.81-5.93,6.9-13.25,6.9c-7.32,0-13.25-3.09-13.25-6.9c0-3.81,5.93-6.9,13.25-6.9
	C482.67,30.11,488.6,33.2,488.6,37.01z"/>
<path class="st3" d="M488.6,34.7h-26.5v2.31h26.5V34.7z"/>
<path class="st7" d="M488.6,34.7c0,3.81-5.93,6.9-13.25,6.9c-7.32,0-13.25-3.09-13.25-6.9c0-3.81,5.93-6.9,13.25-6.9
	C482.67,27.8,488.6,30.89,488.6,34.7z"/>
<path class="st18" d="M486.18,34.14c0,3.12-4.85,5.64-10.83,5.64c-5.98,0-10.83-2.53-10.83-5.64c0-3.11,4.85-5.64,10.83-5.64
	C481.33,28.5,486.18,31.02,486.18,34.14z"/>
<path class="st18" d="M466.33,10.36l-1.81,23.77h21.67l-1.81-23.77H466.33z"/>
<path class="st19" d="M484.37,10.36c0,2.59-4.04,4.7-9.02,4.7c-4.98,0-9.02-2.1-9.02-4.7c0-2.6,4.04-4.7,9.02-4.7
	C480.33,5.66,484.37,7.76,484.37,10.36z"/>
<path class="st18" d="M481.48,10.42c0,1.76-2.75,3.19-6.13,3.19s-6.13-1.43-6.13-3.19c0-1.76,2.75-3.19,6.13-3.19
	C478.74,7.23,481.48,8.66,481.48,10.42z"/>
<path class="st20" d="M474.17,387.73l-99.78,57.66l3.11,1.95l100.07-57.79L474.17,387.73z"/>
<path class="st21" d="M477.57,389.55L377.5,447.33v14.24l100.07-57.78V389.55z"/>
<path class="st22" d="M374.39,459.78v-14.39l3.11,1.94v14.24L374.39,459.78z"/>
<path class="st20" d="M362.78,323.13L263,380.78l3.11,1.96l100.07-57.79L362.78,323.13z"/>
<path class="st21" d="M366.18,324.94l-100.07,57.78v14.24l100.07-57.78V324.94z"/>
<path class="st22" d="M263,395.18v-14.39l3.11,1.94v14.24L263,395.18z"/>
<path class="st20" d="M416.86,353.84l-99.78,57.66l3.11,1.95l100.07-57.79L416.86,353.84z"/>
<path class="st21" d="M420.26,355.65l-100.07,57.78v14.24l100.07-57.78V355.65z"/>
<path class="st22" d="M317.08,425.89v-14.39l3.11,1.94v14.24L317.08,425.89z"/>
<path class="st22" d="M377.5,442.98L263,376.87v4.61l114.5,66.11V442.98z"/>
<path class="st20" d="M389.5,436.27l-12,6.71L263,376.87l11.94-6.71L389.5,436.27z"/>
<path class="st21" d="M389.5,436.27l-12,6.71v8.58l12-6.99V436.27z"/>
<path class="st22" d="M399.83,429.82l-114.82-66.39v4.6l114.82,66.39V429.82z"/>
<path class="st20" d="M411.83,423.11l-12,6.71l-114.82-66.39l11.94-6.71L411.83,423.11z"/>
<path class="st21" d="M411.83,423.11l-12,6.71v8.58l12-6.99V423.11z"/>
<path class="st22" d="M422.69,416.86L307.6,350.33v4.6l115.09,66.53V416.86z"/>
<path class="st20" d="M434.7,410.15l-12,6.71L307.6,350.33l11.94-6.71L434.7,410.15z"/>
<path class="st21" d="M434.7,410.15l-12,6.71v8.58l12-6.99V410.15z"/>
<path class="st22" d="M445.02,403.7L330.2,337.6v4.61l114.82,66.11V403.7z"/>
<path class="st20" d="M457.02,396.99l-12,6.71L330.2,337.6l11.94-6.71L457.02,396.99z"/>
<path class="st21" d="M457.02,396.99l-12,6.71v8.58l12-6.99V396.99z"/>
<path class="st22" d="M465.57,392.16l-115.1-66.4v4.61l115.1,66.4V392.16z"/>
<path class="st20" d="M477.57,385.45l-12,6.71l-115.1-66.4l11.94-6.71L477.57,385.45z"/>
<path class="st21" d="M477.57,385.45l-12,6.71v8.58l12-6.99V385.45z"/>
<path class="st23" d="M369.58,377.85l-0.02-62.39l49.85-28.82v62.32L369.58,377.85z"/>
<path class="st24" d="M369.58,377.85l-0.02-62.39l-49.85-28.82v62.32L369.58,377.85z"/>
<path class="st25" d="M319.71,286.65l49.85,28.82l49.85-28.82l-49.83-28.81L319.71,286.65z"/>
<path class="st15" d="M400.88,315.51l-11.12,6.45v-18.21l11.12-6.46V315.51z"/>
<path class="st5" d="M400.88,297.3l-49.78-28.78l-11.14,6.44l49.8,28.82L400.88,297.3z"/>
<path class="st15" d="M376.17,368.93v-3.21l16.73-9.71v3.25L376.17,368.93z"/>
<path class="st15" d="M376.17,363.19v-3.21l16.73-9.7v3.25L376.17,363.19z"/>
<path class="st15" d="M407.92,339.83v11.13l8-4.63V335.2L407.92,339.83z"/>
<path class="st15" d="M330.68,338.67v11.6l-8-4.63v-11.59L330.68,338.67z"/>
<path class="st15" d="M341.6,345v11.6l-8-4.63v-11.6L341.6,345z"/>
<path class="st5" d="M339.13,304.78v16.66l-16.45-9.51v-16.68L339.13,304.78z"/>
<path class="st15" d="M337.11,308.18v-2.71l-12.94-7.46v2.67L337.11,308.18z"/>
<path class="st23" d="M424.08,409.01l-0.02-62.39l49.85-28.82v62.32L424.08,409.01z"/>
<path class="st24" d="M424.08,409.01l-0.02-62.39l-49.85-28.82v62.32L424.08,409.01z"/>
<path class="st25" d="M374.21,317.81l49.85,28.82l49.85-28.82L424.08,289L374.21,317.81z"/>
<path class="st15" d="M455.38,346.67l-11.12,6.45v-18.21l11.12-6.46V346.67z"/>
<path class="st5" d="M455.38,328.46l-49.78-28.78l-11.14,6.44l49.8,28.82L455.38,328.46z"/>
<path class="st15" d="M430.66,400.09v-3.21l16.73-9.7v3.25L430.66,400.09z"/>
<path class="st15" d="M430.66,394.35v-3.21l16.73-9.71v3.25L430.66,394.35z"/>
<path class="st15" d="M462.42,370.99v11.13l8-4.63v-11.13L462.42,370.99z"/>
<path class="st15" d="M385.18,369.83v11.6l-8-4.63V365.2L385.18,369.83z"/>
<path class="st15" d="M396.1,376.16v11.6l-8-4.63v-11.59L396.1,376.16z"/>
<path class="st5" d="M393.62,335.93v16.66l-16.45-9.5v-16.68L393.62,335.93z"/>
<path class="st15" d="M391.61,339.34v-2.71l-12.94-7.46v2.67L391.61,339.34z"/>
<path class="st23" d="M318.26,408.8l-0.02-62.39l49.85-28.82v62.32L318.26,408.8z"/>
<path class="st24" d="M318.26,408.8l-0.02-62.39l-49.85-28.82v62.32L318.26,408.8z"/>
<path class="st25" d="M268.39,317.59l49.85,28.82l49.85-28.82l-49.83-28.81L268.39,317.59z"/>
<path class="st15" d="M349.55,346.45l-11.12,6.45V334.7l11.12-6.46V346.45z"/>
<path class="st5" d="M349.55,328.24l-49.78-28.78l-11.14,6.44l49.8,28.82L349.55,328.24z"/>
<path class="st15" d="M324.84,399.87v-3.21l16.73-9.7v3.25L324.84,399.87z"/>
<path class="st15" d="M324.84,394.13v-3.21l16.73-9.71v3.25L324.84,394.13z"/>
<path class="st15" d="M356.6,370.77v11.13l8-4.64v-11.13L356.6,370.77z"/>
<path class="st15" d="M279.36,369.61v11.6l-8-4.63v-11.59L279.36,369.61z"/>
<path class="st15" d="M290.28,375.94v11.6l-8-4.62v-11.6L290.28,375.94z"/>
<path class="st5" d="M287.8,335.72v16.66l-16.45-9.51v-16.68L287.8,335.72z"/>
<path class="st15" d="M285.79,339.13v-2.71l-12.94-7.46v2.67L285.79,339.13z"/>
<path class="st23" d="M372.75,439.95l-0.02-62.39l49.85-28.82v62.32L372.75,439.95z"/>
<path class="st24" d="M372.75,439.95l-0.02-62.39l-49.85-28.82v62.32L372.75,439.95z"/>
<path class="st25" d="M322.89,348.75l49.85,28.82l49.85-28.82l-49.83-28.81L322.89,348.75z"/>
<path class="st15" d="M404.05,377.61l-11.11,6.45v-18.21l11.11-6.46V377.61z"/>
<path class="st5" d="M404.05,359.4l-49.78-28.78l-11.14,6.44l49.8,28.82L404.05,359.4z"/>
<path class="st15" d="M379.34,431.03v-3.21l16.74-9.71v3.25L379.34,431.03z"/>
<path class="st15" d="M379.34,425.29v-3.21l16.74-9.71v3.25L379.34,425.29z"/>
<path class="st15" d="M411.1,401.93v11.13l8-4.63v-11.13L411.1,401.93z"/>
<path class="st15" d="M333.86,400.77v11.6l-8-4.63v-11.59L333.86,400.77z"/>
<path class="st15" d="M344.78,407.1v11.6l-8-4.63v-11.59L344.78,407.1z"/>
<path class="st5" d="M342.3,366.88v16.66l-16.45-9.51v-16.68L342.3,366.88z"/>
<path class="st15" d="M340.29,370.28v-2.71l-12.94-7.46v2.67L340.29,370.28z"/>
<path class="st23" d="M369.58,312.24l-0.02-62.39l49.85-28.82v62.32L369.58,312.24z"/>
<path class="st24" d="M369.58,312.24l-0.02-62.39l-49.85-28.82v62.32L369.58,312.24z"/>
<path class="st25" d="M319.71,221.03l49.85,28.82l49.85-28.82l-49.83-28.81L319.71,221.03z"/>
<path class="st15" d="M400.88,249.89l-11.12,6.45v-18.21l11.12-6.46V249.89z"/>
<path class="st5" d="M400.88,231.68L351.1,202.9l-11.14,6.44l49.8,28.82L400.88,231.68z"/>
<path class="st15" d="M376.17,303.31v-3.21l16.73-9.7v3.25L376.17,303.31z"/>
<path class="st15" d="M376.17,297.58v-3.21l16.73-9.71v3.25L376.17,297.58z"/>
<path class="st15" d="M407.92,274.21v11.13l8-4.63v-11.13L407.92,274.21z"/>
<path class="st15" d="M330.68,273.05v11.6l-8-4.63v-11.59L330.68,273.05z"/>
<path class="st15" d="M341.6,279.38v11.6l-8-4.63v-11.59L341.6,279.38z"/>
<path class="st5" d="M339.13,239.16v16.66l-16.45-9.5v-16.68L339.13,239.16z"/>
<path class="st15" d="M337.11,242.57v-2.71l-12.94-7.46v2.67L337.11,242.57z"/>
<path class="st23" d="M424.08,343.39l-0.02-62.39l49.85-28.82v62.31L424.08,343.39z"/>
<path class="st24" d="M424.08,343.39l-0.02-62.39l-49.85-28.82v62.31L424.08,343.39z"/>
<path class="st25" d="M374.21,252.19l49.85,28.82l49.85-28.82l-49.83-28.81L374.21,252.19z"/>
<path class="st15" d="M455.38,281.05l-11.12,6.45V269.3l11.12-6.46V281.05z"/>
<path class="st5" d="M455.38,262.84l-49.78-28.78l-11.14,6.44l49.8,28.82L455.38,262.84z"/>
<path class="st15" d="M430.66,334.47v-3.21l16.73-9.71v3.25L430.66,334.47z"/>
<path class="st15" d="M430.66,328.73v-3.21l16.73-9.7v3.25L430.66,328.73z"/>
<path class="st15" d="M462.42,305.37v11.13l8-4.63v-11.13L462.42,305.37z"/>
<path class="st15" d="M385.18,304.21v11.6l-8-4.63v-11.59L385.18,304.21z"/>
<path class="st15" d="M396.1,310.54v11.6l-8-4.63v-11.59L396.1,310.54z"/>
<path class="st5" d="M393.62,270.32v16.66l-16.45-9.51v-16.68L393.62,270.32z"/>
<path class="st15" d="M391.61,273.72v-2.71l-12.94-7.46v2.67L391.61,273.72z"/>
<path class="st23" d="M318.26,343.18l-0.02-62.39l49.85-28.82v62.32L318.26,343.18z"/>
<path class="st24" d="M318.26,343.18l-0.02-62.39l-49.85-28.82v62.32L318.26,343.18z"/>
<path class="st25" d="M268.39,251.98l49.85,28.82l49.85-28.82l-49.83-28.81L268.39,251.98z"/>
<path class="st15" d="M349.55,280.83l-11.12,6.45v-18.21l11.12-6.46V280.83z"/>
<path class="st5" d="M349.55,262.62l-49.78-28.78l-11.14,6.44l49.8,28.82L349.55,262.62z"/>
<path class="st15" d="M324.84,334.25v-3.21l16.73-9.7v3.25L324.84,334.25z"/>
<path class="st15" d="M324.84,328.52v-3.21l16.73-9.71v3.25L324.84,328.52z"/>
<path class="st15" d="M356.6,305.16v11.13l8-4.64v-11.13L356.6,305.16z"/>
<path class="st15" d="M279.36,303.99v11.6l-8-4.62v-11.6L279.36,303.99z"/>
<path class="st15" d="M290.28,310.33v11.6l-8-4.63V305.7L290.28,310.33z"/>
<path class="st5" d="M287.8,270.1v16.66l-16.45-9.51v-16.68L287.8,270.1z"/>
<path class="st15" d="M285.79,273.51v-2.71l-12.94-7.46V266L285.79,273.51z"/>
<path class="st23" d="M372.75,374.33l-0.02-62.38l49.85-28.82v62.32L372.75,374.33z"/>
<path class="st24" d="M372.75,374.33l-0.02-62.38l-49.85-28.82v62.32L372.75,374.33z"/>
<path class="st25" d="M322.89,283.13l49.85,28.82l49.85-28.82l-49.83-28.81L322.89,283.13z"/>
<path class="st15" d="M404.05,311.99l-11.11,6.45v-18.21l11.11-6.46V311.99z"/>
<path class="st5" d="M404.05,293.78L354.27,265l-11.14,6.44l49.8,28.82L404.05,293.78z"/>
<path class="st15" d="M379.34,365.41v-3.21l16.74-9.7v3.25L379.34,365.41z"/>
<path class="st15" d="M379.34,359.67v-3.21l16.74-9.71v3.25L379.34,359.67z"/>
<path class="st15" d="M411.1,336.31v11.13l8-4.63v-11.13L411.1,336.31z"/>
<path class="st15" d="M333.86,335.15v11.6l-8-4.62v-11.59L333.86,335.15z"/>
<path class="st15" d="M344.78,341.48v11.6l-8-4.63v-11.59L344.78,341.48z"/>
<path class="st5" d="M342.3,301.26v16.66l-16.45-9.51v-16.68L342.3,301.26z"/>
<path class="st15" d="M340.29,304.67v-2.71l-12.94-7.46v2.67L340.29,304.67z"/>
<g>
	<defs>
		<rect id="SVGID_2_" x="27" y="5" width="267" height="237"/>
	</defs>
	<clipPath id="SVGID_3_">
		<use xlink:href="#SVGID_2_"  style="overflow:visible;"/>
	</clipPath>
	<g class="st26">
		<path class="st27" d="M31.63,162.28L166.42,242l127.59-74.64l-134.8-79.98L31.63,162.28z"/>
		<path class="st20" d="M265.09,152.34l-112.5,64.98l3.51,2.2l112.83-65.14L265.09,152.34z"/>
		<path class="st21" d="M268.93,154.38L156.1,219.5v16.06l112.83-65.14V154.38z"/>
		<path class="st22" d="M152.59,233.55v-16.23l3.51,2.18v16.06L152.59,233.55z"/>
		<path class="st20" d="M139.5,79.52L27,144.5l3.5,2.2l112.84-65.14L139.5,79.52z"/>
		<path class="st21" d="M143.34,81.55L30.5,146.68v16.06L143.34,97.6V81.55z"/>
		<path class="st22" d="M27,160.73V144.5l3.5,2.19v16.05L27,160.73z"/>
		<path class="st20" d="M200.48,114.13l-112.5,64.99l3.5,2.2l112.84-65.14L200.48,114.13z"/>
		<path class="st21" d="M204.32,116.18L91.48,181.3v16.05l112.84-65.13V116.18z"/>
		<path class="st22" d="M87.98,195.34v-16.21l3.5,2.18v16.05L87.98,195.34z"/>
		<path class="st22" d="M156.1,214.6L27,140.08v5.19l129.1,74.52V214.6z"/>
		<path class="st20" d="M169.63,207.03l-13.52,7.57L27,140.08l13.47-7.56L169.63,207.03z"/>
		<path class="st21" d="M169.63,207.03l-13.52,7.57v9.66l13.52-7.87V207.03z"/>
		<path class="st22" d="M181.27,199.76L51.81,124.94v5.19l129.46,74.82V199.76z"/>
		<path class="st20" d="M194.81,192.21l-13.54,7.56L51.81,124.94l13.47-7.56L194.81,192.21z"/>
		<path class="st21" d="M194.81,192.21l-13.54,7.56v9.67l13.54-7.87V192.21z"/>
		<path class="st22" d="M207.06,185.17L77.29,110.18v5.19l129.76,74.99V185.17z"/>
		<path class="st20" d="M220.59,177.6l-13.54,7.57L77.29,110.18l13.46-7.56L220.59,177.6z"/>
		<path class="st21" d="M220.59,177.6l-13.54,7.57v9.66l13.54-7.87V177.6z"/>
		<path class="st22" d="M232.24,170.33L102.77,95.82v5.19l129.47,74.51V170.33z"/>
		<path class="st20" d="M245.76,162.77l-13.52,7.56L102.77,95.82l13.47-7.56L245.76,162.77z"/>
		<path class="st21" d="M245.76,162.77l-13.53,7.56v9.67l13.53-7.87V162.77z"/>
		<path class="st22" d="M255.4,157.33L125.62,82.49v5.19l129.77,74.83V157.33z"/>
		<path class="st20" d="M268.93,149.77l-13.54,7.56L125.62,82.49l13.47-7.57L268.93,149.77z"/>
		<path class="st21" d="M268.93,149.77l-13.54,7.56V167l13.54-7.87V149.77z"/>
		<path class="st23" d="M98.49,171.71l0.01-40.19l-58.32-33.7v40.1L98.49,171.71z"/>
		<path class="st24" d="M98.49,171.71l0.01-40.19l83.95-48.49v40.11L98.49,171.71z"/>
		<path class="st25" d="M182.46,83.03L98.5,131.52l-58.32-33.7l83.97-48.48L182.46,83.03z"/>
		<path class="st28" d="M61.87,131.56l13.01,7.55v-21.29l-13.01-7.56V131.56z"/>
		<g>
			<path class="st29" d="M61.87,110.26l83.9-48.43l13.03,7.53l-83.92,48.49L61.87,110.26z"/>
		</g>
		<path class="st28" d="M94.14,165.05v-3.75l-19.58-11.36v3.81L94.14,165.05z"/>
		<path class="st28" d="M94.14,158.34v-3.75l-19.58-11.35v3.8L94.14,158.34z"/>
		<path class="st28" d="M170.67,111.71v13.56l9.38-5.41V106.3L170.67,111.71z"/>
		<path class="st28" d="M157.89,119.12v13.57l9.36-5.41v-13.55L157.89,119.12z"/>
		<path class="st28" d="M144.95,126.55v13.56l9.36-5.41v-13.56L144.95,126.55z"/>
		<g>
			<path class="st29" d="M101.04,133.18v19.49l19.24-11.12v-19.51L101.04,133.18z"/>
		</g>
		<path class="st28" d="M103.4,137.16V134l15.14-8.73v3.12L103.4,137.16z"/>
		<path class="st23" d="M162.52,209.26l0.02-40.19l-58.33-33.71v40.11L162.52,209.26z"/>
		<path class="st24" d="M162.52,209.26l0.02-40.19l83.94-48.49v40.1L162.52,209.26z"/>
		<path class="st25" d="M246.49,120.58l-83.94,48.48l-58.33-33.7l83.97-48.46L246.49,120.58z"/>
		<path class="st28" d="M125.9,169.11l13.01,7.55v-21.3l-13.01-7.55V169.11z"/>
		<g>
			<path class="st29" d="M125.9,147.81l83.9-48.44l13.03,7.54l-83.92,48.49L125.9,147.81z"/>
		</g>
		<path class="st28" d="M158.17,202.6v-3.76L138.6,187.5v3.8L158.17,202.6z"/>
		<path class="st28" d="M158.17,195.9v-3.76l-19.58-11.35v3.8L158.17,195.9z"/>
		<path class="st28" d="M234.71,149.25v13.56l9.36-5.4v-13.56L234.71,149.25z"/>
		<path class="st28" d="M221.93,156.67v13.56l9.36-5.41v-13.56L221.93,156.67z"/>
		<path class="st28" d="M208.98,164.1v13.57l9.36-5.41v-13.56L208.98,164.1z"/>
		<g>
			<path class="st29" d="M165.07,170.74v19.49l19.25-11.13v-19.51L165.07,170.74z"/>
		</g>
		<path class="st28" d="M167.44,174.71v-3.18l15.13-8.72v3.12L167.44,174.71z"/>
		<path class="st23" d="M98.49,127.37l0.01-40.19l-58.32-33.7v40.1L98.49,127.37z"/>
		<path class="st24" d="M98.49,127.37l0.01-40.19l83.95-48.49V78.8L98.49,127.37z"/>
		<path class="st25" d="M182.46,38.69L98.5,87.18L40.19,53.46L124.15,5L182.46,38.69z"/>
		<path class="st28" d="M61.87,87.22l13.01,7.55v-21.3l-13.01-7.55V87.22z"/>
		<g>
			<path class="st29" d="M61.87,65.92l83.9-48.44l13.03,7.54L74.88,73.5L61.87,65.92z"/>
		</g>
		<path class="st28" d="M94.14,120.72v-3.76l-19.58-11.35v3.81L94.14,120.72z"/>
		<path class="st28" d="M94.14,114.01v-3.75L74.56,98.9v3.81L94.14,114.01z"/>
		<path class="st28" d="M170.67,67.38v13.56l9.38-5.41V61.96L170.67,67.38z"/>
		<path class="st28" d="M157.89,74.78v13.56l9.36-5.41V69.38L157.89,74.78z"/>
		<path class="st28" d="M144.95,82.21v13.56l9.36-5.41V76.81L144.95,82.21z"/>
		<g>
			<path class="st29" d="M101.04,88.85v19.49l19.24-11.12V77.71L101.04,88.85z"/>
		</g>
		<path class="st28" d="M103.4,92.83v-3.18l15.14-8.72v3.12L103.4,92.83z"/>
		<path class="st23" d="M162.52,164.92l0.02-40.2l-58.33-33.7v40.11L162.52,164.92z"/>
		<path class="st24" d="M162.52,164.92l0.02-40.2l83.94-48.49v40.11L162.52,164.92z"/>
		<path class="st25" d="M246.49,76.23l-83.94,48.49l-58.33-33.7l83.97-48.46L246.49,76.23z"/>
		<path class="st28" d="M125.9,124.78l13.01,7.55v-21.3l-13.01-7.55V124.78z"/>
		<g>
			<path class="st29" d="M125.9,103.47l83.9-48.44l13.03,7.54l-83.92,48.48L125.9,103.47z"/>
		</g>
		<path class="st28" d="M158.17,158.26v-3.75l-19.58-11.35v3.8L158.17,158.26z"/>
		<path class="st28" d="M158.17,151.56v-3.76l-19.58-11.35v3.8L158.17,151.56z"/>
		<path class="st28" d="M234.71,104.92v13.56l9.36-5.4V99.51L234.71,104.92z"/>
		<path class="st28" d="M221.93,112.33v13.56l9.36-5.41v-13.56L221.93,112.33z"/>
		<path class="st28" d="M208.98,119.76v13.56l9.36-5.41v-13.56L208.98,119.76z"/>
		<g>
			<path class="st29" d="M165.07,126.4v19.48l19.25-11.12v-19.51L165.07,126.4z"/>
		</g>
		<path class="st28" d="M167.44,130.38v-3.18l15.13-8.72v3.12L167.44,130.38z"/>
	</g>
</g>
</svg>
