<?xml version="1.0" encoding="utf-8"?>
<!-- Generator: Adobe Illustrator 24.0.2, SVG Export Plug-In . SVG Version: 6.00 Build 0)  -->
<svg version="1.1" id="Layer_1" xmlns="http://www.w3.org/2000/svg" xmlns:xlink="http://www.w3.org/1999/xlink" x="0px" y="0px"
	 viewBox="0 0 172 61" style="enable-background:new 0 0 172 61;" xml:space="preserve">
<style type="text/css">
	.st0{fill:#D02817;}
	.st1{fill:#706F6F;}
</style>
<path class="st0" d="M71.68,17.34h7.64c3.08,0,5.59,0.79,7.52,2.34c1.92,1.55,2.87,3.87,2.87,6.88c0,3.08-0.98,5.42-2.9,6.97
	c-1.92,1.55-4.53,2.34-7.81,2.34H65.31V6.97h21.66v5.24h-15.3V17.34z M83.45,26.48c0-2.75-1.66-4.13-5-4.13h-6.78v8.32h6.81
	C81.8,30.67,83.45,29.26,83.45,26.48z"/>
<path class="st0" d="M116.04,6.94v5.21h-15.57v6.3h14.29v5.01h-14.29v7.12h15.83v5.3h-22.2V6.97h21.93V6.94z"/>
<path class="st0" d="M142.44,6.94v5.39h-8.79v23.55h-6.45V12.36h-8.79V6.97h24.03V6.94z"/>
<path class="st0" d="M160.34,6.91l11.13,28.97h-6.72l-2.31-6.44h-10.86l-2.37,6.44h-6.57l11.13-28.97H160.34z M160.87,24.78
	l-3.85-10.75l-3.91,10.75H160.87z"/>
<path class="st1" d="M67.5,54.07h-2.16V43.91h1.69v8.29h0.03l4.62-8.29h2.16v10.16h-1.69v-8.29h-0.03L67.5,54.07z"/>
<path class="st1" d="M82.03,54.07h-1.69V43.91h1.69v4.04h5.12v-4.04h1.69v10.16h-1.69v-4.66h-5.12V54.07z"/>
<path class="st1" d="M109.23,48.86c0,1-0.12,1.9-0.39,2.69c-0.27,0.79-0.71,1.44-1.33,1.99c-0.65,0.53-1.45,0.79-2.43,0.79
	c-0.39,0-0.77-0.12-1.18-0.32c-0.42-0.21-0.74-0.44-0.95-0.7h-0.03V58h-1.66v-4.69h-0.03c-0.21,0.26-0.53,0.47-0.95,0.7
	c-0.41,0.2-0.83,0.32-1.18,0.32c-0.98,0-1.78-0.26-2.43-0.79c-0.65-0.53-1.09-1.2-1.33-1.99c-0.27-0.79-0.39-1.7-0.39-2.69
	c0-1.61,0.35-2.87,1.06-3.78c0.71-0.94,1.69-1.38,2.93-1.38c0.42,0,0.86,0.12,1.3,0.35c0.44,0.23,0.77,0.47,0.98,0.76h0.06V40.1
	h1.66v4.72h0.06c0.21-0.26,0.53-0.53,0.98-0.76c0.44-0.23,0.89-0.35,1.3-0.35c1.24,0,2.22,0.47,2.93,1.38
	C108.88,45.99,109.23,47.25,109.23,48.86z M101.24,51.61v-5.13c-0.15-0.5-0.41-0.85-0.83-1.08c-0.42-0.23-0.83-0.32-1.27-0.32
	c-0.83,0-1.45,0.35-1.86,1.03c-0.41,0.7-0.62,1.61-0.62,2.78c0,0.5,0.03,1,0.12,1.44c0.09,0.44,0.21,0.88,0.38,1.29
	c0.18,0.41,0.44,0.73,0.8,0.97c0.36,0.23,0.77,0.35,1.27,0.35c0.5,0,0.95-0.12,1.33-0.38C100.94,52.28,101.15,51.96,101.24,51.61z
	 M107.49,48.89c0-1.17-0.21-2.11-0.62-2.78c-0.41-0.7-1.04-1.03-1.86-1.03c-0.44,0-0.86,0.12-1.27,0.32
	c-0.41,0.23-0.68,0.59-0.83,1.08v5.13c0.06,0.38,0.29,0.67,0.68,0.94c0.39,0.26,0.83,0.38,1.33,0.38s0.92-0.12,1.27-0.35
	c0.36-0.23,0.62-0.56,0.8-0.97c0.18-0.41,0.32-0.85,0.38-1.29C107.43,49.88,107.49,49.38,107.49,48.89z"/>
<path class="st1" d="M116.07,45.08c0.89-0.97,2.13-1.46,3.67-1.46s2.75,0.47,3.61,1.41c0.86,0.94,1.3,2.23,1.3,3.93
	c0,1.73-0.44,3.05-1.3,4.01s-2.07,1.44-3.64,1.44c-1.57,0-2.78-0.47-3.67-1.41c-0.89-0.94-1.33-2.26-1.33-3.93
	C114.74,47.39,115.18,46.07,116.07,45.08z M122.08,46.1c-0.56-0.7-1.36-1.08-2.37-1.08c-1.01,0-1.78,0.35-2.37,1.08
	s-0.89,1.7-0.89,2.9c0,1.26,0.3,2.23,0.86,2.93c0.56,0.7,1.39,1.05,2.43,1.05c1.01,0,1.78-0.35,2.34-1.05
	c0.56-0.7,0.86-1.7,0.86-2.93C122.93,47.77,122.64,46.81,122.08,46.1z"/>
<path class="st1" d="M139.83,54.07h-2.16l-3.73-5.01l-1.6,1.55v3.46h-1.69V43.91h1.69v4.86l4.7-4.83h2.28l-4.14,3.98L139.83,54.07z"
	/>
<path class="st1" d="M145.75,45.08c0.89-0.97,2.13-1.46,3.67-1.46s2.75,0.47,3.61,1.41c0.86,0.94,1.3,2.23,1.3,3.93
	c0,1.73-0.44,3.05-1.3,4.01c-0.86,0.97-2.07,1.44-3.64,1.44c-1.57,0-2.78-0.47-3.67-1.41c-0.89-0.94-1.33-2.26-1.33-3.93
	C144.42,47.39,144.86,46.07,145.75,45.08z M151.76,46.1c-0.56-0.7-1.36-1.08-2.37-1.08c-1.01,0-1.77,0.35-2.37,1.08
	c-0.59,0.73-0.89,1.7-0.89,2.9c0,1.26,0.3,2.23,0.86,2.93c0.56,0.7,1.39,1.05,2.43,1.05c1.01,0,1.78-0.35,2.34-1.05
	c0.56-0.7,0.86-1.7,0.86-2.93C152.62,47.77,152.32,46.81,151.76,46.1z"/>
<path class="st1" d="M171.44,54.07h-1.69v-8h-0.06l-3.05,8h-1.54l-3.05-8H162v8h-1.69V43.91h2.43l3.11,8.23h0.03l3.11-8.23h2.43
	v10.16H171.44z"/>
<path class="st0" d="M17.87,14.82l-17.4,6.12v22.85l17.4-4.13V14.82z"/>
<path class="st1" d="M19.94,39.16l17.4-4.13V7.96l-17.4,6.12V39.16z"/>
<path class="st0" d="M39.42,7.26v27.27l17.4-4.16V1.14L39.42,7.26z"/>
<path class="st0" d="M39.42,58.64l17.4,1.82v-28l-17.4,4.22V58.64z"/>
<path class="st0" d="M17.87,41.83l-17.4,4.16v8.64l17.4,1.79V41.83z"/>
<path class="st0" d="M19.94,56.62l17.4,1.82V37.17l-17.4,4.16V56.62z"/>
</svg>
