<?xml version="1.0" encoding="utf-8"?>
<!-- Generator: Adobe Illustrator 24.0.2, SVG Export Plug-In . SVG Version: 6.00 Build 0)  -->
<svg version="1.1" id="Layer_1" xmlns="http://www.w3.org/2000/svg" xmlns:xlink="http://www.w3.org/1999/xlink" x="0px" y="0px"
	 viewBox="0 0 160 56" style="enable-background:new 0 0 160 56;" xml:space="preserve">
<style type="text/css">
	.st0{fill:#FFFFFF;}
</style>
<path class="st0" d="M66.63,15.16h7.14c2.88,0,5.23,0.74,7.03,2.19c1.8,1.45,2.69,3.62,2.69,6.44c0,2.88-0.91,5.07-2.71,6.52
	c-1.8,1.45-4.24,2.19-7.31,2.19H60.67V5.46h20.27v4.91H66.63V15.16z M77.65,23.71c0-2.58-1.55-3.86-4.68-3.86h-6.34v7.78h6.37
	C76.1,27.63,77.65,26.31,77.65,23.71z"/>
<path class="st0" d="M108.13,5.43v4.88H93.57v5.89h13.38v4.69H93.57v6.66h14.82v4.96H87.62V5.45h20.52V5.43z"/>
<path class="st0" d="M132.84,5.43v5.04h-8.22v22.04h-6.04V10.5h-8.22V5.45h22.49V5.43z"/>
<path class="st0" d="M149.59,5.4L160,32.51h-6.29l-2.16-6.03h-10.16l-2.22,6.03h-6.15L143.44,5.4H149.59z M150.09,22.12l-3.6-10.06
	l-3.65,10.06H150.09z"/>
<path class="st0" d="M62.72,49.53H60.7v-9.51h1.58v7.76h0.03l4.32-7.76h2.02v9.51h-1.58v-7.76h-0.03L62.72,49.53z"/>
<path class="st0" d="M76.32,49.53h-1.58v-9.51h1.58v3.78h4.79v-3.78h1.58v9.51h-1.58v-4.36h-4.79V49.53z"/>
<path class="st0" d="M101.76,44.65c0,0.93-0.11,1.78-0.36,2.52c-0.25,0.74-0.66,1.34-1.25,1.86c-0.61,0.49-1.36,0.74-2.27,0.74
	c-0.36,0-0.72-0.11-1.11-0.3c-0.39-0.19-0.69-0.41-0.89-0.66h-0.03v4.39h-1.55v-4.39h-0.03c-0.19,0.25-0.5,0.44-0.89,0.66
	c-0.39,0.19-0.78,0.3-1.11,0.3c-0.91,0-1.66-0.25-2.27-0.74c-0.61-0.49-1.02-1.12-1.25-1.86c-0.25-0.74-0.36-1.59-0.36-2.52
	c0-1.51,0.33-2.69,1-3.54c0.66-0.88,1.58-1.29,2.74-1.29c0.39,0,0.8,0.11,1.22,0.33c0.42,0.22,0.72,0.44,0.91,0.71h0.06v-4.41h1.55
	v4.41h0.06c0.19-0.25,0.5-0.49,0.91-0.71c0.42-0.22,0.83-0.33,1.22-0.33c1.16,0,2.08,0.44,2.74,1.29
	C101.43,41.96,101.76,43.14,101.76,44.65z M94.29,47.22v-4.8c-0.14-0.47-0.39-0.79-0.78-1.01c-0.39-0.22-0.78-0.3-1.19-0.3
	c-0.78,0-1.36,0.33-1.74,0.96c-0.39,0.66-0.58,1.51-0.58,2.6c0,0.47,0.03,0.93,0.11,1.34c0.08,0.41,0.19,0.82,0.36,1.21
	c0.17,0.38,0.42,0.69,0.75,0.9c0.33,0.22,0.72,0.33,1.19,0.33c0.47,0,0.89-0.11,1.25-0.36C94.01,47.85,94.21,47.55,94.29,47.22z
	 M100.13,44.67c0-1.1-0.19-1.97-0.58-2.6c-0.39-0.66-0.97-0.96-1.74-0.96c-0.42,0-0.8,0.11-1.19,0.3c-0.39,0.22-0.64,0.55-0.78,1.01
	v4.8c0.06,0.36,0.28,0.63,0.64,0.88c0.36,0.25,0.78,0.36,1.25,0.36c0.47,0,0.86-0.11,1.19-0.33c0.33-0.22,0.58-0.52,0.75-0.9
	c0.17-0.38,0.3-0.79,0.36-1.21C100.08,45.61,100.13,45.14,100.13,44.67z"/>
<path class="st0" d="M108.16,41.11c0.83-0.9,1.99-1.37,3.43-1.37s2.57,0.44,3.38,1.32c0.8,0.88,1.22,2.08,1.22,3.67
	c0,1.62-0.42,2.85-1.22,3.75c-0.8,0.9-1.94,1.34-3.41,1.34c-1.47,0-2.6-0.44-3.43-1.32c-0.83-0.88-1.25-2.11-1.25-3.67
	C106.92,43.28,107.33,42.04,108.16,41.11z M113.78,42.07c-0.53-0.66-1.27-1.01-2.22-1.01c-0.94,0-1.66,0.33-2.22,1.01
	c-0.55,0.69-0.83,1.59-0.83,2.71c0,1.18,0.28,2.08,0.8,2.74c0.53,0.66,1.3,0.99,2.27,0.99c0.94,0,1.66-0.33,2.19-0.99
	c0.53-0.66,0.8-1.59,0.8-2.74S114.31,42.73,113.78,42.07z"/>
<path class="st0" d="M130.4,49.53h-2.02l-3.49-4.69l-1.5,1.45v3.23h-1.58v-9.51h1.58v4.55l4.4-4.52h2.13l-3.88,3.73L130.4,49.53z"/>
<path class="st0" d="M135.94,41.11c0.83-0.9,1.99-1.37,3.43-1.37s2.58,0.44,3.38,1.32c0.8,0.88,1.22,2.08,1.22,3.67
	c0,1.62-0.41,2.85-1.22,3.75c-0.8,0.9-1.94,1.34-3.41,1.34c-1.47,0-2.6-0.44-3.43-1.32c-0.83-0.88-1.25-2.11-1.25-3.67
	C134.69,43.28,135.11,42.04,135.94,41.11z M141.56,42.07c-0.53-0.66-1.27-1.01-2.21-1.01c-0.94,0-1.66,0.33-2.22,1.01
	c-0.55,0.69-0.83,1.59-0.83,2.71c0,1.18,0.28,2.08,0.8,2.74c0.53,0.66,1.3,0.99,2.27,0.99c0.94,0,1.66-0.33,2.19-0.99
	c0.53-0.66,0.8-1.59,0.8-2.74S142.08,42.73,141.56,42.07z"/>
<path class="st0" d="M159.97,49.53h-1.58v-7.48h-0.05l-2.85,7.48h-1.44l-2.85-7.48h-0.05v7.48h-1.58v-9.51h2.27l2.91,7.7h0.03
	l2.91-7.7h2.27v9.51H159.97z"/>
<path class="st0" d="M16.28,12.8L0,18.53v21.38l16.28-3.86V12.8z"/>
<path class="st0" d="M18.22,35.58l16.28-3.86V6.39l-16.28,5.73V35.58z"/>
<path class="st0" d="M36.44,5.73v25.52l16.28-3.89V0L36.44,5.73z"/>
<path class="st0" d="M36.44,53.8l16.28,1.7V29.3l-16.28,3.95V53.8z"/>
<path class="st0" d="M16.28,38.07L0,41.96v8.09l16.28,1.67V38.07z"/>
<path class="st0" d="M18.22,51.91l16.28,1.7v-19.9L18.22,37.6V51.91z"/>
</svg>
