<?xml version="1.0" encoding="utf-8"?>
<!-- Generator: Adobe Illustrator 24.0.2, SVG Export Plug-In . SVG Version: 6.00 Build 0)  -->
<svg version="1.1" id="Layer_1" xmlns="http://www.w3.org/2000/svg" xmlns:xlink="http://www.w3.org/1999/xlink" x="0px" y="0px"
	 viewBox="0 0 237.2 137.6" style="enable-background:new 0 0 237.2 137.6;" xml:space="preserve">
<style type="text/css">
	.st0{fill:#EFEFEF;}
	.st1{fill:#D02418;}
	.st2{fill:#FFFFFF;}
</style>
<circle class="st0" cx="132.1" cy="40.4" r="14"/>
<path class="st1" d="M87.9,41.2c-0.1,0-0.2,0-0.2,0L80,39.1c-0.2-0.1-0.4-0.2-0.6-0.4c-0.1-0.2-0.2-0.5-0.1-0.7l4.8-17.8
	c0.1-0.2,0.2-0.4,0.4-0.6s0.5-0.2,0.7-0.1l7.7,2.1c0.2,0.1,0.5,0.2,0.6,0.4c0.1,0.1,0.1,0.2,0.1,0.4c0,0.1,0,0.3,0,0.4l-4.8,17.8
	c-0.1,0.2-0.2,0.4-0.3,0.5S88.1,41.2,87.9,41.2z M81.4,37.5l5.9,1.6l4.3-15.9l-5.9-1.6L81.4,37.5z"/>
<path class="st1" d="M91.4,40.1c-0.6,0-1.3-0.1-1.9-0.3l-1.4-0.5c-0.2-0.1-0.4-0.2-0.5-0.4s-0.2-0.5-0.1-0.7l3.8-14
	c0.1-0.2,0.2-0.4,0.4-0.6s0.5-0.2,0.7-0.1l2.1,0.6c1.1,0.3,2.4,0.3,3.5,0l5.1-1.6c1.1-0.3,2.2-0.4,3.3-0.1c1.1,0.2,2.1,0.8,2.9,1.5
	l6.5,6c0.4,0.4,0.7,0.8,0.9,1.4s0.2,1.1,0.1,1.6s-0.4,1-0.8,1.4s-0.9,0.7-1.4,0.8c-0.4,0.1-0.9,0.2-1.3,0.1
	c-0.4-0.1-0.9-0.2-1.2-0.5l-3.8-2.4c-0.5-0.3-1.1-0.5-1.7-0.5s-1.2,0.2-1.7,0.5l-10,6.6C93.8,39.7,92.6,40.1,91.4,40.1z M89.5,37.9
	l0.5,0.2c0.6,0.2,1.3,0.2,1.9,0.2c0.6-0.1,1.2-0.3,1.8-0.7l10-6.6c0.8-0.5,1.8-0.8,2.7-0.8c1,0,1.9,0.3,2.7,0.8l3.8,2.4
	c0.1,0.1,0.3,0.2,0.5,0.2s0.3,0,0.5,0s0.3-0.1,0.4-0.2s0.2-0.3,0.3-0.4c0.1-0.2,0.1-0.5,0.1-0.8c-0.1-0.3-0.2-0.5-0.4-0.7l-6.5-6.1
	c-0.6-0.5-1.3-0.9-2-1.1c-0.8-0.2-1.5-0.1-2.3,0.1l-5,1.5c-1.5,0.4-3.1,0.4-4.5,0l-1.1-0.3L89.5,37.9z"/>
<path class="st1" d="M127.1,41.1c-0.2,0-0.4-0.1-0.5-0.2c-0.2-0.1-0.3-0.2-0.3-0.4c-0.1-0.1-0.1-0.2-0.1-0.4c0-0.1,0-0.3,0.1-0.4
	c0-0.1,0.1-0.2,0.2-0.3s0.2-0.2,0.3-0.2l3.9-1.8L125.9,26l-2.8,0.4c-1.2,0.2-2.5,0.1-3.6-0.4l-7.4-2.7c-0.6-0.2-1.2-0.2-1.7,0
	l-2.8,1.1c-0.2,0.1-0.5,0-0.7-0.1s-0.4-0.3-0.5-0.5s-0.1-0.5,0-0.7s0.2-0.4,0.5-0.5l2.8-1.1c1-0.4,2.1-0.4,3.1,0l7.4,2.7
	c0.9,0.3,1.8,0.4,2.7,0.3l3.5-0.5c0.2,0,0.4,0,0.6,0.1s0.3,0.3,0.4,0.5l5.2,13c0.1,0.2,0.1,0.5,0,0.7s-0.3,0.4-0.5,0.5l-4.7,2.2
	C127.3,41.1,127.2,41.1,127.1,41.1z"/>
<path class="st1" d="M125.8,45.2c-0.4,0-0.8-0.1-1.2-0.3c-0.4-0.2-0.7-0.5-0.9-0.8l-1.7-2.4c-0.4-0.6-0.6-1.3-0.4-2
	c0.1-0.7,0.5-1.3,1.1-1.7l0.6-0.4c0.6-0.4,1.3-0.6,2-0.4c0.7,0.1,1.3,0.5,1.7,1.1l1.7,2.5c0.4,0.6,0.6,1.3,0.4,2
	c-0.1,0.7-0.5,1.3-1.1,1.7l-0.6,0.4C126.9,45.1,126.3,45.2,125.8,45.2z M124.7,39c-0.1,0-0.3,0-0.4,0.1l-0.6,0.4
	c-0.2,0.1-0.3,0.3-0.3,0.5s0,0.4,0.1,0.5l1.7,2.5c0.1,0.2,0.3,0.3,0.5,0.3s0.4,0,0.5-0.1l0.6-0.4c0.2-0.1,0.3-0.3,0.3-0.5
	s0-0.4-0.1-0.5l-1.7-2.4c-0.1-0.1-0.2-0.2-0.3-0.3C124.9,39,124.8,39,124.7,39z"/>
<path class="st1" d="M123,48.6c-0.2,0-0.3,0-0.5,0c-0.4-0.1-0.7-0.2-1-0.4s-0.6-0.4-0.8-0.7l-4.4-6.2c-0.4-0.6-0.6-1.3-0.5-2
	s0.5-1.3,1.1-1.7l0.6-0.5c0.6-0.4,1.3-0.6,2-0.5s1.3,0.5,1.7,1.1l4.4,6.2c0.2,0.3,0.4,0.6,0.4,1c0.1,0.3,0.1,0.7,0,1.1
	c-0.1,0.4-0.2,0.7-0.4,1c-0.2,0.3-0.4,0.6-0.7,0.8l-0.6,0.4C124.1,48.4,123.6,48.6,123,48.6z M119.3,38.5c-0.2,0-0.3,0.1-0.4,0.1
	l-0.6,0.4c-0.2,0.1-0.3,0.3-0.3,0.5c0,0.1,0,0.2,0,0.3s0.1,0.2,0.1,0.3l4.4,6.2c0.1,0.1,0.1,0.2,0.2,0.2c0.1,0.1,0.2,0.1,0.3,0.1
	c0.2,0,0.4,0,0.6-0.1l0.6-0.5c0.2-0.1,0.3-0.3,0.3-0.5c0-0.1,0-0.2,0-0.3s-0.1-0.2-0.1-0.3l-4.4-6.2c-0.1-0.1-0.2-0.2-0.3-0.2
	C119.5,38.5,119.4,38.5,119.3,38.5z"/>
<path class="st1" d="M118.6,49.8c-0.2,0-0.3,0-0.5,0c-0.4-0.1-0.7-0.2-1-0.4s-0.6-0.4-0.8-0.7l-3.2-4.6c-0.4-0.6-0.6-1.3-0.5-2
	s0.5-1.3,1.1-1.8l0.6-0.4c0.3-0.2,0.6-0.4,1-0.4c0.3-0.1,0.7-0.1,1.1,0c0.3,0.1,0.7,0.2,1,0.4s0.6,0.4,0.8,0.7l3.2,4.6
	c0.2,0.3,0.4,0.6,0.4,1c0.1,0.3,0.1,0.7,0,1.1c-0.1,0.3-0.2,0.7-0.4,1s-0.4,0.6-0.7,0.8l-0.6,0.5C119.7,49.6,119.2,49.8,118.6,49.8z
	 M116,41.2c-0.2,0-0.3,0-0.5,0.1l-0.6,0.5c-0.1,0.1-0.2,0.1-0.2,0.2c-0.1,0.1-0.1,0.2-0.1,0.3s0,0.2,0,0.3s0.1,0.2,0.1,0.3l3.2,4.6
	c0.1,0.2,0.3,0.3,0.5,0.3s0.4,0,0.6-0.1l0.6-0.5c0.1-0.1,0.2-0.1,0.2-0.2c0.1-0.1,0.1-0.2,0.1-0.3c0-0.2,0-0.4-0.1-0.5l-3.2-4.6
	c-0.1-0.1-0.1-0.2-0.2-0.2C116.3,41.3,116.2,41.3,116,41.2L116,41.2z"/>
<path class="st1" d="M114.8,51.9c-0.4,0-0.9-0.1-1.3-0.3s-0.7-0.5-1-0.8l-2.6-3.8c-0.4-0.6-0.6-1.3-0.5-2.1c0.1-0.7,0.5-1.4,1.1-1.8
	l0.7-0.5c0.3-0.2,0.6-0.4,1-0.4c0.4-0.1,0.7-0.1,1.1,0s0.7,0.2,1,0.4s0.6,0.4,0.8,0.8l2.7,3.8c0.4,0.6,0.6,1.3,0.5,2.1
	c-0.1,0.7-0.5,1.4-1.1,1.8l-0.7,0.5C115.9,51.8,115.4,52,114.8,51.9z M112.8,44.1c-0.2,0-0.3,0.1-0.5,0.2l-0.7,0.5
	c-0.1,0.1-0.2,0.1-0.2,0.2c-0.1,0.1-0.1,0.2-0.1,0.3s0,0.2,0,0.3s0.1,0.2,0.1,0.3l2.7,3.8c0.1,0.2,0.3,0.3,0.5,0.3s0.4,0,0.6-0.1
	l0.7-0.5c0.1-0.1,0.2-0.1,0.2-0.2s0.1-0.2,0.1-0.3s0-0.2,0-0.3s-0.1-0.2-0.1-0.3l-2.7-3.8C113.3,44.3,113.1,44.2,112.8,44.1
	L112.8,44.1z"/>
<path class="st1" d="M105.8,50.6c-0.5,0-1.1-0.2-1.5-0.5s-0.7-0.8-0.8-1.3c-0.1-0.5-0.1-1.1,0.1-1.6s0.6-0.9,1.1-1.2l2.7-1.5
	c0.2-0.1,0.5-0.1,0.7,0s0.4,0.2,0.5,0.5s0.1,0.5,0.1,0.7c-0.1,0.2-0.2,0.4-0.4,0.6l-2.7,1.4c-0.1,0-0.1,0.1-0.2,0.1
	c0,0.1-0.1,0.1-0.1,0.2c0,0.1,0,0.1,0,0.2c0,0.1,0,0.1,0.1,0.2c0.1,0.1,0.2,0.2,0.3,0.2c0.1,0,0.2,0,0.3,0l4.9-2.2
	c0.2-0.1,0.5-0.1,0.7,0s0.4,0.3,0.5,0.5c0.1,0.1,0.1,0.2,0.1,0.4c0,0.1,0,0.3-0.1,0.4c0,0.1-0.1,0.2-0.2,0.3s-0.2,0.2-0.3,0.2
	l-4.9,2.2C106.5,50.6,106.1,50.6,105.8,50.6z"/>
<path class="st1" d="M101.9,49.2c-0.6,0-1.2-0.2-1.7-0.6c-0.5-0.4-0.9-0.9-1-1.5c-0.2-0.6-0.1-1.2,0.1-1.8s0.7-1.1,1.2-1.4l7.8-4.6
	c0.2-0.1,0.5-0.2,0.7-0.1c0.2,0.1,0.5,0.2,0.6,0.4s0.2,0.5,0.1,0.7s-0.2,0.5-0.4,0.6l-7.8,4.6c-0.1,0.1-0.2,0.1-0.3,0.2
	c-0.1,0.1-0.1,0.2-0.2,0.3c0,0.1,0,0.3,0,0.4c0,0.1,0.1,0.2,0.2,0.3c0.1,0.2,0.3,0.3,0.5,0.4c0.2,0.1,0.4,0,0.6-0.1l2.7-1.3
	c0.1-0.1,0.2-0.1,0.4-0.1c0.1,0,0.3,0,0.4,0s0.3,0.1,0.4,0.2c0.1,0.1,0.2,0.2,0.2,0.3c0.1,0.1,0.1,0.3,0.1,0.4c0,0.1,0,0.3-0.1,0.4
	c-0.1,0.1-0.1,0.2-0.2,0.3s-0.2,0.2-0.3,0.2l-2.7,1.3C102.8,49.1,102.4,49.2,101.9,49.2z"/>
<path class="st1" d="M99.2,46.5c-0.3,0-0.5,0-0.8-0.1c-0.4-0.1-0.7-0.3-1-0.5s-0.6-0.6-0.8-0.9c-0.4-0.7-0.5-1.5-0.3-2.2
	s0.7-1.4,1.3-1.8l7.7-4.7c0.2-0.1,0.5-0.2,0.7-0.1c0.2,0.1,0.5,0.2,0.6,0.4c0.1,0.1,0.1,0.2,0.1,0.4c0,0.1,0,0.3,0,0.4
	c0,0.1-0.1,0.2-0.2,0.3s-0.2,0.2-0.3,0.3l-7.7,4.7c-0.2,0.1-0.4,0.4-0.5,0.6c-0.1,0.3,0,0.5,0.1,0.8c0.1,0.2,0.4,0.4,0.6,0.5
	c0.1,0,0.3,0.1,0.4,0c0.1,0,0.3-0.1,0.4-0.1l6.1-3.6c0.1-0.1,0.2-0.1,0.4-0.1s0.3,0,0.4,0s0.2,0.1,0.3,0.2s0.2,0.2,0.2,0.3
	c0.1,0.2,0.2,0.5,0.1,0.7s-0.2,0.5-0.4,0.6l-5.9,3.4C100.2,46.3,99.7,46.5,99.2,46.5z"/>
<path class="st1" d="M96.1,43.6c-0.7,0-1.5-0.2-2.1-0.7c-0.6-0.4-1-1.1-1.3-1.8c-0.2-0.7-0.2-1.5,0.1-2.2c0.2-0.7,0.7-1.3,1.3-1.7
	l5.4-3.6c0.2-0.1,0.5-0.2,0.7-0.1c0.2,0,0.5,0.2,0.6,0.4c0.1,0.2,0.2,0.5,0.1,0.7c-0.1,0.3-0.2,0.5-0.4,0.6l-5.4,3.6
	c-0.3,0.2-0.5,0.4-0.6,0.7s-0.2,0.6-0.1,0.9c0.1,0.3,0.2,0.6,0.4,0.8c0.2,0.2,0.5,0.4,0.8,0.4c0.2,0.1,0.4,0.1,0.6,0
	c0.2,0,0.4-0.1,0.6-0.2l3-1.9c0.2-0.1,0.5-0.2,0.7-0.1c0.2,0.1,0.5,0.2,0.6,0.4c0.1,0.1,0.1,0.2,0.1,0.4c0,0.1,0,0.3,0,0.4
	c0,0.1-0.1,0.2-0.2,0.3s-0.2,0.2-0.3,0.3l-3,1.9C97.4,43.4,96.7,43.6,96.1,43.6z"/>
<path class="st1" d="M132.6,40.9c-0.2,0-0.4-0.1-0.5-0.2c-0.2-0.1-0.3-0.3-0.4-0.4l-0.9-2l-5.2-13l-0.8-2.1c0-0.1-0.1-0.2-0.1-0.4
	c0-0.1,0-0.2,0.1-0.4c0.1-0.1,0.1-0.2,0.2-0.3c0.1-0.1,0.2-0.2,0.3-0.2l7.9-3.1c0.1,0,0.2-0.1,0.4-0.1c0.1,0,0.3,0,0.4,0.1
	c0.1,0.1,0.2,0.1,0.3,0.2c0.1,0.1,0.2,0.2,0.2,0.3l6.6,17.2c0.1,0.2,0.1,0.5,0,0.7s-0.3,0.4-0.5,0.5l-7.6,2.9
	C132.8,40.9,132.7,40.9,132.6,40.9z M127.4,24.6l5.7,14.1l5.9-2.3L133.1,21l-6.1,2.3L127.4,24.6z"/>
<circle class="st0" cx="212.7" cy="34.4" r="14"/>
<path class="st1" d="M215,30.9v-3.2v-0.1c-0.2-2-0.9-3.9-1.9-5.6s-2.3-3.2-3.9-4.4c-3.6-2.7-8.1-4.2-12.7-4.1c-4.9,0-9,1.3-12.3,4
	c-3.1,2.6-5.3,6.1-6.1,10.1c0,0.1,0,0.1,0,0.2V31c-3.3,0.3-5.8,2.5-5.8,5.1v2.8c0,2.7,2.6,4.9,5.9,5.1c0.3,1.9,1.3,3.7,2.8,4.9v4.8
	c0,0.2,0.1,0.4,0.3,0.6c0.2,0.2,0.4,0.2,0.6,0.2c0.2,0,0.5-0.1,0.6-0.2c0.2-0.2,0.3-0.4,0.3-0.6V50c0.8,0.3,1.7,0.5,2.7,0.5h1.3
	c1,1.3,2.3,2.4,3.7,3.3c1.9,1.1,4,1.7,6.2,1.7s4.3-0.5,6.2-1.6c2.1-1.2,3.8-2.9,4.9-5c1.2-2.1,1.8-4.4,1.8-6.8v-7.4c0,0,0,0,0-0.1
	l0,0c0,0,0,0,0-0.1l0,0l0,0l0,0l0,0l0,0v-0.1l0,0l0,0l0,0l-0.2-0.1l0,0l0,0l0,0l0,0l0,0l0,0l0,0l0,0H209h-0.1
	c-1.3-0.3-2.5-0.8-3.6-1.4c-3.6-1.6-7.9-4-8-4c-0.2-0.1-0.3-0.1-0.5-0.1s-0.4,0.1-0.5,0.2c-2.3,1.7-4.9,3.1-7.7,4
	c-1.1,0.4-2.3,0.7-3.5,0.9c-0.2,0-0.3,0.1-0.5,0.2c-0.2,0-0.4,0.2-0.5,0.3c-0.1,0.2-0.2,0.4-0.2,0.6v7.4c0,2.3,0.6,4.6,1.7,6.6h-0.1
	c-0.9,0-1.8-0.2-2.7-0.7V32.1c0-6.9,6.2-12.6,13.9-12.6s13.9,5.6,13.9,12.6v21.7c0,0.2,0.1,0.5,0.3,0.7s0.4,0.3,0.7,0.3
	c0.2,0,0.5-0.1,0.7-0.3s0.3-0.4,0.3-0.7V32.1c0-7.9-7-14.4-15.7-14.4s-15.7,6.5-15.7,14.4v14.1c-0.7-0.9-1-2-1-3.2
	c0-0.1,0-0.3-0.1-0.4v-9.9c0-0.1,0-0.1,0-0.2v-4.7c0.8-3.5,2.8-6.7,5.5-9c2.9-2.4,6.7-3.6,11.1-3.6c4.2-0.1,8.2,1.2,11.5,3.7
	c1.4,1,2.5,2.4,3.4,3.9s1.4,3.2,1.6,4.9v4.6v0.1V43c0,0.2,0.1,0.5,0.3,0.6s0.4,0.3,0.6,0.3h0.1c3.6,0,6.5-2.3,6.5-5.1V36
	C220.7,33.4,218.2,31.2,215,30.9z M185.8,41.9v-6.7c1-0.2,2-0.5,3-0.8c1.6-0.5,3.1-1.1,4.5-1.9c1.2-0.6,2.4-1.4,3.5-2.2
	c0.8,0.4,2.3,1.3,4,2.2c1.5,0.7,3.1,1.5,4.6,2.1c0.7,0.3,1.5,0.5,2.2,0.8v6.7c0,6.4-4.9,11.5-11,11.5c-2.8,0-5.5-1.1-7.5-3.1h1.4
	c0.2,0.4,0.5,0.7,0.8,0.9c0.4,0.2,0.8,0.3,1.2,0.3h2.6c0.6-0.1,1.1-0.4,1.4-0.8s0.6-1,0.6-1.5s-0.2-1.1-0.6-1.5
	c-0.4-0.4-0.9-0.7-1.4-0.8h-2.6c-0.5,0-0.9,0.2-1.3,0.4c-0.4,0.3-0.7,0.7-0.8,1.1h-2.8C186.5,46.5,185.8,44.2,185.8,41.9L185.8,41.9
	z M218.9,38.8c0,1.6-1.7,3-3.9,3.2v-9.3c2.2,0.3,3.9,1.6,3.9,3.2V38.8z M174.2,36c0-1.6,1.7-3,3.9-3.2v9.3c-2.2-0.3-3.9-1.6-3.9-3.2
	V36z"/>
<circle class="st0" cx="45.2" cy="33.9" r="14"/>
<path class="st1" d="M15.3,13.2H11c-0.8,0-1.5,0.3-2,0.8s-0.8,1.2-0.8,2v41.1c0,0.7,0.3,1.5,0.8,2s1.3,0.8,2,0.8h33.3
	c0.8,0,1.5-0.3,2-0.8s0.8-1.2,0.8-2V16c0-0.7-0.3-1.5-0.8-2s-1.3-0.8-2-0.8h-4.2c0-0.7-0.3-1.4-0.8-1.9s-1.2-0.8-2-0.8h-2.7
	c-0.2-1-0.7-1.9-1.5-2.5s-1.8-1-2.8-1h-4.6c-1,0-2,0.4-2.8,1s-1.3,1.5-1.5,2.5H18c-0.7,0-1.4,0.3-2,0.8
	C15.6,11.8,15.3,12.5,15.3,13.2z M40,17.5h2v36.3H13.3V17.5h2.1c0.2,0.6,0.5,1.1,1,1.5s1.1,0.6,1.7,0.6h19.3c0.6,0,1.2-0.2,1.7-0.6
	C39.5,18.6,39.8,18.1,40,17.5z M45.1,16v41.1c0,0.1,0,0.2-0.1,0.3c0,0.1-0.1,0.2-0.2,0.3s-0.2,0.1-0.3,0.2c-0.1,0-0.2,0.1-0.3,0.1
	H11c-0.2,0-0.4-0.1-0.6-0.2c-0.2-0.1-0.2-0.4-0.2-0.6V16c0-0.2,0.1-0.4,0.2-0.6s0.4-0.2,0.6-0.2h4.2v0.3h-3c-0.3,0-0.5,0.1-0.7,0.3
	s-0.3,0.4-0.3,0.7v38.3c0,0.3,0.1,0.5,0.3,0.7s0.4,0.3,0.7,0.3H43c0.3,0,0.5-0.1,0.7-0.3s0.3-0.4,0.3-0.7V16.5
	c0-0.3-0.1-0.5-0.3-0.7s-0.5-0.3-0.7-0.3h-2.9v-0.3h4.2c0.2,0,0.4,0.1,0.6,0.2C45,15.6,45.1,15.8,45.1,16z M17.3,13.4
	c0-0.2,0-0.4,0.2-0.6c0.1-0.2,0.3-0.3,0.6-0.3h4.3c0.3,0,0.5-0.1,0.7-0.3s0.3-0.4,0.3-0.7v-0.3c0-0.6,0.2-1.2,0.7-1.6
	c0.4-0.4,1-0.7,1.6-0.7h4.6c0.6,0,1.2,0.2,1.6,0.7c0.4,0.4,0.7,1,0.7,1.6v0.3c0,0.1,0,0.3,0.1,0.4c0.1,0.1,0.1,0.2,0.2,0.3
	c0.1,0.1,0.2,0.2,0.3,0.2c0.1,0.1,0.3,0.1,0.4,0.1h3.7c0.2,0,0.4,0.1,0.6,0.3c0.1,0.2,0.2,0.4,0.2,0.6v0.8v2.4c0,0.1,0,0.2,0,0.3
	c0,0.1-0.1,0.2-0.2,0.3c-0.1,0.1-0.2,0.2-0.3,0.2c-0.1,0.1-0.2,0.1-0.3,0.1H18c-0.2,0-0.4-0.1-0.6-0.3c-0.1-0.2-0.2-0.4-0.2-0.6
	v-3.2H17.3z"/>
<path class="st1" d="M27.5,15c0.6,0,1.2-0.2,1.7-0.5s0.9-0.8,1.1-1.3s0.3-1.1,0.2-1.7c-0.1-0.6-0.4-1.1-0.8-1.5s-0.9-0.7-1.5-0.8
	c-0.6-0.1-1.2-0.1-1.7,0.2s-1,0.6-1.3,1.1s-0.5,1-0.5,1.6c0,0.8,0.3,1.5,0.9,2.1C25.9,14.6,26.7,15,27.5,15z M27.5,11.1
	c0.2,0,0.4,0.1,0.5,0.2c0.2,0.1,0.3,0.2,0.3,0.4c0.1,0.2,0.1,0.4,0.1,0.5c0,0.2-0.1,0.3-0.3,0.5c-0.1,0.1-0.3,0.2-0.5,0.3
	c-0.2,0-0.4,0-0.5-0.1c-0.2-0.1-0.3-0.2-0.4-0.3c-0.1-0.2-0.2-0.3-0.2-0.5s0.1-0.5,0.3-0.7S27.2,11.1,27.5,11.1z"/>
<path class="st1" d="M14.9,25c0,0.3,0.1,0.5,0.3,0.7s0.5,0.3,0.7,0.3h23c0.3,0,0.5-0.1,0.7-0.3c0.2-0.2,0.3-0.4,0.3-0.7
	s-0.1-0.5-0.3-0.7S39.1,24,38.9,24h-23c-0.3,0-0.5,0.1-0.7,0.3C15,24.5,14.9,24.8,14.9,25z"/>
<path class="st1" d="M29.7,31H15.9c-0.3,0-0.5,0.1-0.7,0.3c-0.2,0.2-0.3,0.4-0.3,0.7c0,0.3,0.1,0.5,0.3,0.7s0.5,0.3,0.7,0.3h13.8
	c0.3,0,0.5-0.1,0.7-0.3s0.3-0.4,0.3-0.7c0-0.3-0.1-0.5-0.3-0.7C30.3,31.1,30,31,29.7,31z"/>
<path class="st1" d="M29.7,38.6H15.9c-0.3,0-0.5,0.1-0.7,0.3s-0.3,0.4-0.3,0.7s0.1,0.5,0.3,0.7s0.4,0.3,0.7,0.3h13.8
	c0.1,0,0.3,0,0.4-0.1c0.1,0,0.3-0.1,0.4-0.2s0.2-0.2,0.2-0.3c0.1-0.1,0.1-0.3,0.1-0.4c0-0.1,0-0.3-0.1-0.4c-0.1-0.1-0.1-0.2-0.2-0.3
	s-0.2-0.2-0.4-0.2C30,38.6,29.9,38.6,29.7,38.6z"/>
<path class="st1" d="M29.7,46.2H15.9c-0.3,0-0.5,0.1-0.7,0.3s-0.3,0.4-0.3,0.7s0.1,0.5,0.3,0.7s0.5,0.3,0.7,0.3h13.8
	c0.3,0,0.5-0.1,0.7-0.3s0.3-0.4,0.3-0.7s-0.1-0.5-0.3-0.7C30.3,46.4,30,46.2,29.7,46.2z"/>
<path class="st1" d="M37.3,28.7l-2.6,2.7l-0.7-1c-0.1-0.1-0.2-0.2-0.3-0.3C33.6,30,33.5,30,33.3,30c-0.3,0-0.5,0-0.8,0.2
	c-0.2,0.2-0.4,0.4-0.4,0.7c0,0.3,0,0.5,0.2,0.8l1.4,1.9c0.1,0.1,0.2,0.2,0.3,0.3s0.3,0.1,0.4,0.1h0.1c0.3,0,0.5-0.1,0.7-0.3l3.4-3.5
	c0.2-0.2,0.2-0.4,0.2-0.7c0-0.3-0.1-0.5-0.3-0.7s-0.4-0.3-0.7-0.3C37.8,28.4,37.5,28.5,37.3,28.7L37.3,28.7z"/>
<path class="st1" d="M37.3,36.7l-2.6,2.7l-0.7-1c-0.2-0.2-0.4-0.4-0.7-0.4s-0.5,0-0.8,0.2c-0.2,0.2-0.4,0.4-0.4,0.7s0,0.5,0.2,0.8
	l1.4,1.9c0.1,0.1,0.2,0.2,0.3,0.3s0.3,0.1,0.4,0.1h0.1c0.1,0,0.3,0,0.4-0.1c0.1-0.1,0.2-0.1,0.3-0.2l3.4-3.5
	c0.2-0.2,0.3-0.5,0.3-0.7c0-0.3-0.1-0.5-0.3-0.7c-0.1-0.1-0.2-0.2-0.3-0.2s-0.3-0.1-0.4-0.1C37.8,36.4,37.5,36.5,37.3,36.7
	L37.3,36.7z"/>
<path class="st1" d="M37.3,44.7l-2.6,2.7l-0.7-1c-0.1-0.1-0.2-0.2-0.3-0.3C33.6,46,33.5,46,33.4,46s-0.3,0-0.4,0
	c-0.1,0-0.3,0.1-0.4,0.2c-0.1,0.1-0.2,0.2-0.3,0.3c-0.1,0.1-0.1,0.2-0.1,0.4c0,0.1,0,0.3,0,0.4s0.1,0.3,0.2,0.4l1.4,1.9
	c0.1,0.1,0.2,0.2,0.3,0.3s0.3,0.1,0.4,0.1h0.1c0.1,0,0.3,0,0.4-0.1s0.2-0.1,0.3-0.2l3.4-3.5c0.2-0.2,0.3-0.5,0.3-0.7
	c0-0.3-0.1-0.5-0.3-0.7c-0.1-0.1-0.2-0.2-0.3-0.2s-0.3-0.1-0.4-0.1C37.8,44.3,37.5,44.5,37.3,44.7L37.3,44.7z"/>
<circle class="st0" cx="132.1" cy="107.4" r="14"/>
<g>
	<path class="st2" d="M87.9,108.2c-0.1,0-0.2,0-0.2,0l-7.7-2.1c-0.2-0.1-0.4-0.2-0.6-0.4c-0.1-0.2-0.2-0.5-0.1-0.7l4.8-17.8
		c0.1-0.2,0.2-0.4,0.4-0.6s0.5-0.2,0.7-0.1l7.7,2.1c0.2,0.1,0.5,0.2,0.6,0.4c0.1,0.1,0.1,0.2,0.1,0.4c0,0.1,0,0.3,0,0.4l-4.8,17.8
		c-0.1,0.2-0.2,0.4-0.3,0.5S88.1,108.2,87.9,108.2z M81.4,104.5l5.9,1.6l4.3-15.9l-5.9-1.6L81.4,104.5z"/>
	<path class="st2" d="M91.4,107.1c-0.6,0-1.3-0.1-1.9-0.3l-1.4-0.5c-0.2-0.1-0.4-0.2-0.5-0.4c-0.1-0.2-0.2-0.5-0.1-0.7l3.8-14
		c0.1-0.2,0.2-0.4,0.4-0.6s0.5-0.2,0.7-0.1l2.1,0.6c1.1,0.3,2.4,0.3,3.5,0l5.1-1.6c1.1-0.3,2.2-0.4,3.3-0.1c1.1,0.2,2.1,0.8,2.9,1.5
		l6.5,6c0.4,0.4,0.7,0.8,0.9,1.4s0.2,1.1,0.1,1.6s-0.4,1-0.8,1.4s-0.9,0.7-1.4,0.8c-0.4,0.1-0.9,0.2-1.3,0.1s-0.9-0.2-1.2-0.5
		l-3.8-2.4c-0.5-0.3-1.1-0.5-1.7-0.5s-1.2,0.2-1.7,0.5l-10,6.6C93.8,106.7,92.6,107.1,91.4,107.1z M89.5,104.9l0.5,0.2
		c0.6,0.2,1.3,0.2,1.9,0.2c0.6-0.1,1.2-0.3,1.8-0.7l10-6.6c0.8-0.5,1.8-0.8,2.7-0.8c1,0,1.9,0.3,2.7,0.8l3.8,2.4
		c0.1,0.1,0.3,0.2,0.5,0.2s0.3,0,0.5,0s0.3-0.1,0.4-0.2s0.2-0.3,0.3-0.4c0.1-0.2,0.1-0.5,0.1-0.8c-0.1-0.3-0.2-0.5-0.4-0.7l-6.5-6.1
		c-0.6-0.5-1.3-0.9-2-1.1c-0.8-0.2-1.5-0.1-2.3,0.1l-5,1.5c-1.5,0.4-3.1,0.4-4.5,0l-1.1-0.3L89.5,104.9z"/>
	<path class="st2" d="M127.1,108.1c-0.2,0-0.4-0.1-0.5-0.2c-0.2-0.1-0.3-0.2-0.3-0.4c-0.1-0.1-0.1-0.2-0.1-0.4c0-0.1,0-0.3,0.1-0.4
		c0-0.1,0.1-0.2,0.2-0.3c0.1-0.1,0.2-0.2,0.3-0.2l3.9-1.8L125.9,93l-2.8,0.4c-1.2,0.2-2.5,0.1-3.6-0.4l-7.4-2.7
		c-0.6-0.2-1.2-0.2-1.7,0l-2.8,1.1c-0.2,0.1-0.5,0-0.7-0.1s-0.4-0.3-0.5-0.5s-0.1-0.5,0-0.7s0.2-0.4,0.5-0.5l2.8-1.1
		c1-0.4,2.1-0.4,3.1,0l7.4,2.7c0.9,0.3,1.8,0.4,2.7,0.3l3.5-0.5c0.2,0,0.4,0,0.6,0.1s0.3,0.3,0.4,0.5l5.2,13c0.1,0.2,0.1,0.5,0,0.7
		s-0.3,0.4-0.5,0.5l-4.7,2.2C127.3,108.1,127.2,108.1,127.1,108.1z"/>
	<path class="st2" d="M125.8,112.2c-0.4,0-0.8-0.1-1.2-0.3c-0.4-0.2-0.7-0.5-0.9-0.8l-1.7-2.4c-0.4-0.6-0.6-1.3-0.4-2
		c0.1-0.7,0.5-1.3,1.1-1.7l0.6-0.4c0.6-0.4,1.3-0.6,2-0.4c0.7,0.1,1.3,0.5,1.7,1.1l1.7,2.5c0.4,0.6,0.6,1.3,0.4,2
		c-0.1,0.7-0.5,1.3-1.1,1.7l-0.6,0.4C126.9,112.1,126.3,112.2,125.8,112.2z M124.7,106c-0.1,0-0.3,0-0.4,0.1l-0.6,0.4
		c-0.2,0.1-0.3,0.3-0.3,0.5s0,0.4,0.1,0.5l1.7,2.5c0.1,0.2,0.3,0.3,0.5,0.3s0.4,0,0.5-0.1l0.6-0.4c0.2-0.1,0.3-0.3,0.3-0.5
		s0-0.4-0.1-0.5l-1.7-2.4c-0.1-0.1-0.2-0.2-0.3-0.3C124.9,106,124.8,106,124.7,106z"/>
	<path class="st2" d="M123,115.6c-0.2,0-0.3,0-0.5,0c-0.4-0.1-0.7-0.2-1-0.4c-0.3-0.2-0.6-0.4-0.8-0.7l-4.4-6.2
		c-0.4-0.6-0.6-1.3-0.5-2s0.5-1.3,1.1-1.7l0.6-0.5c0.6-0.4,1.3-0.6,2-0.5s1.3,0.5,1.7,1.1l4.4,6.2c0.2,0.3,0.4,0.6,0.4,1
		c0.1,0.3,0.1,0.7,0,1.1s-0.2,0.7-0.4,1c-0.2,0.3-0.4,0.6-0.7,0.8l-0.6,0.4C124.1,115.4,123.6,115.6,123,115.6z M119.3,105.5
		c-0.2,0-0.3,0.1-0.4,0.1l-0.6,0.4c-0.2,0.1-0.3,0.3-0.3,0.5c0,0.1,0,0.2,0,0.3c0,0.1,0.1,0.2,0.1,0.3l4.4,6.2
		c0.1,0.1,0.1,0.2,0.2,0.2c0.1,0.1,0.2,0.1,0.3,0.1c0.2,0,0.4,0,0.6-0.1l0.6-0.5c0.2-0.1,0.3-0.3,0.3-0.5c0-0.1,0-0.2,0-0.3
		c0-0.1-0.1-0.2-0.1-0.3l-4.4-6.2c-0.1-0.1-0.2-0.2-0.3-0.2C119.5,105.5,119.4,105.5,119.3,105.5z"/>
	<path class="st2" d="M118.6,116.8c-0.2,0-0.3,0-0.5,0c-0.4-0.1-0.7-0.2-1-0.4c-0.3-0.2-0.6-0.4-0.8-0.7l-3.2-4.6
		c-0.4-0.6-0.6-1.3-0.5-2s0.5-1.3,1.1-1.8l0.6-0.4c0.3-0.2,0.6-0.4,1-0.4c0.3-0.1,0.7-0.1,1.1,0c0.3,0.1,0.7,0.2,1,0.4
		c0.3,0.2,0.6,0.4,0.8,0.7l3.2,4.6c0.2,0.3,0.4,0.6,0.4,1c0.1,0.3,0.1,0.7,0,1.1c-0.1,0.3-0.2,0.7-0.4,1s-0.4,0.6-0.7,0.8l-0.6,0.5
		C119.7,116.6,119.2,116.8,118.6,116.8z M116,108.2c-0.2,0-0.3,0-0.5,0.1l-0.6,0.5c-0.1,0.1-0.2,0.1-0.2,0.2
		c-0.1,0.1-0.1,0.2-0.1,0.3c0,0.1,0,0.2,0,0.3c0,0.1,0.1,0.2,0.1,0.3l3.2,4.6c0.1,0.2,0.3,0.3,0.5,0.3s0.4,0,0.6-0.1l0.6-0.5
		c0.1-0.1,0.2-0.1,0.2-0.2c0.1-0.1,0.1-0.2,0.1-0.3c0-0.2,0-0.4-0.1-0.5l-3.2-4.6c-0.1-0.1-0.1-0.2-0.2-0.2
		c-0.1-0.1-0.2-0.1-0.3-0.1L116,108.2z"/>
	<path class="st2" d="M114.8,118.9c-0.4,0-0.9-0.1-1.3-0.3c-0.4-0.2-0.7-0.5-1-0.8l-2.6-3.8c-0.4-0.6-0.6-1.3-0.5-2.1
		c0.1-0.7,0.5-1.4,1.1-1.8l0.7-0.5c0.3-0.2,0.6-0.4,1-0.4c0.4-0.1,0.7-0.1,1.1,0s0.7,0.2,1,0.4c0.3,0.2,0.6,0.4,0.8,0.8l2.7,3.8
		c0.4,0.6,0.6,1.3,0.5,2.1c-0.1,0.7-0.5,1.4-1.1,1.8l-0.7,0.5C115.9,118.8,115.4,119,114.8,118.9z M112.8,111.1
		c-0.2,0-0.3,0.1-0.5,0.2l-0.7,0.5c-0.1,0.1-0.2,0.1-0.2,0.2c-0.1,0.1-0.1,0.2-0.1,0.3c0,0.1,0,0.2,0,0.3s0.1,0.2,0.1,0.3l2.7,3.8
		c0.1,0.2,0.3,0.3,0.5,0.3s0.4,0,0.6-0.1l0.7-0.5c0.1-0.1,0.2-0.1,0.2-0.2s0.1-0.2,0.1-0.3c0-0.1,0-0.2,0-0.3c0-0.1-0.1-0.2-0.1-0.3
		l-2.7-3.8C113.3,111.3,113.1,111.2,112.8,111.1L112.8,111.1z"/>
	<path class="st2" d="M105.8,117.6c-0.5,0-1.1-0.2-1.5-0.5s-0.7-0.8-0.8-1.3c-0.1-0.5-0.1-1.1,0.1-1.6s0.6-0.9,1.1-1.2l2.7-1.5
		c0.2-0.1,0.5-0.1,0.7,0s0.4,0.2,0.5,0.5s0.1,0.5,0.1,0.7c-0.1,0.2-0.2,0.4-0.4,0.6l-2.7,1.4c-0.1,0-0.1,0.1-0.2,0.1
		c0,0.1-0.1,0.1-0.1,0.2s0,0.1,0,0.2s0,0.1,0.1,0.2s0.2,0.2,0.3,0.2c0.1,0,0.2,0,0.3,0l4.9-2.2c0.2-0.1,0.5-0.1,0.7,0
		s0.4,0.3,0.5,0.5c0.1,0.1,0.1,0.2,0.1,0.4c0,0.1,0,0.3-0.1,0.4c0,0.1-0.1,0.2-0.2,0.3c-0.1,0.1-0.2,0.2-0.3,0.2l-4.9,2.2
		C106.5,117.6,106.1,117.6,105.8,117.6z"/>
	<path class="st2" d="M101.9,116.2c-0.6,0-1.2-0.2-1.7-0.6s-0.9-0.9-1-1.5c-0.2-0.6-0.1-1.2,0.1-1.8c0.2-0.6,0.7-1.1,1.2-1.4
		l7.8-4.6c0.2-0.1,0.5-0.2,0.7-0.1s0.5,0.2,0.6,0.4c0.1,0.2,0.2,0.5,0.1,0.7s-0.2,0.5-0.4,0.6l-7.8,4.6c-0.1,0.1-0.2,0.1-0.3,0.2
		c-0.1,0.1-0.1,0.2-0.2,0.3c0,0.1,0,0.3,0,0.4s0.1,0.2,0.2,0.3c0.1,0.2,0.3,0.3,0.5,0.4s0.4,0,0.6-0.1l2.7-1.3
		c0.1-0.1,0.2-0.1,0.4-0.1c0.1,0,0.3,0,0.4,0s0.3,0.1,0.4,0.2s0.2,0.2,0.2,0.3c0.1,0.1,0.1,0.3,0.1,0.4s0,0.3-0.1,0.4
		s-0.1,0.2-0.2,0.3c-0.1,0.1-0.2,0.2-0.3,0.2l-2.7,1.3C102.8,116.1,102.4,116.2,101.9,116.2z"/>
	<path class="st2" d="M99.2,113.5c-0.3,0-0.5,0-0.8-0.1c-0.4-0.1-0.7-0.3-1-0.5s-0.6-0.6-0.8-0.9c-0.4-0.7-0.5-1.5-0.3-2.2
		s0.7-1.4,1.3-1.8l7.7-4.7c0.2-0.1,0.5-0.2,0.7-0.1s0.5,0.2,0.6,0.4c0.1,0.1,0.1,0.2,0.1,0.4c0,0.1,0,0.3,0,0.4s-0.1,0.2-0.2,0.3
		c-0.1,0.1-0.2,0.2-0.3,0.3l-7.7,4.7c-0.2,0.1-0.4,0.4-0.5,0.6c-0.1,0.3,0,0.5,0.1,0.8c0.1,0.2,0.4,0.4,0.6,0.5c0.1,0,0.3,0.1,0.4,0
		c0.1,0,0.3-0.1,0.4-0.1l6.1-3.6c0.1-0.1,0.2-0.1,0.4-0.1s0.3,0,0.4,0s0.2,0.1,0.3,0.2s0.2,0.2,0.2,0.3c0.1,0.2,0.2,0.5,0.1,0.7
		s-0.2,0.5-0.4,0.6l-6.1,3.6C100.2,113.3,99.7,113.5,99.2,113.5z"/>
	<path class="st2" d="M96.1,110.6c-0.7,0-1.5-0.2-2.1-0.7c-0.6-0.4-1-1.1-1.3-1.8c-0.2-0.7-0.2-1.5,0.1-2.2c0.2-0.7,0.7-1.3,1.3-1.7
		l5.4-3.6c0.2-0.1,0.5-0.2,0.7-0.1c0.2,0,0.5,0.2,0.6,0.4c0.1,0.2,0.2,0.5,0.1,0.7c-0.1,0.3-0.2,0.5-0.4,0.6l-5.4,3.6
		c-0.3,0.2-0.5,0.4-0.6,0.7c-0.1,0.3-0.2,0.6-0.1,0.9s0.2,0.6,0.4,0.8c0.2,0.2,0.5,0.4,0.8,0.4c0.2,0.1,0.4,0.1,0.6,0
		c0.2,0,0.4-0.1,0.6-0.2l3-1.9c0.2-0.1,0.5-0.2,0.7-0.1s0.5,0.2,0.6,0.4c0.1,0.1,0.1,0.2,0.1,0.4c0,0.1,0,0.3,0,0.4
		s-0.1,0.2-0.2,0.3c-0.1,0.1-0.2,0.2-0.3,0.3l-3,1.9C97.4,110.4,96.7,110.6,96.1,110.6z"/>
	<path class="st2" d="M132.6,107.9c-0.2,0-0.4-0.1-0.5-0.2c-0.2-0.1-0.3-0.3-0.4-0.4l-0.9-2l-5.2-13l-0.8-2.1c0-0.1-0.1-0.2-0.1-0.4
		c0-0.1,0-0.2,0.1-0.4c0.1-0.1,0.1-0.2,0.2-0.3c0.1-0.1,0.2-0.2,0.3-0.2l7.9-3.1c0.1,0,0.2-0.1,0.4-0.1c0.1,0,0.3,0,0.4,0.1
		c0.1,0.1,0.2,0.1,0.3,0.2s0.2,0.2,0.2,0.3l6.6,17.2c0.1,0.2,0.1,0.5,0,0.7s-0.3,0.4-0.5,0.5l-7.6,2.9
		C132.8,107.9,132.7,107.9,132.6,107.9z M127.4,91.6l5.7,14.1l5.9-2.3L133.1,88l-6.1,2.3L127.4,91.6z"/>
</g>
<circle class="st0" cx="212.7" cy="101.4" r="14"/>
<g>
	<path class="st2" d="M215,97.9v-3.2v-0.1c-0.2-2-0.9-3.9-1.9-5.6s-2.3-3.2-3.9-4.4c-3.6-2.7-8.1-4.2-12.7-4.1c-4.9,0-9,1.3-12.3,4
		c-3.1,2.6-5.3,6.1-6.1,10.1c0,0.1,0,0.1,0,0.2V98c-3.3,0.3-5.8,2.5-5.8,5.1v2.8c0,2.7,2.6,4.9,5.9,5.1c0.3,1.9,1.3,3.7,2.8,4.9v4.8
		c0,0.2,0.1,0.4,0.3,0.6s0.4,0.2,0.6,0.2c0.2,0,0.5-0.1,0.6-0.2c0.2-0.2,0.3-0.4,0.3-0.6V117c0.8,0.3,1.7,0.5,2.7,0.5h1.3
		c1,1.3,2.3,2.4,3.7,3.3c1.9,1.1,4,1.7,6.2,1.7s4.3-0.5,6.2-1.6c2.1-1.2,3.8-2.9,4.9-5c1.2-2.1,1.8-4.4,1.8-6.8v-7.4c0,0,0,0,0-0.1
		l0,0c0,0,0,0,0-0.1l0,0l0,0l0,0l0,0l0,0v-0.1l0,0l0,0l0,0l-0.2-0.1l0,0l0,0l0,0l0,0l0,0l0,0l0,0l0,0H209h-0.1
		c-1.3-0.3-2.5-0.8-3.6-1.4c-3.6-1.6-7.9-4-8-4c-0.2-0.1-0.3-0.1-0.5-0.1s-0.4,0.1-0.5,0.2c-2.3,1.7-4.9,3.1-7.7,4
		c-1.1,0.4-2.3,0.7-3.5,0.9c-0.2,0-0.3,0.1-0.5,0.2c-0.2,0-0.4,0.2-0.5,0.3c-0.1,0.2-0.2,0.4-0.2,0.6v7.4c0,2.3,0.6,4.6,1.7,6.6
		h-0.1c-0.9,0-1.8-0.2-2.7-0.7V99.1c0-6.9,6.2-12.6,13.9-12.6s13.9,5.6,13.9,12.6v21.7c0,0.2,0.1,0.5,0.3,0.7s0.4,0.3,0.7,0.3
		c0.2,0,0.5-0.1,0.7-0.3c0.2-0.2,0.3-0.4,0.3-0.7V99.1c0-7.9-7-14.4-15.7-14.4s-15.7,6.5-15.7,14.4v14.1c-0.7-0.9-1-2-1-3.2
		c0-0.1,0-0.3-0.1-0.4v-9.9c0-0.1,0-0.1,0-0.2v-4.7c0.8-3.5,2.8-6.7,5.5-9c2.9-2.4,6.7-3.6,11.1-3.6c4.2-0.1,8.2,1.2,11.5,3.7
		c1.4,1,2.5,2.4,3.4,3.9s1.4,3.2,1.6,4.9v4.6v0.1V110c0,0.2,0.1,0.5,0.3,0.6s0.4,0.3,0.6,0.3h0.1c3.6,0,6.5-2.3,6.5-5.1V103
		C220.7,100.4,218.2,98.2,215,97.9z M185.8,108.9v-6.7c1-0.2,2-0.5,3-0.8c1.6-0.5,3.1-1.1,4.5-1.9c1.2-0.6,2.4-1.4,3.5-2.2
		c0.8,0.4,2.3,1.3,4,2.2c1.5,0.7,3.1,1.5,4.6,2.1c0.7,0.3,1.5,0.5,2.2,0.8v6.7c0,6.4-4.9,11.5-11,11.5c-2.8,0-5.5-1.1-7.5-3.1h1.4
		c0.2,0.4,0.5,0.7,0.8,0.9c0.4,0.2,0.8,0.3,1.2,0.3h2.6c0.6-0.1,1.1-0.4,1.4-0.8s0.6-1,0.6-1.5s-0.2-1.1-0.6-1.5
		c-0.4-0.4-0.9-0.7-1.4-0.8h-2.6c-0.5,0-0.9,0.2-1.3,0.4c-0.4,0.3-0.7,0.7-0.8,1.1h-2.8C186.5,113.5,185.8,111.2,185.8,108.9
		L185.8,108.9z M218.9,105.8c0,1.6-1.7,3-3.9,3.2v-9.3c2.2,0.3,3.9,1.6,3.9,3.2V105.8z M174.2,103c0-1.6,1.7-3,3.9-3.2v9.3
		c-2.2-0.3-3.9-1.6-3.9-3.2V103z"/>
</g>
<circle class="st0" cx="45.2" cy="100.9" r="14"/>
<g>
	<path class="st2" d="M15.3,80.2H11c-0.8,0-1.5,0.3-2,0.8s-0.8,1.2-0.8,2v41.1c0,0.7,0.3,1.5,0.8,2s1.3,0.8,2,0.8h33.3
		c0.8,0,1.5-0.3,2-0.8s0.8-1.2,0.8-2V83c0-0.7-0.3-1.5-0.8-2s-1.3-0.8-2-0.8h-4.2c0-0.7-0.3-1.4-0.8-1.9s-1.2-0.8-2-0.8h-2.7
		c-0.2-1-0.7-1.9-1.5-2.5s-1.8-1-2.8-1h-4.6c-1,0-2,0.4-2.8,1s-1.3,1.5-1.5,2.5H18c-0.7,0-1.4,0.3-2,0.8
		C15.6,78.8,15.3,79.5,15.3,80.2z M40,84.5h2v36.3H13.3V84.5h2.1c0.2,0.6,0.5,1.1,1,1.5s1.1,0.6,1.7,0.6h19.3c0.6,0,1.2-0.2,1.7-0.6
		C39.5,85.6,39.8,85.1,40,84.5z M45.1,83v41.1c0,0.1,0,0.2-0.1,0.3c0,0.1-0.1,0.2-0.2,0.3s-0.2,0.1-0.3,0.2c-0.1,0-0.2,0.1-0.3,0.1
		H11c-0.2,0-0.4-0.1-0.6-0.2c-0.2-0.1-0.2-0.4-0.2-0.6V83c0-0.2,0.1-0.4,0.2-0.6c0.2-0.1,0.4-0.2,0.6-0.2h4.2v0.3h-3
		c-0.3,0-0.5,0.1-0.7,0.3c-0.2,0.2-0.3,0.4-0.3,0.7v38.3c0,0.3,0.1,0.5,0.3,0.7s0.4,0.3,0.7,0.3H43c0.3,0,0.5-0.1,0.7-0.3
		c0.2-0.2,0.3-0.4,0.3-0.7V83.5c0-0.3-0.1-0.5-0.3-0.7s-0.5-0.3-0.7-0.3h-2.9v-0.3h4.2c0.2,0,0.4,0.1,0.6,0.2
		C45,82.6,45.1,82.8,45.1,83z M17.3,80.4c0-0.2,0-0.4,0.2-0.6c0.1-0.2,0.3-0.3,0.6-0.3h4.3c0.3,0,0.5-0.1,0.7-0.3
		c0.2-0.2,0.3-0.4,0.3-0.7v-0.3c0-0.6,0.2-1.2,0.7-1.6c0.4-0.4,1-0.7,1.6-0.7h4.6c0.6,0,1.2,0.2,1.6,0.7c0.4,0.4,0.7,1,0.7,1.6v0.3
		c0,0.1,0,0.3,0.1,0.4s0.1,0.2,0.2,0.3c0.1,0.1,0.2,0.2,0.3,0.2c0.1,0.1,0.3,0.1,0.4,0.1h3.7c0.2,0,0.4,0.1,0.6,0.3
		c0.1,0.2,0.2,0.4,0.2,0.6v0.8v2.4c0,0.1,0,0.2,0,0.3s-0.1,0.2-0.2,0.3c-0.1,0.1-0.2,0.2-0.3,0.2c-0.1,0.1-0.2,0.1-0.3,0.1H18
		c-0.2,0-0.4-0.1-0.6-0.3s-0.2-0.4-0.2-0.6v-3.2H17.3z"/>
	<path class="st2" d="M27.5,82c0.6,0,1.2-0.2,1.7-0.5s0.9-0.8,1.1-1.3s0.3-1.1,0.2-1.7c-0.1-0.6-0.4-1.1-0.8-1.5s-0.9-0.7-1.5-0.8
		c-0.6-0.1-1.2-0.1-1.7,0.2s-1,0.6-1.3,1.1s-0.5,1-0.5,1.6c0,0.8,0.3,1.5,0.9,2.1C25.9,81.6,26.7,82,27.5,82z M27.5,78.1
		c0.2,0,0.4,0.1,0.5,0.2c0.2,0.1,0.3,0.2,0.3,0.4c0.1,0.2,0.1,0.4,0.1,0.5c0,0.2-0.1,0.3-0.3,0.5c-0.1,0.1-0.3,0.2-0.5,0.3
		c-0.2,0-0.4,0-0.5-0.1c-0.2-0.1-0.3-0.2-0.4-0.3c-0.1-0.2-0.2-0.3-0.2-0.5s0.1-0.5,0.3-0.7S27.2,78.1,27.5,78.1z"/>
	<path class="st2" d="M14.9,92c0,0.3,0.1,0.5,0.3,0.7s0.5,0.3,0.7,0.3h23c0.3,0,0.5-0.1,0.7-0.3c0.2-0.2,0.3-0.4,0.3-0.7
		s-0.1-0.5-0.3-0.7S39.1,91,38.9,91h-23c-0.3,0-0.5,0.1-0.7,0.3C15,91.5,14.9,91.8,14.9,92z"/>
	<path class="st2" d="M29.7,98H15.9c-0.3,0-0.5,0.1-0.7,0.3c-0.2,0.2-0.3,0.4-0.3,0.7s0.1,0.5,0.3,0.7s0.5,0.3,0.7,0.3h13.8
		c0.3,0,0.5-0.1,0.7-0.3c0.2-0.2,0.3-0.4,0.3-0.7s-0.1-0.5-0.3-0.7C30.3,98.1,30,98,29.7,98z"/>
	<path class="st2" d="M29.7,105.6H15.9c-0.3,0-0.5,0.1-0.7,0.3c-0.2,0.2-0.3,0.4-0.3,0.7s0.1,0.5,0.3,0.7s0.4,0.3,0.7,0.3h13.8
		c0.1,0,0.3,0,0.4-0.1c0.1,0,0.3-0.1,0.4-0.2s0.2-0.2,0.2-0.3c0.1-0.1,0.1-0.3,0.1-0.4s0-0.3-0.1-0.4s-0.1-0.2-0.2-0.3
		c-0.1-0.1-0.2-0.2-0.4-0.2C30,105.6,29.9,105.6,29.7,105.6z"/>
	<path class="st2" d="M29.7,113.2H15.9c-0.3,0-0.5,0.1-0.7,0.3c-0.2,0.2-0.3,0.4-0.3,0.7c0,0.3,0.1,0.5,0.3,0.7s0.5,0.3,0.7,0.3
		h13.8c0.3,0,0.5-0.1,0.7-0.3c0.2-0.2,0.3-0.4,0.3-0.7c0-0.3-0.1-0.5-0.3-0.7C30.3,113.4,30,113.2,29.7,113.2z"/>
	<path class="st2" d="M37.3,95.7l-2.6,2.7l-0.7-1c-0.1-0.1-0.2-0.2-0.3-0.3C33.6,97,33.5,97,33.3,97c-0.3,0-0.5,0-0.8,0.2
		c-0.2,0.2-0.4,0.4-0.4,0.7c0,0.3,0,0.5,0.2,0.8l1.4,1.9c0.1,0.1,0.2,0.2,0.3,0.3c0.1,0.1,0.3,0.1,0.4,0.1h0.1
		c0.3,0,0.5-0.1,0.7-0.3l3.4-3.5c0.2-0.2,0.2-0.4,0.2-0.7c0-0.3-0.1-0.5-0.3-0.7s-0.4-0.3-0.7-0.3C37.8,95.4,37.5,95.5,37.3,95.7
		L37.3,95.7z"/>
	<path class="st2" d="M37.3,103.7l-2.6,2.7l-0.7-1c-0.2-0.2-0.4-0.4-0.7-0.4s-0.5,0-0.8,0.2c-0.2,0.2-0.4,0.4-0.4,0.7
		c0,0.3,0,0.5,0.2,0.8l1.4,1.9c0.1,0.1,0.2,0.2,0.3,0.3c0.1,0.1,0.3,0.1,0.4,0.1h0.1c0.1,0,0.3,0,0.4-0.1c0.1-0.1,0.2-0.1,0.3-0.2
		l3.4-3.5c0.2-0.2,0.3-0.5,0.3-0.7s-0.1-0.5-0.3-0.7c-0.1-0.1-0.2-0.2-0.3-0.2s-0.3-0.1-0.4-0.1C37.8,103.4,37.5,103.5,37.3,103.7
		L37.3,103.7z"/>
	<path class="st2" d="M37.3,111.7l-2.6,2.7l-0.7-1c-0.1-0.1-0.2-0.2-0.3-0.3c-0.1-0.1-0.2-0.1-0.4-0.1c-0.1,0-0.3,0-0.4,0
		c-0.1,0-0.3,0.1-0.4,0.2s-0.2,0.2-0.3,0.3c-0.1,0.1-0.1,0.2-0.1,0.4c0,0.1,0,0.3,0,0.4s0.1,0.3,0.2,0.4l1.4,1.9
		c0.1,0.1,0.2,0.2,0.3,0.3c0.1,0.1,0.3,0.1,0.4,0.1h0.1c0.1,0,0.3,0,0.4-0.1s0.2-0.1,0.3-0.2l3.4-3.5c0.2-0.2,0.3-0.5,0.3-0.7
		c0-0.3-0.1-0.5-0.3-0.7c-0.1-0.1-0.2-0.2-0.3-0.2s-0.3-0.1-0.4-0.1C37.8,111.3,37.5,111.5,37.3,111.7L37.3,111.7z"/>
</g>
</svg>
