<?xml version="1.0" encoding="utf-8"?>
<!-- Generator: Adobe Illustrator 24.0.2, SVG Export Plug-In . SVG Version: 6.00 Build 0)  -->
<svg version="1.1" id="Layer_1" xmlns="http://www.w3.org/2000/svg" xmlns:xlink="http://www.w3.org/1999/xlink" x="0px" y="0px"
	 viewBox="0 0 237.2 126.3" style="enable-background:new 0 0 237.2 126.3;" xml:space="preserve">
<style type="text/css">
	.st0{fill:#EFEFEF;}
	.st1{fill:#D02418;}
	.st2{fill:#FFFFFF;}
</style>
<circle class="st0" cx="131.1" cy="36.4" r="14"/>
<path class="st1" d="M86.9,37.2c-0.1,0-0.2,0-0.2,0l-7.7-2.1c-0.2-0.1-0.4-0.2-0.6-0.4c-0.1-0.2-0.2-0.5-0.1-0.7l4.8-17.8
	c0.1-0.2,0.2-0.4,0.4-0.6s0.5-0.2,0.7-0.1l7.7,2.1c0.2,0.1,0.5,0.2,0.6,0.4c0.1,0.1,0.1,0.2,0.1,0.4c0,0.1,0,0.3,0,0.4l-4.8,17.8
	c-0.1,0.2-0.2,0.4-0.3,0.5S87.1,37.2,86.9,37.2z M80.4,33.5l5.9,1.6l4.3-15.9l-5.9-1.6L80.4,33.5z"/>
<path class="st1" d="M90.4,36.1c-0.6,0-1.3-0.1-1.9-0.3l-1.4-0.5c-0.2-0.1-0.4-0.2-0.5-0.4c-0.1-0.2-0.2-0.5-0.1-0.7l3.8-14
	c0.1-0.2,0.2-0.4,0.4-0.6s0.5-0.2,0.7-0.1l2.1,0.6c1.1,0.3,2.4,0.3,3.5,0l5.1-1.6c1.1-0.3,2.2-0.4,3.3-0.1c1.1,0.2,2.1,0.8,2.9,1.5
	l6.5,6c0.4,0.4,0.7,0.8,0.9,1.4s0.2,1.1,0.1,1.6c-0.1,0.5-0.4,1-0.8,1.4c-0.4,0.4-0.9,0.7-1.4,0.8c-0.4,0.1-0.9,0.2-1.3,0.1
	c-0.4-0.1-0.9-0.2-1.2-0.5l-3.8-2.4c-0.5-0.3-1.1-0.5-1.7-0.5c-0.6,0-1.2,0.2-1.7,0.5l-10,6.6C92.8,35.7,91.6,36.1,90.4,36.1z
	 M88.5,33.9l0.5,0.2c0.6,0.2,1.3,0.2,1.9,0.2c0.6-0.1,1.2-0.3,1.8-0.7l10-6.6c0.8-0.5,1.8-0.8,2.7-0.8c1,0,1.9,0.3,2.7,0.8l3.8,2.4
	c0.1,0.1,0.3,0.2,0.5,0.2c0.2,0,0.3,0,0.5,0c0.2,0,0.3-0.1,0.4-0.2c0.1-0.1,0.2-0.3,0.3-0.4c0.1-0.2,0.1-0.5,0.1-0.8
	c-0.1-0.3-0.2-0.5-0.4-0.7l-6.5-6.1c-0.6-0.5-1.3-0.9-2-1.1c-0.8-0.2-1.5-0.1-2.3,0.1l-5,1.5c-1.5,0.4-3.1,0.4-4.5,0l-1.1-0.3
	L88.5,33.9z"/>
<path class="st1" d="M126.1,37.1c-0.2,0-0.4-0.1-0.5-0.2c-0.2-0.1-0.3-0.2-0.3-0.4c-0.1-0.1-0.1-0.2-0.1-0.4c0-0.1,0-0.3,0.1-0.4
	c0-0.1,0.1-0.2,0.2-0.3c0.1-0.1,0.2-0.2,0.3-0.2l3.9-1.8L124.9,22l-2.8,0.4c-1.2,0.2-2.5,0.1-3.6-0.4l-7.4-2.7
	c-0.6-0.2-1.2-0.2-1.7,0l-2.8,1.1c-0.2,0.1-0.5,0-0.7-0.1c-0.2-0.1-0.4-0.3-0.5-0.5c-0.1-0.2-0.1-0.5,0-0.7c0.1-0.2,0.2-0.4,0.5-0.5
	l2.8-1.1c1-0.4,2.1-0.4,3.1,0l7.4,2.7c0.9,0.3,1.8,0.4,2.7,0.3l3.5-0.5c0.2,0,0.4,0,0.6,0.1c0.2,0.1,0.3,0.3,0.4,0.5l5.2,13
	c0.1,0.2,0.1,0.5,0,0.7c-0.1,0.2-0.3,0.4-0.5,0.5l-4.7,2.2C126.3,37.1,126.2,37.1,126.1,37.1z"/>
<path class="st1" d="M124.8,41.2c-0.4,0-0.8-0.1-1.2-0.3c-0.4-0.2-0.7-0.5-0.9-0.8l-1.7-2.4c-0.4-0.6-0.6-1.3-0.4-2
	c0.1-0.7,0.5-1.3,1.1-1.7l0.6-0.4c0.6-0.4,1.3-0.6,2-0.4c0.7,0.1,1.3,0.5,1.7,1.1l1.7,2.5c0.4,0.6,0.6,1.3,0.4,2
	c-0.1,0.7-0.5,1.3-1.1,1.7l-0.6,0.4C125.9,41.1,125.3,41.2,124.8,41.2z M123.7,35c-0.1,0-0.3,0-0.4,0.1l-0.6,0.4
	c-0.2,0.1-0.3,0.3-0.3,0.5c0,0.2,0,0.4,0.1,0.5l1.7,2.5c0.1,0.2,0.3,0.3,0.5,0.3c0.2,0,0.4,0,0.5-0.1l0.6-0.4
	c0.2-0.1,0.3-0.3,0.3-0.5c0-0.2,0-0.4-0.1-0.5l-1.7-2.4c-0.1-0.1-0.2-0.2-0.3-0.3C123.9,35,123.8,35,123.7,35z"/>
<path class="st1" d="M122,44.6c-0.2,0-0.3,0-0.5,0c-0.4-0.1-0.7-0.2-1-0.4c-0.3-0.2-0.6-0.4-0.8-0.7l-4.4-6.2
	c-0.4-0.6-0.6-1.3-0.5-2c0.1-0.7,0.5-1.3,1.1-1.7l0.6-0.5c0.6-0.4,1.3-0.6,2-0.5c0.7,0.1,1.3,0.5,1.7,1.1l4.4,6.2
	c0.2,0.3,0.4,0.6,0.4,1c0.1,0.3,0.1,0.7,0,1.1c-0.1,0.4-0.2,0.7-0.4,1c-0.2,0.3-0.4,0.6-0.7,0.8l-0.6,0.4
	C123.1,44.4,122.6,44.6,122,44.6z M118.3,34.5c-0.2,0-0.3,0.1-0.4,0.1l-0.6,0.4c-0.2,0.1-0.3,0.3-0.3,0.5c0,0.1,0,0.2,0,0.3
	c0,0.1,0.1,0.2,0.1,0.3l4.4,6.2c0.1,0.1,0.1,0.2,0.2,0.2c0.1,0.1,0.2,0.1,0.3,0.1c0.2,0,0.4,0,0.6-0.1l0.6-0.5
	c0.2-0.1,0.3-0.3,0.3-0.5c0-0.1,0-0.2,0-0.3c0-0.1-0.1-0.2-0.1-0.3l-4.4-6.2c-0.1-0.1-0.2-0.2-0.3-0.2
	C118.5,34.5,118.4,34.5,118.3,34.5z"/>
<path class="st1" d="M117.6,45.8c-0.2,0-0.3,0-0.5,0c-0.4-0.1-0.7-0.2-1-0.4c-0.3-0.2-0.6-0.4-0.8-0.7l-3.2-4.6
	c-0.4-0.6-0.6-1.3-0.5-2c0.1-0.7,0.5-1.3,1.1-1.8l0.6-0.4c0.3-0.2,0.6-0.4,1-0.4c0.3-0.1,0.7-0.1,1.1,0c0.3,0.1,0.7,0.2,1,0.4
	c0.3,0.2,0.6,0.4,0.8,0.7l3.2,4.6c0.2,0.3,0.4,0.6,0.4,1c0.1,0.3,0.1,0.7,0,1.1c-0.1,0.3-0.2,0.7-0.4,1s-0.4,0.6-0.7,0.8l-0.6,0.5
	C118.7,45.6,118.2,45.8,117.6,45.8z M115,37.2c-0.2,0-0.3,0-0.5,0.1l-0.6,0.5c-0.1,0.1-0.2,0.1-0.2,0.2c-0.1,0.1-0.1,0.2-0.1,0.3
	c0,0.1,0,0.2,0,0.3c0,0.1,0.1,0.2,0.1,0.3l3.2,4.6c0.1,0.2,0.3,0.3,0.5,0.3c0.2,0,0.4,0,0.6-0.1l0.6-0.5c0.1-0.1,0.2-0.1,0.2-0.2
	c0.1-0.1,0.1-0.2,0.1-0.3c0-0.2,0-0.4-0.1-0.5l-3.2-4.6c-0.1-0.1-0.1-0.2-0.2-0.2c-0.1-0.1-0.2-0.1-0.3-0.1L115,37.2z"/>
<path class="st1" d="M113.8,47.9c-0.4,0-0.9-0.1-1.3-0.3c-0.4-0.2-0.7-0.5-1-0.8l-2.6-3.8c-0.4-0.6-0.6-1.3-0.5-2.1
	c0.1-0.7,0.5-1.4,1.1-1.8l0.7-0.5c0.3-0.2,0.6-0.4,1-0.4c0.4-0.1,0.7-0.1,1.1,0c0.4,0.1,0.7,0.2,1,0.4c0.3,0.2,0.6,0.4,0.8,0.8
	l2.7,3.8c0.4,0.6,0.6,1.3,0.5,2.1c-0.1,0.7-0.5,1.4-1.1,1.8l-0.7,0.5C114.9,47.8,114.4,48,113.8,47.9z M111.8,40.1
	c-0.2,0-0.3,0.1-0.5,0.2l-0.7,0.5c-0.1,0.1-0.2,0.1-0.2,0.2c-0.1,0.1-0.1,0.2-0.1,0.3c0,0.1,0,0.2,0,0.3s0.1,0.2,0.1,0.3l2.7,3.8
	c0.1,0.2,0.3,0.3,0.5,0.3c0.2,0,0.4,0,0.6-0.1l0.7-0.5c0.1-0.1,0.2-0.1,0.2-0.2s0.1-0.2,0.1-0.3c0-0.1,0-0.2,0-0.3
	c0-0.1-0.1-0.2-0.1-0.3l-2.7-3.8c-0.1-0.2-0.3-0.3-0.6-0.4L111.8,40.1z"/>
<path class="st1" d="M104.8,46.6c-0.5,0-1.1-0.2-1.5-0.5s-0.7-0.8-0.8-1.3c-0.1-0.5-0.1-1.1,0.1-1.6c0.2-0.5,0.6-0.9,1.1-1.2
	l2.7-1.5c0.2-0.1,0.5-0.1,0.7,0c0.2,0.1,0.4,0.2,0.5,0.5s0.1,0.5,0.1,0.7c-0.1,0.2-0.2,0.4-0.4,0.6l-2.7,1.4c-0.1,0-0.1,0.1-0.2,0.1
	c0,0.1-0.1,0.1-0.1,0.2c0,0.1,0,0.1,0,0.2c0,0.1,0,0.1,0.1,0.2c0.1,0.1,0.2,0.2,0.3,0.2c0.1,0,0.2,0,0.3,0l4.9-2.2
	c0.2-0.1,0.5-0.1,0.7,0c0.2,0.1,0.4,0.3,0.5,0.5c0.1,0.1,0.1,0.2,0.1,0.4c0,0.1,0,0.3-0.1,0.4c0,0.1-0.1,0.2-0.2,0.3
	c-0.1,0.1-0.2,0.2-0.3,0.2l-4.9,2.2C105.5,46.6,105.1,46.6,104.8,46.6z"/>
<path class="st1" d="M100.9,45.2c-0.6,0-1.2-0.2-1.7-0.6c-0.5-0.4-0.9-0.9-1-1.5c-0.2-0.6-0.1-1.2,0.1-1.8c0.2-0.6,0.7-1.1,1.2-1.4
	l7.8-4.6c0.2-0.1,0.5-0.2,0.7-0.1c0.2,0.1,0.5,0.2,0.6,0.4c0.1,0.2,0.2,0.5,0.1,0.7c-0.1,0.2-0.2,0.5-0.4,0.6l-7.8,4.6
	c-0.1,0.1-0.2,0.1-0.3,0.2c-0.1,0.1-0.1,0.2-0.2,0.3c0,0.1,0,0.3,0,0.4c0,0.1,0.1,0.2,0.2,0.3c0.1,0.2,0.3,0.3,0.5,0.4
	c0.2,0.1,0.4,0,0.6-0.1l2.7-1.3c0.1-0.1,0.2-0.1,0.4-0.1c0.1,0,0.3,0,0.4,0c0.1,0,0.3,0.1,0.4,0.2c0.1,0.1,0.2,0.2,0.2,0.3
	c0.1,0.1,0.1,0.3,0.1,0.4c0,0.1,0,0.3-0.1,0.4c-0.1,0.1-0.1,0.2-0.2,0.3c-0.1,0.1-0.2,0.2-0.3,0.2l-2.7,1.3
	C101.8,45.1,101.4,45.2,100.9,45.2z"/>
<path class="st1" d="M98.2,42.5c-0.3,0-0.5,0-0.8-0.1c-0.4-0.1-0.7-0.3-1-0.5c-0.3-0.2-0.6-0.6-0.8-0.9c-0.4-0.7-0.5-1.5-0.3-2.2
	c0.2-0.7,0.7-1.4,1.3-1.8l7.7-4.7c0.2-0.1,0.5-0.2,0.7-0.1c0.2,0.1,0.5,0.2,0.6,0.4c0.1,0.1,0.1,0.2,0.1,0.4c0,0.1,0,0.3,0,0.4
	c0,0.1-0.1,0.2-0.2,0.3c-0.1,0.1-0.2,0.2-0.3,0.3l-7.7,4.7c-0.2,0.1-0.4,0.4-0.5,0.6c-0.1,0.3,0,0.5,0.1,0.8
	c0.1,0.2,0.4,0.4,0.6,0.5c0.1,0,0.3,0.1,0.4,0c0.1,0,0.3-0.1,0.4-0.1l6.1-3.6c0.1-0.1,0.2-0.1,0.4-0.1s0.3,0,0.4,0
	c0.1,0,0.2,0.1,0.3,0.2s0.2,0.2,0.2,0.3c0.1,0.2,0.2,0.5,0.1,0.7c-0.1,0.2-0.2,0.5-0.4,0.6L99.7,42C99.2,42.3,98.7,42.5,98.2,42.5z"
	/>
<path class="st1" d="M95.1,39.6c-0.7,0-1.5-0.2-2.1-0.7c-0.6-0.4-1-1.1-1.3-1.8c-0.2-0.7-0.2-1.5,0.1-2.2c0.2-0.7,0.7-1.3,1.3-1.7
	l5.4-3.6c0.2-0.1,0.5-0.2,0.7-0.1c0.2,0,0.5,0.2,0.6,0.4c0.1,0.2,0.2,0.5,0.1,0.7c-0.1,0.3-0.2,0.5-0.4,0.6l-5.4,3.6
	c-0.3,0.2-0.5,0.4-0.6,0.7c-0.1,0.3-0.2,0.6-0.1,0.9c0.1,0.3,0.2,0.6,0.4,0.8c0.2,0.2,0.5,0.4,0.8,0.4c0.2,0.1,0.4,0.1,0.6,0
	c0.2,0,0.4-0.1,0.6-0.2l3-1.9c0.2-0.1,0.5-0.2,0.7-0.1c0.2,0.1,0.5,0.2,0.6,0.4c0.1,0.1,0.1,0.2,0.1,0.4c0,0.1,0,0.3,0,0.4
	c0,0.1-0.1,0.2-0.2,0.3c-0.1,0.1-0.2,0.2-0.3,0.3l-3,1.9C96.4,39.4,95.7,39.6,95.1,39.6z"/>
<path class="st1" d="M131.6,36.9c-0.2,0-0.4-0.1-0.5-0.2c-0.2-0.1-0.3-0.3-0.4-0.4l-0.9-2l-5.2-13l-0.8-2.1c0-0.1-0.1-0.2-0.1-0.4
	c0-0.1,0-0.2,0.1-0.4c0.1-0.1,0.1-0.2,0.2-0.3c0.1-0.1,0.2-0.2,0.3-0.2l7.9-3.1c0.1,0,0.2-0.1,0.4-0.1c0.1,0,0.3,0,0.4,0.1
	c0.1,0.1,0.2,0.1,0.3,0.2c0.1,0.1,0.2,0.2,0.2,0.3l6.6,17.2c0.1,0.2,0.1,0.5,0,0.7c-0.1,0.2-0.3,0.4-0.5,0.5l-7.6,2.9
	C131.8,36.9,131.7,36.9,131.6,36.9z M126.4,20.6l5.7,14.1l5.9-2.3l-5.9-15.4l-6.1,2.3L126.4,20.6z"/>
<circle class="st0" cx="211.7" cy="30.4" r="14"/>
<path class="st1" d="M214,26.9v-3.2c0,0,0-0.1,0-0.1c-0.2-2-0.9-3.9-1.9-5.6c-1-1.7-2.3-3.2-3.9-4.4c-3.6-2.7-8.1-4.2-12.7-4.1
	c-4.9,0-9,1.3-12.3,4c-3.1,2.6-5.3,6.1-6.1,10.1c0,0.1,0,0.1,0,0.2v3.2c-3.3,0.3-5.8,2.5-5.8,5.1v2.8c0,2.7,2.6,4.9,5.9,5.1
	c0.3,1.9,1.3,3.7,2.8,4.9v4.8c0,0.2,0.1,0.4,0.3,0.6c0.2,0.2,0.4,0.2,0.6,0.2c0.2,0,0.5-0.1,0.6-0.2c0.2-0.2,0.3-0.4,0.3-0.6v-3.7
	c0.8,0.3,1.7,0.5,2.7,0.5h1.3c1,1.3,2.3,2.4,3.7,3.3c1.9,1.1,4,1.7,6.2,1.7s4.3-0.5,6.2-1.6c2.1-1.2,3.8-2.9,4.9-5
	c1.2-2.1,1.8-4.4,1.8-6.8v-7.4c0,0,0,0,0-0.1v0c0,0,0,0,0-0.1c0,0,0,0,0,0c0,0,0,0,0,0c0,0,0,0,0,0c0,0,0,0,0,0v0v-0.1c0,0,0,0,0,0
	v0l0,0l-0.2-0.1v0l0,0h0h0h0h0h0h0H208h-0.1c-1.3-0.3-2.5-0.8-3.6-1.4c-3.6-1.6-7.9-4-8-4c-0.2-0.1-0.3-0.1-0.5-0.1
	c-0.2,0-0.4,0.1-0.5,0.2c-2.3,1.7-4.9,3.1-7.7,4c-1.1,0.4-2.3,0.7-3.5,0.9c-0.2,0-0.3,0.1-0.5,0.2c-0.2,0-0.4,0.2-0.5,0.3
	c-0.1,0.2-0.2,0.4-0.2,0.6v7.4c0,2.3,0.6,4.6,1.7,6.6h-0.1c-0.9,0-1.8-0.2-2.7-0.7V28.1c0-6.9,6.2-12.6,13.9-12.6
	s13.9,5.6,13.9,12.6v21.7c0,0.2,0.1,0.5,0.3,0.7c0.2,0.2,0.4,0.3,0.7,0.3c0.2,0,0.5-0.1,0.7-0.3c0.2-0.2,0.3-0.4,0.3-0.7V28.1
	c0-7.9-7-14.4-15.7-14.4s-15.7,6.5-15.7,14.4v14.1c-0.7-0.9-1-2-1-3.2c0-0.1,0-0.3-0.1-0.4v-9.9c0-0.1,0-0.1,0-0.2v-4.7
	c0.8-3.5,2.8-6.7,5.5-9c2.9-2.4,6.7-3.6,11.1-3.6c4.2-0.1,8.2,1.2,11.5,3.7c1.4,1,2.5,2.4,3.4,3.9c0.9,1.5,1.4,3.2,1.6,4.9v4.6
	c0,0,0,0.1,0,0.1V39c0,0.2,0.1,0.5,0.3,0.6s0.4,0.3,0.6,0.3h0.1c3.6,0,6.5-2.3,6.5-5.1V32C219.7,29.4,217.2,27.2,214,26.9z
	 M184.8,37.9v-6.7c1-0.2,2-0.5,3-0.8c1.6-0.5,3.1-1.1,4.5-1.9c1.2-0.6,2.4-1.4,3.5-2.2c0.8,0.4,2.3,1.3,4,2.2
	c1.5,0.7,3.1,1.5,4.6,2.1c0.7,0.3,1.5,0.5,2.2,0.8v6.7c0,6.4-4.9,11.5-11,11.5c-2.8,0-5.5-1.1-7.5-3.1h1.4c0.2,0.4,0.5,0.7,0.8,0.9
	c0.4,0.2,0.8,0.3,1.2,0.3h2.6c0.6-0.1,1.1-0.4,1.4-0.8s0.6-1,0.6-1.5s-0.2-1.1-0.6-1.5c-0.4-0.4-0.9-0.7-1.4-0.8h-2.6
	c-0.5,0-0.9,0.2-1.3,0.4c-0.4,0.3-0.7,0.7-0.8,1.1h-2.8C185.5,42.5,184.8,40.2,184.8,37.9L184.8,37.9z M217.9,34.8
	c0,1.6-1.7,3-3.9,3.2v-9.3c2.2,0.3,3.9,1.6,3.9,3.2V34.8z M173.2,32c0-1.6,1.7-3,3.9-3.2v9.3c-2.2-0.3-3.9-1.6-3.9-3.2V32z"/>
<circle class="st0" cx="44.2" cy="29.9" r="14"/>
<path class="st1" d="M14.3,9.2H10c-0.8,0-1.5,0.3-2,0.8c-0.5,0.5-0.8,1.2-0.8,2v41.1c0,0.7,0.3,1.5,0.8,2c0.5,0.5,1.3,0.8,2,0.8
	h33.3c0.8,0,1.5-0.3,2-0.8c0.5-0.5,0.8-1.2,0.8-2V12c0-0.7-0.3-1.5-0.8-2c-0.5-0.5-1.3-0.8-2-0.8h-4.2c0-0.7-0.3-1.4-0.8-1.9
	c-0.5-0.5-1.2-0.8-2-0.8h-2.7c-0.2-1-0.7-1.9-1.5-2.5c-0.8-0.6-1.8-1-2.8-1h-4.6c-1,0-2,0.4-2.8,1c-0.8,0.6-1.3,1.5-1.5,2.5H17
	c-0.7,0-1.4,0.3-2,0.8C14.6,7.8,14.3,8.5,14.3,9.2z M39,13.5H41v36.3H12.3V13.5h2.1c0.2,0.6,0.5,1.1,1,1.5c0.5,0.4,1.1,0.6,1.7,0.6
	h19.3c0.6,0,1.2-0.2,1.7-0.6C38.5,14.6,38.8,14.1,39,13.5z M44.1,12v41.1c0,0.1,0,0.2-0.1,0.3c0,0.1-0.1,0.2-0.2,0.3
	s-0.2,0.1-0.3,0.2c-0.1,0-0.2,0.1-0.3,0.1H10c-0.2,0-0.4-0.1-0.6-0.2c-0.2-0.1-0.2-0.4-0.2-0.6V12c0-0.2,0.1-0.4,0.2-0.6
	s0.4-0.2,0.6-0.2h4.2v0.3h-3c-0.3,0-0.5,0.1-0.7,0.3c-0.2,0.2-0.3,0.4-0.3,0.7v38.3c0,0.3,0.1,0.5,0.3,0.7c0.2,0.2,0.4,0.3,0.7,0.3
	h30.8c0.3,0,0.5-0.1,0.7-0.3c0.2-0.2,0.3-0.4,0.3-0.7V12.5c0-0.3-0.1-0.5-0.3-0.7c-0.2-0.2-0.5-0.3-0.7-0.3h-2.9v-0.3h4.2
	c0.2,0,0.4,0.1,0.6,0.2C44,11.6,44.1,11.8,44.1,12z M16.3,9.4c0-0.2,0-0.4,0.2-0.6c0.1-0.2,0.3-0.3,0.6-0.3h4.3
	c0.3,0,0.5-0.1,0.7-0.3c0.2-0.2,0.3-0.4,0.3-0.7V7.2c0-0.6,0.2-1.2,0.7-1.6c0.4-0.4,1-0.7,1.6-0.7h4.6c0.6,0,1.2,0.2,1.6,0.7
	c0.4,0.4,0.7,1,0.7,1.6v0.3c0,0.1,0,0.3,0.1,0.4c0.1,0.1,0.1,0.2,0.2,0.3c0.1,0.1,0.2,0.2,0.3,0.2c0.1,0.1,0.3,0.1,0.4,0.1h3.7
	c0.2,0,0.4,0.1,0.6,0.3c0.1,0.2,0.2,0.4,0.2,0.6v0.8v2.4c0,0.1,0,0.2,0,0.3c0,0.1-0.1,0.2-0.2,0.3c-0.1,0.1-0.2,0.2-0.3,0.2
	c-0.1,0.1-0.2,0.1-0.3,0.1H17c-0.2,0-0.4-0.1-0.6-0.3c-0.1-0.2-0.2-0.4-0.2-0.6V9.4z"/>
<path class="st1" d="M26.5,11c0.6,0,1.2-0.2,1.7-0.5c0.5-0.3,0.9-0.8,1.1-1.3c0.2-0.5,0.3-1.1,0.2-1.7c-0.1-0.6-0.4-1.1-0.8-1.5
	c-0.4-0.4-0.9-0.7-1.5-0.8c-0.6-0.1-1.2-0.1-1.7,0.2s-1,0.6-1.3,1.1c-0.3,0.5-0.5,1-0.5,1.6c0,0.8,0.3,1.5,0.9,2.1
	C24.9,10.6,25.7,11,26.5,11z M26.5,7.1c0.2,0,0.4,0.1,0.5,0.2c0.2,0.1,0.3,0.2,0.3,0.4c0.1,0.2,0.1,0.4,0.1,0.5
	c0,0.2-0.1,0.3-0.3,0.5c-0.1,0.1-0.3,0.2-0.5,0.3c-0.2,0-0.4,0-0.5-0.1c-0.2-0.1-0.3-0.2-0.4-0.3c-0.1-0.2-0.2-0.3-0.2-0.5
	c0-0.2,0.1-0.5,0.3-0.7S26.2,7.1,26.5,7.1z"/>
<path class="st1" d="M13.9,21c0,0.3,0.1,0.5,0.3,0.7c0.2,0.2,0.5,0.3,0.7,0.3h23c0.3,0,0.5-0.1,0.7-0.3c0.2-0.2,0.3-0.4,0.3-0.7
	s-0.1-0.5-0.3-0.7c-0.2-0.2-0.5-0.3-0.7-0.3h-23c-0.3,0-0.5,0.1-0.7,0.3C14,20.5,13.9,20.8,13.9,21z"/>
<path class="st1" d="M28.7,27H14.9c-0.3,0-0.5,0.1-0.7,0.3c-0.2,0.2-0.3,0.4-0.3,0.7s0.1,0.5,0.3,0.7c0.2,0.2,0.5,0.3,0.7,0.3h13.8
	c0.3,0,0.5-0.1,0.7-0.3c0.2-0.2,0.3-0.4,0.3-0.7s-0.1-0.5-0.3-0.7C29.3,27.1,29,27,28.7,27z"/>
<path class="st1" d="M28.7,34.6H14.9c-0.3,0-0.5,0.1-0.7,0.3c-0.2,0.2-0.3,0.4-0.3,0.7s0.1,0.5,0.3,0.7s0.4,0.3,0.7,0.3h13.8
	c0.1,0,0.3,0,0.4-0.1c0.1,0,0.3-0.1,0.4-0.2s0.2-0.2,0.2-0.3c0.1-0.1,0.1-0.3,0.1-0.4c0-0.1,0-0.3-0.1-0.4c-0.1-0.1-0.1-0.2-0.2-0.3
	c-0.1-0.1-0.2-0.2-0.4-0.2C29,34.6,28.9,34.6,28.7,34.6z"/>
<path class="st1" d="M28.7,42.2H14.9c-0.3,0-0.5,0.1-0.7,0.3c-0.2,0.2-0.3,0.4-0.3,0.7c0,0.3,0.1,0.5,0.3,0.7
	c0.2,0.2,0.5,0.3,0.7,0.3h13.8c0.3,0,0.5-0.1,0.7-0.3c0.2-0.2,0.3-0.4,0.3-0.7c0-0.3-0.1-0.5-0.3-0.7C29.3,42.4,29,42.2,28.7,42.2z"
	/>
<path class="st1" d="M36.3,24.7l-2.6,2.7l-0.7-1c-0.1-0.1-0.2-0.2-0.3-0.3c-0.1-0.1-0.2-0.1-0.4-0.1c-0.3,0-0.5,0-0.8,0.2
	c-0.2,0.2-0.4,0.4-0.4,0.7c0,0.3,0,0.5,0.2,0.8l1.4,1.9c0.1,0.1,0.2,0.2,0.3,0.3c0.1,0.1,0.3,0.1,0.4,0.1h0.1c0.3,0,0.5-0.1,0.7-0.3
	l3.4-3.5c0.2-0.2,0.2-0.4,0.2-0.7c0-0.3-0.1-0.5-0.3-0.7c-0.2-0.2-0.4-0.3-0.7-0.3C36.8,24.4,36.5,24.5,36.3,24.7L36.3,24.7z"/>
<path class="st1" d="M36.3,32.7l-2.6,2.7l-0.7-1c-0.2-0.2-0.4-0.4-0.7-0.4c-0.3,0-0.5,0-0.8,0.2c-0.2,0.2-0.4,0.4-0.4,0.7
	c0,0.3,0,0.5,0.2,0.8l1.4,1.9c0.1,0.1,0.2,0.2,0.3,0.3c0.1,0.1,0.3,0.1,0.4,0.1h0.1c0.1,0,0.3,0,0.4-0.1c0.1-0.1,0.2-0.1,0.3-0.2
	l3.4-3.5c0.2-0.2,0.3-0.5,0.3-0.7c0-0.3-0.1-0.5-0.3-0.7c-0.1-0.1-0.2-0.2-0.3-0.2s-0.3-0.1-0.4-0.1C36.8,32.4,36.5,32.5,36.3,32.7
	L36.3,32.7z"/>
<path class="st1" d="M36.3,40.7l-2.6,2.7l-0.7-1c-0.1-0.1-0.2-0.2-0.3-0.3C32.6,42,32.5,42,32.4,42c-0.1,0-0.3,0-0.4,0
	c-0.1,0-0.3,0.1-0.4,0.2c-0.1,0.1-0.2,0.2-0.3,0.3c-0.1,0.1-0.1,0.2-0.1,0.4c0,0.1,0,0.3,0,0.4s0.1,0.3,0.2,0.4l1.4,1.9
	c0.1,0.1,0.2,0.2,0.3,0.3c0.1,0.1,0.3,0.1,0.4,0.1h0.1c0.1,0,0.3,0,0.4-0.1s0.2-0.1,0.3-0.2l3.4-3.5c0.2-0.2,0.3-0.5,0.3-0.7
	c0-0.3-0.1-0.5-0.3-0.7c-0.1-0.1-0.2-0.2-0.3-0.2c-0.1,0-0.3-0.1-0.4-0.1C36.8,40.3,36.5,40.5,36.3,40.7L36.3,40.7z"/>
<circle class="st0" cx="131.1" cy="100.4" r="14"/>
<g>
	<path class="st2" d="M86.9,101.2c-0.1,0-0.2,0-0.2,0l-7.7-2.1c-0.2-0.1-0.4-0.2-0.6-0.4c-0.1-0.2-0.2-0.5-0.1-0.7l4.8-17.8
		c0.1-0.2,0.2-0.4,0.4-0.6s0.5-0.2,0.7-0.1l7.7,2.1c0.2,0.1,0.5,0.2,0.6,0.4c0.1,0.1,0.1,0.2,0.1,0.4c0,0.1,0,0.3,0,0.4l-4.8,17.8
		c-0.1,0.2-0.2,0.4-0.3,0.5S87.1,101.2,86.9,101.2z M80.4,97.5l5.9,1.6l4.3-15.9l-5.9-1.6L80.4,97.5z"/>
	<path class="st2" d="M90.4,100.1c-0.6,0-1.3-0.1-1.9-0.3l-1.4-0.5c-0.2-0.1-0.4-0.2-0.5-0.4c-0.1-0.2-0.2-0.5-0.1-0.7l3.8-14
		c0.1-0.2,0.2-0.4,0.4-0.6s0.5-0.2,0.7-0.1l2.1,0.6c1.1,0.3,2.4,0.3,3.5,0l5.1-1.6c1.1-0.3,2.2-0.4,3.3-0.1c1.1,0.2,2.1,0.8,2.9,1.5
		l6.5,6c0.4,0.4,0.7,0.8,0.9,1.4s0.2,1.1,0.1,1.6c-0.1,0.5-0.4,1-0.8,1.4c-0.4,0.4-0.9,0.7-1.4,0.8c-0.4,0.1-0.9,0.2-1.3,0.1
		c-0.4-0.1-0.9-0.2-1.2-0.5l-3.8-2.4c-0.5-0.3-1.1-0.5-1.7-0.5c-0.6,0-1.2,0.2-1.7,0.5l-10,6.6C92.8,99.7,91.6,100.1,90.4,100.1z
		 M88.5,97.9l0.5,0.2c0.6,0.2,1.3,0.2,1.9,0.2c0.6-0.1,1.2-0.3,1.8-0.7l10-6.6c0.8-0.5,1.8-0.8,2.7-0.8c1,0,1.9,0.3,2.7,0.8l3.8,2.4
		c0.1,0.1,0.3,0.2,0.5,0.2c0.2,0,0.3,0,0.5,0c0.2,0,0.3-0.1,0.4-0.2c0.1-0.1,0.2-0.3,0.3-0.4c0.1-0.2,0.1-0.5,0.1-0.8
		c-0.1-0.3-0.2-0.5-0.4-0.7l-6.5-6.1c-0.6-0.5-1.3-0.9-2-1.1c-0.8-0.2-1.5-0.1-2.3,0.1l-5,1.5c-1.5,0.4-3.1,0.4-4.5,0l-1.1-0.3
		L88.5,97.9z"/>
	<path class="st2" d="M126.1,101.1c-0.2,0-0.4-0.1-0.5-0.2c-0.2-0.1-0.3-0.2-0.3-0.4c-0.1-0.1-0.1-0.2-0.1-0.4c0-0.1,0-0.3,0.1-0.4
		c0-0.1,0.1-0.2,0.2-0.3c0.1-0.1,0.2-0.2,0.3-0.2l3.9-1.8L124.9,86l-2.8,0.4c-1.2,0.2-2.5,0.1-3.6-0.4l-7.4-2.7
		c-0.6-0.2-1.2-0.2-1.7,0l-2.8,1.1c-0.2,0.1-0.5,0-0.7-0.1c-0.2-0.1-0.4-0.3-0.5-0.5c-0.1-0.2-0.1-0.5,0-0.7
		c0.1-0.2,0.2-0.4,0.5-0.5l2.8-1.1c1-0.4,2.1-0.4,3.1,0l7.4,2.7c0.9,0.3,1.8,0.4,2.7,0.3l3.5-0.5c0.2,0,0.4,0,0.6,0.1
		c0.2,0.1,0.3,0.3,0.4,0.5l5.2,13c0.1,0.2,0.1,0.5,0,0.7c-0.1,0.2-0.3,0.4-0.5,0.5l-4.7,2.2C126.3,101.1,126.2,101.1,126.1,101.1z"
		/>
	<path class="st2" d="M124.8,105.2c-0.4,0-0.8-0.1-1.2-0.3c-0.4-0.2-0.7-0.5-0.9-0.8l-1.7-2.4c-0.4-0.6-0.6-1.3-0.4-2
		c0.1-0.7,0.5-1.3,1.1-1.7l0.6-0.4c0.6-0.4,1.3-0.6,2-0.4c0.7,0.1,1.3,0.5,1.7,1.1l1.7,2.5c0.4,0.6,0.6,1.3,0.4,2
		c-0.1,0.7-0.5,1.3-1.1,1.7l-0.6,0.4C125.9,105.1,125.3,105.2,124.8,105.2z M123.7,99c-0.1,0-0.3,0-0.4,0.1l-0.6,0.4
		c-0.2,0.1-0.3,0.3-0.3,0.5c0,0.2,0,0.4,0.1,0.5l1.7,2.5c0.1,0.2,0.3,0.3,0.5,0.3c0.2,0,0.4,0,0.5-0.1l0.6-0.4
		c0.2-0.1,0.3-0.3,0.3-0.5c0-0.2,0-0.4-0.1-0.5l-1.7-2.4c-0.1-0.1-0.2-0.2-0.3-0.3C123.9,99,123.8,99,123.7,99z"/>
	<path class="st2" d="M122,108.6c-0.2,0-0.3,0-0.5,0c-0.4-0.1-0.7-0.2-1-0.4c-0.3-0.2-0.6-0.4-0.8-0.7l-4.4-6.2
		c-0.4-0.6-0.6-1.3-0.5-2c0.1-0.7,0.5-1.3,1.1-1.7l0.6-0.5c0.6-0.4,1.3-0.6,2-0.5c0.7,0.1,1.3,0.5,1.7,1.1l4.4,6.2
		c0.2,0.3,0.4,0.6,0.4,1c0.1,0.3,0.1,0.7,0,1.1c-0.1,0.4-0.2,0.7-0.4,1c-0.2,0.3-0.4,0.6-0.7,0.8l-0.6,0.4
		C123.1,108.4,122.6,108.6,122,108.6z M118.3,98.5c-0.2,0-0.3,0.1-0.4,0.1l-0.6,0.4c-0.2,0.1-0.3,0.3-0.3,0.5c0,0.1,0,0.2,0,0.3
		c0,0.1,0.1,0.2,0.1,0.3l4.4,6.2c0.1,0.1,0.1,0.2,0.2,0.2c0.1,0.1,0.2,0.1,0.3,0.1c0.2,0,0.4,0,0.6-0.1l0.6-0.5
		c0.2-0.1,0.3-0.3,0.3-0.5c0-0.1,0-0.2,0-0.3c0-0.1-0.1-0.2-0.1-0.3l-4.4-6.2c-0.1-0.1-0.2-0.2-0.3-0.2
		C118.5,98.5,118.4,98.5,118.3,98.5z"/>
	<path class="st2" d="M117.6,109.8c-0.2,0-0.3,0-0.5,0c-0.4-0.1-0.7-0.2-1-0.4c-0.3-0.2-0.6-0.4-0.8-0.7l-3.2-4.6
		c-0.4-0.6-0.6-1.3-0.5-2c0.1-0.7,0.5-1.3,1.1-1.8l0.6-0.4c0.3-0.2,0.6-0.4,1-0.4c0.3-0.1,0.7-0.1,1.1,0c0.3,0.1,0.7,0.2,1,0.4
		c0.3,0.2,0.6,0.4,0.8,0.7l3.2,4.6c0.2,0.3,0.4,0.6,0.4,1c0.1,0.3,0.1,0.7,0,1.1c-0.1,0.3-0.2,0.7-0.4,1s-0.4,0.6-0.7,0.8l-0.6,0.5
		C118.7,109.6,118.2,109.8,117.6,109.8z M115,101.2c-0.2,0-0.3,0-0.5,0.1l-0.6,0.5c-0.1,0.1-0.2,0.1-0.2,0.2
		c-0.1,0.1-0.1,0.2-0.1,0.3c0,0.1,0,0.2,0,0.3c0,0.1,0.1,0.2,0.1,0.3l3.2,4.6c0.1,0.2,0.3,0.3,0.5,0.3c0.2,0,0.4,0,0.6-0.1l0.6-0.5
		c0.1-0.1,0.2-0.1,0.2-0.2c0.1-0.1,0.1-0.2,0.1-0.3c0-0.2,0-0.4-0.1-0.5l-3.2-4.6c-0.1-0.1-0.1-0.2-0.2-0.2
		c-0.1-0.1-0.2-0.1-0.3-0.1L115,101.2z"/>
	<path class="st2" d="M113.8,111.9c-0.4,0-0.9-0.1-1.3-0.3c-0.4-0.2-0.7-0.5-1-0.8l-2.6-3.8c-0.4-0.6-0.6-1.3-0.5-2.1
		c0.1-0.7,0.5-1.4,1.1-1.8l0.7-0.5c0.3-0.2,0.6-0.4,1-0.4c0.4-0.1,0.7-0.1,1.1,0c0.4,0.1,0.7,0.2,1,0.4c0.3,0.2,0.6,0.4,0.8,0.8
		l2.7,3.8c0.4,0.6,0.6,1.3,0.5,2.1c-0.1,0.7-0.5,1.4-1.1,1.8l-0.7,0.5C114.9,111.8,114.4,112,113.8,111.9z M111.8,104.1
		c-0.2,0-0.3,0.1-0.5,0.2l-0.7,0.5c-0.1,0.1-0.2,0.1-0.2,0.2c-0.1,0.1-0.1,0.2-0.1,0.3c0,0.1,0,0.2,0,0.3s0.1,0.2,0.1,0.3l2.7,3.8
		c0.1,0.2,0.3,0.3,0.5,0.3c0.2,0,0.4,0,0.6-0.1l0.7-0.5c0.1-0.1,0.2-0.1,0.2-0.2s0.1-0.2,0.1-0.3c0-0.1,0-0.2,0-0.3
		c0-0.1-0.1-0.2-0.1-0.3l-2.7-3.8c-0.1-0.2-0.3-0.3-0.6-0.4L111.8,104.1z"/>
	<path class="st2" d="M104.8,110.6c-0.5,0-1.1-0.2-1.5-0.5s-0.7-0.8-0.8-1.3c-0.1-0.5-0.1-1.1,0.1-1.6c0.2-0.5,0.6-0.9,1.1-1.2
		l2.7-1.5c0.2-0.1,0.5-0.1,0.7,0c0.2,0.1,0.4,0.2,0.5,0.5s0.1,0.5,0.1,0.7c-0.1,0.2-0.2,0.4-0.4,0.6l-2.7,1.4
		c-0.1,0-0.1,0.1-0.2,0.1c0,0.1-0.1,0.1-0.1,0.2c0,0.1,0,0.1,0,0.2c0,0.1,0,0.1,0.1,0.2c0.1,0.1,0.2,0.2,0.3,0.2c0.1,0,0.2,0,0.3,0
		l4.9-2.2c0.2-0.1,0.5-0.1,0.7,0c0.2,0.1,0.4,0.3,0.5,0.5c0.1,0.1,0.1,0.2,0.1,0.4c0,0.1,0,0.3-0.1,0.4c0,0.1-0.1,0.2-0.2,0.3
		c-0.1,0.1-0.2,0.2-0.3,0.2l-4.9,2.2C105.5,110.6,105.1,110.6,104.8,110.6z"/>
	<path class="st2" d="M100.9,109.2c-0.6,0-1.2-0.2-1.7-0.6c-0.5-0.4-0.9-0.9-1-1.5c-0.2-0.6-0.1-1.2,0.1-1.8
		c0.2-0.6,0.7-1.1,1.2-1.4l7.8-4.6c0.2-0.1,0.5-0.2,0.7-0.1c0.2,0.1,0.5,0.2,0.6,0.4c0.1,0.2,0.2,0.5,0.1,0.7
		c-0.1,0.2-0.2,0.5-0.4,0.6l-7.8,4.6c-0.1,0.1-0.2,0.1-0.3,0.2c-0.1,0.1-0.1,0.2-0.2,0.3c0,0.1,0,0.3,0,0.4c0,0.1,0.1,0.2,0.2,0.3
		c0.1,0.2,0.3,0.3,0.5,0.4c0.2,0.1,0.4,0,0.6-0.1l2.7-1.3c0.1-0.1,0.2-0.1,0.4-0.1c0.1,0,0.3,0,0.4,0c0.1,0,0.3,0.1,0.4,0.2
		c0.1,0.1,0.2,0.2,0.2,0.3c0.1,0.1,0.1,0.3,0.1,0.4c0,0.1,0,0.3-0.1,0.4c-0.1,0.1-0.1,0.2-0.2,0.3c-0.1,0.1-0.2,0.2-0.3,0.2
		l-2.7,1.3C101.8,109.1,101.4,109.2,100.9,109.2z"/>
	<path class="st2" d="M98.2,106.5c-0.3,0-0.5,0-0.8-0.1c-0.4-0.1-0.7-0.3-1-0.5c-0.3-0.2-0.6-0.6-0.8-0.9c-0.4-0.7-0.5-1.5-0.3-2.2
		c0.2-0.7,0.7-1.4,1.3-1.8l7.7-4.7c0.2-0.1,0.5-0.2,0.7-0.1c0.2,0.1,0.5,0.2,0.6,0.4c0.1,0.1,0.1,0.2,0.1,0.4c0,0.1,0,0.3,0,0.4
		c0,0.1-0.1,0.2-0.2,0.3c-0.1,0.1-0.2,0.2-0.3,0.3l-7.7,4.7c-0.2,0.1-0.4,0.4-0.5,0.6c-0.1,0.3,0,0.5,0.1,0.8
		c0.1,0.2,0.4,0.4,0.6,0.5c0.1,0,0.3,0.1,0.4,0c0.1,0,0.3-0.1,0.4-0.1l6.1-3.6c0.1-0.1,0.2-0.1,0.4-0.1s0.3,0,0.4,0
		c0.1,0,0.2,0.1,0.3,0.2s0.2,0.2,0.2,0.3c0.1,0.2,0.2,0.5,0.1,0.7c-0.1,0.2-0.2,0.5-0.4,0.6l-6.1,3.6
		C99.2,106.3,98.7,106.5,98.2,106.5z"/>
	<path class="st2" d="M95.1,103.6c-0.7,0-1.5-0.2-2.1-0.7c-0.6-0.4-1-1.1-1.3-1.8c-0.2-0.7-0.2-1.5,0.1-2.2c0.2-0.7,0.7-1.3,1.3-1.7
		l5.4-3.6c0.2-0.1,0.5-0.2,0.7-0.1c0.2,0,0.5,0.2,0.6,0.4c0.1,0.2,0.2,0.5,0.1,0.7c-0.1,0.3-0.2,0.5-0.4,0.6l-5.4,3.6
		c-0.3,0.2-0.5,0.4-0.6,0.7c-0.1,0.3-0.2,0.6-0.1,0.9c0.1,0.3,0.2,0.6,0.4,0.8c0.2,0.2,0.5,0.4,0.8,0.4c0.2,0.1,0.4,0.1,0.6,0
		c0.2,0,0.4-0.1,0.6-0.2l3-1.9c0.2-0.1,0.5-0.2,0.7-0.1c0.2,0.1,0.5,0.2,0.6,0.4c0.1,0.1,0.1,0.2,0.1,0.4c0,0.1,0,0.3,0,0.4
		c0,0.1-0.1,0.2-0.2,0.3c-0.1,0.1-0.2,0.2-0.3,0.3l-3,1.9C96.4,103.4,95.7,103.6,95.1,103.6z"/>
	<path class="st2" d="M131.6,100.9c-0.2,0-0.4-0.1-0.5-0.2c-0.2-0.1-0.3-0.3-0.4-0.4l-0.9-2l-5.2-13l-0.8-2.1c0-0.1-0.1-0.2-0.1-0.4
		c0-0.1,0-0.2,0.1-0.4c0.1-0.1,0.1-0.2,0.2-0.3c0.1-0.1,0.2-0.2,0.3-0.2l7.9-3.1c0.1,0,0.2-0.1,0.4-0.1c0.1,0,0.3,0,0.4,0.1
		c0.1,0.1,0.2,0.1,0.3,0.2c0.1,0.1,0.2,0.2,0.2,0.3l6.6,17.2c0.1,0.2,0.1,0.5,0,0.7c-0.1,0.2-0.3,0.4-0.5,0.5l-7.6,2.9
		C131.8,100.9,131.7,100.9,131.6,100.9z M126.4,84.6l5.7,14.1l5.9-2.3l-5.9-15.4l-6.1,2.3L126.4,84.6z"/>
</g>
<circle class="st0" cx="211.7" cy="94.4" r="14"/>
<g>
	<path class="st2" d="M214,90.9v-3.2c0,0,0-0.1,0-0.1c-0.2-2-0.9-3.9-1.9-5.6c-1-1.7-2.3-3.2-3.9-4.4c-3.6-2.7-8.1-4.2-12.7-4.1
		c-4.9,0-9,1.3-12.3,4c-3.1,2.6-5.3,6.1-6.1,10.1c0,0.1,0,0.1,0,0.2v3.2c-3.3,0.3-5.8,2.5-5.8,5.1v2.8c0,2.7,2.6,4.9,5.9,5.1
		c0.3,1.9,1.3,3.7,2.8,4.9v4.8c0,0.2,0.1,0.4,0.3,0.6c0.2,0.2,0.4,0.2,0.6,0.2c0.2,0,0.5-0.1,0.6-0.2c0.2-0.2,0.3-0.4,0.3-0.6v-3.7
		c0.8,0.3,1.7,0.5,2.7,0.5h1.3c1,1.3,2.3,2.4,3.7,3.3c1.9,1.1,4,1.7,6.2,1.7s4.3-0.5,6.2-1.6c2.1-1.2,3.8-2.9,4.9-5
		c1.2-2.1,1.8-4.4,1.8-6.8v-7.4c0,0,0,0,0-0.1v0c0,0,0,0,0-0.1c0,0,0,0,0,0c0,0,0,0,0,0c0,0,0,0,0,0c0,0,0,0,0,0v0v-0.1c0,0,0,0,0,0
		v0l0,0l-0.2-0.1v0l0,0h0h0h0h0h0h0H208h-0.1c-1.3-0.3-2.5-0.8-3.6-1.4c-3.6-1.6-7.9-4-8-4c-0.2-0.1-0.3-0.1-0.5-0.1
		c-0.2,0-0.4,0.1-0.5,0.2c-2.3,1.7-4.9,3.1-7.7,4c-1.1,0.4-2.3,0.7-3.5,0.9c-0.2,0-0.3,0.1-0.5,0.2c-0.2,0-0.4,0.2-0.5,0.3
		c-0.1,0.2-0.2,0.4-0.2,0.6v7.4c0,2.3,0.6,4.6,1.7,6.6h-0.1c-0.9,0-1.8-0.2-2.7-0.7V92.1c0-6.9,6.2-12.6,13.9-12.6
		s13.9,5.6,13.9,12.6v21.7c0,0.2,0.1,0.5,0.3,0.7c0.2,0.2,0.4,0.3,0.7,0.3c0.2,0,0.5-0.1,0.7-0.3c0.2-0.2,0.3-0.4,0.3-0.7V92.1
		c0-7.9-7-14.4-15.7-14.4s-15.7,6.5-15.7,14.4v14.1c-0.7-0.9-1-2-1-3.2c0-0.1,0-0.3-0.1-0.4v-9.9c0-0.1,0-0.1,0-0.2v-4.7
		c0.8-3.5,2.8-6.7,5.5-9c2.9-2.4,6.7-3.6,11.1-3.6c4.2-0.1,8.2,1.2,11.5,3.7c1.4,1,2.5,2.4,3.4,3.9c0.9,1.5,1.4,3.2,1.6,4.9v4.6
		c0,0,0,0.1,0,0.1V103c0,0.2,0.1,0.5,0.3,0.6s0.4,0.3,0.6,0.3h0.1c3.6,0,6.5-2.3,6.5-5.1V96C219.7,93.4,217.2,91.2,214,90.9z
		 M184.8,101.9v-6.7c1-0.2,2-0.5,3-0.8c1.6-0.5,3.1-1.1,4.5-1.9c1.2-0.6,2.4-1.4,3.5-2.2c0.8,0.4,2.3,1.3,4,2.2
		c1.5,0.7,3.1,1.5,4.6,2.1c0.7,0.3,1.5,0.5,2.2,0.8v6.7c0,6.4-4.9,11.5-11,11.5c-2.8,0-5.5-1.1-7.5-3.1h1.4c0.2,0.4,0.5,0.7,0.8,0.9
		c0.4,0.2,0.8,0.3,1.2,0.3h2.6c0.6-0.1,1.1-0.4,1.4-0.8s0.6-1,0.6-1.5s-0.2-1.1-0.6-1.5c-0.4-0.4-0.9-0.7-1.4-0.8h-2.6
		c-0.5,0-0.9,0.2-1.3,0.4c-0.4,0.3-0.7,0.7-0.8,1.1h-2.8C185.5,106.5,184.8,104.2,184.8,101.9L184.8,101.9z M217.9,98.8
		c0,1.6-1.7,3-3.9,3.2v-9.3c2.2,0.3,3.9,1.6,3.9,3.2V98.8z M173.2,96c0-1.6,1.7-3,3.9-3.2v9.3c-2.2-0.3-3.9-1.6-3.9-3.2V96z"/>
</g>
<circle class="st0" cx="44.2" cy="93.9" r="14"/>
<g>
	<path class="st2" d="M14.3,73.2H10c-0.8,0-1.5,0.3-2,0.8c-0.5,0.5-0.8,1.2-0.8,2v41.1c0,0.7,0.3,1.5,0.8,2c0.5,0.5,1.3,0.8,2,0.8
		h33.3c0.8,0,1.5-0.3,2-0.8c0.5-0.5,0.8-1.2,0.8-2V76c0-0.7-0.3-1.5-0.8-2c-0.5-0.5-1.3-0.8-2-0.8h-4.2c0-0.7-0.3-1.4-0.8-1.9
		c-0.5-0.5-1.2-0.8-2-0.8h-2.7c-0.2-1-0.7-1.9-1.5-2.5c-0.8-0.6-1.8-1-2.8-1h-4.6c-1,0-2,0.4-2.8,1s-1.3,1.5-1.5,2.5H17
		c-0.7,0-1.4,0.3-2,0.8C14.6,71.8,14.3,72.5,14.3,73.2z M39,77.5H41v36.3H12.3V77.5h2.1c0.2,0.6,0.5,1.1,1,1.5
		c0.5,0.4,1.1,0.6,1.7,0.6h19.3c0.6,0,1.2-0.2,1.7-0.6C38.5,78.6,38.8,78.1,39,77.5z M44.1,76v41.1c0,0.1,0,0.2-0.1,0.3
		c0,0.1-0.1,0.2-0.2,0.3s-0.2,0.1-0.3,0.2c-0.1,0-0.2,0.1-0.3,0.1H10c-0.2,0-0.4-0.1-0.6-0.2c-0.2-0.1-0.2-0.4-0.2-0.6V76
		c0-0.2,0.1-0.4,0.2-0.6c0.2-0.1,0.4-0.2,0.6-0.2h4.2v0.3h-3c-0.3,0-0.5,0.1-0.7,0.3c-0.2,0.2-0.3,0.4-0.3,0.7v38.3
		c0,0.3,0.1,0.5,0.3,0.7c0.2,0.2,0.4,0.3,0.7,0.3h30.8c0.3,0,0.5-0.1,0.7-0.3c0.2-0.2,0.3-0.4,0.3-0.7V76.5c0-0.3-0.1-0.5-0.3-0.7
		c-0.2-0.2-0.5-0.3-0.7-0.3h-2.9v-0.3h4.2c0.2,0,0.4,0.1,0.6,0.2C44,75.6,44.1,75.8,44.1,76z M16.3,73.4c0-0.2,0-0.4,0.2-0.6
		c0.1-0.2,0.3-0.3,0.6-0.3h4.3c0.3,0,0.5-0.1,0.7-0.3c0.2-0.2,0.3-0.4,0.3-0.7v-0.3c0-0.6,0.2-1.2,0.7-1.6c0.4-0.4,1-0.7,1.6-0.7
		h4.6c0.6,0,1.2,0.2,1.6,0.7c0.4,0.4,0.7,1,0.7,1.6v0.3c0,0.1,0,0.3,0.1,0.4c0.1,0.1,0.1,0.2,0.2,0.3c0.1,0.1,0.2,0.2,0.3,0.2
		c0.1,0.1,0.3,0.1,0.4,0.1h3.7c0.2,0,0.4,0.1,0.6,0.3c0.1,0.2,0.2,0.4,0.2,0.6v0.8v2.4c0,0.1,0,0.2,0,0.3s-0.1,0.2-0.2,0.3
		c-0.1,0.1-0.2,0.2-0.3,0.2c-0.1,0.1-0.2,0.1-0.3,0.1H17c-0.2,0-0.4-0.1-0.6-0.3s-0.2-0.4-0.2-0.6V73.4z"/>
	<path class="st2" d="M26.5,75c0.6,0,1.2-0.2,1.7-0.5c0.5-0.3,0.9-0.8,1.1-1.3c0.2-0.5,0.3-1.1,0.2-1.7c-0.1-0.6-0.4-1.1-0.8-1.5
		c-0.4-0.4-0.9-0.7-1.5-0.8c-0.6-0.1-1.2-0.1-1.7,0.2s-1,0.6-1.3,1.1c-0.3,0.5-0.5,1-0.5,1.6c0,0.8,0.3,1.5,0.9,2.1
		C24.9,74.6,25.7,75,26.5,75z M26.5,71.1c0.2,0,0.4,0.1,0.5,0.2c0.2,0.1,0.3,0.2,0.3,0.4c0.1,0.2,0.1,0.4,0.1,0.5
		c0,0.2-0.1,0.3-0.3,0.5c-0.1,0.1-0.3,0.2-0.5,0.3c-0.2,0-0.4,0-0.5-0.1c-0.2-0.1-0.3-0.2-0.4-0.3c-0.1-0.2-0.2-0.3-0.2-0.5
		c0-0.2,0.1-0.5,0.3-0.7S26.2,71.1,26.5,71.1z"/>
	<path class="st2" d="M13.9,85c0,0.3,0.1,0.5,0.3,0.7c0.2,0.2,0.5,0.3,0.7,0.3h23c0.3,0,0.5-0.1,0.7-0.3c0.2-0.2,0.3-0.4,0.3-0.7
		s-0.1-0.5-0.3-0.7c-0.2-0.2-0.5-0.3-0.7-0.3h-23c-0.3,0-0.5,0.1-0.7,0.3C14,84.5,13.9,84.8,13.9,85z"/>
	<path class="st2" d="M28.7,91H14.9c-0.3,0-0.5,0.1-0.7,0.3c-0.2,0.2-0.3,0.4-0.3,0.7s0.1,0.5,0.3,0.7c0.2,0.2,0.5,0.3,0.7,0.3h13.8
		c0.3,0,0.5-0.1,0.7-0.3c0.2-0.2,0.3-0.4,0.3-0.7s-0.1-0.5-0.3-0.7C29.3,91.1,29,91,28.7,91z"/>
	<path class="st2" d="M28.7,98.6H14.9c-0.3,0-0.5,0.1-0.7,0.3c-0.2,0.2-0.3,0.4-0.3,0.7s0.1,0.5,0.3,0.7s0.4,0.3,0.7,0.3h13.8
		c0.1,0,0.3,0,0.4-0.1c0.1,0,0.3-0.1,0.4-0.2s0.2-0.2,0.2-0.3c0.1-0.1,0.1-0.3,0.1-0.4c0-0.1,0-0.3-0.1-0.4
		c-0.1-0.1-0.1-0.2-0.2-0.3c-0.1-0.1-0.2-0.2-0.4-0.2C29,98.6,28.9,98.6,28.7,98.6z"/>
	<path class="st2" d="M28.7,106.2H14.9c-0.3,0-0.5,0.1-0.7,0.3c-0.2,0.2-0.3,0.4-0.3,0.7c0,0.3,0.1,0.5,0.3,0.7
		c0.2,0.2,0.5,0.3,0.7,0.3h13.8c0.3,0,0.5-0.1,0.7-0.3c0.2-0.2,0.3-0.4,0.3-0.7c0-0.3-0.1-0.5-0.3-0.7
		C29.3,106.4,29,106.2,28.7,106.2z"/>
	<path class="st2" d="M36.3,88.7l-2.6,2.7l-0.7-1c-0.1-0.1-0.2-0.2-0.3-0.3c-0.1-0.1-0.2-0.1-0.4-0.1c-0.3,0-0.5,0-0.8,0.2
		c-0.2,0.2-0.4,0.4-0.4,0.7c0,0.3,0,0.5,0.2,0.8l1.4,1.9c0.1,0.1,0.2,0.2,0.3,0.3c0.1,0.1,0.3,0.1,0.4,0.1h0.1
		c0.3,0,0.5-0.1,0.7-0.3l3.4-3.5c0.2-0.2,0.2-0.4,0.2-0.7c0-0.3-0.1-0.5-0.3-0.7c-0.2-0.2-0.4-0.3-0.7-0.3
		C36.8,88.4,36.5,88.5,36.3,88.7L36.3,88.7z"/>
	<path class="st2" d="M36.3,96.7l-2.6,2.7l-0.7-1c-0.2-0.2-0.4-0.4-0.7-0.4c-0.3,0-0.5,0-0.8,0.2c-0.2,0.2-0.4,0.4-0.4,0.7
		c0,0.3,0,0.5,0.2,0.8l1.4,1.9c0.1,0.1,0.2,0.2,0.3,0.3c0.1,0.1,0.3,0.1,0.4,0.1h0.1c0.1,0,0.3,0,0.4-0.1c0.1-0.1,0.2-0.1,0.3-0.2
		l3.4-3.5c0.2-0.2,0.3-0.5,0.3-0.7s-0.1-0.5-0.3-0.7c-0.1-0.1-0.2-0.2-0.3-0.2s-0.3-0.1-0.4-0.1C36.8,96.4,36.5,96.5,36.3,96.7
		L36.3,96.7z"/>
	<path class="st2" d="M36.3,104.7l-2.6,2.7l-0.7-1c-0.1-0.1-0.2-0.2-0.3-0.3c-0.1-0.1-0.2-0.1-0.4-0.1c-0.1,0-0.3,0-0.4,0
		c-0.1,0-0.3,0.1-0.4,0.2c-0.1,0.1-0.2,0.2-0.3,0.3c-0.1,0.1-0.1,0.2-0.1,0.4c0,0.1,0,0.3,0,0.4s0.1,0.3,0.2,0.4l1.4,1.9
		c0.1,0.1,0.2,0.2,0.3,0.3c0.1,0.1,0.3,0.1,0.4,0.1h0.1c0.1,0,0.3,0,0.4-0.1s0.2-0.1,0.3-0.2l3.4-3.5c0.2-0.2,0.3-0.5,0.3-0.7
		c0-0.3-0.1-0.5-0.3-0.7c-0.1-0.1-0.2-0.2-0.3-0.2c-0.1,0-0.3-0.1-0.4-0.1C36.8,104.3,36.5,104.5,36.3,104.7L36.3,104.7z"/>
</g>
</svg>
